<?xml version="1.0" encoding="utf-8"?>
<!-- Generator: Adobe Illustrator 23.0.1, SVG Export Plug-In . SVG Version: 6.00 Build 0)  -->
<svg version="1.1" id="Layer_1" xmlns="http://www.w3.org/2000/svg" xmlns:xlink="http://www.w3.org/1999/xlink" x="0px" y="0px"
	 viewBox="0 0 1404 792" style="enable-background:new 0 0 1404 792;" xml:space="preserve">
<style type="text/css">
	.st0{fill:none;stroke:#2E3191;stroke-width:0.1;stroke-miterlimit:22.9256;}
	.st1{fill:none;stroke:#000000;stroke-width:2;stroke-miterlimit:22.9256;}
</style>
<g id="LED_Matrix_Front_Acrylic_Panel">
	<rect x="27.5" y="22.1" class="st0" width="652" height="155.9"/>
</g>
<g id="Layer_4">
</g>
<g id="Lines">
	<rect x="45.2" y="36.1" class="st1" width="617.4" height="127.7"/>
	<rect x="60.6" y="48.4" class="st1" width="586.5" height="103.1"/>
	<rect x="74.7" y="60.8" class="st1" width="557.7" height="79.1"/>
	<rect x="31.2" y="25.3" class="st1" width="644.5" height="149.5"/>
</g>
<g id="pixel_x2A_cade_text">
	<g>
		<path d="M140.3,76.1v6.5h6.5v19.5h-6.5v6.5h-26v13h-13V76.1H140.3z M114.3,102.1h19.5V82.6h-19.5V102.1z"/>
		<path d="M172.8,115.1V82.6h-13v-6.5h39v6.5h-13v32.5h13v6.5h-39v-6.5H172.8z"/>
		<path d="M211.8,108.6v-6.5h6.5v-6.5h-6.5v-6.5h-6.5v-13h13v6.5h6.5v6.5h6.5v-6.5h6.5v-6.5h13v13h-6.5v6.5h-6.5v6.5h6.5v6.5h6.5v13
			h-13v-6.5h-6.5v-6.5h-6.5v6.5h-6.5v6.5h-13v-13H211.8z"/>
		<path d="M302.8,76.1v6.5h-32.5v13h26v6.5h-26v13h32.5v6.5h-45.5V76.1H302.8z"/>
		<path d="M322.3,76.1v39h32.5v6.5h-45.5V76.1H322.3z"/>
		<path d="M380.8,102.1v-6.5h-6.5v-6.5h-6.5v-6.5h6.5v6.5h6.5v6.5h6.5v6.5H380.8z M374.3,108.6v6.5h-6.5v-6.5H374.3z M374.3,108.6
			v-6.5h6.5v6.5H374.3z M387.3,95.6v-6.5h6.5v6.5H387.3z M393.8,102.1v6.5h6.5v6.5h-6.5v-6.5h-6.5v-6.5H393.8z M393.8,89.1v-6.5h6.5
			v6.5H393.8z"/>
		<path d="M419.8,115.1v-6.5h-6.5V89.1h6.5v-6.5h6.5v-6.5h26v6.5h6.5v6.5h-13v-6.5h-13v6.5h-6.5v19.5h6.5v6.5h13v-6.5h13v6.5h-6.5
			v6.5h-26v-6.5H419.8z"/>
		<path d="M471.8,89.1v-6.5h6.5v-6.5h19.5v6.5h6.5v6.5h6.5v32.5h-13v-13h-19.5v13h-13V89.1H471.8z M478.3,102.1h19.5v-13h-6.5v-6.5
			h-6.5v6.5h-6.5V102.1L478.3,102.1z"/>
		<path d="M549.8,76.1v6.5h6.5v6.5h6.5v19.5h-6.5v6.5h-6.5v6.5h-32.5V76.1H549.8z M530.3,115.1h13v-6.5h6.5V89.1h-6.5v-6.5h-13
			V115.1z"/>
		<path d="M614.8,76.1v6.5h-32.5v13h26v6.5h-26v13h32.5v6.5h-45.5V76.1H614.8z"/>
	</g>
</g>
<g id="Clear_Marquee">
	<g id="LED_Matrix_Front_Acrylic_Panel_1_">
		<rect x="28.8" y="188.9" class="st0" width="652" height="155.9"/>
	</g>
	<g id="LED_Matrix_Front_Acrylic_Panel_2_">
		<polyline class="st0" points="680.8,344.8 680.8,500.7 28.8,500.7 28.8,344.8 		"/>
	</g>
</g>
</svg>
