<?xml version="1.0" encoding="utf-8"?>
<!-- Generator: Adobe Illustrator 23.0.1, SVG Export Plug-In . SVG Version: 6.00 Build 0)  -->
<svg version="1.1" xmlns="http://www.w3.org/2000/svg" xmlns:xlink="http://www.w3.org/1999/xlink" x="0px" y="0px"
	 viewBox="0 0 1404 792" style="enable-background:new 0 0 1404 792;" xml:space="preserve">
<style type="text/css">
	.st0{fill:none;stroke:#000000;stroke-width:0.1;stroke-miterlimit:22.9256;}
	.st1{fill:none;stroke:#000000;stroke-width:0.1;stroke-miterlimit:10;}
</style>
<g id="Left_Side">
	<path class="st0" d="M285.9,712.6c0,0.3,0,0.6-0.1,0.9l0,0.1l0,0c-1.3,11.3-10.9,20.2-22.5,20.2h-194c-12.5,0-22.7-10.2-22.7-22.7
		V67c0-12.5,10.2-22.7,22.7-22.7H77h186.2h620.5c9.2-0.8,18.5,4.1,22.6,13l93.4,200.4c5.3,11.3,0.3,24.9-11,30.1l-155.4,72.5
		c-11.3,5.3-24.9,0.3-30.1-11C692.2,228.7,286.5,427.6,285.9,712.6z"/>
	<path class="st0" d="M99.1,176.6v102c0,3.1,2.6,5.7,5.7,5.7c3.1,0,5.7-2.6,5.7-5.7v-102c0-3.1-2.6-5.7-5.7-5.7
		C101.6,171,99.1,173.5,99.1,176.6z"/>
	<path class="st0" d="M76.4,239v102c0,3.1,2.6,5.7,5.7,5.7s5.7-2.6,5.7-5.7V239c0-3.1-2.6-5.7-5.7-5.7S76.4,235.9,76.4,239z"/>
	<path class="st0" d="M76.4,114.3v102c0,3.1,2.6,5.7,5.7,5.7s5.7-2.6,5.7-5.7v-102c0-3.1-2.6-5.7-5.7-5.7S76.4,111.2,76.4,114.3z"/>
	<path class="st0" d="M144.4,176.6v102c0,3.1,2.6,5.7,5.7,5.7s5.7-2.6,5.7-5.7v-102c0-3.1-2.6-5.7-5.7-5.7S144.4,173.5,144.4,176.6z
		"/>
	<path class="st0" d="M121.7,239v102c0,3.1,2.6,5.7,5.7,5.7c3.1,0,5.7-2.6,5.7-5.7V239c0-3.1-2.6-5.7-5.7-5.7
		C124.3,233.3,121.7,235.9,121.7,239z"/>
	<path class="st0" d="M121.7,114.3v102c0,3.1,2.6,5.7,5.7,5.7c3.1,0,5.7-2.6,5.7-5.7v-102c0-3.1-2.6-5.7-5.7-5.7
		C124.3,108.6,121.7,111.2,121.7,114.3z"/>
	<g>
		<path class="st1" d="M765.8,203.1c3.2-2.4,6.4-4.8,9.6-7.2c0.3,0.4,0.7,0.8,1,1.2c6.6,8.8,13.2,17.6,19.8,26.4
			c0.3,0.4,0.6,0.7,0.8,1.1c3.3-2.5,6.4-4.8,9.7-7.2c-2.4-3.2-4.7-6.3-7.1-9.5c3.2-2.4,6.3-4.7,9.6-7.2c-2.4-3.2-4.8-6.4-7.1-9.5
			c12.8-9.6,25.6-19.2,38.4-28.8c2.4,3.2,4.7,6.3,7.2,9.5c3.2-2.4,6.4-4.8,9.6-7.2c2.4,3.2,4.8,6.4,7.1,9.5c3.2-2.4,6.4-4.8,9.6-7.2
			c-2.3-3.1-4.6-6.2-6.9-9.2c-4.9-6.5-9.8-13-14.7-19.6c3.2-2.4,6.4-4.8,9.6-7.2c2.4,3.2,4.8,6.4,7.2,9.7c3.3-2.5,6.4-4.8,9.6-7.2
			c2.4,3.2,4.8,6.4,7.2,9.6c-3.2,2.4-6.3,4.7-9.6,7.2c4.8,6.4,9.6,12.8,14.4,19.2c-6.4,4.8-12.8,9.6-19.1,14.3
			c2.4,3.2,4.7,6.3,7.2,9.6c6.4-4.8,12.7-9.6,19.2-14.4c4.8,6.5,9.6,12.8,14.4,19.2c3.2-2.4,6.3-4.8,9.5-7.1
			c2.4,3.2,4.8,6.4,7.2,9.6c-3.2,2.4-6.3,4.7-9.6,7.2c2.4,3.2,4.8,6.4,7.1,9.5c-3.2,2.4-6.4,4.8-9.6,7.2
			c-7.2-9.6-14.3-19.1-21.5-28.6c-3.2,2.4-6.4,4.8-9.6,7.2c4.8,6.4,9.5,12.7,14.3,19.1c-3.2,2.4-6.3,4.7-9.6,7.2
			c2.4,3.2,4.8,6.4,7.1,9.5c-12.8,9.6-25.6,19.2-38.4,28.8c-2.4-3.2-4.8-6.3-7.2-9.6c-3.3,2.4-6.4,4.8-9.6,7.2
			c-4.8-6.4-9.6-12.7-14.3-19.1c-3.2,2.4-6.4,4.8-9.6,7.2c7.2,9.6,14.3,19.1,21.5,28.6c-3.2,2.4-6.4,4.8-9.6,7.2
			c-2.4-3.2-4.7-6.3-7.2-9.5c-3.3,2.4-6.4,4.8-9.6,7.2c-2.4-3.2-4.8-6.4-7.2-9.6c3.2-2.4,6.4-4.8,9.7-7.2
			c-4.8-6.4-9.6-12.7-14.4-19.2c6.4-4.8,12.8-9.6,19.1-14.3c-2.4-3.2-4.8-6.4-7.2-9.6c-6.4,4.8-12.7,9.6-19.2,14.4
			c-4.8-6.5-9.6-12.8-14.4-19.2c-3.3,2.4-6.4,4.8-9.6,7.2c-2.4-3.2-4.8-6.4-7.2-9.6c3.2-2.4,6.4-4.8,9.6-7.2
			C770.5,209.4,768.1,206.2,765.8,203.1z"/>
		<path class="st1" d="M765.8,203.1c2.4,3.2,4.8,6.4,7.2,9.6c-3.2,2.4-6.4,4.8-9.6,7.2"/>
	</g>
	<g>
		<path class="st0" d="M147.7,589.1"/>
		<path class="st0" d="M138,599.2c-0.5,0-1-0.1-1.4-0.1c-5.8,0-11.6,0-17.4,0c-0.4,0-0.9,0-1.4,0c0-3.4,0-6.6,0-10
			c-6.7,0-13.3,0-19.9,0c0-6.7,0-13.3,0-20c3.3,0,6.6,0,10,0c0-3.4,0-6.7,0-10c3.3,0,6.6,0,9.8,0c0-6.7,0-13.3,0-19.9
			c-10,0-20,0-29.9,0c0-10,0-20,0-30c3.3,0,6.7,0,10.1,0c0,3.4,0,6.6,0,9.9c6.7,0,13.2,0,20,0c0-6.7,0-13.2,0-20c10.1,0,20,0,30,0
			c0-3.4,0-6.6,0-10c3.4,0,6.6,0,10,0c0-3.4,0-6.6,0-10c3.4,0,6.7,0,10.1,0c0-3.4,0-6.7,0-10c10,0,20,0,30,0c0,6.6,0,13.3,0,20
			c-6.8,0-13.4,0-20.1,0c0,3.4,0,6.7,0,10c-3.4,0-6.6,0-9.8,0c0,3.4,0,6.6,0,9.9c20,0,39.9,0,60,0c0-3.3,0-6.6,0-9.8
			c6.7,0,13.3,0,19.8,0c0,33.4,0,66.6,0,99.9c-6.6,0-13.2,0-19.9,0c0-3.3,0-6.6,0-9.9c-20,0-39.9,0-59.9,0c0,6.6,0,13.2,0,20
			c-3.4,0-6.7,0-10.1,0c0,3.4,0,6.6,0,10c-3.4,0-6.7,0-10.1,0c0,3.4,0,6.7,0,10c-10,0-20,0-30,0c0-6.6,0-13.2,0-20.1
			c6.8,0,13.4,0,20.1,0c0-0.9,0-1.5,0-2.2C137.9,604.3,137.9,601.7,138,599.2"/>
		<path class="st0" d="M137.8,589.1"/>
	</g>
	<circle class="st0" cx="644.3" cy="133.7" r="5"/>
	<circle class="st0" cx="728.2" cy="133.7" r="5"/>
	<path class="st0" d="M663.6,147.9h45.4c1.6,0,2.8-1.3,2.8-2.8v-22.7c0-1.6-1.3-2.8-2.8-2.8h-45.4c-1.6,0-2.8,1.3-2.8,2.8v22.7
		C660.7,146.6,662,147.9,663.6,147.9z"/>
	<circle class="st0" cx="644.3" cy="170.8" r="5"/>
	<circle class="st0" cx="728.2" cy="170.8" r="5"/>
	<path class="st0" d="M663.6,184.9h45.4c1.6,0,2.8-1.3,2.8-2.8v-22.7c0-1.6-1.3-2.8-2.8-2.8h-45.4c-1.6,0-2.8,1.3-2.8,2.8v22.7
		C660.7,183.7,662,184.9,663.6,184.9z"/>
	<g>
		<g id="pacman_dots_2_">
			<path class="st1" d="M319.7,439.8c-0.5-5.8,4.7-10.7,10.3-10.5c6.9,0.2,10,4.6,10.4,10.2c0.4,5.3-5.2,10.9-10.4,10.6
				C324,449.7,319.5,445.8,319.7,439.8z"/>
			<path class="st1" d="M319.7,400c-0.3-5.8,4.5-10.1,10.1-10.3c5.8-0.2,11,5,10.6,10.6c-0.4,5.8-4.2,10.1-10.9,10.2
				C324.7,410.6,319.2,405.8,319.7,400z"/>
			<path class="st1" d="M319.7,360.8c-0.5-5.5,4.9-10.7,10.3-10.4c7,0.3,10.3,4.5,10.4,10.2c0.1,6-3.7,10.5-10.4,10.6
				C324.6,371.2,319.5,367.3,319.7,360.8z"/>
		</g>
		<g id="Pacman_2_">
			<path class="st1" d="M371.7,370.9c-7.1-11.4-14.2-22.9-21.3-34.3c-5.5-8.8-11.1-17.6-16.6-26.3c-2-3.1-4-6.2-5.9-9.4
				c-1-1.6-1.5-1.3-2.3,0.1c-4.3,6.8-8.6,13.6-12.9,20.4c-4.1,6.4-8.1,12.9-12.2,19.3c-6.1,9.8-12.3,19.6-18.4,29.5
				c-0.1,0.2-0.2,0.3-0.5,0.6c-8.7-5.4-16-12.3-22.1-20.5c-11.3-15.3-16.8-32.6-16.5-51.5c0.4-19.9,7.1-37.7,20.1-52.8
				c13.2-15.4,30-24.9,49.9-28.1c42.4-6.8,76.1,18,89.4,46.8C422.4,307.8,402.4,352.2,371.7,370.9z"/>
		</g>
	</g>
	<g>
		<path class="st1" d="M529.6,137.1c20,0,40,0,60,0c0,4,0,8,0,12.1c-8.1,0-16,0-23.9,0c0,8,0,16,0,24c4,0,7.9,0,12,0c0,4,0,8,0,12
			c4,0,8,0,12,0c0,4,0,8,0,12c4,0,8,0,11.9,0c0,4,0,8,0,12c-4,0-7.9,0-12,0c0,4,0,8,0,12c-4,0-8,0-12,0c0,4,0,8,0,12
			c-4,0-8,0-11.9,0c0,8,0,16,0,24c8,0,15.9,0,23.9,0c0,4,0,8,0,11.9c-20,0-39.9,0-60,0c0-4,0-7.9,0-11.9c-4,0-8,0-12,0c0-4,0-8,0-12
			c-4,0-8,0-12,0c0-4,0-8,0-12c-4,0-8,0-11.9,0c0-4.1,0-8,0-12c12,0,23.9,0,35.8,0c0-4.1,0-8,0-12c-0.5,0-1,0-1.5,0
			c-19,0-37.9,0-56.9,0c-0.5,0-1,0-1.6,0c0-4,0-8,0-12c0.2,0,0.4,0,0.6,0c19.5,0,39,0,58.4,0c0.3,0,0.6-0.1,0.9-0.1
			c0-4,0-7.9,0-11.9c-12,0-23.9,0-35.9,0c0-4,0-8,0-12c4,0,7.9,0,12,0c0-4,0-8,0-12c4,0,8,0,12,0c0-4,0-8,0-12c4,0,8,0,12,0
			C529.6,145,529.6,141,529.6,137.1z"/>
	</g>
</g>
<g id="Right_Side">
	<path class="st0" d="M1112.2,83.6c0-0.3,0-0.6,0.1-0.9l0-0.1l0,0c1.3-11.3,10.9-20.2,22.5-20.2h194c12.5,0,22.7,10.2,22.7,22.7
		v644.2c0,12.5-10.2,22.7-22.7,22.7h-7.8h-186.2H514.4c-9.2,0.8-18.5-4.1-22.6-13l-93.4-200.4c-5.3-11.3-0.3-24.9,11-30.1
		l155.4-72.5c11.3-5.3,24.9-0.3,30.1,11C705.9,567.5,1111.6,368.6,1112.2,83.6z"/>
	<path class="st0" d="M1299.1,619.6v-102c0-3.1-2.6-5.7-5.7-5.7c-3.1,0-5.7,2.6-5.7,5.7v102c0,3.1,2.6,5.7,5.7,5.7
		C1296.5,625.2,1299.1,622.7,1299.1,619.6z"/>
	<path class="st0" d="M1321.7,557.2v-102c0-3.1-2.6-5.7-5.7-5.7s-5.7,2.6-5.7,5.7v102c0,3.1,2.6,5.7,5.7,5.7
		S1321.7,560.3,1321.7,557.2z"/>
	<path class="st0" d="M1321.7,681.9v-102c0-3.1-2.6-5.7-5.7-5.7s-5.7,2.6-5.7,5.7v102c0,3.1,2.6,5.7,5.7,5.7
		S1321.7,685,1321.7,681.9z"/>
	<path class="st0" d="M1253.7,619.6v-102c0-3.1-2.6-5.7-5.7-5.7s-5.7,2.6-5.7,5.7v102c0,3.1,2.6,5.7,5.7,5.7
		S1253.7,622.7,1253.7,619.6z"/>
	<path class="st0" d="M1276.4,557.2v-102c0-3.1-2.6-5.7-5.7-5.7c-3.1,0-5.7,2.6-5.7,5.7v102c0,3.1,2.6,5.7,5.7,5.7
		C1273.8,562.9,1276.4,560.3,1276.4,557.2z"/>
	<path class="st0" d="M1276.4,681.9v-102c0-3.1-2.6-5.7-5.7-5.7c-3.1,0-5.7,2.6-5.7,5.7v102c0,3.1,2.6,5.7,5.7,5.7
		C1273.8,687.6,1276.4,685,1276.4,681.9z"/>
	<g id="Whole_4_">
		<g>
			<path class="st0" d="M1002.5,527.5c-21,0-42,0-63,0c0,2.9,0,5.8,0,9.1c-6.3,0-11.9,0-17.8,0c-0.2,3.1-0.3,5.8-0.5,9.1
				c-6.1,0-11.8,0-17.9,0c0,3.2,0,5.8,0,8.6c-3.1,0.2-5.8,0.3-9,0.5c0,3.1,0,5.8,0,8.9c-3.1,0-5.7,0-8.9,0c0,6.1,0,11.8,0,18.1
				c-3.3,0-6,0-8.7,0c0,27.1,0,53.7,0,80.6c2.9,0.2,5.7,0.3,8.9,0.5c0,6.1,0,11.8,0,17.9c3.2,0,5.8,0,8.6,0c0.2,3.1,0.3,5.8,0.5,9
				c3.1,0,5.8,0,8.9,0c0,3.1,0,5.7,0,8.6c3.1,0.2,5.8,0.3,9.1,0.5c0,3,0,5.8,0,8.8c9.1,0,17.7,0,26.6,0c0.2,3.1,0.3,5.8,0.5,8.5
				c21.1,0,41.8,0,62.9,0c0-3,0-5.6,0-8.7c6.1,0,11.8,0,18.1,0c0-3.3,0-6,0-8.7c6.1,0,11.7,0,17.6,0c0.2,3,0.3,5.7,0.4,8.4
				c3.1,0,5.8,0,8.5,0c0-9,0-17.6,0-26.4c-3-0.2-5.7-0.3-8.4-0.4c0-3.1,0-5.8,0-8.9c3,0,5.6,0,8.7,0c0-12.1,0-23.8,0-35.9
				c3.3,0,6.1,0,8.9,0c0-12,0-24,0-36c-2.9,0-5.8,0-9.3,0c0-6.4,0-12.2,0-18.2c-3.1,0-5.7,0-8.9,0c0-6.1,0-11.8,0-18
				c-3.2,0-6,0-8.6,0c0-9.1,0-17.7,0-26.8c6,0,11.7,0,17.7,0c0-3.3,0-6.1,0-8.9c-9,0-18,0-27,0c0,5.9,0,11.8,0,17.6
				c-3.4,0-6.1,0-9.2,0c0-3,0-5.6,0-8.4c-3.1-0.1-5.8-0.3-8.8-0.4C1002.5,533.1,1002.5,530.3,1002.5,527.5z"/>
		</g>
	</g>
	<g id="Whole_3_">
		<path class="st0" d="M738.6,602.2c1.7,0,3.4,0,5.3,0c0,1.9,0,3.7,0,5.6c1.8,0,3.5,0,5.4,0c0,3.8,0,7.4,0,11.1c3.9,0,7.5,0,11.4,0
			c0-1.8,0-3.6,0-5.6c1.9,0,3.6,0,5.4,0c0-5.6,0-11.1,0-16.8c1.9,0,3.7,0,5.7,0c0-3.8,0-7.4,0-11.1c2,0,3.7,0,5.7,0
			c0-1.9,0-3.7,0-5.7c7.5,0,14.8,0,22.2,0c0,1.8,0,3.6,0,5.6c1.9,0,3.7,0,5.7,0c0,3.7,0,7.3,0,11.1c1.9,0,3.7,0,5.7,0
			c0,5.7,0,11.2,0,16.8c1.8,0,3.5,0,5.3,0c0,18.7,0,37.3,0,56.1c-1.7,0-3.4,0-5.2,0c0,5.6,0,11.1,0,16.8c-1.9,0-3.7,0-5.7,0
			c0,3.8,0,7.4,0,11.1c-2,0-3.7,0-5.7,0c0,2,0,3.9,0,5.8c-7.4,0-14.8,0-22.2,0c0-1.8,0-3.7,0-5.7c-1.9,0-3.7,0-5.7,0
			c0-3.7,0-7.3,0-11c-1.9,0-3.7,0-5.7,0c0-5.7,0-11.2,0-16.8c-1.8,0-3.5,0-5.3,0c0-1.9,0-3.7,0-5.7c-3.9,0-7.6,0-11.4,0
			c0,1.8,0,3.6,0,5.6c-1.8,0-3.5,0-5.4,0c0,3.8,0,7.4,0,11.1c-2,0-3.7,0-5.7,0c0,1.9,0,3.7,0,5.7c-1.9,0-3.7,0-5.7,0
			c0,1.9,0,3.7,0,5.7c-3.8,0-7.4,0-11.1,0c0,1.8,0,3.5,0,5.3c-14.9,0-29.7,0-44.7,0c0-1.6,0-3.3,0-5.2c-3.9,0-7.6,0-11.4,0
			c0-1.9,0-3.7,0-5.7c-3.7,0-7.3,0-11.1,0c0-3.8,0-7.4,0-11.1c-1.9,0-3.7,0-5.7,0c0-1.9,0-3.7,0-5.7c-1.9,0-3.6,0-5.4,0
			c0-3.7,0-7.3,0-11.1c-2,0-3.9,0-5.8,0c0-11.2,0-22.4,0-33.6c1.8,0,3.7,0,5.7,0c0-3.8,0-7.6,0-11.4c1.8,0,3.5,0,5.3,0
			c0-3.7,0-7.3,0-11.1c2,0,3.7,0,5.7,0c0-1.9,0-3.7,0-5.7c2,0,3.8,0,5.7,0c0-1.8,0-3.5,0-5.3c1.8,0,3.5,0,5.4,0c0-2,0-3.8,0-5.7
			c13.2,0,26.1,0,39.3,0c0-1.9,0-3.7,0-5.7c2,0,3.8,0,5.7,0c0-1.8,0-3.5,0-5.3c1.8,0,3.5,0,5.3,0c0-2,0-3.7,0-5.7c1.9,0,3.7,0,5.7,0
			c0-2,0-3.8,0-5.7c2,0,3.7,0,5.7,0c0-1.8,0-3.5,0-5.4c1.9,0,3.6,0,5.4,0c0-2,0-3.7,0-5.6c7.5,0,14.9,0,22.5,0c0,1.8,0,3.6,0,5.5
			c2,0,3.7,0,5.6,0c0,7.4,0,14.7,0,22.2c-1.8,0-3.6,0-5.6,0c0,2,0,3.7,0,5.7c-1.9,0-3.7,0-5.7,0c0,2,0,3.7,0,5.7c-1.8,0-3.5,0-5.4,0
			c0,1.9,0,3.6,0,5.4c-2,0-3.7,0-5.7,0 M736.9,600"/>
		<polyline class="st0" points="738.6,596.3 735.5,596.3 735.5,602.2 738.6,602.2 		"/>
	</g>
	<g id="acHZ0T.tif_2_">
		<g>
			<path class="st0" d="M1303.2,288.9c0-10.7,0-21.3,0-32c-21.2,0-42.5,0-63.6,0c0-11.1,0-21.4,0-31.7c16,0,31.6,0,47.7,0
				c0,5.3,0,10.4,0,15.7c5.7,0,10.8,0,15.9,0c0-10.7,0-21.3,0-32c-42.6,0-85.1,0-127.6,0c0-5.7,0-10.8,0-16.2c16,0,31.6,0,47.3,0
				c0-5.4,0-10.5,0-15.5c-21.4,0-42.4,0-63.8,0c0,5.3,0,10.2,0,15.7c-5.4,0-10.5,0-16.1,0c0,5.6,0,10.7,0,16.1c-5.5,0-10.4,0-15.5,0
				c0,21.4,0,42.5,0,63.5c5.4,0,10.4,0,15.8,0c0-5.3,0-10.2,0-15.3c5.4,0,10.5,0,15.9,0c0,16.1,0,31.9,0,47.7c21.3,0,42.7,0,64,0
				c0-5.3,0-10.5,0-16.3c-16.4,0-32.1,0-47.7,0c0-5.5,0-10.4,0-15.5c37.3,0,74.3,0,111.8,0c0,5.3,0,10.4,0,15.7
				C1293,288.9,1298.1,288.9,1303.2,288.9z"/>
		</g>
	</g>
	<g id="Whole_2_">
		<g>
			<path class="st0" d="M1090.3,467.2c-1.7,2.6-3.4,5.2-5.3,8.1c-8.4-5.5-16.5-10.9-25.1-16.5c3.5-5.4,7-10.7,10.7-16.3
				c-2.9-1.9-5.3-3.5-8.2-5.4c3.7-5.6,7.2-10.9,11.1-16.8c-5.9-3.9-11.4-7.5-16.9-11.1c5.5-8.4,11-16.7,16.5-25.1
				c2.6,1.7,5.2,3.4,8.3,5.4c3.7-5.6,7.2-10.9,11-16.7c3,1.9,5.5,3.6,8.3,5.5c1.9-2.9,3.5-5.3,5.4-8.2c2.8,1.9,5.4,3.5,8.5,5.6
				c2.1-3.1,3.8-5.8,5.6-8.6c11.1,7.3,22.3,14.7,33.4,22c-3.5,5.4-7.1,10.8-10.8,16.4c2.8,1.9,5.4,3.5,8.2,5.4
				c1.7-2.5,3.3-5,5.2-7.9c2.8,1.9,5.4,3.5,8.5,5.6c2.1-3.1,3.9-5.9,5.6-8.6c2.8,1.8,5.6,3.7,8.4,5.5c-3.6,5.4-7.1,10.8-10.8,16.5
				c2.8,1.9,5.4,3.6,8.2,5.4c1.7-2.6,3.3-5,5.1-7.8c8.4,5.5,16.5,10.9,24.9,16.4c-7.2,10.9-14.3,21.8-21.7,32.9
				c-2.6-1.7-5-3.3-7.9-5.2c3.5-5.3,7-10.6,10.7-16.2c-3-2-5.5-3.6-8.3-5.5c-5.4,8.1-10.6,16.2-16.2,24.6c5.3,3.5,10.6,7,16.2,10.7
				c-7.5,11.4-14.6,22.3-22,33.4c-2.6-1.7-5-3.3-7.9-5.2c3.5-5.3,7-10.6,10.7-16.2c-3-2-5.5-3.6-8.4-5.5c-1.7,2.5-3.3,5-5.2,7.9
				c-2.8-1.9-5.4-3.6-8.4-5.5c-2,3-3.7,5.5-5.5,8.4c-2.9-1.9-5.3-3.5-8.1-5.3c-1.9,2.8-3.5,5.4-5.5,8.4c5.3,3.5,10.6,7,16.2,10.6
				c-1.9,2.9-3.5,5.3-5.4,8.2c-2.5-1.6-5-3.3-8-5.3c-2,3-3.7,5.6-5.5,8.4c-2.9-1.9-5.3-3.5-8.3-5.4c-1.9,2.8-3.6,5.4-5.4,8.2
				c-3-2-5.5-3.6-8.4-5.5c1.7-2.5,3.3-5,5.2-7.9c-2.8-1.9-5.4-3.6-8.4-5.5c2-3,3.7-5.5,5.5-8.4c-2.9-1.9-5.3-3.5-8.1-5.3
				c1.9-2.8,3.5-5.4,5.5-8.4c5.3,3.5,10.6,7,16.2,10.6c1.9-2.9,3.5-5.3,5.4-8.2c-2.5-1.6-5-3.3-8-5.3c2-3,3.7-5.5,5.5-8.3
				c-2.9-1.9-5.3-3.5-8.3-5.4c-1.6,2.5-3.3,5-5.4,8.2c-3.2-2.1-5.9-3.9-8.6-5.7 M1079.1,448.4"/>
			<path class="st0" d="M1153.5,389.2c-3.5,5.4-7.1,10.8-10.8,16.4c2.8,1.9,5.4,3.5,8.2,5.4c1.7-2.5,3.3-5,5.2-7.9
				c2.8,1.9,5.4,3.5,8.5,5.6c2.1-3.1,3.9-5.9,5.6-8.6"/>
		</g>
	</g>
	<g id="E80xf9.tif_2_">
		<g>
			<path class="st0" d="M548,523.5c-13.3,0-26.7,0-40,0c0,9.9,0,19.8,0,29.6c-3.7,0-6.7,0-10.1,0c0-3.3,0-6.2,0-9.4
				c-6.7,0-13.1,0-20,0c0,3.3,0,6.4,0,9.7c-3.6,0-6.8,0-9.9,0c0,10,0,20,0,30c3.3,0,6.5,0,10.3,0c0,3.7,0,6.8,0,9.8
				c6.8,0,13,0,19.8,0c0-3.3,0-6.3,0-9.4c3.6,0,6.6,0,9.9,0c0,10.1,0,19.9,0,29.7c13.3,0,26.7,0,40,0c0-3.3,0-6.5,0-10.1
				c-7,0-13.3,0-19.7,0c0-3.4,0-6.5,0-10.1c3.4,0,6.4,0,9.8,0c0-3.5,0-6.4,0-9.5c6.8,0,13.1,0,20.1,0c0,3.4,0,6.4,0,9.8
				c10.1,0,19.7,0,29.9,0c0,3.4,0,6.5,0,9.9c3.7,0,6.8,0,9.9,0c0-10,0-20,0-30c-13.2,0-26.5,0-39.6,0c0-3.7,0-6.8,0-10.2
				c6.7,0,12.9,0,19.3,0c0-10.1,0-19.8,0-29.4c-3.4,0-6.4,0-9.8,0c0,3.3,0,6.3,0,9.7c-6.7,0-13.1,0-20,0c0,3.6,0,6.7,0,9.6
				c-3.5,0-6.4,0-9.9,0c0-3.3,0-6.4,0-9.9c-3.6,0-6.7,0-9.7,0c0-3.5,0-6.4,0-9.9c6.6,0,13,0,19.8,0C548,529.8,548,526.7,548,523.5z"
				/>
		</g>
	</g>
</g>
</svg>
