<?xml version="1.0" encoding="utf-8"?>
<!-- Generator: Adobe Illustrator 23.0.1, SVG Export Plug-In . SVG Version: 6.00 Build 0)  -->
<svg version="1.1" id="Layer_1" xmlns="http://www.w3.org/2000/svg" xmlns:xlink="http://www.w3.org/1999/xlink" x="0px" y="0px"
	 viewBox="0 0 1404 792" style="enable-background:new 0 0 1404 792;" xml:space="preserve">
<style type="text/css">
	.st0{fill:none;stroke:#1A1A18;stroke-width:0.1;stroke-miterlimit:22.9256;}
	.st1{fill:none;stroke:#231F20;stroke-width:0.1;stroke-miterlimit:22.9256;}
</style>
<g id="Left_Side">
	
		<rect x="236.7" y="666.1" transform="matrix(8.714644e-02 -0.9962 0.9962 8.714644e-02 -430.1326 879.8311)" class="st0" width="56.7" height="17"/>
	
		<rect x="254" y="468.4" transform="matrix(8.714519e-02 -0.9962 0.9962 8.714519e-02 -217.364 716.685)" class="st0" width="56.7" height="17"/>
	
		<rect x="245.3" y="567.2" transform="matrix(8.714519e-02 -0.9962 0.9962 8.714519e-02 -323.6947 798.2173)" class="st0" width="56.7" height="17"/>
	<rect x="61.4" y="693.6" class="st0" width="42.5" height="8.5"/>
	<rect x="211.6" y="693.6" class="st0" width="42.5" height="8.5"/>
	<rect x="136.5" y="693.6" class="st0" width="42.5" height="8.5"/>
	
		<rect x="957.1" y="227.7" transform="matrix(0.9063 -0.4226 0.4226 0.9063 -15.1375 429.5851)" class="st0" width="8.5" height="42.5"/>
	
		<rect x="923.6" y="155.8" transform="matrix(0.9063 -0.4226 0.4226 0.9063 12.1235 408.6923)" class="st0" width="8.5" height="42.5"/>
	
		<rect x="901.9" y="67.8" transform="matrix(0.9063 -0.4227 0.4227 0.9063 38.2872 393.3554)" class="st0" width="8.5" height="85"/>
	
		<rect x="968.4" y="231.8" transform="matrix(0.9063 -0.4226 0.4226 0.9063 -15.8105 434.7414)" class="st0" width="8.5" height="42.5"/>
	
		<rect x="939.7" y="170.2" transform="matrix(0.9063 -0.4226 0.4226 0.9063 7.5473 416.8513)" class="st0" width="8.5" height="42.5"/>
	<path class="st0" d="M105.4,180v102c0,3.1,2.6,5.7,5.7,5.7l0,0c3.1,0,5.7-2.6,5.7-5.7V180c0-3.1-2.6-5.7-5.7-5.7l0,0
		C107.9,174.3,105.4,176.8,105.4,180z"/>
	<path class="st0" d="M82.7,242.3v102c0,3.1,2.6,5.7,5.7,5.7l0,0c3.1,0,5.7-2.6,5.7-5.7v-102c0-3.1-2.6-5.7-5.7-5.7l0,0
		C85.2,236.7,82.7,239.2,82.7,242.3z"/>
	<path class="st0" d="M82.7,117.6v102c0,3.1,2.6,5.7,5.7,5.7l0,0c3.1,0,5.7-2.6,5.7-5.7v-102c0-3.1-2.6-5.7-5.7-5.7l0,0
		C85.2,111.9,82.7,114.5,82.7,117.6z"/>
	<path class="st0" d="M150.7,180v102c0,3.1,2.6,5.7,5.7,5.7l0,0c3.1,0,5.7-2.6,5.7-5.7V180c0-3.1-2.6-5.7-5.7-5.7l0,0
		C153.3,174.3,150.7,176.8,150.7,180z"/>
	<path class="st0" d="M128,242.3v102c0,3.1,2.6,5.7,5.7,5.7l0,0c3.1,0,5.7-2.6,5.7-5.7v-102c0-3.1-2.6-5.7-5.7-5.7l0,0
		C130.6,236.7,128,239.2,128,242.3z"/>
	<path class="st0" d="M128,117.6v102c0,3.1,2.6,5.7,5.7,5.7l0,0c3.1,0,5.7-2.6,5.7-5.7v-102c0-3.1-2.6-5.7-5.7-5.7l0,0
		C130.6,111.9,128,114.5,128,117.6z"/>
	<rect x="125.1" y="379.4" class="st0" width="42.5" height="8.5"/>
	<rect x="188.9" y="379.4" class="st0" width="42.5" height="8.5"/>
	<rect x="61.4" y="379.4" class="st0" width="42.5" height="8.5"/>
	<rect x="61.4" y="73.7" class="st0" width="141.7" height="8.5"/>
	<rect x="288.1" y="73.7" class="st0" width="113.4" height="8.5"/>
	<rect x="544.2" y="73.7" class="st0" width="113.4" height="8.5"/>
	<rect x="771" y="73.7" class="st0" width="113.4" height="8.5"/>
	<path class="st0" d="M292.2,716c0,0.3,0,0.6-0.1,0.9v0.1l0,0c-1.3,11.3-10.9,20.2-22.5,20.2h-194c-12.5,0-22.7-10.2-22.7-22.7
		v-12.3h8.5v-85h-8.5v-85h8.5v-85h-8.5V328.8h8.5v-85h-8.5v-85h8.5v-85h-8.5v-3.5c0-12.5,10.2-22.7,22.7-22.7h7.8h186.2h620.5
		c9.2-0.8,18.5,4.1,22.6,13l93.4,200.4c5.3,11.3,0.3,24.9-11,30.1l-155.4,72.5c-11.3,5.3-24.9,0.3-30.1-11
		C698.5,232,292.8,431,292.2,716z"/>
	<path class="st1" d="M743.3,105h-102c-3.1,0-5.7,5.1-5.7,11.3v79.4c0,6.2,2.6,11.3,5.7,11.3h102c3.1,0,5.7-5.1,5.7-11.3v-79.4
		C748.9,110.1,746.4,105,743.3,105z"/>
	
		<rect x="286" y="417.6" transform="matrix(0.9063 -0.4226 0.4226 0.9063 -150.2064 175.9735)" class="st0" width="71.6" height="18.4"/>
	
		<rect x="402.6" y="366.6" transform="matrix(0.9063 -0.4226 0.4226 0.9063 -118.4522 217.3717)" class="st0" width="56.9" height="18.4"/>
	
		<rect x="505.3" y="318.8" transform="matrix(0.9063 -0.4226 0.4226 0.9063 -88.5949 256.2942)" class="st0" width="56.9" height="18.4"/>
	<polygon class="st0" points="820.2,204.5 812.5,187.9 761.1,211.8 709.7,235.8 658.3,259.8 607,283.7 614.7,300.4 666.1,276.4 
		717.5,252.4 768.9,228.5 	"/>
	
		<rect x="865" y="151.1" transform="matrix(0.9063 -0.4226 0.4226 0.9063 15.9808 392.5939)" class="st0" width="56.9" height="18.4"/>
	<polygon class="st0" points="774.9,225.6 783.1,221.8 783.1,221.8 791.2,218 809.3,256.9 801.2,260.7 793,264.5 	"/>
	<polygon class="st0" points="808.2,296.8 816.3,293 816.3,293 824.5,289.2 842.6,328 834.4,331.8 826.3,335.6 	"/>
</g>
<g id="Right_Side">
	
		<rect x="1100.9" y="105.3" transform="matrix(8.714644e-02 -0.9962 0.9962 8.714644e-02 917.4337 1228.879)" class="st0" width="56.7" height="17"/>
	
		<rect x="1083.6" y="303" transform="matrix(8.714519e-02 -0.9962 0.9962 8.714519e-02 704.7488 1392.1335)" class="st0" width="56.7" height="17"/>
	
		<rect x="1092.2" y="204.1" transform="matrix(8.714519e-02 -0.9962 0.9962 8.714519e-02 811.1044 1310.4119)" class="st0" width="56.7" height="17"/>
	<rect x="1290.4" y="86.4" class="st0" width="42.5" height="8.5"/>
	<rect x="1140.2" y="86.4" class="st0" width="42.5" height="8.5"/>
	<rect x="1215.3" y="86.4" class="st0" width="42.5" height="8.5"/>
	
		<rect x="428.7" y="518.2" transform="matrix(0.9063 -0.4226 0.4226 0.9063 -187.4329 233.5023)" class="st0" width="8.5" height="42.5"/>
	
		<rect x="462.2" y="590.2" transform="matrix(0.9063 -0.4226 0.4226 0.9063 -214.6858 254.394)" class="st0" width="8.5" height="42.5"/>
	
		<rect x="483.9" y="635.5" transform="matrix(0.9063 -0.4227 0.4227 0.9063 -240.8393 269.9009)" class="st0" width="8.5" height="85"/>
	
		<rect x="417.4" y="514.1" transform="matrix(0.9063 -0.4226 0.4226 0.9063 -186.7559 228.3455)" class="st0" width="8.5" height="42.5"/>
	
		<rect x="446.1" y="575.9" transform="matrix(0.9063 -0.4226 0.4226 0.9063 -210.152 246.2624)" class="st0" width="8.5" height="42.5"/>
	<path class="st0" d="M1289,608.6v-102c0-3.1-2.6-5.7-5.7-5.7l0,0c-3.1,0-5.7,2.6-5.7,5.7v102c0,3.1,2.6,5.7,5.7,5.7l0,0
		C1286.4,614.2,1289,611.7,1289,608.6z"/>
	<path class="st0" d="M1311.6,546.2v-102c0-3.1-2.6-5.7-5.7-5.7l0,0c-3.1,0-5.7,2.6-5.7,5.7v102c0,3.1,2.6,5.7,5.7,5.7l0,0
		C1309.1,551.9,1311.6,549.3,1311.6,546.2z"/>
	<path class="st0" d="M1311.6,670.9v-102c0-3.1-2.6-5.7-5.7-5.7l0,0c-3.1,0-5.7,2.6-5.7,5.7v102c0,3.1,2.6,5.7,5.7,5.7l0,0
		C1309.1,676.6,1311.6,674.1,1311.6,670.9z"/>
	<path class="st0" d="M1243.6,608.6v-102c0-3.1-2.6-5.7-5.7-5.7l0,0c-3.1,0-5.7,2.6-5.7,5.7v102c0,3.1,2.6,5.7,5.7,5.7l0,0
		C1241,614.2,1243.6,611.7,1243.6,608.6z"/>
	<path class="st0" d="M1266.3,546.2v-102c0-3.1-2.6-5.7-5.7-5.7l0,0c-3.1,0-5.7,2.6-5.7,5.7v102c0,3.1,2.6,5.7,5.7,5.7l0,0
		C1263.7,551.9,1266.3,549.3,1266.3,546.2z"/>
	<path class="st0" d="M1266.3,670.9v-102c0-3.1-2.6-5.7-5.7-5.7l0,0c-3.1,0-5.7,2.6-5.7,5.7v102c0,3.1,2.6,5.7,5.7,5.7l0,0
		C1263.7,676.6,1266.3,674.1,1266.3,670.9z"/>
	<rect x="1226.6" y="400.6" class="st0" width="42.5" height="8.5"/>
	<rect x="1162.9" y="400.6" class="st0" width="42.5" height="8.5"/>
	<rect x="1290.4" y="400.6" class="st0" width="42.5" height="8.5"/>
	<rect x="1191.2" y="706.3" class="st0" width="141.7" height="8.5"/>
	<rect x="992.8" y="706.3" class="st0" width="113.4" height="8.5"/>
	<rect x="736.7" y="706.3" class="st0" width="113.4" height="8.5"/>
	<rect x="509.9" y="706.3" class="st0" width="113.4" height="8.5"/>
	<path class="st0" d="M1102.1,72.6c0-0.3,0-0.6,0.1-0.9v-0.1l0,0c1.3-11.3,10.9-20.2,22.5-20.2h194c12.5,0,22.7,10.2,22.7,22.7v12.3
		h-8.5v85h8.5v85h-8.5v85h8.5v118.2h-8.5v85h8.5v85h-8.5v85h8.5v3.5c0,12.5-10.2,22.7-22.7,22.7h-7.8h-186.2H504.2
		c-9.2,0.8-18.5-4.1-22.6-13l-93.4-200.4c-5.3-11.3-0.3-24.9,11-30.1l155.4-72.5c11.3-5.3,24.9-0.3,30.1,11
		C695.8,556.5,1101.5,357.6,1102.1,72.6z"/>
	
		<rect x="1036.7" y="352.6" transform="matrix(0.9063 -0.4226 0.4226 0.9063 -52.4024 487.1409)" class="st0" width="71.6" height="18.4"/>
	
		<rect x="934.9" y="403.5" transform="matrix(0.9063 -0.4226 0.4226 0.9063 -84.1385 445.7783)" class="st0" width="56.9" height="18.4"/>
	
		<rect x="832.1" y="451.4" transform="matrix(0.9063 -0.4226 0.4226 0.9063 -114.0142 406.8203)" class="st0" width="56.9" height="18.4"/>
	<polygon class="st0" points="574.1,584 581.8,600.7 633.2,576.7 684.6,552.8 736,528.8 787.4,504.8 779.6,488.2 728.2,512.2 
		676.8,536.1 625.4,560.1 	"/>
	
		<rect x="472.4" y="619.1" transform="matrix(0.9063 -0.4226 0.4226 0.9063 -218.5862 270.52)" class="st0" width="56.9" height="18.4"/>
	<polygon class="st0" points="619.4,562.9 611.2,566.7 611.2,566.7 603.1,570.5 585,531.7 593.1,527.9 601.3,524.1 	"/>
	<polygon class="st0" points="586.1,491.7 578,495.5 578,495.5 569.8,499.3 551.7,460.5 559.9,456.7 568,452.9 	"/>
</g>
</svg>
