<?xml version="1.0" encoding="utf-8"?>
<!-- Generator: Adobe Illustrator 23.0.1, SVG Export Plug-In . SVG Version: 6.00 Build 0)  -->
<svg version="1.1" id="LED_Matrix_Front_Acrylic_Panel"
	 xmlns="http://www.w3.org/2000/svg" xmlns:xlink="http://www.w3.org/1999/xlink" x="0px" y="0px" viewBox="0 0 1404 792"
	 style="enable-background:new 0 0 1404 792;" xml:space="preserve">
<style type="text/css">
	.st0{fill:none;stroke:#EC008C;stroke-width:0.1;stroke-miterlimit:22.9256;}
</style>
<g id="Matrix_Front_Acrylic_Panel_1_">
	<g id="Matrix_Front_Acrylic_Panel">
		<path class="st0" d="M62.8,46.6c2.7,0,4.8,2.2,4.8,4.8c0,2.7-2.2,4.8-4.8,4.8c-2.7,0-4.8-2.2-4.8-4.8S60.1,46.6,62.8,46.6z"/>
		<path class="st0" d="M456.3,46.6c2.7,0,4.8,2.2,4.8,4.8c0,2.7-2.2,4.8-4.8,4.8c-2.7,0-4.8-2.2-4.8-4.8S453.7,46.6,456.3,46.6z"/>
		<path class="st0" d="M62.8,441.3c2.7,0,4.8,2.2,4.8,4.8c0,2.7-2.2,4.8-4.8,4.8c-2.7,0-4.8-2.2-4.8-4.8
			C58,443.4,60.2,441.3,62.8,441.3z"/>
		<path class="st0" d="M456.3,441.3c2.7,0,4.8,2.2,4.8,4.8c0,2.7-2.2,4.8-4.8,4.8c-2.7,0-4.8-2.2-4.8-4.8
			C451.5,443.4,453.7,441.3,456.3,441.3z"/>
		<path class="st0" d="M76.6,30.5h365.9c20.3,0,36.8,16.6,36.8,36.8v365.9c0,20.3-16.6,36.8-36.8,36.8H76.6
			c-20.3,0-36.8-16.6-36.8-36.8V67.3C39.8,47.1,56.3,30.5,76.6,30.5z"/>
	</g>
</g>
</svg>
