<?xml version="1.0" encoding="utf-8"?>
<!-- Generator: Adobe Illustrator 23.0.1, SVG Export Plug-In . SVG Version: 6.00 Build 0)  -->
<svg version="1.1" id="Layer_1" xmlns="http://www.w3.org/2000/svg" xmlns:xlink="http://www.w3.org/1999/xlink" x="0px" y="0px"
	 viewBox="0 0 1404 792" style="enable-background:new 0 0 1404 792;" xml:space="preserve">
<style type="text/css">
	.st0{display:none;}
	.st1{display:inline;fill:none;stroke:#231F20;stroke-width:0.1;stroke-miterlimit:22.9256;}
	.st2{display:inline;fill:none;stroke:#1A1A18;stroke-width:0.1;stroke-miterlimit:22.9256;}
	.st3{fill:#FFFFFF;stroke:#000000;stroke-width:0.1;stroke-miterlimit:10;}
	.st4{fill:none;stroke:#000000;stroke-width:0.1;stroke-miterlimit:22.9256;}
	.st5{fill:none;stroke:#000000;stroke-width:0.1;stroke-miterlimit:10;}
	.st6{fill:none;stroke:#010101;stroke-width:0.1;stroke-linecap:round;stroke-linejoin:round;stroke-miterlimit:10;}
</style>
<g id="LED_Matrix_Front_Acrylic_Panel" class="st0">
	<polygon class="st1" points="657.1,215.9 657.1,179 665.6,179 665.6,136.5 657.1,136.5 657.1,128 657.1,119.5 572.1,119.5 
		572.1,128 572.1,136.5 487.1,136.5 487.1,128 487.1,119.5 402,119.5 402,128 402,136.5 260.3,136.5 260.3,128 260.3,119.5 
		175.3,119.5 175.3,128 175.3,136.5 90.2,136.5 90.2,128 90.2,119.5 5.2,119.5 5.2,128 5.2,136.5 -3.3,136.5 -3.3,179 5.2,179 
		5.2,215.9 -3.3,215.9 -3.3,258.4 5.2,258.4 657.1,258.4 665.6,258.4 665.6,215.9 	"/>
	<polyline class="st1" points="657.7,119.5 666.2,119.5 666.2,77 657.7,77 657.7,40.1 666.2,40.1 666.2,-2.4 657.7,-2.4 
		657.7,-10.9 657.7,-19.4 572.7,-19.4 572.7,-10.9 572.7,-2.4 487.7,-2.4 487.7,-10.9 487.7,-19.4 402.6,-19.4 402.6,-10.9 
		402.6,-2.4 260.9,-2.4 260.9,-10.9 260.9,-19.4 175.9,-19.4 175.9,-10.9 175.9,-2.4 90.8,-2.4 90.8,-10.9 90.8,-19.4 5.8,-19.4 
		5.8,-10.9 5.8,-2.4 -2.7,-2.4 -2.7,40.1 5.8,40.1 5.8,77 -2.7,77 -2.7,119.5 5.8,119.5 	"/>
	<polyline class="st1" points="5.2,258.4 5.2,266.9 -3.3,266.9 -3.3,309.4 5.2,309.4 5.2,346.3 -3.3,346.3 -3.3,388.8 5.2,388.8 
		5.2,397.3 5.2,405.8 90.2,405.8 90.2,397.3 90.2,388.8 175.3,388.8 175.3,397.3 175.3,405.8 260.3,405.8 260.3,397.3 260.3,388.8 
		402,388.8 402,397.3 402,405.8 487.1,405.8 487.1,397.3 487.1,388.8 572.1,388.8 572.1,397.3 572.1,405.8 657.1,405.8 657.1,397.3 
		657.1,388.8 665.6,388.8 665.6,346.3 657.1,346.3 657.1,309.4 665.6,309.4 665.6,266.9 657.1,266.9 657.1,258.4 	"/>
	<path class="st1" d="M175.3,405.8v8.5H76.1v-8.5"/>
	<path class="st1" d="M402.1,405.8v8.5H260.3v-8.5"/>
	<path class="st1" d="M586.3,405.8v8.5h-99.2v-8.5"/>
	<path class="st1" d="M19.4,405.8v8.5H-3.3v42.5h8.5v21.3h-8.5v42.5h8.5v21.3h-8.5v42.5h8.5h35.1c53.8-17.3,163.9-29.1,290.9-29.1
		s237.1,11.9,290.9,29.1h35.1h8.5v-42.5h-8.5v-21.3h8.5v-42.5h-8.5v-21.3h8.5v-42.5H643v-8.5"/>
	<circle class="st1" cx="545.5" cy="486.4" r="46.5"/>
	
		<ellipse transform="matrix(3.327796e-02 -0.9994 0.9994 3.327796e-02 -373.1208 587.0488)" class="st1" cx="116.9" cy="486.4" rx="46.5" ry="46.5"/>
	<rect x="356.1" y="478.3" class="st1" width="8.1" height="42"/>
	<path class="st2" d="M1171.3,188.7h-401c-15.6,0-28.3-12.8-28.3-28.3V60.9c0-15.6,12.8-28.3,28.3-28.3h401
		c15.6,0,28.3,12.8,28.3,28.3v99.5C1199.6,175.9,1186.9,188.7,1171.3,188.7z"/>
	<path class="st2" d="M1242.1,245.5H699.4c-7.8,0-14.2-6.4-14.2-14.2V-9.9c0-7.8,6.4-14.2,14.2-14.2h542.7c7.8,0,14.2,6.4,14.2,14.2
		v241.2C1256.3,239,1249.9,245.5,1242.1,245.5z"/>
	<path class="st2" d="M970.8,15.1c1.8,0,3.2,1.4,3.2,3.2s-1.4,3.2-3.2,3.2s-3.2-1.4-3.2-3.2C967.5,16.6,969,15.1,970.8,15.1z"/>
	<circle class="st2" cx="970.8" cy="202.8" r="3.7"/>
	<path class="st2" d="M724,110.6c0-2,1.6-3.7,3.7-3.7c2,0,3.7,1.6,3.7,3.7s-1.6,3.7-3.7,3.7C725.7,114.3,724,112.6,724,110.6z"/>
	<path class="st2" d="M1210.1,110.6c0-2,1.6-3.7,3.7-3.7c2,0,3.7,1.6,3.7,3.7s-1.6,3.7-3.7,3.7S1210.1,112.6,1210.1,110.6z"/>
	<circle class="st2" cx="970.8" cy="202.8" r="3.2"/>
	<path class="st2" d="M724.5,110.6c0-1.8,1.4-3.2,3.2-3.2s3.2,1.4,3.2,3.2s-1.4,3.2-3.2,3.2S724.5,112.3,724.5,110.6z"/>
	<path class="st2" d="M1210.6,110.6c0-1.8,1.4-3.2,3.2-3.2c1.8,0,3.2,1.4,3.2,3.2s-1.4,3.2-3.2,3.2S1210.6,112.3,1210.6,110.6z"/>
	<line class="st1" x1="90.2" y1="119.5" x2="175.3" y2="119.5"/>
	<line class="st1" x1="260.3" y1="119.5" x2="402" y2="119.5"/>
	<line class="st1" x1="487.1" y1="119.5" x2="572.1" y2="119.5"/>
</g>
<rect x="53.6" y="67.3" class="st3" width="643.1" height="111.5"/>
<polyline class="st3" points="696.7,178.8 696.7,304.2 53.6,304.2 53.6,178.8 "/>
<ellipse class="st4" cx="78.8" cy="288.9" rx="9.9" ry="9.9"/>
<ellipse transform="matrix(2.497512e-02 -0.9997 0.9997 2.497512e-02 366.0213 952.7046)" class="st4" cx="671.4" cy="288.7" rx="9.9" ry="9.9"/>
<polyline class="st3" points="696.7,304.2 696.7,415.7 53.6,415.7 53.6,304.2 "/>
<g>
	<path class="st5" d="M178.2,415.7"/>
	<path class="st5" d="M53.6,415.7"/>
	<line class="st5" x1="182.5" y1="545.3" x2="53.6" y2="545.3"/>
	<line class="st5" x1="182.5" y1="415.7" x2="182.5" y2="545.3"/>
	<path class="st5" d="M53.6,438.7"/>
	<path class="st5" d="M53.6,415.7"/>
	<path class="st5" d="M53.6,542.4"/>
	<path class="st5" d="M53.6,474.7"/>
</g>
<path class="st5" d="M53.6,415.7"/>
<g id="Layer_3">
	<path class="st4" d="M613.1,232.2c2.7,0,4.8,2.2,4.8,4.8c0,2.7-2.2,4.8-4.8,4.8c-2.7,0-4.8-2.2-4.8-4.8S610.4,232.2,613.1,232.2z"
		/>
	<path class="st4" d="M126.7,231.3c2.7,0,4.8,2.2,4.8,4.8c0,2.7-2.2,4.8-4.8,4.8c-2.7,0-4.8-2.2-4.8-4.8S124,231.3,126.7,231.3z"/>
</g>
<line class="st5" x1="53.6" y1="545.3" x2="53.6" y2="415.7"/>
<path class="st5" d="M182.5,415.7"/>
<path class="st5" d="M53.6,415.7"/>
<g>
	<path class="st5" d="M307.1,415.7"/>
	<path class="st5" d="M182.5,415.7"/>
	<line class="st5" x1="311.4" y1="545.3" x2="182.5" y2="545.3"/>
	<line class="st5" x1="311.4" y1="415.7" x2="311.4" y2="545.3"/>
	<path class="st5" d="M182.5,438.7"/>
	<path class="st5" d="M182.5,415.7"/>
	<path class="st5" d="M182.5,542.4"/>
	<path class="st5" d="M182.5,474.7"/>
</g>
<path class="st5" d="M182.5,415.7"/>
<path class="st5" d="M182.5,545.3"/>
<polygon class="st6" points="504,507.1 521.7,487.9 504,468.8 486.4,449.6 486.4,488.1 486.5,526.4 "/>
<polygon class="st6" points="444.5,477.7 425.2,460.1 406.1,477.7 386.9,495.4 425.2,495.4 463.7,495.4 "/>
<polygon class="st6" points="563.5,488 582.8,505.6 602,488 621.2,470.4 582.8,470.4 544.4,470.4 "/>
<polygon class="st6" points="354.1,468.8 336.5,488.1 354.1,507.3 371.7,526.4 371.7,488.1 371.7,449.6 "/>
</svg>
