<?xml version="1.0" encoding="utf-8"?>
<!-- Generator: Adobe Illustrator 24.0.1, SVG Export Plug-In . SVG Version: 6.00 Build 0)  -->
<svg version="1.1" id="Layer_1" xmlns="http://www.w3.org/2000/svg" xmlns:xlink="http://www.w3.org/1999/xlink" x="0px" y="0px"
	 viewBox="0 0 864 864" style="enable-background:new 0 0 864 864;" xml:space="preserve">
<style type="text/css">
	.st0{fill:none;stroke:#ED2224;stroke-width:0.1;stroke-miterlimit:10;}
	.st1{fill:none;stroke:#000000;stroke-width:0.1;stroke-miterlimit:10;}
	.st2{fill:none;stroke:#000000;stroke-width:0.1;stroke-linejoin:round;stroke-miterlimit:10;}
	.st3{fill:none;stroke:#010101;stroke-width:0.1;stroke-linecap:round;stroke-linejoin:round;stroke-miterlimit:10;}
	.st4{fill:none;stroke:#ED2024;stroke-width:0.1;stroke-miterlimit:10;}
</style>
<g>
	<path class="st0" d="M170.8,724.9c0.5-0.1,1.2-0.2,2-0.2c1,0,1.8,0.2,2.3,0.7c0.4,0.4,0.7,1,0.7,1.7s-0.2,1.3-0.6,1.7
		c-0.6,0.6-1.5,0.9-2.5,0.9c-0.3,0-0.6,0-0.8-0.1v3.2h-1L170.8,724.9L170.8,724.9L170.8,724.9z M171.9,728.8
		c0.2,0.1,0.5,0.1,0.9,0.1c1.3,0,2-0.6,2-1.7c0-1.1-0.8-1.6-1.9-1.6c-0.5,0-0.8,0-1,0.1V728.8z"/>
	<path class="st0" d="M178.2,725.5c0,0.4-0.3,0.6-0.7,0.6s-0.6-0.3-0.6-0.6c0-0.4,0.3-0.7,0.7-0.7
		C177.9,724.8,178.2,725.1,178.2,725.5z M177,732.9v-5.8h1.1v5.8H177z"/>
</g>
<path class="st1" d="M267.6,807.4c-2.6,0-4.6-2-4.6-4.7c0-2.6,2.1-4.7,4.6-4.7c2.7,0,4.7,2.1,4.7,4.7
	C272.3,805.5,270.3,807.4,267.6,807.4z"/>
<path class="st1" d="M103.2,807.4c-2.6,0-4.6-2-4.6-4.7c0-2.6,2.1-4.7,4.6-4.7c2.7,0,4.7,2.1,4.7,4.7
	C107.9,805.5,105.9,807.4,103.2,807.4z"/>
<path class="st2" d="M103.2,668.3c-2.6,0-4.6-2.1-4.6-4.7c0-2.6,2.1-4.6,4.6-4.6c2.7,0,4.7,2.1,4.7,4.6
	C107.9,666.2,105.9,668.3,103.2,668.3z"/>
<path class="st2" d="M267.6,668.3c-2.6,0-4.6-2.1-4.6-4.7c0-2.6,2.1-4.6,4.6-4.6c2.7,0,4.7,2.1,4.7,4.6
	C272.3,666.2,270.3,668.3,267.6,668.3z"/>
<path class="st3" d="M117.6,786.4c2.6,0,4.7,2.1,4.7,4.7s-2.1,4.7-4.7,4.7s-4.7-2.1-4.7-4.7C112.8,788.5,114.9,786.4,117.6,786.4
	L117.6,786.4z"/>
<path class="st3" d="M227.7,786.4c2.6,0,4.7,2.1,4.7,4.7s-2.1,4.7-4.7,4.7c-2.6,0-4.7-2.1-4.7-4.7
	C222.9,788.5,225,786.4,227.7,786.4L227.7,786.4z"/>
<path class="st3" d="M117.6,670.3c2.6,0,4.7,2.1,4.7,4.7c0,2.6-2.1,4.7-4.7,4.7s-4.7-2.1-4.7-4.7
	C112.8,672.4,114.9,670.3,117.6,670.3L117.6,670.3z"/>
<path class="st3" d="M227.7,670.3c2.6,0,4.7,2.1,4.7,4.7c0,2.6-2.1,4.7-4.7,4.7c-2.6,0-4.7-2.1-4.7-4.7
	C222.9,672.4,225,670.3,227.7,670.3L227.7,670.3z"/>
<path class="st1" d="M272.1,836.1H40.4c-6.6,0-12-5.4-12-12V642.3c0-6.6,5.4-12,12-12h231.7c6.6,0,12,5.4,12,12v181.8
	C284.1,830.7,278.7,836.1,272.1,836.1z"/>
<g>
	<path class="st4" d="M172.7,664.5v3.4h3.9v-3.4h1.1v8.1h-1.1v-3.8h-3.9v3.8h-1v-8.1H172.7z"/>
	<path class="st4" d="M179.5,664.6c0.6-0.1,1.4-0.2,2.2-0.2c1.5,0,2.6,0.3,3.3,1c0.7,0.7,1.1,1.6,1.1,2.9c0,1.3-0.4,2.4-1.2,3.1
		c-0.8,0.8-2,1.2-3.6,1.2c-0.7,0-1.4,0-1.9-0.1V664.6z M180.6,671.7c0.3,0,0.6,0.1,1.1,0.1c2.2,0,3.4-1.2,3.4-3.4
		c0-1.9-1.1-3.1-3.3-3.1c-0.5,0-0.9,0-1.2,0.1V671.7z"/>
	<path class="st4" d="M194.3,669c-0.1-1.1-0.1-2.5-0.1-3.5h0c-0.3,0.9-0.6,2-1,3.1l-1.4,3.9h-0.8l-1.3-3.9c-0.4-1.1-0.7-2.2-0.9-3.1
		h0c0,1-0.1,2.4-0.2,3.6l-0.2,3.5h-1l0.6-8.1h1.3l1.4,3.9c0.3,1,0.6,1.9,0.8,2.7h0c0.2-0.8,0.5-1.7,0.9-2.7l1.4-3.9h1.3l0.5,8.1h-1
		L194.3,669z"/>
	<path class="st4" d="M198.2,664.5v8.1h-1v-8.1H198.2z"/>
</g>
<g id="LWPOLYLINE_5_">
	<path class="st3" d="M96.1,699.1c0-1.7-1.3-3-2.8-3H30.9c-1.6,0-2.8,1.4-2.8,3V741c0,1.7,1.3,3,2.8,3h62.4c1.6,0,2.8-1.4,2.8-3
		V699.1z"/>
</g>
<g>
	<path class="st4" d="M169.4,707.8c0.5-0.1,1.2-0.2,2-0.2c1,0,1.8,0.2,2.3,0.7c0.4,0.4,0.7,1,0.7,1.7c0,0.7-0.2,1.3-0.6,1.7
		c-0.6,0.6-1.5,0.9-2.5,0.9c-0.3,0-0.6,0-0.8-0.1v3.2h-1V707.8z M170.5,711.7c0.2,0.1,0.5,0.1,0.9,0.1c1.3,0,2-0.6,2-1.7
		c0-1.1-0.8-1.6-1.9-1.6c-0.5,0-0.8,0-1,0.1V711.7z"/>
	<path class="st4" d="M175.7,714.6c0.3,0.2,1,0.5,1.7,0.5c1.4,0,1.8-0.9,1.8-1.5c0-1.1-1-1.6-2-1.6h-0.6v-0.8h0.6
		c0.8,0,1.7-0.4,1.7-1.3c0-0.6-0.4-1.2-1.4-1.2c-0.6,0-1.2,0.3-1.6,0.5l-0.3-0.8c0.4-0.3,1.2-0.6,2-0.6c1.5,0,2.2,0.9,2.2,1.9
		c0,0.8-0.5,1.5-1.4,1.8v0c1,0.2,1.7,0.9,1.7,2c0,1.2-1,2.3-2.8,2.3c-0.9,0-1.6-0.3-2-0.5L175.7,714.6z"/>
</g>
<g>
	<path class="st0" d="M436.1,724.9c0.5-0.1,1.2-0.2,2-0.2c1,0,1.8,0.2,2.3,0.7c0.4,0.4,0.7,1,0.7,1.7s-0.2,1.3-0.6,1.7
		c-0.6,0.6-1.5,0.9-2.5,0.9c-0.3,0-0.6,0-0.8-0.1v3.2h-1v-7.9H436.1L436.1,724.9z M437.2,728.8c0.2,0.1,0.5,0.1,0.9,0.1
		c1.3,0,2-0.6,2-1.7c0-1.1-0.8-1.6-1.9-1.6c-0.5,0-0.8,0-1,0.1V728.8z"/>
	<path class="st0" d="M443.5,725.5c0,0.4-0.3,0.6-0.7,0.6s-0.6-0.3-0.6-0.6c0-0.4,0.3-0.7,0.7-0.7
		C443.2,724.8,443.5,725.1,443.5,725.5z M442.3,732.9v-5.8h1.1v5.8H442.3z"/>
</g>
<path class="st1" d="M532.9,807.4c-2.6,0-4.6-2-4.6-4.7c0-2.6,2.1-4.7,4.6-4.7c2.7,0,4.7,2.1,4.7,4.7
	C537.7,805.5,535.6,807.4,532.9,807.4z"/>
<path class="st1" d="M368.5,807.4c-2.6,0-4.6-2-4.6-4.7c0-2.6,2.1-4.7,4.6-4.7c2.7,0,4.7,2.1,4.7,4.7
	C373.3,805.5,371.2,807.4,368.5,807.4z"/>
<path class="st2" d="M368.5,668.3c-2.6,0-4.6-2.1-4.6-4.7c0-2.6,2.1-4.6,4.6-4.6c2.7,0,4.7,2.1,4.7,4.6
	C373.3,666.2,371.2,668.3,368.5,668.3z"/>
<path class="st2" d="M532.9,668.3c-2.6,0-4.6-2.1-4.6-4.7c0-2.6,2.1-4.6,4.6-4.6c2.7,0,4.7,2.1,4.7,4.6
	C537.7,666.2,535.6,668.3,532.9,668.3z"/>
<path class="st3" d="M383,786.4c2.6,0,4.7,2.1,4.7,4.7s-2.1,4.7-4.7,4.7s-4.7-2.1-4.7-4.7C378.2,788.5,380.3,786.4,383,786.4
	L383,786.4z"/>
<path class="st3" d="M493.1,786.4c2.6,0,4.7,2.1,4.7,4.7s-2.1,4.7-4.7,4.7c-2.6,0-4.7-2.1-4.7-4.7
	C488.3,788.5,490.4,786.4,493.1,786.4L493.1,786.4z"/>
<path class="st3" d="M383,670.3c2.6,0,4.7,2.1,4.7,4.7c0,2.6-2.1,4.7-4.7,4.7s-4.7-2.1-4.7-4.7C378.2,672.4,380.3,670.3,383,670.3
	L383,670.3z"/>
<path class="st3" d="M493.1,670.3c2.6,0,4.7,2.1,4.7,4.7c0,2.6-2.1,4.7-4.7,4.7c-2.6,0-4.7-2.1-4.7-4.7
	C488.3,672.4,490.4,670.3,493.1,670.3L493.1,670.3z"/>
<path class="st1" d="M537.5,836.1H305.8c-6.6,0-12-5.4-12-12V642.3c0-6.6,5.4-12,12-12h231.7c6.6,0,12,5.4,12,12v181.8
	C549.5,830.7,544.1,836.1,537.5,836.1z"/>
<g>
	<path class="st4" d="M438.1,664.5v3.4h3.9v-3.4h1.1v8.1H442v-3.8h-3.9v3.8h-1v-8.1H438.1z"/>
	<path class="st4" d="M444.9,664.6c0.6-0.1,1.4-0.2,2.2-0.2c1.5,0,2.6,0.3,3.3,1c0.7,0.7,1.1,1.6,1.1,2.9c0,1.3-0.4,2.4-1.2,3.1
		c-0.8,0.8-2,1.2-3.6,1.2c-0.7,0-1.4,0-1.9-0.1V664.6z M445.9,671.7c0.3,0,0.6,0.1,1.1,0.1c2.2,0,3.4-1.2,3.4-3.4
		c0-1.9-1.1-3.1-3.3-3.1c-0.5,0-0.9,0-1.2,0.1V671.7z"/>
	<path class="st4" d="M459.7,669c-0.1-1.1-0.1-2.5-0.1-3.5h0c-0.3,0.9-0.6,2-1,3.1l-1.4,3.9h-0.8l-1.3-3.9c-0.4-1.1-0.7-2.2-0.9-3.1
		h0c0,1-0.1,2.4-0.2,3.6l-0.2,3.5h-1l0.6-8.1h1.3l1.4,3.9c0.3,1,0.6,1.9,0.8,2.7h0c0.2-0.8,0.5-1.7,0.9-2.7l1.4-3.9h1.3l0.5,8.1h-1
		L459.7,669z"/>
	<path class="st4" d="M463.6,664.5v8.1h-1v-8.1H463.6z"/>
</g>
<g id="LWPOLYLINE_4_">
	<path class="st3" d="M361.4,699.1c0-1.7-1.3-3-2.8-3h-62.4c-1.6,0-2.8,1.4-2.8,3V741c0,1.7,1.3,3,2.8,3h62.4c1.6,0,2.8-1.4,2.8-3
		V699.1z"/>
</g>
<g>
	<path class="st4" d="M434.8,707.8c0.5-0.1,1.2-0.2,2-0.2c1,0,1.8,0.2,2.3,0.7c0.4,0.4,0.7,1,0.7,1.7c0,0.7-0.2,1.3-0.6,1.7
		c-0.6,0.6-1.5,0.9-2.5,0.9c-0.3,0-0.6,0-0.8-0.1v3.2h-1V707.8z M435.8,711.7c0.2,0.1,0.5,0.1,0.9,0.1c1.3,0,2-0.6,2-1.7
		c0-1.1-0.8-1.6-1.9-1.6c-0.5,0-0.8,0-1,0.1V711.7z"/>
	<path class="st4" d="M441,714.6c0.3,0.2,1,0.5,1.7,0.5c1.4,0,1.8-0.9,1.8-1.5c0-1.1-1-1.6-2-1.6h-0.6v-0.8h0.6
		c0.8,0,1.7-0.4,1.7-1.3c0-0.6-0.4-1.2-1.4-1.2c-0.6,0-1.2,0.3-1.6,0.5l-0.3-0.8c0.4-0.3,1.2-0.6,2-0.6c1.5,0,2.2,0.9,2.2,1.9
		c0,0.8-0.5,1.5-1.4,1.8v0c1,0.2,1.7,0.9,1.7,2c0,1.2-1,2.3-2.8,2.3c-0.9,0-1.6-0.3-2-0.5L441,714.6z"/>
</g>
<g>
	<path class="st0" d="M701.9,724.9c0.5-0.1,1.2-0.2,2-0.2c1,0,1.8,0.2,2.3,0.7c0.4,0.4,0.7,1,0.7,1.7s-0.2,1.3-0.6,1.7
		c-0.6,0.6-1.5,0.9-2.5,0.9c-0.3,0-0.6,0-0.8-0.1v3.2h-1L701.9,724.9L701.9,724.9L701.9,724.9z M703,728.8c0.2,0.1,0.5,0.1,0.9,0.1
		c1.3,0,2-0.6,2-1.7c0-1.1-0.8-1.6-1.9-1.6c-0.5,0-0.8,0-1,0.1V728.8z"/>
	<path class="st0" d="M709.3,725.5c0,0.4-0.3,0.6-0.7,0.6c-0.4,0-0.6-0.3-0.6-0.6c0-0.4,0.3-0.7,0.7-0.7
		C709,724.8,709.3,725.1,709.3,725.5z M708.1,732.9v-5.8h1.1v5.8H708.1z"/>
</g>
<path class="st1" d="M798.7,807.4c-2.6,0-4.6-2-4.6-4.7c0-2.6,2.1-4.7,4.6-4.7c2.7,0,4.7,2.1,4.7,4.7
	C803.4,805.5,801.3,807.4,798.7,807.4z"/>
<path class="st1" d="M634.3,807.4c-2.6,0-4.6-2-4.6-4.7c0-2.6,2.1-4.7,4.6-4.7c2.7,0,4.7,2.1,4.7,4.7
	C639,805.5,636.9,807.4,634.3,807.4z"/>
<path class="st2" d="M634.3,668.3c-2.6,0-4.6-2.1-4.6-4.7c0-2.6,2.1-4.6,4.6-4.6c2.7,0,4.7,2.1,4.7,4.6
	C639,666.2,636.9,668.3,634.3,668.3z"/>
<path class="st2" d="M798.7,668.3c-2.6,0-4.6-2.1-4.6-4.7c0-2.6,2.1-4.6,4.6-4.6c2.7,0,4.7,2.1,4.7,4.6
	C803.4,666.2,801.3,668.3,798.7,668.3z"/>
<path class="st3" d="M648.7,786.4c2.6,0,4.7,2.1,4.7,4.7s-2.1,4.7-4.7,4.7c-2.6,0-4.7-2.1-4.7-4.7
	C643.9,788.5,646,786.4,648.7,786.4L648.7,786.4z"/>
<path class="st3" d="M758.8,786.4c2.6,0,4.7,2.1,4.7,4.7s-2.1,4.7-4.7,4.7c-2.6,0-4.7-2.1-4.7-4.7
	C754,788.5,756.1,786.4,758.8,786.4L758.8,786.4z"/>
<path class="st3" d="M648.7,670.3c2.6,0,4.7,2.1,4.7,4.7c0,2.6-2.1,4.7-4.7,4.7c-2.6,0-4.7-2.1-4.7-4.7
	C643.9,672.4,646,670.3,648.7,670.3L648.7,670.3z"/>
<path class="st3" d="M758.8,670.3c2.6,0,4.7,2.1,4.7,4.7c0,2.6-2.1,4.7-4.7,4.7c-2.6,0-4.7-2.1-4.7-4.7
	C754,672.4,756.1,670.3,758.8,670.3L758.8,670.3z"/>
<path class="st1" d="M803.2,836.1H571.5c-6.6,0-12-5.4-12-12V642.3c0-6.6,5.4-12,12-12h231.7c6.6,0,12,5.4,12,12v181.8
	C815.2,830.7,809.8,836.1,803.2,836.1z"/>
<g>
	<path class="st4" d="M703.8,664.5v3.4h3.9v-3.4h1.1v8.1h-1.1v-3.8h-3.9v3.8h-1v-8.1H703.8z"/>
	<path class="st4" d="M710.6,664.6c0.6-0.1,1.4-0.2,2.2-0.2c1.5,0,2.6,0.3,3.3,1c0.7,0.7,1.1,1.6,1.1,2.9c0,1.3-0.4,2.4-1.2,3.1
		c-0.8,0.8-2,1.2-3.6,1.2c-0.7,0-1.4,0-1.9-0.1V664.6z M711.6,671.7c0.3,0,0.6,0.1,1.1,0.1c2.2,0,3.4-1.2,3.4-3.4
		c0-1.9-1.1-3.1-3.3-3.1c-0.5,0-0.9,0-1.2,0.1V671.7z"/>
	<path class="st4" d="M725.4,669c-0.1-1.1-0.1-2.5-0.1-3.5h0c-0.3,0.9-0.6,2-1,3.1l-1.4,3.9H722l-1.3-3.9c-0.4-1.1-0.7-2.2-0.9-3.1
		h0c0,1-0.1,2.4-0.2,3.6l-0.2,3.5h-1l0.6-8.1h1.3l1.4,3.9c0.3,1,0.6,1.9,0.8,2.7h0c0.2-0.8,0.5-1.7,0.9-2.7l1.4-3.9h1.3l0.5,8.1h-1
		L725.4,669z"/>
	<path class="st4" d="M729.3,664.5v8.1h-1v-8.1H729.3z"/>
</g>
<g id="LWPOLYLINE_3_">
	<path class="st3" d="M627.2,699.1c0-1.7-1.3-3-2.8-3H562c-1.6,0-2.8,1.4-2.8,3V741c0,1.7,1.3,3,2.8,3h62.4c1.6,0,2.8-1.4,2.8-3
		V699.1z"/>
</g>
<g>
	<path class="st4" d="M700.5,707.8c0.5-0.1,1.2-0.2,2-0.2c1,0,1.8,0.2,2.3,0.7c0.4,0.4,0.7,1,0.7,1.7c0,0.7-0.2,1.3-0.6,1.7
		c-0.6,0.6-1.5,0.9-2.5,0.9c-0.3,0-0.6,0-0.8-0.1v3.2h-1V707.8z M701.5,711.7c0.2,0.1,0.5,0.1,0.9,0.1c1.3,0,2-0.6,2-1.7
		c0-1.1-0.8-1.6-1.9-1.6c-0.5,0-0.8,0-1,0.1V711.7z"/>
	<path class="st4" d="M706.8,714.6c0.3,0.2,1,0.5,1.7,0.5c1.4,0,1.8-0.9,1.8-1.5c0-1.1-1-1.6-2-1.6h-0.6v-0.8h0.6
		c0.8,0,1.7-0.4,1.7-1.3c0-0.6-0.4-1.2-1.4-1.2c-0.6,0-1.2,0.3-1.6,0.5l-0.3-0.8c0.4-0.3,1.2-0.6,2-0.6c1.5,0,2.2,0.9,2.2,1.9
		c0,0.8-0.5,1.5-1.4,1.8v0c1,0.2,1.7,0.9,1.7,2c0,1.2-1,2.3-2.8,2.3c-0.9,0-1.6-0.3-2-0.5L706.8,714.6z"/>
</g>
<g id="Pixel_Board">
	<path class="st3" d="M55.5,569.7c2.6,0,4.7,2.1,4.7,4.7c0,2.6-2.1,4.7-4.7,4.7s-4.7-2.1-4.7-4.7C50.7,571.8,52.8,569.7,55.5,569.7
		L55.5,569.7z"/>
	<path class="st3" d="M165.6,569.7c2.6,0,4.7,2.1,4.7,4.7c0,2.6-2.1,4.7-4.7,4.7s-4.7-2.1-4.7-4.7
		C160.8,571.8,162.9,569.7,165.6,569.7L165.6,569.7z"/>
	<path class="st3" d="M41.7,413.7c2.6,0,4.7,2.1,4.7,4.7c0,2.6-2.1,4.7-4.7,4.7S37,421,37,418.4S39,413.7,41.7,413.7L41.7,413.7z"/>
	<path class="st3" d="M41.7,612.2c2.6,0,4.7,2.1,4.7,4.7c0,2.6-2.1,4.7-4.7,4.7s-4.7-2.1-4.7-4.7C36.9,614.3,39,612.2,41.7,612.2
		L41.7,612.2z"/>
	<path class="st3" d="M177.7,413.7c2.6,0,4.7,2.1,4.7,4.7c0,2.6-2.1,4.7-4.7,4.7s-4.7-2.1-4.7-4.7S175,413.7,177.7,413.7
		L177.7,413.7z"/>
	<path class="st3" d="M177.7,611.9c2.6,0,4.7,2.1,4.7,4.7c0,2.6-2.1,4.7-4.7,4.7s-4.7-2.1-4.7-4.7C172.9,614,175,611.9,177.7,611.9
		L177.7,611.9z"/>
	<g>
		<path class="st0" d="M108.9,549.5c-0.1-0.5-0.2-1.2-0.2-2c0-1,0.2-1.8,0.7-2.3c0.4-0.4,1-0.7,1.7-0.7s1.3,0.2,1.7,0.6
			c0.6,0.6,0.9,1.5,0.9,2.5c0,0.3,0,0.6-0.1,0.8h3.2v1h-7.9L108.9,549.5L108.9,549.5z M112.8,548.4c0.1-0.2,0.1-0.5,0.1-0.9
			c0-1.3-0.6-2-1.7-2s-1.6,0.8-1.6,1.9c0,0.5,0,0.8,0.1,1H112.8z"/>
		<path class="st0" d="M108.8,542h8.1v1h-8.1V542z"/>
		<path class="st0" d="M116.9,535.8l-1.8,1c-0.7,0.4-1.1,0.7-1.6,0.9l0,0c0.5,0.2,0.9,0.5,1.6,0.9l1.8,1v1.2l-4.1-2.5l-4,2.4v-1.2
			l1.9-1.1c0.5-0.3,0.9-0.5,1.4-0.7l0,0c-0.5-0.2-0.9-0.4-1.4-0.7l-1.9-1.1v-1.3l3.9,2.5l4.1-2.5L116.9,535.8L116.9,535.8z"/>
		<path class="st0" d="M113.1,529.2v3.1h2.9v-3.5h0.9v4.5h-8.1v-4.4h0.9v3.3h2.6v-3.1L113.1,529.2L113.1,529.2L113.1,529.2z"/>
		<path class="st0" d="M108.8,527.5v-1h7.2V523h0.9v4.5H108.8z"/>
		<path class="st0" d="M108.9,519.3c-0.1-0.5-0.2-1.2-0.2-1.9c0-1,0.2-1.7,0.6-2.2c0.3-0.4,0.8-0.7,1.4-0.7c0.8,0,1.5,0.5,1.8,1.4
			l0,0c0.2-0.8,0.8-1.7,2-1.7c0.7,0,1.2,0.3,1.6,0.7c0.5,0.6,0.8,1.5,0.8,2.8c0,0.7,0,1.3-0.1,1.6H108.9L108.9,519.3z M112.2,518.2
			v-0.9c0-1.1-0.6-1.8-1.4-1.8c-0.9,0-1.3,0.7-1.3,1.8c0,0.5,0,0.8,0.1,0.9H112.2z M116.1,518.2c0-0.2,0-0.5,0-0.9
			c0-1.1-0.4-2.1-1.6-2.1c-1.1,0-1.6,0.9-1.6,2.1v0.9H116.1z"/>
		<path class="st0" d="M112.8,505.8c2.8,0,4.3,1.7,4.3,3.8s-1.7,3.6-4.1,3.6c-2.6,0-4.2-1.6-4.2-3.8
			C108.7,507.3,110.4,505.8,112.8,505.8z M112.9,512.1c1.7,0,3.3-0.9,3.3-2.6s-1.5-2.6-3.4-2.6c-1.6,0-3.3,0.8-3.3,2.6
			S111.1,512.1,112.9,512.1z"/>
		<path class="st0" d="M114.4,503.3l2.5,0.8v1.1l-8.1-2.7v-1.3l8.1-2.8v1.1l-2.5,0.9V503.3z M113.5,500.7l-2.3,0.8
			c-0.5,0.2-1,0.3-1.5,0.4l0,0c0.5,0.1,1,0.3,1.5,0.4l2.3,0.8V500.7z"/>
		<path class="st0" d="M108.9,497.3c-0.1-0.5-0.2-1.3-0.2-2c0-1.1,0.2-1.8,0.7-2.3c0.4-0.4,0.9-0.6,1.5-0.6c1.1,0,1.8,0.7,2.1,1.5
			l0,0c0.2-0.6,0.8-1,1.6-1.2c1.1-0.3,1.9-0.5,2.2-0.6v1.1c-0.2,0.1-0.9,0.3-1.9,0.5c-1.1,0.2-1.5,0.7-1.6,1.6v1h3.5v1H108.9z
			 M112.6,496.3v-1.1c0-1.1-0.6-1.8-1.5-1.8c-1,0-1.5,0.8-1.5,1.9c0,0.5,0,0.9,0.1,1H112.6L112.6,496.3z"/>
		<path class="st0" d="M108.9,490.9c-0.1-0.6-0.2-1.4-0.2-2.2c0-1.5,0.3-2.6,1-3.3c0.7-0.7,1.6-1.1,2.9-1.1s2.4,0.4,3.1,1.2
			c0.8,0.8,1.2,2,1.2,3.6c0,0.7,0,1.4-0.1,1.9L108.9,490.9L108.9,490.9z M116.1,489.8c0-0.3,0.1-0.6,0.1-1.1c0-2.2-1.2-3.4-3.4-3.4
			c-1.9,0-3.1,1.1-3.1,3.3c0,0.5,0,0.9,0.1,1.2H116.1z"/>
	</g>
	<g>
		<path class="st0" d="M163.5,518.7h4.8c1.8,0,2.6-0.8,2.6-1.9c0-1.2-0.8-2-2.6-2h-4.8v-1.1h4.7c2.5,0,3.5,1.3,3.5,3.1
			c0,1.7-0.9,2.9-3.5,2.9h-4.8L163.5,518.7L163.5,518.7z"/>
		<path class="st0" d="M170.3,512.2c0.3-0.5,0.5-1.2,0.5-1.9c0-1.1-0.6-1.7-1.4-1.7s-1.2,0.4-1.6,1.5c-0.5,1.3-1.2,2.1-2.3,2.1
			c-1.3,0-2.2-1-2.2-2.6c0-0.8,0.2-1.4,0.4-1.8l0.9,0.3c-0.1,0.3-0.4,0.8-0.4,1.5c0,1.1,0.7,1.5,1.2,1.5c0.8,0,1.1-0.5,1.6-1.6
			c0.5-1.4,1.2-2.1,2.4-2.1s2.3,0.9,2.3,2.8c0,0.8-0.2,1.6-0.5,2.1L170.3,512.2z"/>
		<path class="st0" d="M163.6,506.1c-0.1-0.5-0.2-1.2-0.2-1.9c0-1,0.2-1.7,0.6-2.2c0.3-0.4,0.8-0.7,1.4-0.7c0.8,0,1.5,0.5,1.8,1.4
			l0,0c0.2-0.8,0.8-1.7,2-1.7c0.7,0,1.2,0.3,1.6,0.7c0.5,0.6,0.8,1.5,0.8,2.8c0,0.7,0,1.3-0.1,1.6L163.6,506.1L163.6,506.1z
			 M166.9,505.1v-0.9c0-1.1-0.6-1.8-1.4-1.8c-0.9,0-1.3,0.7-1.3,1.8c0,0.5,0,0.8,0.1,0.9H166.9z M170.8,505.1c0-0.2,0-0.5,0-0.9
			c0-1.1-0.4-2.1-1.6-2.1c-1.1,0-1.6,0.9-1.6,2.1v0.9H170.8z"/>
	</g>
	<path class="st3" d="M55.5,453.6c2.6,0,4.7,2.1,4.7,4.7s-2.1,4.7-4.7,4.7s-4.7-2.1-4.7-4.7C50.7,455.7,52.8,453.6,55.5,453.6
		L55.5,453.6z"/>
	<path class="st3" d="M165.6,453.6c2.6,0,4.7,2.1,4.7,4.7s-2.1,4.7-4.7,4.7s-4.7-2.1-4.7-4.7C160.8,455.7,162.9,453.6,165.6,453.6
		L165.6,453.6z"/>
	<path class="st3" d="M178.8,630.4H40.4c-6.6,0-12-5.4-12-12V417.1c0-6.6,5.4-12,12-12h138.4c6.6,0,12,5.4,12,12v201.3
		C190.8,625,185.4,630.4,178.8,630.4z"/>
</g>
<g id="Pixel_Board_1_">
	<path class="st3" d="M218.2,569.7c2.6,0,4.7,2.1,4.7,4.7c0,2.6-2.1,4.7-4.7,4.7s-4.7-2.1-4.7-4.7
		C213.4,571.8,215.5,569.7,218.2,569.7L218.2,569.7z"/>
	<path class="st3" d="M328.3,569.7c2.6,0,4.7,2.1,4.7,4.7c0,2.6-2.1,4.7-4.7,4.7s-4.7-2.1-4.7-4.7
		C323.5,571.8,325.6,569.7,328.3,569.7L328.3,569.7z"/>
	<path class="st3" d="M204.4,413.7c2.6,0,4.7,2.1,4.7,4.7c0,2.6-2.1,4.7-4.7,4.7s-4.7-2.1-4.7-4.7S201.7,413.7,204.4,413.7
		L204.4,413.7z"/>
	<path class="st3" d="M204.4,612.2c2.6,0,4.7,2.1,4.7,4.7c0,2.6-2.1,4.7-4.7,4.7s-4.7-2.1-4.7-4.7
		C199.6,614.3,201.7,612.2,204.4,612.2L204.4,612.2z"/>
	<path class="st3" d="M340.4,413.7c2.6,0,4.7,2.1,4.7,4.7c0,2.6-2.1,4.7-4.7,4.7s-4.7-2.1-4.7-4.7S337.7,413.7,340.4,413.7
		L340.4,413.7z"/>
	<path class="st3" d="M340.4,611.9c2.6,0,4.7,2.1,4.7,4.7c0,2.6-2.1,4.7-4.7,4.7s-4.7-2.1-4.7-4.7
		C335.6,614,337.7,611.9,340.4,611.9L340.4,611.9z"/>
	<g>
		<path class="st0" d="M271.6,549.5c-0.1-0.5-0.2-1.2-0.2-2c0-1,0.2-1.8,0.7-2.3c0.4-0.4,1-0.7,1.7-0.7s1.3,0.2,1.7,0.6
			c0.6,0.6,0.9,1.5,0.9,2.5c0,0.3,0,0.6-0.1,0.8h3.2v1h-7.9L271.6,549.5L271.6,549.5z M275.5,548.4c0.1-0.2,0.1-0.5,0.1-0.9
			c0-1.3-0.6-2-1.7-2s-1.6,0.8-1.6,1.9c0,0.5,0,0.8,0.1,1H275.5z"/>
		<path class="st0" d="M271.5,542h8.1v1h-8.1V542z"/>
		<path class="st0" d="M279.6,535.8l-1.8,1c-0.7,0.4-1.1,0.7-1.6,0.9l0,0c0.5,0.2,0.9,0.5,1.6,0.9l1.8,1v1.2l-4.1-2.5l-4,2.4v-1.2
			l1.9-1.1c0.5-0.3,0.9-0.5,1.4-0.7l0,0c-0.5-0.2-0.9-0.4-1.4-0.7l-1.9-1.1v-1.3l3.9,2.5l4.1-2.5L279.6,535.8L279.6,535.8z"/>
		<path class="st0" d="M275.8,529.2v3.1h2.9v-3.5h0.9v4.5h-8.1v-4.4h0.9v3.3h2.6v-3.1L275.8,529.2L275.8,529.2L275.8,529.2z"/>
		<path class="st0" d="M271.5,527.5v-1h7.2V523h0.9v4.5H271.5z"/>
		<path class="st0" d="M271.6,519.3c-0.1-0.5-0.2-1.2-0.2-1.9c0-1,0.2-1.7,0.6-2.2c0.3-0.4,0.8-0.7,1.4-0.7c0.8,0,1.5,0.5,1.8,1.4
			l0,0c0.2-0.8,0.8-1.7,2-1.7c0.7,0,1.2,0.3,1.6,0.7c0.5,0.6,0.8,1.5,0.8,2.8c0,0.7,0,1.3-0.1,1.6H271.6L271.6,519.3z M274.9,518.2
			v-0.9c0-1.1-0.6-1.8-1.4-1.8c-0.9,0-1.3,0.7-1.3,1.8c0,0.5,0,0.8,0.1,0.9H274.9z M278.8,518.2c0-0.2,0-0.5,0-0.9
			c0-1.1-0.4-2.1-1.6-2.1c-1.1,0-1.6,0.9-1.6,2.1v0.9H278.8z"/>
		<path class="st0" d="M275.5,505.8c2.8,0,4.3,1.7,4.3,3.8s-1.7,3.6-4.1,3.6c-2.6,0-4.2-1.6-4.2-3.8
			C271.4,507.3,273.1,505.8,275.5,505.8z M275.6,512.1c1.7,0,3.3-0.9,3.3-2.6s-1.5-2.6-3.4-2.6c-1.6,0-3.3,0.8-3.3,2.6
			S273.8,512.1,275.6,512.1z"/>
		<path class="st0" d="M277.1,503.3l2.5,0.8v1.1l-8.1-2.7v-1.3l8.1-2.8v1.1l-2.5,0.9V503.3z M276.2,500.7l-2.3,0.8
			c-0.5,0.2-1,0.3-1.5,0.4l0,0c0.5,0.1,1,0.3,1.5,0.4l2.3,0.8V500.7z"/>
		<path class="st0" d="M271.6,497.3c-0.1-0.5-0.2-1.3-0.2-2c0-1.1,0.2-1.8,0.7-2.3c0.4-0.4,0.9-0.6,1.5-0.6c1.1,0,1.8,0.7,2.1,1.5
			l0,0c0.2-0.6,0.8-1,1.6-1.2c1.1-0.3,1.9-0.5,2.2-0.6v1.1c-0.2,0.1-0.9,0.3-1.9,0.5c-1.1,0.2-1.5,0.7-1.6,1.6v1h3.5v1H271.6z
			 M275.3,496.3v-1.1c0-1.1-0.6-1.8-1.5-1.8c-1,0-1.5,0.8-1.5,1.9c0,0.5,0,0.9,0.1,1H275.3L275.3,496.3z"/>
		<path class="st0" d="M271.6,490.9c-0.1-0.6-0.2-1.4-0.2-2.2c0-1.5,0.3-2.6,1-3.3c0.7-0.7,1.6-1.1,2.9-1.1s2.4,0.4,3.1,1.2
			c0.8,0.8,1.2,2,1.2,3.6c0,0.7,0,1.4-0.1,1.9L271.6,490.9L271.6,490.9z M278.8,489.8c0-0.3,0.1-0.6,0.1-1.1c0-2.2-1.2-3.4-3.4-3.4
			c-1.9,0-3.1,1.1-3.1,3.3c0,0.5,0,0.9,0.1,1.2H278.8z"/>
	</g>
	<g>
		<path class="st0" d="M326.2,518.7h4.8c1.8,0,2.6-0.8,2.6-1.9c0-1.2-0.8-2-2.6-2h-4.8v-1.1h4.7c2.5,0,3.5,1.3,3.5,3.1
			c0,1.7-0.9,2.9-3.5,2.9h-4.8L326.2,518.7L326.2,518.7z"/>
		<path class="st0" d="M333,512.2c0.3-0.5,0.5-1.2,0.5-1.9c0-1.1-0.6-1.7-1.4-1.7s-1.2,0.4-1.6,1.5c-0.5,1.3-1.2,2.1-2.3,2.1
			c-1.3,0-2.2-1-2.2-2.6c0-0.8,0.2-1.4,0.4-1.8l0.9,0.3c-0.1,0.3-0.4,0.8-0.4,1.5c0,1.1,0.7,1.5,1.2,1.5c0.8,0,1.1-0.5,1.6-1.6
			c0.5-1.4,1.2-2.1,2.4-2.1s2.3,0.9,2.3,2.8c0,0.8-0.2,1.6-0.5,2.1L333,512.2z"/>
		<path class="st0" d="M326.3,506.1c-0.1-0.5-0.2-1.2-0.2-1.9c0-1,0.2-1.7,0.6-2.2c0.3-0.4,0.8-0.7,1.4-0.7c0.8,0,1.5,0.5,1.8,1.4
			l0,0c0.2-0.8,0.8-1.7,2-1.7c0.7,0,1.2,0.3,1.6,0.7c0.5,0.6,0.8,1.5,0.8,2.8c0,0.7,0,1.3-0.1,1.6L326.3,506.1L326.3,506.1z
			 M329.6,505.1v-0.9c0-1.1-0.6-1.8-1.4-1.8c-0.9,0-1.3,0.7-1.3,1.8c0,0.5,0,0.8,0.1,0.9H329.6z M333.5,505.1c0-0.2,0-0.5,0-0.9
			c0-1.1-0.4-2.1-1.6-2.1c-1.1,0-1.6,0.9-1.6,2.1v0.9H333.5z"/>
	</g>
	<path class="st3" d="M218.2,453.6c2.6,0,4.7,2.1,4.7,4.7s-2.1,4.7-4.7,4.7s-4.7-2.1-4.7-4.7C213.4,455.7,215.5,453.6,218.2,453.6
		L218.2,453.6z"/>
	<path class="st3" d="M328.3,453.6c2.6,0,4.7,2.1,4.7,4.7s-2.1,4.7-4.7,4.7s-4.7-2.1-4.7-4.7C323.5,455.7,325.6,453.6,328.3,453.6
		L328.3,453.6z"/>
	<path class="st3" d="M341.5,630.4H203.1c-6.6,0-12-5.4-12-12V417.1c0-6.6,5.4-12,12-12h138.4c6.6,0,12,5.4,12,12v201.3
		C353.5,625,348.1,630.4,341.5,630.4z"/>
</g>
<g id="Pixel_Board_2_">
	<path class="st3" d="M380.9,569.4c2.6,0,4.7,2.1,4.7,4.7c0,2.6-2.1,4.7-4.7,4.7s-4.7-2.1-4.7-4.7
		C376.1,571.5,378.2,569.4,380.9,569.4L380.9,569.4z"/>
	<path class="st3" d="M491,569.4c2.6,0,4.7,2.1,4.7,4.7c0,2.6-2.1,4.7-4.7,4.7s-4.7-2.1-4.7-4.7C486.2,571.5,488.3,569.4,491,569.4
		L491,569.4z"/>
	<path class="st3" d="M367.1,413.4c2.6,0,4.7,2.1,4.7,4.7c0,2.6-2.1,4.7-4.7,4.7s-4.7-2.1-4.7-4.7S364.4,413.4,367.1,413.4
		L367.1,413.4z"/>
	<path class="st3" d="M367.1,611.9c2.6,0,4.7,2.1,4.7,4.7c0,2.6-2.1,4.7-4.7,4.7s-4.7-2.1-4.7-4.7
		C362.3,614,364.4,611.9,367.1,611.9L367.1,611.9z"/>
	<path class="st3" d="M503.1,413.4c2.6,0,4.7,2.1,4.7,4.7c0,2.6-2.1,4.7-4.7,4.7s-4.7-2.1-4.7-4.7S500.4,413.4,503.1,413.4
		L503.1,413.4z"/>
	<path class="st3" d="M503.1,611.6c2.6,0,4.7,2.1,4.7,4.7c0,2.6-2.1,4.7-4.7,4.7s-4.7-2.1-4.7-4.7
		C498.3,613.7,500.4,611.6,503.1,611.6L503.1,611.6z"/>
	<g>
		<path class="st0" d="M434.3,549.2c-0.1-0.5-0.2-1.2-0.2-2c0-1,0.2-1.8,0.7-2.3c0.4-0.4,1-0.7,1.7-0.7s1.3,0.2,1.7,0.6
			c0.6,0.6,0.9,1.5,0.9,2.5c0,0.3,0,0.6-0.1,0.8h3.2v1L434.3,549.2L434.3,549.2L434.3,549.2z M438.2,548.1c0.1-0.2,0.1-0.5,0.1-0.9
			c0-1.3-0.6-2-1.7-2s-1.6,0.8-1.6,1.9c0,0.5,0,0.8,0.1,1H438.2z"/>
		<path class="st0" d="M434.2,541.7h8.1v1h-8.1V541.7z"/>
		<path class="st0" d="M442.3,535.5l-1.8,1c-0.7,0.4-1.1,0.7-1.6,0.9l0,0c0.5,0.2,0.9,0.5,1.6,0.9l1.8,1v1.2l-4.1-2.5l-4,2.4v-1.2
			l1.9-1.1c0.5-0.3,0.9-0.5,1.4-0.7l0,0c-0.5-0.2-0.9-0.4-1.4-0.7l-1.9-1.1v-1.3l3.9,2.5l4.1-2.5L442.3,535.5L442.3,535.5z"/>
		<path class="st0" d="M438.5,528.9v3.1h2.9v-3.5h0.9v4.5h-8.1v-4.4h0.9v3.3h2.6v-3.1L438.5,528.9L438.5,528.9L438.5,528.9z"/>
		<path class="st0" d="M434.2,527.2v-1h7.2v-3.5h0.9v4.5H434.2z"/>
		<path class="st0" d="M434.3,519c-0.1-0.5-0.2-1.2-0.2-1.9c0-1,0.2-1.7,0.6-2.2c0.3-0.4,0.8-0.7,1.4-0.7c0.8,0,1.5,0.5,1.8,1.4l0,0
			c0.2-0.8,0.8-1.7,2-1.7c0.7,0,1.2,0.3,1.6,0.7c0.5,0.6,0.8,1.5,0.8,2.8c0,0.7,0,1.3-0.1,1.6L434.3,519L434.3,519z M437.6,517.9
			V517c0-1.1-0.6-1.8-1.4-1.8c-0.9,0-1.3,0.7-1.3,1.8c0,0.5,0,0.8,0.1,0.9H437.6z M441.5,517.9c0-0.2,0-0.5,0-0.9
			c0-1.1-0.4-2.1-1.6-2.1c-1.1,0-1.6,0.9-1.6,2.1v0.9H441.5z"/>
		<path class="st0" d="M438.2,505.5c2.8,0,4.3,1.7,4.3,3.8s-1.7,3.6-4.1,3.6c-2.6,0-4.2-1.6-4.2-3.8
			C434.1,507,435.8,505.5,438.2,505.5z M438.3,511.8c1.7,0,3.3-0.9,3.3-2.6s-1.5-2.6-3.4-2.6c-1.6,0-3.3,0.8-3.3,2.6
			S436.5,511.8,438.3,511.8z"/>
		<path class="st0" d="M439.8,503l2.5,0.8v1.1l-8.1-2.7v-1.3l8.1-2.8v1.1l-2.5,0.9V503z M438.9,500.4l-2.3,0.8
			c-0.5,0.2-1,0.3-1.5,0.4l0,0c0.5,0.1,1,0.3,1.5,0.4l2.3,0.8V500.4z"/>
		<path class="st0" d="M434.3,497c-0.1-0.5-0.2-1.3-0.2-2c0-1.1,0.2-1.8,0.7-2.3c0.4-0.4,0.9-0.6,1.5-0.6c1.1,0,1.8,0.7,2.1,1.5l0,0
			c0.2-0.6,0.8-1,1.6-1.2c1.1-0.3,1.9-0.5,2.2-0.6v1.1c-0.2,0.1-0.9,0.3-1.9,0.5c-1.1,0.2-1.5,0.7-1.6,1.6v1h3.5v1H434.3z M438,496
			v-1.1c0-1.1-0.6-1.8-1.5-1.8c-1,0-1.5,0.8-1.5,1.9c0,0.5,0,0.9,0.1,1H438L438,496z"/>
		<path class="st0" d="M434.3,490.6c-0.1-0.6-0.2-1.4-0.2-2.2c0-1.5,0.3-2.6,1-3.3c0.7-0.7,1.6-1.1,2.9-1.1s2.4,0.4,3.1,1.2
			c0.8,0.8,1.2,2,1.2,3.6c0,0.7,0,1.4-0.1,1.9L434.3,490.6L434.3,490.6z M441.5,489.5c0-0.3,0.1-0.6,0.1-1.1c0-2.2-1.2-3.4-3.4-3.4
			c-1.9,0-3.1,1.1-3.1,3.3c0,0.5,0,0.9,0.1,1.2H441.5z"/>
	</g>
	<g>
		<path class="st0" d="M488.9,518.4h4.8c1.8,0,2.6-0.8,2.6-1.9c0-1.2-0.8-2-2.6-2h-4.8v-1.1h4.7c2.5,0,3.5,1.3,3.5,3.1
			c0,1.7-0.9,2.9-3.5,2.9h-4.8L488.9,518.4L488.9,518.4z"/>
		<path class="st0" d="M495.7,511.9c0.3-0.5,0.5-1.2,0.5-1.9c0-1.1-0.6-1.7-1.4-1.7s-1.2,0.4-1.6,1.5c-0.5,1.3-1.2,2.1-2.3,2.1
			c-1.3,0-2.2-1-2.2-2.6c0-0.8,0.2-1.4,0.4-1.8l0.9,0.3c-0.1,0.3-0.4,0.8-0.4,1.5c0,1.1,0.7,1.5,1.2,1.5c0.8,0,1.1-0.5,1.6-1.6
			c0.5-1.4,1.2-2.1,2.4-2.1s2.3,0.9,2.3,2.8c0,0.8-0.2,1.6-0.5,2.1L495.7,511.9z"/>
		<path class="st0" d="M489,505.8c-0.1-0.5-0.2-1.2-0.2-1.9c0-1,0.2-1.7,0.6-2.2c0.3-0.4,0.8-0.7,1.4-0.7c0.8,0,1.5,0.5,1.8,1.4l0,0
			c0.2-0.8,0.8-1.7,2-1.7c0.7,0,1.2,0.3,1.6,0.7c0.5,0.6,0.8,1.5,0.8,2.8c0,0.7,0,1.3-0.1,1.6L489,505.8L489,505.8z M492.3,504.8
			v-0.9c0-1.1-0.6-1.8-1.4-1.8c-0.9,0-1.3,0.7-1.3,1.8c0,0.5,0,0.8,0.1,0.9H492.3z M496.2,504.8c0-0.2,0-0.5,0-0.9
			c0-1.1-0.4-2.1-1.6-2.1c-1.1,0-1.6,0.9-1.6,2.1v0.9H496.2z"/>
	</g>
	<path class="st3" d="M380.9,453.3c2.6,0,4.7,2.1,4.7,4.7s-2.1,4.7-4.7,4.7s-4.7-2.1-4.7-4.7C376.1,455.4,378.2,453.3,380.9,453.3
		L380.9,453.3z"/>
	<path class="st3" d="M491,453.3c2.6,0,4.7,2.1,4.7,4.7s-2.1,4.7-4.7,4.7s-4.7-2.1-4.7-4.7C486.2,455.4,488.3,453.3,491,453.3
		L491,453.3z"/>
	<path class="st3" d="M504.2,630.1H365.8c-6.6,0-12-5.4-12-12V416.8c0-6.6,5.4-12,12-12h138.4c6.6,0,12,5.4,12,12v201.3
		C516.2,624.7,510.8,630.1,504.2,630.1z"/>
</g>
<g id="Pixel_Board_3_">
	<path class="st3" d="M543.3,569.4c2.6,0,4.7,2.1,4.7,4.7c0,2.6-2.1,4.7-4.7,4.7c-2.6,0-4.7-2.1-4.7-4.7
		C538.5,571.5,540.6,569.4,543.3,569.4L543.3,569.4z"/>
	<path class="st3" d="M653.4,569.4c2.6,0,4.7,2.1,4.7,4.7c0,2.6-2.1,4.7-4.7,4.7c-2.6,0-4.7-2.1-4.7-4.7
		C648.6,571.5,650.7,569.4,653.4,569.4L653.4,569.4z"/>
	<path class="st3" d="M529.5,413.4c2.6,0,4.7,2.1,4.7,4.7c0,2.6-2.1,4.7-4.7,4.7c-2.6,0-4.7-2.1-4.7-4.7S526.8,413.4,529.5,413.4
		L529.5,413.4z"/>
	<path class="st3" d="M529.5,611.9c2.6,0,4.7,2.1,4.7,4.7c0,2.6-2.1,4.7-4.7,4.7c-2.6,0-4.7-2.1-4.7-4.7
		C524.7,614,526.8,611.9,529.5,611.9L529.5,611.9z"/>
	<path class="st3" d="M665.5,413.4c2.6,0,4.7,2.1,4.7,4.7c0,2.6-2.1,4.7-4.7,4.7c-2.6,0-4.7-2.1-4.7-4.7S662.8,413.4,665.5,413.4
		L665.5,413.4z"/>
	<path class="st3" d="M665.5,611.6c2.6,0,4.7,2.1,4.7,4.7c0,2.6-2.1,4.7-4.7,4.7c-2.6,0-4.7-2.1-4.7-4.7
		C660.7,613.7,662.8,611.6,665.5,611.6L665.5,611.6z"/>
	<g>
		<path class="st0" d="M596.7,549.2c-0.1-0.5-0.2-1.2-0.2-2c0-1,0.2-1.8,0.7-2.3c0.4-0.4,1-0.7,1.7-0.7s1.3,0.2,1.7,0.6
			c0.6,0.6,0.9,1.5,0.9,2.5c0,0.3,0,0.6-0.1,0.8h3.2v1L596.7,549.2L596.7,549.2L596.7,549.2z M600.6,548.1c0.1-0.2,0.1-0.5,0.1-0.9
			c0-1.3-0.6-2-1.7-2c-1.1,0-1.6,0.8-1.6,1.9c0,0.5,0,0.8,0.1,1H600.6z"/>
		<path class="st0" d="M596.6,541.7h8.1v1h-8.1V541.7z"/>
		<path class="st0" d="M604.7,535.5l-1.8,1c-0.7,0.4-1.1,0.7-1.6,0.9l0,0c0.5,0.2,0.9,0.5,1.6,0.9l1.8,1v1.2l-4.1-2.5l-4,2.4v-1.2
			l1.9-1.1c0.5-0.3,0.9-0.5,1.4-0.7l0,0c-0.5-0.2-0.9-0.4-1.4-0.7l-1.9-1.1v-1.3l3.9,2.5l4.1-2.5L604.7,535.5L604.7,535.5z"/>
		<path class="st0" d="M600.9,528.9v3.1h2.9v-3.5h0.9v4.5h-8.1v-4.4h0.9v3.3h2.6v-3.1L600.9,528.9L600.9,528.9L600.9,528.9z"/>
		<path class="st0" d="M596.6,527.2v-1h7.2v-3.5h0.9v4.5H596.6z"/>
		<path class="st0" d="M596.7,519c-0.1-0.5-0.2-1.2-0.2-1.9c0-1,0.2-1.7,0.6-2.2c0.3-0.4,0.8-0.7,1.4-0.7c0.8,0,1.5,0.5,1.8,1.4l0,0
			c0.2-0.8,0.8-1.7,2-1.7c0.7,0,1.2,0.3,1.6,0.7c0.5,0.6,0.8,1.5,0.8,2.8c0,0.7,0,1.3-0.1,1.6L596.7,519L596.7,519z M600,517.9V517
			c0-1.1-0.6-1.8-1.4-1.8c-0.9,0-1.3,0.7-1.3,1.8c0,0.5,0,0.8,0.1,0.9H600z M603.9,517.9c0-0.2,0-0.5,0-0.9c0-1.1-0.4-2.1-1.6-2.1
			c-1.1,0-1.6,0.9-1.6,2.1v0.9H603.9z"/>
		<path class="st0" d="M600.6,505.5c2.8,0,4.3,1.7,4.3,3.8s-1.7,3.6-4.1,3.6c-2.6,0-4.2-1.6-4.2-3.8
			C596.5,507,598.2,505.5,600.6,505.5z M600.7,511.8c1.7,0,3.3-0.9,3.3-2.6s-1.5-2.6-3.4-2.6c-1.6,0-3.3,0.8-3.3,2.6
			S598.9,511.8,600.7,511.8z"/>
		<path class="st0" d="M602.2,503l2.5,0.8v1.1l-8.1-2.7v-1.3l8.1-2.8v1.1l-2.5,0.9V503z M601.3,500.4l-2.3,0.8
			c-0.5,0.2-1,0.3-1.5,0.4l0,0c0.5,0.1,1,0.3,1.5,0.4l2.3,0.8V500.4z"/>
		<path class="st0" d="M596.7,497c-0.1-0.5-0.2-1.3-0.2-2c0-1.1,0.2-1.8,0.7-2.3c0.4-0.4,0.9-0.6,1.5-0.6c1.1,0,1.8,0.7,2.1,1.5l0,0
			c0.2-0.6,0.8-1,1.6-1.2c1.1-0.3,1.9-0.5,2.2-0.6v1.1c-0.2,0.1-0.9,0.3-1.9,0.5c-1.1,0.2-1.5,0.7-1.6,1.6v1h3.5v1H596.7z
			 M600.4,496v-1.1c0-1.1-0.6-1.8-1.5-1.8c-1,0-1.5,0.8-1.5,1.9c0,0.5,0,0.9,0.1,1H600.4L600.4,496z"/>
		<path class="st0" d="M596.7,490.6c-0.1-0.6-0.2-1.4-0.2-2.2c0-1.5,0.3-2.6,1-3.3c0.7-0.7,1.6-1.1,2.9-1.1s2.4,0.4,3.1,1.2
			c0.8,0.8,1.2,2,1.2,3.6c0,0.7,0,1.4-0.1,1.9L596.7,490.6L596.7,490.6z M603.9,489.5c0-0.3,0.1-0.6,0.1-1.1c0-2.2-1.2-3.4-3.4-3.4
			c-1.9,0-3.1,1.1-3.1,3.3c0,0.5,0,0.9,0.1,1.2H603.9z"/>
	</g>
	<g>
		<path class="st0" d="M651.3,518.4h4.8c1.8,0,2.6-0.8,2.6-1.9c0-1.2-0.8-2-2.6-2h-4.8v-1.1h4.7c2.5,0,3.5,1.3,3.5,3.1
			c0,1.7-0.9,2.9-3.5,2.9h-4.8L651.3,518.4L651.3,518.4z"/>
		<path class="st0" d="M658.1,511.9c0.3-0.5,0.5-1.2,0.5-1.9c0-1.1-0.6-1.7-1.4-1.7s-1.2,0.4-1.6,1.5c-0.5,1.3-1.2,2.1-2.3,2.1
			c-1.3,0-2.2-1-2.2-2.6c0-0.8,0.2-1.4,0.4-1.8l0.9,0.3c-0.1,0.3-0.4,0.8-0.4,1.5c0,1.1,0.7,1.5,1.2,1.5c0.8,0,1.1-0.5,1.6-1.6
			c0.5-1.4,1.2-2.1,2.4-2.1c1.2,0,2.3,0.9,2.3,2.8c0,0.8-0.2,1.6-0.5,2.1L658.1,511.9z"/>
		<path class="st0" d="M651.4,505.8c-0.1-0.5-0.2-1.2-0.2-1.9c0-1,0.2-1.7,0.6-2.2c0.3-0.4,0.8-0.7,1.4-0.7c0.8,0,1.5,0.5,1.8,1.4
			l0,0c0.2-0.8,0.8-1.7,2-1.7c0.7,0,1.2,0.3,1.6,0.7c0.5,0.6,0.8,1.5,0.8,2.8c0,0.7,0,1.3-0.1,1.6L651.4,505.8L651.4,505.8z
			 M654.7,504.8v-0.9c0-1.1-0.6-1.8-1.4-1.8c-0.9,0-1.3,0.7-1.3,1.8c0,0.5,0,0.8,0.1,0.9H654.7z M658.6,504.8c0-0.2,0-0.5,0-0.9
			c0-1.1-0.4-2.1-1.6-2.1c-1.1,0-1.6,0.9-1.6,2.1v0.9H658.6z"/>
	</g>
	<path class="st3" d="M543.3,453.3c2.6,0,4.7,2.1,4.7,4.7s-2.1,4.7-4.7,4.7c-2.6,0-4.7-2.1-4.7-4.7
		C538.5,455.4,540.6,453.3,543.3,453.3L543.3,453.3z"/>
	<path class="st3" d="M653.4,453.3c2.6,0,4.7,2.1,4.7,4.7s-2.1,4.7-4.7,4.7c-2.6,0-4.7-2.1-4.7-4.7
		C648.6,455.4,650.7,453.3,653.4,453.3L653.4,453.3z"/>
	<path class="st3" d="M666.6,630.1H528.2c-6.6,0-12-5.4-12-12V416.8c0-6.6,5.4-12,12-12h138.4c6.6,0,12,5.4,12,12v201.3
		C678.6,624.7,673.2,630.1,666.6,630.1z"/>
</g>
<g id="Pixel_Board_4_">
	<path class="st3" d="M705.7,569.4c2.6,0,4.7,2.1,4.7,4.7c0,2.6-2.1,4.7-4.7,4.7c-2.6,0-4.7-2.1-4.7-4.7
		C700.9,571.5,703,569.4,705.7,569.4L705.7,569.4z"/>
	<path class="st3" d="M815.8,569.4c2.6,0,4.7,2.1,4.7,4.7c0,2.6-2.1,4.7-4.7,4.7c-2.6,0-4.7-2.1-4.7-4.7
		C811,571.5,813.1,569.4,815.8,569.4L815.8,569.4z"/>
	<path class="st3" d="M691.9,413.4c2.6,0,4.7,2.1,4.7,4.7c0,2.6-2.1,4.7-4.7,4.7c-2.6,0-4.7-2.1-4.7-4.7S689.2,413.4,691.9,413.4
		L691.9,413.4z"/>
	<path class="st3" d="M691.9,611.9c2.6,0,4.7,2.1,4.7,4.7c0,2.6-2.1,4.7-4.7,4.7c-2.6,0-4.7-2.1-4.7-4.7
		C687.1,614,689.2,611.9,691.9,611.9L691.9,611.9z"/>
	<path class="st3" d="M827.9,413.4c2.6,0,4.7,2.1,4.7,4.7c0,2.6-2.1,4.7-4.7,4.7c-2.6,0-4.7-2.1-4.7-4.7S825.2,413.4,827.9,413.4
		L827.9,413.4z"/>
	<path class="st3" d="M827.9,611.6c2.6,0,4.7,2.1,4.7,4.7c0,2.6-2.1,4.7-4.7,4.7c-2.6,0-4.7-2.1-4.7-4.7
		C823.1,613.7,825.2,611.6,827.9,611.6L827.9,611.6z"/>
	<g>
		<path class="st0" d="M759.1,549.2c-0.1-0.5-0.2-1.2-0.2-2c0-1,0.2-1.8,0.7-2.3c0.4-0.4,1-0.7,1.7-0.7s1.3,0.2,1.7,0.6
			c0.6,0.6,0.9,1.5,0.9,2.5c0,0.3,0,0.6-0.1,0.8h3.2v1L759.1,549.2L759.1,549.2L759.1,549.2z M763,548.1c0.1-0.2,0.1-0.5,0.1-0.9
			c0-1.3-0.6-2-1.7-2c-1.1,0-1.6,0.8-1.6,1.9c0,0.5,0,0.8,0.1,1H763z"/>
		<path class="st0" d="M759,541.7h8.1v1H759V541.7z"/>
		<path class="st0" d="M767.1,535.5l-1.8,1c-0.7,0.4-1.1,0.7-1.6,0.9l0,0c0.5,0.2,0.9,0.5,1.6,0.9l1.8,1v1.2L763,538l-4,2.4v-1.2
			l1.9-1.1c0.5-0.3,0.9-0.5,1.4-0.7l0,0c-0.5-0.2-0.9-0.4-1.4-0.7l-1.9-1.1v-1.3l3.9,2.5l4.1-2.5L767.1,535.5L767.1,535.5z"/>
		<path class="st0" d="M763.3,528.9v3.1h2.9v-3.5h0.9v4.5H759v-4.4h0.9v3.3h2.6v-3.1L763.3,528.9L763.3,528.9L763.3,528.9z"/>
		<path class="st0" d="M759,527.2v-1h7.2v-3.5h0.9v4.5H759z"/>
		<path class="st0" d="M759.1,519c-0.1-0.5-0.2-1.2-0.2-1.9c0-1,0.2-1.7,0.6-2.2c0.3-0.4,0.8-0.7,1.4-0.7c0.8,0,1.5,0.5,1.8,1.4l0,0
			c0.2-0.8,0.8-1.7,2-1.7c0.7,0,1.2,0.3,1.6,0.7c0.5,0.6,0.8,1.5,0.8,2.8c0,0.7,0,1.3-0.1,1.6L759.1,519L759.1,519z M762.4,517.9
			V517c0-1.1-0.6-1.8-1.4-1.8c-0.9,0-1.3,0.7-1.3,1.8c0,0.5,0,0.8,0.1,0.9H762.4z M766.3,517.9c0-0.2,0-0.5,0-0.9
			c0-1.1-0.4-2.1-1.6-2.1c-1.1,0-1.6,0.9-1.6,2.1v0.9H766.3z"/>
		<path class="st0" d="M763,505.5c2.8,0,4.3,1.7,4.3,3.8s-1.7,3.6-4.1,3.6c-2.6,0-4.2-1.6-4.2-3.8C758.9,507,760.6,505.5,763,505.5z
			 M763.1,511.8c1.7,0,3.3-0.9,3.3-2.6s-1.5-2.6-3.4-2.6c-1.6,0-3.3,0.8-3.3,2.6S761.3,511.8,763.1,511.8z"/>
		<path class="st0" d="M764.6,503l2.5,0.8v1.1l-8.1-2.7v-1.3l8.1-2.8v1.1l-2.5,0.9V503z M763.7,500.4l-2.3,0.8
			c-0.5,0.2-1,0.3-1.5,0.4l0,0c0.5,0.1,1,0.3,1.5,0.4l2.3,0.8V500.4z"/>
		<path class="st0" d="M759.1,497c-0.1-0.5-0.2-1.3-0.2-2c0-1.1,0.2-1.8,0.7-2.3c0.4-0.4,0.9-0.6,1.5-0.6c1.1,0,1.8,0.7,2.1,1.5l0,0
			c0.2-0.6,0.8-1,1.6-1.2c1.1-0.3,1.9-0.5,2.2-0.6v1.1c-0.2,0.1-0.9,0.3-1.9,0.5c-1.1,0.2-1.5,0.7-1.6,1.6v1h3.5v1H759.1z
			 M762.8,496v-1.1c0-1.1-0.6-1.8-1.5-1.8c-1,0-1.5,0.8-1.5,1.9c0,0.5,0,0.9,0.1,1H762.8L762.8,496z"/>
		<path class="st0" d="M759.1,490.6c-0.1-0.6-0.2-1.4-0.2-2.2c0-1.5,0.3-2.6,1-3.3c0.7-0.7,1.6-1.1,2.9-1.1s2.4,0.4,3.1,1.2
			c0.8,0.8,1.2,2,1.2,3.6c0,0.7,0,1.4-0.1,1.9L759.1,490.6L759.1,490.6z M766.3,489.5c0-0.3,0.1-0.6,0.1-1.1c0-2.2-1.2-3.4-3.4-3.4
			c-1.9,0-3.1,1.1-3.1,3.3c0,0.5,0,0.9,0.1,1.2H766.3z"/>
	</g>
	<g>
		<path class="st0" d="M813.7,518.4h4.8c1.8,0,2.6-0.8,2.6-1.9c0-1.2-0.8-2-2.6-2h-4.8v-1.1h4.7c2.5,0,3.5,1.3,3.5,3.1
			c0,1.7-0.9,2.9-3.5,2.9h-4.8L813.7,518.4L813.7,518.4z"/>
		<path class="st0" d="M820.5,511.9c0.3-0.5,0.5-1.2,0.5-1.9c0-1.1-0.6-1.7-1.4-1.7s-1.2,0.4-1.6,1.5c-0.5,1.3-1.2,2.1-2.3,2.1
			c-1.3,0-2.2-1-2.2-2.6c0-0.8,0.2-1.4,0.4-1.8l0.9,0.3c-0.1,0.3-0.4,0.8-0.4,1.5c0,1.1,0.7,1.5,1.2,1.5c0.8,0,1.1-0.5,1.6-1.6
			c0.5-1.4,1.2-2.1,2.4-2.1c1.2,0,2.3,0.9,2.3,2.8c0,0.8-0.2,1.6-0.5,2.1L820.5,511.9z"/>
		<path class="st0" d="M813.8,505.8c-0.1-0.5-0.2-1.2-0.2-1.9c0-1,0.2-1.7,0.6-2.2c0.3-0.4,0.8-0.7,1.4-0.7c0.8,0,1.5,0.5,1.8,1.4
			l0,0c0.2-0.8,0.8-1.7,2-1.7c0.7,0,1.2,0.3,1.6,0.7c0.5,0.6,0.8,1.5,0.8,2.8c0,0.7,0,1.3-0.1,1.6L813.8,505.8L813.8,505.8z
			 M817.1,504.8v-0.9c0-1.1-0.6-1.8-1.4-1.8c-0.9,0-1.3,0.7-1.3,1.8c0,0.5,0,0.8,0.1,0.9H817.1z M821,504.8c0-0.2,0-0.5,0-0.9
			c0-1.1-0.4-2.1-1.6-2.1c-1.1,0-1.6,0.9-1.6,2.1v0.9H821z"/>
	</g>
	<path class="st3" d="M705.7,453.3c2.6,0,4.7,2.1,4.7,4.7s-2.1,4.7-4.7,4.7c-2.6,0-4.7-2.1-4.7-4.7
		C700.9,455.4,703,453.3,705.7,453.3L705.7,453.3z"/>
	<path class="st3" d="M815.8,453.3c2.6,0,4.7,2.1,4.7,4.7s-2.1,4.7-4.7,4.7c-2.6,0-4.7-2.1-4.7-4.7
		C811,455.4,813.1,453.3,815.8,453.3L815.8,453.3z"/>
	<path class="st3" d="M829,630.1H690.6c-6.6,0-12-5.4-12-12V416.8c0-6.6,5.4-12,12-12H829c6.6,0,12,5.4,12,12v201.3
		C841,624.7,835.6,630.1,829,630.1z"/>
</g>
<g id="Pixel_Board_9_">
	<path class="st3" d="M55.7,344.1c2.6,0,4.7,2.1,4.7,4.7s-2.1,4.7-4.7,4.7s-4.7-2.1-4.7-4.7C50.9,346.2,53,344.1,55.7,344.1
		L55.7,344.1z"/>
	<path class="st3" d="M165.8,344.1c2.6,0,4.7,2.1,4.7,4.7s-2.1,4.7-4.7,4.7s-4.7-2.1-4.7-4.7C161,346.2,163.1,344.1,165.8,344.1
		L165.8,344.1z"/>
	<path class="st3" d="M41.9,188.1c2.6,0,4.7,2.1,4.7,4.7c0,2.6-2.1,4.7-4.7,4.7s-4.7-2.1-4.7-4.7C37.2,190.2,39.2,188.1,41.9,188.1
		L41.9,188.1z"/>
	<path class="st3" d="M41.9,386.6c2.6,0,4.7,2.1,4.7,4.7s-2.1,4.7-4.7,4.7s-4.7-2.1-4.7-4.7C37.1,388.7,39.2,386.6,41.9,386.6
		L41.9,386.6z"/>
	<path class="st3" d="M177.9,188.1c2.6,0,4.7,2.1,4.7,4.7c0,2.6-2.1,4.7-4.7,4.7s-4.7-2.1-4.7-4.7
		C173.2,190.2,175.2,188.1,177.9,188.1L177.9,188.1z"/>
	<path class="st3" d="M177.9,386.3c2.6,0,4.7,2.1,4.7,4.7s-2.1,4.7-4.7,4.7s-4.7-2.1-4.7-4.7C173.1,388.4,175.2,386.3,177.9,386.3
		L177.9,386.3z"/>
	<g>
		<path class="st0" d="M109.1,323.9c-0.1-0.5-0.2-1.2-0.2-2c0-1,0.2-1.8,0.7-2.3c0.4-0.4,1-0.7,1.7-0.7s1.3,0.2,1.7,0.6
			c0.6,0.6,0.9,1.5,0.9,2.5c0,0.3,0,0.6-0.1,0.8h3.2v1h-7.9L109.1,323.9L109.1,323.9z M113,322.8c0.1-0.2,0.1-0.5,0.1-0.9
			c0-1.3-0.6-2-1.7-2s-1.6,0.8-1.6,1.9c0,0.5,0,0.8,0.1,1H113z"/>
		<path class="st0" d="M109,316.4h8.1v1H109V316.4z"/>
		<path class="st0" d="M117.1,310.2l-1.8,1c-0.7,0.4-1.1,0.7-1.6,0.9l0,0c0.5,0.2,0.9,0.5,1.6,0.9l1.8,1v1.2l-4.1-2.5l-4,2.4v-1.2
			l1.9-1.1c0.5-0.3,0.9-0.5,1.4-0.7l0,0c-0.5-0.2-0.9-0.4-1.4-0.7l-1.9-1.1V309l3.9,2.5l4.1-2.5L117.1,310.2L117.1,310.2z"/>
		<path class="st0" d="M113.3,303.6v3.1h2.9v-3.5h0.9v4.5H109v-4.4h0.9v3.3h2.6v-3.1L113.3,303.6L113.3,303.6L113.3,303.6z"/>
		<path class="st0" d="M109,301.9v-1h7.2v-3.5h0.9v4.5H109z"/>
		<path class="st0" d="M109.1,293.7c-0.1-0.5-0.2-1.2-0.2-1.9c0-1,0.2-1.7,0.6-2.2c0.3-0.4,0.8-0.7,1.4-0.7c0.8,0,1.5,0.5,1.8,1.4
			l0,0c0.2-0.8,0.8-1.7,2-1.7c0.7,0,1.2,0.3,1.6,0.7c0.5,0.6,0.8,1.5,0.8,2.8c0,0.7,0,1.3-0.1,1.6L109.1,293.7L109.1,293.7z
			 M112.4,292.6v-0.9c0-1.1-0.6-1.8-1.4-1.8c-0.9,0-1.3,0.7-1.3,1.8c0,0.5,0,0.8,0.1,0.9H112.4z M116.3,292.6c0-0.2,0-0.5,0-0.9
			c0-1.1-0.4-2.1-1.6-2.1c-1.1,0-1.6,0.9-1.6,2.1v0.9H116.3z"/>
		<path class="st0" d="M113,280.2c2.8,0,4.3,1.7,4.3,3.8s-1.7,3.6-4.1,3.6c-2.6,0-4.2-1.6-4.2-3.8
			C108.9,281.7,110.6,280.2,113,280.2z M113.1,286.5c1.7,0,3.3-0.9,3.3-2.6s-1.5-2.6-3.4-2.6c-1.6,0-3.3,0.8-3.3,2.6
			S111.3,286.5,113.1,286.5z"/>
		<path class="st0" d="M114.6,277.7l2.5,0.8v1.1l-8.1-2.7v-1.3l8.1-2.8v1.1l-2.5,0.9V277.7z M113.7,275.1l-2.3,0.8
			c-0.5,0.2-1,0.3-1.5,0.4l0,0c0.5,0.1,1,0.3,1.5,0.4l2.3,0.8V275.1z"/>
		<path class="st0" d="M109.1,271.7c-0.1-0.5-0.2-1.3-0.2-2c0-1.1,0.2-1.8,0.7-2.3c0.4-0.4,0.9-0.6,1.5-0.6c1.1,0,1.8,0.7,2.1,1.5
			l0,0c0.2-0.6,0.8-1,1.6-1.2c1.1-0.3,1.9-0.5,2.2-0.6v1.1c-0.2,0.1-0.9,0.3-1.9,0.5c-1.1,0.2-1.5,0.7-1.6,1.6v1h3.5v1H109.1z
			 M112.8,270.7v-1.1c0-1.1-0.6-1.8-1.5-1.8c-1,0-1.5,0.8-1.5,1.9c0,0.5,0,0.9,0.1,1H112.8L112.8,270.7z"/>
		<path class="st0" d="M109.1,265.3c-0.1-0.6-0.2-1.4-0.2-2.2c0-1.5,0.3-2.6,1-3.3c0.7-0.7,1.6-1.1,2.9-1.1s2.4,0.4,3.1,1.2
			c0.8,0.8,1.2,2,1.2,3.6c0,0.7,0,1.4-0.1,1.9L109.1,265.3L109.1,265.3z M116.3,264.2c0-0.3,0.1-0.6,0.1-1.1c0-2.2-1.2-3.4-3.4-3.4
			c-1.9,0-3.1,1.1-3.1,3.3c0,0.5,0,0.9,0.1,1.2H116.3z"/>
	</g>
	<g>
		<path class="st0" d="M163.7,293.1h4.8c1.8,0,2.6-0.8,2.6-1.9c0-1.2-0.8-2-2.6-2h-4.8v-1.1h4.7c2.5,0,3.5,1.3,3.5,3.1
			c0,1.7-0.9,2.9-3.5,2.9h-4.8L163.7,293.1L163.7,293.1z"/>
		<path class="st0" d="M170.5,286.6c0.3-0.5,0.5-1.2,0.5-1.9c0-1.1-0.6-1.7-1.4-1.7s-1.2,0.4-1.6,1.5c-0.5,1.3-1.2,2.1-2.3,2.1
			c-1.3,0-2.2-1-2.2-2.6c0-0.8,0.2-1.4,0.4-1.8l0.9,0.3c-0.1,0.3-0.4,0.8-0.4,1.5c0,1.1,0.7,1.5,1.2,1.5c0.8,0,1.1-0.5,1.6-1.6
			c0.5-1.4,1.2-2.1,2.4-2.1s2.3,0.9,2.3,2.8c0,0.8-0.2,1.6-0.5,2.1L170.5,286.6z"/>
		<path class="st0" d="M163.8,280.5c-0.1-0.5-0.2-1.2-0.2-1.9c0-1,0.2-1.7,0.6-2.2c0.3-0.4,0.8-0.7,1.4-0.7c0.8,0,1.5,0.5,1.8,1.4
			l0,0c0.2-0.8,0.8-1.7,2-1.7c0.7,0,1.2,0.3,1.6,0.7c0.5,0.6,0.8,1.5,0.8,2.8c0,0.7,0,1.3-0.1,1.6L163.8,280.5L163.8,280.5z
			 M167.1,279.5v-0.9c0-1.1-0.6-1.8-1.4-1.8c-0.9,0-1.3,0.7-1.3,1.8c0,0.5,0,0.8,0.1,0.9H167.1z M171,279.5c0-0.2,0-0.5,0-0.9
			c0-1.1-0.4-2.1-1.6-2.1c-1.1,0-1.6,0.9-1.6,2.1v0.9H171z"/>
	</g>
	<path class="st3" d="M55.7,228c2.6,0,4.7,2.1,4.7,4.7s-2.1,4.7-4.7,4.7s-4.7-2.1-4.7-4.7C50.9,230.1,53,228,55.7,228L55.7,228z"/>
	<path class="st3" d="M165.8,228c2.6,0,4.7,2.1,4.7,4.7s-2.1,4.7-4.7,4.7s-4.7-2.1-4.7-4.7C161,230.1,163.1,228,165.8,228L165.8,228
		z"/>
	<path class="st3" d="M179,404.8H40.6c-6.6,0-12-5.4-12-12V191.5c0-6.6,5.4-12,12-12H179c6.6,0,12,5.4,12,12v201.3
		C191,399.4,185.6,404.8,179,404.8z"/>
</g>
<g id="Pixel_Board_8_">
	<path class="st3" d="M218.4,344.1c2.6,0,4.7,2.1,4.7,4.7s-2.1,4.7-4.7,4.7s-4.7-2.1-4.7-4.7C213.6,346.2,215.7,344.1,218.4,344.1
		L218.4,344.1z"/>
	<path class="st3" d="M328.5,344.1c2.6,0,4.7,2.1,4.7,4.7s-2.1,4.7-4.7,4.7s-4.7-2.1-4.7-4.7C323.7,346.2,325.8,344.1,328.5,344.1
		L328.5,344.1z"/>
	<path class="st3" d="M204.6,188.1c2.6,0,4.7,2.1,4.7,4.7c0,2.6-2.1,4.7-4.7,4.7s-4.7-2.1-4.7-4.7
		C199.9,190.2,201.9,188.1,204.6,188.1L204.6,188.1z"/>
	<path class="st3" d="M204.6,386.6c2.6,0,4.7,2.1,4.7,4.7s-2.1,4.7-4.7,4.7s-4.7-2.1-4.7-4.7C199.8,388.7,201.9,386.6,204.6,386.6
		L204.6,386.6z"/>
	<path class="st3" d="M340.6,188.1c2.6,0,4.7,2.1,4.7,4.7c0,2.6-2.1,4.7-4.7,4.7s-4.7-2.1-4.7-4.7
		C335.9,190.2,337.9,188.1,340.6,188.1L340.6,188.1z"/>
	<path class="st3" d="M340.6,386.3c2.6,0,4.7,2.1,4.7,4.7s-2.1,4.7-4.7,4.7s-4.7-2.1-4.7-4.7C335.8,388.4,337.9,386.3,340.6,386.3
		L340.6,386.3z"/>
	<g>
		<path class="st0" d="M271.8,323.9c-0.1-0.5-0.2-1.2-0.2-2c0-1,0.2-1.8,0.7-2.3c0.4-0.4,1-0.7,1.7-0.7s1.3,0.2,1.7,0.6
			c0.6,0.6,0.9,1.5,0.9,2.5c0,0.3,0,0.6-0.1,0.8h3.2v1h-7.9L271.8,323.9L271.8,323.9z M275.7,322.8c0.1-0.2,0.1-0.5,0.1-0.9
			c0-1.3-0.6-2-1.7-2s-1.6,0.8-1.6,1.9c0,0.5,0,0.8,0.1,1H275.7z"/>
		<path class="st0" d="M271.7,316.4h8.1v1h-8.1V316.4z"/>
		<path class="st0" d="M279.8,310.2l-1.8,1c-0.7,0.4-1.1,0.7-1.6,0.9l0,0c0.5,0.2,0.9,0.5,1.6,0.9l1.8,1v1.2l-4.1-2.5l-4,2.4v-1.2
			l1.9-1.1c0.5-0.3,0.9-0.5,1.4-0.7l0,0c-0.5-0.2-0.9-0.4-1.4-0.7l-1.9-1.1V309l3.9,2.5l4.1-2.5L279.8,310.2L279.8,310.2z"/>
		<path class="st0" d="M276,303.6v3.1h2.9v-3.5h0.9v4.5h-8.1v-4.4h0.9v3.3h2.6v-3.1L276,303.6L276,303.6L276,303.6z"/>
		<path class="st0" d="M271.7,301.9v-1h7.2v-3.5h0.9v4.5H271.7z"/>
		<path class="st0" d="M271.8,293.7c-0.1-0.5-0.2-1.2-0.2-1.9c0-1,0.2-1.7,0.6-2.2c0.3-0.4,0.8-0.7,1.4-0.7c0.8,0,1.5,0.5,1.8,1.4
			l0,0c0.2-0.8,0.8-1.7,2-1.7c0.7,0,1.2,0.3,1.6,0.7c0.5,0.6,0.8,1.5,0.8,2.8c0,0.7,0,1.3-0.1,1.6L271.8,293.7L271.8,293.7z
			 M275.1,292.6v-0.9c0-1.1-0.6-1.8-1.4-1.8c-0.9,0-1.3,0.7-1.3,1.8c0,0.5,0,0.8,0.1,0.9H275.1z M279,292.6c0-0.2,0-0.5,0-0.9
			c0-1.1-0.4-2.1-1.6-2.1c-1.1,0-1.6,0.9-1.6,2.1v0.9H279z"/>
		<path class="st0" d="M275.7,280.2c2.8,0,4.3,1.7,4.3,3.8s-1.7,3.6-4.1,3.6c-2.6,0-4.2-1.6-4.2-3.8
			C271.6,281.7,273.3,280.2,275.7,280.2z M275.8,286.5c1.7,0,3.3-0.9,3.3-2.6s-1.5-2.6-3.4-2.6c-1.6,0-3.3,0.8-3.3,2.6
			S274,286.5,275.8,286.5z"/>
		<path class="st0" d="M277.3,277.7l2.5,0.8v1.1l-8.1-2.7v-1.3l8.1-2.8v1.1l-2.5,0.9V277.7z M276.4,275.1l-2.3,0.8
			c-0.5,0.2-1,0.3-1.5,0.4l0,0c0.5,0.1,1,0.3,1.5,0.4l2.3,0.8V275.1z"/>
		<path class="st0" d="M271.8,271.7c-0.1-0.5-0.2-1.3-0.2-2c0-1.1,0.2-1.8,0.7-2.3c0.4-0.4,0.9-0.6,1.5-0.6c1.1,0,1.8,0.7,2.1,1.5
			l0,0c0.2-0.6,0.8-1,1.6-1.2c1.1-0.3,1.9-0.5,2.2-0.6v1.1c-0.2,0.1-0.9,0.3-1.9,0.5c-1.1,0.2-1.5,0.7-1.6,1.6v1h3.5v1H271.8z
			 M275.5,270.7v-1.1c0-1.1-0.6-1.8-1.5-1.8c-1,0-1.5,0.8-1.5,1.9c0,0.5,0,0.9,0.1,1H275.5L275.5,270.7z"/>
		<path class="st0" d="M271.8,265.3c-0.1-0.6-0.2-1.4-0.2-2.2c0-1.5,0.3-2.6,1-3.3c0.7-0.7,1.6-1.1,2.9-1.1s2.4,0.4,3.1,1.2
			c0.8,0.8,1.2,2,1.2,3.6c0,0.7,0,1.4-0.1,1.9L271.8,265.3L271.8,265.3z M279,264.2c0-0.3,0.1-0.6,0.1-1.1c0-2.2-1.2-3.4-3.4-3.4
			c-1.9,0-3.1,1.1-3.1,3.3c0,0.5,0,0.9,0.1,1.2H279z"/>
	</g>
	<g>
		<path class="st0" d="M326.4,293.1h4.8c1.8,0,2.6-0.8,2.6-1.9c0-1.2-0.8-2-2.6-2h-4.8v-1.1h4.7c2.5,0,3.5,1.3,3.5,3.1
			c0,1.7-0.9,2.9-3.5,2.9h-4.8L326.4,293.1L326.4,293.1z"/>
		<path class="st0" d="M333.2,286.6c0.3-0.5,0.5-1.2,0.5-1.9c0-1.1-0.6-1.7-1.4-1.7s-1.2,0.4-1.6,1.5c-0.5,1.3-1.2,2.1-2.3,2.1
			c-1.3,0-2.2-1-2.2-2.6c0-0.8,0.2-1.4,0.4-1.8l0.9,0.3c-0.1,0.3-0.4,0.8-0.4,1.5c0,1.1,0.7,1.5,1.2,1.5c0.8,0,1.1-0.5,1.6-1.6
			c0.5-1.4,1.2-2.1,2.4-2.1s2.3,0.9,2.3,2.8c0,0.8-0.2,1.6-0.5,2.1L333.2,286.6z"/>
		<path class="st0" d="M326.5,280.5c-0.1-0.5-0.2-1.2-0.2-1.9c0-1,0.2-1.7,0.6-2.2c0.3-0.4,0.8-0.7,1.4-0.7c0.8,0,1.5,0.5,1.8,1.4
			l0,0c0.2-0.8,0.8-1.7,2-1.7c0.7,0,1.2,0.3,1.6,0.7c0.5,0.6,0.8,1.5,0.8,2.8c0,0.7,0,1.3-0.1,1.6L326.5,280.5L326.5,280.5z
			 M329.8,279.5v-0.9c0-1.1-0.6-1.8-1.4-1.8c-0.9,0-1.3,0.7-1.3,1.8c0,0.5,0,0.8,0.1,0.9H329.8z M333.7,279.5c0-0.2,0-0.5,0-0.9
			c0-1.1-0.4-2.1-1.6-2.1c-1.1,0-1.6,0.9-1.6,2.1v0.9H333.7z"/>
	</g>
	<path class="st3" d="M218.4,228c2.6,0,4.7,2.1,4.7,4.7s-2.1,4.7-4.7,4.7s-4.7-2.1-4.7-4.7C213.6,230.1,215.7,228,218.4,228
		L218.4,228z"/>
	<path class="st3" d="M328.5,228c2.6,0,4.7,2.1,4.7,4.7s-2.1,4.7-4.7,4.7s-4.7-2.1-4.7-4.7C323.7,230.1,325.8,228,328.5,228
		L328.5,228z"/>
	<path class="st3" d="M341.7,404.8H203.3c-6.6,0-12-5.4-12-12V191.5c0-6.6,5.4-12,12-12h138.4c6.6,0,12,5.4,12,12v201.3
		C353.7,399.4,348.3,404.8,341.7,404.8z"/>
</g>
<g id="Pixel_Board_7_">
	<path class="st3" d="M381.1,343.7c2.6,0,4.7,2.1,4.7,4.7s-2.1,4.7-4.7,4.7s-4.7-2.1-4.7-4.7C376.3,345.8,378.4,343.7,381.1,343.7
		L381.1,343.7z"/>
	<path class="st3" d="M491.2,343.7c2.6,0,4.7,2.1,4.7,4.7s-2.1,4.7-4.7,4.7s-4.7-2.1-4.7-4.7C486.4,345.8,488.5,343.7,491.2,343.7
		L491.2,343.7z"/>
	<path class="st3" d="M367.3,187.7c2.6,0,4.7,2.1,4.7,4.7c0,2.6-2.1,4.7-4.7,4.7s-4.7-2.1-4.7-4.7
		C362.6,189.8,364.6,187.7,367.3,187.7L367.3,187.7z"/>
	<path class="st3" d="M367.3,386.2c2.6,0,4.7,2.1,4.7,4.7s-2.1,4.7-4.7,4.7s-4.7-2.1-4.7-4.7C362.5,388.3,364.6,386.2,367.3,386.2
		L367.3,386.2z"/>
	<path class="st3" d="M503.3,187.7c2.6,0,4.7,2.1,4.7,4.7c0,2.6-2.1,4.7-4.7,4.7s-4.7-2.1-4.7-4.7
		C498.6,189.8,500.6,187.7,503.3,187.7L503.3,187.7z"/>
	<path class="st3" d="M503.3,385.9c2.6,0,4.7,2.1,4.7,4.7s-2.1,4.7-4.7,4.7s-4.7-2.1-4.7-4.7C498.5,388,500.6,385.9,503.3,385.9
		L503.3,385.9z"/>
	<g>
		<path class="st0" d="M434.5,323.5c-0.1-0.5-0.2-1.2-0.2-2c0-1,0.2-1.8,0.7-2.3c0.4-0.4,1-0.7,1.7-0.7s1.3,0.2,1.7,0.6
			c0.6,0.6,0.9,1.5,0.9,2.5c0,0.3,0,0.6-0.1,0.8h3.2v1h-7.9L434.5,323.5L434.5,323.5z M438.4,322.4c0.1-0.2,0.1-0.5,0.1-0.9
			c0-1.3-0.6-2-1.7-2s-1.6,0.8-1.6,1.9c0,0.5,0,0.8,0.1,1H438.4z"/>
		<path class="st0" d="M434.4,316h8.1v1h-8.1V316z"/>
		<path class="st0" d="M442.5,309.8l-1.8,1c-0.7,0.4-1.1,0.7-1.6,0.9l0,0c0.5,0.2,0.9,0.5,1.6,0.9l1.8,1v1.2l-4.1-2.5l-4,2.4v-1.2
			l1.9-1.1c0.5-0.3,0.9-0.5,1.4-0.7l0,0c-0.5-0.2-0.9-0.4-1.4-0.7l-1.9-1.1v-1.3l3.9,2.5l4.1-2.5L442.5,309.8L442.5,309.8z"/>
		<path class="st0" d="M438.7,303.2v3.1h2.9v-3.5h0.9v4.5h-8.1v-4.4h0.9v3.3h2.6v-3.1L438.7,303.2L438.7,303.2L438.7,303.2z"/>
		<path class="st0" d="M434.4,301.5v-1h7.2V297h0.9v4.5H434.4z"/>
		<path class="st0" d="M434.5,293.3c-0.1-0.5-0.2-1.2-0.2-1.9c0-1,0.2-1.7,0.6-2.2c0.3-0.4,0.8-0.7,1.4-0.7c0.8,0,1.5,0.5,1.8,1.4
			l0,0c0.2-0.8,0.8-1.7,2-1.7c0.7,0,1.2,0.3,1.6,0.7c0.5,0.6,0.8,1.5,0.8,2.8c0,0.7,0,1.3-0.1,1.6L434.5,293.3L434.5,293.3z
			 M437.8,292.2v-0.9c0-1.1-0.6-1.8-1.4-1.8c-0.9,0-1.3,0.7-1.3,1.8c0,0.5,0,0.8,0.1,0.9H437.8z M441.7,292.2c0-0.2,0-0.5,0-0.9
			c0-1.1-0.4-2.1-1.6-2.1c-1.1,0-1.6,0.9-1.6,2.1v0.9H441.7z"/>
		<path class="st0" d="M438.4,279.8c2.8,0,4.3,1.7,4.3,3.8s-1.7,3.6-4.1,3.6c-2.6,0-4.2-1.6-4.2-3.8
			C434.3,281.3,436,279.8,438.4,279.8z M438.5,286.1c1.7,0,3.3-0.9,3.3-2.6s-1.5-2.6-3.4-2.6c-1.6,0-3.3,0.8-3.3,2.6
			S436.7,286.1,438.5,286.1z"/>
		<path class="st0" d="M440,277.3l2.5,0.8v1.1l-8.1-2.7v-1.3l8.1-2.8v1.1l-2.5,0.9V277.3z M439.1,274.7l-2.3,0.8
			c-0.5,0.2-1,0.3-1.5,0.4l0,0c0.5,0.1,1,0.3,1.5,0.4l2.3,0.8V274.7z"/>
		<path class="st0" d="M434.5,271.3c-0.1-0.5-0.2-1.3-0.2-2c0-1.1,0.2-1.8,0.7-2.3c0.4-0.4,0.9-0.6,1.5-0.6c1.1,0,1.8,0.7,2.1,1.5
			l0,0c0.2-0.6,0.8-1,1.6-1.2c1.1-0.3,1.9-0.5,2.2-0.6v1.1c-0.2,0.1-0.9,0.3-1.9,0.5c-1.1,0.2-1.5,0.7-1.6,1.6v1h3.5v1H434.5z
			 M438.2,270.3v-1.1c0-1.1-0.6-1.8-1.5-1.8c-1,0-1.5,0.8-1.5,1.9c0,0.5,0,0.9,0.1,1H438.2L438.2,270.3z"/>
		<path class="st0" d="M434.5,264.9c-0.1-0.6-0.2-1.4-0.2-2.2c0-1.5,0.3-2.6,1-3.3c0.7-0.7,1.6-1.1,2.9-1.1s2.4,0.4,3.1,1.2
			c0.8,0.8,1.2,2,1.2,3.6c0,0.7,0,1.4-0.1,1.9L434.5,264.9L434.5,264.9z M441.7,263.8c0-0.3,0.1-0.6,0.1-1.1c0-2.2-1.2-3.4-3.4-3.4
			c-1.9,0-3.1,1.1-3.1,3.3c0,0.5,0,0.9,0.1,1.2H441.7z"/>
	</g>
	<g>
		<path class="st0" d="M489.1,292.7h4.8c1.8,0,2.6-0.8,2.6-1.9c0-1.2-0.8-2-2.6-2h-4.8v-1.1h4.7c2.5,0,3.5,1.3,3.5,3.1
			c0,1.7-0.9,2.9-3.5,2.9H489L489.1,292.7L489.1,292.7z"/>
		<path class="st0" d="M495.9,286.2c0.3-0.5,0.5-1.2,0.5-1.9c0-1.1-0.6-1.7-1.4-1.7s-1.2,0.4-1.6,1.5c-0.5,1.3-1.2,2.1-2.3,2.1
			c-1.3,0-2.2-1-2.2-2.6c0-0.8,0.2-1.4,0.4-1.8l0.9,0.3c-0.1,0.3-0.4,0.8-0.4,1.5c0,1.1,0.7,1.5,1.2,1.5c0.8,0,1.1-0.5,1.6-1.6
			c0.5-1.4,1.2-2.1,2.4-2.1s2.3,0.9,2.3,2.8c0,0.8-0.2,1.6-0.5,2.1L495.9,286.2z"/>
		<path class="st0" d="M489.2,280.1c-0.1-0.5-0.2-1.2-0.2-1.9c0-1,0.2-1.7,0.6-2.2c0.3-0.4,0.8-0.7,1.4-0.7c0.8,0,1.5,0.5,1.8,1.4
			l0,0c0.2-0.8,0.8-1.7,2-1.7c0.7,0,1.2,0.3,1.6,0.7c0.5,0.6,0.8,1.5,0.8,2.8c0,0.7,0,1.3-0.1,1.6L489.2,280.1L489.2,280.1z
			 M492.5,279.1v-0.9c0-1.1-0.6-1.8-1.4-1.8c-0.9,0-1.3,0.7-1.3,1.8c0,0.5,0,0.8,0.1,0.9H492.5z M496.4,279.1c0-0.2,0-0.5,0-0.9
			c0-1.1-0.4-2.1-1.6-2.1c-1.1,0-1.6,0.9-1.6,2.1v0.9H496.4z"/>
	</g>
	<path class="st3" d="M381.1,227.6c2.6,0,4.7,2.1,4.7,4.7s-2.1,4.7-4.7,4.7s-4.7-2.1-4.7-4.7C376.3,229.7,378.4,227.6,381.1,227.6
		L381.1,227.6z"/>
	<path class="st3" d="M491.2,227.6c2.6,0,4.7,2.1,4.7,4.7s-2.1,4.7-4.7,4.7s-4.7-2.1-4.7-4.7C486.4,229.7,488.5,227.6,491.2,227.6
		L491.2,227.6z"/>
	<path class="st3" d="M504.4,404.4H366c-6.6,0-12-5.4-12-12V191.1c0-6.6,5.4-12,12-12h138.4c6.6,0,12,5.4,12,12v201.3
		C516.4,399,511,404.4,504.4,404.4z"/>
</g>
<g id="Pixel_Board_6_">
	<path class="st3" d="M543.5,343.7c2.6,0,4.7,2.1,4.7,4.7s-2.1,4.7-4.7,4.7c-2.6,0-4.7-2.1-4.7-4.7
		C538.7,345.8,540.8,343.7,543.5,343.7L543.5,343.7z"/>
	<path class="st3" d="M653.6,343.7c2.6,0,4.7,2.1,4.7,4.7s-2.1,4.7-4.7,4.7c-2.6,0-4.7-2.1-4.7-4.7
		C648.8,345.8,650.9,343.7,653.6,343.7L653.6,343.7z"/>
	<path class="st3" d="M529.7,187.7c2.6,0,4.7,2.1,4.7,4.7c0,2.6-2.1,4.7-4.7,4.7c-2.6,0-4.7-2.1-4.7-4.7
		C525,189.8,527,187.7,529.7,187.7L529.7,187.7z"/>
	<path class="st3" d="M529.7,386.2c2.6,0,4.7,2.1,4.7,4.7s-2.1,4.7-4.7,4.7c-2.6,0-4.7-2.1-4.7-4.7
		C524.9,388.3,527,386.2,529.7,386.2L529.7,386.2z"/>
	<path class="st3" d="M665.7,187.7c2.6,0,4.7,2.1,4.7,4.7c0,2.6-2.1,4.7-4.7,4.7c-2.6,0-4.7-2.1-4.7-4.7
		C661,189.8,663,187.7,665.7,187.7L665.7,187.7z"/>
	<path class="st3" d="M665.7,385.9c2.6,0,4.7,2.1,4.7,4.7s-2.1,4.7-4.7,4.7c-2.6,0-4.7-2.1-4.7-4.7C660.9,388,663,385.9,665.7,385.9
		L665.7,385.9z"/>
	<g>
		<path class="st0" d="M596.9,323.5c-0.1-0.5-0.2-1.2-0.2-2c0-1,0.2-1.8,0.7-2.3c0.4-0.4,1-0.7,1.7-0.7s1.3,0.2,1.7,0.6
			c0.6,0.6,0.9,1.5,0.9,2.5c0,0.3,0,0.6-0.1,0.8h3.2v1h-7.9V323.5L596.9,323.5z M600.8,322.4c0.1-0.2,0.1-0.5,0.1-0.9
			c0-1.3-0.6-2-1.7-2c-1.1,0-1.6,0.8-1.6,1.9c0,0.5,0,0.8,0.1,1H600.8z"/>
		<path class="st0" d="M596.8,316h8.1v1h-8.1V316z"/>
		<path class="st0" d="M604.9,309.8l-1.8,1c-0.7,0.4-1.1,0.7-1.6,0.9l0,0c0.5,0.2,0.9,0.5,1.6,0.9l1.8,1v1.2l-4.1-2.5l-4,2.4v-1.2
			l1.9-1.1c0.5-0.3,0.9-0.5,1.4-0.7l0,0c-0.5-0.2-0.9-0.4-1.4-0.7l-1.9-1.1v-1.3l3.9,2.5l4.1-2.5L604.9,309.8L604.9,309.8z"/>
		<path class="st0" d="M601.1,303.2v3.1h2.9v-3.5h0.9v4.5h-8.1v-4.4h0.9v3.3h2.6v-3.1L601.1,303.2L601.1,303.2L601.1,303.2z"/>
		<path class="st0" d="M596.8,301.5v-1h7.2V297h0.9v4.5H596.8z"/>
		<path class="st0" d="M596.9,293.3c-0.1-0.5-0.2-1.2-0.2-1.9c0-1,0.2-1.7,0.6-2.2c0.3-0.4,0.8-0.7,1.4-0.7c0.8,0,1.5,0.5,1.8,1.4
			l0,0c0.2-0.8,0.8-1.7,2-1.7c0.7,0,1.2,0.3,1.6,0.7c0.5,0.6,0.8,1.5,0.8,2.8c0,0.7,0,1.3-0.1,1.6L596.9,293.3L596.9,293.3z
			 M600.2,292.2v-0.9c0-1.1-0.6-1.8-1.4-1.8c-0.9,0-1.3,0.7-1.3,1.8c0,0.5,0,0.8,0.1,0.9H600.2z M604.1,292.2c0-0.2,0-0.5,0-0.9
			c0-1.1-0.4-2.1-1.6-2.1c-1.1,0-1.6,0.9-1.6,2.1v0.9H604.1z"/>
		<path class="st0" d="M600.8,279.8c2.8,0,4.3,1.7,4.3,3.8s-1.7,3.6-4.1,3.6c-2.6,0-4.2-1.6-4.2-3.8
			C596.7,281.3,598.4,279.8,600.8,279.8z M600.9,286.1c1.7,0,3.3-0.9,3.3-2.6s-1.5-2.6-3.4-2.6c-1.6,0-3.3,0.8-3.3,2.6
			S599.1,286.1,600.9,286.1z"/>
		<path class="st0" d="M602.4,277.3l2.5,0.8v1.1l-8.1-2.7v-1.3l8.1-2.8v1.1l-2.5,0.9V277.3z M601.5,274.7l-2.3,0.8
			c-0.5,0.2-1,0.3-1.5,0.4l0,0c0.5,0.1,1,0.3,1.5,0.4l2.3,0.8V274.7z"/>
		<path class="st0" d="M596.9,271.3c-0.1-0.5-0.2-1.3-0.2-2c0-1.1,0.2-1.8,0.7-2.3c0.4-0.4,0.9-0.6,1.5-0.6c1.1,0,1.8,0.7,2.1,1.5
			l0,0c0.2-0.6,0.8-1,1.6-1.2c1.1-0.3,1.9-0.5,2.2-0.6v1.1c-0.2,0.1-0.9,0.3-1.9,0.5c-1.1,0.2-1.5,0.7-1.6,1.6v1h3.5v1H596.9z
			 M600.6,270.3v-1.1c0-1.1-0.6-1.8-1.5-1.8c-1,0-1.5,0.8-1.5,1.9c0,0.5,0,0.9,0.1,1H600.6L600.6,270.3z"/>
		<path class="st0" d="M596.9,264.9c-0.1-0.6-0.2-1.4-0.2-2.2c0-1.5,0.3-2.6,1-3.3c0.7-0.7,1.6-1.1,2.9-1.1s2.4,0.4,3.1,1.2
			c0.8,0.8,1.2,2,1.2,3.6c0,0.7,0,1.4-0.1,1.9L596.9,264.9L596.9,264.9z M604.1,263.8c0-0.3,0.1-0.6,0.1-1.1c0-2.2-1.2-3.4-3.4-3.4
			c-1.9,0-3.1,1.1-3.1,3.3c0,0.5,0,0.9,0.1,1.2H604.1z"/>
	</g>
	<g>
		<path class="st0" d="M651.5,292.7h4.8c1.8,0,2.6-0.8,2.6-1.9c0-1.2-0.8-2-2.6-2h-4.8v-1.1h4.7c2.5,0,3.5,1.3,3.5,3.1
			c0,1.7-0.9,2.9-3.5,2.9h-4.8L651.5,292.7L651.5,292.7z"/>
		<path class="st0" d="M658.3,286.2c0.3-0.5,0.5-1.2,0.5-1.9c0-1.1-0.6-1.7-1.4-1.7s-1.2,0.4-1.6,1.5c-0.5,1.3-1.2,2.1-2.3,2.1
			c-1.3,0-2.2-1-2.2-2.6c0-0.8,0.2-1.4,0.4-1.8l0.9,0.3c-0.1,0.3-0.4,0.8-0.4,1.5c0,1.1,0.7,1.5,1.2,1.5c0.8,0,1.1-0.5,1.6-1.6
			c0.5-1.4,1.2-2.1,2.4-2.1c1.2,0,2.3,0.9,2.3,2.8c0,0.8-0.2,1.6-0.5,2.1L658.3,286.2z"/>
		<path class="st0" d="M651.6,280.1c-0.1-0.5-0.2-1.2-0.2-1.9c0-1,0.2-1.7,0.6-2.2c0.3-0.4,0.8-0.7,1.4-0.7c0.8,0,1.5,0.5,1.8,1.4
			l0,0c0.2-0.8,0.8-1.7,2-1.7c0.7,0,1.2,0.3,1.6,0.7c0.5,0.6,0.8,1.5,0.8,2.8c0,0.7,0,1.3-0.1,1.6L651.6,280.1L651.6,280.1z
			 M654.9,279.1v-0.9c0-1.1-0.6-1.8-1.4-1.8c-0.9,0-1.3,0.7-1.3,1.8c0,0.5,0,0.8,0.1,0.9H654.9z M658.8,279.1c0-0.2,0-0.5,0-0.9
			c0-1.1-0.4-2.1-1.6-2.1c-1.1,0-1.6,0.9-1.6,2.1v0.9H658.8z"/>
	</g>
	<path class="st3" d="M543.5,227.6c2.6,0,4.7,2.1,4.7,4.7s-2.1,4.7-4.7,4.7c-2.6,0-4.7-2.1-4.7-4.7
		C538.7,229.7,540.8,227.6,543.5,227.6L543.5,227.6z"/>
	<path class="st3" d="M653.6,227.6c2.6,0,4.7,2.1,4.7,4.7s-2.1,4.7-4.7,4.7c-2.6,0-4.7-2.1-4.7-4.7
		C648.8,229.7,650.9,227.6,653.6,227.6L653.6,227.6z"/>
	<path class="st3" d="M666.8,404.4H528.4c-6.6,0-12-5.4-12-12V191.1c0-6.6,5.4-12,12-12h138.4c6.6,0,12,5.4,12,12v201.3
		C678.8,399,673.4,404.4,666.8,404.4z"/>
</g>
<g id="Pixel_Board_5_">
	<path class="st3" d="M705.9,343.7c2.6,0,4.7,2.1,4.7,4.7s-2.1,4.7-4.7,4.7c-2.6,0-4.7-2.1-4.7-4.7
		C701.1,345.8,703.2,343.7,705.9,343.7L705.9,343.7z"/>
	<path class="st3" d="M816,343.7c2.6,0,4.7,2.1,4.7,4.7s-2.1,4.7-4.7,4.7c-2.6,0-4.7-2.1-4.7-4.7C811.2,345.8,813.3,343.7,816,343.7
		L816,343.7z"/>
	<path class="st3" d="M692.1,187.7c2.6,0,4.7,2.1,4.7,4.7c0,2.6-2.1,4.7-4.7,4.7c-2.6,0-4.7-2.1-4.7-4.7
		C687.4,189.8,689.4,187.7,692.1,187.7L692.1,187.7z"/>
	<path class="st3" d="M692.1,386.2c2.6,0,4.7,2.1,4.7,4.7s-2.1,4.7-4.7,4.7c-2.6,0-4.7-2.1-4.7-4.7
		C687.3,388.3,689.4,386.2,692.1,386.2L692.1,386.2z"/>
	<path class="st3" d="M828.1,187.7c2.6,0,4.7,2.1,4.7,4.7c0,2.6-2.1,4.7-4.7,4.7c-2.6,0-4.7-2.1-4.7-4.7
		C823.4,189.8,825.4,187.7,828.1,187.7L828.1,187.7z"/>
	<path class="st3" d="M828.1,385.9c2.6,0,4.7,2.1,4.7,4.7s-2.1,4.7-4.7,4.7c-2.6,0-4.7-2.1-4.7-4.7
		C823.3,388,825.4,385.9,828.1,385.9L828.1,385.9z"/>
	<g>
		<path class="st0" d="M759.3,323.5c-0.1-0.5-0.2-1.2-0.2-2c0-1,0.2-1.8,0.7-2.3c0.4-0.4,1-0.7,1.7-0.7s1.3,0.2,1.7,0.6
			c0.6,0.6,0.9,1.5,0.9,2.5c0,0.3,0,0.6-0.1,0.8h3.2v1h-7.9L759.3,323.5L759.3,323.5z M763.2,322.4c0.1-0.2,0.1-0.5,0.1-0.9
			c0-1.3-0.6-2-1.7-2c-1.1,0-1.6,0.8-1.6,1.9c0,0.5,0,0.8,0.1,1H763.2z"/>
		<path class="st0" d="M759.2,316h8.1v1h-8.1V316z"/>
		<path class="st0" d="M767.3,309.8l-1.8,1c-0.7,0.4-1.1,0.7-1.6,0.9l0,0c0.5,0.2,0.9,0.5,1.6,0.9l1.8,1v1.2l-4.1-2.5l-4,2.4v-1.2
			l1.9-1.1c0.5-0.3,0.9-0.5,1.4-0.7l0,0c-0.5-0.2-0.9-0.4-1.4-0.7l-1.9-1.1v-1.3l3.9,2.5l4.1-2.5L767.3,309.8L767.3,309.8z"/>
		<path class="st0" d="M763.5,303.2v3.1h2.9v-3.5h0.9v4.5h-8.1v-4.4h0.9v3.3h2.6v-3.1L763.5,303.2L763.5,303.2L763.5,303.2z"/>
		<path class="st0" d="M759.2,301.5v-1h7.2V297h0.9v4.5H759.2z"/>
		<path class="st0" d="M759.3,293.3c-0.1-0.5-0.2-1.2-0.2-1.9c0-1,0.2-1.7,0.6-2.2c0.3-0.4,0.8-0.7,1.4-0.7c0.8,0,1.5,0.5,1.8,1.4
			l0,0c0.2-0.8,0.8-1.7,2-1.7c0.7,0,1.2,0.3,1.6,0.7c0.5,0.6,0.8,1.5,0.8,2.8c0,0.7,0,1.3-0.1,1.6L759.3,293.3L759.3,293.3z
			 M762.6,292.2v-0.9c0-1.1-0.6-1.8-1.4-1.8c-0.9,0-1.3,0.7-1.3,1.8c0,0.5,0,0.8,0.1,0.9H762.6z M766.5,292.2c0-0.2,0-0.5,0-0.9
			c0-1.1-0.4-2.1-1.6-2.1c-1.1,0-1.6,0.9-1.6,2.1v0.9H766.5z"/>
		<path class="st0" d="M763.2,279.8c2.8,0,4.3,1.7,4.3,3.8s-1.7,3.6-4.1,3.6c-2.6,0-4.2-1.6-4.2-3.8
			C759.1,281.3,760.8,279.8,763.2,279.8z M763.3,286.1c1.7,0,3.3-0.9,3.3-2.6s-1.5-2.6-3.4-2.6c-1.6,0-3.3,0.8-3.3,2.6
			S761.5,286.1,763.3,286.1z"/>
		<path class="st0" d="M764.8,277.3l2.5,0.8v1.1l-8.1-2.7v-1.3l8.1-2.8v1.1l-2.5,0.9V277.3z M763.9,274.7l-2.3,0.8
			c-0.5,0.2-1,0.3-1.5,0.4l0,0c0.5,0.1,1,0.3,1.5,0.4l2.3,0.8V274.7z"/>
		<path class="st0" d="M759.3,271.3c-0.1-0.5-0.2-1.3-0.2-2c0-1.1,0.2-1.8,0.7-2.3c0.4-0.4,0.9-0.6,1.5-0.6c1.1,0,1.8,0.7,2.1,1.5
			l0,0c0.2-0.6,0.8-1,1.6-1.2c1.1-0.3,1.9-0.5,2.2-0.6v1.1c-0.2,0.1-0.9,0.3-1.9,0.5c-1.1,0.2-1.5,0.7-1.6,1.6v1h3.5v1H759.3z
			 M763,270.3v-1.1c0-1.1-0.6-1.8-1.5-1.8c-1,0-1.5,0.8-1.5,1.9c0,0.5,0,0.9,0.1,1H763L763,270.3z"/>
		<path class="st0" d="M759.3,264.9c-0.1-0.6-0.2-1.4-0.2-2.2c0-1.5,0.3-2.6,1-3.3c0.7-0.7,1.6-1.1,2.9-1.1s2.4,0.4,3.1,1.2
			c0.8,0.8,1.2,2,1.2,3.6c0,0.7,0,1.4-0.1,1.9L759.3,264.9L759.3,264.9z M766.5,263.8c0-0.3,0.1-0.6,0.1-1.1c0-2.2-1.2-3.4-3.4-3.4
			c-1.9,0-3.1,1.1-3.1,3.3c0,0.5,0,0.9,0.1,1.2H766.5z"/>
	</g>
	<g>
		<path class="st0" d="M813.9,292.7h4.8c1.8,0,2.6-0.8,2.6-1.9c0-1.2-0.8-2-2.6-2h-4.8v-1.1h4.7c2.5,0,3.5,1.3,3.5,3.1
			c0,1.7-0.9,2.9-3.5,2.9h-4.8L813.9,292.7L813.9,292.7z"/>
		<path class="st0" d="M820.7,286.2c0.3-0.5,0.5-1.2,0.5-1.9c0-1.1-0.6-1.7-1.4-1.7s-1.2,0.4-1.6,1.5c-0.5,1.3-1.2,2.1-2.3,2.1
			c-1.3,0-2.2-1-2.2-2.6c0-0.8,0.2-1.4,0.4-1.8l0.9,0.3c-0.1,0.3-0.4,0.8-0.4,1.5c0,1.1,0.7,1.5,1.2,1.5c0.8,0,1.1-0.5,1.6-1.6
			c0.5-1.4,1.2-2.1,2.4-2.1c1.2,0,2.3,0.9,2.3,2.8c0,0.8-0.2,1.6-0.5,2.1L820.7,286.2z"/>
		<path class="st0" d="M814,280.1c-0.1-0.5-0.2-1.2-0.2-1.9c0-1,0.2-1.7,0.6-2.2c0.3-0.4,0.8-0.7,1.4-0.7c0.8,0,1.5,0.5,1.8,1.4l0,0
			c0.2-0.8,0.8-1.7,2-1.7c0.7,0,1.2,0.3,1.6,0.7c0.5,0.6,0.8,1.5,0.8,2.8c0,0.7,0,1.3-0.1,1.6L814,280.1L814,280.1z M817.3,279.1
			v-0.9c0-1.1-0.6-1.8-1.4-1.8c-0.9,0-1.3,0.7-1.3,1.8c0,0.5,0,0.8,0.1,0.9H817.3z M821.2,279.1c0-0.2,0-0.5,0-0.9
			c0-1.1-0.4-2.1-1.6-2.1c-1.1,0-1.6,0.9-1.6,2.1v0.9H821.2z"/>
	</g>
	<path class="st3" d="M705.9,227.6c2.6,0,4.7,2.1,4.7,4.7s-2.1,4.7-4.7,4.7c-2.6,0-4.7-2.1-4.7-4.7
		C701.1,229.7,703.2,227.6,705.9,227.6L705.9,227.6z"/>
	<path class="st3" d="M816,227.6c2.6,0,4.7,2.1,4.7,4.7s-2.1,4.7-4.7,4.7c-2.6,0-4.7-2.1-4.7-4.7C811.2,229.7,813.3,227.6,816,227.6
		L816,227.6z"/>
	<path class="st3" d="M829.2,404.4H690.8c-6.6,0-12-5.4-12-12V191.1c0-6.6,5.4-12,12-12h138.4c6.6,0,12,5.4,12,12v201.3
		C841.2,399,835.8,404.4,829.2,404.4z"/>
</g>
</svg>
