<?xml version="1.0" encoding="utf-8"?>
<!-- Generator: Adobe Illustrator 23.0.4, SVG Export Plug-In . SVG Version: 6.00 Build 0)  -->
<svg version="1.1" xmlns="http://www.w3.org/2000/svg" xmlns:xlink="http://www.w3.org/1999/xlink" x="0px" y="0px"
	 viewBox="0 0 1404 792" style="enable-background:new 0 0 1404 792;" xml:space="preserve">
<style type="text/css">
	.st0{fill:none;stroke:#0000FF;stroke-width:0.1;stroke-linecap:round;stroke-linejoin:round;stroke-miterlimit:10;}
	.st1{fill:none;stroke:#FF0000;stroke-width:0.1;stroke-miterlimit:10;}
	.st2{fill:none;stroke:#0000FF;stroke-width:0.1;stroke-miterlimit:10;}
	.st3{fill:none;stroke:#010101;stroke-width:0.1;stroke-linecap:round;stroke-linejoin:round;stroke-miterlimit:10;}
	.st4{fill:none;stroke:#2BACE2;stroke-width:0.1;stroke-miterlimit:10;}
	.st5{fill:#2BACE2;}
	.st6{fill:none;stroke:#3A53A4;stroke-width:0.1;stroke-miterlimit:10;}
	.st7{fill:none;stroke:#010101;stroke-width:0.1;stroke-miterlimit:22.9256;}
	.st8{display:none;}
	.st9{display:inline;}
	.st10{fill:none;stroke:#000000;stroke-width:0.7087;stroke-linecap:round;stroke-linejoin:round;stroke-miterlimit:10;}
	
		.st11{fill:none;stroke:#00CC00;stroke-width:0.3685;stroke-linecap:round;stroke-linejoin:round;stroke-miterlimit:10;stroke-dasharray:1.08,0.54;}
	
		.st12{fill:none;stroke:#FF0000;stroke-width:0.3685;stroke-linecap:round;stroke-linejoin:round;stroke-miterlimit:10;stroke-dasharray:5.4,1.08,1.08,1.08;}
	
		.st13{fill:none;stroke:#CC9966;stroke-width:0.3685;stroke-linecap:round;stroke-linejoin:round;stroke-miterlimit:10;stroke-dasharray:1.08,0.54;}
	.st14{fill:#FF00FF;}
	.st15{font-family:'MyriadPro-Regular';}
	.st16{font-size:2.4022px;}
	.st17{fill:none;}
</style>
<g id="Layer_1">
	<g>
		<path class="st0" d="M559,330c0,2.1-1.7,3.8-3.8,3.8s-3.8-1.7-3.8-3.8s1.7-3.8,3.8-3.8S559,327.8,559,330L559,330z"/>
		<path class="st0" d="M360.5,330c0,2.1-1.7,3.8-3.8,3.8s-3.8-1.7-3.8-3.8s1.7-3.8,3.8-3.8C358.8,326.1,360.5,327.8,360.5,330
			L360.5,330z"/>
		<path class="st0" d="M559,466c0,2.1-1.7,3.8-3.8,3.8s-3.8-1.7-3.8-3.8s1.7-3.8,3.8-3.8S559,463.8,559,466L559,466z"/>
		<path class="st0" d="M360.8,466c0,2.1-1.7,3.8-3.8,3.8s-3.8-1.7-3.8-3.8s1.7-3.8,3.8-3.8C359.1,462.1,360.8,463.8,360.8,466
			L360.8,466z"/>
		<g>
			<path class="st1" d="M424.1,397.2c0.5-0.1,1.2-0.2,2-0.2c1,0,1.8,0.2,2.3,0.7c0.4,0.4,0.7,1,0.7,1.7s-0.2,1.3-0.6,1.7
				c-0.6,0.6-1.5,0.9-2.5,0.9c-0.3,0-0.6,0-0.8-0.1v3.2h-1v-7.9L424.1,397.2L424.1,397.2z M425.2,401.1c0.2,0.1,0.5,0.1,0.9,0.1
				c1.3,0,2-0.6,2-1.7s-0.8-1.6-1.9-1.6c-0.5,0-0.8,0-1,0.1V401.1z"/>
			<path class="st1" d="M431.6,397.1v8.1h-1v-8.1H431.6z"/>
			<path class="st1" d="M437.8,405.2l-1-1.8c-0.4-0.7-0.7-1.1-0.9-1.6l0,0c-0.2,0.5-0.5,0.9-0.9,1.6l-1,1.8h-1.2l2.5-4.1l-2.4-4h1.2
				l1.1,1.9c0.3,0.5,0.5,0.9,0.7,1.4l0,0c0.2-0.5,0.4-0.9,0.7-1.4l1.1-1.9h1.3l-2.5,3.9l2.5,4.1L437.8,405.2L437.8,405.2z"/>
			<path class="st1" d="M444.4,401.4h-3.1v2.9h3.5v0.9h-4.5v-8.1h4.4v0.9h-3.3v2.6h3.1v0.8L444.4,401.4L444.4,401.4z"/>
			<path class="st1" d="M446.1,397.1h1v7.2h3.5v0.9h-4.5V397.1z"/>
			<path class="st1" d="M454.3,397.2c0.5-0.1,1.2-0.2,1.9-0.2c1,0,1.7,0.2,2.2,0.6c0.4,0.3,0.7,0.8,0.7,1.4c0,0.8-0.5,1.5-1.4,1.8
				l0,0c0.8,0.2,1.7,0.8,1.7,2c0,0.7-0.3,1.2-0.7,1.6c-0.6,0.5-1.5,0.8-2.8,0.8c-0.7,0-1.3,0-1.6-0.1L454.3,397.2L454.3,397.2z
				 M455.4,400.5h0.9c1.1,0,1.8-0.6,1.8-1.4c0-0.9-0.7-1.3-1.8-1.3c-0.5,0-0.8,0-0.9,0.1V400.5z M455.4,404.4c0.2,0,0.5,0,0.9,0
				c1.1,0,2.1-0.4,2.1-1.6c0-1.1-0.9-1.6-2.1-1.6h-0.9V404.4z"/>
			<path class="st1" d="M467.8,401.1c0,2.8-1.7,4.3-3.8,4.3c-2.1,0-3.6-1.7-3.6-4.1c0-2.6,1.6-4.2,3.8-4.2
				C466.3,397,467.8,398.7,467.8,401.1z M461.5,401.2c0,1.7,0.9,3.3,2.6,3.3s2.6-1.5,2.6-3.4c0-1.6-0.8-3.3-2.6-3.3
				S461.5,399.4,461.5,401.2z"/>
			<path class="st1" d="M470.3,402.7l-0.8,2.5h-1.1l2.7-8.1h1.3l2.8,8.1h-1.1l-0.9-2.5H470.3z M472.9,401.8l-0.8-2.3
				c-0.2-0.5-0.3-1-0.4-1.5l0,0c-0.1,0.5-0.3,1-0.4,1.5l-0.8,2.3H472.9z"/>
			<path class="st1" d="M476.3,397.2c0.5-0.1,1.3-0.2,2-0.2c1.1,0,1.8,0.2,2.3,0.7c0.4,0.4,0.6,0.9,0.6,1.5c0,1.1-0.7,1.8-1.5,2.1
				l0,0c0.6,0.2,1,0.8,1.2,1.6c0.3,1.1,0.5,1.9,0.6,2.2h-1.1c-0.1-0.2-0.3-0.9-0.5-1.9c-0.2-1.1-0.7-1.5-1.6-1.6h-1v3.5h-1V397.2z
				 M477.3,400.9h1.1c1.1,0,1.8-0.6,1.8-1.5c0-1-0.8-1.5-1.9-1.5c-0.5,0-0.9,0-1,0.1V400.9z"/>
			<path class="st1" d="M482.7,397.2c0.6-0.1,1.4-0.2,2.2-0.2c1.5,0,2.6,0.3,3.3,1c0.7,0.7,1.1,1.6,1.1,2.9s-0.4,2.4-1.2,3.1
				c-0.8,0.8-2,1.2-3.6,1.2c-0.7,0-1.4,0-1.9-0.1v-7.9H482.7z M483.8,404.4c0.3,0,0.6,0.1,1.1,0.1c2.2,0,3.4-1.2,3.4-3.4
				c0-1.9-1.1-3.1-3.3-3.1c-0.5,0-0.9,0-1.2,0.1V404.4z"/>
		</g>
		<g>
			<path class="st1" d="M454.9,451.8v4.8c0,1.8,0.8,2.6,1.9,2.6c1.2,0,2-0.8,2-2.6v-4.8h1.1v4.7c0,2.5-1.3,3.5-3.1,3.5
				c-1.7,0-2.9-0.9-2.9-3.5v-4.8L454.9,451.8L454.9,451.8z"/>
			<path class="st1" d="M461.4,458.6c0.5,0.3,1.2,0.5,1.9,0.5c1.1,0,1.7-0.6,1.7-1.4c0-0.8-0.4-1.2-1.5-1.6
				c-1.3-0.5-2.1-1.2-2.1-2.3c0-1.3,1-2.2,2.6-2.2c0.8,0,1.4,0.2,1.8,0.4l-0.3,0.9c-0.3-0.1-0.8-0.4-1.5-0.4c-1.1,0-1.5,0.7-1.5,1.2
				c0,0.8,0.5,1.1,1.6,1.6c1.4,0.5,2.1,1.2,2.1,2.4s-0.9,2.3-2.8,2.3c-0.8,0-1.6-0.2-2.1-0.5L461.4,458.6z"/>
			<path class="st1" d="M467.5,451.9c0.5-0.1,1.2-0.2,1.9-0.2c1,0,1.7,0.2,2.2,0.6c0.4,0.3,0.7,0.8,0.7,1.4c0,0.8-0.5,1.5-1.4,1.8
				l0,0c0.8,0.2,1.7,0.8,1.7,2c0,0.7-0.3,1.2-0.7,1.6c-0.6,0.5-1.5,0.8-2.8,0.8c-0.7,0-1.3,0-1.6-0.1L467.5,451.9L467.5,451.9z
				 M468.5,455.2h0.9c1.1,0,1.8-0.6,1.8-1.4c0-0.9-0.7-1.3-1.8-1.3c-0.5,0-0.8,0-0.9,0.1V455.2z M468.5,459.1c0.2,0,0.5,0,0.9,0
				c1.1,0,2.1-0.4,2.1-1.6c0-1.1-0.9-1.6-2.1-1.6h-0.9V459.1z"/>
		</g>
	</g>
	<circle class="st0" cx="642.6" cy="29.4" r="6.1"/>
	<circle class="st0" cx="642.7" cy="500.1" r="6.1"/>
	<circle class="st0" cx="126.8" cy="508.6" r="6.1"/>
	<circle class="st0" cx="126.8" cy="21" r="6.1"/>
	<g id="LWPOLYLINE_3_">
		<path class="st0" d="M353.8,124.6c0-1.7-1.3-3-2.8-3h-62.4c-1.6,0-2.8,1.4-2.8,3v41.9c0,1.7,1.3,3,2.8,3H351c1.6,0,2.8-1.4,2.8-3
			V124.6z"/>
	</g>
	<g id="LWPOLYLINE_1_">
		<path class="st0" d="M585.2,172.7h31.2c1.6,0,2.8-1.4,2.8-3V82.2c0-1.7-1.3-3-2.8-3h-31.2c-1.6,0-2.8,1.4-2.8,3v87.5
			C582.3,171.2,583.6,172.7,585.2,172.7z"/>
	</g>
	<rect x="104.1" y="7" class="st0" width="1141.2" height="515.6"/>
	<g id="LWPOLYLINE_6_">
		<path class="st0" d="M727.3,173.1h31.2c1.6,0,2.8-1.4,2.8-3V82.6c0-1.7-1.3-3-2.8-3h-31.2c-1.6,0-2.8,1.4-2.8,3v87.5
			C724.4,171.6,725.7,173.1,727.3,173.1z"/>
	</g>
	<circle class="st0" cx="698.5" cy="29.5" r="6.1"/>
	<circle class="st0" cx="1214.4" cy="21" r="6.1"/>
	<circle class="st0" cx="1214.4" cy="508.6" r="6.1"/>
	<circle class="st0" cx="698.5" cy="500.1" r="6.1"/>
	<ellipse class="st2" cx="949.3" cy="181.3" rx="9" ry="12.6"/>
	<g>
		<path class="st1" d="M959.8,115.3l5.1,6.1l0,0l1.1-3.9l0.8,0.2l-1.5,5.2l-0.6-0.2l-5-6.1l0,0l-1.3,4.3l-0.8-0.2l1.6-5.7
			L959.8,115.3z"/>
		<path class="st1" d="M957.2,122l5.6,1.6l-0.3,1l-5.6-1.6L957.2,122z M964.1,125.2c-0.3-0.1-0.6-0.4-0.4-0.8
			c0.1-0.4,0.5-0.5,0.8-0.4c0.4,0.1,0.6,0.4,0.5,0.8C964.8,125.1,964.4,125.3,964.1,125.2z"/>
		<path class="st1" d="M960.2,125.8c0.7,0.2,1.3,0.3,1.8,0.5l-0.3,0.9l-1-0.2l0,0c0.6,0.6,0.8,1.4,0.5,2.3c-0.4,1.3-1.8,2-3.5,1.5
			c-2-0.6-2.6-2.1-2.3-3.4c0.2-0.7,0.7-1.3,1.4-1.5l0,0l-3-0.9l0.3-1L960.2,125.8z M958.4,126.4c-0.1,0-0.3-0.1-0.4-0.1
			c-0.8,0-1.4,0.5-1.6,1.2c-0.3,1.1,0.4,1.9,1.7,2.3c1.1,0.3,2.2,0,2.6-1.1c0.2-0.7-0.1-1.5-0.8-1.9c-0.1-0.1-0.3-0.1-0.4-0.2
			L958.4,126.4z"/>
		<path class="st1" d="M960.5,136.7l0.7-2.4l0.9,0.2l-1.7,5.7l-0.9-0.2l0.7-2.4l-6.9-2l0.3-1L960.5,136.7z"/>
		<path class="st1" d="M952.4,138.8l5.6,1.6l-0.3,1l-5.6-1.6L952.4,138.8z M959.2,142c-0.3-0.1-0.6-0.4-0.4-0.8
			c0.1-0.4,0.5-0.5,0.8-0.4c0.4,0.1,0.6,0.4,0.4,0.8C959.9,142,959.5,142.1,959.2,142z"/>
		<path class="st1" d="M954,142.8c-1.4-0.4-2.2,0.3-2.5,1.4c-0.2,0.7-0.2,1.2-0.2,1.6h-0.8c-0.1-0.4-0.1-1.1,0.2-2
			c0.5-1.7,1.9-2.4,3.6-1.9c1.7,0.5,2.7,1.9,2.3,3.5c-0.5,1.8-2.3,1.8-3.3,1.5c-0.2-0.1-0.4-0.1-0.5-0.2L954,142.8z M953.9,146
			c0.6,0.2,1.7,0.2,2.1-0.9c0.3-1-0.5-1.7-1.2-2L953.9,146z"/>
	</g>
	<ellipse class="st2" cx="970.5" cy="81.7" rx="9" ry="12.6"/>
	<ellipse class="st2" cx="429.7" cy="179.7" rx="9" ry="12.6"/>
	<g>
		<path class="st1" d="M440.2,113.7l5.1,6.1l0,0l1.1-3.9l0.8,0.2l-1.5,5.2l-0.6-0.2l-5-6.1l0,0l-1.3,4.3l-0.8-0.2l1.6-5.7
			L440.2,113.7z"/>
		<path class="st1" d="M437.6,120.4l5.6,1.6l-0.3,1l-5.6-1.6L437.6,120.4z M444.5,123.6c-0.3-0.1-0.6-0.4-0.4-0.8
			c0.1-0.4,0.5-0.5,0.8-0.4c0.4,0.1,0.6,0.4,0.5,0.8C445.2,123.5,444.8,123.7,444.5,123.6z"/>
		<path class="st1" d="M440.6,124.2c0.7,0.2,1.3,0.3,1.8,0.5l-0.3,0.9l-1-0.2l0,0c0.6,0.6,0.8,1.4,0.5,2.3c-0.4,1.3-1.8,2-3.5,1.5
			c-2-0.6-2.6-2.1-2.3-3.4c0.2-0.7,0.7-1.3,1.4-1.5l0,0l-3-0.9l0.3-1L440.6,124.2z M438.8,124.8c-0.1,0-0.3-0.1-0.4-0.1
			c-0.8,0-1.4,0.5-1.6,1.2c-0.3,1.1,0.4,1.9,1.7,2.3c1.1,0.3,2.2,0,2.6-1.1c0.2-0.7-0.1-1.5-0.8-1.9c-0.1-0.1-0.3-0.1-0.4-0.2
			L438.8,124.8z"/>
		<path class="st1" d="M440.9,135.1l0.7-2.4l0.9,0.2l-1.7,5.7l-0.9-0.2l0.7-2.4l-6.9-2l0.3-1L440.9,135.1z"/>
		<path class="st1" d="M432.8,137.2l5.6,1.6l-0.3,1l-5.6-1.6L432.8,137.2z M439.6,140.4c-0.3-0.1-0.6-0.4-0.4-0.8
			c0.1-0.4,0.5-0.5,0.8-0.4c0.4,0.1,0.6,0.4,0.4,0.8C440.3,140.4,439.9,140.5,439.6,140.4z"/>
		<path class="st1" d="M434.4,141.2c-1.4-0.4-2.2,0.3-2.5,1.4c-0.2,0.7-0.2,1.2-0.2,1.6h-0.8c-0.1-0.4-0.1-1.1,0.2-2
			c0.5-1.7,1.9-2.4,3.6-1.9c1.7,0.5,2.7,1.9,2.3,3.5c-0.5,1.8-2.3,1.8-3.3,1.5c-0.2-0.1-0.4-0.1-0.5-0.2L434.4,141.2z M434.3,144.4
			c0.6,0.2,1.7,0.2,2.1-0.9c0.3-1-0.5-1.7-1.2-2L434.3,144.4z"/>
	</g>
	<ellipse class="st2" cx="450.9" cy="80.1" rx="9" ry="12.6"/>
	<circle class="st3" cx="124.1" cy="567.7" r="6.1"/>
	<circle class="st3" cx="121.3" cy="610.2" r="4.3"/>
	<circle class="st3" cx="124.1" cy="737.8" r="6.1"/>
	<circle class="st3" cx="617.3" cy="567.7" r="6.1"/>
	<circle class="st3" cx="617.4" cy="737.8" r="6.1"/>
	<circle class="st3" cx="620.2" cy="695.2" r="4.3"/>
	<circle class="st3" cx="404.8" cy="547.8" r="6.1"/>
	<circle class="st3" cx="336.7" cy="757.6" r="6.1"/>
	<g id="LWPOLYLINE_2_">
		<path class="st3" d="M160.6,693h31.2c1.6,0,2.8-1.3,2.8-2.8V608c0-1.6-1.3-2.8-2.8-2.8h-31.2c-1.6,0-2.8,1.3-2.8,2.8v82.2
			C157.7,691.6,159,693,160.6,693z"/>
	</g>
	<g id="LWPOLYLINE_5_">
		<path class="st3" d="M439.2,618.1c0-1.7-1.3-3-2.8-3H374c-1.6,0-2.8,1.4-2.8,3V660c0,1.7,1.3,3,2.8,3h62.4c1.6,0,2.8-1.4,2.8-3
			V618.1z"/>
	</g>
	<circle class="st3" cx="668.1" cy="567.7" r="6.1"/>
	<circle class="st3" cx="665.3" cy="610.2" r="4.3"/>
	<circle class="st3" cx="668.1" cy="737.8" r="6.1"/>
	<circle class="st3" cx="1161.4" cy="737.8" r="6.1"/>
	<circle class="st3" cx="1164.2" cy="695.2" r="4.3"/>
	<circle class="st3" cx="948.8" cy="547.8" r="6.1"/>
	<circle class="st3" cx="880.7" cy="757.6" r="6.1"/>
	<g id="LWPOLYLINE_10_">
		<path class="st3" d="M704.6,693h31.2c1.6,0,2.8-1.3,2.8-2.8V608c0-1.6-1.3-2.8-2.8-2.8h-31.2c-1.6,0-2.8,1.3-2.8,2.8v82.2
			C701.7,691.6,703,693,704.6,693z"/>
	</g>
	<g id="LWPOLYLINE_9_">
		<path class="st3" d="M983.2,618.1c0-1.7-1.3-3-2.8-3H918c-1.6,0-2.8,1.4-2.8,3V660c0,1.7,1.3,3,2.8,3h62.4c1.6,0,2.8-1.4,2.8-3
			V618.1z"/>
	</g>
	<g>
		<g>
			<line class="st4" x1="867.9" y1="614" x2="867.9" y2="694.8"/>
			<g>
				<path class="st5" d="M871.4,614.6c-1.5-0.9-2.6-2.2-3.5-3.7c-0.9,1.5-2.1,2.8-3.5,3.7v0.9c1.4-0.9,2.6-2,3.5-3.4
					c0.9,1.4,2.2,2.5,3.5,3.4V614.6z"/>
				<path class="st5" d="M871.4,616.6c-1.5-0.9-2.6-2.2-3.5-3.7c-0.9,1.5-2.1,2.8-3.5,3.7v0.9c1.4-0.9,2.6-2,3.5-3.4
					c0.9,1.4,2.2,2.5,3.5,3.4V616.6z"/>
			</g>
		</g>
	</g>
	<g>
		<path class="st5" d="M763.2,739.3c-0.1-1.1-0.1-2.5-0.1-3.5l0,0c-0.3,0.9-0.6,2-1,3.1l-1.4,3.9h-0.8l-1.3-3.8
			c-0.4-1.1-0.7-2.2-0.9-3.1l0,0c0,1-0.1,2.4-0.2,3.6l-0.2,3.5h-1l0.6-8.1h1.3l1.4,3.9c0.3,1,0.6,1.9,0.8,2.7l0,0
			c0.2-0.8,0.5-1.7,0.9-2.7l1.4-3.9h1.3l0.5,8.1h-1L763.2,739.3z"/>
		<path class="st5" d="M771.3,739.9c0,2.1-1.5,3.1-2.9,3.1c-1.6,0-2.8-1.2-2.8-3c0-1.9,1.3-3.1,2.9-3.1
			C770.2,736.9,771.3,738,771.3,739.9z M766.7,740c0,1.3,0.7,2.2,1.8,2.2c1,0,1.8-0.9,1.8-2.3c0-1-0.5-2.2-1.7-2.2
			C767.3,737.7,766.7,738.9,766.7,740z"/>
		<path class="st5" d="M777.5,741.3c0,0.6,0,1.1,0,1.6h-0.9l-0.1-0.9l0,0c-0.3,0.5-0.9,1.1-1.9,1.1c-0.9,0-2-0.5-2-2.5v-3.4h1.1v3.2
			c0,1.1,0.3,1.8,1.3,1.8c0.7,0,1.2-0.5,1.4-1c0.1-0.2,0.1-0.3,0.1-0.5v-3.6h1.1L777.5,741.3L777.5,741.3L777.5,741.3z"/>
		<path class="st5" d="M779.3,738.5c0-0.6,0-1.1,0-1.6h0.9l0.1,1l0,0c0.3-0.6,1-1.1,1.9-1.1c0.8,0,2.1,0.5,2.1,2.5v3.5h-1.1v-3.3
			c0-0.9-0.3-1.7-1.3-1.7c-0.7,0-1.2,0.5-1.4,1.1c0,0.1-0.1,0.3-0.1,0.5v3.5h-1.1L779.3,738.5L779.3,738.5z"/>
		<path class="st5" d="M787.2,735.4v1.7h1.5v0.8h-1.5v3.1c0,0.7,0.2,1.1,0.8,1.1c0.3,0,0.5,0,0.6-0.1v0.8c-0.2,0.1-0.5,0.1-0.9,0.1
			c-0.5,0-0.9-0.2-1.1-0.4c-0.3-0.3-0.4-0.8-0.4-1.5v-3.2h-0.9V737h0.9v-1.4L787.2,735.4z"/>
		<path class="st5" d="M792.4,734.8h1v7.2h3.5v0.9h-4.5V734.8z"/>
		<path class="st5" d="M802.3,739h-3.1v2.9h3.5v0.9h-4.6v-8.1h4.4v0.9h-3.3v2.6h3.1L802.3,739L802.3,739z"/>
		<path class="st5" d="M804,734.9c0.6-0.1,1.4-0.2,2.2-0.2c1.5,0,2.6,0.3,3.3,1s1.1,1.6,1.1,2.9s-0.4,2.4-1.2,3.1
			c-0.8,0.8-2,1.2-3.6,1.2c-0.7,0-1.4,0-1.9-0.1L804,734.9L804,734.9z M805.1,742c0.3,0,0.6,0.1,1.1,0.1c2.2,0,3.4-1.2,3.4-3.4
			c0-1.9-1.1-3.1-3.3-3.1c-0.5,0-0.9,0-1.2,0.1V742z"/>
		<path class="st5" d="M814.5,734.9c0.5-0.1,1.2-0.2,2-0.2c1,0,1.8,0.2,2.3,0.7c0.4,0.4,0.7,1,0.7,1.7s-0.2,1.3-0.6,1.7
			c-0.6,0.6-1.5,0.9-2.5,0.9c-0.3,0-0.6,0-0.8-0.1v3.2h-1L814.5,734.9L814.5,734.9L814.5,734.9z M815.6,738.8
			c0.2,0.1,0.5,0.1,0.9,0.1c1.3,0,2-0.6,2-1.7c0-1.1-0.8-1.6-1.9-1.6c-0.5,0-0.8,0-1,0.1V738.8z"/>
		<path class="st5" d="M823.8,742.9l-0.1-0.7l0,0c-0.3,0.5-0.9,0.9-1.8,0.9c-1.2,0-1.8-0.8-1.8-1.7c0-1.4,1.2-2.2,3.5-2.2v-0.1
			c0-0.5-0.1-1.3-1.3-1.3c-0.5,0-1.1,0.2-1.5,0.4l-0.2-0.7c0.5-0.3,1.2-0.5,1.9-0.5c1.8,0,2.2,1.2,2.2,2.4v2.2c0,0.5,0,1,0.1,1.4
			L823.8,742.9L823.8,742.9z M823.6,739.9c-1.2,0-2.5,0.2-2.5,1.3c0,0.7,0.5,1,1,1c0.8,0,1.2-0.5,1.4-1c0-0.1,0.1-0.2,0.1-0.3V739.9
			z"/>
		<path class="st5" d="M826.4,738.5c0-0.6,0-1.1,0-1.6h0.9l0.1,1l0,0c0.3-0.6,1-1.1,1.9-1.1c0.8,0,2.1,0.5,2.1,2.5v3.5h-1.1v-3.3
			c0-0.9-0.3-1.7-1.3-1.7c-0.7,0-1.2,0.5-1.4,1.1c0,0.1-0.1,0.3-0.1,0.5v3.5h-1.1L826.4,738.5L826.4,738.5z"/>
		<path class="st5" d="M833.6,740.2c0,1.4,0.9,2,2,2c0.8,0,1.2-0.1,1.6-0.3l0.2,0.8c-0.4,0.2-1,0.4-1.9,0.4c-1.8,0-2.9-1.2-2.9-2.9
			c0-1.7,1-3.1,2.7-3.1c1.9,0,2.4,1.7,2.4,2.7c0,0.2,0,0.4,0,0.5L833.6,740.2L833.6,740.2L833.6,740.2z M836.7,739.4
			c0-0.7-0.3-1.7-1.5-1.7c-1.1,0-1.5,1-1.6,1.7H836.7z"/>
		<path class="st5" d="M839,734.3h1.1v8.5H839V734.3z"/>
		<path class="st5" d="M851.3,739.3c-0.1-1.1-0.1-2.5-0.1-3.5l0,0c-0.3,0.9-0.6,2-1,3.1l-1.4,3.9H848l-1.3-3.8
			c-0.4-1.1-0.7-2.2-0.9-3.1l0,0c0,1-0.1,2.4-0.2,3.6l-0.2,3.5h-1l0.6-8.1h1.3l1.4,3.9c0.3,1,0.6,1.9,0.8,2.7l0,0
			c0.2-0.8,0.5-1.7,0.9-2.7l1.4-3.9h1.3l0.5,8.1h-1L851.3,739.3z"/>
		<path class="st5" d="M857.3,742.9l-0.1-0.7l0,0c-0.3,0.5-0.9,0.9-1.8,0.9c-1.2,0-1.8-0.8-1.8-1.7c0-1.4,1.2-2.2,3.5-2.2v-0.1
			c0-0.5-0.1-1.3-1.3-1.3c-0.5,0-1.1,0.2-1.5,0.4l-0.2-0.7c0.5-0.3,1.2-0.5,1.9-0.5c1.8,0,2.2,1.2,2.2,2.4v2.2c0,0.5,0,1,0.1,1.4
			L857.3,742.9L857.3,742.9z M857.2,739.9c-1.2,0-2.5,0.2-2.5,1.3c0,0.7,0.5,1,1,1c0.8,0,1.2-0.5,1.4-1c0-0.1,0.1-0.2,0.1-0.3V739.9
			z"/>
		<path class="st5" d="M861.1,735.4v1.7h1.5v0.8h-1.5v3.1c0,0.7,0.2,1.1,0.8,1.1c0.3,0,0.5,0,0.6-0.1v0.8c-0.2,0.1-0.5,0.1-0.9,0.1
			c-0.5,0-0.9-0.2-1.1-0.4c-0.3-0.3-0.4-0.8-0.4-1.5v-3.2h-0.9V737h0.9v-1.4L861.1,735.4z"/>
		<path class="st5" d="M863.8,738.9c0-0.7,0-1.3,0-1.8h0.9v1.1l0,0c0.3-0.8,0.9-1.3,1.6-1.3c0.1,0,0.2,0,0.3,0v1c-0.1,0-0.2,0-0.4,0
			c-0.7,0-1.3,0.6-1.4,1.4c0,0.1,0,0.3,0,0.5v3.1h-1L863.8,738.9L863.8,738.9z"/>
		<path class="st5" d="M869,735.4c0,0.4-0.3,0.6-0.7,0.6s-0.6-0.3-0.6-0.6c0-0.4,0.3-0.7,0.7-0.7C868.7,734.8,869,735,869,735.4z
			 M867.8,742.9v-5.8h1.1v5.8H867.8z"/>
		<path class="st5" d="M871.1,737l0.8,1.2c0.2,0.3,0.4,0.6,0.6,0.9l0,0c0.2-0.3,0.4-0.6,0.6-1l0.8-1.2h1.1l-2,2.8l2,3h-1.2l-0.9-1.3
			c-0.2-0.3-0.4-0.7-0.6-1l0,0c-0.2,0.3-0.4,0.7-0.6,1l-0.8,1.3h-1.2l2.1-3l-2-2.8h1.3L871.1,737L871.1,737z"/>
		<path class="st5" d="M884,739.9c0,2.1-1.5,3.1-2.9,3.1c-1.6,0-2.8-1.2-2.8-3c0-1.9,1.3-3.1,2.9-3.1S884,738,884,739.9z M879.4,740
			c0,1.3,0.7,2.2,1.8,2.2c1,0,1.8-0.9,1.8-2.3c0-1-0.5-2.2-1.7-2.2C879.9,737.7,879.4,738.9,879.4,740z"/>
		<path class="st5" d="M885.3,738.5c0-0.6,0-1.1,0-1.6h0.9l0.1,1l0,0c0.3-0.6,1-1.1,1.9-1.1c0.8,0,2.1,0.5,2.1,2.5v3.5h-1.1v-3.3
			c0-0.9-0.3-1.7-1.3-1.7c-0.7,0-1.2,0.5-1.4,1.1c0,0.1-0.1,0.3-0.1,0.5v3.5h-1.1L885.3,738.5L885.3,738.5z"/>
		<path class="st5" d="M901.5,738.7c0,2.8-1.7,4.3-3.8,4.3s-3.6-1.7-3.6-4.1c0-2.6,1.6-4.2,3.8-4.2
			C900,734.5,901.5,736.3,901.5,738.7z M895.2,738.9c0,1.7,0.9,3.3,2.6,3.3s2.6-1.5,2.6-3.4c0-1.6-0.8-3.3-2.6-3.3
			S895.2,737,895.2,738.9z"/>
		<path class="st5" d="M904.3,735.4v1.7h1.5v0.8h-1.5v3.1c0,0.7,0.2,1.1,0.8,1.1c0.3,0,0.5,0,0.6-0.1v0.8c-0.2,0.1-0.5,0.1-0.9,0.1
			c-0.5,0-0.9-0.2-1.1-0.4c-0.3-0.3-0.4-0.8-0.4-1.5v-3.2h-0.9V737h0.9v-1.4L904.3,735.4z"/>
		<path class="st5" d="M907,734.3h1.1v3.6l0,0c0.2-0.3,0.4-0.6,0.8-0.7c0.3-0.2,0.7-0.3,1.1-0.3c0.8,0,2,0.5,2,2.5v3.5h-1.1v-3.3
			c0-0.9-0.3-1.7-1.3-1.7c-0.7,0-1.2,0.5-1.4,1.1c-0.1,0.1-0.1,0.3-0.1,0.5v3.5H907L907,734.3L907,734.3z"/>
		<path class="st5" d="M914.2,740.2c0,1.4,0.9,2,2,2c0.8,0,1.2-0.1,1.6-0.3l0.2,0.8c-0.4,0.2-1,0.4-1.9,0.4c-1.8,0-2.9-1.2-2.9-2.9
			c0-1.7,1-3.1,2.7-3.1c1.9,0,2.4,1.7,2.4,2.7c0,0.2,0,0.4,0,0.5L914.2,740.2L914.2,740.2L914.2,740.2z M917.3,739.4
			c0-0.7-0.3-1.7-1.5-1.7c-1.1,0-1.5,1-1.6,1.7H917.3z"/>
		<path class="st5" d="M919.6,738.9c0-0.7,0-1.3,0-1.8h0.9v1.1l0,0c0.3-0.8,0.9-1.3,1.6-1.3c0.1,0,0.2,0,0.3,0v1c-0.1,0-0.2,0-0.4,0
			c-0.7,0-1.3,0.6-1.4,1.4c0,0.1,0,0.3,0,0.5v3.1h-1L919.6,738.9L919.6,738.9z"/>
		<path class="st5" d="M926,741.5c0.5,0.3,1.2,0.5,1.9,0.5c1.1,0,1.7-0.6,1.7-1.4s-0.4-1.2-1.5-1.6c-1.3-0.5-2.1-1.2-2.1-2.3
			c0-1.3,1-2.2,2.6-2.2c0.8,0,1.4,0.2,1.8,0.4l-0.3,0.9c-0.3-0.1-0.8-0.4-1.5-0.4c-1.1,0-1.5,0.7-1.5,1.2c0,0.8,0.5,1.1,1.6,1.6
			c1.4,0.5,2.1,1.2,2.1,2.4c0,1.2-0.9,2.3-2.8,2.3c-0.8,0-1.6-0.2-2.1-0.5L926,741.5z"/>
		<path class="st5" d="M933.2,735.4c0,0.4-0.3,0.6-0.7,0.6s-0.6-0.3-0.6-0.6c0-0.4,0.3-0.7,0.7-0.7
			C932.9,734.8,933.2,735,933.2,735.4z M932,742.9v-5.8h1.1v5.8H932z"/>
		<path class="st5" d="M939.8,734.3v7c0,0.5,0,1.1,0,1.5h-0.9v-1l0,0c-0.3,0.6-1,1.1-2,1.1c-1.4,0-2.5-1.2-2.5-3
			c0-1.9,1.2-3.1,2.6-3.1c0.9,0,1.5,0.4,1.8,0.9l0,0v-3.5L939.8,734.3L939.8,734.3L939.8,734.3z M938.8,739.4c0-0.1,0-0.3,0-0.4
			c-0.2-0.7-0.7-1.2-1.5-1.2c-1.1,0-1.7,1-1.7,2.2s0.6,2.1,1.7,2.1c0.7,0,1.4-0.5,1.5-1.3c0-0.1,0-0.3,0-0.5V739.4z"/>
		<path class="st5" d="M942.2,740.2c0,1.4,0.9,2,2,2c0.8,0,1.2-0.1,1.6-0.3l0.2,0.8c-0.4,0.2-1,0.4-1.9,0.4c-1.8,0-2.9-1.2-2.9-2.9
			c0-1.7,1-3.1,2.7-3.1c1.9,0,2.4,1.7,2.4,2.7c0,0.2,0,0.4,0,0.5L942.2,740.2L942.2,740.2L942.2,740.2z M945.3,739.4
			c0-0.7-0.3-1.7-1.5-1.7c-1.1,0-1.5,1-1.6,1.7H945.3z"/>
	</g>
	<g>
		<path class="st5" d="M842.4,594.7c0.5-0.1,1.2-0.2,2-0.2c1,0,1.8,0.2,2.3,0.7c0.4,0.4,0.7,1,0.7,1.7s-0.2,1.3-0.6,1.7
			c-0.6,0.6-1.5,0.9-2.5,0.9c-0.3,0-0.6,0-0.8-0.1v3.2h-1L842.4,594.7L842.4,594.7L842.4,594.7z M843.4,598.6
			c0.2,0.1,0.5,0.1,0.9,0.1c1.3,0,2-0.6,2-1.7c0-1.1-0.8-1.6-1.9-1.6c-0.5,0-0.8,0-1,0.1V598.6z"/>
		<path class="st5" d="M851.7,602.7l-0.1-0.7l0,0c-0.3,0.5-0.9,0.9-1.8,0.9c-1.2,0-1.8-0.8-1.8-1.7c0-1.4,1.2-2.2,3.5-2.2v-0.1
			c0-0.5-0.1-1.3-1.3-1.3c-0.5,0-1.1,0.2-1.5,0.4l-0.2-0.7c0.5-0.3,1.2-0.5,1.9-0.5c1.8,0,2.2,1.2,2.2,2.4v2.2c0,0.5,0,1,0.1,1.4
			L851.7,602.7L851.7,602.7z M851.4,599.8c-1.2,0-2.5,0.2-2.5,1.3c0,0.7,0.5,1,1,1c0.8,0,1.2-0.5,1.4-1c0-0.1,0.1-0.2,0.1-0.3V599.8
			z"/>
		<path class="st5" d="M854.1,598.5c0-0.6,0-1.1,0-1.6h0.9l0.1,1l0,0c0.3-0.6,1-1.1,1.9-1.1c0.8,0,2.1,0.5,2.1,2.5v3.5H858v-3.3
			c0-0.9-0.3-1.7-1.3-1.7c-0.7,0-1.2,0.5-1.4,1.1c0,0.1-0.1,0.3-0.1,0.5v3.5h-1.1L854.1,598.5L854.1,598.5z"/>
		<path class="st5" d="M861.4,600c0,1.4,0.9,2,2,2c0.8,0,1.2-0.1,1.6-0.3l0.2,0.8c-0.4,0.2-1,0.4-1.9,0.4c-1.8,0-2.9-1.2-2.9-2.9
			c0-1.7,1-3.1,2.7-3.1c1.9,0,2.4,1.7,2.4,2.7c0,0.2,0,0.4,0,0.5L861.4,600L861.4,600L861.4,600z M864.6,599.3
			c0-0.7-0.3-1.7-1.5-1.7c-1.1,0-1.5,1-1.6,1.7H864.6z"/>
		<path class="st5" d="M866.9,594.2h1.1v8.5h-1.1V594.2z"/>
		<path class="st5" d="M873.4,594.6v4.8c0,1.8,0.8,2.6,1.9,2.6c1.2,0,2-0.8,2-2.6v-4.8h1.1v4.7c0,2.5-1.3,3.5-3.1,3.5
			c-1.7,0-2.9-0.9-2.9-3.5v-4.7H873.4z"/>
		<path class="st5" d="M879.9,598.8c0-0.7,0-1.3,0-1.9h0.9v1l0,0c0.4-0.7,1.1-1.1,2.1-1.1c1.4,0,2.5,1.2,2.5,3
			c0,2.1-1.3,3.1-2.6,3.1c-0.8,0-1.4-0.3-1.8-0.9l0,0v3.2h-1L879.9,598.8L879.9,598.8L879.9,598.8z M881.1,600.3c0,0.2,0,0.3,0,0.4
			c0.2,0.7,0.8,1.2,1.6,1.2c1.1,0,1.8-0.9,1.8-2.2c0-1.2-0.6-2.2-1.7-2.2c-0.7,0-1.4,0.5-1.6,1.3c0,0.1-0.1,0.3-0.1,0.4V600.3
			L881.1,600.3z"/>
	</g>
	<g>
		<line class="st6" x1="997.5" y1="736.6" x2="997.5" y2="545.8"/>
		<path class="st5" d="M1101.7,614.5v4.8c0,1.8,0.8,2.6,1.9,2.6c1.2,0,2-0.8,2-2.6v-4.8h1.1v4.7c0,2.5-1.3,3.5-3.1,3.5
			c-1.7,0-2.9-0.9-2.9-3.5v-4.7H1101.7L1101.7,614.5z"/>
		<path class="st5" d="M1108.3,621.4c0.5,0.3,1.2,0.5,1.9,0.5c1.1,0,1.7-0.6,1.7-1.4s-0.4-1.2-1.5-1.6c-1.3-0.5-2.1-1.2-2.1-2.3
			c0-1.3,1-2.2,2.6-2.2c0.8,0,1.4,0.2,1.8,0.4l-0.3,0.9c-0.3-0.1-0.8-0.4-1.5-0.4c-1.1,0-1.5,0.7-1.5,1.2c0,0.8,0.5,1.1,1.6,1.6
			c1.4,0.5,2.1,1.2,2.1,2.4c0,1.2-0.9,2.3-2.8,2.3c-0.8,0-1.6-0.2-2.1-0.5L1108.3,621.4z"/>
		<path class="st5" d="M1114.4,614.6c0.5-0.1,1.2-0.2,1.9-0.2c1,0,1.7,0.2,2.2,0.6c0.4,0.3,0.7,0.8,0.7,1.4c0,0.8-0.5,1.5-1.4,1.8
			l0,0c0.8,0.2,1.7,0.8,1.7,2c0,0.7-0.3,1.2-0.7,1.6c-0.6,0.5-1.5,0.8-2.8,0.8c-0.7,0-1.3,0-1.6-0.1L1114.4,614.6L1114.4,614.6z
			 M1115.4,618h0.9c1.1,0,1.8-0.6,1.8-1.4c0-0.9-0.7-1.3-1.8-1.3c-0.5,0-0.8,0-0.9,0.1V618z M1115.4,621.9c0.2,0,0.5,0,0.9,0
			c1.1,0,2.1-0.4,2.1-1.6c0-1.1-0.9-1.6-2.1-1.6h-0.9V621.9z"/>
		<g>
			<path class="st5" d="M1067.2,694.4c-1.1,0.1-2.5,0.1-3.5,0.1l0,0c0.9,0.3,2,0.6,3.1,1l3.9,1.4v0.9l-3.8,1.3
				c-1.1,0.4-2.2,0.7-3.1,0.9l0,0c1,0,2.4,0.1,3.6,0.2l3.5,0.2v1l-8.1-0.6v-1.3l3.9-1.4c1-0.3,1.9-0.6,2.7-0.8l0,0
				c-0.8-0.2-1.7-0.5-2.7-0.9l-3.9-1.4v-1.3l8.1-0.5v1L1067.2,694.4z"/>
			<path class="st5" d="M1067.8,686.3c2.1,0,3.1,1.5,3.1,2.9c0,1.6-1.2,2.8-3,2.8c-1.9,0-3.1-1.3-3.1-2.9
				C1064.8,687.4,1066,686.3,1067.8,686.3z M1067.8,690.9c1.3,0,2.2-0.7,2.2-1.8c0-1-0.9-1.8-2.3-1.8c-1,0-2.2,0.5-2.2,1.7
				C1065.7,690.4,1066.7,690.9,1067.8,690.9z"/>
			<path class="st5" d="M1069.2,680.1c0.6,0,1.1,0,1.6,0v0.9l-0.9,0.1l0,0c0.5,0.3,1.1,0.9,1.1,1.9c0,0.9-0.5,2-2.5,2h-3.4v-1.1h3.2
				c1.1,0,1.8-0.3,1.8-1.3c0-0.7-0.5-1.2-1-1.4c-0.2-0.1-0.3-0.1-0.5-0.1h-3.6V680L1069.2,680.1L1069.2,680.1L1069.2,680.1z"/>
			<path class="st5" d="M1066.5,678.4c-0.6,0-1.1,0-1.6,0v-0.9l1-0.1l0,0c-0.6-0.3-1.1-1-1.1-1.9c0-0.8,0.5-2.1,2.5-2.1h3.5v1.1
				h-3.3c-0.9,0-1.7,0.3-1.7,1.3c0,0.7,0.5,1.2,1.1,1.4c0.1,0,0.3,0.1,0.5,0.1h3.5v1.1H1066.5L1066.5,678.4z"/>
			<path class="st5" d="M1063.2,670.5h1.7V669h0.8v1.5h3.1c0.7,0,1.1-0.2,1.1-0.8c0-0.3,0-0.5-0.1-0.6h0.8c0.1,0.2,0.1,0.5,0.1,0.9
				c0,0.5-0.2,0.9-0.4,1.1c-0.3,0.3-0.8,0.4-1.5,0.4h-3.2v0.9h-0.8v-0.9h-1.4L1063.2,670.5z"/>
			<path class="st5" d="M1062.7,665.2c-0.1-0.5-0.2-1.2-0.2-2c0-1,0.2-1.8,0.7-2.3c0.4-0.4,1-0.7,1.7-0.7s1.3,0.2,1.7,0.6
				c0.6,0.6,0.9,1.5,0.9,2.5c0,0.3,0,0.6-0.1,0.8h3.2v1L1062.7,665.2L1062.7,665.2L1062.7,665.2z M1066.7,664.1
				c0.1-0.2,0.1-0.5,0.1-0.9c0-1.3-0.6-2-1.7-2s-1.6,0.8-1.6,1.9c0,0.5,0,0.8,0.1,1H1066.7z"/>
			<path class="st5" d="M1062.7,657.8h8.1v1h-8.1V657.8z"/>
			<path class="st5" d="M1070.7,651.5l-1.8,1c-0.7,0.4-1.1,0.7-1.6,0.9l0,0c0.5,0.2,0.9,0.5,1.6,0.9l1.8,1v1.2l-4.1-2.5l-4,2.4v-1.2
				l1.9-1.1c0.5-0.3,0.9-0.5,1.4-0.7l0,0c-0.5-0.2-0.9-0.4-1.4-0.7l-1.9-1.1v-1.2l3.9,2.5l4.1-2.5L1070.7,651.5L1070.7,651.5z"/>
			<path class="st5" d="M1067,644.9v3.1h2.9v-3.5h0.9v4.5h-8.1v-4.4h0.9v3.3h2.6v-3.1L1067,644.9L1067,644.9L1067,644.9z"/>
			<path class="st5" d="M1062.7,643.2v-1h7.2v-3.5h0.9v4.5H1062.7z"/>
			<path class="st5" d="M1062.7,635c-0.1-0.5-0.2-1.2-0.2-1.9c0-1,0.2-1.7,0.6-2.2c0.3-0.4,0.8-0.7,1.4-0.7c0.8,0,1.5,0.5,1.8,1.4
				l0,0c0.2-0.8,0.8-1.7,2-1.7c0.7,0,1.2,0.3,1.6,0.7c0.5,0.6,0.8,1.5,0.8,2.8c0,0.7,0,1.3-0.1,1.6L1062.7,635L1062.7,635z
				 M1066.2,633.9V633c0-1.1-0.6-1.8-1.4-1.8c-0.9,0-1.3,0.7-1.3,1.8c0,0.5,0,0.8,0.1,0.9H1066.2z M1070,633.9c0-0.2,0-0.5,0-0.9
				c0-1.1-0.4-2.1-1.6-2.1c-1.1,0-1.6,0.9-1.6,2.1v0.9H1070z"/>
			<path class="st5" d="M1067.8,623.2c2.1,0,3.1,1.5,3.1,2.9c0,1.6-1.2,2.8-3,2.8c-1.9,0-3.1-1.3-3.1-2.9
				C1064.8,624.3,1066,623.2,1067.8,623.2z M1067.8,627.8c1.3,0,2.2-0.7,2.2-1.8c0-1-0.9-1.8-2.3-1.8c-1,0-2.2,0.5-2.2,1.7
				C1065.7,627.3,1066.7,627.8,1067.8,627.8z"/>
			<path class="st5" d="M1070.7,618.7l-0.7,0.1l0,0c0.5,0.3,0.9,0.9,0.9,1.8c0,1.2-0.8,1.8-1.7,1.8c-1.4,0-2.2-1.2-2.2-3.5h-0.1
				c-0.5,0-1.3,0.1-1.3,1.3c0,0.5,0.2,1.1,0.4,1.5l-0.7,0.2c-0.3-0.5-0.5-1.2-0.5-1.9c0-1.8,1.2-2.2,2.4-2.2h2.2c0.5,0,1,0,1.4-0.1
				L1070.7,618.7L1070.7,618.7L1070.7,618.7z M1067.8,618.8c0,1.2,0.2,2.5,1.3,2.5c0.7,0,1-0.5,1-1c0-0.8-0.5-1.2-1-1.4
				c-0.1,0-0.2-0.1-0.3-0.1H1067.8z"/>
			<path class="st5" d="M1066.7,616.1c-0.7,0-1.3,0-1.8,0v-0.9h1.1l0,0c-0.8-0.3-1.3-0.9-1.3-1.6c0-0.1,0-0.2,0-0.3h1
				c0,0.1,0,0.2,0,0.4c0,0.7,0.6,1.3,1.4,1.4c0.1,0,0.3,0,0.5,0h3.1v1H1066.7L1066.7,616.1z"/>
			<path class="st5" d="M1062.2,607.3h7c0.5,0,1.1,0,1.5,0v0.9h-1l0,0c0.6,0.3,1.1,1,1.1,2c0,1.4-1.2,2.5-3,2.5
				c-1.9,0-3.1-1.2-3.1-2.6c0-0.9,0.4-1.5,0.9-1.8l0,0h-3.4V607.3z M1067.3,608.3c-0.1,0-0.3,0-0.4,0c-0.7,0.2-1.2,0.7-1.2,1.5
				c0,1.1,1,1.7,2.2,1.7s2.1-0.6,2.1-1.7c0-0.7-0.5-1.4-1.3-1.5c-0.1,0-0.3,0-0.5,0H1067.3z"/>
			<path class="st5" d="M1062.7,601.9h3.4V598h-3.4v-1.1h8.1v1.1h-3.8v3.9h3.8v1h-8.1V601.9z"/>
			<path class="st5" d="M1068,594.6c1.4,0,2-0.9,2-2c0-0.8-0.1-1.2-0.3-1.6l0.8-0.2c0.2,0.4,0.4,1,0.4,1.9c0,1.8-1.2,2.9-2.9,2.9
				c-1.7,0-3.1-1-3.1-2.7c0-1.9,1.7-2.4,2.7-2.4c0.2,0,0.4,0,0.5,0L1068,594.6L1068,594.6L1068,594.6z M1067.3,591.5
				c-0.7,0-1.7,0.3-1.7,1.5c0,1.1,1,1.5,1.7,1.6V591.5z"/>
			<path class="st5" d="M1066.7,589.1c-0.7,0-1.3,0-1.8,0v-0.9h1.1l0,0c-0.8-0.3-1.3-0.9-1.3-1.6c0-0.1,0-0.2,0-0.3h1
				c0,0.1,0,0.2,0,0.4c0,0.7,0.6,1.3,1.4,1.4c0.1,0,0.3,0,0.5,0h3.1v1H1066.7L1066.7,589.1z"/>
			<path class="st5" d="M1068,584.7c1.4,0,2-0.9,2-2c0-0.8-0.1-1.2-0.3-1.6l0.8-0.2c0.2,0.4,0.4,1,0.4,1.9c0,1.8-1.2,2.9-2.9,2.9
				c-1.7,0-3.1-1-3.1-2.7c0-1.9,1.7-2.4,2.7-2.4c0.2,0,0.4,0,0.5,0L1068,584.7L1068,584.7L1068,584.7z M1067.3,581.6
				c-0.7,0-1.7,0.3-1.7,1.5c0,1.1,1,1.5,1.7,1.6V581.6z"/>
		</g>
		<path class="st3" d="M997.5,538.1c2.1,0,3.8,1.7,3.8,3.8c0,2.1-1.7,3.8-3.8,3.8s-3.8-1.7-3.8-3.8
			C993.7,539.8,995.3,538.1,997.5,538.1L997.5,538.1z"/>
		<path class="st3" d="M997.5,736.6c2.1,0,3.8,1.7,3.8,3.8s-1.7,3.8-3.8,3.8s-3.8-1.7-3.8-3.8C993.6,738.3,995.3,736.6,997.5,736.6
			L997.5,736.6z"/>
		<path class="st3" d="M1133.5,538.1c2.1,0,3.8,1.7,3.8,3.8c0,2.1-1.7,3.8-3.8,3.8s-3.8-1.7-3.8-3.8
			C1129.7,539.8,1131.3,538.1,1133.5,538.1L1133.5,538.1z"/>
		<path class="st3" d="M1133.5,736.3c2.1,0,3.8,1.7,3.8,3.8s-1.7,3.8-3.8,3.8s-3.8-1.7-3.8-3.8
			C1129.6,738,1131.3,736.3,1133.5,736.3L1133.5,736.3z"/>
		<line class="st6" x1="1133.5" y1="545.7" x2="1133.5" y2="736.3"/>
		<line class="st6" x1="1001.3" y1="740.4" x2="1129.7" y2="740.4"/>
		<line class="st6" x1="1001.3" y1="541.9" x2="1129.7" y2="541.9"/>
	</g>
	<g id="LWPOLYLINE_11_">
		<path class="st3" d="M550,697.2h31.2c1.6,0,2.8-1.3,2.8-2.8v-82.2c0-1.6-1.3-2.8-2.8-2.8H550c-1.6,0-2.8,1.3-2.8,2.8v82.2
			C547.1,695.8,548.4,697.2,550,697.2z"/>
	</g>
	<ellipse class="st2" cx="479.8" cy="702.5" rx="9" ry="12.6"/>
	<g>
		<path class="st1" d="M490.3,636.5l5.1,6.1l0,0l1.1-3.9l0.8,0.2l-1.5,5.2l-0.6-0.2l-5-6.1l0,0l-1.3,4.3l-0.8-0.2l1.6-5.7
			L490.3,636.5z"/>
		<path class="st1" d="M487.7,643.2l5.6,1.6l-0.3,1l-5.6-1.6L487.7,643.2z M494.6,646.4c-0.3-0.1-0.6-0.4-0.4-0.8
			c0.1-0.4,0.5-0.5,0.8-0.4c0.4,0.1,0.6,0.4,0.5,0.8C495.3,646.3,494.9,646.5,494.6,646.4z"/>
		<path class="st1" d="M490.7,647c0.7,0.2,1.3,0.3,1.8,0.5l-0.3,0.9l-1-0.2l0,0c0.6,0.6,0.8,1.4,0.5,2.3c-0.4,1.3-1.8,2-3.5,1.5
			c-2-0.6-2.6-2.1-2.3-3.4c0.2-0.7,0.7-1.3,1.4-1.5l0,0l-3-0.9l0.3-1L490.7,647z M488.9,647.6c-0.1,0-0.3-0.1-0.4-0.1
			c-0.8,0-1.4,0.5-1.6,1.2c-0.3,1.1,0.4,1.9,1.7,2.3c1.1,0.3,2.2,0,2.6-1.1c0.2-0.7-0.1-1.5-0.8-1.9c-0.1-0.1-0.3-0.1-0.4-0.2
			L488.9,647.6z"/>
		<path class="st1" d="M491,657.9l0.7-2.4l0.9,0.2l-1.7,5.7l-0.9-0.2l0.7-2.4l-6.9-2l0.3-1L491,657.9z"/>
		<path class="st1" d="M482.9,660l5.6,1.6l-0.3,1l-5.6-1.6L482.9,660z M489.7,663.2c-0.3-0.1-0.6-0.4-0.4-0.8
			c0.1-0.4,0.5-0.5,0.8-0.4c0.4,0.1,0.6,0.4,0.4,0.8C490.4,663.2,490,663.3,489.7,663.2z"/>
		<path class="st1" d="M484.5,664c-1.4-0.4-2.2,0.3-2.5,1.4c-0.2,0.7-0.2,1.2-0.2,1.6H481c-0.1-0.4-0.1-1.1,0.2-2
			c0.5-1.7,1.9-2.4,3.6-1.9c1.7,0.5,2.7,1.9,2.3,3.5c-0.5,1.8-2.3,1.8-3.3,1.5c-0.2-0.1-0.4-0.1-0.5-0.2L484.5,664z M484.4,667.2
			c0.6,0.2,1.7,0.2,2.1-0.9c0.3-1-0.5-1.7-1.2-2L484.4,667.2z"/>
	</g>
	<ellipse class="st2" cx="501" cy="602.9" rx="9" ry="12.6"/>
	<ellipse class="st2" cx="778.2" cy="705.3" rx="9" ry="12.6"/>
	<g>
		<path class="st1" d="M788.7,639.3l5.1,6.1l0,0l1.1-3.9l0.8,0.2l-1.5,5.2l-0.6-0.2l-5-6.1l0,0l-1.3,4.3l-0.8-0.2l1.6-5.7
			L788.7,639.3z"/>
		<path class="st1" d="M786.1,646l5.6,1.6l-0.3,1l-5.6-1.6L786.1,646z M793,649.2c-0.3-0.1-0.6-0.4-0.4-0.8c0.1-0.4,0.5-0.5,0.8-0.4
			c0.4,0.1,0.6,0.4,0.5,0.8C793.7,649.1,793.3,649.3,793,649.2z"/>
		<path class="st1" d="M789.1,649.8c0.7,0.2,1.3,0.3,1.8,0.5l-0.3,0.9l-1-0.2l0,0c0.6,0.6,0.8,1.4,0.5,2.3c-0.4,1.3-1.8,2-3.5,1.5
			c-2-0.6-2.6-2.1-2.3-3.4c0.2-0.7,0.7-1.3,1.4-1.5l0,0l-3-0.9l0.3-1L789.1,649.8z M787.3,650.4c-0.1,0-0.3-0.1-0.4-0.1
			c-0.8,0-1.4,0.5-1.6,1.2c-0.3,1.1,0.4,1.9,1.7,2.3c1.1,0.3,2.2,0,2.6-1.1c0.2-0.7-0.1-1.5-0.8-1.9c-0.1-0.1-0.3-0.1-0.4-0.2
			L787.3,650.4z"/>
		<path class="st1" d="M789.4,660.7l0.7-2.4l0.9,0.2l-1.7,5.7l-0.9-0.2l0.7-2.4l-6.9-2l0.3-1L789.4,660.7z"/>
		<path class="st1" d="M781.3,662.8l5.6,1.6l-0.3,1l-5.6-1.6L781.3,662.8z M788.1,666c-0.3-0.1-0.6-0.4-0.4-0.8
			c0.1-0.4,0.5-0.5,0.8-0.4c0.4,0.1,0.6,0.4,0.4,0.8C788.8,666,788.4,666.1,788.1,666z"/>
		<path class="st1" d="M782.9,666.8c-1.4-0.4-2.2,0.3-2.5,1.4c-0.2,0.7-0.2,1.2-0.2,1.6h-0.8c-0.1-0.4-0.1-1.1,0.2-2
			c0.5-1.7,1.9-2.4,3.6-1.9c1.7,0.5,2.7,1.9,2.3,3.5c-0.5,1.8-2.3,1.8-3.3,1.5c-0.2-0.1-0.4-0.1-0.5-0.2L782.9,666.8z M782.8,670
			c0.6,0.2,1.7,0.2,2.1-0.9c0.3-1-0.5-1.7-1.2-2L782.8,670z"/>
	</g>
	<ellipse class="st2" cx="799.4" cy="605.7" rx="9" ry="12.6"/>
	<rect x="105.1" y="528.8" class="st7" width="1075.2" height="243.7"/>
	<path class="st3" d="M215.7,537.1c2.1,0,3.8,1.7,3.8,3.8c0,2.1-1.7,3.8-3.8,3.8s-3.8-1.7-3.8-3.8
		C211.9,538.8,213.5,537.1,215.7,537.1L215.7,537.1z"/>
	<path class="st3" d="M215.7,735.6c2.1,0,3.8,1.7,3.8,3.8s-1.7,3.8-3.8,3.8s-3.8-1.7-3.8-3.8C211.8,737.3,213.5,735.6,215.7,735.6
		L215.7,735.6z"/>
	<path class="st3" d="M351.7,537.1c2.1,0,3.8,1.7,3.8,3.8c0,2.1-1.7,3.8-3.8,3.8s-3.8-1.7-3.8-3.8
		C347.9,538.8,349.5,537.1,351.7,537.1L351.7,537.1z"/>
	<path class="st3" d="M351.7,735.3c2.1,0,3.8,1.7,3.8,3.8s-1.7,3.8-3.8,3.8s-3.8-1.7-3.8-3.8C347.8,737,349.5,735.3,351.7,735.3
		L351.7,735.3z"/>
</g>
<g id="Panels" class="st8">
	<g id="CAD_1_" class="st9">
		<line class="st10" x1="127" y1="431.3" x2="127" y2="159.8"/>
		<line class="st10" x1="133.2" y1="168.3" x2="133.2" y2="218.4"/>
		<line class="st10" x1="133.2" y1="222.9" x2="133.2" y2="230.6"/>
		<line class="st10" x1="133.2" y1="235.1" x2="133.2" y2="287.3"/>
		<line class="st10" x1="133.2" y1="291.8" x2="133.2" y2="299.5"/>
		<line class="st10" x1="133.2" y1="304" x2="133.2" y2="356.1"/>
		<line class="st10" x1="133.2" y1="360.7" x2="133.2" y2="368.3"/>
		<line class="st10" x1="133.2" y1="372.8" x2="133.2" y2="422.4"/>
		<line class="st10" x1="612" y1="166" x2="632.8" y2="186.8"/>
		<line class="st10" x1="643.7" y1="197.6" x2="664.4" y2="218.4"/>
		<line class="st10" x1="149.4" y1="252.6" x2="149.4" y2="249.5"/>
		<line class="st10" x1="149.4" y1="253.5" x2="149.4" y2="256.6"/>
		<line class="st10" x1="133.2" y1="218.4" x2="153.9" y2="197.6"/>
		<line class="st10" x1="164.7" y1="187.6" x2="186.3" y2="166"/>
		<line class="st10" x1="664.4" y1="222.9" x2="635.8" y2="194.3"/>
		<line class="st10" x1="633.3" y1="191.8" x2="627.3" y2="185.8"/>
		<line class="st10" x1="622" y1="180.4" x2="607.5" y2="166"/>
		<line class="st10" x1="161.8" y1="397" x2="161.8" y2="332"/>
		<line class="st10" x1="161.8" y1="328.1" x2="161.8" y2="263.1"/>
		<line class="st10" x1="161.8" y1="259.2" x2="161.8" y2="194.3"/>
		<line class="st10" x1="166.4" y1="394.8" x2="166.4" y2="196.3"/>
		<line class="st10" x1="165.3" y1="190.8" x2="164.3" y2="191.8"/>
		<line class="st10" x1="161.8" y1="194.3" x2="133.2" y2="222.9"/>
		<line class="st10" x1="190.8" y1="166" x2="176.9" y2="179.9"/>
		<line class="st10" x1="169.8" y1="187" x2="166.1" y2="190.8"/>
		<line class="st10" x1="544" y1="166" x2="569.3" y2="191.3"/>
		<line class="st10" x1="638.3" y1="261.2" x2="664.4" y2="287.3"/>
		<line class="st10" x1="565.3" y1="191.8" x2="539.5" y2="166"/>
		<line class="st10" x1="664.4" y1="291.8" x2="635.8" y2="263.1"/>
		<line class="st10" x1="229.1" y1="191.3" x2="254.3" y2="166"/>
		<line class="st10" x1="133.2" y1="287.3" x2="159.3" y2="261.2"/>
		<line class="st10" x1="258.9" y1="166" x2="233.1" y2="191.8"/>
		<line class="st10" x1="161.8" y1="263.1" x2="133.2" y2="291.8"/>
		<line class="st10" x1="476" y1="166" x2="501.2" y2="191.3"/>
		<line class="st10" x1="638.3" y1="330.1" x2="645" y2="336.7"/>
		<line class="st10" x1="649.6" y1="341.4" x2="664.4" y2="356.1"/>
		<line class="st10" x1="497.3" y1="191.8" x2="471.5" y2="166"/>
		<line class="st10" x1="664.4" y1="360.7" x2="635.8" y2="332"/>
		<line class="st10" x1="297.1" y1="191.3" x2="322.4" y2="166"/>
		<line class="st10" x1="133.2" y1="356.1" x2="159.3" y2="330.1"/>
		<line class="st10" x1="326.9" y1="166" x2="301.1" y2="191.8"/>
		<line class="st10" x1="161.8" y1="332" x2="133.2" y2="360.7"/>
		<line class="st10" x1="127" y1="159.8" x2="670.7" y2="159.8"/>
		<line class="st10" x1="661.2" y1="166" x2="612" y2="166"/>
		<line class="st10" x1="607.5" y1="166" x2="599" y2="166"/>
		<line class="st10" x1="594.5" y1="166" x2="544" y2="166"/>
		<line class="st10" x1="539.5" y1="166" x2="531" y2="166"/>
		<line class="st10" x1="526.5" y1="166" x2="476" y2="166"/>
		<line class="st10" x1="471.5" y1="166" x2="462.9" y2="166"/>
		<line class="st10" x1="458.4" y1="166" x2="408" y2="166"/>
		<line class="st10" x1="403.4" y1="166" x2="394.9" y2="166"/>
		<line class="st10" x1="390.4" y1="166" x2="339.9" y2="166"/>
		<line class="st10" x1="335.4" y1="166" x2="326.9" y2="166"/>
		<line class="st10" x1="322.4" y1="166" x2="271.9" y2="166"/>
		<line class="st10" x1="267.4" y1="166" x2="258.9" y2="166"/>
		<line class="st10" x1="254.3" y1="166" x2="203.9" y2="166"/>
		<line class="st10" x1="199.3" y1="166" x2="190.8" y2="166"/>
		<line class="st10" x1="186.3" y1="166" x2="136.4" y2="166"/>
		<line class="st10" x1="165.3" y1="190.8" x2="166.1" y2="190.8"/>
		<line class="st10" x1="633.3" y1="191.8" x2="628.4" y2="191.8"/>
		<line class="st10" x1="605.8" y1="191.8" x2="573.2" y2="191.8"/>
		<line class="st10" x1="565.3" y1="191.8" x2="505.2" y2="191.8"/>
		<line class="st10" x1="497.3" y1="191.8" x2="444.1" y2="191.8"/>
		<line class="st10" x1="421.5" y1="191.8" x2="409.6" y2="191.8"/>
		<line class="st10" x1="388" y1="191.8" x2="369.1" y2="191.8"/>
		<line class="st10" x1="361.2" y1="191.8" x2="301.1" y2="191.8"/>
		<line class="st10" x1="293.2" y1="191.8" x2="233.1" y2="191.8"/>
		<line class="st10" x1="225.1" y1="191.8" x2="191.8" y2="191.8"/>
		<line class="st10" x1="169.3" y1="191.8" x2="164.3" y2="191.8"/>
		<line class="st10" x1="166.4" y1="196.3" x2="170.7" y2="196.3"/>
		<line class="st10" x1="190.4" y1="196.3" x2="393" y2="196.3"/>
		<line class="st10" x1="404.7" y1="196.3" x2="423" y2="196.3"/>
		<line class="st10" x1="442.6" y1="196.3" x2="607.3" y2="196.3"/>
		<line class="st10" x1="626.9" y1="196.3" x2="631.3" y2="196.3"/>
		<line class="st10" x1="655.7" y1="413.6" x2="664.4" y2="422.3"/>
		<line class="st10" x1="408" y1="166" x2="424.7" y2="182.8"/>
		<line class="st10" x1="422.8" y1="185.4" x2="403.4" y2="166"/>
		<line class="st10" x1="661.6" y1="425.1" x2="653" y2="416.4"/>
		<line class="st10" x1="133.2" y1="422.4" x2="141.9" y2="413.7"/>
		<line class="st10" x1="144.7" y1="416.4" x2="136" y2="425.1"/>
		<line class="st10" x1="365.2" y1="191.3" x2="390.4" y2="166"/>
		<line class="st10" x1="394.9" y1="166" x2="369.1" y2="191.8"/>
		<line class="st10" x1="573.6" y1="399.3" x2="599.4" y2="425.1"/>
		<line class="st10" x1="339.9" y1="166" x2="365.2" y2="191.3"/>
		<line class="st10" x1="594.9" y1="425.1" x2="569.3" y2="399.4"/>
		<line class="st10" x1="361.2" y1="191.8" x2="335.4" y2="166"/>
		<line class="st10" x1="198.9" y1="425.1" x2="224.7" y2="399.3"/>
		<line class="st10" x1="441.3" y1="183.1" x2="458.4" y2="166"/>
		<line class="st10" x1="229.1" y1="399.4" x2="203.4" y2="425.1"/>
		<line class="st10" x1="462.9" y1="166" x2="443.1" y2="185.9"/>
		<line class="st10" x1="505.6" y1="399.3" x2="531.4" y2="425.1"/>
		<line class="st10" x1="271.9" y1="166" x2="297.1" y2="191.3"/>
		<line class="st10" x1="526.9" y1="425.1" x2="501.2" y2="399.4"/>
		<line class="st10" x1="293.2" y1="191.8" x2="267.4" y2="166"/>
		<line class="st10" x1="267" y1="425.1" x2="292.7" y2="399.3"/>
		<line class="st10" x1="501.2" y1="191.3" x2="526.5" y2="166"/>
		<line class="st10" x1="297.1" y1="399.4" x2="271.5" y2="425.1"/>
		<line class="st10" x1="531" y1="166" x2="505.2" y2="191.8"/>
		<line class="st10" x1="437.6" y1="399.3" x2="463.4" y2="425.1"/>
		<line class="st10" x1="203.9" y1="166" x2="229.1" y2="191.3"/>
		<line class="st10" x1="458.9" y1="425.1" x2="433.2" y2="399.4"/>
		<line class="st10" x1="225.1" y1="191.8" x2="199.3" y2="166"/>
		<line class="st10" x1="335" y1="425.1" x2="354.6" y2="405.5"/>
		<line class="st10" x1="569.3" y1="191.3" x2="594.5" y2="166"/>
		<line class="st10" x1="356.5" y1="408.1" x2="339.5" y2="425.1"/>
		<line class="st10" x1="599" y1="166" x2="573.2" y2="191.8"/>
		<line class="st10" x1="631.3" y1="394.8" x2="626.9" y2="394.8"/>
		<line class="st10" x1="607.3" y1="394.8" x2="404.7" y2="394.8"/>
		<line class="st10" x1="393" y1="394.8" x2="374.6" y2="394.8"/>
		<line class="st10" x1="355" y1="394.8" x2="190.4" y2="394.8"/>
		<line class="st10" x1="170.7" y1="394.8" x2="166.4" y2="394.8"/>
		<line class="st10" x1="165.5" y1="399.3" x2="169.3" y2="399.3"/>
		<line class="st10" x1="191.8" y1="399.3" x2="224.7" y2="399.3"/>
		<line class="st10" x1="233.5" y1="399.3" x2="292.7" y2="399.3"/>
		<line class="st10" x1="301.5" y1="399.3" x2="353.5" y2="399.3"/>
		<line class="st10" x1="376.1" y1="399.3" x2="388" y2="399.3"/>
		<line class="st10" x1="409.6" y1="399.3" x2="428.8" y2="399.3"/>
		<line class="st10" x1="437.6" y1="399.3" x2="496.8" y2="399.3"/>
		<line class="st10" x1="505.6" y1="399.3" x2="564.9" y2="399.3"/>
		<line class="st10" x1="573.6" y1="399.3" x2="605.8" y2="399.3"/>
		<line class="st10" x1="628.4" y1="399.3" x2="632.9" y2="399.3"/>
		<line class="st10" x1="375.2" y1="405" x2="395.3" y2="425.1"/>
		<line class="st10" x1="390.8" y1="425.1" x2="373.5" y2="407.7"/>
		<line class="st10" x1="136.4" y1="166" x2="144.9" y2="174.5"/>
		<line class="st10" x1="142.1" y1="177.2" x2="133.2" y2="168.3"/>
		<line class="st10" x1="652.7" y1="174.5" x2="661.2" y2="166"/>
		<line class="st10" x1="403" y1="425.1" x2="428.8" y2="399.3"/>
		<line class="st10" x1="433.2" y1="399.4" x2="407.5" y2="425.1"/>
		<line class="st10" x1="664.4" y1="168.4" x2="655.5" y2="177.2"/>
		<line class="st10" x1="136" y1="425.1" x2="186.7" y2="425.1"/>
		<line class="st10" x1="191.2" y1="425.1" x2="198.9" y2="425.1"/>
		<line class="st10" x1="203.4" y1="425.1" x2="254.8" y2="425.1"/>
		<line class="st10" x1="259.3" y1="425.1" x2="267" y2="425.1"/>
		<line class="st10" x1="271.5" y1="425.1" x2="322.8" y2="425.1"/>
		<line class="st10" x1="327.3" y1="425.1" x2="335" y2="425.1"/>
		<line class="st10" x1="339.5" y1="425.1" x2="390.8" y2="425.1"/>
		<line class="st10" x1="395.3" y1="425.1" x2="403" y2="425.1"/>
		<line class="st10" x1="407.5" y1="425.1" x2="458.9" y2="425.1"/>
		<line class="st10" x1="463.4" y1="425.1" x2="471" y2="425.1"/>
		<line class="st10" x1="475.6" y1="425.1" x2="526.9" y2="425.1"/>
		<line class="st10" x1="531.4" y1="425.1" x2="539.1" y2="425.1"/>
		<line class="st10" x1="543.6" y1="425.1" x2="594.9" y2="425.1"/>
		<line class="st10" x1="599.4" y1="425.1" x2="607.1" y2="425.1"/>
		<line class="st10" x1="611.6" y1="425.1" x2="661.6" y2="425.1"/>
		<line class="st10" x1="670.7" y1="431.3" x2="127" y2="431.3"/>
		<line class="st10" x1="133.2" y1="230.6" x2="161.8" y2="259.2"/>
		<line class="st10" x1="301.5" y1="399.3" x2="327.3" y2="425.1"/>
		<line class="st10" x1="635.8" y1="259.2" x2="664.4" y2="230.6"/>
		<line class="st10" x1="471" y1="425.1" x2="496.8" y2="399.3"/>
		<line class="st10" x1="159.3" y1="261.2" x2="152.6" y2="254.5"/>
		<line class="st10" x1="147.9" y1="249.8" x2="133.2" y2="235.1"/>
		<line class="st10" x1="322.8" y1="425.1" x2="297.1" y2="399.4"/>
		<line class="st10" x1="664.4" y1="235.1" x2="638.3" y2="261.2"/>
		<line class="st10" x1="501.2" y1="399.4" x2="475.6" y2="425.1"/>
		<line class="st10" x1="233.5" y1="399.3" x2="259.3" y2="425.1"/>
		<line class="st10" x1="133.2" y1="299.5" x2="161.8" y2="328.1"/>
		<line class="st10" x1="254.8" y1="425.1" x2="229.1" y2="399.4"/>
		<line class="st10" x1="159.3" y1="330.1" x2="133.2" y2="304"/>
		<line class="st10" x1="635.8" y1="328.1" x2="664.4" y2="299.5"/>
		<line class="st10" x1="539.1" y1="425.1" x2="564.9" y2="399.3"/>
		<line class="st10" x1="664.4" y1="304" x2="638.3" y2="330.1"/>
		<line class="st10" x1="569.3" y1="399.4" x2="543.6" y2="425.1"/>
		<line class="st10" x1="165.5" y1="399.3" x2="169.6" y2="403.5"/>
		<line class="st10" x1="177.5" y1="411.4" x2="191.2" y2="425.1"/>
		<line class="st10" x1="133.2" y1="368.3" x2="161.8" y2="397"/>
		<line class="st10" x1="186.7" y1="425.1" x2="164.5" y2="402.9"/>
		<line class="st10" x1="153.8" y1="393.5" x2="133.2" y2="372.8"/>
		<line class="st10" x1="631.3" y1="196.3" x2="631.3" y2="394.8"/>
		<line class="st10" x1="635.8" y1="397" x2="635.8" y2="332"/>
		<line class="st10" x1="635.8" y1="328.1" x2="635.8" y2="263.1"/>
		<line class="st10" x1="635.8" y1="259.2" x2="635.8" y2="194.3"/>
		<line class="st10" x1="607.1" y1="425.1" x2="621.2" y2="411"/>
		<line class="st10" x1="627.6" y1="404.6" x2="632.9" y2="399.3"/>
		<line class="st10" x1="635.8" y1="397" x2="664.4" y2="368.3"/>
		<line class="st10" x1="632.9" y1="403.9" x2="611.6" y2="425.1"/>
		<line class="st10" x1="664.4" y1="372.8" x2="643.8" y2="393.5"/>
		<line class="st10" x1="648.3" y1="337.7" x2="648.3" y2="334.5"/>
		<line class="st10" x1="648.3" y1="338.5" x2="648.3" y2="341.6"/>
		<line class="st10" x1="664.4" y1="422.3" x2="664.4" y2="372.8"/>
		<line class="st10" x1="664.4" y1="368.3" x2="664.4" y2="360.7"/>
		<line class="st10" x1="664.4" y1="356.1" x2="664.4" y2="304"/>
		<line class="st10" x1="664.4" y1="299.5" x2="664.4" y2="291.8"/>
		<line class="st10" x1="664.4" y1="287.3" x2="664.4" y2="235.1"/>
		<line class="st10" x1="664.4" y1="230.6" x2="664.4" y2="222.9"/>
		<line class="st10" x1="664.4" y1="218.4" x2="664.4" y2="168.4"/>
		<line class="st10" x1="670.7" y1="159.8" x2="670.7" y2="431.3"/>
		<path class="st10" d="M164.7,187.6c1.5-6.9-2.9-13.7-9.8-15.1c-3.4-0.7-7,0-9.9,2"/>
		<path class="st10" d="M142.1,177.2c-4.3,5.6-3.3,13.6,2.3,17.9c2.7,2.1,6.2,3,9.5,2.5"/>
		<path class="st10" d="M191.8,191.8c0.6-6.2-3.9-11.8-10.1-12.4c-1.6-0.2-3.2,0-4.8,0.5"/>
		<path class="st10" d="M169.8,187c-0.5,1.5-0.7,3.2-0.5,4.8"/>
		<path class="st10" d="M170.7,196.3c3.1,5.4,10.1,7.3,15.5,4.2c1.7-1,3.2-2.4,4.2-4.2"/>
		<path class="st10" d="M149.4,249.5c2,0,3.5,1.6,3.5,3.5s-1.6,3.5-3.5,3.5c-2,0-3.5-1.6-3.5-3.5S147.4,249.5,149.4,249.5
			L149.4,249.5z"/>
		<path class="st10" d="M149.4,252.6c0.2,0,0.4,0.2,0.4,0.4c0,0.2-0.2,0.4-0.4,0.4s-0.4-0.2-0.4-0.4
			C149,252.8,149.1,252.6,149.4,252.6L149.4,252.6z"/>
		<path class="st10" d="M393,196.3c3.7,1.9,8,1.9,11.7,0"/>
		<path class="st10" d="M409.6,191.8c3.8-6,2-13.8-4-17.6s-13.8-2-17.6,4c-2.6,4.2-2.6,9.4,0,13.6"/>
		<path class="st10" d="M652.7,174.5c-5.8-4-13.7-2.6-17.8,3.2c-1.8,2.6-2.6,5.9-2.2,9"/>
		<path class="st10" d="M643.7,197.6c7,1,13.4-3.9,14.4-10.9c0.5-3.4-0.4-6.8-2.5-9.5"/>
		<path class="st10" d="M628.4,191.8c0.2-2.1-0.2-4.1-1.1-6"/>
		<path class="st10" d="M444.1,191.8c0.2-2-0.1-4.1-1-5.9"/>
		<path class="st10" d="M622,180.4c-5.7-2.7-12.4-0.3-15.1,5.3c-0.9,1.9-1.3,4-1.1,6"/>
		<path class="st10" d="M441.3,183.1c-4.2-4.7-11.3-5.1-16-0.9c-0.2,0.2-0.4,0.4-0.6,0.6"/>
		<path class="st10" d="M607.3,196.3c3.1,5.4,10.1,7.3,15.5,4.2c1.7-1,3.2-2.4,4.2-4.2"/>
		<path class="st10" d="M423,196.3c3.1,5.4,10.1,7.3,15.5,4.2c1.7-1,3.2-2.4,4.2-4.2"/>
		<path class="st10" d="M422.8,185.4c-1,2-1.5,4.2-1.3,6.4"/>
		<path class="st10" d="M432.8,183.6c3.9,0,7.1,3.2,7.1,7.1c0,3.9-3.2,7.1-7.1,7.1s-7.1-3.2-7.1-7.1
			C425.7,186.8,428.9,183.6,432.8,183.6L432.8,183.6z"/>
		<path class="st10" d="M153.8,393.5c-7-0.9-13.4,4-14.3,11c-0.4,3.2,0.4,6.5,2.4,9.2"/>
		<path class="st10" d="M144.7,416.4c5.7,4.2,13.7,2.9,17.8-2.8c2.3-3.1,3-7,2.1-10.7"/>
		<path class="st10" d="M169.3,399.3c-0.1,1.4,0,2.8,0.4,4.2"/>
		<path class="st10" d="M177.5,411.4c6,1.7,12.3-1.9,14-7.9c0.4-1.4,0.5-2.8,0.4-4.2"/>
		<path class="st10" d="M353.5,399.3c-0.2,2.1,0.2,4.2,1.1,6.2"/>
		<path class="st10" d="M356.5,408.1c4.2,4.6,11.4,4.9,16,0.6c0.3-0.3,0.7-0.7,1-1"/>
		<path class="st10" d="M190.4,394.8c-3.1-5.4-10.1-7.3-15.5-4.2c-1.7,1-3.2,2.4-4.2,4.2"/>
		<path class="st10" d="M374.6,394.8c-3.1-5.4-10.1-7.3-15.5-4.2c-1.7,1-3.2,2.4-4.2,4.2"/>
		<path class="st10" d="M375.2,405c0.8-1.8,1.1-3.7,0.9-5.7"/>
		<path class="st10" d="M364.8,393.4c3.9,0,7.1,3.2,7.1,7.1s-3.2,7.1-7.1,7.1s-7.1-3.2-7.1-7.1S360.9,393.4,364.8,393.4L364.8,393.4
			z"/>
		<path class="st10" d="M404.7,394.8c-3.7-1.9-8-1.9-11.7,0"/>
		<path class="st10" d="M388,399.3c-3.8,6-2,13.8,4,17.6c6,3.8,13.8,2,17.6-4c2.6-4.2,2.6-9.4,0-13.6"/>
		<path class="st10" d="M632.9,403.9c-1.2,6.9,3.4,13.6,10.3,14.8c3.4,0.6,7-0.2,9.8-2.3"/>
		<path class="st10" d="M655.7,413.6c4.2-5.7,2.9-13.7-2.8-17.8c-2.6-1.9-5.9-2.8-9.1-2.4"/>
		<path class="st10" d="M605.8,399.3c-0.6,6.2,3.9,11.8,10.1,12.4c1.8,0.2,3.6-0.1,5.3-0.7"/>
		<path class="st10" d="M627.6,404.6c0.7-1.7,0.9-3.5,0.7-5.3"/>
		<path class="st10" d="M626.9,394.8c-3.1-5.4-10.1-7.3-15.5-4.2c-1.7,1-3.2,2.4-4.2,4.2"/>
		<path class="st10" d="M648.3,334.5c2,0,3.5,1.6,3.5,3.5c0,2-1.6,3.5-3.5,3.5s-3.5-1.6-3.5-3.5
			C644.7,336.1,646.3,334.5,648.3,334.5L648.3,334.5z"/>
		<path class="st10" d="M648.3,337.7c0.2,0,0.4,0.2,0.4,0.4c0,0.2-0.2,0.4-0.4,0.4s-0.4-0.2-0.4-0.4S648,337.7,648.3,337.7
			L648.3,337.7z"/>
		<path class="st10" d="M645.4,199.2c6.3,0,11.3,5.1,11.3,11.3s-5.1,11.3-11.3,11.3s-11.3-5.1-11.3-11.3S639.2,199.2,645.4,199.2
			L645.4,199.2z"/>
		<path class="st10" d="M645.4,369.3c6.3,0,11.3,5.1,11.3,11.3c0,6.3-5.1,11.3-11.3,11.3s-11.3-5-11.3-11.3S639.2,369.3,645.4,369.3
			L645.4,369.3z"/>
		<path class="st10" d="M152.2,369.3c6.3,0,11.3,5.1,11.3,11.3c0,6.3-5.1,11.3-11.3,11.3c-6.3,0-11.3-5.1-11.3-11.3
			C140.9,374.3,145.9,369.3,152.2,369.3L152.2,369.3z"/>
		<path class="st10" d="M152.2,199.2c6.3,0,11.3,5.1,11.3,11.3s-5,11.4-11.3,11.4s-11.3-5.1-11.3-11.3S145.9,199.2,152.2,199.2
			L152.2,199.2z"/>
		<g id="ARC_24_">
			<path class="st11" d="M360.5,400.4c0,2.3,1.9,4.3,4.3,4.3s4.3-1.9,4.3-4.3s-1.9-4.3-4.3-4.3"/>
		</g>
		<g id="LINE_36_">
			<line class="st12" x1="364.8" y1="395.8" x2="364.8" y2="405.1"/>
		</g>
		<g id="LINE_35_">
			<line class="st12" x1="360.1" y1="400.4" x2="369.5" y2="400.4"/>
		</g>
		<g id="CIRCLE_24_">
			<path class="st13" d="M364.8,396.9c2,0,3.5,1.6,3.5,3.5s-1.6,3.5-3.5,3.5s-3.5-1.6-3.5-3.5S362.8,396.9,364.8,396.9L364.8,396.9z
				"/>
		</g>
		<g id="TEXT_24_">
			<text transform="matrix(0 1 -1 0 362.668 398.9611)" class="st14 st15 st16">M3</text>
		</g>
		<g id="ARC_23_">
			<path class="st11" d="M428.6,190.7c0,2.3,1.9,4.3,4.3,4.3s4.3-1.9,4.3-4.3s-1.9-4.3-4.3-4.3"/>
		</g>
		<g id="LINE_34_">
			<line class="st12" x1="432.8" y1="186" x2="432.8" y2="195.4"/>
		</g>
		<g id="LINE_33_">
			<line class="st12" x1="428.1" y1="190.7" x2="437.5" y2="190.7"/>
		</g>
		<g id="CIRCLE_23_">
			<path class="st13" d="M432.8,187.1c2,0,3.5,1.6,3.5,3.5c0,2-1.6,3.5-3.5,3.5s-3.5-1.6-3.5-3.5S430.9,187.1,432.8,187.1
				L432.8,187.1z"/>
		</g>
		<g id="TEXT_23_">
			<text transform="matrix(0 1 -1 0 430.6992 189.1973)" class="st14 st15 st16">M3</text>
		</g>
		<g id="ARC_22_">
			<path class="st11" d="M147.9,210.5c0,2.3,1.9,4.3,4.3,4.3s4.3-1.9,4.3-4.3c0-2.4-1.9-4.3-4.3-4.3"/>
		</g>
		<g id="LINE_32_">
			<line class="st12" x1="152.2" y1="205.8" x2="152.2" y2="215.2"/>
		</g>
		<g id="LINE_31_">
			<line class="st12" x1="147.5" y1="210.5" x2="156.9" y2="210.5"/>
		</g>
		<g id="CIRCLE_22_">
			<path class="st13" d="M152.2,207c2,0,3.5,1.6,3.5,3.5s-1.6,3.5-3.5,3.5s-3.5-1.6-3.5-3.5S150.2,207,152.2,207L152.2,207z"/>
		</g>
		<g id="TEXT_22_">
			<text transform="matrix(0 1 -1 0 150.0703 209.0401)" class="st14 st15 st16">M3</text>
		</g>
		<g id="ARC_21_">
			<path class="st11" d="M147.9,380.6c0,2.3,1.9,4.3,4.3,4.3s4.3-1.9,4.3-4.3s-1.9-4.3-4.3-4.3"/>
		</g>
		<g id="LINE_30_">
			<line class="st12" x1="152.2" y1="375.9" x2="152.2" y2="385.3"/>
		</g>
		<g id="LINE_29_">
			<line class="st12" x1="147.5" y1="380.6" x2="156.9" y2="380.6"/>
		</g>
		<g id="CIRCLE_21_">
			<path class="st13" d="M152.2,377.1c2,0,3.5,1.6,3.5,3.5s-1.6,3.5-3.5,3.5s-3.5-1.6-3.5-3.5S150.2,377.1,152.2,377.1L152.2,377.1z
				"/>
		</g>
		<g id="TEXT_21_">
			<text transform="matrix(0 1 -1 0 150.0703 379.1182)" class="st14 st15 st16">M3</text>
		</g>
		<g id="ARC_20_">
			<path class="st11" d="M641.2,210.5c0,2.3,1.9,4.3,4.3,4.3c2.3,0,4.3-1.9,4.3-4.3c0-2.4-1.9-4.3-4.3-4.3"/>
		</g>
		<g id="LINE_28_">
			<line class="st12" x1="645.4" y1="205.8" x2="645.4" y2="215.2"/>
		</g>
		<g id="LINE_27_">
			<line class="st12" x1="640.7" y1="210.5" x2="650.1" y2="210.5"/>
		</g>
		<g id="CIRCLE_20_">
			<path class="st13" d="M645.4,207c2,0,3.5,1.6,3.5,3.5s-1.6,3.5-3.5,3.5s-3.5-1.6-3.5-3.5S643.5,207,645.4,207L645.4,207z"/>
		</g>
		<g id="TEXT_20_">
			<text transform="matrix(0 1 -1 0 643.2969 209.0401)" class="st14 st15 st16">M3</text>
		</g>
		<g id="ARC_19_">
			<path class="st11" d="M641.2,380.6c0,2.3,1.9,4.3,4.3,4.3s4.3-1.9,4.3-4.3s-1.9-4.3-4.3-4.3"/>
		</g>
		<g id="LINE_26_">
			<line class="st12" x1="645.4" y1="375.9" x2="645.4" y2="385.3"/>
		</g>
		<g id="LINE_25_">
			<line class="st12" x1="640.7" y1="380.6" x2="650.1" y2="380.6"/>
		</g>
		<g id="CIRCLE_19_">
			<path class="st13" d="M645.4,377.1c2,0,3.5,1.6,3.5,3.5s-1.6,3.5-3.5,3.5s-3.5-1.6-3.5-3.5S643.5,377.1,645.4,377.1L645.4,377.1z
				"/>
		</g>
		<g id="TEXT_19_">
			<text transform="matrix(0 1 -1 0 643.2969 379.1182)" class="st14 st15 st16">M3</text>
		</g>
		<g id="POINT_188_">
			<line class="st17" x1="648.3" y1="338.1" x2="648.3" y2="338.1"/>
		</g>
		<g id="POINT_187_">
			<line class="st17" x1="648.2" y1="352.6" x2="648.2" y2="352.6"/>
		</g>
		<g id="POINT_186_">
			<line class="st17" x1="398.8" y1="295.6" x2="398.8" y2="295.6"/>
		</g>
		<g id="POINT_185_">
			<line class="st17" x1="648.3" y1="338.1" x2="648.3" y2="338.1"/>
		</g>
		<g id="POINT_184_">
			<line class="st17" x1="398.8" y1="295.6" x2="398.8" y2="295.6"/>
		</g>
		<g id="POINT_183_">
			<line class="st17" x1="149.4" y1="253" x2="149.4" y2="253"/>
		</g>
		<g id="POINT_182_">
			<line class="st17" x1="149.3" y1="279.2" x2="149.3" y2="279.2"/>
		</g>
		<g id="POINT_181_">
			<line class="st17" x1="398.8" y1="295.6" x2="398.8" y2="295.6"/>
		</g>
		<g id="POINT_180_">
			<line class="st17" x1="149.4" y1="253" x2="149.4" y2="253"/>
		</g>
		<g id="POINT_179_">
			<line class="st17" x1="120.7" y1="253.1" x2="120.7" y2="253.1"/>
		</g>
		<g id="POINT_178_">
			<line class="st17" x1="398.8" y1="295.6" x2="398.8" y2="295.6"/>
		</g>
		<g id="POINT_177_">
			<line class="st17" x1="152.2" y1="406.1" x2="152.2" y2="406.1"/>
		</g>
		<g id="POINT_176_">
			<line class="st17" x1="117.2" y1="406.1" x2="117.2" y2="406.1"/>
		</g>
		<g id="POINT_175_">
			<line class="st17" x1="398.8" y1="295.6" x2="398.8" y2="295.6"/>
		</g>
		<g id="POINT_174_">
			<line class="st17" x1="152.2" y1="185" x2="152.2" y2="185"/>
		</g>
		<g id="POINT_173_">
			<line class="st17" x1="122" y1="184.9" x2="122" y2="184.9"/>
		</g>
		<g id="POINT_172_">
			<line class="st17" x1="398.8" y1="295.6" x2="398.8" y2="295.6"/>
		</g>
		<g id="POINT_171_">
			<line class="st17" x1="364.8" y1="400.4" x2="364.8" y2="400.4"/>
		</g>
		<g id="POINT_170_">
			<line class="st17" x1="398.8" y1="295.6" x2="398.8" y2="295.6"/>
		</g>
		<g id="POINT_169_">
			<line class="st17" x1="398.8" y1="185" x2="398.8" y2="185"/>
		</g>
		<g id="POINT_168_">
			<line class="st17" x1="398.8" y1="295.6" x2="398.8" y2="295.6"/>
		</g>
		<g id="POINT_167_">
			<line class="st17" x1="432.8" y1="190.7" x2="432.8" y2="190.7"/>
		</g>
		<g id="POINT_166_">
			<line class="st17" x1="398.8" y1="295.6" x2="398.8" y2="295.6"/>
		</g>
		<g id="POINT_165_">
			<line class="st17" x1="398.8" y1="185" x2="398.8" y2="185"/>
		</g>
		<g id="POINT_164_">
			<line class="st17" x1="398.8" y1="295.6" x2="398.8" y2="295.6"/>
		</g>
		<g id="POINT_163_">
			<line class="st17" x1="398.8" y1="406.1" x2="398.8" y2="406.1"/>
		</g>
		<g id="POINT_162_">
			<line class="st17" x1="398.8" y1="295.6" x2="398.8" y2="295.6"/>
		</g>
		<g id="POINT_161_">
			<line class="st17" x1="670.7" y1="159.8" x2="670.7" y2="159.8"/>
		</g>
		<g id="POINT_160_">
			<line class="st17" x1="670.7" y1="431.3" x2="670.7" y2="431.3"/>
		</g>
		<g id="POINT_159_">
			<line class="st17" x1="670.7" y1="431.3" x2="670.7" y2="431.3"/>
		</g>
		<g id="POINT_158_">
			<line class="st17" x1="127" y1="431.3" x2="127" y2="431.3"/>
		</g>
		<g id="POINT_157_">
			<line class="st17" x1="645.4" y1="210.5" x2="645.4" y2="210.5"/>
		</g>
		<g id="POINT_156_">
			<line class="st17" x1="398.8" y1="295.6" x2="398.8" y2="295.6"/>
		</g>
		<g id="POINT_155_">
			<line class="st17" x1="645.4" y1="380.6" x2="645.4" y2="380.6"/>
		</g>
		<g id="POINT_154_">
			<line class="st17" x1="679.6" y1="380.7" x2="679.6" y2="380.7"/>
		</g>
		<g id="POINT_153_">
			<line class="st17" x1="398.8" y1="295.6" x2="398.8" y2="295.6"/>
		</g>
		<g id="POINT_152_">
			<line class="st17" x1="645.4" y1="210.5" x2="645.4" y2="210.5"/>
		</g>
		<g id="POINT_151_">
			<line class="st17" x1="398.8" y1="295.6" x2="398.8" y2="295.6"/>
		</g>
		<g id="POINT_150_">
			<line class="st17" x1="645.4" y1="380.6" x2="645.4" y2="380.6"/>
		</g>
		<g id="POINT_149_">
			<line class="st17" x1="398.8" y1="295.6" x2="398.8" y2="295.6"/>
		</g>
		<g id="POINT_148_">
			<line class="st17" x1="152.2" y1="380.6" x2="152.2" y2="380.6"/>
		</g>
		<g id="POINT_147_">
			<line class="st17" x1="398.8" y1="295.6" x2="398.8" y2="295.6"/>
		</g>
		<g id="POINT_146_">
			<line class="st17" x1="152.2" y1="210.5" x2="152.2" y2="210.5"/>
		</g>
		<g id="POINT_145_">
			<line class="st17" x1="398.8" y1="295.6" x2="398.8" y2="295.6"/>
		</g>
		<g id="POINT_144_">
			<line class="st17" x1="432.8" y1="190.7" x2="432.8" y2="190.7"/>
		</g>
		<g id="POINT_143_">
			<line class="st17" x1="465.9" y1="211.2" x2="465.9" y2="211.2"/>
		</g>
		<g id="POINT_142_">
			<line class="st17" x1="364.8" y1="400.4" x2="364.8" y2="400.4"/>
		</g>
	</g>
	<g id="Mount_Holes_Only_1_" class="st9">
		<circle class="st3" cx="152.2" cy="210.5" r="6.1"/>
		<circle class="st3" cx="149.4" cy="253" r="4.3"/>
		<circle class="st3" cx="152.2" cy="380.6" r="6.1"/>
		<circle class="st3" cx="645.4" cy="210.5" r="6.1"/>
		<circle class="st3" cx="645.5" cy="380.6" r="6.1"/>
		<circle class="st3" cx="648.3" cy="338" r="4.3"/>
		<circle class="st3" cx="432.9" cy="190.6" r="6.1"/>
		<circle class="st3" cx="364.8" cy="400.4" r="6.1"/>
		<g id="LWPOLYLINE_13_">
			<path class="st3" d="M188.7,335.8h31.2c1.6,0,2.8-1.3,2.8-2.8v-82.2c0-1.6-1.3-2.8-2.8-2.8h-31.2c-1.6,0-2.8,1.3-2.8,2.8V333
				C185.8,334.4,187.1,335.8,188.7,335.8z"/>
		</g>
		<g id="LWPOLYLINE_12_">
			<path class="st3" d="M467.3,260.9c0-1.7-1.3-3-2.8-3h-62.4c-1.6,0-2.8,1.4-2.8,3v41.9c0,1.7,1.3,3,2.8,3h62.4
				c1.6,0,2.8-1.4,2.8-3V260.9z"/>
		</g>
		<line class="st10" x1="671" y1="431.3" x2="671" y2="159.8"/>
		<line class="st10" x1="677.2" y1="168.3" x2="677.2" y2="218.4"/>
		<line class="st10" x1="677.2" y1="222.9" x2="677.2" y2="230.6"/>
		<line class="st10" x1="677.2" y1="235.1" x2="677.2" y2="287.3"/>
		<line class="st10" x1="677.2" y1="291.8" x2="677.2" y2="299.5"/>
		<line class="st10" x1="677.2" y1="304" x2="677.2" y2="356.1"/>
		<line class="st10" x1="677.2" y1="360.7" x2="677.2" y2="368.3"/>
		<line class="st10" x1="677.2" y1="372.8" x2="677.2" y2="422.4"/>
		<line class="st10" x1="1156" y1="166" x2="1176.8" y2="186.8"/>
		<line class="st10" x1="1187.7" y1="197.6" x2="1208.4" y2="218.4"/>
		<line class="st10" x1="693.4" y1="252.6" x2="693.4" y2="249.5"/>
		<line class="st10" x1="693.4" y1="253.5" x2="693.4" y2="256.6"/>
		<line class="st10" x1="677.2" y1="218.4" x2="697.9" y2="197.6"/>
		<line class="st10" x1="708.7" y1="187.6" x2="730.3" y2="166"/>
		<line class="st10" x1="1208.4" y1="222.9" x2="1179.8" y2="194.3"/>
		<line class="st10" x1="1177.3" y1="191.8" x2="1171.3" y2="185.8"/>
		<line class="st10" x1="1166" y1="180.4" x2="1151.5" y2="166"/>
		<line class="st10" x1="705.8" y1="397" x2="705.8" y2="332"/>
		<line class="st10" x1="705.8" y1="328.1" x2="705.8" y2="263.1"/>
		<line class="st10" x1="705.8" y1="259.2" x2="705.8" y2="194.3"/>
		<line class="st10" x1="710.4" y1="394.8" x2="710.4" y2="196.3"/>
		<line class="st10" x1="709.3" y1="190.8" x2="708.3" y2="191.8"/>
		<line class="st10" x1="705.8" y1="194.3" x2="677.2" y2="222.9"/>
		<line class="st10" x1="734.8" y1="166" x2="720.9" y2="179.9"/>
		<line class="st10" x1="713.8" y1="187" x2="710.1" y2="190.8"/>
		<line class="st10" x1="1088" y1="166" x2="1113.3" y2="191.3"/>
		<line class="st10" x1="1182.3" y1="261.2" x2="1208.4" y2="287.3"/>
		<line class="st10" x1="1109.3" y1="191.8" x2="1083.5" y2="166"/>
		<line class="st10" x1="1208.4" y1="291.8" x2="1179.8" y2="263.1"/>
		<line class="st10" x1="773.1" y1="191.3" x2="798.3" y2="166"/>
		<line class="st10" x1="677.2" y1="287.3" x2="703.3" y2="261.2"/>
		<line class="st10" x1="802.9" y1="166" x2="777.1" y2="191.8"/>
		<line class="st10" x1="705.8" y1="263.1" x2="677.2" y2="291.8"/>
		<line class="st10" x1="1020" y1="166" x2="1045.2" y2="191.3"/>
		<line class="st10" x1="1182.3" y1="330.1" x2="1189" y2="336.7"/>
		<line class="st10" x1="1193.6" y1="341.4" x2="1208.4" y2="356.1"/>
		<line class="st10" x1="1041.3" y1="191.8" x2="1015.5" y2="166"/>
		<line class="st10" x1="1208.4" y1="360.7" x2="1179.8" y2="332"/>
		<line class="st10" x1="841.1" y1="191.3" x2="866.4" y2="166"/>
		<line class="st10" x1="677.2" y1="356.1" x2="703.3" y2="330.1"/>
		<line class="st10" x1="870.9" y1="166" x2="845.1" y2="191.8"/>
		<line class="st10" x1="705.8" y1="332" x2="677.2" y2="360.7"/>
		<line class="st10" x1="671" y1="159.8" x2="1214.7" y2="159.8"/>
		<line class="st10" x1="1205.2" y1="166" x2="1156" y2="166"/>
		<line class="st10" x1="1151.5" y1="166" x2="1143" y2="166"/>
		<line class="st10" x1="1138.5" y1="166" x2="1088" y2="166"/>
		<line class="st10" x1="1083.5" y1="166" x2="1075" y2="166"/>
		<line class="st10" x1="1070.5" y1="166" x2="1020" y2="166"/>
		<line class="st10" x1="1015.5" y1="166" x2="1006.9" y2="166"/>
		<line class="st10" x1="1002.4" y1="166" x2="952" y2="166"/>
		<line class="st10" x1="947.4" y1="166" x2="938.9" y2="166"/>
		<line class="st10" x1="934.4" y1="166" x2="883.9" y2="166"/>
		<line class="st10" x1="879.4" y1="166" x2="870.9" y2="166"/>
		<line class="st10" x1="866.4" y1="166" x2="815.9" y2="166"/>
		<line class="st10" x1="811.4" y1="166" x2="802.9" y2="166"/>
		<line class="st10" x1="798.3" y1="166" x2="747.9" y2="166"/>
		<line class="st10" x1="743.3" y1="166" x2="734.8" y2="166"/>
		<line class="st10" x1="730.3" y1="166" x2="680.4" y2="166"/>
		<line class="st10" x1="709.3" y1="190.8" x2="710.1" y2="190.8"/>
		<line class="st10" x1="1177.3" y1="191.8" x2="1172.4" y2="191.8"/>
		<line class="st10" x1="1149.8" y1="191.8" x2="1117.2" y2="191.8"/>
		<line class="st10" x1="1109.3" y1="191.8" x2="1049.2" y2="191.8"/>
		<line class="st10" x1="1041.3" y1="191.8" x2="988.1" y2="191.8"/>
		<line class="st10" x1="965.5" y1="191.8" x2="953.6" y2="191.8"/>
		<line class="st10" x1="932" y1="191.8" x2="913.1" y2="191.8"/>
		<line class="st10" x1="905.2" y1="191.8" x2="845.1" y2="191.8"/>
		<line class="st10" x1="837.2" y1="191.8" x2="777.1" y2="191.8"/>
		<line class="st10" x1="769.1" y1="191.8" x2="735.8" y2="191.8"/>
		<line class="st10" x1="713.3" y1="191.8" x2="708.3" y2="191.8"/>
		<line class="st10" x1="710.4" y1="196.3" x2="714.7" y2="196.3"/>
		<line class="st10" x1="734.4" y1="196.3" x2="937" y2="196.3"/>
		<line class="st10" x1="948.7" y1="196.3" x2="967" y2="196.3"/>
		<line class="st10" x1="986.6" y1="196.3" x2="1151.3" y2="196.3"/>
		<line class="st10" x1="1170.9" y1="196.3" x2="1175.3" y2="196.3"/>
		<line class="st10" x1="1199.7" y1="413.6" x2="1208.4" y2="422.3"/>
		<line class="st10" x1="952" y1="166" x2="968.7" y2="182.8"/>
		<line class="st10" x1="966.8" y1="185.4" x2="947.4" y2="166"/>
		<line class="st10" x1="1205.6" y1="425.1" x2="1197" y2="416.4"/>
		<line class="st10" x1="677.2" y1="422.4" x2="685.9" y2="413.7"/>
		<line class="st10" x1="688.7" y1="416.4" x2="680" y2="425.1"/>
		<line class="st10" x1="909.2" y1="191.3" x2="934.4" y2="166"/>
		<line class="st10" x1="938.9" y1="166" x2="913.1" y2="191.8"/>
		<line class="st10" x1="1117.6" y1="399.3" x2="1143.4" y2="425.1"/>
		<line class="st10" x1="883.9" y1="166" x2="909.2" y2="191.3"/>
		<line class="st10" x1="1138.9" y1="425.1" x2="1113.3" y2="399.4"/>
		<line class="st10" x1="905.2" y1="191.8" x2="879.4" y2="166"/>
		<line class="st10" x1="742.9" y1="425.1" x2="768.7" y2="399.3"/>
		<line class="st10" x1="985.3" y1="183.1" x2="1002.4" y2="166"/>
		<line class="st10" x1="773.1" y1="399.4" x2="747.4" y2="425.1"/>
		<line class="st10" x1="1006.9" y1="166" x2="987.1" y2="185.9"/>
		<line class="st10" x1="1049.6" y1="399.3" x2="1075.4" y2="425.1"/>
		<line class="st10" x1="815.9" y1="166" x2="841.1" y2="191.3"/>
		<line class="st10" x1="1070.9" y1="425.1" x2="1045.2" y2="399.4"/>
		<line class="st10" x1="837.2" y1="191.8" x2="811.4" y2="166"/>
		<line class="st10" x1="811" y1="425.1" x2="836.7" y2="399.3"/>
		<line class="st10" x1="1045.2" y1="191.3" x2="1070.5" y2="166"/>
		<line class="st10" x1="841.1" y1="399.4" x2="815.5" y2="425.1"/>
		<line class="st10" x1="1075" y1="166" x2="1049.2" y2="191.8"/>
		<line class="st10" x1="981.6" y1="399.3" x2="1007.4" y2="425.1"/>
		<line class="st10" x1="747.9" y1="166" x2="773.1" y2="191.3"/>
		<line class="st10" x1="1002.9" y1="425.1" x2="977.2" y2="399.4"/>
		<line class="st10" x1="769.1" y1="191.8" x2="743.3" y2="166"/>
		<line class="st10" x1="879" y1="425.1" x2="898.6" y2="405.5"/>
		<line class="st10" x1="1113.3" y1="191.3" x2="1138.5" y2="166"/>
		<line class="st10" x1="900.5" y1="408.1" x2="883.5" y2="425.1"/>
		<line class="st10" x1="1143" y1="166" x2="1117.2" y2="191.8"/>
		<line class="st10" x1="1175.3" y1="394.8" x2="1170.9" y2="394.8"/>
		<line class="st10" x1="1151.3" y1="394.8" x2="948.7" y2="394.8"/>
		<line class="st10" x1="937" y1="394.8" x2="918.6" y2="394.8"/>
		<line class="st10" x1="899" y1="394.8" x2="734.4" y2="394.8"/>
		<line class="st10" x1="714.7" y1="394.8" x2="710.4" y2="394.8"/>
		<line class="st10" x1="709.5" y1="399.3" x2="713.3" y2="399.3"/>
		<line class="st10" x1="735.8" y1="399.3" x2="768.7" y2="399.3"/>
		<line class="st10" x1="777.5" y1="399.3" x2="836.7" y2="399.3"/>
		<line class="st10" x1="845.5" y1="399.3" x2="897.5" y2="399.3"/>
		<line class="st10" x1="920.1" y1="399.3" x2="932" y2="399.3"/>
		<line class="st10" x1="953.6" y1="399.3" x2="972.8" y2="399.3"/>
		<line class="st10" x1="981.6" y1="399.3" x2="1040.8" y2="399.3"/>
		<line class="st10" x1="1049.6" y1="399.3" x2="1108.9" y2="399.3"/>
		<line class="st10" x1="1117.6" y1="399.3" x2="1149.8" y2="399.3"/>
		<line class="st10" x1="1172.4" y1="399.3" x2="1176.9" y2="399.3"/>
		<line class="st10" x1="919.2" y1="405" x2="939.3" y2="425.1"/>
		<line class="st10" x1="934.8" y1="425.1" x2="917.5" y2="407.7"/>
		<line class="st10" x1="680.4" y1="166" x2="688.9" y2="174.5"/>
		<line class="st10" x1="686.1" y1="177.2" x2="677.2" y2="168.3"/>
		<line class="st10" x1="1196.7" y1="174.5" x2="1205.2" y2="166"/>
		<line class="st10" x1="947" y1="425.1" x2="972.8" y2="399.3"/>
		<line class="st10" x1="977.2" y1="399.4" x2="951.5" y2="425.1"/>
		<line class="st10" x1="1208.4" y1="168.4" x2="1199.5" y2="177.2"/>
		<line class="st10" x1="680" y1="425.1" x2="730.7" y2="425.1"/>
		<line class="st10" x1="735.2" y1="425.1" x2="742.9" y2="425.1"/>
		<line class="st10" x1="747.4" y1="425.1" x2="798.8" y2="425.1"/>
		<line class="st10" x1="803.3" y1="425.1" x2="811" y2="425.1"/>
		<line class="st10" x1="815.5" y1="425.1" x2="866.8" y2="425.1"/>
		<line class="st10" x1="871.3" y1="425.1" x2="879" y2="425.1"/>
		<line class="st10" x1="883.5" y1="425.1" x2="934.8" y2="425.1"/>
		<line class="st10" x1="939.3" y1="425.1" x2="947" y2="425.1"/>
		<line class="st10" x1="951.5" y1="425.1" x2="1002.9" y2="425.1"/>
		<line class="st10" x1="1007.4" y1="425.1" x2="1015" y2="425.1"/>
		<line class="st10" x1="1019.6" y1="425.1" x2="1070.9" y2="425.1"/>
		<line class="st10" x1="1075.4" y1="425.1" x2="1083.1" y2="425.1"/>
		<line class="st10" x1="1087.6" y1="425.1" x2="1138.9" y2="425.1"/>
		<line class="st10" x1="1143.4" y1="425.1" x2="1151.1" y2="425.1"/>
		<line class="st10" x1="1155.6" y1="425.1" x2="1205.6" y2="425.1"/>
		<line class="st10" x1="1214.7" y1="431.3" x2="671" y2="431.3"/>
		<line class="st10" x1="677.2" y1="230.6" x2="705.8" y2="259.2"/>
		<line class="st10" x1="845.5" y1="399.3" x2="871.3" y2="425.1"/>
		<line class="st10" x1="1179.8" y1="259.2" x2="1208.4" y2="230.6"/>
		<line class="st10" x1="1015" y1="425.1" x2="1040.8" y2="399.3"/>
		<line class="st10" x1="703.3" y1="261.2" x2="696.6" y2="254.5"/>
		<line class="st10" x1="691.9" y1="249.8" x2="677.2" y2="235.1"/>
		<line class="st10" x1="866.8" y1="425.1" x2="841.1" y2="399.4"/>
		<line class="st10" x1="1208.4" y1="235.1" x2="1182.3" y2="261.2"/>
		<line class="st10" x1="1045.2" y1="399.4" x2="1019.6" y2="425.1"/>
		<line class="st10" x1="777.5" y1="399.3" x2="803.3" y2="425.1"/>
		<line class="st10" x1="677.2" y1="299.5" x2="705.8" y2="328.1"/>
		<line class="st10" x1="798.8" y1="425.1" x2="773.1" y2="399.4"/>
		<line class="st10" x1="703.3" y1="330.1" x2="677.2" y2="304"/>
		<line class="st10" x1="1179.8" y1="328.1" x2="1208.4" y2="299.5"/>
		<line class="st10" x1="1083.1" y1="425.1" x2="1108.9" y2="399.3"/>
		<line class="st10" x1="1208.4" y1="304" x2="1182.3" y2="330.1"/>
		<line class="st10" x1="1113.3" y1="399.4" x2="1087.6" y2="425.1"/>
		<line class="st10" x1="709.5" y1="399.3" x2="713.6" y2="403.5"/>
		<line class="st10" x1="721.5" y1="411.4" x2="735.2" y2="425.1"/>
		<line class="st10" x1="677.2" y1="368.3" x2="705.8" y2="397"/>
		<line class="st10" x1="730.7" y1="425.1" x2="708.5" y2="402.9"/>
		<line class="st10" x1="697.8" y1="393.5" x2="677.2" y2="372.8"/>
		<line class="st10" x1="1175.3" y1="196.3" x2="1175.3" y2="394.8"/>
		<line class="st10" x1="1179.8" y1="397" x2="1179.8" y2="332"/>
		<line class="st10" x1="1179.8" y1="328.1" x2="1179.8" y2="263.1"/>
		<line class="st10" x1="1179.8" y1="259.2" x2="1179.8" y2="194.3"/>
		<line class="st10" x1="1151.1" y1="425.1" x2="1165.2" y2="411"/>
		<line class="st10" x1="1171.6" y1="404.6" x2="1176.9" y2="399.3"/>
		<line class="st10" x1="1179.8" y1="397" x2="1208.4" y2="368.3"/>
		<line class="st10" x1="1176.9" y1="403.9" x2="1155.6" y2="425.1"/>
		<line class="st10" x1="1208.4" y1="372.8" x2="1187.8" y2="393.5"/>
		<line class="st10" x1="1192.3" y1="337.7" x2="1192.3" y2="334.5"/>
		<line class="st10" x1="1192.3" y1="338.5" x2="1192.3" y2="341.6"/>
		<line class="st10" x1="1208.4" y1="422.3" x2="1208.4" y2="372.8"/>
		<line class="st10" x1="1208.4" y1="368.3" x2="1208.4" y2="360.7"/>
		<line class="st10" x1="1208.4" y1="356.1" x2="1208.4" y2="304"/>
		<line class="st10" x1="1208.4" y1="299.5" x2="1208.4" y2="291.8"/>
		<line class="st10" x1="1208.4" y1="287.3" x2="1208.4" y2="235.1"/>
		<line class="st10" x1="1208.4" y1="230.6" x2="1208.4" y2="222.9"/>
		<line class="st10" x1="1208.4" y1="218.4" x2="1208.4" y2="168.4"/>
		<line class="st10" x1="1214.7" y1="159.8" x2="1214.7" y2="431.3"/>
		<path class="st10" d="M708.7,187.6c1.5-6.9-2.9-13.7-9.8-15.1c-3.4-0.7-7,0-9.9,2"/>
		<path class="st10" d="M686.1,177.2c-4.3,5.6-3.3,13.6,2.3,17.9c2.7,2.1,6.2,3,9.5,2.5"/>
		<path class="st10" d="M735.8,191.8c0.6-6.2-3.9-11.8-10.1-12.4c-1.6-0.2-3.2,0-4.8,0.5"/>
		<path class="st10" d="M713.8,187c-0.5,1.5-0.7,3.2-0.5,4.8"/>
		<path class="st10" d="M714.7,196.3c3.1,5.4,10.1,7.3,15.5,4.2c1.7-1,3.2-2.4,4.2-4.2"/>
		<path class="st10" d="M693.4,249.5c2,0,3.5,1.6,3.5,3.5s-1.6,3.5-3.5,3.5c-2,0-3.5-1.6-3.5-3.5S691.4,249.5,693.4,249.5
			L693.4,249.5z"/>
		<path class="st10" d="M693.4,252.6c0.2,0,0.4,0.2,0.4,0.4c0,0.2-0.2,0.4-0.4,0.4s-0.4-0.2-0.4-0.4
			C693,252.8,693.1,252.6,693.4,252.6L693.4,252.6z"/>
		<path class="st10" d="M937,196.3c3.7,1.9,8,1.9,11.7,0"/>
		<path class="st10" d="M953.6,191.8c3.8-6,2-13.8-4-17.6s-13.8-2-17.6,4c-2.6,4.2-2.6,9.4,0,13.6"/>
		<path class="st10" d="M1196.7,174.5c-5.8-4-13.7-2.6-17.8,3.2c-1.8,2.6-2.6,5.9-2.2,9"/>
		<path class="st10" d="M1187.7,197.6c7,1,13.4-3.9,14.4-10.9c0.5-3.4-0.4-6.8-2.5-9.5"/>
		<path class="st10" d="M1172.4,191.8c0.2-2.1-0.2-4.1-1.1-6"/>
		<path class="st10" d="M988.1,191.8c0.2-2-0.1-4.1-1-5.9"/>
		<path class="st10" d="M1166,180.4c-5.7-2.7-12.4-0.3-15.1,5.3c-0.9,1.9-1.3,4-1.1,6"/>
		<path class="st10" d="M985.3,183.1c-4.2-4.7-11.3-5.1-16-0.9c-0.2,0.2-0.4,0.4-0.6,0.6"/>
		<path class="st10" d="M1151.3,196.3c3.1,5.4,10.1,7.3,15.5,4.2c1.7-1,3.2-2.4,4.2-4.2"/>
		<path class="st10" d="M967,196.3c3.1,5.4,10.1,7.3,15.5,4.2c1.7-1,3.2-2.4,4.2-4.2"/>
		<path class="st10" d="M966.8,185.4c-1,2-1.5,4.2-1.3,6.4"/>
		<path class="st10" d="M976.8,183.6c3.9,0,7.1,3.2,7.1,7.1c0,3.9-3.2,7.1-7.1,7.1s-7.1-3.2-7.1-7.1S972.9,183.6,976.8,183.6
			L976.8,183.6z"/>
		<path class="st10" d="M697.8,393.5c-7-0.9-13.4,4-14.3,11c-0.4,3.2,0.4,6.5,2.4,9.2"/>
		<path class="st10" d="M688.7,416.4c5.7,4.2,13.7,2.9,17.8-2.8c2.3-3.1,3-7,2.1-10.7"/>
		<path class="st10" d="M713.3,399.3c-0.1,1.4,0,2.8,0.4,4.2"/>
		<path class="st10" d="M721.5,411.4c6,1.7,12.3-1.9,14-7.9c0.4-1.4,0.5-2.8,0.4-4.2"/>
		<path class="st10" d="M897.5,399.3c-0.2,2.1,0.2,4.2,1.1,6.2"/>
		<path class="st10" d="M900.5,408.1c4.2,4.6,11.4,4.9,16,0.6c0.3-0.3,0.7-0.7,1-1"/>
		<path class="st10" d="M734.4,394.8c-3.1-5.4-10.1-7.3-15.5-4.2c-1.7,1-3.2,2.4-4.2,4.2"/>
		<path class="st10" d="M918.6,394.8c-3.1-5.4-10.1-7.3-15.5-4.2c-1.7,1-3.2,2.4-4.2,4.2"/>
		<path class="st10" d="M919.2,405c0.8-1.8,1.1-3.7,0.9-5.7"/>
		<path class="st10" d="M908.8,393.4c3.9,0,7.1,3.2,7.1,7.1s-3.2,7.1-7.1,7.1s-7.1-3.2-7.1-7.1S904.9,393.4,908.8,393.4L908.8,393.4
			z"/>
		<path class="st10" d="M948.7,394.8c-3.7-1.9-8-1.9-11.7,0"/>
		<path class="st10" d="M932,399.3c-3.8,6-2,13.8,4,17.6c6,3.8,13.8,2,17.6-4c2.6-4.2,2.6-9.4,0-13.6"/>
		<path class="st10" d="M1176.9,403.9c-1.2,6.9,3.4,13.6,10.3,14.8c3.4,0.6,7-0.2,9.8-2.3"/>
		<path class="st10" d="M1199.7,413.6c4.2-5.7,2.9-13.7-2.8-17.8c-2.6-1.9-5.9-2.8-9.1-2.4"/>
		<path class="st10" d="M1149.8,399.3c-0.6,6.2,3.9,11.8,10.1,12.4c1.8,0.2,3.6-0.1,5.3-0.7"/>
		<path class="st10" d="M1171.6,404.6c0.7-1.7,0.9-3.5,0.7-5.3"/>
		<path class="st10" d="M1170.9,394.8c-3.1-5.4-10.1-7.3-15.5-4.2c-1.7,1-3.2,2.4-4.2,4.2"/>
		<path class="st10" d="M1192.3,334.5c2,0,3.5,1.6,3.5,3.5c0,2-1.6,3.5-3.5,3.5s-3.5-1.6-3.5-3.5
			C1188.7,336.1,1190.3,334.5,1192.3,334.5L1192.3,334.5z"/>
		<path class="st10" d="M1192.3,337.7c0.2,0,0.4,0.2,0.4,0.4c0,0.2-0.2,0.4-0.4,0.4c-0.2,0-0.4-0.2-0.4-0.4S1192,337.7,1192.3,337.7
			L1192.3,337.7z"/>
		<path class="st10" d="M1189.4,199.2c6.3,0,11.3,5.1,11.3,11.3s-5.1,11.3-11.3,11.3c-6.2,0-11.3-5.1-11.3-11.3
			S1183.2,199.2,1189.4,199.2L1189.4,199.2z"/>
		<path class="st10" d="M1189.4,369.3c6.3,0,11.3,5.1,11.3,11.3c0,6.3-5.1,11.3-11.3,11.3c-6.2,0-11.3-5-11.3-11.3
			S1183.2,369.3,1189.4,369.3L1189.4,369.3z"/>
		<path class="st10" d="M696.2,369.3c6.3,0,11.3,5.1,11.3,11.3c0,6.3-5.1,11.3-11.3,11.3c-6.3,0-11.3-5.1-11.3-11.3
			C684.9,374.3,689.9,369.3,696.2,369.3L696.2,369.3z"/>
		<path class="st10" d="M696.2,199.2c6.3,0,11.3,5.1,11.3,11.3s-5,11.4-11.3,11.4s-11.3-5.1-11.3-11.3S689.9,199.2,696.2,199.2
			L696.2,199.2z"/>
		<g id="ARC_18_">
			<path class="st11" d="M904.5,400.4c0,2.3,1.9,4.3,4.3,4.3c2.4,0,4.3-1.9,4.3-4.3s-1.9-4.3-4.3-4.3"/>
		</g>
		<g id="LINE_24_">
			<line class="st12" x1="908.8" y1="395.8" x2="908.8" y2="405.1"/>
		</g>
		<g id="LINE_23_">
			<line class="st12" x1="904.1" y1="400.4" x2="913.5" y2="400.4"/>
		</g>
		<g id="CIRCLE_18_">
			<path class="st13" d="M908.8,396.9c2,0,3.5,1.6,3.5,3.5s-1.6,3.5-3.5,3.5s-3.5-1.6-3.5-3.5S906.8,396.9,908.8,396.9L908.8,396.9z
				"/>
		</g>
		<g id="TEXT_18_">
			<text transform="matrix(0 1 -1 0 906.668 398.9611)" class="st14 st15 st16">M3</text>
		</g>
		<g id="ARC_17_">
			<path class="st11" d="M972.6,190.7c0,2.3,1.9,4.3,4.3,4.3s4.3-1.9,4.3-4.3s-1.9-4.3-4.3-4.3"/>
		</g>
		<g id="LINE_22_">
			<line class="st12" x1="976.8" y1="186" x2="976.8" y2="195.4"/>
		</g>
		<g id="LINE_21_">
			<line class="st12" x1="972.1" y1="190.7" x2="981.5" y2="190.7"/>
		</g>
		<g id="CIRCLE_17_">
			<path class="st13" d="M976.8,187.1c2,0,3.5,1.6,3.5,3.5c0,2-1.6,3.5-3.5,3.5s-3.5-1.6-3.5-3.5S974.9,187.1,976.8,187.1
				L976.8,187.1z"/>
		</g>
		<g id="TEXT_17_">
			<text transform="matrix(0 1 -1 0 974.6992 189.1973)" class="st14 st15 st16">M3</text>
		</g>
		<g id="ARC_16_">
			<path class="st11" d="M691.9,210.5c0,2.3,1.9,4.3,4.3,4.3c2.4,0,4.3-1.9,4.3-4.3c0-2.4-1.9-4.3-4.3-4.3"/>
		</g>
		<g id="LINE_20_">
			<line class="st12" x1="696.2" y1="205.8" x2="696.2" y2="215.2"/>
		</g>
		<g id="LINE_19_">
			<line class="st12" x1="691.5" y1="210.5" x2="700.9" y2="210.5"/>
		</g>
		<g id="CIRCLE_16_">
			<path class="st13" d="M696.2,207c2,0,3.5,1.6,3.5,3.5s-1.6,3.5-3.5,3.5s-3.5-1.6-3.5-3.5S694.2,207,696.2,207L696.2,207z"/>
		</g>
		<g id="TEXT_16_">
			<text transform="matrix(0 1 -1 0 694.0703 209.0401)" class="st14 st15 st16">M3</text>
		</g>
		<g id="ARC_15_">
			<path class="st11" d="M691.9,380.6c0,2.3,1.9,4.3,4.3,4.3c2.4,0,4.3-1.9,4.3-4.3s-1.9-4.3-4.3-4.3"/>
		</g>
		<g id="LINE_18_">
			<line class="st12" x1="696.2" y1="375.9" x2="696.2" y2="385.3"/>
		</g>
		<g id="LINE_17_">
			<line class="st12" x1="691.5" y1="380.6" x2="700.9" y2="380.6"/>
		</g>
		<g id="CIRCLE_15_">
			<path class="st13" d="M696.2,377.1c2,0,3.5,1.6,3.5,3.5s-1.6,3.5-3.5,3.5s-3.5-1.6-3.5-3.5S694.2,377.1,696.2,377.1L696.2,377.1z
				"/>
		</g>
		<g id="TEXT_15_">
			<text transform="matrix(0 1 -1 0 694.0703 379.1182)" class="st14 st15 st16">M3</text>
		</g>
		<g id="ARC_14_">
			<path class="st11" d="M1185.2,210.5c0,2.3,1.9,4.3,4.3,4.3c2.3,0,4.3-1.9,4.3-4.3c0-2.4-1.9-4.3-4.3-4.3"/>
		</g>
		<g id="LINE_16_">
			<line class="st12" x1="1189.4" y1="205.8" x2="1189.4" y2="215.2"/>
		</g>
		<g id="LINE_15_">
			<line class="st12" x1="1184.7" y1="210.5" x2="1194.1" y2="210.5"/>
		</g>
		<g id="CIRCLE_14_">
			<path class="st13" d="M1189.4,207c2,0,3.5,1.6,3.5,3.5s-1.6,3.5-3.5,3.5s-3.5-1.6-3.5-3.5S1187.5,207,1189.4,207L1189.4,207z"/>
		</g>
		<g id="TEXT_14_">
			<text transform="matrix(0 1 -1 0 1187.2969 209.0401)" class="st14 st15 st16">M3</text>
		</g>
		<g id="ARC_13_">
			<path class="st11" d="M1185.2,380.6c0,2.3,1.9,4.3,4.3,4.3s4.3-1.9,4.3-4.3s-1.9-4.3-4.3-4.3"/>
		</g>
		<g id="LINE_14_">
			<line class="st12" x1="1189.4" y1="375.9" x2="1189.4" y2="385.3"/>
		</g>
		<g id="LINE_13_">
			<line class="st12" x1="1184.7" y1="380.6" x2="1194.1" y2="380.6"/>
		</g>
		<g id="CIRCLE_13_">
			<path class="st13" d="M1189.4,377.1c2,0,3.5,1.6,3.5,3.5s-1.6,3.5-3.5,3.5s-3.5-1.6-3.5-3.5S1187.5,377.1,1189.4,377.1
				L1189.4,377.1z"/>
		</g>
		<g id="TEXT_13_">
			<text transform="matrix(0 1 -1 0 1187.2969 379.1182)" class="st14 st15 st16">M3</text>
		</g>
		<g id="POINT_141_">
			<line class="st17" x1="1192.3" y1="338.1" x2="1192.3" y2="338.1"/>
		</g>
		<g id="POINT_140_">
			<line class="st17" x1="1192.2" y1="352.6" x2="1192.2" y2="352.6"/>
		</g>
		<g id="POINT_139_">
			<line class="st17" x1="942.8" y1="295.6" x2="942.8" y2="295.6"/>
		</g>
		<g id="POINT_138_">
			<line class="st17" x1="1192.3" y1="338.1" x2="1192.3" y2="338.1"/>
		</g>
		<g id="POINT_133_">
			<line class="st17" x1="942.8" y1="295.6" x2="942.8" y2="295.6"/>
		</g>
		<g id="POINT_118_">
			<line class="st17" x1="693.4" y1="253" x2="693.4" y2="253"/>
		</g>
		<g id="POINT_115_">
			<line class="st17" x1="693.3" y1="279.2" x2="693.3" y2="279.2"/>
		</g>
		<g id="POINT_112_">
			<line class="st17" x1="942.8" y1="295.6" x2="942.8" y2="295.6"/>
		</g>
		<g id="POINT_109_">
			<line class="st17" x1="693.4" y1="253" x2="693.4" y2="253"/>
		</g>
		<g id="POINT_107_">
			<line class="st17" x1="664.7" y1="253.1" x2="664.7" y2="253.1"/>
		</g>
		<g id="POINT_106_">
			<line class="st17" x1="942.8" y1="295.6" x2="942.8" y2="295.6"/>
		</g>
		<g id="POINT_105_">
			<line class="st17" x1="696.2" y1="406.1" x2="696.2" y2="406.1"/>
		</g>
		<g id="POINT_104_">
			<line class="st17" x1="661.2" y1="406.1" x2="661.2" y2="406.1"/>
		</g>
		<g id="POINT_103_">
			<line class="st17" x1="942.8" y1="295.6" x2="942.8" y2="295.6"/>
		</g>
		<g id="POINT_102_">
			<line class="st17" x1="696.2" y1="185" x2="696.2" y2="185"/>
		</g>
		<g id="POINT_101_">
			<line class="st17" x1="666" y1="184.9" x2="666" y2="184.9"/>
		</g>
		<g id="POINT_100_">
			<line class="st17" x1="942.8" y1="295.6" x2="942.8" y2="295.6"/>
		</g>
		<g id="POINT_99_">
			<line class="st17" x1="908.8" y1="400.4" x2="908.8" y2="400.4"/>
		</g>
		<g id="POINT_98_">
			<line class="st17" x1="942.8" y1="295.6" x2="942.8" y2="295.6"/>
		</g>
		<g id="POINT_97_">
			<line class="st17" x1="942.8" y1="185" x2="942.8" y2="185"/>
		</g>
		<g id="POINT_96_">
			<line class="st17" x1="942.8" y1="295.6" x2="942.8" y2="295.6"/>
		</g>
		<g id="POINT_95_">
			<line class="st17" x1="976.8" y1="190.7" x2="976.8" y2="190.7"/>
		</g>
		<g id="POINT_94_">
			<line class="st17" x1="942.8" y1="295.6" x2="942.8" y2="295.6"/>
		</g>
		<g id="POINT_93_">
			<line class="st17" x1="942.8" y1="185" x2="942.8" y2="185"/>
		</g>
		<g id="POINT_92_">
			<line class="st17" x1="942.8" y1="295.6" x2="942.8" y2="295.6"/>
		</g>
		<g id="POINT_91_">
			<line class="st17" x1="942.8" y1="406.1" x2="942.8" y2="406.1"/>
		</g>
		<g id="POINT_90_">
			<line class="st17" x1="942.8" y1="295.6" x2="942.8" y2="295.6"/>
		</g>
		<g id="POINT_89_">
			<line class="st17" x1="1214.7" y1="159.8" x2="1214.7" y2="159.8"/>
		</g>
		<g id="POINT_88_">
			<line class="st17" x1="1214.7" y1="431.3" x2="1214.7" y2="431.3"/>
		</g>
		<g id="POINT_87_">
			<line class="st17" x1="1214.7" y1="431.3" x2="1214.7" y2="431.3"/>
		</g>
		<g id="POINT_86_">
			<line class="st17" x1="671" y1="431.3" x2="671" y2="431.3"/>
		</g>
		<g id="POINT_85_">
			<line class="st17" x1="1189.4" y1="210.5" x2="1189.4" y2="210.5"/>
		</g>
		<g id="POINT_84_">
			<line class="st17" x1="942.8" y1="295.6" x2="942.8" y2="295.6"/>
		</g>
		<g id="POINT_83_">
			<line class="st17" x1="1189.4" y1="380.6" x2="1189.4" y2="380.6"/>
		</g>
		<g id="POINT_82_">
			<line class="st17" x1="1223.6" y1="380.7" x2="1223.6" y2="380.7"/>
		</g>
		<g id="POINT_81_">
			<line class="st17" x1="942.8" y1="295.6" x2="942.8" y2="295.6"/>
		</g>
		<g id="POINT_80_">
			<line class="st17" x1="1189.4" y1="210.5" x2="1189.4" y2="210.5"/>
		</g>
		<g id="POINT_79_">
			<line class="st17" x1="942.8" y1="295.6" x2="942.8" y2="295.6"/>
		</g>
		<g id="POINT_78_">
			<line class="st17" x1="1189.4" y1="380.6" x2="1189.4" y2="380.6"/>
		</g>
		<g id="POINT_76_">
			<line class="st17" x1="942.8" y1="295.6" x2="942.8" y2="295.6"/>
		</g>
		<g id="POINT_72_">
			<line class="st17" x1="696.2" y1="380.6" x2="696.2" y2="380.6"/>
		</g>
		<g id="POINT_71_">
			<line class="st17" x1="942.8" y1="295.6" x2="942.8" y2="295.6"/>
		</g>
		<g id="POINT_70_">
			<line class="st17" x1="696.2" y1="210.5" x2="696.2" y2="210.5"/>
		</g>
		<g id="POINT_69_">
			<line class="st17" x1="942.8" y1="295.6" x2="942.8" y2="295.6"/>
		</g>
		<g id="POINT_68_">
			<line class="st17" x1="976.8" y1="190.7" x2="976.8" y2="190.7"/>
		</g>
		<g id="POINT_67_">
			<line class="st17" x1="1009.9" y1="211.2" x2="1009.9" y2="211.2"/>
		</g>
		<g id="POINT_66_">
			<line class="st17" x1="908.8" y1="400.4" x2="908.8" y2="400.4"/>
		</g>
		<circle class="st3" cx="696.2" cy="210.5" r="6.1"/>
		<circle class="st3" cx="693.4" cy="253" r="4.3"/>
		<circle class="st3" cx="696.2" cy="380.6" r="6.1"/>
		<circle class="st3" cx="1189.4" cy="210.5" r="6.1"/>
		<circle class="st3" cx="1189.5" cy="380.6" r="6.1"/>
		<circle class="st3" cx="1192.3" cy="338" r="4.3"/>
		<circle class="st3" cx="976.9" cy="190.6" r="6.1"/>
		<circle class="st3" cx="908.8" cy="400.4" r="6.1"/>
		<g id="LWPOLYLINE_8_">
			<path class="st3" d="M732.7,335.8h31.2c1.6,0,2.8-1.3,2.8-2.8v-82.2c0-1.6-1.3-2.8-2.8-2.8h-31.2c-1.6,0-2.8,1.3-2.8,2.8V333
				C729.8,334.4,731.1,335.8,732.7,335.8z"/>
		</g>
		<g id="LWPOLYLINE_7_">
			<path class="st3" d="M1011.3,260.9c0-1.7-1.3-3-2.8-3h-62.4c-1.6,0-2.8,1.4-2.8,3v41.9c0,1.7,1.3,3,2.8,3h62.4
				c1.6,0,2.8-1.4,2.8-3V260.9z"/>
		</g>
	</g>
</g>
</svg>
