<?xml version="1.0" encoding="utf-8"?>
<!-- Generator: Adobe Illustrator 23.0.3, SVG Export Plug-In . SVG Version: 6.00 Build 0)  -->
<svg version="1.1" id="Layer_1" xmlns="http://www.w3.org/2000/svg" xmlns:xlink="http://www.w3.org/1999/xlink" x="0px" y="0px"
	 viewBox="0 0 1440 864" style="enable-background:new 0 0 1440 864;" xml:space="preserve">
<style type="text/css">
	.st0{fill:none;stroke:#ED2224;stroke-width:0.1;stroke-miterlimit:22.9256;}
	.st1{fill:none;stroke:#ED2224;stroke-width:0.1;stroke-miterlimit:10;}
	.st2{fill:none;stroke:#3A53A4;stroke-width:0.1;stroke-miterlimit:10;}
	.st3{fill:none;stroke:#2BACE2;stroke-width:0.1;stroke-miterlimit:10;}
	.st4{fill:#2BACE2;}
	.st5{fill:none;stroke:#010101;stroke-width:0.1;stroke-linecap:round;stroke-linejoin:round;stroke-miterlimit:10;}
	.st6{fill:none;stroke:#010101;stroke-width:0.1;stroke-miterlimit:22.9256;}
</style>
<g id="Panel_Mount_2">
	<polyline class="st0" points="238.2,419.1 229.7,419.1 229.7,293.9 898.9,293.5 	"/>
	<line class="st1" x1="891.5" y1="511.1" x2="900.2" y2="511.1"/>
	<g>
		<line class="st1" x1="230" y1="511" x2="238.5" y2="511"/>
		<g>
			<line class="st1" x1="229.8" y1="454.1" x2="229.8" y2="511"/>
			<g>
				<g id="New_Side_1_">
					<path class="st1" d="M238.4,454.3"/>
					<line class="st0" x1="238.4" y1="454.2" x2="238.4" y2="419.1"/>
					<path class="st1" d="M229.9,398"/>
					<path class="st1" d="M229.7,293.5"/>
					<path class="st1" d="M229.7,418.8"/>
					<path class="st1" d="M890.3,454.3"/>
					<path class="st1" d="M890.3,454.3"/>
					<path class="st1" d="M898.9,293.1"/>
				</g>
				<line class="st1" x1="891.4" y1="454.1" x2="900.1" y2="454.1"/>
				<path class="st1" d="M899,511"/>
				<path class="st1" d="M899.1,454.1"/>
			</g>
		</g>
	</g>
	<line class="st0" x1="238.5" y1="564.9" x2="891.2" y2="564.8"/>
	<line class="st1" x1="900.2" y1="454.2" x2="900.2" y2="511.1"/>
	<line class="st0" x1="891.5" y1="454.1" x2="891.5" y2="418.9"/>
	<line class="st1" x1="899.1" y1="419.2" x2="899.1" y2="293.2"/>
	<line class="st0" x1="891.2" y1="564.8" x2="891.2" y2="511"/>
	<line class="st1" x1="891.5" y1="419.2" x2="899.1" y2="419.2"/>
	<line class="st0" x1="229.8" y1="454.1" x2="238.4" y2="454.3"/>
	<line class="st0" x1="238.5" y1="511" x2="238.5" y2="564.9"/>
	<line class="st2" x1="651.4" y1="512.5" x2="651.4" y2="321.7"/>
	<g>
		<g>
			<line class="st3" x1="851.1" y1="409.5" x2="851.1" y2="490.3"/>
			<g>
				<path class="st4" d="M854.6,410.1c-1.5-0.9-2.6-2.2-3.5-3.7c-0.9,1.5-2.1,2.8-3.5,3.7v0.9c1.4-0.9,2.6-2,3.5-3.4
					c0.9,1.4,2.2,2.5,3.5,3.4V410.1z"/>
				<path class="st4" d="M854.6,412.1c-1.5-0.9-2.6-2.2-3.5-3.7c-0.9,1.5-2.1,2.8-3.5,3.7v0.9c1.4-0.9,2.6-2,3.5-3.4
					c0.9,1.4,2.2,2.5,3.5,3.4V412.1z"/>
			</g>
		</g>
	</g>
	<g>
		<g>
			<line class="st3" x1="814.8" y1="373.9" x2="853.8" y2="351.2"/>
			<g>
				<path class="st4" d="M814,371.3c0,1.3-0.5,2.5-1.1,3.6c1.1,0.1,2.3,0.4,3.3,1.1l0.5-0.3c-0.9-0.6-2-1-3.1-1.2
					c0.5-1,0.8-2.2,0.9-3.5L814,371.3z"/>
				<path class="st4" d="M815.2,370.7c0,1.3-0.5,2.5-1.1,3.6c1.1,0.1,2.3,0.4,3.3,1.1l0.5-0.3c-0.9-0.6-2-1-3.1-1.2
					c0.5-1,0.8-2.2,0.9-3.5L815.2,370.7z"/>
			</g>
		</g>
	</g>
	<g>
		<path class="st4" d="M855.4,328c0.5-0.1,1.2-0.2,2-0.2c1,0,1.8,0.2,2.3,0.7c0.4,0.4,0.7,1,0.7,1.7s-0.2,1.3-0.6,1.7
			c-0.6,0.6-1.5,0.9-2.5,0.9c-0.3,0-0.6,0-0.8-0.1v3.2h-1L855.4,328L855.4,328L855.4,328z M856.5,331.8c0.2,0.1,0.5,0.1,0.9,0.1
			c1.3,0,2-0.6,2-1.7s-0.8-1.6-1.9-1.6c-0.5,0-0.8,0-1,0.1V331.8z"/>
		<path class="st4" d="M862.9,327.8v8.1h-1v-8.1H862.9z"/>
		<path class="st4" d="M869.1,336l-1-1.8c-0.4-0.7-0.7-1.1-0.9-1.6l0,0c-0.2,0.5-0.5,0.9-0.9,1.6l-1,1.8h-1.2l2.5-4.1l-2.4-4h1.2
			l1.1,1.9c0.3,0.5,0.5,0.9,0.7,1.4l0,0c0.2-0.5,0.4-0.9,0.7-1.4l1.1-1.9h1.2l-2.5,3.9l2.5,4.1L869.1,336L869.1,336z"/>
		<path class="st4" d="M875.7,332.2h-3.1v2.9h3.5v0.9h-4.5v-8.1h4.4v0.9h-3.3v2.6h3.1L875.7,332.2L875.7,332.2L875.7,332.2z"/>
		<path class="st4" d="M877.4,327.8h1v7.2h3.5v0.9h-4.5V327.8z"/>
		<path class="st4" d="M860.2,342.2v4.8c0,1.8,0.8,2.6,1.9,2.6c1.2,0,2-0.8,2-2.6v-4.8h1.1v4.7c0,2.5-1.3,3.5-3.1,3.5
			c-1.7,0-2.9-0.9-2.9-3.5v-4.7H860.2L860.2,342.2z"/>
		<path class="st4" d="M866.8,349.1c0.5,0.3,1.2,0.5,1.9,0.5c1.1,0,1.7-0.6,1.7-1.4s-0.4-1.2-1.5-1.6c-1.3-0.5-2.1-1.2-2.1-2.3
			c0-1.3,1-2.2,2.6-2.2c0.8,0,1.4,0.2,1.8,0.4l-0.3,0.9c-0.3-0.1-0.8-0.4-1.5-0.4c-1.1,0-1.5,0.7-1.5,1.2c0,0.8,0.5,1.1,1.6,1.6
			c1.4,0.5,2.1,1.2,2.1,2.4s-0.9,2.3-2.8,2.3c-0.8,0-1.6-0.2-2.1-0.5L866.8,349.1z"/>
		<path class="st4" d="M872.9,342.3c0.5-0.1,1.2-0.2,1.9-0.2c1,0,1.7,0.2,2.2,0.6c0.4,0.3,0.7,0.8,0.7,1.4c0,0.8-0.5,1.5-1.4,1.8
			l0,0c0.8,0.2,1.7,0.8,1.7,2c0,0.7-0.3,1.2-0.7,1.6c-0.6,0.5-1.5,0.8-2.8,0.8c-0.7,0-1.3,0-1.6-0.1L872.9,342.3L872.9,342.3z
			 M873.9,345.7h0.9c1.1,0,1.8-0.6,1.8-1.4c0-0.9-0.7-1.3-1.8-1.3c-0.5,0-0.8,0-0.9,0.1V345.7z M873.9,349.6c0.2,0,0.5,0,0.9,0
			c1.1,0,2.1-0.4,2.1-1.6c0-1.1-0.9-1.6-2.1-1.6h-0.9V349.6z"/>
	</g>
	<g>
		<path class="st4" d="M721.1,470.3c-1.1,0.1-2.5,0.1-3.5,0.1l0,0c0.9,0.3,2,0.6,3.1,1l3.9,1.4v0.9l-3.8,1.3
			c-1.1,0.4-2.2,0.7-3.1,0.9l0,0c1,0,2.4,0.1,3.6,0.2l3.5,0.2v1l-8.1-0.6v-1.3l3.9-1.4c1-0.3,1.9-0.6,2.7-0.8l0,0
			c-0.8-0.2-1.7-0.5-2.7-0.9l-3.9-1.4v-1.3l8.1-0.5v1L721.1,470.3z"/>
		<path class="st4" d="M721.7,462.2c2.1,0,3.1,1.5,3.1,2.9c0,1.6-1.2,2.8-3,2.8c-1.9,0-3.1-1.3-3.1-2.9
			C718.7,463.3,719.9,462.2,721.7,462.2z M721.7,466.8c1.3,0,2.2-0.7,2.2-1.8c0-1-0.9-1.8-2.3-1.8c-1,0-2.2,0.5-2.2,1.7
			C719.6,466.3,720.6,466.8,721.7,466.8z"/>
		<path class="st4" d="M723.1,456c0.6,0,1.1,0,1.6,0v0.9l-0.9,0.1l0,0c0.5,0.3,1.1,0.9,1.1,1.9c0,0.9-0.5,2-2.5,2H719v-1.1h3.2
			c1.1,0,1.8-0.3,1.8-1.3c0-0.7-0.5-1.2-1-1.4c-0.2-0.1-0.3-0.1-0.5-0.1h-3.6v-1.1L723.1,456L723.1,456L723.1,456z"/>
		<path class="st4" d="M720.4,454.3c-0.6,0-1.1,0-1.6,0v-0.9l1-0.1l0,0c-0.6-0.3-1.1-1-1.1-1.9c0-0.8,0.5-2.1,2.5-2.1h3.5v1.1h-3.3
			c-0.9,0-1.7,0.3-1.7,1.3c0,0.7,0.5,1.2,1.1,1.4c0.1,0,0.3,0.1,0.5,0.1h3.5v1.1L720.4,454.3L720.4,454.3z"/>
		<path class="st4" d="M717.1,446.4h1.7v-1.5h0.8v1.5h3.1c0.7,0,1.1-0.2,1.1-0.8c0-0.3,0-0.5-0.1-0.6h0.8c0.1,0.2,0.1,0.5,0.1,0.9
			c0,0.5-0.2,0.9-0.4,1.1c-0.3,0.3-0.8,0.4-1.5,0.4h-3.2v0.9h-0.8v-0.9h-1.4L717.1,446.4z"/>
		<path class="st4" d="M716.6,441.1c-0.1-0.5-0.2-1.2-0.2-2c0-1,0.2-1.8,0.7-2.3c0.4-0.4,1-0.7,1.7-0.7s1.3,0.2,1.7,0.6
			c0.6,0.6,0.9,1.5,0.9,2.5c0,0.3,0,0.6-0.1,0.8h3.2v1L716.6,441.1L716.6,441.1L716.6,441.1z M720.6,440c0.1-0.2,0.1-0.5,0.1-0.9
			c0-1.3-0.6-2-1.7-2s-1.6,0.8-1.6,1.9c0,0.5,0,0.8,0.1,1H720.6z"/>
		<path class="st4" d="M716.6,433.7h8.1v1h-8.1V433.7z"/>
		<path class="st4" d="M724.6,427.4l-1.8,1c-0.7,0.4-1.1,0.7-1.6,0.9l0,0c0.5,0.2,0.9,0.5,1.6,0.9l1.8,1v1.2l-4.1-2.5l-4,2.4v-1.2
			l1.9-1.1c0.5-0.3,0.9-0.5,1.4-0.7l0,0c-0.5-0.2-0.9-0.4-1.4-0.7l-1.9-1.1v-1.2l3.9,2.5l4.1-2.5L724.6,427.4L724.6,427.4z"/>
		<path class="st4" d="M720.9,420.8v3.1h2.9v-3.5h0.9v4.5h-8.1v-4.4h0.9v3.3h2.6v-3.1L720.9,420.8L720.9,420.8L720.9,420.8z"/>
		<path class="st4" d="M716.6,419.1v-1h7.2v-3.5h0.9v4.5H716.6z"/>
		<path class="st4" d="M716.6,410.9c-0.1-0.5-0.2-1.2-0.2-1.9c0-1,0.2-1.7,0.6-2.2c0.3-0.4,0.8-0.7,1.4-0.7c0.8,0,1.5,0.5,1.8,1.4
			l0,0c0.2-0.8,0.8-1.7,2-1.7c0.7,0,1.2,0.3,1.6,0.7c0.5,0.6,0.8,1.5,0.8,2.8c0,0.7,0,1.3-0.1,1.6L716.6,410.9L716.6,410.9z
			 M720.1,409.8v-0.9c0-1.1-0.6-1.8-1.4-1.8c-0.9,0-1.3,0.7-1.3,1.8c0,0.5,0,0.8,0.1,0.9H720.1z M723.9,409.8c0-0.2,0-0.5,0-0.9
			c0-1.1-0.4-2.1-1.6-2.1c-1.1,0-1.6,0.9-1.6,2.1v0.9H723.9z"/>
		<path class="st4" d="M721.7,399.1c2.1,0,3.1,1.5,3.1,2.9c0,1.6-1.2,2.8-3,2.8c-1.9,0-3.1-1.3-3.1-2.9
			C718.7,400.2,719.9,399.1,721.7,399.1z M721.7,403.7c1.3,0,2.2-0.7,2.2-1.8c0-1-0.9-1.8-2.3-1.8c-1,0-2.2,0.5-2.2,1.7
			C719.6,403.2,720.6,403.7,721.7,403.7z"/>
		<path class="st4" d="M724.6,394.6l-0.7,0.1l0,0c0.5,0.3,0.9,0.9,0.9,1.8c0,1.2-0.8,1.8-1.7,1.8c-1.4,0-2.2-1.2-2.2-3.5h-0.1
			c-0.5,0-1.3,0.1-1.3,1.3c0,0.5,0.2,1.1,0.4,1.5l-0.7,0.2c-0.3-0.5-0.5-1.2-0.5-1.9c0-1.8,1.2-2.2,2.4-2.2h2.2c0.5,0,1,0,1.4-0.1
			L724.6,394.6L724.6,394.6L724.6,394.6z M721.7,394.7c0,1.2,0.2,2.5,1.3,2.5c0.7,0,1-0.5,1-1c0-0.8-0.5-1.2-1-1.4
			c-0.1,0-0.2-0.1-0.3-0.1H721.7z"/>
		<path class="st4" d="M720.6,392c-0.7,0-1.3,0-1.8,0v-0.9h1.1l0,0c-0.8-0.3-1.3-0.9-1.3-1.6c0-0.1,0-0.2,0-0.3h1c0,0.1,0,0.2,0,0.4
			c0,0.7,0.6,1.3,1.4,1.4c0.1,0,0.3,0,0.5,0h3.1v1H720.6z"/>
		<path class="st4" d="M716.1,383.2h7c0.5,0,1.1,0,1.5,0v0.9h-1l0,0c0.6,0.3,1.1,1,1.1,2c0,1.4-1.2,2.5-3,2.5
			c-1.9,0-3.1-1.2-3.1-2.6c0-0.9,0.4-1.5,0.9-1.8l0,0h-3.4V383.2z M721.2,384.2c-0.1,0-0.3,0-0.4,0c-0.7,0.2-1.2,0.7-1.2,1.5
			c0,1.1,1,1.7,2.2,1.7s2.1-0.6,2.1-1.7c0-0.7-0.5-1.4-1.3-1.5c-0.1,0-0.3,0-0.5,0H721.2z"/>
		<path class="st4" d="M716.6,377.8h3.4v-3.9h-3.4v-1.1h8.1v1.1h-3.8v3.9h3.8v1h-8.1V377.8z"/>
		<path class="st4" d="M721.9,370.5c1.4,0,2-0.9,2-2c0-0.8-0.1-1.2-0.3-1.6l0.8-0.2c0.2,0.4,0.4,1,0.4,1.9c0,1.8-1.2,2.9-2.9,2.9
			c-1.7,0-3.1-1-3.1-2.7c0-1.9,1.7-2.4,2.7-2.4c0.2,0,0.4,0,0.5,0L721.9,370.5L721.9,370.5L721.9,370.5z M721.2,367.4
			c-0.7,0-1.7,0.3-1.7,1.5c0,1.1,1,1.5,1.7,1.6V367.4z"/>
		<path class="st4" d="M720.6,365c-0.7,0-1.3,0-1.8,0v-0.9h1.1l0,0c-0.8-0.3-1.3-0.9-1.3-1.6c0-0.1,0-0.2,0-0.3h1c0,0.1,0,0.2,0,0.4
			c0,0.7,0.6,1.3,1.4,1.4c0.1,0,0.3,0,0.5,0h3.1v1H720.6z"/>
		<path class="st4" d="M721.9,360.6c1.4,0,2-0.9,2-2c0-0.8-0.1-1.2-0.3-1.6l0.8-0.2c0.2,0.4,0.4,1,0.4,1.9c0,1.8-1.2,2.9-2.9,2.9
			c-1.7,0-3.1-1-3.1-2.7c0-1.9,1.7-2.4,2.7-2.4c0.2,0,0.4,0,0.5,0L721.9,360.6L721.9,360.6L721.9,360.6z M721.2,357.5
			c-0.7,0-1.7,0.3-1.7,1.5c0,1.1,1,1.5,1.7,1.6V357.5z"/>
	</g>
	<g>
		<path class="st4" d="M636.8,306.1c-0.1-1.1-0.1-2.5-0.1-3.5l0,0c-0.3,0.9-0.6,2-1,3.1l-1.4,3.9h-0.8l-1.3-3.8
			c-0.4-1.1-0.7-2.2-0.9-3.1l0,0c0,1-0.1,2.4-0.2,3.6l-0.2,3.5h-1l0.6-8.1h1.3l1.4,3.9c0.3,1,0.6,1.9,0.8,2.7l0,0
			c0.2-0.8,0.5-1.7,0.9-2.7l1.4-3.9h1.3l0.5,8.1h-1L636.8,306.1z"/>
		<path class="st4" d="M644.9,306.7c0,2.1-1.5,3.1-2.9,3.1c-1.6,0-2.8-1.2-2.8-3c0-1.9,1.3-3.1,2.9-3.1
			C643.8,303.7,644.9,304.8,644.9,306.7z M640.3,306.8c0,1.3,0.7,2.2,1.8,2.2c1,0,1.8-0.9,1.8-2.3c0-1-0.5-2.2-1.7-2.2
			C640.9,304.5,640.3,305.7,640.3,306.8z"/>
		<path class="st4" d="M651.1,308.1c0,0.6,0,1.1,0,1.6h-0.9l-0.1-0.9l0,0c-0.3,0.5-0.9,1.1-1.9,1.1c-0.9,0-2-0.5-2-2.5V304h1.1v3.2
			c0,1.1,0.3,1.8,1.3,1.8c0.7,0,1.2-0.5,1.4-1c0.1-0.2,0.1-0.3,0.1-0.5v-3.6h1.1L651.1,308.1L651.1,308.1L651.1,308.1z"/>
		<path class="st4" d="M652.9,305.3c0-0.6,0-1.1,0-1.6h0.9l0.1,1l0,0c0.3-0.6,1-1.1,1.9-1.1c0.8,0,2.1,0.5,2.1,2.5v3.5h-1.1v-3.3
			c0-0.9-0.3-1.7-1.3-1.7c-0.7,0-1.2,0.5-1.4,1.1c0,0.1-0.1,0.3-0.1,0.5v3.5h-1.1V305.3L652.9,305.3z"/>
		<path class="st4" d="M660.8,302.2v1.7h1.5v0.8h-1.5v3.1c0,0.7,0.2,1.1,0.8,1.1c0.3,0,0.5,0,0.6-0.1v0.8c-0.2,0.1-0.5,0.1-0.9,0.1
			c-0.5,0-0.9-0.2-1.1-0.4c-0.3-0.3-0.4-0.8-0.4-1.5v-3.2h-0.9v-0.8h0.9v-1.4L660.8,302.2z"/>
		<path class="st4" d="M666,301.6h1v7.2h3.5v0.9H666V301.6z"/>
		<path class="st4" d="M675.9,305.8h-3.1v2.9h3.5v0.9h-4.6v-8.1h4.4v0.9h-3.3v2.6h3.1V305.8L675.9,305.8z"/>
		<path class="st4" d="M677.6,301.7c0.6-0.1,1.4-0.2,2.2-0.2c1.5,0,2.6,0.3,3.3,1c0.7,0.7,1.1,1.6,1.1,2.9s-0.4,2.4-1.2,3.1
			c-0.8,0.8-2,1.2-3.6,1.2c-0.7,0-1.4,0-1.9-0.1L677.6,301.7L677.6,301.7z M678.7,308.8c0.3,0,0.6,0.1,1.1,0.1
			c2.2,0,3.4-1.2,3.4-3.4c0-1.9-1.1-3.1-3.3-3.1c-0.5,0-0.9,0-1.2,0.1V308.8z"/>
		<path class="st4" d="M688.1,301.7c0.5-0.1,1.2-0.2,2-0.2c1,0,1.8,0.2,2.3,0.7c0.4,0.4,0.7,1,0.7,1.7s-0.2,1.3-0.6,1.7
			c-0.6,0.6-1.5,0.9-2.5,0.9c-0.3,0-0.6,0-0.8-0.1v3.2h-1L688.1,301.7L688.1,301.7L688.1,301.7z M689.2,305.6
			c0.2,0.1,0.5,0.1,0.9,0.1c1.3,0,2-0.6,2-1.7s-0.8-1.6-1.9-1.6c-0.5,0-0.8,0-1,0.1V305.6z"/>
		<path class="st4" d="M697.4,309.7l-0.1-0.7l0,0c-0.3,0.5-0.9,0.9-1.8,0.9c-1.2,0-1.8-0.8-1.8-1.7c0-1.4,1.2-2.2,3.5-2.2v-0.1
			c0-0.5-0.1-1.3-1.3-1.3c-0.5,0-1.1,0.2-1.5,0.4l-0.2-0.7c0.5-0.3,1.2-0.5,1.9-0.5c1.8,0,2.2,1.2,2.2,2.4v2.2c0,0.5,0,1,0.1,1.4
			L697.4,309.7L697.4,309.7z M697.2,306.7c-1.2,0-2.5,0.2-2.5,1.3c0,0.7,0.5,1,1,1c0.8,0,1.2-0.5,1.4-1c0-0.1,0.1-0.2,0.1-0.3V306.7
			z"/>
		<path class="st4" d="M700,305.3c0-0.6,0-1.1,0-1.6h0.9l0.1,1l0,0c0.3-0.6,1-1.1,1.9-1.1c0.8,0,2.1,0.5,2.1,2.5v3.5h-1.1v-3.3
			c0-0.9-0.3-1.7-1.3-1.7c-0.7,0-1.2,0.5-1.4,1.1c0,0.1-0.1,0.3-0.1,0.5v3.5H700V305.3z"/>
		<path class="st4" d="M707.2,307c0,1.4,0.9,2,2,2c0.8,0,1.2-0.1,1.6-0.3l0.2,0.8c-0.4,0.2-1,0.4-1.9,0.4c-1.8,0-2.9-1.2-2.9-2.9
			c0-1.7,1-3.1,2.7-3.1c1.9,0,2.4,1.7,2.4,2.7c0,0.2,0,0.4,0,0.5L707.2,307L707.2,307L707.2,307z M710.3,306.2
			c0-0.7-0.3-1.7-1.5-1.7c-1.1,0-1.5,1-1.6,1.7H710.3z"/>
		<path class="st4" d="M712.6,301.1h1.1v8.5h-1.1V301.1z"/>
		<path class="st4" d="M724.9,306.1c-0.1-1.1-0.1-2.5-0.1-3.5l0,0c-0.3,0.9-0.6,2-1,3.1l-1.4,3.9h-0.8l-1.3-3.8
			c-0.4-1.1-0.7-2.2-0.9-3.1l0,0c0,1-0.1,2.4-0.2,3.6l-0.2,3.5h-1l0.6-8.1h1.3l1.4,3.9c0.3,1,0.6,1.9,0.8,2.7l0,0
			c0.2-0.8,0.5-1.7,0.9-2.7l1.4-3.9h1.3l0.5,8.1h-1L724.9,306.1z"/>
		<path class="st4" d="M730.9,309.7l-0.1-0.7l0,0c-0.3,0.5-0.9,0.9-1.8,0.9c-1.2,0-1.8-0.8-1.8-1.7c0-1.4,1.2-2.2,3.5-2.2v-0.1
			c0-0.5-0.1-1.3-1.3-1.3c-0.5,0-1.1,0.2-1.5,0.4l-0.2-0.7c0.5-0.3,1.2-0.5,1.9-0.5c1.8,0,2.2,1.2,2.2,2.4v2.2c0,0.5,0,1,0.1,1.4
			L730.9,309.7L730.9,309.7z M730.8,306.7c-1.2,0-2.5,0.2-2.5,1.3c0,0.7,0.5,1,1,1c0.8,0,1.2-0.5,1.4-1c0-0.1,0.1-0.2,0.1-0.3V306.7
			z"/>
		<path class="st4" d="M734.7,302.2v1.7h1.5v0.8h-1.5v3.1c0,0.7,0.2,1.1,0.8,1.1c0.3,0,0.5,0,0.6-0.1v0.8c-0.2,0.1-0.5,0.1-0.9,0.1
			c-0.5,0-0.9-0.2-1.1-0.4c-0.3-0.3-0.4-0.8-0.4-1.5v-3.2h-0.9v-0.8h0.9v-1.4L734.7,302.2z"/>
		<path class="st4" d="M737.4,305.7c0-0.7,0-1.3,0-1.8h0.9v1.1l0,0c0.3-0.8,0.9-1.3,1.6-1.3c0.1,0,0.2,0,0.3,0v1c-0.1,0-0.2,0-0.4,0
			c-0.7,0-1.3,0.6-1.4,1.4c0,0.1,0,0.3,0,0.5v3.1h-1V305.7z"/>
		<path class="st4" d="M742.6,302.2c0,0.4-0.3,0.6-0.7,0.6s-0.6-0.3-0.6-0.6c0-0.4,0.3-0.7,0.7-0.7
			C742.3,301.6,742.6,301.8,742.6,302.2z M741.4,309.7v-5.8h1.1v5.8H741.4z"/>
		<path class="st4" d="M744.7,303.8l0.8,1.2c0.2,0.3,0.4,0.6,0.6,0.9l0,0c0.2-0.3,0.4-0.6,0.6-1l0.8-1.2h1.1l-2,2.8l2,3h-1.2
			l-0.9-1.3c-0.2-0.3-0.4-0.7-0.6-1l0,0c-0.2,0.3-0.4,0.7-0.6,1l-0.8,1.3h-1.2l2.1-3l-2-2.8h1.3L744.7,303.8L744.7,303.8z"/>
		<path class="st4" d="M757.6,306.7c0,2.1-1.5,3.1-2.9,3.1c-1.6,0-2.8-1.2-2.8-3c0-1.9,1.3-3.1,2.9-3.1S757.6,304.8,757.6,306.7z
			 M753,306.8c0,1.3,0.7,2.2,1.8,2.2c1,0,1.8-0.9,1.8-2.3c0-1-0.5-2.2-1.7-2.2C753.5,304.5,753,305.7,753,306.8z"/>
		<path class="st4" d="M758.9,305.3c0-0.6,0-1.1,0-1.6h0.9l0.1,1l0,0c0.3-0.6,1-1.1,1.9-1.1c0.8,0,2.1,0.5,2.1,2.5v3.5h-1.1v-3.3
			c0-0.9-0.3-1.7-1.3-1.7c-0.7,0-1.2,0.5-1.4,1.1c0,0.1-0.1,0.3-0.1,0.5v3.5h-1.1V305.3z"/>
		<path class="st4" d="M775.1,305.5c0,2.8-1.7,4.3-3.8,4.3s-3.6-1.7-3.6-4.1c0-2.6,1.6-4.2,3.8-4.2
			C773.6,301.3,775.1,303.1,775.1,305.5z M768.8,305.7c0,1.7,0.9,3.3,2.6,3.3s2.6-1.5,2.6-3.4c0-1.6-0.8-3.3-2.6-3.3
			S768.8,303.8,768.8,305.7z"/>
		<path class="st4" d="M777.9,302.2v1.7h1.5v0.8h-1.5v3.1c0,0.7,0.2,1.1,0.8,1.1c0.3,0,0.5,0,0.6-0.1v0.8c-0.2,0.1-0.5,0.1-0.9,0.1
			c-0.5,0-0.9-0.2-1.1-0.4c-0.3-0.3-0.4-0.8-0.4-1.5v-3.2H776v-0.8h0.9v-1.4L777.9,302.2z"/>
		<path class="st4" d="M780.6,301.1h1.1v3.6l0,0c0.2-0.3,0.4-0.6,0.8-0.7c0.3-0.2,0.7-0.3,1.1-0.3c0.8,0,2,0.5,2,2.5v3.5h-1.1v-3.3
			c0-0.9-0.3-1.7-1.3-1.7c-0.7,0-1.2,0.5-1.4,1.1c-0.1,0.1-0.1,0.3-0.1,0.5v3.5h-1.1V301.1z"/>
		<path class="st4" d="M787.8,307c0,1.4,0.9,2,2,2c0.8,0,1.2-0.1,1.6-0.3l0.2,0.8c-0.4,0.2-1,0.4-1.9,0.4c-1.8,0-2.9-1.2-2.9-2.9
			c0-1.7,1-3.1,2.7-3.1c1.9,0,2.4,1.7,2.4,2.7c0,0.2,0,0.4,0,0.5L787.8,307L787.8,307L787.8,307z M790.9,306.2
			c0-0.7-0.3-1.7-1.5-1.7c-1.1,0-1.5,1-1.6,1.7H790.9z"/>
		<path class="st4" d="M793.2,305.7c0-0.7,0-1.3,0-1.8h0.9v1.1l0,0c0.3-0.8,0.9-1.3,1.6-1.3c0.1,0,0.2,0,0.3,0v1c-0.1,0-0.2,0-0.4,0
			c-0.7,0-1.3,0.6-1.4,1.4c0,0.1,0,0.3,0,0.5v3.1h-1V305.7z"/>
		<path class="st4" d="M799.6,308.3c0.5,0.3,1.2,0.5,1.9,0.5c1.1,0,1.7-0.6,1.7-1.4s-0.4-1.2-1.5-1.6c-1.3-0.5-2.1-1.2-2.1-2.3
			c0-1.3,1-2.2,2.6-2.2c0.8,0,1.4,0.2,1.8,0.4l-0.3,0.9c-0.3-0.1-0.8-0.4-1.5-0.4c-1.1,0-1.5,0.7-1.5,1.2c0,0.8,0.5,1.1,1.6,1.6
			c1.4,0.5,2.1,1.2,2.1,2.4c0,1.2-0.9,2.3-2.8,2.3c-0.8,0-1.6-0.2-2.1-0.5L799.6,308.3z"/>
		<path class="st4" d="M806.8,302.2c0,0.4-0.3,0.6-0.7,0.6s-0.6-0.3-0.6-0.6c0-0.4,0.3-0.7,0.7-0.7
			C806.5,301.6,806.8,301.8,806.8,302.2z M805.6,309.7v-5.8h1.1v5.8H805.6z"/>
		<path class="st4" d="M813.4,301.1v7c0,0.5,0,1.1,0,1.5h-0.9v-1l0,0c-0.3,0.6-1,1.1-2,1.1c-1.4,0-2.5-1.2-2.5-3
			c0-1.9,1.2-3.1,2.6-3.1c0.9,0,1.5,0.4,1.8,0.9l0,0V301h1V301.1z M812.4,306.2c0-0.1,0-0.3,0-0.4c-0.2-0.7-0.7-1.2-1.5-1.2
			c-1.1,0-1.7,1-1.7,2.2s0.6,2.1,1.7,2.1c0.7,0,1.4-0.5,1.5-1.3c0-0.1,0-0.3,0-0.5V306.2z"/>
		<path class="st4" d="M815.8,307c0,1.4,0.9,2,2,2c0.8,0,1.2-0.1,1.6-0.3l0.2,0.8c-0.4,0.2-1,0.4-1.9,0.4c-1.8,0-2.9-1.2-2.9-2.9
			c0-1.7,1-3.1,2.7-3.1c1.9,0,2.4,1.7,2.4,2.7c0,0.2,0,0.4,0,0.5L815.8,307L815.8,307L815.8,307z M818.9,306.2
			c0-0.7-0.3-1.7-1.5-1.7c-1.1,0-1.5,1-1.6,1.7H818.9z"/>
	</g>
	<g>
		<path class="st4" d="M825.5,390.2c0.5-0.1,1.2-0.2,2-0.2c1,0,1.8,0.2,2.3,0.7c0.4,0.4,0.7,1,0.7,1.7s-0.2,1.3-0.6,1.7
			c-0.6,0.6-1.5,0.9-2.5,0.9c-0.3,0-0.6,0-0.8-0.1v3.2h-1L825.5,390.2L825.5,390.2L825.5,390.2z M826.6,394.1
			c0.2,0.1,0.5,0.1,0.9,0.1c1.3,0,2-0.6,2-1.7s-0.8-1.6-1.9-1.6c-0.5,0-0.8,0-1,0.1V394.1z"/>
		<path class="st4" d="M834.8,398.2l-0.1-0.7l0,0c-0.3,0.5-0.9,0.9-1.8,0.9c-1.2,0-1.8-0.8-1.8-1.7c0-1.4,1.2-2.2,3.5-2.2v-0.1
			c0-0.5-0.1-1.3-1.3-1.3c-0.5,0-1.1,0.2-1.5,0.4l-0.2-0.7c0.5-0.3,1.2-0.5,1.9-0.5c1.8,0,2.2,1.2,2.2,2.4v2.2c0,0.5,0,1,0.1,1.4
			L834.8,398.2L834.8,398.2z M834.6,395.3c-1.2,0-2.5,0.2-2.5,1.3c0,0.7,0.5,1,1,1c0.8,0,1.2-0.5,1.4-1c0-0.1,0.1-0.2,0.1-0.3V395.3
			z"/>
		<path class="st4" d="M837.3,394c0-0.6,0-1.1,0-1.6h0.9l0.1,1l0,0c0.3-0.6,1-1.1,1.9-1.1c0.8,0,2.1,0.5,2.1,2.5v3.5h-1.1V395
			c0-0.9-0.3-1.7-1.3-1.7c-0.7,0-1.2,0.5-1.4,1.1c0,0.1-0.1,0.3-0.1,0.5v3.5h-1.1L837.3,394L837.3,394z"/>
		<path class="st4" d="M844.6,395.5c0,1.4,0.9,2,2,2c0.8,0,1.2-0.1,1.6-0.3l0.2,0.8c-0.4,0.2-1,0.4-1.9,0.4c-1.8,0-2.9-1.2-2.9-2.9
			c0-1.7,1-3.1,2.7-3.1c1.9,0,2.4,1.7,2.4,2.7c0,0.2,0,0.4,0,0.5L844.6,395.5L844.6,395.5L844.6,395.5z M847.7,394.8
			c0-0.7-0.3-1.7-1.5-1.7c-1.1,0-1.5,1-1.6,1.7H847.7z"/>
		<path class="st4" d="M850,389.7h1.1v8.5H850V389.7z"/>
		<path class="st4" d="M856.5,390.1v4.8c0,1.8,0.8,2.6,1.9,2.6c1.2,0,2-0.8,2-2.6v-4.8h1.1v4.7c0,2.5-1.3,3.5-3.1,3.5
			c-1.7,0-2.9-0.9-2.9-3.5v-4.7H856.5z"/>
		<path class="st4" d="M863.1,394.3c0-0.7,0-1.3,0-1.9h0.9v1l0,0c0.4-0.7,1.1-1.1,2.1-1.1c1.4,0,2.5,1.2,2.5,3
			c0,2.1-1.3,3.1-2.6,3.1c-0.8,0-1.4-0.3-1.8-0.9l0,0v3.2h-1L863.1,394.3L863.1,394.3L863.1,394.3z M864.2,395.8c0,0.2,0,0.3,0,0.4
			c0.2,0.7,0.8,1.2,1.6,1.2c1.1,0,1.8-0.9,1.8-2.2c0-1.2-0.6-2.2-1.7-2.2c-0.7,0-1.4,0.5-1.6,1.3c0,0.1-0.1,0.3-0.1,0.4V395.8
			L864.2,395.8z"/>
	</g>
	<path class="st5" d="M651.4,314c2.1,0,3.8,1.7,3.8,3.8s-1.7,3.8-3.8,3.8s-3.8-1.7-3.8-3.8S649.2,314,651.4,314L651.4,314z"/>
	<path class="st5" d="M651.4,512.5c2.1,0,3.8,1.7,3.8,3.8s-1.7,3.8-3.8,3.8s-3.8-1.7-3.8-3.8C647.5,514.2,649.2,512.5,651.4,512.5
		L651.4,512.5z"/>
	<circle class="st5" cx="318" cy="342.1" r="6.1"/>
	<circle class="st5" cx="315.8" cy="384.9" r="4.3"/>
	<circle class="st5" cx="318" cy="513.5" r="6.1"/>
	<circle class="st5" cx="809.7" cy="343.2" r="6.1"/>
	<circle class="st5" cx="810.1" cy="514.5" r="6.1"/>
	<circle class="st5" cx="811.9" cy="473.5" r="4.3"/>
	<circle class="st5" cx="597.7" cy="323" r="6.1"/>
	<circle class="st5" cx="530" cy="534.3" r="6.1"/>
	<g id="LWPOLYLINE_4_">
		<path class="st5" d="M354.9,469.9h31.2c1.6,0,2.8-1.3,2.8-2.8v-82.2c0-1.6-1.3-2.8-2.8-2.8h-31.2c-1.6,0-2.8,1.3-2.8,2.8v82.2
			C352,468.5,353.3,469.9,354.9,469.9z"/>
	</g>
	<g id="LWPOLYLINE_3_">
		<path class="st5" d="M633.5,395c0-1.7-1.3-3-2.8-3h-62.4c-1.6,0-2.8,1.4-2.8,3v41.9c0,1.7,1.3,3,2.8,3h62.4c1.6,0,2.8-1.4,2.8-3
			V395z"/>
	</g>
	<path class="st5" d="M787.4,314c2.1,0,3.8,1.7,3.8,3.8s-1.7,3.8-3.8,3.8s-3.8-1.7-3.8-3.8S785.2,314,787.4,314L787.4,314z"/>
	<path class="st5" d="M787.4,512.2c2.1,0,3.8,1.7,3.8,3.8s-1.7,3.8-3.8,3.8c-2.1,0-3.8-1.7-3.8-3.8
		C783.5,513.9,785.2,512.2,787.4,512.2L787.4,512.2z"/>
	<line class="st2" x1="787.4" y1="321.6" x2="787.4" y2="512.2"/>
	<line class="st2" x1="655.2" y1="516.3" x2="783.6" y2="516.3"/>
	<line class="st2" x1="655.2" y1="317.8" x2="783.6" y2="317.8"/>
	<path class="st6" d="M248,303.1c2.7,0,4.8,2.2,4.8,4.8c0,2.7-2.2,4.8-4.8,4.8c-2.7,0-4.8-2.2-4.8-4.8S245.3,303.1,248,303.1z"/>
	<path class="st6" d="M256.5,544.2c2.7,0,4.8,2.2,4.8,4.8c0,2.7-2.2,4.8-4.8,4.8c-2.7,0-4.8-2.2-4.8-4.8S253.8,544.2,256.5,544.2z"
		/>
	<path class="st6" d="M873.2,544.1c2.7,0,4.8,2.2,4.8,4.8c0,2.7-2.2,4.8-4.8,4.8c-2.7,0-4.8-2.2-4.8-4.8S870.5,544.1,873.2,544.1z"
		/>
	<path class="st6" d="M880.9,303.1c2.7,0,4.8,2.2,4.8,4.8c0,2.7-2.2,4.8-4.8,4.8c-2.7,0-4.8-2.2-4.8-4.8S878.2,303.1,880.9,303.1z"
		/>
</g>
</svg>
