<?xml version="1.0" encoding="utf-8"?>
<!-- Generator: Adobe Illustrator 23.0.3, SVG Export Plug-In . SVG Version: 6.00 Build 0)  -->
<svg version="1.1" xmlns="http://www.w3.org/2000/svg" xmlns:xlink="http://www.w3.org/1999/xlink" x="0px" y="0px"
	 viewBox="0 0 698.9 705.5" style="enable-background:new 0 0 698.9 705.5;" xml:space="preserve">
<style type="text/css">
	.st0{fill:none;stroke:#000000;stroke-width:0.7087;stroke-linecap:round;stroke-linejoin:round;stroke-miterlimit:10;}
	
		.st1{fill:none;stroke:#00CC00;stroke-width:0.3685;stroke-linecap:round;stroke-linejoin:round;stroke-miterlimit:10;stroke-dasharray:1.08,0.54;}
	
		.st2{fill:none;stroke:#FF0000;stroke-width:0.3685;stroke-linecap:round;stroke-linejoin:round;stroke-miterlimit:10;stroke-dasharray:5.4,1.08,1.08,1.08;}
	
		.st3{fill:none;stroke:#CC9966;stroke-width:0.3685;stroke-linecap:round;stroke-linejoin:round;stroke-miterlimit:10;stroke-dasharray:1.08,0.54;}
	.st4{fill:#FF00FF;}
	.st5{font-family:'MyriadPro-Regular';}
	.st6{font-size:2.4022px;}
	
		.st7{fill:none;stroke:#FF0000;stroke-width:0.3685;stroke-linecap:round;stroke-linejoin:round;stroke-miterlimit:10;stroke-dasharray:34.488,6.8976,6.8976,6.8976;}
	.st8{fill:none;stroke:#33CC00;stroke-width:0.2551;stroke-linecap:round;stroke-linejoin:round;stroke-miterlimit:10;}
	.st9{fill:#33CC00;}
	.st10{font-size:10.0093px;}
	.st11{fill:none;stroke:#33CC00;stroke-width:0;stroke-linecap:round;stroke-linejoin:round;stroke-miterlimit:10;}
	.st12{font-size:18px;}
</style>
<g id="_x30_">
	<g id="LINE_172_">
		<line class="st0" x1="492.2" y1="496.3" x2="256.2" y2="496.3"/>
	</g>
	<g id="LINE_173_">
		<line class="st0" x1="362.3" y1="579.6" x2="126.4" y2="579.6"/>
	</g>
	<g id="LINE_174_">
		<line class="st0" x1="63.9" y1="340.4" x2="63.9" y2="68.9"/>
	</g>
	<g id="LINE_175_">
		<line class="st0" x1="70.1" y1="77.4" x2="70.1" y2="127.5"/>
	</g>
	<g id="LINE_176_">
		<line class="st0" x1="70.1" y1="132" x2="70.1" y2="139.7"/>
	</g>
	<g id="LINE_177_">
		<line class="st0" x1="70.1" y1="144.2" x2="70.1" y2="196.4"/>
	</g>
	<g id="LINE_178_">
		<line class="st0" x1="70.1" y1="200.9" x2="70.1" y2="208.6"/>
	</g>
	<g id="LINE_179_">
		<line class="st0" x1="70.1" y1="213.1" x2="70.1" y2="265.2"/>
	</g>
	<g id="LINE_180_">
		<line class="st0" x1="70.1" y1="269.8" x2="70.1" y2="277.4"/>
	</g>
	<g id="LINE_181_">
		<line class="st0" x1="70.1" y1="281.9" x2="70.1" y2="331.5"/>
	</g>
	<g id="LINE_182_">
		<line class="st0" x1="548.9" y1="75.1" x2="569.7" y2="95.9"/>
	</g>
	<g id="LINE_183_">
		<line class="st0" x1="580.6" y1="106.7" x2="601.3" y2="127.5"/>
	</g>
	<g id="LINE_184_">
		<line class="st0" x1="86.3" y1="161.7" x2="86.3" y2="158.6"/>
	</g>
	<g id="LINE_185_">
		<line class="st0" x1="86.3" y1="162.6" x2="86.3" y2="165.7"/>
	</g>
	<g id="LINE_186_">
		<line class="st0" x1="70.1" y1="127.5" x2="90.8" y2="106.7"/>
	</g>
	<g id="LINE_187_">
		<line class="st0" x1="101.6" y1="96.7" x2="123.2" y2="75.1"/>
	</g>
	<g id="LINE_188_">
		<line class="st0" x1="601.3" y1="132" x2="572.7" y2="103.4"/>
	</g>
	<g id="LINE_189_">
		<line class="st0" x1="570.2" y1="100.9" x2="564.2" y2="94.9"/>
	</g>
	<g id="LINE_190_">
		<line class="st0" x1="558.9" y1="89.5" x2="544.4" y2="75.1"/>
	</g>
	<g id="LINE_191_">
		<line class="st0" x1="98.7" y1="306.1" x2="98.7" y2="241.1"/>
	</g>
	<g id="LINE_192_">
		<line class="st0" x1="98.7" y1="237.2" x2="98.7" y2="172.2"/>
	</g>
	<g id="LINE_193_">
		<line class="st0" x1="98.7" y1="168.3" x2="98.7" y2="103.4"/>
	</g>
	<g id="LINE_194_">
		<line class="st0" x1="103.3" y1="303.9" x2="103.3" y2="105.4"/>
	</g>
	<g id="LINE_195_">
		<line class="st0" x1="102.2" y1="99.9" x2="101.2" y2="100.9"/>
	</g>
	<g id="LINE_196_">
		<line class="st0" x1="98.7" y1="103.4" x2="70.1" y2="132"/>
	</g>
	<g id="LINE_197_">
		<line class="st0" x1="127.7" y1="75.1" x2="113.8" y2="89"/>
	</g>
	<g id="LINE_198_">
		<line class="st0" x1="106.7" y1="96.1" x2="103" y2="99.9"/>
	</g>
	<g id="LINE_199_">
		<line class="st0" x1="480.9" y1="75.1" x2="506.2" y2="100.4"/>
	</g>
	<g id="LINE_200_">
		<line class="st0" x1="575.2" y1="170.3" x2="601.3" y2="196.4"/>
	</g>
	<g id="LINE_201_">
		<line class="st0" x1="502.2" y1="100.9" x2="476.4" y2="75.1"/>
	</g>
	<g id="LINE_202_">
		<line class="st0" x1="601.3" y1="200.9" x2="572.7" y2="172.2"/>
	</g>
	<g id="LINE_203_">
		<line class="st0" x1="166" y1="100.4" x2="191.2" y2="75.1"/>
	</g>
	<g id="LINE_204_">
		<line class="st0" x1="70.1" y1="196.4" x2="96.2" y2="170.3"/>
	</g>
	<g id="LINE_205_">
		<line class="st0" x1="195.8" y1="75.1" x2="170" y2="100.9"/>
	</g>
	<g id="LINE_206_">
		<line class="st0" x1="98.7" y1="172.2" x2="70.1" y2="200.9"/>
	</g>
	<g id="LINE_207_">
		<line class="st0" x1="412.9" y1="75.1" x2="438.1" y2="100.4"/>
	</g>
	<g id="LINE_208_">
		<line class="st0" x1="575.2" y1="239.2" x2="581.9" y2="245.8"/>
	</g>
	<g id="LINE_209_">
		<line class="st0" x1="586.5" y1="250.5" x2="601.3" y2="265.2"/>
	</g>
	<g id="LINE_210_">
		<line class="st0" x1="434.2" y1="100.9" x2="408.4" y2="75.1"/>
	</g>
	<g id="LINE_211_">
		<line class="st0" x1="601.3" y1="269.8" x2="572.7" y2="241.1"/>
	</g>
	<g id="LINE_212_">
		<line class="st0" x1="234" y1="100.4" x2="259.3" y2="75.1"/>
	</g>
	<g id="LINE_213_">
		<line class="st0" x1="70.1" y1="265.2" x2="96.2" y2="239.2"/>
	</g>
	<g id="LINE_214_">
		<line class="st0" x1="263.8" y1="75.1" x2="238" y2="100.9"/>
	</g>
	<g id="LINE_215_">
		<line class="st0" x1="98.7" y1="241.1" x2="70.1" y2="269.8"/>
	</g>
	<g id="LINE_216_">
		<line class="st0" x1="63.9" y1="68.9" x2="607.6" y2="68.9"/>
	</g>
	<g id="LINE_217_">
		<line class="st0" x1="598.1" y1="75.1" x2="548.9" y2="75.1"/>
	</g>
	<g id="LINE_218_">
		<line class="st0" x1="544.4" y1="75.1" x2="535.9" y2="75.1"/>
	</g>
	<g id="LINE_219_">
		<line class="st0" x1="531.4" y1="75.1" x2="480.9" y2="75.1"/>
	</g>
	<g id="LINE_220_">
		<line class="st0" x1="476.4" y1="75.1" x2="467.9" y2="75.1"/>
	</g>
	<g id="LINE_221_">
		<line class="st0" x1="463.4" y1="75.1" x2="412.9" y2="75.1"/>
	</g>
	<g id="LINE_222_">
		<line class="st0" x1="408.4" y1="75.1" x2="399.8" y2="75.1"/>
	</g>
	<g id="LINE_223_">
		<line class="st0" x1="395.3" y1="75.1" x2="344.9" y2="75.1"/>
	</g>
	<g id="LINE_224_">
		<line class="st0" x1="340.3" y1="75.1" x2="331.8" y2="75.1"/>
	</g>
	<g id="LINE_225_">
		<line class="st0" x1="327.3" y1="75.1" x2="276.8" y2="75.1"/>
	</g>
	<g id="LINE_226_">
		<line class="st0" x1="272.3" y1="75.1" x2="263.8" y2="75.1"/>
	</g>
	<g id="LINE_227_">
		<line class="st0" x1="259.3" y1="75.1" x2="208.8" y2="75.1"/>
	</g>
	<g id="LINE_228_">
		<line class="st0" x1="204.3" y1="75.1" x2="195.8" y2="75.1"/>
	</g>
	<g id="LINE_229_">
		<line class="st0" x1="191.2" y1="75.1" x2="140.8" y2="75.1"/>
	</g>
	<g id="LINE_230_">
		<line class="st0" x1="136.2" y1="75.1" x2="127.7" y2="75.1"/>
	</g>
	<g id="LINE_231_">
		<line class="st0" x1="123.2" y1="75.1" x2="73.3" y2="75.1"/>
	</g>
	<g id="LINE_232_">
		<line class="st0" x1="102.2" y1="99.9" x2="103" y2="99.9"/>
	</g>
	<g id="LINE_233_">
		<line class="st0" x1="570.2" y1="100.9" x2="565.3" y2="100.9"/>
	</g>
	<g id="LINE_234_">
		<line class="st0" x1="542.7" y1="100.9" x2="510.1" y2="100.9"/>
	</g>
	<g id="LINE_235_">
		<line class="st0" x1="502.2" y1="100.9" x2="442.1" y2="100.9"/>
	</g>
	<g id="LINE_236_">
		<line class="st0" x1="434.2" y1="100.9" x2="381" y2="100.9"/>
	</g>
	<g id="LINE_237_">
		<line class="st0" x1="358.4" y1="100.9" x2="346.5" y2="100.9"/>
	</g>
	<g id="LINE_238_">
		<line class="st0" x1="324.9" y1="100.9" x2="306" y2="100.9"/>
	</g>
	<g id="LINE_239_">
		<line class="st0" x1="298.1" y1="100.9" x2="238" y2="100.9"/>
	</g>
	<g id="LINE_240_">
		<line class="st0" x1="230.1" y1="100.9" x2="170" y2="100.9"/>
	</g>
	<g id="LINE_241_">
		<line class="st0" x1="162" y1="100.9" x2="128.7" y2="100.9"/>
	</g>
	<g id="LINE_242_">
		<line class="st0" x1="106.2" y1="100.9" x2="101.2" y2="100.9"/>
	</g>
	<g id="LINE_243_">
		<line class="st0" x1="103.3" y1="105.4" x2="107.6" y2="105.4"/>
	</g>
	<g id="LINE_244_">
		<line class="st0" x1="127.3" y1="105.4" x2="329.9" y2="105.4"/>
	</g>
	<g id="LINE_245_">
		<line class="st0" x1="341.6" y1="105.4" x2="359.9" y2="105.4"/>
	</g>
	<g id="LINE_246_">
		<line class="st0" x1="379.5" y1="105.4" x2="544.2" y2="105.4"/>
	</g>
	<g id="LINE_247_">
		<line class="st0" x1="563.8" y1="105.4" x2="568.2" y2="105.4"/>
	</g>
	<g id="LINE_248_">
		<line class="st0" x1="592.6" y1="322.7" x2="601.3" y2="331.4"/>
	</g>
	<g id="LINE_249_">
		<line class="st0" x1="344.9" y1="75.1" x2="361.6" y2="91.9"/>
	</g>
	<g id="LINE_250_">
		<line class="st0" x1="359.7" y1="94.5" x2="340.3" y2="75.1"/>
	</g>
	<g id="LINE_251_">
		<line class="st0" x1="598.5" y1="334.2" x2="589.9" y2="325.5"/>
	</g>
	<g id="LINE_252_">
		<line class="st0" x1="70.1" y1="331.5" x2="78.8" y2="322.8"/>
	</g>
	<g id="LINE_253_">
		<line class="st0" x1="81.6" y1="325.5" x2="72.9" y2="334.2"/>
	</g>
	<g id="LINE_254_">
		<line class="st0" x1="302.1" y1="100.4" x2="327.3" y2="75.1"/>
	</g>
	<g id="LINE_255_">
		<line class="st0" x1="331.8" y1="75.1" x2="306" y2="100.9"/>
	</g>
	<g id="LINE_256_">
		<line class="st0" x1="510.5" y1="308.4" x2="536.3" y2="334.2"/>
	</g>
	<g id="LINE_257_">
		<line class="st0" x1="276.8" y1="75.1" x2="302.1" y2="100.4"/>
	</g>
	<g id="LINE_258_">
		<line class="st0" x1="531.8" y1="334.2" x2="506.2" y2="308.5"/>
	</g>
	<g id="LINE_259_">
		<line class="st0" x1="298.1" y1="100.9" x2="272.3" y2="75.1"/>
	</g>
	<g id="LINE_260_">
		<line class="st0" x1="135.8" y1="334.2" x2="161.6" y2="308.4"/>
	</g>
	<g id="LINE_261_">
		<line class="st0" x1="378.2" y1="92.2" x2="395.3" y2="75.1"/>
	</g>
	<g id="LINE_262_">
		<line class="st0" x1="166" y1="308.5" x2="140.3" y2="334.2"/>
	</g>
	<g id="LINE_263_">
		<line class="st0" x1="399.8" y1="75.1" x2="380" y2="95"/>
	</g>
	<g id="LINE_264_">
		<line class="st0" x1="442.5" y1="308.4" x2="468.3" y2="334.2"/>
	</g>
	<g id="LINE_265_">
		<line class="st0" x1="208.8" y1="75.1" x2="234" y2="100.4"/>
	</g>
	<g id="LINE_266_">
		<line class="st0" x1="463.8" y1="334.2" x2="438.1" y2="308.5"/>
	</g>
	<g id="LINE_267_">
		<line class="st0" x1="230.1" y1="100.9" x2="204.3" y2="75.1"/>
	</g>
	<g id="LINE_268_">
		<line class="st0" x1="203.9" y1="334.2" x2="229.6" y2="308.4"/>
	</g>
	<g id="LINE_269_">
		<line class="st0" x1="438.1" y1="100.4" x2="463.4" y2="75.1"/>
	</g>
	<g id="LINE_270_">
		<line class="st0" x1="234" y1="308.5" x2="208.4" y2="334.2"/>
	</g>
	<g id="LINE_271_">
		<line class="st0" x1="467.9" y1="75.1" x2="442.1" y2="100.9"/>
	</g>
	<g id="LINE_272_">
		<line class="st0" x1="374.5" y1="308.4" x2="400.3" y2="334.2"/>
	</g>
	<g id="LINE_273_">
		<line class="st0" x1="140.8" y1="75.1" x2="166" y2="100.4"/>
	</g>
	<g id="LINE_274_">
		<line class="st0" x1="395.8" y1="334.2" x2="370.1" y2="308.5"/>
	</g>
	<g id="LINE_275_">
		<line class="st0" x1="162" y1="100.9" x2="136.2" y2="75.1"/>
	</g>
	<g id="LINE_276_">
		<line class="st0" x1="271.9" y1="334.2" x2="291.5" y2="314.6"/>
	</g>
	<g id="LINE_277_">
		<line class="st0" x1="506.2" y1="100.4" x2="531.4" y2="75.1"/>
	</g>
	<g id="LINE_278_">
		<line class="st0" x1="293.4" y1="317.2" x2="276.4" y2="334.2"/>
	</g>
	<g id="LINE_279_">
		<line class="st0" x1="535.9" y1="75.1" x2="510.1" y2="100.9"/>
	</g>
	<g id="LINE_280_">
		<line class="st0" x1="568.2" y1="303.9" x2="563.8" y2="303.9"/>
	</g>
	<g id="LINE_281_">
		<line class="st0" x1="544.2" y1="303.9" x2="341.6" y2="303.9"/>
	</g>
	<g id="LINE_282_">
		<line class="st0" x1="329.9" y1="303.9" x2="311.5" y2="303.9"/>
	</g>
	<g id="LINE_283_">
		<line class="st0" x1="291.9" y1="303.9" x2="127.3" y2="303.9"/>
	</g>
	<g id="LINE_284_">
		<line class="st0" x1="107.6" y1="303.9" x2="103.3" y2="303.9"/>
	</g>
	<g id="LINE_285_">
		<line class="st0" x1="102.4" y1="308.4" x2="106.2" y2="308.4"/>
	</g>
	<g id="LINE_286_">
		<line class="st0" x1="128.7" y1="308.4" x2="161.6" y2="308.4"/>
	</g>
	<g id="LINE_287_">
		<line class="st0" x1="170.4" y1="308.4" x2="229.6" y2="308.4"/>
	</g>
	<g id="LINE_288_">
		<line class="st0" x1="238.4" y1="308.4" x2="290.4" y2="308.4"/>
	</g>
	<g id="LINE_289_">
		<line class="st0" x1="313" y1="308.4" x2="324.9" y2="308.4"/>
	</g>
	<g id="LINE_290_">
		<line class="st0" x1="346.5" y1="308.4" x2="365.7" y2="308.4"/>
	</g>
	<g id="LINE_291_">
		<line class="st0" x1="374.5" y1="308.4" x2="433.7" y2="308.4"/>
	</g>
	<g id="LINE_292_">
		<line class="st0" x1="442.5" y1="308.4" x2="501.8" y2="308.4"/>
	</g>
	<g id="LINE_293_">
		<line class="st0" x1="510.5" y1="308.4" x2="542.7" y2="308.4"/>
	</g>
	<g id="LINE_294_">
		<line class="st0" x1="565.3" y1="308.4" x2="569.8" y2="308.4"/>
	</g>
	<g id="LINE_295_">
		<line class="st0" x1="312.1" y1="314.1" x2="332.2" y2="334.2"/>
	</g>
	<g id="LINE_296_">
		<line class="st0" x1="327.7" y1="334.2" x2="310.4" y2="316.8"/>
	</g>
	<g id="LINE_297_">
		<line class="st0" x1="73.3" y1="75.1" x2="81.8" y2="83.6"/>
	</g>
	<g id="LINE_298_">
		<line class="st0" x1="79" y1="86.3" x2="70.1" y2="77.4"/>
	</g>
	<g id="LINE_299_">
		<line class="st0" x1="589.6" y1="83.6" x2="598.1" y2="75.1"/>
	</g>
	<g id="LINE_300_">
		<line class="st0" x1="339.9" y1="334.2" x2="365.7" y2="308.4"/>
	</g>
	<g id="LINE_301_">
		<line class="st0" x1="370.1" y1="308.5" x2="344.4" y2="334.2"/>
	</g>
	<g id="LINE_302_">
		<line class="st0" x1="601.3" y1="77.5" x2="592.4" y2="86.3"/>
	</g>
	<g id="LINE_303_">
		<line class="st0" x1="72.9" y1="334.2" x2="123.6" y2="334.2"/>
	</g>
	<g id="LINE_304_">
		<line class="st0" x1="128.1" y1="334.2" x2="135.8" y2="334.2"/>
	</g>
	<g id="LINE_305_">
		<line class="st0" x1="140.3" y1="334.2" x2="191.7" y2="334.2"/>
	</g>
	<g id="LINE_306_">
		<line class="st0" x1="196.2" y1="334.2" x2="203.9" y2="334.2"/>
	</g>
	<g id="LINE_307_">
		<line class="st0" x1="208.4" y1="334.2" x2="259.7" y2="334.2"/>
	</g>
	<g id="LINE_308_">
		<line class="st0" x1="264.2" y1="334.2" x2="271.9" y2="334.2"/>
	</g>
	<g id="LINE_309_">
		<line class="st0" x1="276.4" y1="334.2" x2="327.7" y2="334.2"/>
	</g>
	<g id="LINE_310_">
		<line class="st0" x1="332.2" y1="334.2" x2="339.9" y2="334.2"/>
	</g>
	<g id="LINE_311_">
		<line class="st0" x1="344.4" y1="334.2" x2="395.8" y2="334.2"/>
	</g>
	<g id="LINE_312_">
		<line class="st0" x1="400.3" y1="334.2" x2="407.9" y2="334.2"/>
	</g>
	<g id="LINE_313_">
		<line class="st0" x1="412.5" y1="334.2" x2="463.8" y2="334.2"/>
	</g>
	<g id="LINE_314_">
		<line class="st0" x1="468.3" y1="334.2" x2="476" y2="334.2"/>
	</g>
	<g id="LINE_315_">
		<line class="st0" x1="480.5" y1="334.2" x2="531.8" y2="334.2"/>
	</g>
	<g id="LINE_316_">
		<line class="st0" x1="536.3" y1="334.2" x2="544" y2="334.2"/>
	</g>
	<g id="LINE_317_">
		<line class="st0" x1="548.5" y1="334.2" x2="598.5" y2="334.2"/>
	</g>
	<g id="LINE_318_">
		<line class="st0" x1="607.6" y1="340.4" x2="63.9" y2="340.4"/>
	</g>
	<g id="LINE_319_">
		<line class="st0" x1="70.1" y1="139.7" x2="98.7" y2="168.3"/>
	</g>
	<g id="LINE_320_">
		<line class="st0" x1="238.4" y1="308.4" x2="264.2" y2="334.2"/>
	</g>
	<g id="LINE_321_">
		<line class="st0" x1="572.7" y1="168.3" x2="601.3" y2="139.7"/>
	</g>
	<g id="LINE_322_">
		<line class="st0" x1="407.9" y1="334.2" x2="433.7" y2="308.4"/>
	</g>
	<g id="LINE_323_">
		<line class="st0" x1="96.2" y1="170.3" x2="89.5" y2="163.6"/>
	</g>
	<g id="LINE_324_">
		<line class="st0" x1="84.8" y1="158.9" x2="70.1" y2="144.2"/>
	</g>
	<g id="LINE_325_">
		<line class="st0" x1="259.7" y1="334.2" x2="234" y2="308.5"/>
	</g>
	<g id="LINE_326_">
		<line class="st0" x1="601.3" y1="144.2" x2="575.2" y2="170.3"/>
	</g>
	<g id="LINE_327_">
		<line class="st0" x1="438.1" y1="308.5" x2="412.5" y2="334.2"/>
	</g>
	<g id="LINE_328_">
		<line class="st0" x1="170.4" y1="308.4" x2="196.2" y2="334.2"/>
	</g>
	<g id="LINE_329_">
		<line class="st0" x1="70.1" y1="208.6" x2="98.7" y2="237.2"/>
	</g>
	<g id="LINE_330_">
		<line class="st0" x1="191.7" y1="334.2" x2="166" y2="308.5"/>
	</g>
	<g id="LINE_331_">
		<line class="st0" x1="96.2" y1="239.2" x2="70.1" y2="213.1"/>
	</g>
	<g id="LINE_332_">
		<line class="st0" x1="572.7" y1="237.2" x2="601.3" y2="208.6"/>
	</g>
	<g id="LINE_333_">
		<line class="st0" x1="476" y1="334.2" x2="501.8" y2="308.4"/>
	</g>
	<g id="LINE_334_">
		<line class="st0" x1="601.3" y1="213.1" x2="575.2" y2="239.2"/>
	</g>
	<g id="LINE_335_">
		<line class="st0" x1="506.2" y1="308.5" x2="480.5" y2="334.2"/>
	</g>
	<g id="LINE_336_">
		<line class="st0" x1="102.4" y1="308.4" x2="106.5" y2="312.6"/>
	</g>
	<g id="LINE_337_">
		<line class="st0" x1="114.4" y1="320.5" x2="128.1" y2="334.2"/>
	</g>
	<g id="LINE_338_">
		<line class="st0" x1="70.1" y1="277.4" x2="98.7" y2="306.1"/>
	</g>
	<g id="LINE_339_">
		<line class="st0" x1="123.6" y1="334.2" x2="101.4" y2="312"/>
	</g>
	<g id="LINE_340_">
		<line class="st0" x1="90.7" y1="302.6" x2="70.1" y2="281.9"/>
	</g>
	<g id="LINE_341_">
		<line class="st0" x1="568.2" y1="105.4" x2="568.2" y2="303.9"/>
	</g>
	<g id="LINE_342_">
		<line class="st0" x1="572.7" y1="306.1" x2="572.7" y2="241.1"/>
	</g>
	<g id="LINE_343_">
		<line class="st0" x1="572.7" y1="237.2" x2="572.7" y2="172.2"/>
	</g>
	<g id="LINE_344_">
		<line class="st0" x1="572.7" y1="168.3" x2="572.7" y2="103.4"/>
	</g>
	<g id="LINE_345_">
		<line class="st0" x1="544" y1="334.2" x2="558.1" y2="320.1"/>
	</g>
	<g id="LINE_346_">
		<line class="st0" x1="564.5" y1="313.7" x2="569.8" y2="308.4"/>
	</g>
	<g id="LINE_347_">
		<line class="st0" x1="572.7" y1="306.1" x2="601.3" y2="277.4"/>
	</g>
	<g id="LINE_348_">
		<line class="st0" x1="569.8" y1="313" x2="548.5" y2="334.2"/>
	</g>
	<g id="LINE_349_">
		<line class="st0" x1="601.3" y1="281.9" x2="580.7" y2="302.6"/>
	</g>
	<g id="LINE_350_">
		<line class="st0" x1="585.2" y1="246.8" x2="585.2" y2="243.6"/>
	</g>
	<g id="LINE_351_">
		<line class="st0" x1="585.2" y1="247.6" x2="585.2" y2="250.7"/>
	</g>
	<g id="LINE_352_">
		<line class="st0" x1="601.3" y1="331.4" x2="601.3" y2="281.9"/>
	</g>
	<g id="LINE_353_">
		<line class="st0" x1="601.3" y1="277.4" x2="601.3" y2="269.8"/>
	</g>
	<g id="LINE_354_">
		<line class="st0" x1="601.3" y1="265.2" x2="601.3" y2="213.1"/>
	</g>
	<g id="LINE_355_">
		<line class="st0" x1="601.3" y1="208.6" x2="601.3" y2="200.9"/>
	</g>
	<g id="LINE_356_">
		<line class="st0" x1="601.3" y1="196.4" x2="601.3" y2="144.2"/>
	</g>
	<g id="LINE_357_">
		<line class="st0" x1="601.3" y1="139.7" x2="601.3" y2="132"/>
	</g>
	<g id="LINE_358_">
		<line class="st0" x1="601.3" y1="127.5" x2="601.3" y2="77.5"/>
	</g>
	<g id="LINE_359_">
		<line class="st0" x1="607.6" y1="68.9" x2="607.6" y2="340.4"/>
	</g>
	<g id="LINE_360_">
		<line class="st0" x1="646" y1="496.3" x2="646" y2="524.7"/>
	</g>
	<g id="LINE_361_">
		<line class="st0" x1="627.2" y1="496.3" x2="627.2" y2="491.8"/>
	</g>
	<g id="LINE_362_">
		<line class="st0" x1="623.6" y1="488.7" x2="623.6" y2="491.8"/>
	</g>
	<g id="LINE_363_">
		<line class="st0" x1="620.1" y1="496.3" x2="620.1" y2="491.8"/>
	</g>
	<g id="LINE_364_">
		<line class="st0" x1="646" y1="524.7" x2="102.4" y2="524.7"/>
	</g>
	<g id="LINE_365_">
		<line class="st0" x1="646" y1="496.3" x2="102.4" y2="496.3"/>
	</g>
	<g id="LINE_366_">
		<line class="st0" x1="627.2" y1="491.8" x2="620.1" y2="491.8"/>
	</g>
	<g id="LINE_367_">
		<line class="st0" x1="128.3" y1="491.8" x2="121.2" y2="491.8"/>
	</g>
	<g id="LINE_368_">
		<line class="st0" x1="124.3" y1="488.7" x2="125.2" y2="488.7"/>
	</g>
	<g id="LINE_369_">
		<line class="st0" x1="623.2" y1="488.7" x2="624.1" y2="488.7"/>
	</g>
	<g id="LINE_370_">
		<line class="st0" x1="128.3" y1="496.3" x2="128.3" y2="491.8"/>
	</g>
	<g id="LINE_371_">
		<line class="st0" x1="124.7" y1="488.7" x2="124.7" y2="491.8"/>
	</g>
	<g id="LINE_372_">
		<line class="st0" x1="121.2" y1="496.3" x2="121.2" y2="491.8"/>
	</g>
	<g id="LINE_373_">
		<line class="st0" x1="102.4" y1="496.3" x2="102.4" y2="524.7"/>
	</g>
	<g id="LINE_374_">
		<line class="st0" x1="108.6" y1="579.6" x2="108.6" y2="608"/>
	</g>
	<g id="LINE_375_">
		<line class="st0" x1="198.3" y1="579.6" x2="198.3" y2="575.1"/>
	</g>
	<g id="LINE_376_">
		<line class="st0" x1="205.4" y1="579.6" x2="205.4" y2="575.1"/>
	</g>
	<g id="LINE_377_">
		<line class="st0" x1="380.1" y1="608" x2="108.6" y2="608"/>
	</g>
	<g id="LINE_378_">
		<line class="st0" x1="380.1" y1="579.6" x2="108.6" y2="579.6"/>
	</g>
	<g id="LINE_379_">
		<line class="st0" x1="290.4" y1="575.1" x2="283.3" y2="575.1"/>
	</g>
	<g id="LINE_380_">
		<line class="st0" x1="205.4" y1="575.1" x2="198.3" y2="575.1"/>
	</g>
	<g id="LINE_381_">
		<line class="st0" x1="287.3" y1="572" x2="286.4" y2="572"/>
	</g>
	<g id="LINE_382_">
		<line class="st0" x1="202.3" y1="572" x2="201.4" y2="572"/>
	</g>
	<g id="LINE_383_">
		<line class="st0" x1="283.3" y1="579.6" x2="283.3" y2="575.1"/>
	</g>
	<g id="LINE_384_">
		<line class="st0" x1="290.4" y1="579.6" x2="290.4" y2="575.1"/>
	</g>
	<g id="LINE_385_">
		<line class="st0" x1="380.1" y1="579.6" x2="380.1" y2="608"/>
	</g>
	<g id="ARC_22_">
		<path class="st0" d="M101.6,96.7c1.5-6.9-2.9-13.7-9.8-15.1c-3.4-0.7-7,0-9.9,2"/>
	</g>
	<g id="ARC_23_">
		<path class="st0" d="M79,86.3c-4.3,5.6-3.3,13.6,2.3,17.9c2.7,2.1,6.2,3,9.5,2.5"/>
	</g>
	<g id="ARC_24_">
		<path class="st0" d="M128.7,100.9c0.6-6.2-3.9-11.8-10.1-12.4c-1.6-0.2-3.2,0-4.8,0.5"/>
	</g>
	<g id="ARC_25_">
		<path class="st0" d="M106.7,96.1c-0.5,1.5-0.7,3.2-0.5,4.8"/>
	</g>
	<g id="ARC_26_">
		<path class="st0" d="M107.6,105.4c3.1,5.4,10.1,7.3,15.5,4.2c1.7-1,3.2-2.4,4.2-4.2"/>
	</g>
	<g id="CIRCLE_21_">
		<path class="st0" d="M86.3,158.6c2,0,3.5,1.6,3.5,3.5s-1.6,3.5-3.5,3.5c-2,0-3.5-1.6-3.5-3.5S84.3,158.6,86.3,158.6L86.3,158.6z"
			/>
	</g>
	<g id="CIRCLE_22_">
		<path class="st0" d="M86.3,161.7c0.2,0,0.4,0.2,0.4,0.4s-0.2,0.4-0.4,0.4c-0.2,0-0.4-0.2-0.4-0.4S86,161.7,86.3,161.7L86.3,161.7z
			"/>
	</g>
	<g id="ARC_27_">
		<path class="st0" d="M329.9,105.4c3.7,1.9,8,1.9,11.7,0"/>
	</g>
	<g id="ARC_28_">
		<path class="st0" d="M346.5,100.9c3.8-6,2-13.8-4-17.6c-6-3.8-13.8-2-17.6,4c-2.6,4.2-2.6,9.4,0,13.6"/>
	</g>
	<g id="ARC_29_">
		<path class="st0" d="M589.6,83.6c-5.8-4-13.7-2.6-17.8,3.2c-1.8,2.6-2.6,5.9-2.2,9"/>
	</g>
	<g id="ARC_30_">
		<path class="st0" d="M580.6,106.7c7,1,13.4-3.9,14.4-10.9c0.5-3.4-0.4-6.8-2.5-9.5"/>
	</g>
	<g id="ARC_31_">
		<path class="st0" d="M565.3,100.9c0.2-2.1-0.2-4.1-1.1-6"/>
	</g>
	<g id="ARC_32_">
		<path class="st0" d="M381,100.9c0.2-2-0.1-4.1-1-5.9"/>
	</g>
	<g id="ARC_33_">
		<path class="st0" d="M558.9,89.5c-5.7-2.7-12.4-0.3-15.1,5.3c-0.9,1.9-1.3,4-1.1,6"/>
	</g>
	<g id="ARC_34_">
		<path class="st0" d="M378.2,92.2c-4.2-4.7-11.3-5.1-16-0.9c-0.2,0.2-0.4,0.4-0.6,0.6"/>
	</g>
	<g id="ARC_35_">
		<path class="st0" d="M544.2,105.4c3.1,5.4,10.1,7.3,15.5,4.2c1.7-1,3.2-2.4,4.2-4.2"/>
	</g>
	<g id="ARC_36_">
		<path class="st0" d="M359.9,105.4c3.1,5.4,10.1,7.3,15.5,4.2c1.7-1,3.2-2.4,4.2-4.2"/>
	</g>
	<g id="ARC_37_">
		<path class="st0" d="M359.7,94.5c-1,2-1.5,4.2-1.3,6.4"/>
	</g>
	<g id="CIRCLE_26_">
		<path class="st0" d="M369.7,92.7c3.9,0,7.1,3.2,7.1,7.1c0,3.9-3.2,7.1-7.1,7.1c-3.9,0-7.1-3.2-7.1-7.1
			C362.6,95.9,365.8,92.7,369.7,92.7L369.7,92.7z"/>
	</g>
	<g id="ARC_38_">
		<path class="st0" d="M90.7,302.6c-7-0.9-13.4,4-14.3,11c-0.4,3.2,0.4,6.5,2.4,9.2"/>
	</g>
	<g id="ARC_39_">
		<path class="st0" d="M81.6,325.5c5.7,4.2,13.7,2.9,17.8-2.8c2.3-3.1,3-7,2.1-10.7"/>
	</g>
	<g id="ARC_40_">
		<path class="st0" d="M106.2,308.4c-0.1,1.4,0,2.8,0.4,4.2"/>
	</g>
	<g id="ARC_41_">
		<path class="st0" d="M114.4,320.5c6,1.7,12.3-1.9,14-7.9c0.4-1.4,0.5-2.8,0.4-4.2"/>
	</g>
	<g id="ARC_42_">
		<path class="st0" d="M290.4,308.4c-0.2,2.1,0.2,4.2,1.1,6.2"/>
	</g>
	<g id="ARC_43_">
		<path class="st0" d="M293.4,317.2c4.2,4.6,11.4,4.9,16,0.6c0.3-0.3,0.7-0.7,1-1"/>
	</g>
	<g id="ARC_44_">
		<path class="st0" d="M127.3,303.9c-3.1-5.4-10.1-7.3-15.5-4.2c-1.7,1-3.2,2.4-4.2,4.2"/>
	</g>
	<g id="ARC_45_">
		<path class="st0" d="M311.5,303.9c-3.1-5.4-10.1-7.3-15.5-4.2c-1.7,1-3.2,2.4-4.2,4.2"/>
	</g>
	<g id="ARC_46_">
		<path class="st0" d="M312.1,314.1c0.8-1.8,1.1-3.7,0.9-5.7"/>
	</g>
	<g id="CIRCLE_31_">
		<path class="st0" d="M301.7,302.5c3.9,0,7.1,3.2,7.1,7.1s-3.2,7.1-7.1,7.1c-3.9,0-7.1-3.2-7.1-7.1S297.8,302.5,301.7,302.5
			L301.7,302.5z"/>
	</g>
	<g id="ARC_47_">
		<path class="st0" d="M341.6,303.9c-3.7-1.9-8-1.9-11.7,0"/>
	</g>
	<g id="ARC_48_">
		<path class="st0" d="M324.9,308.4c-3.8,6-2,13.8,4,17.6c6,3.8,13.8,2,17.6-4c2.6-4.2,2.6-9.4,0-13.6"/>
	</g>
	<g id="ARC_49_">
		<path class="st0" d="M569.8,313c-1.2,6.9,3.4,13.6,10.3,14.8c3.4,0.6,7-0.2,9.8-2.3"/>
	</g>
	<g id="ARC_50_">
		<path class="st0" d="M592.6,322.7c4.2-5.7,2.9-13.7-2.8-17.8c-2.6-1.9-5.9-2.8-9.1-2.4"/>
	</g>
	<g id="ARC_51_">
		<path class="st0" d="M542.7,308.4c-0.6,6.2,3.9,11.8,10.1,12.4c1.8,0.2,3.6-0.1,5.3-0.7"/>
	</g>
	<g id="ARC_52_">
		<path class="st0" d="M564.5,313.7c0.7-1.7,0.9-3.5,0.7-5.3"/>
	</g>
	<g id="ARC_53_">
		<path class="st0" d="M563.8,303.9c-3.1-5.4-10.1-7.3-15.5-4.2c-1.7,1-3.2,2.4-4.2,4.2"/>
	</g>
	<g id="CIRCLE_38_">
		<path class="st0" d="M585.2,243.6c2,0,3.5,1.6,3.5,3.5c0,2-1.6,3.5-3.5,3.5s-3.5-1.6-3.5-3.5C581.6,245.2,583.2,243.6,585.2,243.6
			L585.2,243.6z"/>
	</g>
	<g id="CIRCLE_39_">
		<path class="st0" d="M585.2,246.8c0.2,0,0.4,0.2,0.4,0.4s-0.2,0.4-0.4,0.4c-0.2,0-0.4-0.2-0.4-0.4S584.9,246.8,585.2,246.8
			L585.2,246.8z"/>
	</g>
	<g id="ARC_54_">
		<path class="st0" d="M124.3,488.7c-1.7,0-3.1,1.4-3.1,3.1"/>
	</g>
	<g id="ARC_55_">
		<path class="st0" d="M128.3,491.8c0-1.7-1.4-3.1-3.1-3.1"/>
	</g>
	<g id="ARC_56_">
		<path class="st0" d="M627.2,491.8c0-1.7-1.4-3.1-3.1-3.1"/>
	</g>
	<g id="ARC_57_">
		<path class="st0" d="M623.2,488.7c-1.7,0-3.1,1.4-3.1,3.1"/>
	</g>
	<g id="ARC_58_">
		<path class="st0" d="M286.4,572c-1.7,0-3.1,1.4-3.1,3.1"/>
	</g>
	<g id="ARC_59_">
		<path class="st0" d="M290.4,575.1c0-1.7-1.4-3.1-3.1-3.1"/>
	</g>
	<g id="ARC_60_">
		<path class="st0" d="M205.4,575.1c0-1.7-1.4-3.1-3.1-3.1"/>
	</g>
	<g id="ARC_61_">
		<path class="st0" d="M201.4,572c-1.7,0-3.1,1.4-3.1,3.1"/>
	</g>
	<g id="CIRCLE_44_">
		<path class="st0" d="M582.3,108.3c6.3,0,11.3,5.1,11.3,11.3s-5.1,11.3-11.3,11.3s-11.3-5.1-11.3-11.3S576.1,108.3,582.3,108.3
			L582.3,108.3z"/>
	</g>
	<g id="CIRCLE_45_">
		<path class="st0" d="M582.3,278.4c6.3,0,11.3,5.1,11.3,11.3c0,6.3-5.1,11.3-11.3,11.3S571,296,571,289.7
			C571,283.4,576.1,278.4,582.3,278.4L582.3,278.4z"/>
	</g>
	<g id="CIRCLE_46_">
		<path class="st0" d="M89.1,278.4c6.3,0,11.3,5.1,11.3,11.3c0,6.3-5.1,11.3-11.3,11.3c-6.3,0-11.3-5.1-11.3-11.3
			C77.8,283.4,82.8,278.4,89.1,278.4L89.1,278.4z"/>
	</g>
	<g id="CIRCLE_47_">
		<path class="st0" d="M89.1,108.3c6.3,0,11.3,5.1,11.3,11.3S95.4,131,89.1,131c-6.3,0-11.3-5.1-11.3-11.3S82.8,108.3,89.1,108.3
			L89.1,108.3z"/>
	</g>
</g>
<g id="screw">
	<g id="ARC_6_">
		<path class="st1" d="M297.4,309.5c0,2.3,1.9,4.3,4.3,4.3s4.3-1.9,4.3-4.3s-1.9-4.3-4.3-4.3"/>
	</g>
	<g id="LINE_107_">
		<line class="st2" x1="301.7" y1="304.9" x2="301.7" y2="314.2"/>
	</g>
	<g id="LINE_106_">
		<line class="st2" x1="297" y1="309.5" x2="306.4" y2="309.5"/>
	</g>
	<g id="CIRCLE_6_">
		<path class="st3" d="M301.7,306c2,0,3.5,1.6,3.5,3.5s-1.6,3.5-3.5,3.5s-3.5-1.6-3.5-3.5S299.7,306,301.7,306L301.7,306z"/>
	</g>
	<g id="TEXT_12_">
		<text transform="matrix(-1.346898e-10 1 -1 -1.346898e-10 299.5692 308.0961)" class="st4 st5 st6">M3</text>
	</g>
	<g id="ARC_5_">
		<path class="st1" d="M365.5,99.8c0,2.3,1.9,4.3,4.3,4.3s4.3-1.9,4.3-4.3s-1.9-4.3-4.3-4.3"/>
	</g>
	<g id="LINE_105_">
		<line class="st2" x1="369.7" y1="95.1" x2="369.7" y2="104.5"/>
	</g>
	<g id="LINE_104_">
		<line class="st2" x1="365" y1="99.8" x2="374.4" y2="99.8"/>
	</g>
	<g id="CIRCLE_5_">
		<path class="st3" d="M369.7,96.2c2,0,3.5,1.6,3.5,3.5c0,2-1.6,3.5-3.5,3.5s-3.5-1.6-3.5-3.5C366.2,97.8,367.8,96.2,369.7,96.2
			L369.7,96.2z"/>
	</g>
	<g id="TEXT_11_">
		<text transform="matrix(-1.346898e-10 1 -1 -1.346898e-10 367.6005 98.3324)" class="st4 st5 st6">M3</text>
	</g>
	<g id="LINE_103_">
		<line class="st7" x1="335.7" y1="68.9" x2="335.7" y2="340.4"/>
	</g>
	<g id="LINE_102_">
		<line class="st7" x1="63.9" y1="204.7" x2="607.6" y2="204.7"/>
	</g>
	<g id="ARC_4_">
		<path class="st1" d="M84.8,119.6c0,2.3,1.9,4.3,4.3,4.3s4.3-1.9,4.3-4.3s-1.9-4.3-4.3-4.3"/>
	</g>
	<g id="LINE_101_">
		<line class="st2" x1="89.1" y1="114.9" x2="89.1" y2="124.3"/>
	</g>
	<g id="LINE_100_">
		<line class="st2" x1="84.4" y1="119.6" x2="93.8" y2="119.6"/>
	</g>
	<g id="CIRCLE_4_">
		<path class="st3" d="M89.1,116.1c2,0,3.5,1.6,3.5,3.5s-1.6,3.5-3.5,3.5s-3.5-1.6-3.5-3.5S87.1,116.1,89.1,116.1L89.1,116.1z"/>
	</g>
	<g id="TEXT_10_">
		<text transform="matrix(-1.346898e-10 1 -1 -1.346898e-10 86.9706 118.1752)" class="st4 st5 st6">M3</text>
	</g>
	<g id="ARC_3_">
		<path class="st1" d="M84.8,289.7c0,2.3,1.9,4.3,4.3,4.3s4.3-1.9,4.3-4.3s-1.9-4.3-4.3-4.3"/>
	</g>
	<g id="LINE_99_">
		<line class="st2" x1="89.1" y1="285" x2="89.1" y2="294.4"/>
	</g>
	<g id="LINE_98_">
		<line class="st2" x1="84.4" y1="289.7" x2="93.8" y2="289.7"/>
	</g>
	<g id="CIRCLE_3_">
		<path class="st3" d="M89.1,286.2c2,0,3.5,1.6,3.5,3.5s-1.6,3.5-3.5,3.5s-3.5-1.6-3.5-3.5S87.1,286.2,89.1,286.2L89.1,286.2z"/>
	</g>
	<g id="TEXT_9_">
		<text transform="matrix(-1.346898e-10 1 -1 -1.346898e-10 86.9706 288.2533)" class="st4 st5 st6">M3</text>
	</g>
	<g id="ARC_2_">
		<path class="st1" d="M578.1,119.6c0,2.3,1.9,4.3,4.3,4.3c2.3,0,4.3-1.9,4.3-4.3s-1.9-4.3-4.3-4.3"/>
	</g>
	<g id="LINE_97_">
		<line class="st2" x1="582.3" y1="114.9" x2="582.3" y2="124.3"/>
	</g>
	<g id="LINE_96_">
		<line class="st2" x1="577.6" y1="119.6" x2="587" y2="119.6"/>
	</g>
	<g id="CIRCLE_2_">
		<path class="st3" d="M582.3,116.1c2,0,3.5,1.6,3.5,3.5s-1.6,3.5-3.5,3.5s-3.5-1.6-3.5-3.5S580.4,116.1,582.3,116.1L582.3,116.1z"
			/>
	</g>
	<g id="TEXT_8_">
		<text transform="matrix(-1.346898e-10 1 -1 -1.346898e-10 580.1981 118.1752)" class="st4 st5 st6">M3</text>
	</g>
	<g id="ARC_1_">
		<path class="st1" d="M578.1,289.7c0,2.3,1.9,4.3,4.3,4.3s4.3-1.9,4.3-4.3s-1.9-4.3-4.3-4.3"/>
	</g>
	<g id="LINE_95_">
		<line class="st2" x1="582.3" y1="285" x2="582.3" y2="294.4"/>
	</g>
	<g id="LINE_94_">
		<line class="st2" x1="577.6" y1="289.7" x2="587" y2="289.7"/>
	</g>
	<g id="CIRCLE_1_">
		<path class="st3" d="M582.3,286.2c2,0,3.5,1.6,3.5,3.5s-1.6,3.5-3.5,3.5s-3.5-1.6-3.5-3.5S580.4,286.2,582.3,286.2L582.3,286.2z"
			/>
	</g>
	<g id="TEXT_1_">
		<text transform="matrix(-1.346898e-10 1 -1 -1.346898e-10 580.1981 288.2533)" class="st4 st5 st6">M3</text>
	</g>
</g>
<g id="dim">
	<g id="LINE_24_">
		<line class="st8" x1="100.9" y1="524.7" x2="74.3" y2="524.7"/>
	</g>
	<g id="LINE_23_">
		<line class="st8" x1="100.9" y1="496.3" x2="74.3" y2="496.3"/>
	</g>
	<g id="LINE_22_">
		<line class="st8" x1="75.7" y1="519" x2="75.7" y2="502"/>
	</g>
	<g id="SOLID_16_">
		<polygon class="st9" points="74.8,519 75.7,524.7 76.7,519 		"/>
	</g>
	<g id="SOLID_11_">
		<polygon class="st9" points="74.8,502 75.7,496.3 76.7,502 		"/>
	</g>
	<g id="MTEXT_6_">
		<text transform="matrix(4.489659e-11 -1 1 4.489659e-11 74.3135 517.735)" class="st9 st5 st10">10</text>
	</g>
	<g id="LINE_16_">
		<line class="st8" x1="381.5" y1="579.6" x2="441.3" y2="579.6"/>
	</g>
	<g id="LINE_15_">
		<line class="st8" x1="381.5" y1="608" x2="441.3" y2="608"/>
	</g>
	<g id="LINE_14_">
		<line class="st8" x1="439.9" y1="585.3" x2="439.9" y2="602.3"/>
	</g>
	<g id="SOLID_8_">
		<polygon class="st9" points="438.9,585.3 439.9,579.6 440.8,585.3 		"/>
	</g>
	<g id="SOLID_5_">
		<polygon class="st9" points="438.9,602.3 439.9,608 440.8,602.3 		"/>
	</g>
	<g id="MTEXT_4_">
		<text transform="matrix(6.123032e-17 -1 1 6.123032e-17 438.4586 601.0739)" class="st9 st5 st10">10</text>
	</g>
	<g id="LINE_21_">
		<line class="st8" x1="123.3" y1="488.7" x2="51.1" y2="488.7"/>
	</g>
	<g id="LINE_20_">
		<line class="st8" x1="119.8" y1="496.3" x2="51.1" y2="496.3"/>
	</g>
	<g id="LINE_19_">
		<line class="st8" x1="52.6" y1="483" x2="52.6" y2="477.3"/>
	</g>
	<g id="LINE_18_">
		<line class="st8" x1="52.6" y1="502" x2="52.6" y2="525.8"/>
	</g>
	<g id="LINE_17_">
		<line class="st8" x1="52.6" y1="488.7" x2="52.6" y2="496.3"/>
	</g>
	<g id="SOLID_10_">
		<polygon class="st9" points="51.6,483 52.6,488.7 53.5,483 		"/>
	</g>
	<g id="SOLID_9_">
		<polygon class="st9" points="51.6,502 52.6,496.3 53.5,502 		"/>
	</g>
	<g id="MTEXT_5_">
		<text transform="matrix(4.489659e-11 -1 1 4.489659e-11 49.8722 525.1755)" class="st9 st5 st10">2,7</text>
	</g>
	<g id="LINE_13_">
		<line class="st8" x1="200.8" y1="572" x2="70.9" y2="572"/>
	</g>
	<g id="LINE_12_">
		<line class="st8" x1="200.8" y1="579.6" x2="70.9" y2="579.6"/>
	</g>
	<g id="LINE_11_">
		<line class="st8" x1="72.3" y1="566.3" x2="72.3" y2="560.7"/>
	</g>
	<g id="LINE_10_">
		<line class="st8" x1="72.3" y1="585.3" x2="72.3" y2="609.2"/>
	</g>
	<g id="LINE_9_">
		<line class="st8" x1="72.3" y1="572" x2="72.3" y2="579.6"/>
	</g>
	<g id="SOLID_4_">
		<polygon class="st9" points="71.3,566.3 72.3,572 73.2,566.3 		"/>
	</g>
	<g id="SOLID_1_">
		<polygon class="st9" points="71.3,585.3 72.3,579.6 73.2,585.3 		"/>
	</g>
	<g id="MTEXT_2_">
		<text transform="matrix(6.123032e-17 -1 1 6.123032e-17 69.5895 608.5134)" class="st9 st5 st10">2,7</text>
	</g>
	<g id="LINE_441_">
		<line class="st8" x1="585.2" y1="248.6" x2="585.2" y2="258.5"/>
	</g>
	<g id="LINE_442_">
		<line class="st8" x1="585.2" y1="258.5" x2="585.1" y2="250.3"/>
	</g>
	<g id="LINE_443_">
		<line class="st8" x1="585.1" y1="250.3" x2="585.1" y2="274.9"/>
	</g>
	<g id="MTEXT_15_">
		<text transform="matrix(-1.346898e-10 1 -1 -1.346898e-10 586.5634 262.2572)" class="st9 st5 st10">88</text>
	</g>
	<g id="LINE_444_">
		<line class="st8" x1="586.6" y1="247.2" x2="596.5" y2="247.2"/>
	</g>
	<g id="LINE_445_">
		<line class="st8" x1="596.5" y1="247.2" x2="606.8" y2="247.2"/>
	</g>
	<g id="LINE_446_">
		<line class="st8" x1="606.8" y1="247.2" x2="629" y2="247.2"/>
	</g>
	<g id="MTEXT_16_">
		<text transform="matrix(1 0 0 1 617.0135 245.7904)" class="st9 st5 st10">15</text>
	</g>
	<g id="LINE_447_">
		<line class="st8" x1="86.3" y1="163.6" x2="86.3" y2="173.5"/>
	</g>
	<g id="LINE_448_">
		<line class="st8" x1="86.3" y1="173.5" x2="86.2" y2="177"/>
	</g>
	<g id="LINE_449_">
		<line class="st8" x1="86.2" y1="177" x2="86.2" y2="201.6"/>
	</g>
	<g id="MTEXT_17_">
		<text transform="matrix(-1.346898e-10 1 -1 -1.346898e-10 87.6249 188.9213)" class="st9 st5 st10">88</text>
	</g>
	<g id="LINE_450_">
		<line class="st8" x1="84.8" y1="162.1" x2="74.9" y2="162.1"/>
	</g>
	<g id="LINE_451_">
		<line class="st8" x1="74.9" y1="162.1" x2="68.9" y2="162.2"/>
	</g>
	<g id="LINE_452_">
		<line class="st8" x1="68.9" y1="162.2" x2="46.7" y2="162.2"/>
	</g>
	<g id="MTEXT_18_">
		<text transform="matrix(1 0 0 1 44.1913 160.7748)" class="st9 st5 st10">15</text>
	</g>
	<g id="LINE_453_">
		<line class="st8" x1="87.7" y1="315.2" x2="76.8" y2="315.2"/>
	</g>
	<g id="LINE_454_">
		<line class="st8" x1="76.8" y1="315.2" x2="65.5" y2="315.2"/>
	</g>
	<g id="LINE_455_">
		<line class="st8" x1="65.5" y1="315.2" x2="40.9" y2="315.2"/>
	</g>
	<g id="MTEXT_19_">
		<text transform="matrix(1 0 0 1 40.2284 313.8217)" class="st9 st5 st10">39</text>
	</g>
	<g id="LINE_456_">
		<line class="st8" x1="87.7" y1="94.1" x2="77.8" y2="94.1"/>
	</g>
	<g id="LINE_457_">
		<line class="st8" x1="77.8" y1="94.1" x2="70.2" y2="94"/>
	</g>
	<g id="LINE_458_">
		<line class="st8" x1="70.2" y1="94" x2="45.7" y2="94"/>
	</g>
	<g id="MTEXT_20_">
		<text transform="matrix(1 0 0 1 44.9794 92.5463)" class="st9 st5 st10">39</text>
	</g>
	<g id="LINE_459_">
		<line class="st8" x1="301.7" y1="311" x2="301.7" y2="332.1"/>
	</g>
	<g id="LINE_460_">
		<line class="st8" x1="301.7" y1="332.1" x2="301.6" y2="343.4"/>
	</g>
	<g id="LINE_461_">
		<line class="st8" x1="301.6" y1="343.4" x2="301.6" y2="365.6"/>
	</g>
	<g id="MTEXT_21_">
		<text transform="matrix(-1.346898e-10 1 -1 -1.346898e-10 303.0145 353.6479)" class="st9 st5 st10">12</text>
	</g>
	<g id="LINE_462_">
		<line class="st8" x1="335.7" y1="95.5" x2="335.7" y2="339.8"/>
	</g>
	<g id="LINE_463_">
		<line class="st8" x1="335.7" y1="339.8" x2="336.1" y2="351.1"/>
	</g>
	<g id="LINE_464_">
		<line class="st8" x1="336.1" y1="351.1" x2="336.1" y2="367.4"/>
	</g>
	<g id="MTEXT_22_">
		<text transform="matrix(-1.346898e-10 1 -1 -1.346898e-10 337.5184 362.2738)" class="st9 st5 st10">0</text>
	</g>
	<g id="LINE_465_">
		<line class="st8" x1="369.7" y1="98.4" x2="369.7" y2="77.5"/>
	</g>
	<g id="LINE_466_">
		<line class="st8" x1="369.7" y1="77.5" x2="369.8" y2="66.2"/>
	</g>
	<g id="LINE_467_">
		<line class="st8" x1="369.8" y1="66.2" x2="369.8" y2="44"/>
	</g>
	<g id="MTEXT_23_">
		<text transform="matrix(-1.346898e-10 1 -1 -1.346898e-10 371.2274 41.4242)" class="st9 st5 st10">12</text>
	</g>
	<g id="LINE_468_">
		<line class="st8" x1="337.1" y1="94.1" x2="606.1" y2="94.1"/>
	</g>
	<g id="LINE_469_">
		<line class="st8" x1="606.1" y1="94.1" x2="617.4" y2="86"/>
	</g>
	<g id="LINE_470_">
		<line class="st8" x1="617.4" y1="86" x2="642" y2="86"/>
	</g>
	<g id="MTEXT_24_">
		<text transform="matrix(1 0 0 1 629.4911 84.5697)" class="st9 st5 st10">39</text>
	</g>
	<g id="LINE_471_">
		<line class="st8" x1="337.1" y1="315.2" x2="603.6" y2="315.2"/>
	</g>
	<g id="LINE_472_">
		<line class="st8" x1="603.6" y1="315.2" x2="615" y2="324"/>
	</g>
	<g id="LINE_473_">
		<line class="st8" x1="615" y1="324" x2="639.5" y2="324"/>
	</g>
	<g id="MTEXT_25_">
		<text transform="matrix(1 0 0 1 627.0526 322.6166)" class="st9 st5 st10">39</text>
	</g>
	<g id="LINE_480_">
		<line class="st8" x1="609" y1="68.9" x2="664.9" y2="68.9"/>
	</g>
	<g id="LINE_481_">
		<line class="st8" x1="609" y1="340.4" x2="664.9" y2="340.4"/>
	</g>
	<g id="LINE_482_">
		<line class="st8" x1="663.5" y1="74.5" x2="663.5" y2="334.8"/>
	</g>
	<g id="SOLID_12_">
		<polygon class="st9" points="664.4,74.5 663.5,68.9 662.5,74.5 		"/>
	</g>
	<g id="SOLID_13_">
		<polygon class="st9" points="664.4,334.8 663.5,340.4 662.5,334.8 		"/>
	</g>
	<g id="MTEXT_28_">
		<text transform="matrix(-1.346898e-10 1 -1 -1.346898e-10 666.1708 192.849)" class="st9 st5 st10">95,8</text>
	</g>
	<g id="LINE_483_">
		<line class="st8" x1="607.6" y1="341.9" x2="607.6" y2="432.1"/>
	</g>
	<g id="LINE_484_">
		<line class="st8" x1="63.9" y1="341.9" x2="63.9" y2="432.1"/>
	</g>
	<g id="LINE_485_">
		<line class="st8" x1="601.9" y1="430.7" x2="69.5" y2="430.7"/>
	</g>
	<g id="SOLID_14_">
		<polygon class="st9" points="601.9,429.7 607.6,430.7 601.9,431.6 		"/>
	</g>
	<g id="SOLID_15_">
		<polygon class="st9" points="69.5,429.7 63.9,430.7 69.5,431.6 		"/>
	</g>
	<g id="MTEXT_29_">
		<text transform="matrix(1 0 0 1 320.0204 427.9818)" class="st9 st5 st10">191,8</text>
	</g>
	<g id="LINE_502_">
		<line class="st8" x1="583.7" y1="119.6" x2="595.4" y2="119.6"/>
	</g>
	<g id="LINE_503_">
		<line class="st8" x1="595.4" y1="119.6" x2="606.7" y2="119.4"/>
	</g>
	<g id="LINE_504_">
		<line class="st8" x1="606.7" y1="119.4" x2="630.1" y2="119.4"/>
	</g>
	<g id="MTEXT_31_">
		<text transform="matrix(1 0 0 1 618.0673 117.9467)" class="st9 st5 st10">30</text>
	</g>
	<g id="LINE_505_">
		<line class="st8" x1="583.7" y1="289.7" x2="593.8" y2="289.7"/>
	</g>
	<g id="LINE_506_">
		<line class="st8" x1="593.8" y1="289.7" x2="605.2" y2="289.8"/>
	</g>
	<g id="LINE_507_">
		<line class="st8" x1="605.2" y1="289.8" x2="628.6" y2="289.8"/>
	</g>
	<g id="MTEXT_32_">
		<text transform="matrix(1 0 0 1 616.4882 288.3725)" class="st9 st5 st10">30</text>
	</g>
	<g id="LINE_508_">
		<line class="st8" x1="582.3" y1="118.2" x2="582.3" y2="75.4"/>
	</g>
	<g id="LINE_509_">
		<line class="st8" x1="582.3" y1="75.4" x2="582.3" y2="64"/>
	</g>
	<g id="LINE_510_">
		<line class="st8" x1="582.3" y1="64" x2="582.3" y2="39.4"/>
	</g>
	<g id="MTEXT_33_">
		<text transform="matrix(-1.346898e-10 1 -1 -1.346898e-10 583.6962 38.6059)" class="st9 st5 st10">87</text>
	</g>
	<g id="LINE_511_">
		<line class="st8" x1="582.3" y1="291.1" x2="582.3" y2="331"/>
	</g>
	<g id="LINE_512_">
		<line class="st8" x1="582.3" y1="331" x2="582.4" y2="342.4"/>
	</g>
	<g id="LINE_513_">
		<line class="st8" x1="582.4" y1="342.4" x2="582.4" y2="366.9"/>
	</g>
	<g id="MTEXT_34_">
		<text transform="matrix(-1.346898e-10 1 -1 -1.346898e-10 583.7665 354.2777)" class="st9 st5 st10">87</text>
	</g>
	<g id="LINE_514_">
		<line class="st8" x1="89.1" y1="291.1" x2="89.1" y2="330.6"/>
	</g>
	<g id="LINE_515_">
		<line class="st8" x1="89.1" y1="330.6" x2="89.1" y2="341.9"/>
	</g>
	<g id="LINE_516_">
		<line class="st8" x1="89.1" y1="341.9" x2="89.1" y2="366.5"/>
	</g>
	<g id="MTEXT_35_">
		<text transform="matrix(-1.346898e-10 1 -1 -1.346898e-10 90.5106 353.8178)" class="st9 st5 st10">87</text>
	</g>
	<g id="LINE_517_">
		<line class="st8" x1="89.1" y1="118.2" x2="89.1" y2="75.9"/>
	</g>
	<g id="LINE_518_">
		<line class="st8" x1="89.1" y1="75.9" x2="88.9" y2="64.6"/>
	</g>
	<g id="LINE_519_">
		<line class="st8" x1="88.9" y1="64.6" x2="88.9" y2="40"/>
	</g>
	<g id="MTEXT_36_">
		<text transform="matrix(-1.346898e-10 1 -1 -1.346898e-10 90.2704 39.1928)" class="st9 st5 st10">87</text>
	</g>
	<g id="LINE_520_">
		<line class="st8" x1="371.1" y1="99.8" x2="381.1" y2="99.8"/>
	</g>
	<g id="LINE_521_">
		<line class="st8" x1="381.1" y1="99.8" x2="391.5" y2="120.3"/>
	</g>
	<g id="LINE_522_">
		<line class="st8" x1="391.5" y1="120.3" x2="416.1" y2="120.3"/>
	</g>
	<g id="MTEXT_37_">
		<text transform="matrix(1 0 0 1 403.4178 118.8881)" class="st9 st5 st10">37</text>
	</g>
	<g id="LINE_523_">
		<line class="st8" x1="300.3" y1="309.5" x2="287.9" y2="309.5"/>
	</g>
	<g id="LINE_524_">
		<line class="st8" x1="287.9" y1="309.5" x2="276.5" y2="299.7"/>
	</g>
	<g id="LINE_525_">
		<line class="st8" x1="276.5" y1="299.7" x2="252" y2="299.7"/>
	</g>
	<g id="MTEXT_38_">
		<text transform="matrix(1 0 0 1 251.12 298.2494)" class="st9 st5 st10">37</text>
	</g>
</g>
<g id="Defpoints">
	<g id="POINT">
		<line class="st11" x1="102.4" y1="524.7" x2="102.4" y2="524.7"/>
	</g>
	<g id="POINT_1_">
		<line class="st11" x1="102.4" y1="496.3" x2="102.4" y2="496.3"/>
	</g>
	<g id="POINT_2_">
		<line class="st11" x1="75.7" y1="496.3" x2="75.7" y2="496.3"/>
	</g>
	<g id="POINT_3_">
		<line class="st11" x1="380.1" y1="579.6" x2="380.1" y2="579.6"/>
	</g>
	<g id="POINT_4_">
		<line class="st11" x1="380.1" y1="608" x2="380.1" y2="608"/>
	</g>
	<g id="POINT_5_">
		<line class="st11" x1="439.9" y1="608" x2="439.9" y2="608"/>
	</g>
	<g id="POINT_6_">
		<line class="st11" x1="124.7" y1="488.7" x2="124.7" y2="488.7"/>
	</g>
	<g id="POINT_7_">
		<line class="st11" x1="121.2" y1="496.3" x2="121.2" y2="496.3"/>
	</g>
	<g id="POINT_8_">
		<line class="st11" x1="52.6" y1="496.3" x2="52.6" y2="496.3"/>
	</g>
	<g id="POINT_9_">
		<line class="st11" x1="202.3" y1="572" x2="202.3" y2="572"/>
	</g>
	<g id="POINT_10_">
		<line class="st11" x1="202.3" y1="579.6" x2="202.3" y2="579.6"/>
	</g>
	<g id="POINT_11_">
		<line class="st11" x1="72.3" y1="579.6" x2="72.3" y2="579.6"/>
	</g>
	<g id="POINT_137_">
		<line class="st11" x1="585.2" y1="247.2" x2="585.2" y2="247.2"/>
	</g>
	<g id="POINT_136_">
		<line class="st11" x1="585.1" y1="261.7" x2="585.1" y2="261.7"/>
	</g>
	<g id="POINT_135_">
		<line class="st11" x1="335.7" y1="204.7" x2="335.7" y2="204.7"/>
	</g>
	<g id="POINT_134_">
		<line class="st11" x1="585.2" y1="247.2" x2="585.2" y2="247.2"/>
	</g>
	<g id="POINT_133_">
		<line class="st11" x1="618.1" y1="247.2" x2="618.1" y2="247.2"/>
	</g>
	<g id="POINT_132_">
		<line class="st11" x1="335.7" y1="204.7" x2="335.7" y2="204.7"/>
	</g>
	<g id="POINT_131_">
		<line class="st11" x1="86.3" y1="162.1" x2="86.3" y2="162.1"/>
	</g>
	<g id="POINT_130_">
		<line class="st11" x1="86.2" y1="188.3" x2="86.2" y2="188.3"/>
	</g>
	<g id="POINT_129_">
		<line class="st11" x1="335.7" y1="204.7" x2="335.7" y2="204.7"/>
	</g>
	<g id="POINT_128_">
		<line class="st11" x1="86.3" y1="162.1" x2="86.3" y2="162.1"/>
	</g>
	<g id="POINT_127_">
		<line class="st11" x1="57.6" y1="162.2" x2="57.6" y2="162.2"/>
	</g>
	<g id="POINT_126_">
		<line class="st11" x1="335.7" y1="204.7" x2="335.7" y2="204.7"/>
	</g>
	<g id="POINT_125_">
		<line class="st11" x1="89.1" y1="315.2" x2="89.1" y2="315.2"/>
	</g>
	<g id="POINT_124_">
		<line class="st11" x1="54.1" y1="315.2" x2="54.1" y2="315.2"/>
	</g>
	<g id="POINT_123_">
		<line class="st11" x1="335.7" y1="204.7" x2="335.7" y2="204.7"/>
	</g>
	<g id="POINT_122_">
		<line class="st11" x1="89.1" y1="94.1" x2="89.1" y2="94.1"/>
	</g>
	<g id="POINT_121_">
		<line class="st11" x1="58.9" y1="94" x2="58.9" y2="94"/>
	</g>
	<g id="POINT_120_">
		<line class="st11" x1="335.7" y1="204.7" x2="335.7" y2="204.7"/>
	</g>
	<g id="POINT_119_">
		<line class="st11" x1="301.7" y1="309.5" x2="301.7" y2="309.5"/>
	</g>
	<g id="POINT_118_">
		<line class="st11" x1="301.6" y1="354.8" x2="301.6" y2="354.8"/>
	</g>
	<g id="POINT_117_">
		<line class="st11" x1="335.7" y1="204.7" x2="335.7" y2="204.7"/>
	</g>
	<g id="POINT_116_">
		<line class="st11" x1="335.7" y1="94.1" x2="335.7" y2="94.1"/>
	</g>
	<g id="POINT_115_">
		<line class="st11" x1="336.1" y1="362.5" x2="336.1" y2="362.5"/>
	</g>
	<g id="POINT_114_">
		<line class="st11" x1="335.7" y1="204.7" x2="335.7" y2="204.7"/>
	</g>
	<g id="POINT_113_">
		<line class="st11" x1="369.7" y1="99.8" x2="369.7" y2="99.8"/>
	</g>
	<g id="POINT_112_">
		<line class="st11" x1="369.8" y1="54.8" x2="369.8" y2="54.8"/>
	</g>
	<g id="POINT_111_">
		<line class="st11" x1="335.7" y1="204.7" x2="335.7" y2="204.7"/>
	</g>
	<g id="POINT_110_">
		<line class="st11" x1="335.7" y1="94.1" x2="335.7" y2="94.1"/>
	</g>
	<g id="POINT_109_">
		<line class="st11" x1="628.7" y1="86" x2="628.7" y2="86"/>
	</g>
	<g id="POINT_108_">
		<line class="st11" x1="335.7" y1="204.7" x2="335.7" y2="204.7"/>
	</g>
	<g id="POINT_77_">
		<line class="st11" x1="335.7" y1="315.2" x2="335.7" y2="315.2"/>
	</g>
	<g id="POINT_76_">
		<line class="st11" x1="626.3" y1="324" x2="626.3" y2="324"/>
	</g>
	<g id="POINT_75_">
		<line class="st11" x1="335.7" y1="204.7" x2="335.7" y2="204.7"/>
	</g>
	<g id="POINT_74_">
		<line class="st11" x1="607.6" y1="68.9" x2="607.6" y2="68.9"/>
	</g>
	<g id="POINT_73_">
		<line class="st11" x1="607.6" y1="340.4" x2="607.6" y2="340.4"/>
	</g>
	<g id="POINT_72_">
		<line class="st11" x1="663.5" y1="340.4" x2="663.5" y2="340.4"/>
	</g>
	<g id="POINT_38_">
		<line class="st11" x1="607.6" y1="340.4" x2="607.6" y2="340.4"/>
	</g>
	<g id="POINT_37_">
		<line class="st11" x1="63.9" y1="340.4" x2="63.9" y2="340.4"/>
	</g>
	<g id="POINT_36_">
		<line class="st11" x1="63.9" y1="430.7" x2="63.9" y2="430.7"/>
	</g>
	<g id="POINT_35_">
		<line class="st11" x1="582.3" y1="119.6" x2="582.3" y2="119.6"/>
	</g>
	<g id="POINT_34_">
		<line class="st11" x1="618.1" y1="119.4" x2="618.1" y2="119.4"/>
	</g>
	<g id="POINT_33_">
		<line class="st11" x1="335.7" y1="204.7" x2="335.7" y2="204.7"/>
	</g>
	<g id="POINT_32_">
		<line class="st11" x1="582.3" y1="289.7" x2="582.3" y2="289.7"/>
	</g>
	<g id="POINT_31_">
		<line class="st11" x1="616.5" y1="289.8" x2="616.5" y2="289.8"/>
	</g>
	<g id="POINT_30_">
		<line class="st11" x1="335.7" y1="204.7" x2="335.7" y2="204.7"/>
	</g>
	<g id="POINT_29_">
		<line class="st11" x1="582.3" y1="119.6" x2="582.3" y2="119.6"/>
	</g>
	<g id="POINT_28_">
		<line class="st11" x1="582.3" y1="52.7" x2="582.3" y2="52.7"/>
	</g>
	<g id="POINT_27_">
		<line class="st11" x1="335.7" y1="204.7" x2="335.7" y2="204.7"/>
	</g>
	<g id="POINT_26_">
		<line class="st11" x1="582.3" y1="289.7" x2="582.3" y2="289.7"/>
	</g>
	<g id="POINT_25_">
		<line class="st11" x1="582.4" y1="353.7" x2="582.4" y2="353.7"/>
	</g>
	<g id="POINT_24_">
		<line class="st11" x1="335.7" y1="204.7" x2="335.7" y2="204.7"/>
	</g>
	<g id="POINT_23_">
		<line class="st11" x1="89.1" y1="289.7" x2="89.1" y2="289.7"/>
	</g>
	<g id="POINT_22_">
		<line class="st11" x1="89.1" y1="353.2" x2="89.1" y2="353.2"/>
	</g>
	<g id="POINT_21_">
		<line class="st11" x1="335.7" y1="204.7" x2="335.7" y2="204.7"/>
	</g>
	<g id="POINT_20_">
		<line class="st11" x1="89.1" y1="119.6" x2="89.1" y2="119.6"/>
	</g>
	<g id="POINT_19_">
		<line class="st11" x1="88.9" y1="53.3" x2="88.9" y2="53.3"/>
	</g>
	<g id="POINT_18_">
		<line class="st11" x1="335.7" y1="204.7" x2="335.7" y2="204.7"/>
	</g>
	<g id="POINT_17_">
		<line class="st11" x1="369.7" y1="99.8" x2="369.7" y2="99.8"/>
	</g>
	<g id="POINT_16_">
		<line class="st11" x1="402.8" y1="120.3" x2="402.8" y2="120.3"/>
	</g>
	<g id="POINT_15_">
		<line class="st11" x1="335.7" y1="204.7" x2="335.7" y2="204.7"/>
	</g>
	<g id="POINT_14_">
		<line class="st11" x1="301.7" y1="309.5" x2="301.7" y2="309.5"/>
	</g>
	<g id="POINT_13_">
		<line class="st11" x1="265.2" y1="299.7" x2="265.2" y2="299.7"/>
	</g>
	<g id="POINT_12_">
		<line class="st11" x1="335.7" y1="204.7" x2="335.7" y2="204.7"/>
	</g>
	<text transform="matrix(1 0 0 1 64.4247 661.6406)"><tspan x="0" y="0" class="st5 st12">Dimensions in mm</tspan><tspan x="0" y="21.6" class="st5 st12">Use an M3 x 10mm mounting screw (6)</tspan></text>
</g>
</svg>
