<?xml version="1.0" encoding="utf-8"?>
<!-- Generator: Adobe Illustrator 23.0.4, SVG Export Plug-In . SVG Version: 6.00 Build 0)  -->
<svg version="1.1" id="p3_reference_mount" xmlns="http://www.w3.org/2000/svg" xmlns:xlink="http://www.w3.org/1999/xlink" x="0px"
	 y="0px" viewBox="0 0 1440 864" style="enable-background:new 0 0 1440 864;" xml:space="preserve">
<style type="text/css">
	.st0{fill:none;stroke:#ED2224;stroke-width:0.1;stroke-miterlimit:22.9256;}
	.st1{fill:none;stroke:#ED2224;stroke-width:0.1;stroke-miterlimit:10;}
	.st2{fill:none;stroke:#3A53A4;stroke-width:0.1;stroke-miterlimit:10;}
	.st3{fill:none;stroke:#2BACE2;stroke-width:0.1;stroke-miterlimit:10;}
	.st4{fill:#2BACE2;}
	.st5{fill:none;stroke:#010101;stroke-width:0.1;stroke-linecap:round;stroke-linejoin:round;stroke-miterlimit:10;}
	.st6{fill:none;stroke:#010101;stroke-width:0.1;stroke-miterlimit:22.9256;}
</style>
<polyline class="st0" points="370.9,262.1 362.4,262.1 362.4,136.9 1031.6,136.5 "/>
<line class="st1" x1="1024.2" y1="354.1" x2="1032.9" y2="354.1"/>
<g>
	<line class="st1" x1="362.7" y1="354" x2="371.2" y2="354"/>
	<g>
		<line class="st1" x1="362.5" y1="297.1" x2="362.5" y2="354"/>
		<g>
			<g id="New_Side_2_">
				<path class="st1" d="M371.1,297.3"/>
				<line class="st0" x1="371.1" y1="297.2" x2="371.1" y2="262.1"/>
				<path class="st1" d="M362.6,241"/>
				<path class="st1" d="M362.4,136.5"/>
				<path class="st1" d="M362.4,261.8"/>
				<path class="st1" d="M1023,297.3"/>
				<path class="st1" d="M1023,297.3"/>
				<path class="st1" d="M1031.6,136.1"/>
			</g>
			<line class="st1" x1="1024.1" y1="297.1" x2="1032.8" y2="297.1"/>
			<path class="st1" d="M1031.7,354"/>
			<path class="st1" d="M1031.8,297.1"/>
		</g>
	</g>
</g>
<line class="st0" x1="371.2" y1="407.9" x2="1023.9" y2="407.8"/>
<line class="st1" x1="1032.9" y1="297.2" x2="1032.9" y2="354.1"/>
<line class="st0" x1="1024.2" y1="297.1" x2="1024.2" y2="261.9"/>
<line class="st1" x1="1031.8" y1="262.2" x2="1031.8" y2="136.2"/>
<line class="st0" x1="1023.9" y1="407.8" x2="1023.9" y2="354"/>
<line class="st1" x1="1024.2" y1="262.2" x2="1031.8" y2="262.2"/>
<line class="st0" x1="362.5" y1="297.1" x2="371.1" y2="297.3"/>
<line class="st0" x1="371.2" y1="354" x2="371.2" y2="407.9"/>
<line class="st2" x1="784.1" y1="355.5" x2="784.1" y2="164.7"/>
<g>
	<g>
		<line class="st3" x1="983.8" y1="252.5" x2="983.8" y2="333.3"/>
		<g>
			<path class="st4" d="M987.3,253.1c-1.5-0.9-2.6-2.2-3.5-3.7c-0.9,1.5-2.1,2.8-3.5,3.7v0.9c1.4-0.9,2.6-2,3.5-3.4
				c0.9,1.4,2.2,2.5,3.5,3.4V253.1z"/>
			<path class="st4" d="M987.3,255.1c-1.5-0.9-2.6-2.2-3.5-3.7c-0.9,1.5-2.1,2.8-3.5,3.7v0.9c1.4-0.9,2.6-2,3.5-3.4
				c0.9,1.4,2.2,2.5,3.5,3.4V255.1z"/>
		</g>
	</g>
</g>
<g>
	<g>
		<line class="st3" x1="947.5" y1="216.9" x2="986.5" y2="194.2"/>
		<g>
			<path class="st4" d="M946.7,214.3c0,1.3-0.5,2.5-1.1,3.6c1.1,0.1,2.3,0.4,3.3,1.1l0.5-0.3c-0.9-0.6-2-1-3.1-1.2
				c0.5-1,0.8-2.2,0.9-3.5L946.7,214.3z"/>
			<path class="st4" d="M947.9,213.7c0,1.3-0.5,2.5-1.1,3.6c1.1,0.1,2.3,0.4,3.3,1.1l0.5-0.3c-0.9-0.6-2-1-3.1-1.2
				c0.5-1,0.8-2.2,0.9-3.5L947.9,213.7z"/>
		</g>
	</g>
</g>
<g>
	<path class="st4" d="M988.1,171c0.5-0.1,1.2-0.2,2-0.2c1,0,1.8,0.2,2.3,0.7c0.4,0.4,0.7,1,0.7,1.7s-0.2,1.3-0.6,1.7
		c-0.6,0.6-1.5,0.9-2.5,0.9c-0.3,0-0.6,0-0.8-0.1v3.2h-1L988.1,171L988.1,171L988.1,171z M989.2,174.8c0.2,0.1,0.5,0.1,0.9,0.1
		c1.3,0,2-0.6,2-1.7s-0.8-1.6-1.9-1.6c-0.5,0-0.8,0-1,0.1V174.8z"/>
	<path class="st4" d="M995.6,170.8v8.1h-1v-8.1H995.6z"/>
	<path class="st4" d="M1001.8,179l-1-1.8c-0.4-0.7-0.7-1.1-0.9-1.6l0,0c-0.2,0.5-0.5,0.9-0.9,1.6l-1,1.8h-1.2l2.5-4.1l-2.4-4h1.2
		l1.1,1.9c0.3,0.5,0.5,0.9,0.7,1.4l0,0c0.2-0.5,0.4-0.9,0.7-1.4l1.1-1.9h1.2l-2.5,3.9l2.5,4.1L1001.8,179L1001.8,179z"/>
	<path class="st4" d="M1008.4,175.2h-3.1v2.9h3.5v0.9h-4.5v-8.1h4.4v0.9h-3.3v2.6h3.1L1008.4,175.2L1008.4,175.2L1008.4,175.2z"/>
	<path class="st4" d="M1010.1,170.8h1v7.2h3.5v0.9h-4.5V170.8z"/>
	<path class="st4" d="M992.9,185.2v4.8c0,1.8,0.8,2.6,1.9,2.6c1.2,0,2-0.8,2-2.6v-4.8h1.1v4.7c0,2.5-1.3,3.5-3.1,3.5
		c-1.7,0-2.9-0.9-2.9-3.5v-4.7H992.9L992.9,185.2z"/>
	<path class="st4" d="M999.5,192.1c0.5,0.3,1.2,0.5,1.9,0.5c1.1,0,1.7-0.6,1.7-1.4s-0.4-1.2-1.5-1.6c-1.3-0.5-2.1-1.2-2.1-2.3
		c0-1.3,1-2.2,2.6-2.2c0.8,0,1.4,0.2,1.8,0.4l-0.3,0.9c-0.3-0.1-0.8-0.4-1.5-0.4c-1.1,0-1.5,0.7-1.5,1.2c0,0.8,0.5,1.1,1.6,1.6
		c1.4,0.5,2.1,1.2,2.1,2.4s-0.9,2.3-2.8,2.3c-0.8,0-1.6-0.2-2.1-0.5L999.5,192.1z"/>
	<path class="st4" d="M1005.6,185.3c0.5-0.1,1.2-0.2,1.9-0.2c1,0,1.7,0.2,2.2,0.6c0.4,0.3,0.7,0.8,0.7,1.4c0,0.8-0.5,1.5-1.4,1.8
		l0,0c0.8,0.2,1.7,0.8,1.7,2c0,0.7-0.3,1.2-0.7,1.6c-0.6,0.5-1.5,0.8-2.8,0.8c-0.7,0-1.3,0-1.6-0.1L1005.6,185.3L1005.6,185.3z
		 M1006.6,188.7h0.9c1.1,0,1.8-0.6,1.8-1.4c0-0.9-0.7-1.3-1.8-1.3c-0.5,0-0.8,0-0.9,0.1V188.7z M1006.6,192.6c0.2,0,0.5,0,0.9,0
		c1.1,0,2.1-0.4,2.1-1.6c0-1.1-0.9-1.6-2.1-1.6h-0.9V192.6z"/>
</g>
<g>
	<path class="st4" d="M853.8,313.3c-1.1,0.1-2.5,0.1-3.5,0.1l0,0c0.9,0.3,2,0.6,3.1,1l3.9,1.4v0.9l-3.8,1.3
		c-1.1,0.4-2.2,0.7-3.1,0.9l0,0c1,0,2.4,0.1,3.6,0.2l3.5,0.2v1l-8.1-0.6v-1.3l3.9-1.4c1-0.3,1.9-0.6,2.7-0.8l0,0
		c-0.8-0.2-1.7-0.5-2.7-0.9l-3.9-1.4v-1.3l8.1-0.5v1L853.8,313.3z"/>
	<path class="st4" d="M854.4,305.2c2.1,0,3.1,1.5,3.1,2.9c0,1.6-1.2,2.8-3,2.8c-1.9,0-3.1-1.3-3.1-2.9
		C851.4,306.3,852.6,305.2,854.4,305.2z M854.4,309.8c1.3,0,2.2-0.7,2.2-1.8c0-1-0.9-1.8-2.3-1.8c-1,0-2.2,0.5-2.2,1.7
		C852.3,309.3,853.3,309.8,854.4,309.8z"/>
	<path class="st4" d="M855.8,299c0.6,0,1.1,0,1.6,0v0.9l-0.9,0.1l0,0c0.5,0.3,1.1,0.9,1.1,1.9c0,0.9-0.5,2-2.5,2h-3.4v-1.1h3.2
		c1.1,0,1.8-0.3,1.8-1.3c0-0.7-0.5-1.2-1-1.4c-0.2-0.1-0.3-0.1-0.5-0.1h-3.6v-1.1L855.8,299L855.8,299L855.8,299z"/>
	<path class="st4" d="M853.1,297.3c-0.6,0-1.1,0-1.6,0v-0.9l1-0.1l0,0c-0.6-0.3-1.1-1-1.1-1.9c0-0.8,0.5-2.1,2.5-2.1h3.5v1.1h-3.3
		c-0.9,0-1.7,0.3-1.7,1.3c0,0.7,0.5,1.2,1.1,1.4c0.1,0,0.3,0.1,0.5,0.1h3.5v1.1H853.1L853.1,297.3z"/>
	<path class="st4" d="M849.8,289.4h1.7v-1.5h0.8v1.5h3.1c0.7,0,1.1-0.2,1.1-0.8c0-0.3,0-0.5-0.1-0.6h0.8c0.1,0.2,0.1,0.5,0.1,0.9
		c0,0.5-0.2,0.9-0.4,1.1c-0.3,0.3-0.8,0.4-1.5,0.4h-3.2v0.9h-0.8v-0.9H850L849.8,289.4z"/>
	<path class="st4" d="M849.3,284.1c-0.1-0.5-0.2-1.2-0.2-2c0-1,0.2-1.8,0.7-2.3c0.4-0.4,1-0.7,1.7-0.7s1.3,0.2,1.7,0.6
		c0.6,0.6,0.9,1.5,0.9,2.5c0,0.3,0,0.6-0.1,0.8h3.2v1L849.3,284.1L849.3,284.1L849.3,284.1z M853.3,283c0.1-0.2,0.1-0.5,0.1-0.9
		c0-1.3-0.6-2-1.7-2s-1.6,0.8-1.6,1.9c0,0.5,0,0.8,0.1,1H853.3z"/>
	<path class="st4" d="M849.3,276.7h8.1v1h-8.1V276.7z"/>
	<path class="st4" d="M857.3,270.4l-1.8,1c-0.7,0.4-1.1,0.7-1.6,0.9l0,0c0.5,0.2,0.9,0.5,1.6,0.9l1.8,1v1.2l-4.1-2.5l-4,2.4v-1.2
		l1.9-1.1c0.5-0.3,0.9-0.5,1.4-0.7l0,0c-0.5-0.2-0.9-0.4-1.4-0.7l-1.9-1.1v-1.2l3.9,2.5l4.1-2.5L857.3,270.4L857.3,270.4z"/>
	<path class="st4" d="M853.6,263.8v3.1h2.9v-3.5h0.9v4.5h-8.1v-4.4h0.9v3.3h2.6v-3.1L853.6,263.8L853.6,263.8L853.6,263.8z"/>
	<path class="st4" d="M849.3,262.1v-1h7.2v-3.5h0.9v4.5H849.3z"/>
	<path class="st4" d="M849.3,253.9c-0.1-0.5-0.2-1.2-0.2-1.9c0-1,0.2-1.7,0.6-2.2c0.3-0.4,0.8-0.7,1.4-0.7c0.8,0,1.5,0.5,1.8,1.4
		l0,0c0.2-0.8,0.8-1.7,2-1.7c0.7,0,1.2,0.3,1.6,0.7c0.5,0.6,0.8,1.5,0.8,2.8c0,0.7,0,1.3-0.1,1.6L849.3,253.9L849.3,253.9z
		 M852.8,252.8v-0.9c0-1.1-0.6-1.8-1.4-1.8c-0.9,0-1.3,0.7-1.3,1.8c0,0.5,0,0.8,0.1,0.9H852.8z M856.6,252.8c0-0.2,0-0.5,0-0.9
		c0-1.1-0.4-2.1-1.6-2.1c-1.1,0-1.6,0.9-1.6,2.1v0.9H856.6z"/>
	<path class="st4" d="M854.4,242.1c2.1,0,3.1,1.5,3.1,2.9c0,1.6-1.2,2.8-3,2.8c-1.9,0-3.1-1.3-3.1-2.9
		C851.4,243.2,852.6,242.1,854.4,242.1z M854.4,246.7c1.3,0,2.2-0.7,2.2-1.8c0-1-0.9-1.8-2.3-1.8c-1,0-2.2,0.5-2.2,1.7
		C852.3,246.2,853.3,246.7,854.4,246.7z"/>
	<path class="st4" d="M857.3,237.6l-0.7,0.1l0,0c0.5,0.3,0.9,0.9,0.9,1.8c0,1.2-0.8,1.8-1.7,1.8c-1.4,0-2.2-1.2-2.2-3.5h-0.1
		c-0.5,0-1.3,0.1-1.3,1.3c0,0.5,0.2,1.1,0.4,1.5l-0.7,0.2c-0.3-0.5-0.5-1.2-0.5-1.9c0-1.8,1.2-2.2,2.4-2.2h2.2c0.5,0,1,0,1.4-0.1
		L857.3,237.6L857.3,237.6L857.3,237.6z M854.4,237.7c0,1.2,0.2,2.5,1.3,2.5c0.7,0,1-0.5,1-1c0-0.8-0.5-1.2-1-1.4
		c-0.1,0-0.2-0.1-0.3-0.1H854.4z"/>
	<path class="st4" d="M853.3,235c-0.7,0-1.3,0-1.8,0v-0.9h1.1l0,0c-0.8-0.3-1.3-0.9-1.3-1.6c0-0.1,0-0.2,0-0.3h1c0,0.1,0,0.2,0,0.4
		c0,0.7,0.6,1.3,1.4,1.4c0.1,0,0.3,0,0.5,0h3.1v1H853.3z"/>
	<path class="st4" d="M848.8,226.2h7c0.5,0,1.1,0,1.5,0v0.9h-1l0,0c0.6,0.3,1.1,1,1.1,2c0,1.4-1.2,2.5-3,2.5c-1.9,0-3.1-1.2-3.1-2.6
		c0-0.9,0.4-1.5,0.9-1.8l0,0h-3.4V226.2z M853.9,227.2c-0.1,0-0.3,0-0.4,0c-0.7,0.2-1.2,0.7-1.2,1.5c0,1.1,1,1.7,2.2,1.7
		s2.1-0.6,2.1-1.7c0-0.7-0.5-1.4-1.3-1.5c-0.1,0-0.3,0-0.5,0H853.9z"/>
	<path class="st4" d="M849.3,220.8h3.4v-3.9h-3.4v-1.1h8.1v1.1h-3.8v3.9h3.8v1h-8.1V220.8z"/>
	<path class="st4" d="M854.6,213.5c1.4,0,2-0.9,2-2c0-0.8-0.1-1.2-0.3-1.6l0.8-0.2c0.2,0.4,0.4,1,0.4,1.9c0,1.8-1.2,2.9-2.9,2.9
		s-3.1-1-3.1-2.7c0-1.9,1.7-2.4,2.7-2.4c0.2,0,0.4,0,0.5,0L854.6,213.5L854.6,213.5L854.6,213.5z M853.9,210.4
		c-0.7,0-1.7,0.3-1.7,1.5c0,1.1,1,1.5,1.7,1.6V210.4z"/>
	<path class="st4" d="M853.3,208c-0.7,0-1.3,0-1.8,0v-0.9h1.1l0,0c-0.8-0.3-1.3-0.9-1.3-1.6c0-0.1,0-0.2,0-0.3h1c0,0.1,0,0.2,0,0.4
		c0,0.7,0.6,1.3,1.4,1.4c0.1,0,0.3,0,0.5,0h3.1v1H853.3z"/>
	<path class="st4" d="M854.6,203.6c1.4,0,2-0.9,2-2c0-0.8-0.1-1.2-0.3-1.6l0.8-0.2c0.2,0.4,0.4,1,0.4,1.9c0,1.8-1.2,2.9-2.9,2.9
		s-3.1-1-3.1-2.7c0-1.9,1.7-2.4,2.7-2.4c0.2,0,0.4,0,0.5,0L854.6,203.6L854.6,203.6L854.6,203.6z M853.9,200.5
		c-0.7,0-1.7,0.3-1.7,1.5c0,1.1,1,1.5,1.7,1.6V200.5z"/>
</g>
<g>
	<path class="st4" d="M769.5,149.1c-0.1-1.1-0.1-2.5-0.1-3.5l0,0c-0.3,0.9-0.6,2-1,3.1l-1.4,3.9h-0.8l-1.3-3.8
		c-0.4-1.1-0.7-2.2-0.9-3.1l0,0c0,1-0.1,2.4-0.2,3.6l-0.2,3.5h-1l0.6-8.1h1.3l1.4,3.9c0.3,1,0.6,1.9,0.8,2.7l0,0
		c0.2-0.8,0.5-1.7,0.9-2.7l1.4-3.9h1.3l0.5,8.1h-1L769.5,149.1z"/>
	<path class="st4" d="M777.6,149.7c0,2.1-1.5,3.1-2.9,3.1c-1.6,0-2.8-1.2-2.8-3c0-1.9,1.3-3.1,2.9-3.1
		C776.5,146.7,777.6,147.8,777.6,149.7z M773,149.8c0,1.3,0.7,2.2,1.8,2.2c1,0,1.8-0.9,1.8-2.3c0-1-0.5-2.2-1.7-2.2
		C773.6,147.5,773,148.7,773,149.8z"/>
	<path class="st4" d="M783.8,151.1c0,0.6,0,1.1,0,1.6h-0.9l-0.1-0.9l0,0c-0.3,0.5-0.9,1.1-1.9,1.1c-0.9,0-2-0.5-2-2.5V147h1.1v3.2
		c0,1.1,0.3,1.8,1.3,1.8c0.7,0,1.2-0.5,1.4-1c0.1-0.2,0.1-0.3,0.1-0.5v-3.6h1.1L783.8,151.1L783.8,151.1L783.8,151.1z"/>
	<path class="st4" d="M785.6,148.3c0-0.6,0-1.1,0-1.6h0.9l0.1,1l0,0c0.3-0.6,1-1.1,1.9-1.1c0.8,0,2.1,0.5,2.1,2.5v3.5h-1.1v-3.3
		c0-0.9-0.3-1.7-1.3-1.7c-0.7,0-1.2,0.5-1.4,1.1c0,0.1-0.1,0.3-0.1,0.5v3.5h-1.1L785.6,148.3L785.6,148.3z"/>
	<path class="st4" d="M793.5,145.2v1.7h1.5v0.8h-1.5v3.1c0,0.7,0.2,1.1,0.8,1.1c0.3,0,0.5,0,0.6-0.1v0.8c-0.2,0.1-0.5,0.1-0.9,0.1
		c-0.5,0-0.9-0.2-1.1-0.4c-0.3-0.3-0.4-0.8-0.4-1.5v-3.2h-0.9v-0.8h0.9v-1.4L793.5,145.2z"/>
	<path class="st4" d="M798.7,144.6h1v7.2h3.5v0.9h-4.5V144.6z"/>
	<path class="st4" d="M808.6,148.8h-3.1v2.9h3.5v0.9h-4.6v-8.1h4.4v0.9h-3.3v2.6h3.1L808.6,148.8L808.6,148.8z"/>
	<path class="st4" d="M810.3,144.7c0.6-0.1,1.4-0.2,2.2-0.2c1.5,0,2.6,0.3,3.3,1s1.1,1.6,1.1,2.9s-0.4,2.4-1.2,3.1
		c-0.8,0.8-2,1.2-3.6,1.2c-0.7,0-1.4,0-1.9-0.1L810.3,144.7L810.3,144.7z M811.4,151.8c0.3,0,0.6,0.1,1.1,0.1c2.2,0,3.4-1.2,3.4-3.4
		c0-1.9-1.1-3.1-3.3-3.1c-0.5,0-0.9,0-1.2,0.1V151.8z"/>
	<path class="st4" d="M820.8,144.7c0.5-0.1,1.2-0.2,2-0.2c1,0,1.8,0.2,2.3,0.7c0.4,0.4,0.7,1,0.7,1.7s-0.2,1.3-0.6,1.7
		c-0.6,0.6-1.5,0.9-2.5,0.9c-0.3,0-0.6,0-0.8-0.1v3.2h-1L820.8,144.7L820.8,144.7L820.8,144.7z M821.9,148.6
		c0.2,0.1,0.5,0.1,0.9,0.1c1.3,0,2-0.6,2-1.7s-0.8-1.6-1.9-1.6c-0.5,0-0.8,0-1,0.1V148.6z"/>
	<path class="st4" d="M830.1,152.7L830,152l0,0c-0.3,0.5-0.9,0.9-1.8,0.9c-1.2,0-1.8-0.8-1.8-1.7c0-1.4,1.2-2.2,3.5-2.2v-0.1
		c0-0.5-0.1-1.3-1.3-1.3c-0.5,0-1.1,0.2-1.5,0.4l-0.2-0.7c0.5-0.3,1.2-0.5,1.9-0.5c1.8,0,2.2,1.2,2.2,2.4v2.2c0,0.5,0,1,0.1,1.4
		L830.1,152.7L830.1,152.7z M829.9,149.7c-1.2,0-2.5,0.2-2.5,1.3c0,0.7,0.5,1,1,1c0.8,0,1.2-0.5,1.4-1c0-0.1,0.1-0.2,0.1-0.3V149.7z
		"/>
	<path class="st4" d="M832.7,148.3c0-0.6,0-1.1,0-1.6h0.9l0.1,1l0,0c0.3-0.6,1-1.1,1.9-1.1c0.8,0,2.1,0.5,2.1,2.5v3.5h-1.1v-3.3
		c0-0.9-0.3-1.7-1.3-1.7c-0.7,0-1.2,0.5-1.4,1.1c0,0.1-0.1,0.3-0.1,0.5v3.5h-1.1V148.3z"/>
	<path class="st4" d="M839.9,150c0,1.4,0.9,2,2,2c0.8,0,1.2-0.1,1.6-0.3l0.2,0.8c-0.4,0.2-1,0.4-1.9,0.4c-1.8,0-2.9-1.2-2.9-2.9
		c0-1.7,1-3.1,2.7-3.1c1.9,0,2.4,1.7,2.4,2.7c0,0.2,0,0.4,0,0.5L839.9,150L839.9,150L839.9,150z M843,149.2c0-0.7-0.3-1.7-1.5-1.7
		c-1.1,0-1.5,1-1.6,1.7H843z"/>
	<path class="st4" d="M845.3,144.1h1.1v8.5h-1.1V144.1z"/>
	<path class="st4" d="M857.6,149.1c-0.1-1.1-0.1-2.5-0.1-3.5l0,0c-0.3,0.9-0.6,2-1,3.1l-1.4,3.9h-0.8l-1.3-3.8
		c-0.4-1.1-0.7-2.2-0.9-3.1l0,0c0,1-0.1,2.4-0.2,3.6l-0.2,3.5h-1l0.6-8.1h1.3l1.4,3.9c0.3,1,0.6,1.9,0.8,2.7l0,0
		c0.2-0.8,0.5-1.7,0.9-2.7l1.4-3.9h1.3l0.5,8.1h-1L857.6,149.1z"/>
	<path class="st4" d="M863.6,152.7l-0.1-0.7l0,0c-0.3,0.5-0.9,0.9-1.8,0.9c-1.2,0-1.8-0.8-1.8-1.7c0-1.4,1.2-2.2,3.5-2.2v-0.1
		c0-0.5-0.1-1.3-1.3-1.3c-0.5,0-1.1,0.2-1.5,0.4l-0.2-0.7c0.5-0.3,1.2-0.5,1.9-0.5c1.8,0,2.2,1.2,2.2,2.4v2.2c0,0.5,0,1,0.1,1.4
		L863.6,152.7L863.6,152.7z M863.5,149.7c-1.2,0-2.5,0.2-2.5,1.3c0,0.7,0.5,1,1,1c0.8,0,1.2-0.5,1.4-1c0-0.1,0.1-0.2,0.1-0.3V149.7z
		"/>
	<path class="st4" d="M867.4,145.2v1.7h1.5v0.8h-1.5v3.1c0,0.7,0.2,1.1,0.8,1.1c0.3,0,0.5,0,0.6-0.1v0.8c-0.2,0.1-0.5,0.1-0.9,0.1
		c-0.5,0-0.9-0.2-1.1-0.4c-0.3-0.3-0.4-0.8-0.4-1.5v-3.2h-0.9v-0.8h0.9v-1.4L867.4,145.2z"/>
	<path class="st4" d="M870.1,148.7c0-0.7,0-1.3,0-1.8h0.9v1.1l0,0c0.3-0.8,0.9-1.3,1.6-1.3c0.1,0,0.2,0,0.3,0v1c-0.1,0-0.2,0-0.4,0
		c-0.7,0-1.3,0.6-1.4,1.4c0,0.1,0,0.3,0,0.5v3.1h-1L870.1,148.7L870.1,148.7z"/>
	<path class="st4" d="M875.3,145.2c0,0.4-0.3,0.6-0.7,0.6s-0.6-0.3-0.6-0.6c0-0.4,0.3-0.7,0.7-0.7
		C875,144.6,875.3,144.8,875.3,145.2z M874.1,152.7v-5.8h1.1v5.8H874.1z"/>
	<path class="st4" d="M877.4,146.8l0.8,1.2c0.2,0.3,0.4,0.6,0.6,0.9l0,0c0.2-0.3,0.4-0.6,0.6-1l0.8-1.2h1.1l-2,2.8l2,3h-1.2
		l-0.9-1.3c-0.2-0.3-0.4-0.7-0.6-1l0,0c-0.2,0.3-0.4,0.7-0.6,1l-0.8,1.3H876l2.1-3l-2-2.8h1.3L877.4,146.8L877.4,146.8z"/>
	<path class="st4" d="M890.3,149.7c0,2.1-1.5,3.1-2.9,3.1c-1.6,0-2.8-1.2-2.8-3c0-1.9,1.3-3.1,2.9-3.1S890.3,147.8,890.3,149.7z
		 M885.7,149.8c0,1.3,0.7,2.2,1.8,2.2c1,0,1.8-0.9,1.8-2.3c0-1-0.5-2.2-1.7-2.2C886.2,147.5,885.7,148.7,885.7,149.8z"/>
	<path class="st4" d="M891.6,148.3c0-0.6,0-1.1,0-1.6h0.9l0.1,1l0,0c0.3-0.6,1-1.1,1.9-1.1c0.8,0,2.1,0.5,2.1,2.5v3.5h-1.1v-3.3
		c0-0.9-0.3-1.7-1.3-1.7c-0.7,0-1.2,0.5-1.4,1.1c0,0.1-0.1,0.3-0.1,0.5v3.5h-1.1L891.6,148.3L891.6,148.3z"/>
	<path class="st4" d="M907.8,148.5c0,2.8-1.7,4.3-3.8,4.3s-3.6-1.7-3.6-4.1c0-2.6,1.6-4.2,3.8-4.2
		C906.3,144.3,907.8,146.1,907.8,148.5z M901.5,148.7c0,1.7,0.9,3.3,2.6,3.3s2.6-1.5,2.6-3.4c0-1.6-0.8-3.3-2.6-3.3
		S901.5,146.8,901.5,148.7z"/>
	<path class="st4" d="M910.6,145.2v1.7h1.5v0.8h-1.5v3.1c0,0.7,0.2,1.1,0.8,1.1c0.3,0,0.5,0,0.6-0.1v0.8c-0.2,0.1-0.5,0.1-0.9,0.1
		c-0.5,0-0.9-0.2-1.1-0.4c-0.3-0.3-0.4-0.8-0.4-1.5v-3.2h-0.9v-0.8h0.9v-1.4L910.6,145.2z"/>
	<path class="st4" d="M913.3,144.1h1.1v3.6l0,0c0.2-0.3,0.4-0.6,0.8-0.7c0.3-0.2,0.7-0.3,1.1-0.3c0.8,0,2,0.5,2,2.5v3.5h-1.1v-3.3
		c0-0.9-0.3-1.7-1.3-1.7c-0.7,0-1.2,0.5-1.4,1.1c-0.1,0.1-0.1,0.3-0.1,0.5v3.5h-1.1V144.1z"/>
	<path class="st4" d="M920.5,150c0,1.4,0.9,2,2,2c0.8,0,1.2-0.1,1.6-0.3l0.2,0.8c-0.4,0.2-1,0.4-1.9,0.4c-1.8,0-2.9-1.2-2.9-2.9
		c0-1.7,1-3.1,2.7-3.1c1.9,0,2.4,1.7,2.4,2.7c0,0.2,0,0.4,0,0.5L920.5,150L920.5,150L920.5,150z M923.6,149.2c0-0.7-0.3-1.7-1.5-1.7
		c-1.1,0-1.5,1-1.6,1.7H923.6z"/>
	<path class="st4" d="M925.9,148.7c0-0.7,0-1.3,0-1.8h0.9v1.1l0,0c0.3-0.8,0.9-1.3,1.6-1.3c0.1,0,0.2,0,0.3,0v1c-0.1,0-0.2,0-0.4,0
		c-0.7,0-1.3,0.6-1.4,1.4c0,0.1,0,0.3,0,0.5v3.1h-1L925.9,148.7L925.9,148.7z"/>
	<path class="st4" d="M932.3,151.3c0.5,0.3,1.2,0.5,1.9,0.5c1.1,0,1.7-0.6,1.7-1.4s-0.4-1.2-1.5-1.6c-1.3-0.5-2.1-1.2-2.1-2.3
		c0-1.3,1-2.2,2.6-2.2c0.8,0,1.4,0.2,1.8,0.4l-0.3,0.9c-0.3-0.1-0.8-0.4-1.5-0.4c-1.1,0-1.5,0.7-1.5,1.2c0,0.8,0.5,1.1,1.6,1.6
		c1.4,0.5,2.1,1.2,2.1,2.4c0,1.2-0.9,2.3-2.8,2.3c-0.8,0-1.6-0.2-2.1-0.5L932.3,151.3z"/>
	<path class="st4" d="M939.5,145.2c0,0.4-0.3,0.6-0.7,0.6s-0.6-0.3-0.6-0.6c0-0.4,0.3-0.7,0.7-0.7
		C939.2,144.6,939.5,144.8,939.5,145.2z M938.3,152.7v-5.8h1.1v5.8H938.3z"/>
	<path class="st4" d="M946.1,144.1v7c0,0.5,0,1.1,0,1.5h-0.9v-1l0,0c-0.3,0.6-1,1.1-2,1.1c-1.4,0-2.5-1.2-2.5-3
		c0-1.9,1.2-3.1,2.6-3.1c0.9,0,1.5,0.4,1.8,0.9l0,0V144h1L946.1,144.1L946.1,144.1z M945.1,149.2c0-0.1,0-0.3,0-0.4
		c-0.2-0.7-0.7-1.2-1.5-1.2c-1.1,0-1.7,1-1.7,2.2s0.6,2.1,1.7,2.1c0.7,0,1.4-0.5,1.5-1.3c0-0.1,0-0.3,0-0.5V149.2z"/>
	<path class="st4" d="M948.5,150c0,1.4,0.9,2,2,2c0.8,0,1.2-0.1,1.6-0.3l0.2,0.8c-0.4,0.2-1,0.4-1.9,0.4c-1.8,0-2.9-1.2-2.9-2.9
		c0-1.7,1-3.1,2.7-3.1c1.9,0,2.4,1.7,2.4,2.7c0,0.2,0,0.4,0,0.5L948.5,150L948.5,150L948.5,150z M951.6,149.2c0-0.7-0.3-1.7-1.5-1.7
		c-1.1,0-1.5,1-1.6,1.7H951.6z"/>
</g>
<g>
	<path class="st4" d="M958.2,233.2c0.5-0.1,1.2-0.2,2-0.2c1,0,1.8,0.2,2.3,0.7c0.4,0.4,0.7,1,0.7,1.7s-0.2,1.3-0.6,1.7
		c-0.6,0.6-1.5,0.9-2.5,0.9c-0.3,0-0.6,0-0.8-0.1v3.2h-1L958.2,233.2L958.2,233.2L958.2,233.2z M959.3,237.1
		c0.2,0.1,0.5,0.1,0.9,0.1c1.3,0,2-0.6,2-1.7s-0.8-1.6-1.9-1.6c-0.5,0-0.8,0-1,0.1V237.1z"/>
	<path class="st4" d="M967.5,241.2l-0.1-0.7l0,0c-0.3,0.5-0.9,0.9-1.8,0.9c-1.2,0-1.8-0.8-1.8-1.7c0-1.4,1.2-2.2,3.5-2.2v-0.1
		c0-0.5-0.1-1.3-1.3-1.3c-0.5,0-1.1,0.2-1.5,0.4l-0.2-0.7c0.5-0.3,1.2-0.5,1.9-0.5c1.8,0,2.2,1.2,2.2,2.4v2.2c0,0.5,0,1,0.1,1.4
		L967.5,241.2L967.5,241.2z M967.3,238.3c-1.2,0-2.5,0.2-2.5,1.3c0,0.7,0.5,1,1,1c0.8,0,1.2-0.5,1.4-1c0-0.1,0.1-0.2,0.1-0.3V238.3z
		"/>
	<path class="st4" d="M970,237c0-0.6,0-1.1,0-1.6h0.9l0.1,1l0,0c0.3-0.6,1-1.1,1.9-1.1c0.8,0,2.1,0.5,2.1,2.5v3.5h-1.1V238
		c0-0.9-0.3-1.7-1.3-1.7c-0.7,0-1.2,0.5-1.4,1.1c0,0.1-0.1,0.3-0.1,0.5v3.5H970L970,237L970,237z"/>
	<path class="st4" d="M977.3,238.5c0,1.4,0.9,2,2,2c0.8,0,1.2-0.1,1.6-0.3l0.2,0.8c-0.4,0.2-1,0.4-1.9,0.4c-1.8,0-2.9-1.2-2.9-2.9
		c0-1.7,1-3.1,2.7-3.1c1.9,0,2.4,1.7,2.4,2.7c0,0.2,0,0.4,0,0.5L977.3,238.5L977.3,238.5L977.3,238.5z M980.4,237.8
		c0-0.7-0.3-1.7-1.5-1.7c-1.1,0-1.5,1-1.6,1.7H980.4z"/>
	<path class="st4" d="M982.7,232.7h1.1v8.5h-1.1V232.7z"/>
	<path class="st4" d="M989.2,233.1v4.8c0,1.8,0.8,2.6,1.9,2.6c1.2,0,2-0.8,2-2.6v-4.8h1.1v4.7c0,2.5-1.3,3.5-3.1,3.5
		c-1.7,0-2.9-0.9-2.9-3.5v-4.7H989.2z"/>
	<path class="st4" d="M995.8,237.3c0-0.7,0-1.3,0-1.9h0.9v1l0,0c0.4-0.7,1.1-1.1,2.1-1.1c1.4,0,2.5,1.2,2.5,3c0,2.1-1.3,3.1-2.6,3.1
		c-0.8,0-1.4-0.3-1.8-0.9l0,0v3.2h-1L995.8,237.3L995.8,237.3L995.8,237.3z M996.9,238.8c0,0.2,0,0.3,0,0.4c0.2,0.7,0.8,1.2,1.6,1.2
		c1.1,0,1.8-0.9,1.8-2.2c0-1.2-0.6-2.2-1.7-2.2c-0.7,0-1.4,0.5-1.6,1.3c0,0.1-0.1,0.3-0.1,0.4V238.8L996.9,238.8z"/>
</g>
<path class="st5" d="M784.1,157c2.1,0,3.8,1.7,3.8,3.8s-1.7,3.8-3.8,3.8s-3.8-1.7-3.8-3.8S781.9,157,784.1,157L784.1,157z"/>
<path class="st5" d="M784.1,355.5c2.1,0,3.8,1.7,3.8,3.8s-1.7,3.8-3.8,3.8s-3.8-1.7-3.8-3.8C780.2,357.2,781.9,355.5,784.1,355.5
	L784.1,355.5z"/>
<circle class="st5" cx="451.1" cy="187.6" r="6.1"/>
<circle class="st5" cx="448.3" cy="230.1" r="4.3"/>
<circle class="st5" cx="451.1" cy="357.7" r="6.1"/>
<circle class="st5" cx="944.3" cy="187.6" r="6.1"/>
<circle class="st5" cx="944.4" cy="357.7" r="6.1"/>
<circle class="st5" cx="947.2" cy="315.1" r="4.3"/>
<circle class="st5" cx="731.8" cy="167.7" r="6.1"/>
<circle class="st5" cx="663.7" cy="377.5" r="6.1"/>
<g id="LWPOLYLINE_2_">
	<path class="st5" d="M487.6,312.9h31.2c1.6,0,2.8-1.3,2.8-2.8v-82.2c0-1.6-1.3-2.8-2.8-2.8h-31.2c-1.6,0-2.8,1.3-2.8,2.8v82.2
		C484.7,311.5,486,312.9,487.6,312.9z"/>
</g>
<g id="LWPOLYLINE_1_">
	<path class="st5" d="M766.2,238c0-1.7-1.3-3-2.8-3H701c-1.6,0-2.8,1.4-2.8,3v41.9c0,1.7,1.3,3,2.8,3h62.4c1.6,0,2.8-1.4,2.8-3V238z
		"/>
</g>
<path class="st5" d="M920.1,157c2.1,0,3.8,1.7,3.8,3.8s-1.7,3.8-3.8,3.8s-3.8-1.7-3.8-3.8S917.9,157,920.1,157L920.1,157z"/>
<path class="st5" d="M920.1,355.2c2.1,0,3.8,1.7,3.8,3.8s-1.7,3.8-3.8,3.8s-3.8-1.7-3.8-3.8C916.2,356.9,917.9,355.2,920.1,355.2
	L920.1,355.2z"/>
<line class="st2" x1="920.1" y1="164.6" x2="920.1" y2="355.2"/>
<line class="st2" x1="787.9" y1="359.3" x2="916.3" y2="359.3"/>
<line class="st2" x1="787.9" y1="160.8" x2="916.3" y2="160.8"/>
<path class="st6" d="M380.7,146.1c2.7,0,4.8,2.2,4.8,4.8c0,2.7-2.2,4.8-4.8,4.8c-2.7,0-4.8-2.2-4.8-4.8S378,146.1,380.7,146.1z"/>
<path class="st6" d="M389.2,387.2c2.7,0,4.8,2.2,4.8,4.8c0,2.7-2.2,4.8-4.8,4.8c-2.7,0-4.8-2.2-4.8-4.8S386.5,387.2,389.2,387.2z"/>
<path class="st6" d="M1005.9,387.1c2.7,0,4.8,2.2,4.8,4.8c0,2.7-2.2,4.8-4.8,4.8c-2.7,0-4.8-2.2-4.8-4.8S1003.2,387.1,1005.9,387.1z
	"/>
<path class="st6" d="M1013.6,146.1c2.7,0,4.8,2.2,4.8,4.8c0,2.7-2.2,4.8-4.8,4.8c-2.7,0-4.8-2.2-4.8-4.8S1010.9,146.1,1013.6,146.1z
	"/>
</svg>
