<?xml version="1.0" encoding="utf-8"?>
<!-- Generator: Adobe Illustrator 23.0.4, SVG Export Plug-In . SVG Version: 6.00 Build 0)  -->
<svg version="1.1" xmlns="http://www.w3.org/2000/svg" xmlns:xlink="http://www.w3.org/1999/xlink" x="0px" y="0px"
	 viewBox="0 0 1440 864" style="enable-background:new 0 0 1440 864;" xml:space="preserve">
<style type="text/css">
	.st0{display:none;}
	.st1{display:inline;}
	.st2{fill:none;stroke:#ED2224;stroke-width:0.1;stroke-miterlimit:22.9256;}
	.st3{fill:none;stroke:#ED2224;stroke-width:0.1;stroke-miterlimit:10;}
	.st4{fill:none;stroke:#3A53A4;stroke-width:0.1;stroke-miterlimit:10;}
	.st5{fill:none;stroke:#2BACE2;stroke-width:0.1;stroke-miterlimit:10;}
	.st6{fill:#2BACE2;}
	.st7{fill:none;stroke:#010101;stroke-width:0.1;stroke-linecap:round;stroke-linejoin:round;stroke-miterlimit:10;}
	.st8{fill:none;stroke:#010101;stroke-width:0.1;stroke-miterlimit:22.9256;}
	.st9{fill:none;stroke:#000000;stroke-width:0.7087;stroke-linecap:round;stroke-linejoin:round;stroke-miterlimit:10;}
	
		.st10{fill:none;stroke:#00CC00;stroke-width:0.3685;stroke-linecap:round;stroke-linejoin:round;stroke-miterlimit:10;stroke-dasharray:1.08,0.54;}
	
		.st11{fill:none;stroke:#FF0000;stroke-width:0.3685;stroke-linecap:round;stroke-linejoin:round;stroke-miterlimit:10;stroke-dasharray:5.4,1.08,1.08,1.08;}
	
		.st12{fill:none;stroke:#CC9966;stroke-width:0.3685;stroke-linecap:round;stroke-linejoin:round;stroke-miterlimit:10;stroke-dasharray:1.08,0.54;}
	.st13{fill:#FF00FF;}
	.st14{font-family:'MyriadPro-Regular';}
	.st15{font-size:2.4022px;}
	.st16{fill:none;stroke:#33CC00;stroke-width:0.2551;stroke-linecap:round;stroke-linejoin:round;stroke-miterlimit:10;}
	.st17{fill:none;}
</style>
<g id="Layer_1" class="st0">
	<g id="Panel_Mount_2" class="st1">
		<polyline class="st2" points="238.2,419.1 229.7,419.1 229.7,293.9 898.9,293.5 		"/>
		<line class="st3" x1="891.5" y1="511.1" x2="900.2" y2="511.1"/>
		<g>
			<line class="st3" x1="230" y1="511" x2="238.5" y2="511"/>
			<g>
				<line class="st3" x1="229.8" y1="454.1" x2="229.8" y2="511"/>
				<g>
					<g id="New_Side_1_">
						<path class="st3" d="M238.4,454.3"/>
						<line class="st2" x1="238.4" y1="454.2" x2="238.4" y2="419.1"/>
						<path class="st3" d="M229.9,398"/>
						<path class="st3" d="M229.7,293.5"/>
						<path class="st3" d="M229.7,418.8"/>
						<path class="st3" d="M890.3,454.3"/>
						<path class="st3" d="M890.3,454.3"/>
						<path class="st3" d="M898.9,293.1"/>
					</g>
					<line class="st3" x1="891.4" y1="454.1" x2="900.1" y2="454.1"/>
					<path class="st3" d="M899,511"/>
					<path class="st3" d="M899.1,454.1"/>
				</g>
			</g>
		</g>
		<line class="st2" x1="238.5" y1="564.9" x2="891.2" y2="564.8"/>
		<line class="st3" x1="900.2" y1="454.2" x2="900.2" y2="511.1"/>
		<line class="st2" x1="891.5" y1="454.1" x2="891.5" y2="418.9"/>
		<line class="st3" x1="899.1" y1="419.2" x2="899.1" y2="293.2"/>
		<line class="st2" x1="891.2" y1="564.8" x2="891.2" y2="511"/>
		<line class="st3" x1="891.5" y1="419.2" x2="899.1" y2="419.2"/>
		<line class="st2" x1="229.8" y1="454.1" x2="238.4" y2="454.3"/>
		<line class="st2" x1="238.5" y1="511" x2="238.5" y2="564.9"/>
		<line class="st4" x1="651.4" y1="512.5" x2="651.4" y2="321.7"/>
		<g>
			<g>
				<line class="st5" x1="851.1" y1="409.5" x2="851.1" y2="490.3"/>
				<g>
					<path class="st6" d="M854.6,410.1c-1.5-0.9-2.6-2.2-3.5-3.7c-0.9,1.5-2.1,2.8-3.5,3.7v0.9c1.4-0.9,2.6-2,3.5-3.4
						c0.9,1.4,2.2,2.5,3.5,3.4V410.1z"/>
					<path class="st6" d="M854.6,412.1c-1.5-0.9-2.6-2.2-3.5-3.7c-0.9,1.5-2.1,2.8-3.5,3.7v0.9c1.4-0.9,2.6-2,3.5-3.4
						c0.9,1.4,2.2,2.5,3.5,3.4V412.1z"/>
				</g>
			</g>
		</g>
		<g>
			<g>
				<line class="st5" x1="814.8" y1="373.9" x2="853.8" y2="351.2"/>
				<g>
					<path class="st6" d="M814,371.3c0,1.3-0.5,2.5-1.1,3.6c1.1,0.1,2.3,0.4,3.3,1.1l0.5-0.3c-0.9-0.6-2-1-3.1-1.2
						c0.5-1,0.8-2.2,0.9-3.5L814,371.3z"/>
					<path class="st6" d="M815.2,370.7c0,1.3-0.5,2.5-1.1,3.6c1.1,0.1,2.3,0.4,3.3,1.1l0.5-0.3c-0.9-0.6-2-1-3.1-1.2
						c0.5-1,0.8-2.2,0.9-3.5L815.2,370.7z"/>
				</g>
			</g>
		</g>
		<g>
			<path class="st6" d="M855.4,328c0.5-0.1,1.2-0.2,2-0.2c1,0,1.8,0.2,2.3,0.7c0.4,0.4,0.7,1,0.7,1.7s-0.2,1.3-0.6,1.7
				c-0.6,0.6-1.5,0.9-2.5,0.9c-0.3,0-0.6,0-0.8-0.1v3.2h-1L855.4,328L855.4,328L855.4,328z M856.5,331.8c0.2,0.1,0.5,0.1,0.9,0.1
				c1.3,0,2-0.6,2-1.7s-0.8-1.6-1.9-1.6c-0.5,0-0.8,0-1,0.1V331.8z"/>
			<path class="st6" d="M862.9,327.8v8.1h-1v-8.1H862.9z"/>
			<path class="st6" d="M869.1,336l-1-1.8c-0.4-0.7-0.7-1.1-0.9-1.6l0,0c-0.2,0.5-0.5,0.9-0.9,1.6l-1,1.8h-1.2l2.5-4.1l-2.4-4h1.2
				l1.1,1.9c0.3,0.5,0.5,0.9,0.7,1.4l0,0c0.2-0.5,0.4-0.9,0.7-1.4l1.1-1.9h1.2l-2.5,3.9l2.5,4.1L869.1,336L869.1,336z"/>
			<path class="st6" d="M875.7,332.2h-3.1v2.9h3.5v0.9h-4.5v-8.1h4.4v0.9h-3.3v2.6h3.1L875.7,332.2L875.7,332.2L875.7,332.2z"/>
			<path class="st6" d="M877.4,327.8h1v7.2h3.5v0.9h-4.5V327.8z"/>
			<path class="st6" d="M860.2,342.2v4.8c0,1.8,0.8,2.6,1.9,2.6c1.2,0,2-0.8,2-2.6v-4.8h1.1v4.7c0,2.5-1.3,3.5-3.1,3.5
				c-1.7,0-2.9-0.9-2.9-3.5v-4.7H860.2L860.2,342.2z"/>
			<path class="st6" d="M866.8,349.1c0.5,0.3,1.2,0.5,1.9,0.5c1.1,0,1.7-0.6,1.7-1.4s-0.4-1.2-1.5-1.6c-1.3-0.5-2.1-1.2-2.1-2.3
				c0-1.3,1-2.2,2.6-2.2c0.8,0,1.4,0.2,1.8,0.4l-0.3,0.9c-0.3-0.1-0.8-0.4-1.5-0.4c-1.1,0-1.5,0.7-1.5,1.2c0,0.8,0.5,1.1,1.6,1.6
				c1.4,0.5,2.1,1.2,2.1,2.4s-0.9,2.3-2.8,2.3c-0.8,0-1.6-0.2-2.1-0.5L866.8,349.1z"/>
			<path class="st6" d="M872.9,342.3c0.5-0.1,1.2-0.2,1.9-0.2c1,0,1.7,0.2,2.2,0.6c0.4,0.3,0.7,0.8,0.7,1.4c0,0.8-0.5,1.5-1.4,1.8
				l0,0c0.8,0.2,1.7,0.8,1.7,2c0,0.7-0.3,1.2-0.7,1.6c-0.6,0.5-1.5,0.8-2.8,0.8c-0.7,0-1.3,0-1.6-0.1L872.9,342.3L872.9,342.3z
				 M873.9,345.7h0.9c1.1,0,1.8-0.6,1.8-1.4c0-0.9-0.7-1.3-1.8-1.3c-0.5,0-0.8,0-0.9,0.1V345.7z M873.9,349.6c0.2,0,0.5,0,0.9,0
				c1.1,0,2.1-0.4,2.1-1.6c0-1.1-0.9-1.6-2.1-1.6h-0.9V349.6z"/>
		</g>
		<g>
			<path class="st6" d="M721.1,470.3c-1.1,0.1-2.5,0.1-3.5,0.1l0,0c0.9,0.3,2,0.6,3.1,1l3.9,1.4v0.9l-3.8,1.3
				c-1.1,0.4-2.2,0.7-3.1,0.9l0,0c1,0,2.4,0.1,3.6,0.2l3.5,0.2v1l-8.1-0.6v-1.3l3.9-1.4c1-0.3,1.9-0.6,2.7-0.8l0,0
				c-0.8-0.2-1.7-0.5-2.7-0.9l-3.9-1.4v-1.3l8.1-0.5v1L721.1,470.3z"/>
			<path class="st6" d="M721.7,462.2c2.1,0,3.1,1.5,3.1,2.9c0,1.6-1.2,2.8-3,2.8c-1.9,0-3.1-1.3-3.1-2.9
				C718.7,463.3,719.9,462.2,721.7,462.2z M721.7,466.8c1.3,0,2.2-0.7,2.2-1.8c0-1-0.9-1.8-2.3-1.8c-1,0-2.2,0.5-2.2,1.7
				C719.6,466.3,720.6,466.8,721.7,466.8z"/>
			<path class="st6" d="M723.1,456c0.6,0,1.1,0,1.6,0v0.9l-0.9,0.1l0,0c0.5,0.3,1.1,0.9,1.1,1.9c0,0.9-0.5,2-2.5,2H719v-1.1h3.2
				c1.1,0,1.8-0.3,1.8-1.3c0-0.7-0.5-1.2-1-1.4c-0.2-0.1-0.3-0.1-0.5-0.1h-3.6v-1.1L723.1,456L723.1,456L723.1,456z"/>
			<path class="st6" d="M720.4,454.3c-0.6,0-1.1,0-1.6,0v-0.9l1-0.1l0,0c-0.6-0.3-1.1-1-1.1-1.9c0-0.8,0.5-2.1,2.5-2.1h3.5v1.1h-3.3
				c-0.9,0-1.7,0.3-1.7,1.3c0,0.7,0.5,1.2,1.1,1.4c0.1,0,0.3,0.1,0.5,0.1h3.5v1.1H720.4L720.4,454.3z"/>
			<path class="st6" d="M717.1,446.4h1.7v-1.5h0.8v1.5h3.1c0.7,0,1.1-0.2,1.1-0.8c0-0.3,0-0.5-0.1-0.6h0.8c0.1,0.2,0.1,0.5,0.1,0.9
				c0,0.5-0.2,0.9-0.4,1.1c-0.3,0.3-0.8,0.4-1.5,0.4h-3.2v0.9h-0.8v-0.9h-1.4L717.1,446.4z"/>
			<path class="st6" d="M716.6,441.1c-0.1-0.5-0.2-1.2-0.2-2c0-1,0.2-1.8,0.7-2.3c0.4-0.4,1-0.7,1.7-0.7s1.3,0.2,1.7,0.6
				c0.6,0.6,0.9,1.5,0.9,2.5c0,0.3,0,0.6-0.1,0.8h3.2v1L716.6,441.1L716.6,441.1L716.6,441.1z M720.6,440c0.1-0.2,0.1-0.5,0.1-0.9
				c0-1.3-0.6-2-1.7-2s-1.6,0.8-1.6,1.9c0,0.5,0,0.8,0.1,1H720.6z"/>
			<path class="st6" d="M716.6,433.7h8.1v1h-8.1V433.7z"/>
			<path class="st6" d="M724.6,427.4l-1.8,1c-0.7,0.4-1.1,0.7-1.6,0.9l0,0c0.5,0.2,0.9,0.5,1.6,0.9l1.8,1v1.2l-4.1-2.5l-4,2.4v-1.2
				l1.9-1.1c0.5-0.3,0.9-0.5,1.4-0.7l0,0c-0.5-0.2-0.9-0.4-1.4-0.7l-1.9-1.1v-1.2l3.9,2.5l4.1-2.5L724.6,427.4L724.6,427.4z"/>
			<path class="st6" d="M720.9,420.8v3.1h2.9v-3.5h0.9v4.5h-8.1v-4.4h0.9v3.3h2.6v-3.1L720.9,420.8L720.9,420.8L720.9,420.8z"/>
			<path class="st6" d="M716.6,419.1v-1h7.2v-3.5h0.9v4.5H716.6z"/>
			<path class="st6" d="M716.6,410.9c-0.1-0.5-0.2-1.2-0.2-1.9c0-1,0.2-1.7,0.6-2.2c0.3-0.4,0.8-0.7,1.4-0.7c0.8,0,1.5,0.5,1.8,1.4
				l0,0c0.2-0.8,0.8-1.7,2-1.7c0.7,0,1.2,0.3,1.6,0.7c0.5,0.6,0.8,1.5,0.8,2.8c0,0.7,0,1.3-0.1,1.6L716.6,410.9L716.6,410.9z
				 M720.1,409.8v-0.9c0-1.1-0.6-1.8-1.4-1.8c-0.9,0-1.3,0.7-1.3,1.8c0,0.5,0,0.8,0.1,0.9H720.1z M723.9,409.8c0-0.2,0-0.5,0-0.9
				c0-1.1-0.4-2.1-1.6-2.1c-1.1,0-1.6,0.9-1.6,2.1v0.9H723.9z"/>
			<path class="st6" d="M721.7,399.1c2.1,0,3.1,1.5,3.1,2.9c0,1.6-1.2,2.8-3,2.8c-1.9,0-3.1-1.3-3.1-2.9
				C718.7,400.2,719.9,399.1,721.7,399.1z M721.7,403.7c1.3,0,2.2-0.7,2.2-1.8c0-1-0.9-1.8-2.3-1.8c-1,0-2.2,0.5-2.2,1.7
				C719.6,403.2,720.6,403.7,721.7,403.7z"/>
			<path class="st6" d="M724.6,394.6l-0.7,0.1l0,0c0.5,0.3,0.9,0.9,0.9,1.8c0,1.2-0.8,1.8-1.7,1.8c-1.4,0-2.2-1.2-2.2-3.5h-0.1
				c-0.5,0-1.3,0.1-1.3,1.3c0,0.5,0.2,1.1,0.4,1.5l-0.7,0.2c-0.3-0.5-0.5-1.2-0.5-1.9c0-1.8,1.2-2.2,2.4-2.2h2.2c0.5,0,1,0,1.4-0.1
				L724.6,394.6L724.6,394.6L724.6,394.6z M721.7,394.7c0,1.2,0.2,2.5,1.3,2.5c0.7,0,1-0.5,1-1c0-0.8-0.5-1.2-1-1.4
				c-0.1,0-0.2-0.1-0.3-0.1H721.7z"/>
			<path class="st6" d="M720.6,392c-0.7,0-1.3,0-1.8,0v-0.9h1.1l0,0c-0.8-0.3-1.3-0.9-1.3-1.6c0-0.1,0-0.2,0-0.3h1
				c0,0.1,0,0.2,0,0.4c0,0.7,0.6,1.3,1.4,1.4c0.1,0,0.3,0,0.5,0h3.1v1H720.6z"/>
			<path class="st6" d="M716.1,383.2h7c0.5,0,1.1,0,1.5,0v0.9h-1l0,0c0.6,0.3,1.1,1,1.1,2c0,1.4-1.2,2.5-3,2.5
				c-1.9,0-3.1-1.2-3.1-2.6c0-0.9,0.4-1.5,0.9-1.8l0,0h-3.4V383.2z M721.2,384.2c-0.1,0-0.3,0-0.4,0c-0.7,0.2-1.2,0.7-1.2,1.5
				c0,1.1,1,1.7,2.2,1.7s2.1-0.6,2.1-1.7c0-0.7-0.5-1.4-1.3-1.5c-0.1,0-0.3,0-0.5,0H721.2z"/>
			<path class="st6" d="M716.6,377.8h3.4v-3.9h-3.4v-1.1h8.1v1.1h-3.8v3.9h3.8v1h-8.1V377.8z"/>
			<path class="st6" d="M721.9,370.5c1.4,0,2-0.9,2-2c0-0.8-0.1-1.2-0.3-1.6l0.8-0.2c0.2,0.4,0.4,1,0.4,1.9c0,1.8-1.2,2.9-2.9,2.9
				s-3.1-1-3.1-2.7c0-1.9,1.7-2.4,2.7-2.4c0.2,0,0.4,0,0.5,0L721.9,370.5L721.9,370.5L721.9,370.5z M721.2,367.4
				c-0.7,0-1.7,0.3-1.7,1.5c0,1.1,1,1.5,1.7,1.6V367.4z"/>
			<path class="st6" d="M720.6,365c-0.7,0-1.3,0-1.8,0v-0.9h1.1l0,0c-0.8-0.3-1.3-0.9-1.3-1.6c0-0.1,0-0.2,0-0.3h1
				c0,0.1,0,0.2,0,0.4c0,0.7,0.6,1.3,1.4,1.4c0.1,0,0.3,0,0.5,0h3.1v1H720.6z"/>
			<path class="st6" d="M721.9,360.6c1.4,0,2-0.9,2-2c0-0.8-0.1-1.2-0.3-1.6l0.8-0.2c0.2,0.4,0.4,1,0.4,1.9c0,1.8-1.2,2.9-2.9,2.9
				s-3.1-1-3.1-2.7c0-1.9,1.7-2.4,2.7-2.4c0.2,0,0.4,0,0.5,0L721.9,360.6L721.9,360.6L721.9,360.6z M721.2,357.5
				c-0.7,0-1.7,0.3-1.7,1.5c0,1.1,1,1.5,1.7,1.6V357.5z"/>
		</g>
		<g>
			<path class="st6" d="M636.8,306.1c-0.1-1.1-0.1-2.5-0.1-3.5l0,0c-0.3,0.9-0.6,2-1,3.1l-1.4,3.9h-0.8l-1.3-3.8
				c-0.4-1.1-0.7-2.2-0.9-3.1l0,0c0,1-0.1,2.4-0.2,3.6l-0.2,3.5h-1l0.6-8.1h1.3l1.4,3.9c0.3,1,0.6,1.9,0.8,2.7l0,0
				c0.2-0.8,0.5-1.7,0.9-2.7l1.4-3.9h1.3l0.5,8.1h-1L636.8,306.1z"/>
			<path class="st6" d="M644.9,306.7c0,2.1-1.5,3.1-2.9,3.1c-1.6,0-2.8-1.2-2.8-3c0-1.9,1.3-3.1,2.9-3.1
				C643.8,303.7,644.9,304.8,644.9,306.7z M640.3,306.8c0,1.3,0.7,2.2,1.8,2.2c1,0,1.8-0.9,1.8-2.3c0-1-0.5-2.2-1.7-2.2
				C640.9,304.5,640.3,305.7,640.3,306.8z"/>
			<path class="st6" d="M651.1,308.1c0,0.6,0,1.1,0,1.6h-0.9l-0.1-0.9l0,0c-0.3,0.5-0.9,1.1-1.9,1.1c-0.9,0-2-0.5-2-2.5V304h1.1v3.2
				c0,1.1,0.3,1.8,1.3,1.8c0.7,0,1.2-0.5,1.4-1c0.1-0.2,0.1-0.3,0.1-0.5v-3.6h1.1L651.1,308.1L651.1,308.1L651.1,308.1z"/>
			<path class="st6" d="M652.9,305.3c0-0.6,0-1.1,0-1.6h0.9l0.1,1l0,0c0.3-0.6,1-1.1,1.9-1.1c0.8,0,2.1,0.5,2.1,2.5v3.5h-1.1v-3.3
				c0-0.9-0.3-1.7-1.3-1.7c-0.7,0-1.2,0.5-1.4,1.1c0,0.1-0.1,0.3-0.1,0.5v3.5h-1.1L652.9,305.3L652.9,305.3z"/>
			<path class="st6" d="M660.8,302.2v1.7h1.5v0.8h-1.5v3.1c0,0.7,0.2,1.1,0.8,1.1c0.3,0,0.5,0,0.6-0.1v0.8c-0.2,0.1-0.5,0.1-0.9,0.1
				c-0.5,0-0.9-0.2-1.1-0.4c-0.3-0.3-0.4-0.8-0.4-1.5v-3.2h-0.9v-0.8h0.9v-1.4L660.8,302.2z"/>
			<path class="st6" d="M666,301.6h1v7.2h3.5v0.9H666V301.6z"/>
			<path class="st6" d="M675.9,305.8h-3.1v2.9h3.5v0.9h-4.6v-8.1h4.4v0.9h-3.3v2.6h3.1L675.9,305.8L675.9,305.8z"/>
			<path class="st6" d="M677.6,301.7c0.6-0.1,1.4-0.2,2.2-0.2c1.5,0,2.6,0.3,3.3,1s1.1,1.6,1.1,2.9s-0.4,2.4-1.2,3.1
				c-0.8,0.8-2,1.2-3.6,1.2c-0.7,0-1.4,0-1.9-0.1L677.6,301.7L677.6,301.7z M678.7,308.8c0.3,0,0.6,0.1,1.1,0.1
				c2.2,0,3.4-1.2,3.4-3.4c0-1.9-1.1-3.1-3.3-3.1c-0.5,0-0.9,0-1.2,0.1V308.8z"/>
			<path class="st6" d="M688.1,301.7c0.5-0.1,1.2-0.2,2-0.2c1,0,1.8,0.2,2.3,0.7c0.4,0.4,0.7,1,0.7,1.7s-0.2,1.3-0.6,1.7
				c-0.6,0.6-1.5,0.9-2.5,0.9c-0.3,0-0.6,0-0.8-0.1v3.2h-1L688.1,301.7L688.1,301.7L688.1,301.7z M689.2,305.6
				c0.2,0.1,0.5,0.1,0.9,0.1c1.3,0,2-0.6,2-1.7s-0.8-1.6-1.9-1.6c-0.5,0-0.8,0-1,0.1V305.6z"/>
			<path class="st6" d="M697.4,309.7l-0.1-0.7l0,0c-0.3,0.5-0.9,0.9-1.8,0.9c-1.2,0-1.8-0.8-1.8-1.7c0-1.4,1.2-2.2,3.5-2.2v-0.1
				c0-0.5-0.1-1.3-1.3-1.3c-0.5,0-1.1,0.2-1.5,0.4l-0.2-0.7c0.5-0.3,1.2-0.5,1.9-0.5c1.8,0,2.2,1.2,2.2,2.4v2.2c0,0.5,0,1,0.1,1.4
				L697.4,309.7L697.4,309.7z M697.2,306.7c-1.2,0-2.5,0.2-2.5,1.3c0,0.7,0.5,1,1,1c0.8,0,1.2-0.5,1.4-1c0-0.1,0.1-0.2,0.1-0.3
				V306.7z"/>
			<path class="st6" d="M700,305.3c0-0.6,0-1.1,0-1.6h0.9l0.1,1l0,0c0.3-0.6,1-1.1,1.9-1.1c0.8,0,2.1,0.5,2.1,2.5v3.5h-1.1v-3.3
				c0-0.9-0.3-1.7-1.3-1.7c-0.7,0-1.2,0.5-1.4,1.1c0,0.1-0.1,0.3-0.1,0.5v3.5H700V305.3z"/>
			<path class="st6" d="M707.2,307c0,1.4,0.9,2,2,2c0.8,0,1.2-0.1,1.6-0.3l0.2,0.8c-0.4,0.2-1,0.4-1.9,0.4c-1.8,0-2.9-1.2-2.9-2.9
				c0-1.7,1-3.1,2.7-3.1c1.9,0,2.4,1.7,2.4,2.7c0,0.2,0,0.4,0,0.5L707.2,307L707.2,307L707.2,307z M710.3,306.2
				c0-0.7-0.3-1.7-1.5-1.7c-1.1,0-1.5,1-1.6,1.7H710.3z"/>
			<path class="st6" d="M712.6,301.1h1.1v8.5h-1.1V301.1z"/>
			<path class="st6" d="M724.9,306.1c-0.1-1.1-0.1-2.5-0.1-3.5l0,0c-0.3,0.9-0.6,2-1,3.1l-1.4,3.9h-0.8l-1.3-3.8
				c-0.4-1.1-0.7-2.2-0.9-3.1l0,0c0,1-0.1,2.4-0.2,3.6l-0.2,3.5h-1l0.6-8.1h1.3l1.4,3.9c0.3,1,0.6,1.9,0.8,2.7l0,0
				c0.2-0.8,0.5-1.7,0.9-2.7l1.4-3.9h1.3l0.5,8.1h-1L724.9,306.1z"/>
			<path class="st6" d="M730.9,309.7l-0.1-0.7l0,0c-0.3,0.5-0.9,0.9-1.8,0.9c-1.2,0-1.8-0.8-1.8-1.7c0-1.4,1.2-2.2,3.5-2.2v-0.1
				c0-0.5-0.1-1.3-1.3-1.3c-0.5,0-1.1,0.2-1.5,0.4l-0.2-0.7c0.5-0.3,1.2-0.5,1.9-0.5c1.8,0,2.2,1.2,2.2,2.4v2.2c0,0.5,0,1,0.1,1.4
				L730.9,309.7L730.9,309.7z M730.8,306.7c-1.2,0-2.5,0.2-2.5,1.3c0,0.7,0.5,1,1,1c0.8,0,1.2-0.5,1.4-1c0-0.1,0.1-0.2,0.1-0.3
				V306.7z"/>
			<path class="st6" d="M734.7,302.2v1.7h1.5v0.8h-1.5v3.1c0,0.7,0.2,1.1,0.8,1.1c0.3,0,0.5,0,0.6-0.1v0.8c-0.2,0.1-0.5,0.1-0.9,0.1
				c-0.5,0-0.9-0.2-1.1-0.4c-0.3-0.3-0.4-0.8-0.4-1.5v-3.2h-0.9v-0.8h0.9v-1.4L734.7,302.2z"/>
			<path class="st6" d="M737.4,305.7c0-0.7,0-1.3,0-1.8h0.9v1.1l0,0c0.3-0.8,0.9-1.3,1.6-1.3c0.1,0,0.2,0,0.3,0v1
				c-0.1,0-0.2,0-0.4,0c-0.7,0-1.3,0.6-1.4,1.4c0,0.1,0,0.3,0,0.5v3.1h-1L737.4,305.7L737.4,305.7z"/>
			<path class="st6" d="M742.6,302.2c0,0.4-0.3,0.6-0.7,0.6s-0.6-0.3-0.6-0.6c0-0.4,0.3-0.7,0.7-0.7
				C742.3,301.6,742.6,301.8,742.6,302.2z M741.4,309.7v-5.8h1.1v5.8H741.4z"/>
			<path class="st6" d="M744.7,303.8l0.8,1.2c0.2,0.3,0.4,0.6,0.6,0.9l0,0c0.2-0.3,0.4-0.6,0.6-1l0.8-1.2h1.1l-2,2.8l2,3h-1.2
				l-0.9-1.3c-0.2-0.3-0.4-0.7-0.6-1l0,0c-0.2,0.3-0.4,0.7-0.6,1l-0.8,1.3h-1.2l2.1-3l-2-2.8h1.3L744.7,303.8L744.7,303.8z"/>
			<path class="st6" d="M757.6,306.7c0,2.1-1.5,3.1-2.9,3.1c-1.6,0-2.8-1.2-2.8-3c0-1.9,1.3-3.1,2.9-3.1S757.6,304.8,757.6,306.7z
				 M753,306.8c0,1.3,0.7,2.2,1.8,2.2c1,0,1.8-0.9,1.8-2.3c0-1-0.5-2.2-1.7-2.2C753.5,304.5,753,305.7,753,306.8z"/>
			<path class="st6" d="M758.9,305.3c0-0.6,0-1.1,0-1.6h0.9l0.1,1l0,0c0.3-0.6,1-1.1,1.9-1.1c0.8,0,2.1,0.5,2.1,2.5v3.5h-1.1v-3.3
				c0-0.9-0.3-1.7-1.3-1.7c-0.7,0-1.2,0.5-1.4,1.1c0,0.1-0.1,0.3-0.1,0.5v3.5h-1.1L758.9,305.3L758.9,305.3z"/>
			<path class="st6" d="M775.1,305.5c0,2.8-1.7,4.3-3.8,4.3s-3.6-1.7-3.6-4.1c0-2.6,1.6-4.2,3.8-4.2
				C773.6,301.3,775.1,303.1,775.1,305.5z M768.8,305.7c0,1.7,0.9,3.3,2.6,3.3s2.6-1.5,2.6-3.4c0-1.6-0.8-3.3-2.6-3.3
				S768.8,303.8,768.8,305.7z"/>
			<path class="st6" d="M777.9,302.2v1.7h1.5v0.8h-1.5v3.1c0,0.7,0.2,1.1,0.8,1.1c0.3,0,0.5,0,0.6-0.1v0.8c-0.2,0.1-0.5,0.1-0.9,0.1
				c-0.5,0-0.9-0.2-1.1-0.4c-0.3-0.3-0.4-0.8-0.4-1.5v-3.2H776v-0.8h0.9v-1.4L777.9,302.2z"/>
			<path class="st6" d="M780.6,301.1h1.1v3.6l0,0c0.2-0.3,0.4-0.6,0.8-0.7c0.3-0.2,0.7-0.3,1.1-0.3c0.8,0,2,0.5,2,2.5v3.5h-1.1v-3.3
				c0-0.9-0.3-1.7-1.3-1.7c-0.7,0-1.2,0.5-1.4,1.1c-0.1,0.1-0.1,0.3-0.1,0.5v3.5h-1.1V301.1z"/>
			<path class="st6" d="M787.8,307c0,1.4,0.9,2,2,2c0.8,0,1.2-0.1,1.6-0.3l0.2,0.8c-0.4,0.2-1,0.4-1.9,0.4c-1.8,0-2.9-1.2-2.9-2.9
				c0-1.7,1-3.1,2.7-3.1c1.9,0,2.4,1.7,2.4,2.7c0,0.2,0,0.4,0,0.5L787.8,307L787.8,307L787.8,307z M790.9,306.2
				c0-0.7-0.3-1.7-1.5-1.7c-1.1,0-1.5,1-1.6,1.7H790.9z"/>
			<path class="st6" d="M793.2,305.7c0-0.7,0-1.3,0-1.8h0.9v1.1l0,0c0.3-0.8,0.9-1.3,1.6-1.3c0.1,0,0.2,0,0.3,0v1
				c-0.1,0-0.2,0-0.4,0c-0.7,0-1.3,0.6-1.4,1.4c0,0.1,0,0.3,0,0.5v3.1h-1L793.2,305.7L793.2,305.7z"/>
			<path class="st6" d="M799.6,308.3c0.5,0.3,1.2,0.5,1.9,0.5c1.1,0,1.7-0.6,1.7-1.4s-0.4-1.2-1.5-1.6c-1.3-0.5-2.1-1.2-2.1-2.3
				c0-1.3,1-2.2,2.6-2.2c0.8,0,1.4,0.2,1.8,0.4l-0.3,0.9c-0.3-0.1-0.8-0.4-1.5-0.4c-1.1,0-1.5,0.7-1.5,1.2c0,0.8,0.5,1.1,1.6,1.6
				c1.4,0.5,2.1,1.2,2.1,2.4c0,1.2-0.9,2.3-2.8,2.3c-0.8,0-1.6-0.2-2.1-0.5L799.6,308.3z"/>
			<path class="st6" d="M806.8,302.2c0,0.4-0.3,0.6-0.7,0.6s-0.6-0.3-0.6-0.6c0-0.4,0.3-0.7,0.7-0.7
				C806.5,301.6,806.8,301.8,806.8,302.2z M805.6,309.7v-5.8h1.1v5.8H805.6z"/>
			<path class="st6" d="M813.4,301.1v7c0,0.5,0,1.1,0,1.5h-0.9v-1l0,0c-0.3,0.6-1,1.1-2,1.1c-1.4,0-2.5-1.2-2.5-3
				c0-1.9,1.2-3.1,2.6-3.1c0.9,0,1.5,0.4,1.8,0.9l0,0V301h1L813.4,301.1L813.4,301.1z M812.4,306.2c0-0.1,0-0.3,0-0.4
				c-0.2-0.7-0.7-1.2-1.5-1.2c-1.1,0-1.7,1-1.7,2.2s0.6,2.1,1.7,2.1c0.7,0,1.4-0.5,1.5-1.3c0-0.1,0-0.3,0-0.5V306.2z"/>
			<path class="st6" d="M815.8,307c0,1.4,0.9,2,2,2c0.8,0,1.2-0.1,1.6-0.3l0.2,0.8c-0.4,0.2-1,0.4-1.9,0.4c-1.8,0-2.9-1.2-2.9-2.9
				c0-1.7,1-3.1,2.7-3.1c1.9,0,2.4,1.7,2.4,2.7c0,0.2,0,0.4,0,0.5L815.8,307L815.8,307L815.8,307z M818.9,306.2
				c0-0.7-0.3-1.7-1.5-1.7c-1.1,0-1.5,1-1.6,1.7H818.9z"/>
		</g>
		<g>
			<path class="st6" d="M825.5,390.2c0.5-0.1,1.2-0.2,2-0.2c1,0,1.8,0.2,2.3,0.7c0.4,0.4,0.7,1,0.7,1.7s-0.2,1.3-0.6,1.7
				c-0.6,0.6-1.5,0.9-2.5,0.9c-0.3,0-0.6,0-0.8-0.1v3.2h-1L825.5,390.2L825.5,390.2L825.5,390.2z M826.6,394.1
				c0.2,0.1,0.5,0.1,0.9,0.1c1.3,0,2-0.6,2-1.7s-0.8-1.6-1.9-1.6c-0.5,0-0.8,0-1,0.1V394.1z"/>
			<path class="st6" d="M834.8,398.2l-0.1-0.7l0,0c-0.3,0.5-0.9,0.9-1.8,0.9c-1.2,0-1.8-0.8-1.8-1.7c0-1.4,1.2-2.2,3.5-2.2v-0.1
				c0-0.5-0.1-1.3-1.3-1.3c-0.5,0-1.1,0.2-1.5,0.4l-0.2-0.7c0.5-0.3,1.2-0.5,1.9-0.5c1.8,0,2.2,1.2,2.2,2.4v2.2c0,0.5,0,1,0.1,1.4
				L834.8,398.2L834.8,398.2z M834.6,395.3c-1.2,0-2.5,0.2-2.5,1.3c0,0.7,0.5,1,1,1c0.8,0,1.2-0.5,1.4-1c0-0.1,0.1-0.2,0.1-0.3
				V395.3z"/>
			<path class="st6" d="M837.3,394c0-0.6,0-1.1,0-1.6h0.9l0.1,1l0,0c0.3-0.6,1-1.1,1.9-1.1c0.8,0,2.1,0.5,2.1,2.5v3.5h-1.1V395
				c0-0.9-0.3-1.7-1.3-1.7c-0.7,0-1.2,0.5-1.4,1.1c0,0.1-0.1,0.3-0.1,0.5v3.5h-1.1L837.3,394L837.3,394z"/>
			<path class="st6" d="M844.6,395.5c0,1.4,0.9,2,2,2c0.8,0,1.2-0.1,1.6-0.3l0.2,0.8c-0.4,0.2-1,0.4-1.9,0.4c-1.8,0-2.9-1.2-2.9-2.9
				c0-1.7,1-3.1,2.7-3.1c1.9,0,2.4,1.7,2.4,2.7c0,0.2,0,0.4,0,0.5L844.6,395.5L844.6,395.5L844.6,395.5z M847.7,394.8
				c0-0.7-0.3-1.7-1.5-1.7c-1.1,0-1.5,1-1.6,1.7H847.7z"/>
			<path class="st6" d="M850,389.7h1.1v8.5H850V389.7z"/>
			<path class="st6" d="M856.5,390.1v4.8c0,1.8,0.8,2.6,1.9,2.6c1.2,0,2-0.8,2-2.6v-4.8h1.1v4.7c0,2.5-1.3,3.5-3.1,3.5
				c-1.7,0-2.9-0.9-2.9-3.5v-4.7H856.5z"/>
			<path class="st6" d="M863.1,394.3c0-0.7,0-1.3,0-1.9h0.9v1l0,0c0.4-0.7,1.1-1.1,2.1-1.1c1.4,0,2.5,1.2,2.5,3
				c0,2.1-1.3,3.1-2.6,3.1c-0.8,0-1.4-0.3-1.8-0.9l0,0v3.2h-1L863.1,394.3L863.1,394.3L863.1,394.3z M864.2,395.8c0,0.2,0,0.3,0,0.4
				c0.2,0.7,0.8,1.2,1.6,1.2c1.1,0,1.8-0.9,1.8-2.2c0-1.2-0.6-2.2-1.7-2.2c-0.7,0-1.4,0.5-1.6,1.3c0,0.1-0.1,0.3-0.1,0.4V395.8
				L864.2,395.8z"/>
		</g>
		<path class="st7" d="M651.4,314c2.1,0,3.8,1.7,3.8,3.8s-1.7,3.8-3.8,3.8s-3.8-1.7-3.8-3.8S649.2,314,651.4,314L651.4,314z"/>
		<path class="st7" d="M651.4,512.5c2.1,0,3.8,1.7,3.8,3.8s-1.7,3.8-3.8,3.8s-3.8-1.7-3.8-3.8C647.5,514.2,649.2,512.5,651.4,512.5
			L651.4,512.5z"/>
		<circle class="st7" cx="318" cy="342.1" r="6.1"/>
		<circle class="st7" cx="315.8" cy="384.9" r="4.3"/>
		<circle class="st7" cx="318" cy="513.5" r="6.1"/>
		<circle class="st7" cx="809.7" cy="343.2" r="6.1"/>
		<circle class="st7" cx="810.1" cy="514.5" r="6.1"/>
		<circle class="st7" cx="811.9" cy="473.5" r="4.3"/>
		<circle class="st7" cx="597.7" cy="323" r="6.1"/>
		<circle class="st7" cx="530" cy="534.3" r="6.1"/>
		<g id="LWPOLYLINE_4_">
			<path class="st7" d="M354.9,469.9h31.2c1.6,0,2.8-1.3,2.8-2.8v-82.2c0-1.6-1.3-2.8-2.8-2.8h-31.2c-1.6,0-2.8,1.3-2.8,2.8v82.2
				C352,468.5,353.3,469.9,354.9,469.9z"/>
		</g>
		<g id="LWPOLYLINE_3_">
			<path class="st7" d="M633.5,395c0-1.7-1.3-3-2.8-3h-62.4c-1.6,0-2.8,1.4-2.8,3v41.9c0,1.7,1.3,3,2.8,3h62.4c1.6,0,2.8-1.4,2.8-3
				V395z"/>
		</g>
		<path class="st7" d="M787.4,314c2.1,0,3.8,1.7,3.8,3.8s-1.7,3.8-3.8,3.8s-3.8-1.7-3.8-3.8S785.2,314,787.4,314L787.4,314z"/>
		<path class="st7" d="M787.4,512.2c2.1,0,3.8,1.7,3.8,3.8s-1.7,3.8-3.8,3.8s-3.8-1.7-3.8-3.8C783.5,513.9,785.2,512.2,787.4,512.2
			L787.4,512.2z"/>
		<line class="st4" x1="787.4" y1="321.6" x2="787.4" y2="512.2"/>
		<line class="st4" x1="655.2" y1="516.3" x2="783.6" y2="516.3"/>
		<line class="st4" x1="655.2" y1="317.8" x2="783.6" y2="317.8"/>
		<path class="st8" d="M248,303.1c2.7,0,4.8,2.2,4.8,4.8c0,2.7-2.2,4.8-4.8,4.8c-2.7,0-4.8-2.2-4.8-4.8S245.3,303.1,248,303.1z"/>
		<path class="st8" d="M256.5,544.2c2.7,0,4.8,2.2,4.8,4.8c0,2.7-2.2,4.8-4.8,4.8c-2.7,0-4.8-2.2-4.8-4.8S253.8,544.2,256.5,544.2z"
			/>
		<path class="st8" d="M873.2,544.1c2.7,0,4.8,2.2,4.8,4.8c0,2.7-2.2,4.8-4.8,4.8c-2.7,0-4.8-2.2-4.8-4.8S870.5,544.1,873.2,544.1z"
			/>
		<path class="st8" d="M880.9,303.1c2.7,0,4.8,2.2,4.8,4.8c0,2.7-2.2,4.8-4.8,4.8c-2.7,0-4.8-2.2-4.8-4.8S878.2,303.1,880.9,303.1z"
			/>
	</g>
</g>
<g id="arcade_mount">
	<polyline class="st2" points="370.9,262.1 362.4,262.1 362.4,136.9 1031.6,136.5 	"/>
	<line class="st3" x1="1024.2" y1="354.1" x2="1032.9" y2="354.1"/>
	<g>
		<line class="st3" x1="362.7" y1="354" x2="371.2" y2="354"/>
		<g>
			<line class="st3" x1="362.5" y1="297.1" x2="362.5" y2="354"/>
			<g>
				<g id="New_Side_2_">
					<path class="st3" d="M371.1,297.3"/>
					<line class="st2" x1="371.1" y1="297.2" x2="371.1" y2="262.1"/>
					<path class="st3" d="M362.6,241"/>
					<path class="st3" d="M362.4,136.5"/>
					<path class="st3" d="M362.4,261.8"/>
					<path class="st3" d="M1023,297.3"/>
					<path class="st3" d="M1023,297.3"/>
					<path class="st3" d="M1031.6,136.1"/>
				</g>
				<line class="st3" x1="1024.1" y1="297.1" x2="1032.8" y2="297.1"/>
				<path class="st3" d="M1031.7,354"/>
				<path class="st3" d="M1031.8,297.1"/>
			</g>
		</g>
	</g>
	<line class="st2" x1="371.2" y1="407.9" x2="1023.9" y2="407.8"/>
	<line class="st3" x1="1032.9" y1="297.2" x2="1032.9" y2="354.1"/>
	<line class="st2" x1="1024.2" y1="297.1" x2="1024.2" y2="261.9"/>
	<line class="st3" x1="1031.8" y1="262.2" x2="1031.8" y2="136.2"/>
	<line class="st2" x1="1023.9" y1="407.8" x2="1023.9" y2="354"/>
	<line class="st3" x1="1024.2" y1="262.2" x2="1031.8" y2="262.2"/>
	<line class="st2" x1="362.5" y1="297.1" x2="371.1" y2="297.3"/>
	<line class="st2" x1="371.2" y1="354" x2="371.2" y2="407.9"/>
	<line class="st4" x1="784.1" y1="355.5" x2="784.1" y2="164.7"/>
	<g>
		<g>
			<line class="st5" x1="983.8" y1="252.5" x2="983.8" y2="333.3"/>
			<g>
				<path class="st6" d="M987.3,253.1c-1.5-0.9-2.6-2.2-3.5-3.7c-0.9,1.5-2.1,2.8-3.5,3.7v0.9c1.4-0.9,2.6-2,3.5-3.4
					c0.9,1.4,2.2,2.5,3.5,3.4V253.1z"/>
				<path class="st6" d="M987.3,255.1c-1.5-0.9-2.6-2.2-3.5-3.7c-0.9,1.5-2.1,2.8-3.5,3.7v0.9c1.4-0.9,2.6-2,3.5-3.4
					c0.9,1.4,2.2,2.5,3.5,3.4V255.1z"/>
			</g>
		</g>
	</g>
	<g>
		<g>
			<line class="st5" x1="947.5" y1="216.9" x2="986.5" y2="194.2"/>
			<g>
				<path class="st6" d="M946.7,214.3c0,1.3-0.5,2.5-1.1,3.6c1.1,0.1,2.3,0.4,3.3,1.1l0.5-0.3c-0.9-0.6-2-1-3.1-1.2
					c0.5-1,0.8-2.2,0.9-3.5L946.7,214.3z"/>
				<path class="st6" d="M947.9,213.7c0,1.3-0.5,2.5-1.1,3.6c1.1,0.1,2.3,0.4,3.3,1.1l0.5-0.3c-0.9-0.6-2-1-3.1-1.2
					c0.5-1,0.8-2.2,0.9-3.5L947.9,213.7z"/>
			</g>
		</g>
	</g>
	<g>
		<path class="st6" d="M988.1,171c0.5-0.1,1.2-0.2,2-0.2c1,0,1.8,0.2,2.3,0.7c0.4,0.4,0.7,1,0.7,1.7s-0.2,1.3-0.6,1.7
			c-0.6,0.6-1.5,0.9-2.5,0.9c-0.3,0-0.6,0-0.8-0.1v3.2h-1L988.1,171L988.1,171L988.1,171z M989.2,174.8c0.2,0.1,0.5,0.1,0.9,0.1
			c1.3,0,2-0.6,2-1.7s-0.8-1.6-1.9-1.6c-0.5,0-0.8,0-1,0.1V174.8z"/>
		<path class="st6" d="M995.6,170.8v8.1h-1v-8.1H995.6z"/>
		<path class="st6" d="M1001.8,179l-1-1.8c-0.4-0.7-0.7-1.1-0.9-1.6l0,0c-0.2,0.5-0.5,0.9-0.9,1.6l-1,1.8h-1.2l2.5-4.1l-2.4-4h1.2
			l1.1,1.9c0.3,0.5,0.5,0.9,0.7,1.4l0,0c0.2-0.5,0.4-0.9,0.7-1.4l1.1-1.9h1.2l-2.5,3.9l2.5,4.1L1001.8,179L1001.8,179z"/>
		<path class="st6" d="M1008.4,175.2h-3.1v2.9h3.5v0.9h-4.5v-8.1h4.4v0.9h-3.3v2.6h3.1L1008.4,175.2L1008.4,175.2L1008.4,175.2z"/>
		<path class="st6" d="M1010.1,170.8h1v7.2h3.5v0.9h-4.5V170.8z"/>
		<path class="st6" d="M992.9,185.2v4.8c0,1.8,0.8,2.6,1.9,2.6c1.2,0,2-0.8,2-2.6v-4.8h1.1v4.7c0,2.5-1.3,3.5-3.1,3.5
			c-1.7,0-2.9-0.9-2.9-3.5v-4.7H992.9L992.9,185.2z"/>
		<path class="st6" d="M999.5,192.1c0.5,0.3,1.2,0.5,1.9,0.5c1.1,0,1.7-0.6,1.7-1.4s-0.4-1.2-1.5-1.6c-1.3-0.5-2.1-1.2-2.1-2.3
			c0-1.3,1-2.2,2.6-2.2c0.8,0,1.4,0.2,1.8,0.4l-0.3,0.9c-0.3-0.1-0.8-0.4-1.5-0.4c-1.1,0-1.5,0.7-1.5,1.2c0,0.8,0.5,1.1,1.6,1.6
			c1.4,0.5,2.1,1.2,2.1,2.4s-0.9,2.3-2.8,2.3c-0.8,0-1.6-0.2-2.1-0.5L999.5,192.1z"/>
		<path class="st6" d="M1005.6,185.3c0.5-0.1,1.2-0.2,1.9-0.2c1,0,1.7,0.2,2.2,0.6c0.4,0.3,0.7,0.8,0.7,1.4c0,0.8-0.5,1.5-1.4,1.8
			l0,0c0.8,0.2,1.7,0.8,1.7,2c0,0.7-0.3,1.2-0.7,1.6c-0.6,0.5-1.5,0.8-2.8,0.8c-0.7,0-1.3,0-1.6-0.1L1005.6,185.3L1005.6,185.3z
			 M1006.6,188.7h0.9c1.1,0,1.8-0.6,1.8-1.4c0-0.9-0.7-1.3-1.8-1.3c-0.5,0-0.8,0-0.9,0.1V188.7z M1006.6,192.6c0.2,0,0.5,0,0.9,0
			c1.1,0,2.1-0.4,2.1-1.6c0-1.1-0.9-1.6-2.1-1.6h-0.9V192.6z"/>
	</g>
	<g>
		<path class="st6" d="M853.8,313.3c-1.1,0.1-2.5,0.1-3.5,0.1l0,0c0.9,0.3,2,0.6,3.1,1l3.9,1.4v0.9l-3.8,1.3
			c-1.1,0.4-2.2,0.7-3.1,0.9l0,0c1,0,2.4,0.1,3.6,0.2l3.5,0.2v1l-8.1-0.6v-1.3l3.9-1.4c1-0.3,1.9-0.6,2.7-0.8l0,0
			c-0.8-0.2-1.7-0.5-2.7-0.9l-3.9-1.4v-1.3l8.1-0.5v1L853.8,313.3z"/>
		<path class="st6" d="M854.4,305.2c2.1,0,3.1,1.5,3.1,2.9c0,1.6-1.2,2.8-3,2.8c-1.9,0-3.1-1.3-3.1-2.9
			C851.4,306.3,852.6,305.2,854.4,305.2z M854.4,309.8c1.3,0,2.2-0.7,2.2-1.8c0-1-0.9-1.8-2.3-1.8c-1,0-2.2,0.5-2.2,1.7
			C852.3,309.3,853.3,309.8,854.4,309.8z"/>
		<path class="st6" d="M855.8,299c0.6,0,1.1,0,1.6,0v0.9l-0.9,0.1l0,0c0.5,0.3,1.1,0.9,1.1,1.9c0,0.9-0.5,2-2.5,2h-3.4v-1.1h3.2
			c1.1,0,1.8-0.3,1.8-1.3c0-0.7-0.5-1.2-1-1.4c-0.2-0.1-0.3-0.1-0.5-0.1h-3.6v-1.1L855.8,299L855.8,299L855.8,299z"/>
		<path class="st6" d="M853.1,297.3c-0.6,0-1.1,0-1.6,0v-0.9l1-0.1l0,0c-0.6-0.3-1.1-1-1.1-1.9c0-0.8,0.5-2.1,2.5-2.1h3.5v1.1h-3.3
			c-0.9,0-1.7,0.3-1.7,1.3c0,0.7,0.5,1.2,1.1,1.4c0.1,0,0.3,0.1,0.5,0.1h3.5v1.1H853.1L853.1,297.3z"/>
		<path class="st6" d="M849.8,289.4h1.7v-1.5h0.8v1.5h3.1c0.7,0,1.1-0.2,1.1-0.8c0-0.3,0-0.5-0.1-0.6h0.8c0.1,0.2,0.1,0.5,0.1,0.9
			c0,0.5-0.2,0.9-0.4,1.1c-0.3,0.3-0.8,0.4-1.5,0.4h-3.2v0.9h-0.8v-0.9H850L849.8,289.4z"/>
		<path class="st6" d="M849.3,284.1c-0.1-0.5-0.2-1.2-0.2-2c0-1,0.2-1.8,0.7-2.3c0.4-0.4,1-0.7,1.7-0.7s1.3,0.2,1.7,0.6
			c0.6,0.6,0.9,1.5,0.9,2.5c0,0.3,0,0.6-0.1,0.8h3.2v1L849.3,284.1L849.3,284.1L849.3,284.1z M853.3,283c0.1-0.2,0.1-0.5,0.1-0.9
			c0-1.3-0.6-2-1.7-2s-1.6,0.8-1.6,1.9c0,0.5,0,0.8,0.1,1H853.3z"/>
		<path class="st6" d="M849.3,276.7h8.1v1h-8.1V276.7z"/>
		<path class="st6" d="M857.3,270.4l-1.8,1c-0.7,0.4-1.1,0.7-1.6,0.9l0,0c0.5,0.2,0.9,0.5,1.6,0.9l1.8,1v1.2l-4.1-2.5l-4,2.4v-1.2
			l1.9-1.1c0.5-0.3,0.9-0.5,1.4-0.7l0,0c-0.5-0.2-0.9-0.4-1.4-0.7l-1.9-1.1v-1.2l3.9,2.5l4.1-2.5L857.3,270.4L857.3,270.4z"/>
		<path class="st6" d="M853.6,263.8v3.1h2.9v-3.5h0.9v4.5h-8.1v-4.4h0.9v3.3h2.6v-3.1L853.6,263.8L853.6,263.8L853.6,263.8z"/>
		<path class="st6" d="M849.3,262.1v-1h7.2v-3.5h0.9v4.5H849.3z"/>
		<path class="st6" d="M849.3,253.9c-0.1-0.5-0.2-1.2-0.2-1.9c0-1,0.2-1.7,0.6-2.2c0.3-0.4,0.8-0.7,1.4-0.7c0.8,0,1.5,0.5,1.8,1.4
			l0,0c0.2-0.8,0.8-1.7,2-1.7c0.7,0,1.2,0.3,1.6,0.7c0.5,0.6,0.8,1.5,0.8,2.8c0,0.7,0,1.3-0.1,1.6L849.3,253.9L849.3,253.9z
			 M852.8,252.8v-0.9c0-1.1-0.6-1.8-1.4-1.8c-0.9,0-1.3,0.7-1.3,1.8c0,0.5,0,0.8,0.1,0.9H852.8z M856.6,252.8c0-0.2,0-0.5,0-0.9
			c0-1.1-0.4-2.1-1.6-2.1c-1.1,0-1.6,0.9-1.6,2.1v0.9H856.6z"/>
		<path class="st6" d="M854.4,242.1c2.1,0,3.1,1.5,3.1,2.9c0,1.6-1.2,2.8-3,2.8c-1.9,0-3.1-1.3-3.1-2.9
			C851.4,243.2,852.6,242.1,854.4,242.1z M854.4,246.7c1.3,0,2.2-0.7,2.2-1.8c0-1-0.9-1.8-2.3-1.8c-1,0-2.2,0.5-2.2,1.7
			C852.3,246.2,853.3,246.7,854.4,246.7z"/>
		<path class="st6" d="M857.3,237.6l-0.7,0.1l0,0c0.5,0.3,0.9,0.9,0.9,1.8c0,1.2-0.8,1.8-1.7,1.8c-1.4,0-2.2-1.2-2.2-3.5h-0.1
			c-0.5,0-1.3,0.1-1.3,1.3c0,0.5,0.2,1.1,0.4,1.5l-0.7,0.2c-0.3-0.5-0.5-1.2-0.5-1.9c0-1.8,1.2-2.2,2.4-2.2h2.2c0.5,0,1,0,1.4-0.1
			L857.3,237.6L857.3,237.6L857.3,237.6z M854.4,237.7c0,1.2,0.2,2.5,1.3,2.5c0.7,0,1-0.5,1-1c0-0.8-0.5-1.2-1-1.4
			c-0.1,0-0.2-0.1-0.3-0.1H854.4z"/>
		<path class="st6" d="M853.3,235c-0.7,0-1.3,0-1.8,0v-0.9h1.1l0,0c-0.8-0.3-1.3-0.9-1.3-1.6c0-0.1,0-0.2,0-0.3h1c0,0.1,0,0.2,0,0.4
			c0,0.7,0.6,1.3,1.4,1.4c0.1,0,0.3,0,0.5,0h3.1v1H853.3z"/>
		<path class="st6" d="M848.8,226.2h7c0.5,0,1.1,0,1.5,0v0.9h-1l0,0c0.6,0.3,1.1,1,1.1,2c0,1.4-1.2,2.5-3,2.5
			c-1.9,0-3.1-1.2-3.1-2.6c0-0.9,0.4-1.5,0.9-1.8l0,0h-3.4V226.2z M853.9,227.2c-0.1,0-0.3,0-0.4,0c-0.7,0.2-1.2,0.7-1.2,1.5
			c0,1.1,1,1.7,2.2,1.7s2.1-0.6,2.1-1.7c0-0.7-0.5-1.4-1.3-1.5c-0.1,0-0.3,0-0.5,0H853.9z"/>
		<path class="st6" d="M849.3,220.8h3.4v-3.9h-3.4v-1.1h8.1v1.1h-3.8v3.9h3.8v1h-8.1V220.8z"/>
		<path class="st6" d="M854.6,213.5c1.4,0,2-0.9,2-2c0-0.8-0.1-1.2-0.3-1.6l0.8-0.2c0.2,0.4,0.4,1,0.4,1.9c0,1.8-1.2,2.9-2.9,2.9
			s-3.1-1-3.1-2.7c0-1.9,1.7-2.4,2.7-2.4c0.2,0,0.4,0,0.5,0L854.6,213.5L854.6,213.5L854.6,213.5z M853.9,210.4
			c-0.7,0-1.7,0.3-1.7,1.5c0,1.1,1,1.5,1.7,1.6V210.4z"/>
		<path class="st6" d="M853.3,208c-0.7,0-1.3,0-1.8,0v-0.9h1.1l0,0c-0.8-0.3-1.3-0.9-1.3-1.6c0-0.1,0-0.2,0-0.3h1c0,0.1,0,0.2,0,0.4
			c0,0.7,0.6,1.3,1.4,1.4c0.1,0,0.3,0,0.5,0h3.1v1H853.3z"/>
		<path class="st6" d="M854.6,203.6c1.4,0,2-0.9,2-2c0-0.8-0.1-1.2-0.3-1.6l0.8-0.2c0.2,0.4,0.4,1,0.4,1.9c0,1.8-1.2,2.9-2.9,2.9
			s-3.1-1-3.1-2.7c0-1.9,1.7-2.4,2.7-2.4c0.2,0,0.4,0,0.5,0L854.6,203.6L854.6,203.6L854.6,203.6z M853.9,200.5
			c-0.7,0-1.7,0.3-1.7,1.5c0,1.1,1,1.5,1.7,1.6V200.5z"/>
	</g>
	<g>
		<path class="st6" d="M769.5,149.1c-0.1-1.1-0.1-2.5-0.1-3.5l0,0c-0.3,0.9-0.6,2-1,3.1l-1.4,3.9h-0.8l-1.3-3.8
			c-0.4-1.1-0.7-2.2-0.9-3.1l0,0c0,1-0.1,2.4-0.2,3.6l-0.2,3.5h-1l0.6-8.1h1.3l1.4,3.9c0.3,1,0.6,1.9,0.8,2.7l0,0
			c0.2-0.8,0.5-1.7,0.9-2.7l1.4-3.9h1.3l0.5,8.1h-1L769.5,149.1z"/>
		<path class="st6" d="M777.6,149.7c0,2.1-1.5,3.1-2.9,3.1c-1.6,0-2.8-1.2-2.8-3c0-1.9,1.3-3.1,2.9-3.1
			C776.5,146.7,777.6,147.8,777.6,149.7z M773,149.8c0,1.3,0.7,2.2,1.8,2.2c1,0,1.8-0.9,1.8-2.3c0-1-0.5-2.2-1.7-2.2
			C773.6,147.5,773,148.7,773,149.8z"/>
		<path class="st6" d="M783.8,151.1c0,0.6,0,1.1,0,1.6h-0.9l-0.1-0.9l0,0c-0.3,0.5-0.9,1.1-1.9,1.1c-0.9,0-2-0.5-2-2.5V147h1.1v3.2
			c0,1.1,0.3,1.8,1.3,1.8c0.7,0,1.2-0.5,1.4-1c0.1-0.2,0.1-0.3,0.1-0.5v-3.6h1.1L783.8,151.1L783.8,151.1L783.8,151.1z"/>
		<path class="st6" d="M785.6,148.3c0-0.6,0-1.1,0-1.6h0.9l0.1,1l0,0c0.3-0.6,1-1.1,1.9-1.1c0.8,0,2.1,0.5,2.1,2.5v3.5h-1.1v-3.3
			c0-0.9-0.3-1.7-1.3-1.7c-0.7,0-1.2,0.5-1.4,1.1c0,0.1-0.1,0.3-0.1,0.5v3.5h-1.1L785.6,148.3L785.6,148.3z"/>
		<path class="st6" d="M793.5,145.2v1.7h1.5v0.8h-1.5v3.1c0,0.7,0.2,1.1,0.8,1.1c0.3,0,0.5,0,0.6-0.1v0.8c-0.2,0.1-0.5,0.1-0.9,0.1
			c-0.5,0-0.9-0.2-1.1-0.4c-0.3-0.3-0.4-0.8-0.4-1.5v-3.2h-0.9v-0.8h0.9v-1.4L793.5,145.2z"/>
		<path class="st6" d="M798.7,144.6h1v7.2h3.5v0.9h-4.5V144.6z"/>
		<path class="st6" d="M808.6,148.8h-3.1v2.9h3.5v0.9h-4.6v-8.1h4.4v0.9h-3.3v2.6h3.1L808.6,148.8L808.6,148.8z"/>
		<path class="st6" d="M810.3,144.7c0.6-0.1,1.4-0.2,2.2-0.2c1.5,0,2.6,0.3,3.3,1s1.1,1.6,1.1,2.9s-0.4,2.4-1.2,3.1
			c-0.8,0.8-2,1.2-3.6,1.2c-0.7,0-1.4,0-1.9-0.1L810.3,144.7L810.3,144.7z M811.4,151.8c0.3,0,0.6,0.1,1.1,0.1
			c2.2,0,3.4-1.2,3.4-3.4c0-1.9-1.1-3.1-3.3-3.1c-0.5,0-0.9,0-1.2,0.1V151.8z"/>
		<path class="st6" d="M820.8,144.7c0.5-0.1,1.2-0.2,2-0.2c1,0,1.8,0.2,2.3,0.7c0.4,0.4,0.7,1,0.7,1.7s-0.2,1.3-0.6,1.7
			c-0.6,0.6-1.5,0.9-2.5,0.9c-0.3,0-0.6,0-0.8-0.1v3.2h-1L820.8,144.7L820.8,144.7L820.8,144.7z M821.9,148.6
			c0.2,0.1,0.5,0.1,0.9,0.1c1.3,0,2-0.6,2-1.7s-0.8-1.6-1.9-1.6c-0.5,0-0.8,0-1,0.1V148.6z"/>
		<path class="st6" d="M830.1,152.7L830,152l0,0c-0.3,0.5-0.9,0.9-1.8,0.9c-1.2,0-1.8-0.8-1.8-1.7c0-1.4,1.2-2.2,3.5-2.2v-0.1
			c0-0.5-0.1-1.3-1.3-1.3c-0.5,0-1.1,0.2-1.5,0.4l-0.2-0.7c0.5-0.3,1.2-0.5,1.9-0.5c1.8,0,2.2,1.2,2.2,2.4v2.2c0,0.5,0,1,0.1,1.4
			L830.1,152.7L830.1,152.7z M829.9,149.7c-1.2,0-2.5,0.2-2.5,1.3c0,0.7,0.5,1,1,1c0.8,0,1.2-0.5,1.4-1c0-0.1,0.1-0.2,0.1-0.3V149.7
			z"/>
		<path class="st6" d="M832.7,148.3c0-0.6,0-1.1,0-1.6h0.9l0.1,1l0,0c0.3-0.6,1-1.1,1.9-1.1c0.8,0,2.1,0.5,2.1,2.5v3.5h-1.1v-3.3
			c0-0.9-0.3-1.7-1.3-1.7c-0.7,0-1.2,0.5-1.4,1.1c0,0.1-0.1,0.3-0.1,0.5v3.5h-1.1V148.3z"/>
		<path class="st6" d="M839.9,150c0,1.4,0.9,2,2,2c0.8,0,1.2-0.1,1.6-0.3l0.2,0.8c-0.4,0.2-1,0.4-1.9,0.4c-1.8,0-2.9-1.2-2.9-2.9
			c0-1.7,1-3.1,2.7-3.1c1.9,0,2.4,1.7,2.4,2.7c0,0.2,0,0.4,0,0.5L839.9,150L839.9,150L839.9,150z M843,149.2c0-0.7-0.3-1.7-1.5-1.7
			c-1.1,0-1.5,1-1.6,1.7H843z"/>
		<path class="st6" d="M845.3,144.1h1.1v8.5h-1.1V144.1z"/>
		<path class="st6" d="M857.6,149.1c-0.1-1.1-0.1-2.5-0.1-3.5l0,0c-0.3,0.9-0.6,2-1,3.1l-1.4,3.9h-0.8l-1.3-3.8
			c-0.4-1.1-0.7-2.2-0.9-3.1l0,0c0,1-0.1,2.4-0.2,3.6l-0.2,3.5h-1l0.6-8.1h1.3l1.4,3.9c0.3,1,0.6,1.9,0.8,2.7l0,0
			c0.2-0.8,0.5-1.7,0.9-2.7l1.4-3.9h1.3l0.5,8.1h-1L857.6,149.1z"/>
		<path class="st6" d="M863.6,152.7l-0.1-0.7l0,0c-0.3,0.5-0.9,0.9-1.8,0.9c-1.2,0-1.8-0.8-1.8-1.7c0-1.4,1.2-2.2,3.5-2.2v-0.1
			c0-0.5-0.1-1.3-1.3-1.3c-0.5,0-1.1,0.2-1.5,0.4l-0.2-0.7c0.5-0.3,1.2-0.5,1.9-0.5c1.8,0,2.2,1.2,2.2,2.4v2.2c0,0.5,0,1,0.1,1.4
			L863.6,152.7L863.6,152.7z M863.5,149.7c-1.2,0-2.5,0.2-2.5,1.3c0,0.7,0.5,1,1,1c0.8,0,1.2-0.5,1.4-1c0-0.1,0.1-0.2,0.1-0.3V149.7
			z"/>
		<path class="st6" d="M867.4,145.2v1.7h1.5v0.8h-1.5v3.1c0,0.7,0.2,1.1,0.8,1.1c0.3,0,0.5,0,0.6-0.1v0.8c-0.2,0.1-0.5,0.1-0.9,0.1
			c-0.5,0-0.9-0.2-1.1-0.4c-0.3-0.3-0.4-0.8-0.4-1.5v-3.2h-0.9v-0.8h0.9v-1.4L867.4,145.2z"/>
		<path class="st6" d="M870.1,148.7c0-0.7,0-1.3,0-1.8h0.9v1.1l0,0c0.3-0.8,0.9-1.3,1.6-1.3c0.1,0,0.2,0,0.3,0v1c-0.1,0-0.2,0-0.4,0
			c-0.7,0-1.3,0.6-1.4,1.4c0,0.1,0,0.3,0,0.5v3.1h-1L870.1,148.7L870.1,148.7z"/>
		<path class="st6" d="M875.3,145.2c0,0.4-0.3,0.6-0.7,0.6s-0.6-0.3-0.6-0.6c0-0.4,0.3-0.7,0.7-0.7
			C875,144.6,875.3,144.8,875.3,145.2z M874.1,152.7v-5.8h1.1v5.8H874.1z"/>
		<path class="st6" d="M877.4,146.8l0.8,1.2c0.2,0.3,0.4,0.6,0.6,0.9l0,0c0.2-0.3,0.4-0.6,0.6-1l0.8-1.2h1.1l-2,2.8l2,3h-1.2
			l-0.9-1.3c-0.2-0.3-0.4-0.7-0.6-1l0,0c-0.2,0.3-0.4,0.7-0.6,1l-0.8,1.3H876l2.1-3l-2-2.8h1.3L877.4,146.8L877.4,146.8z"/>
		<path class="st6" d="M890.3,149.7c0,2.1-1.5,3.1-2.9,3.1c-1.6,0-2.8-1.2-2.8-3c0-1.9,1.3-3.1,2.9-3.1S890.3,147.8,890.3,149.7z
			 M885.7,149.8c0,1.3,0.7,2.2,1.8,2.2c1,0,1.8-0.9,1.8-2.3c0-1-0.5-2.2-1.7-2.2C886.2,147.5,885.7,148.7,885.7,149.8z"/>
		<path class="st6" d="M891.6,148.3c0-0.6,0-1.1,0-1.6h0.9l0.1,1l0,0c0.3-0.6,1-1.1,1.9-1.1c0.8,0,2.1,0.5,2.1,2.5v3.5h-1.1v-3.3
			c0-0.9-0.3-1.7-1.3-1.7c-0.7,0-1.2,0.5-1.4,1.1c0,0.1-0.1,0.3-0.1,0.5v3.5h-1.1L891.6,148.3L891.6,148.3z"/>
		<path class="st6" d="M907.8,148.5c0,2.8-1.7,4.3-3.8,4.3s-3.6-1.7-3.6-4.1c0-2.6,1.6-4.2,3.8-4.2
			C906.3,144.3,907.8,146.1,907.8,148.5z M901.5,148.7c0,1.7,0.9,3.3,2.6,3.3s2.6-1.5,2.6-3.4c0-1.6-0.8-3.3-2.6-3.3
			S901.5,146.8,901.5,148.7z"/>
		<path class="st6" d="M910.6,145.2v1.7h1.5v0.8h-1.5v3.1c0,0.7,0.2,1.1,0.8,1.1c0.3,0,0.5,0,0.6-0.1v0.8c-0.2,0.1-0.5,0.1-0.9,0.1
			c-0.5,0-0.9-0.2-1.1-0.4c-0.3-0.3-0.4-0.8-0.4-1.5v-3.2h-0.9v-0.8h0.9v-1.4L910.6,145.2z"/>
		<path class="st6" d="M913.3,144.1h1.1v3.6l0,0c0.2-0.3,0.4-0.6,0.8-0.7c0.3-0.2,0.7-0.3,1.1-0.3c0.8,0,2,0.5,2,2.5v3.5h-1.1v-3.3
			c0-0.9-0.3-1.7-1.3-1.7c-0.7,0-1.2,0.5-1.4,1.1c-0.1,0.1-0.1,0.3-0.1,0.5v3.5h-1.1V144.1z"/>
		<path class="st6" d="M920.5,150c0,1.4,0.9,2,2,2c0.8,0,1.2-0.1,1.6-0.3l0.2,0.8c-0.4,0.2-1,0.4-1.9,0.4c-1.8,0-2.9-1.2-2.9-2.9
			c0-1.7,1-3.1,2.7-3.1c1.9,0,2.4,1.7,2.4,2.7c0,0.2,0,0.4,0,0.5L920.5,150L920.5,150L920.5,150z M923.6,149.2
			c0-0.7-0.3-1.7-1.5-1.7c-1.1,0-1.5,1-1.6,1.7H923.6z"/>
		<path class="st6" d="M925.9,148.7c0-0.7,0-1.3,0-1.8h0.9v1.1l0,0c0.3-0.8,0.9-1.3,1.6-1.3c0.1,0,0.2,0,0.3,0v1c-0.1,0-0.2,0-0.4,0
			c-0.7,0-1.3,0.6-1.4,1.4c0,0.1,0,0.3,0,0.5v3.1h-1L925.9,148.7L925.9,148.7z"/>
		<path class="st6" d="M932.3,151.3c0.5,0.3,1.2,0.5,1.9,0.5c1.1,0,1.7-0.6,1.7-1.4s-0.4-1.2-1.5-1.6c-1.3-0.5-2.1-1.2-2.1-2.3
			c0-1.3,1-2.2,2.6-2.2c0.8,0,1.4,0.2,1.8,0.4l-0.3,0.9c-0.3-0.1-0.8-0.4-1.5-0.4c-1.1,0-1.5,0.7-1.5,1.2c0,0.8,0.5,1.1,1.6,1.6
			c1.4,0.5,2.1,1.2,2.1,2.4c0,1.2-0.9,2.3-2.8,2.3c-0.8,0-1.6-0.2-2.1-0.5L932.3,151.3z"/>
		<path class="st6" d="M939.5,145.2c0,0.4-0.3,0.6-0.7,0.6s-0.6-0.3-0.6-0.6c0-0.4,0.3-0.7,0.7-0.7
			C939.2,144.6,939.5,144.8,939.5,145.2z M938.3,152.7v-5.8h1.1v5.8H938.3z"/>
		<path class="st6" d="M946.1,144.1v7c0,0.5,0,1.1,0,1.5h-0.9v-1l0,0c-0.3,0.6-1,1.1-2,1.1c-1.4,0-2.5-1.2-2.5-3
			c0-1.9,1.2-3.1,2.6-3.1c0.9,0,1.5,0.4,1.8,0.9l0,0V144h1L946.1,144.1L946.1,144.1z M945.1,149.2c0-0.1,0-0.3,0-0.4
			c-0.2-0.7-0.7-1.2-1.5-1.2c-1.1,0-1.7,1-1.7,2.2s0.6,2.1,1.7,2.1c0.7,0,1.4-0.5,1.5-1.3c0-0.1,0-0.3,0-0.5V149.2z"/>
		<path class="st6" d="M948.5,150c0,1.4,0.9,2,2,2c0.8,0,1.2-0.1,1.6-0.3l0.2,0.8c-0.4,0.2-1,0.4-1.9,0.4c-1.8,0-2.9-1.2-2.9-2.9
			c0-1.7,1-3.1,2.7-3.1c1.9,0,2.4,1.7,2.4,2.7c0,0.2,0,0.4,0,0.5L948.5,150L948.5,150L948.5,150z M951.6,149.2
			c0-0.7-0.3-1.7-1.5-1.7c-1.1,0-1.5,1-1.6,1.7H951.6z"/>
	</g>
	<g>
		<path class="st6" d="M958.2,233.2c0.5-0.1,1.2-0.2,2-0.2c1,0,1.8,0.2,2.3,0.7c0.4,0.4,0.7,1,0.7,1.7s-0.2,1.3-0.6,1.7
			c-0.6,0.6-1.5,0.9-2.5,0.9c-0.3,0-0.6,0-0.8-0.1v3.2h-1L958.2,233.2L958.2,233.2L958.2,233.2z M959.3,237.1
			c0.2,0.1,0.5,0.1,0.9,0.1c1.3,0,2-0.6,2-1.7s-0.8-1.6-1.9-1.6c-0.5,0-0.8,0-1,0.1V237.1z"/>
		<path class="st6" d="M967.5,241.2l-0.1-0.7l0,0c-0.3,0.5-0.9,0.9-1.8,0.9c-1.2,0-1.8-0.8-1.8-1.7c0-1.4,1.2-2.2,3.5-2.2v-0.1
			c0-0.5-0.1-1.3-1.3-1.3c-0.5,0-1.1,0.2-1.5,0.4l-0.2-0.7c0.5-0.3,1.2-0.5,1.9-0.5c1.8,0,2.2,1.2,2.2,2.4v2.2c0,0.5,0,1,0.1,1.4
			L967.5,241.2L967.5,241.2z M967.3,238.3c-1.2,0-2.5,0.2-2.5,1.3c0,0.7,0.5,1,1,1c0.8,0,1.2-0.5,1.4-1c0-0.1,0.1-0.2,0.1-0.3V238.3
			z"/>
		<path class="st6" d="M970,237c0-0.6,0-1.1,0-1.6h0.9l0.1,1l0,0c0.3-0.6,1-1.1,1.9-1.1c0.8,0,2.1,0.5,2.1,2.5v3.5h-1.1V238
			c0-0.9-0.3-1.7-1.3-1.7c-0.7,0-1.2,0.5-1.4,1.1c0,0.1-0.1,0.3-0.1,0.5v3.5H970L970,237L970,237z"/>
		<path class="st6" d="M977.3,238.5c0,1.4,0.9,2,2,2c0.8,0,1.2-0.1,1.6-0.3l0.2,0.8c-0.4,0.2-1,0.4-1.9,0.4c-1.8,0-2.9-1.2-2.9-2.9
			c0-1.7,1-3.1,2.7-3.1c1.9,0,2.4,1.7,2.4,2.7c0,0.2,0,0.4,0,0.5L977.3,238.5L977.3,238.5L977.3,238.5z M980.4,237.8
			c0-0.7-0.3-1.7-1.5-1.7c-1.1,0-1.5,1-1.6,1.7H980.4z"/>
		<path class="st6" d="M982.7,232.7h1.1v8.5h-1.1V232.7z"/>
		<path class="st6" d="M989.2,233.1v4.8c0,1.8,0.8,2.6,1.9,2.6c1.2,0,2-0.8,2-2.6v-4.8h1.1v4.7c0,2.5-1.3,3.5-3.1,3.5
			c-1.7,0-2.9-0.9-2.9-3.5v-4.7H989.2z"/>
		<path class="st6" d="M995.8,237.3c0-0.7,0-1.3,0-1.9h0.9v1l0,0c0.4-0.7,1.1-1.1,2.1-1.1c1.4,0,2.5,1.2,2.5,3
			c0,2.1-1.3,3.1-2.6,3.1c-0.8,0-1.4-0.3-1.8-0.9l0,0v3.2h-1L995.8,237.3L995.8,237.3L995.8,237.3z M996.9,238.8c0,0.2,0,0.3,0,0.4
			c0.2,0.7,0.8,1.2,1.6,1.2c1.1,0,1.8-0.9,1.8-2.2c0-1.2-0.6-2.2-1.7-2.2c-0.7,0-1.4,0.5-1.6,1.3c0,0.1-0.1,0.3-0.1,0.4V238.8
			L996.9,238.8z"/>
	</g>
	<path class="st7" d="M784.1,157c2.1,0,3.8,1.7,3.8,3.8s-1.7,3.8-3.8,3.8s-3.8-1.7-3.8-3.8S781.9,157,784.1,157L784.1,157z"/>
	<path class="st7" d="M784.1,355.5c2.1,0,3.8,1.7,3.8,3.8s-1.7,3.8-3.8,3.8s-3.8-1.7-3.8-3.8C780.2,357.2,781.9,355.5,784.1,355.5
		L784.1,355.5z"/>
	<circle class="st7" cx="451.1" cy="187.6" r="6.1"/>
	<circle class="st7" cx="448.3" cy="230.1" r="4.3"/>
	<circle class="st7" cx="451.1" cy="357.7" r="6.1"/>
	<circle class="st7" cx="944.3" cy="187.6" r="6.1"/>
	<circle class="st7" cx="944.4" cy="357.7" r="6.1"/>
	<circle class="st7" cx="947.2" cy="315.1" r="4.3"/>
	<circle class="st7" cx="731.8" cy="167.7" r="6.1"/>
	<circle class="st7" cx="663.7" cy="377.5" r="6.1"/>
	<g id="LWPOLYLINE_2_">
		<path class="st7" d="M487.6,312.9h31.2c1.6,0,2.8-1.3,2.8-2.8v-82.2c0-1.6-1.3-2.8-2.8-2.8h-31.2c-1.6,0-2.8,1.3-2.8,2.8v82.2
			C484.7,311.5,486,312.9,487.6,312.9z"/>
	</g>
	<g id="LWPOLYLINE_1_">
		<path class="st7" d="M766.2,238c0-1.7-1.3-3-2.8-3H701c-1.6,0-2.8,1.4-2.8,3v41.9c0,1.7,1.3,3,2.8,3h62.4c1.6,0,2.8-1.4,2.8-3V238
			z"/>
	</g>
	<path class="st7" d="M920.1,157c2.1,0,3.8,1.7,3.8,3.8s-1.7,3.8-3.8,3.8s-3.8-1.7-3.8-3.8S917.9,157,920.1,157L920.1,157z"/>
	<path class="st7" d="M920.1,355.2c2.1,0,3.8,1.7,3.8,3.8s-1.7,3.8-3.8,3.8s-3.8-1.7-3.8-3.8C916.2,356.9,917.9,355.2,920.1,355.2
		L920.1,355.2z"/>
	<line class="st4" x1="920.1" y1="164.6" x2="920.1" y2="355.2"/>
	<line class="st4" x1="787.9" y1="359.3" x2="916.3" y2="359.3"/>
	<line class="st4" x1="787.9" y1="160.8" x2="916.3" y2="160.8"/>
	<path class="st8" d="M380.7,146.1c2.7,0,4.8,2.2,4.8,4.8c0,2.7-2.2,4.8-4.8,4.8c-2.7,0-4.8-2.2-4.8-4.8S378,146.1,380.7,146.1z"/>
	<path class="st8" d="M389.2,387.2c2.7,0,4.8,2.2,4.8,4.8c0,2.7-2.2,4.8-4.8,4.8c-2.7,0-4.8-2.2-4.8-4.8S386.5,387.2,389.2,387.2z"
		/>
	<path class="st8" d="M1005.9,387.1c2.7,0,4.8,2.2,4.8,4.8c0,2.7-2.2,4.8-4.8,4.8c-2.7,0-4.8-2.2-4.8-4.8S1003.2,387.1,1005.9,387.1
		z"/>
	<path class="st8" d="M1013.6,146.1c2.7,0,4.8,2.2,4.8,4.8c0,2.7-2.2,4.8-4.8,4.8c-2.7,0-4.8-2.2-4.8-4.8S1010.9,146.1,1013.6,146.1
		z"/>
</g>
<g id="cad">
	<line class="st9" x1="425.9" y1="408.4" x2="425.9" y2="136.9"/>
	<line class="st9" x1="432.1" y1="145.4" x2="432.1" y2="195.5"/>
	<line class="st9" x1="432.1" y1="200" x2="432.1" y2="207.7"/>
	<line class="st9" x1="432.1" y1="212.2" x2="432.1" y2="264.4"/>
	<line class="st9" x1="432.1" y1="268.9" x2="432.1" y2="276.6"/>
	<line class="st9" x1="432.1" y1="281.1" x2="432.1" y2="333.2"/>
	<line class="st9" x1="432.1" y1="337.8" x2="432.1" y2="345.4"/>
	<line class="st9" x1="432.1" y1="349.9" x2="432.1" y2="399.5"/>
	<line class="st9" x1="910.9" y1="143.1" x2="931.7" y2="163.9"/>
	<line class="st9" x1="942.6" y1="174.7" x2="963.3" y2="195.5"/>
	<line class="st9" x1="448.3" y1="229.7" x2="448.3" y2="226.6"/>
	<line class="st9" x1="448.3" y1="230.6" x2="448.3" y2="233.7"/>
	<line class="st9" x1="432.1" y1="195.5" x2="452.8" y2="174.7"/>
	<line class="st9" x1="463.6" y1="164.7" x2="485.2" y2="143.1"/>
	<line class="st9" x1="963.3" y1="200" x2="934.7" y2="171.4"/>
	<line class="st9" x1="932.2" y1="168.9" x2="926.2" y2="162.9"/>
	<line class="st9" x1="920.9" y1="157.5" x2="906.4" y2="143.1"/>
	<line class="st9" x1="460.7" y1="374.1" x2="460.7" y2="309.1"/>
	<line class="st9" x1="460.7" y1="305.2" x2="460.7" y2="240.2"/>
	<line class="st9" x1="460.7" y1="236.3" x2="460.7" y2="171.4"/>
	<line class="st9" x1="465.3" y1="371.9" x2="465.3" y2="173.4"/>
	<line class="st9" x1="464.2" y1="167.9" x2="463.2" y2="168.9"/>
	<line class="st9" x1="460.7" y1="171.4" x2="432.1" y2="200"/>
	<line class="st9" x1="489.7" y1="143.1" x2="475.8" y2="157"/>
	<line class="st9" x1="468.7" y1="164.1" x2="465" y2="167.9"/>
	<line class="st9" x1="842.9" y1="143.1" x2="868.2" y2="168.4"/>
	<line class="st9" x1="937.2" y1="238.3" x2="963.3" y2="264.4"/>
	<line class="st9" x1="864.2" y1="168.9" x2="838.4" y2="143.1"/>
	<line class="st9" x1="963.3" y1="268.9" x2="934.7" y2="240.2"/>
	<line class="st9" x1="528" y1="168.4" x2="553.2" y2="143.1"/>
	<line class="st9" x1="432.1" y1="264.4" x2="458.2" y2="238.3"/>
	<line class="st9" x1="557.8" y1="143.1" x2="532" y2="168.9"/>
	<line class="st9" x1="460.7" y1="240.2" x2="432.1" y2="268.9"/>
	<line class="st9" x1="774.9" y1="143.1" x2="800.1" y2="168.4"/>
	<line class="st9" x1="937.2" y1="307.2" x2="943.9" y2="313.8"/>
	<line class="st9" x1="948.5" y1="318.5" x2="963.3" y2="333.2"/>
	<line class="st9" x1="796.2" y1="168.9" x2="770.4" y2="143.1"/>
	<line class="st9" x1="963.3" y1="337.8" x2="934.7" y2="309.1"/>
	<line class="st9" x1="596" y1="168.4" x2="621.3" y2="143.1"/>
	<line class="st9" x1="432.1" y1="333.2" x2="458.2" y2="307.2"/>
	<line class="st9" x1="625.8" y1="143.1" x2="600" y2="168.9"/>
	<line class="st9" x1="460.7" y1="309.1" x2="432.1" y2="337.8"/>
	<line class="st9" x1="425.9" y1="136.9" x2="969.6" y2="136.9"/>
	<line class="st9" x1="960.1" y1="143.1" x2="910.9" y2="143.1"/>
	<line class="st9" x1="906.4" y1="143.1" x2="897.9" y2="143.1"/>
	<line class="st9" x1="893.4" y1="143.1" x2="842.9" y2="143.1"/>
	<line class="st9" x1="838.4" y1="143.1" x2="829.9" y2="143.1"/>
	<line class="st9" x1="825.4" y1="143.1" x2="774.9" y2="143.1"/>
	<line class="st9" x1="770.4" y1="143.1" x2="761.8" y2="143.1"/>
	<line class="st9" x1="757.3" y1="143.1" x2="706.9" y2="143.1"/>
	<line class="st9" x1="702.3" y1="143.1" x2="693.8" y2="143.1"/>
	<line class="st9" x1="689.3" y1="143.1" x2="638.8" y2="143.1"/>
	<line class="st9" x1="634.3" y1="143.1" x2="625.8" y2="143.1"/>
	<line class="st9" x1="621.3" y1="143.1" x2="570.8" y2="143.1"/>
	<line class="st9" x1="566.3" y1="143.1" x2="557.8" y2="143.1"/>
	<line class="st9" x1="553.2" y1="143.1" x2="502.8" y2="143.1"/>
	<line class="st9" x1="498.2" y1="143.1" x2="489.7" y2="143.1"/>
	<line class="st9" x1="485.2" y1="143.1" x2="435.3" y2="143.1"/>
	<line class="st9" x1="464.2" y1="167.9" x2="465" y2="167.9"/>
	<line class="st9" x1="932.2" y1="168.9" x2="927.3" y2="168.9"/>
	<line class="st9" x1="904.7" y1="168.9" x2="872.1" y2="168.9"/>
	<line class="st9" x1="864.2" y1="168.9" x2="804.1" y2="168.9"/>
	<line class="st9" x1="796.2" y1="168.9" x2="743" y2="168.9"/>
	<line class="st9" x1="720.4" y1="168.9" x2="708.5" y2="168.9"/>
	<line class="st9" x1="686.9" y1="168.9" x2="668" y2="168.9"/>
	<line class="st9" x1="660.1" y1="168.9" x2="600" y2="168.9"/>
	<line class="st9" x1="592.1" y1="168.9" x2="532" y2="168.9"/>
	<line class="st9" x1="524" y1="168.9" x2="490.7" y2="168.9"/>
	<line class="st9" x1="468.2" y1="168.9" x2="463.2" y2="168.9"/>
	<line class="st9" x1="465.3" y1="173.4" x2="469.6" y2="173.4"/>
	<line class="st9" x1="489.3" y1="173.4" x2="691.9" y2="173.4"/>
	<line class="st9" x1="703.6" y1="173.4" x2="721.9" y2="173.4"/>
	<line class="st9" x1="741.5" y1="173.4" x2="906.2" y2="173.4"/>
	<line class="st9" x1="925.8" y1="173.4" x2="930.2" y2="173.4"/>
	<line class="st9" x1="954.6" y1="390.7" x2="963.3" y2="399.4"/>
	<line class="st9" x1="706.9" y1="143.1" x2="723.6" y2="159.9"/>
	<line class="st9" x1="721.7" y1="162.5" x2="702.3" y2="143.1"/>
	<line class="st9" x1="960.5" y1="402.2" x2="951.9" y2="393.5"/>
	<line class="st9" x1="432.1" y1="399.5" x2="440.8" y2="390.8"/>
	<line class="st9" x1="443.6" y1="393.5" x2="434.9" y2="402.2"/>
	<line class="st9" x1="664.1" y1="168.4" x2="689.3" y2="143.1"/>
	<line class="st9" x1="693.8" y1="143.1" x2="668" y2="168.9"/>
	<line class="st9" x1="872.5" y1="376.4" x2="898.3" y2="402.2"/>
	<line class="st9" x1="638.8" y1="143.1" x2="664.1" y2="168.4"/>
	<line class="st9" x1="893.8" y1="402.2" x2="868.2" y2="376.5"/>
	<line class="st9" x1="660.1" y1="168.9" x2="634.3" y2="143.1"/>
	<line class="st9" x1="497.8" y1="402.2" x2="523.6" y2="376.4"/>
	<line class="st9" x1="740.2" y1="160.2" x2="757.3" y2="143.1"/>
	<line class="st9" x1="528" y1="376.5" x2="502.3" y2="402.2"/>
	<line class="st9" x1="761.8" y1="143.1" x2="742" y2="163"/>
	<line class="st9" x1="804.5" y1="376.4" x2="830.3" y2="402.2"/>
	<line class="st9" x1="570.8" y1="143.1" x2="596" y2="168.4"/>
	<line class="st9" x1="825.8" y1="402.2" x2="800.1" y2="376.5"/>
	<line class="st9" x1="592.1" y1="168.9" x2="566.3" y2="143.1"/>
	<line class="st9" x1="565.9" y1="402.2" x2="591.6" y2="376.4"/>
	<line class="st9" x1="800.1" y1="168.4" x2="825.4" y2="143.1"/>
	<line class="st9" x1="596" y1="376.5" x2="570.4" y2="402.2"/>
	<line class="st9" x1="829.9" y1="143.1" x2="804.1" y2="168.9"/>
	<line class="st9" x1="736.5" y1="376.4" x2="762.3" y2="402.2"/>
	<line class="st9" x1="502.8" y1="143.1" x2="528" y2="168.4"/>
	<line class="st9" x1="757.8" y1="402.2" x2="732.1" y2="376.5"/>
	<line class="st9" x1="524" y1="168.9" x2="498.2" y2="143.1"/>
	<line class="st9" x1="633.9" y1="402.2" x2="653.5" y2="382.6"/>
	<line class="st9" x1="868.2" y1="168.4" x2="893.4" y2="143.1"/>
	<line class="st9" x1="655.4" y1="385.2" x2="638.4" y2="402.2"/>
	<line class="st9" x1="897.9" y1="143.1" x2="872.1" y2="168.9"/>
	<line class="st9" x1="930.2" y1="371.9" x2="925.8" y2="371.9"/>
	<line class="st9" x1="906.2" y1="371.9" x2="703.6" y2="371.9"/>
	<line class="st9" x1="691.9" y1="371.9" x2="673.5" y2="371.9"/>
	<line class="st9" x1="653.9" y1="371.9" x2="489.3" y2="371.9"/>
	<line class="st9" x1="469.6" y1="371.9" x2="465.3" y2="371.9"/>
	<line class="st9" x1="464.4" y1="376.4" x2="468.2" y2="376.4"/>
	<line class="st9" x1="490.7" y1="376.4" x2="523.6" y2="376.4"/>
	<line class="st9" x1="532.4" y1="376.4" x2="591.6" y2="376.4"/>
	<line class="st9" x1="600.4" y1="376.4" x2="652.4" y2="376.4"/>
	<line class="st9" x1="675" y1="376.4" x2="686.9" y2="376.4"/>
	<line class="st9" x1="708.5" y1="376.4" x2="727.7" y2="376.4"/>
	<line class="st9" x1="736.5" y1="376.4" x2="795.7" y2="376.4"/>
	<line class="st9" x1="804.5" y1="376.4" x2="863.8" y2="376.4"/>
	<line class="st9" x1="872.5" y1="376.4" x2="904.7" y2="376.4"/>
	<line class="st9" x1="927.3" y1="376.4" x2="931.8" y2="376.4"/>
	<line class="st9" x1="674.1" y1="382.1" x2="694.2" y2="402.2"/>
	<line class="st9" x1="689.7" y1="402.2" x2="672.4" y2="384.8"/>
	<line class="st9" x1="435.3" y1="143.1" x2="443.8" y2="151.6"/>
	<line class="st9" x1="441" y1="154.3" x2="432.1" y2="145.4"/>
	<line class="st9" x1="951.6" y1="151.6" x2="960.1" y2="143.1"/>
	<line class="st9" x1="701.9" y1="402.2" x2="727.7" y2="376.4"/>
	<line class="st9" x1="732.1" y1="376.5" x2="706.4" y2="402.2"/>
	<line class="st9" x1="963.3" y1="145.5" x2="954.4" y2="154.3"/>
	<line class="st9" x1="434.9" y1="402.2" x2="485.6" y2="402.2"/>
	<line class="st9" x1="490.1" y1="402.2" x2="497.8" y2="402.2"/>
	<line class="st9" x1="502.3" y1="402.2" x2="553.7" y2="402.2"/>
	<line class="st9" x1="558.2" y1="402.2" x2="565.9" y2="402.2"/>
	<line class="st9" x1="570.4" y1="402.2" x2="621.7" y2="402.2"/>
	<line class="st9" x1="626.2" y1="402.2" x2="633.9" y2="402.2"/>
	<line class="st9" x1="638.4" y1="402.2" x2="689.7" y2="402.2"/>
	<line class="st9" x1="694.2" y1="402.2" x2="701.9" y2="402.2"/>
	<line class="st9" x1="706.4" y1="402.2" x2="757.8" y2="402.2"/>
	<line class="st9" x1="762.3" y1="402.2" x2="769.9" y2="402.2"/>
	<line class="st9" x1="774.5" y1="402.2" x2="825.8" y2="402.2"/>
	<line class="st9" x1="830.3" y1="402.2" x2="838" y2="402.2"/>
	<line class="st9" x1="842.5" y1="402.2" x2="893.8" y2="402.2"/>
	<line class="st9" x1="898.3" y1="402.2" x2="906" y2="402.2"/>
	<line class="st9" x1="910.5" y1="402.2" x2="960.5" y2="402.2"/>
	<line class="st9" x1="969.6" y1="408.4" x2="425.9" y2="408.4"/>
	<line class="st9" x1="432.1" y1="207.7" x2="460.7" y2="236.3"/>
	<line class="st9" x1="600.4" y1="376.4" x2="626.2" y2="402.2"/>
	<line class="st9" x1="934.7" y1="236.3" x2="963.3" y2="207.7"/>
	<line class="st9" x1="769.9" y1="402.2" x2="795.7" y2="376.4"/>
	<line class="st9" x1="458.2" y1="238.3" x2="451.5" y2="231.6"/>
	<line class="st9" x1="446.8" y1="226.9" x2="432.1" y2="212.2"/>
	<line class="st9" x1="621.7" y1="402.2" x2="596" y2="376.5"/>
	<line class="st9" x1="963.3" y1="212.2" x2="937.2" y2="238.3"/>
	<line class="st9" x1="800.1" y1="376.5" x2="774.5" y2="402.2"/>
	<line class="st9" x1="532.4" y1="376.4" x2="558.2" y2="402.2"/>
	<line class="st9" x1="432.1" y1="276.6" x2="460.7" y2="305.2"/>
	<line class="st9" x1="553.7" y1="402.2" x2="528" y2="376.5"/>
	<line class="st9" x1="458.2" y1="307.2" x2="432.1" y2="281.1"/>
	<line class="st9" x1="934.7" y1="305.2" x2="963.3" y2="276.6"/>
	<line class="st9" x1="838" y1="402.2" x2="863.8" y2="376.4"/>
	<line class="st9" x1="963.3" y1="281.1" x2="937.2" y2="307.2"/>
	<line class="st9" x1="868.2" y1="376.5" x2="842.5" y2="402.2"/>
	<line class="st9" x1="464.4" y1="376.4" x2="468.5" y2="380.6"/>
	<line class="st9" x1="476.4" y1="388.5" x2="490.1" y2="402.2"/>
	<line class="st9" x1="432.1" y1="345.4" x2="460.7" y2="374.1"/>
	<line class="st9" x1="485.6" y1="402.2" x2="463.4" y2="380"/>
	<line class="st9" x1="452.7" y1="370.6" x2="432.1" y2="349.9"/>
	<line class="st9" x1="930.2" y1="173.4" x2="930.2" y2="371.9"/>
	<line class="st9" x1="934.7" y1="374.1" x2="934.7" y2="309.1"/>
	<line class="st9" x1="934.7" y1="305.2" x2="934.7" y2="240.2"/>
	<line class="st9" x1="934.7" y1="236.3" x2="934.7" y2="171.4"/>
	<line class="st9" x1="906" y1="402.2" x2="920.1" y2="388.1"/>
	<line class="st9" x1="926.5" y1="381.7" x2="931.8" y2="376.4"/>
	<line class="st9" x1="934.7" y1="374.1" x2="963.3" y2="345.4"/>
	<line class="st9" x1="931.8" y1="381" x2="910.5" y2="402.2"/>
	<line class="st9" x1="963.3" y1="349.9" x2="942.7" y2="370.6"/>
	<line class="st9" x1="947.2" y1="314.8" x2="947.2" y2="311.6"/>
	<line class="st9" x1="947.2" y1="315.6" x2="947.2" y2="318.7"/>
	<line class="st9" x1="963.3" y1="399.4" x2="963.3" y2="349.9"/>
	<line class="st9" x1="963.3" y1="345.4" x2="963.3" y2="337.8"/>
	<line class="st9" x1="963.3" y1="333.2" x2="963.3" y2="281.1"/>
	<line class="st9" x1="963.3" y1="276.6" x2="963.3" y2="268.9"/>
	<line class="st9" x1="963.3" y1="264.4" x2="963.3" y2="212.2"/>
	<line class="st9" x1="963.3" y1="207.7" x2="963.3" y2="200"/>
	<line class="st9" x1="963.3" y1="195.5" x2="963.3" y2="145.5"/>
	<line class="st9" x1="969.6" y1="136.9" x2="969.6" y2="408.4"/>
	<path class="st9" d="M463.6,164.7c1.5-6.9-2.9-13.7-9.8-15.1c-3.4-0.7-7,0-9.9,2"/>
	<path class="st9" d="M441,154.3c-4.3,5.6-3.3,13.6,2.3,17.9c2.7,2.1,6.2,3,9.5,2.5"/>
	<path class="st9" d="M490.7,168.9c0.6-6.2-3.9-11.8-10.1-12.4c-1.6-0.2-3.2,0-4.8,0.5"/>
	<path class="st9" d="M468.7,164.1c-0.5,1.5-0.7,3.2-0.5,4.8"/>
	<path class="st9" d="M469.6,173.4c3.1,5.4,10.1,7.3,15.5,4.2c1.7-1,3.2-2.4,4.2-4.2"/>
	<path class="st9" d="M448.3,226.6c2,0,3.5,1.6,3.5,3.5s-1.6,3.5-3.5,3.5c-2,0-3.5-1.6-3.5-3.5S446.3,226.6,448.3,226.6L448.3,226.6
		z"/>
	<path class="st9" d="M448.3,229.7c0.2,0,0.4,0.2,0.4,0.4s-0.2,0.4-0.4,0.4c-0.2,0-0.4-0.2-0.4-0.4S448,229.7,448.3,229.7
		L448.3,229.7z"/>
	<path class="st9" d="M691.9,173.4c3.7,1.9,8,1.9,11.7,0"/>
	<path class="st9" d="M708.5,168.9c3.8-6,2-13.8-4-17.6s-13.8-2-17.6,4c-2.6,4.2-2.6,9.4,0,13.6"/>
	<path class="st9" d="M951.6,151.6c-5.8-4-13.7-2.6-17.8,3.2c-1.8,2.6-2.6,5.9-2.2,9"/>
	<path class="st9" d="M942.6,174.7c7,1,13.4-3.9,14.4-10.9c0.5-3.4-0.4-6.8-2.5-9.5"/>
	<path class="st9" d="M927.3,168.9c0.2-2.1-0.2-4.1-1.1-6"/>
	<path class="st9" d="M743,168.9c0.2-2-0.1-4.1-1-5.9"/>
	<path class="st9" d="M920.9,157.5c-5.7-2.7-12.4-0.3-15.1,5.3c-0.9,1.9-1.3,4-1.1,6"/>
	<path class="st9" d="M740.2,160.2c-4.2-4.7-11.3-5.1-16-0.9c-0.2,0.2-0.4,0.4-0.6,0.6"/>
	<path class="st9" d="M906.2,173.4c3.1,5.4,10.1,7.3,15.5,4.2c1.7-1,3.2-2.4,4.2-4.2"/>
	<path class="st9" d="M721.9,173.4c3.1,5.4,10.1,7.3,15.5,4.2c1.7-1,3.2-2.4,4.2-4.2"/>
	<path class="st9" d="M721.7,162.5c-1,2-1.5,4.2-1.3,6.4"/>
	<path class="st9" d="M731.7,160.7c3.9,0,7.1,3.2,7.1,7.1c0,3.9-3.2,7.1-7.1,7.1s-7.1-3.2-7.1-7.1
		C724.6,163.9,727.8,160.7,731.7,160.7L731.7,160.7z"/>
	<path class="st9" d="M452.7,370.6c-7-0.9-13.4,4-14.3,11c-0.4,3.2,0.4,6.5,2.4,9.2"/>
	<path class="st9" d="M443.6,393.5c5.7,4.2,13.7,2.9,17.8-2.8c2.3-3.1,3-7,2.1-10.7"/>
	<path class="st9" d="M468.2,376.4c-0.1,1.4,0,2.8,0.4,4.2"/>
	<path class="st9" d="M476.4,388.5c6,1.7,12.3-1.9,14-7.9c0.4-1.4,0.5-2.8,0.4-4.2"/>
	<path class="st9" d="M652.4,376.4c-0.2,2.1,0.2,4.2,1.1,6.2"/>
	<path class="st9" d="M655.4,385.2c4.2,4.6,11.4,4.9,16,0.6c0.3-0.3,0.7-0.7,1-1"/>
	<path class="st9" d="M489.3,371.9c-3.1-5.4-10.1-7.3-15.5-4.2c-1.7,1-3.2,2.4-4.2,4.2"/>
	<path class="st9" d="M673.5,371.9c-3.1-5.4-10.1-7.3-15.5-4.2c-1.7,1-3.2,2.4-4.2,4.2"/>
	<path class="st9" d="M674.1,382.1c0.8-1.8,1.1-3.7,0.9-5.7"/>
	<path class="st9" d="M663.7,370.5c3.9,0,7.1,3.2,7.1,7.1s-3.2,7.1-7.1,7.1s-7.1-3.2-7.1-7.1S659.8,370.5,663.7,370.5L663.7,370.5z"
		/>
	<path class="st9" d="M703.6,371.9c-3.7-1.9-8-1.9-11.7,0"/>
	<path class="st9" d="M686.9,376.4c-3.8,6-2,13.8,4,17.6c6,3.8,13.8,2,17.6-4c2.6-4.2,2.6-9.4,0-13.6"/>
	<path class="st9" d="M931.8,381c-1.2,6.9,3.4,13.6,10.3,14.8c3.4,0.6,7-0.2,9.8-2.3"/>
	<path class="st9" d="M954.6,390.7c4.2-5.7,2.9-13.7-2.8-17.8c-2.6-1.9-5.9-2.8-9.1-2.4"/>
	<path class="st9" d="M904.7,376.4c-0.6,6.2,3.9,11.8,10.1,12.4c1.8,0.2,3.6-0.1,5.3-0.7"/>
	<path class="st9" d="M926.5,381.7c0.7-1.7,0.9-3.5,0.7-5.3"/>
	<path class="st9" d="M925.8,371.9c-3.1-5.4-10.1-7.3-15.5-4.2c-1.7,1-3.2,2.4-4.2,4.2"/>
	<path class="st9" d="M947.2,311.6c2,0,3.5,1.6,3.5,3.5c0,2-1.6,3.5-3.5,3.5s-3.5-1.6-3.5-3.5C943.6,313.2,945.2,311.6,947.2,311.6
		L947.2,311.6z"/>
	<path class="st9" d="M947.2,314.8c0.2,0,0.4,0.2,0.4,0.4c0,0.2-0.2,0.4-0.4,0.4s-0.4-0.2-0.4-0.4
		C946.8,315,946.9,314.8,947.2,314.8L947.2,314.8z"/>
	<path class="st9" d="M944.3,176.3c6.3,0,11.3,5.1,11.3,11.3s-5.1,11.3-11.3,11.3s-11.3-5.1-11.3-11.3S938.1,176.3,944.3,176.3
		L944.3,176.3z"/>
	<path class="st9" d="M944.3,346.4c6.3,0,11.3,5.1,11.3,11.3c0,6.3-5.1,11.3-11.3,11.3s-11.3-5-11.3-11.3
		C933,351.4,938.1,346.4,944.3,346.4L944.3,346.4z"/>
	<path class="st9" d="M451.1,346.4c6.3,0,11.3,5.1,11.3,11.3c0,6.3-5.1,11.3-11.3,11.3c-6.3,0-11.3-5.1-11.3-11.3
		C439.8,351.4,444.8,346.4,451.1,346.4L451.1,346.4z"/>
	<path class="st9" d="M451.1,176.3c6.3,0,11.3,5.1,11.3,11.3s-5,11.4-11.3,11.4c-6.3,0-11.3-5.1-11.3-11.3S444.8,176.3,451.1,176.3
		L451.1,176.3z"/>
	<g id="ARC_6_">
		<path class="st10" d="M659.4,377.5c0,2.3,1.9,4.3,4.3,4.3c2.4,0,4.3-1.9,4.3-4.3s-1.9-4.3-4.3-4.3"/>
	</g>
	<g id="LINE_107_">
		<line class="st11" x1="663.7" y1="372.9" x2="663.7" y2="382.2"/>
	</g>
	<g id="LINE_106_">
		<line class="st11" x1="659" y1="377.5" x2="668.4" y2="377.5"/>
	</g>
	<g id="CIRCLE_6_">
		<path class="st12" d="M663.7,374c2,0,3.5,1.6,3.5,3.5s-1.6,3.5-3.5,3.5s-3.5-1.6-3.5-3.5S661.7,374,663.7,374L663.7,374z"/>
	</g>
	<g id="TEXT_12_">
		<text transform="matrix(-1.346898e-10 1 -1 -1.346898e-10 661.5684 376.0961)" class="st13 st14 st15">M3</text>
	</g>
	<g id="ARC_5_">
		<path class="st10" d="M727.5,167.8c0,2.3,1.9,4.3,4.3,4.3s4.3-1.9,4.3-4.3s-1.9-4.3-4.3-4.3"/>
	</g>
	<g id="LINE_105_">
		<line class="st11" x1="731.7" y1="163.1" x2="731.7" y2="172.5"/>
	</g>
	<g id="LINE_104_">
		<line class="st11" x1="727" y1="167.8" x2="736.4" y2="167.8"/>
	</g>
	<g id="CIRCLE_5_">
		<path class="st12" d="M731.7,164.2c2,0,3.5,1.6,3.5,3.5c0,2-1.6,3.5-3.5,3.5s-3.5-1.6-3.5-3.5
			C728.2,165.8,729.8,164.2,731.7,164.2L731.7,164.2z"/>
	</g>
	<g id="TEXT_11_">
		<text transform="matrix(-1.346898e-10 1 -1 -1.346898e-10 729.5996 166.3324)" class="st13 st14 st15">M3</text>
	</g>
	<g id="ARC_4_">
		<path class="st10" d="M446.8,187.6c0,2.3,1.9,4.3,4.3,4.3s4.3-1.9,4.3-4.3c0-2.4-1.9-4.3-4.3-4.3"/>
	</g>
	<g id="LINE_101_">
		<line class="st11" x1="451.1" y1="182.9" x2="451.1" y2="192.3"/>
	</g>
	<g id="LINE_100_">
		<line class="st11" x1="446.4" y1="187.6" x2="455.8" y2="187.6"/>
	</g>
	<g id="CIRCLE_4_">
		<path class="st12" d="M451.1,184.1c2,0,3.5,1.6,3.5,3.5c0,1.9-1.6,3.5-3.5,3.5s-3.5-1.6-3.5-3.5
			C447.6,185.7,449.1,184.1,451.1,184.1L451.1,184.1z"/>
	</g>
	<g id="TEXT_10_">
		<text transform="matrix(-1.346898e-10 1 -1 -1.346898e-10 448.9707 186.1752)" class="st13 st14 st15">M3</text>
	</g>
	<g id="ARC_3_">
		<path class="st10" d="M446.8,357.7c0,2.3,1.9,4.3,4.3,4.3s4.3-1.9,4.3-4.3s-1.9-4.3-4.3-4.3"/>
	</g>
	<g id="LINE_99_">
		<line class="st11" x1="451.1" y1="353" x2="451.1" y2="362.4"/>
	</g>
	<g id="LINE_98_">
		<line class="st11" x1="446.4" y1="357.7" x2="455.8" y2="357.7"/>
	</g>
	<g id="CIRCLE_3_">
		<path class="st12" d="M451.1,354.2c2,0,3.5,1.6,3.5,3.5s-1.6,3.5-3.5,3.5s-3.5-1.6-3.5-3.5S449.1,354.2,451.1,354.2L451.1,354.2z"
			/>
	</g>
	<g id="TEXT_9_">
		<text transform="matrix(-1.346898e-10 1 -1 -1.346898e-10 448.9707 356.2533)" class="st13 st14 st15">M3</text>
	</g>
	<g id="ARC_2_">
		<path class="st10" d="M940.1,187.6c0,2.3,1.9,4.3,4.3,4.3c2.3,0,4.3-1.9,4.3-4.3c0-2.4-1.9-4.3-4.3-4.3"/>
	</g>
	<g id="LINE_97_">
		<line class="st11" x1="944.3" y1="182.9" x2="944.3" y2="192.3"/>
	</g>
	<g id="LINE_96_">
		<line class="st11" x1="939.6" y1="187.6" x2="949" y2="187.6"/>
	</g>
	<g id="CIRCLE_2_">
		<path class="st12" d="M944.3,184.1c2,0,3.5,1.6,3.5,3.5c0,1.9-1.6,3.5-3.5,3.5s-3.5-1.6-3.5-3.5
			C940.8,185.7,942.4,184.1,944.3,184.1L944.3,184.1z"/>
	</g>
	<g id="TEXT_8_">
		<text transform="matrix(-1.346898e-10 1 -1 -1.346898e-10 942.1973 186.1752)" class="st13 st14 st15">M3</text>
	</g>
	<g id="ARC_1_">
		<path class="st10" d="M940.1,357.7c0,2.3,1.9,4.3,4.3,4.3s4.3-1.9,4.3-4.3s-1.9-4.3-4.3-4.3"/>
	</g>
	<g id="LINE_95_">
		<line class="st11" x1="944.3" y1="353" x2="944.3" y2="362.4"/>
	</g>
	<g id="LINE_94_">
		<line class="st11" x1="939.6" y1="357.7" x2="949" y2="357.7"/>
	</g>
	<g id="CIRCLE_1_">
		<path class="st12" d="M944.3,354.2c2,0,3.5,1.6,3.5,3.5s-1.6,3.5-3.5,3.5s-3.5-1.6-3.5-3.5S942.4,354.2,944.3,354.2L944.3,354.2z"
			/>
	</g>
	<g id="TEXT_1_">
		<text transform="matrix(-1.346898e-10 1 -1 -1.346898e-10 942.1973 356.2533)" class="st13 st14 st15">M3</text>
	</g>
	<g id="LINE_502_">
		<line class="st16" x1="945.7" y1="187.6" x2="957.4" y2="187.6"/>
	</g>
	<g id="LINE_503_">
		<line class="st16" x1="957.4" y1="187.6" x2="968.7" y2="187.4"/>
	</g>
	<g id="LINE_508_">
		<line class="st16" x1="944.3" y1="186.2" x2="944.3" y2="143.4"/>
	</g>
	<g id="LINE_509_">
		<line class="st16" x1="944.3" y1="143.4" x2="944.3" y2="132"/>
	</g>
	<g id="POINT_137_">
		<line class="st17" x1="947.2" y1="315.2" x2="947.2" y2="315.2"/>
	</g>
	<g id="POINT_136_">
		<line class="st17" x1="947.1" y1="329.7" x2="947.1" y2="329.7"/>
	</g>
	<g id="POINT_135_">
		<line class="st17" x1="697.7" y1="272.7" x2="697.7" y2="272.7"/>
	</g>
	<g id="POINT_134_">
		<line class="st17" x1="947.2" y1="315.2" x2="947.2" y2="315.2"/>
	</g>
	<g id="POINT_132_">
		<line class="st17" x1="697.7" y1="272.7" x2="697.7" y2="272.7"/>
	</g>
	<g id="POINT_131_">
		<line class="st17" x1="448.3" y1="230.1" x2="448.3" y2="230.1"/>
	</g>
	<g id="POINT_130_">
		<line class="st17" x1="448.2" y1="256.3" x2="448.2" y2="256.3"/>
	</g>
	<g id="POINT_129_">
		<line class="st17" x1="697.7" y1="272.7" x2="697.7" y2="272.7"/>
	</g>
	<g id="POINT_128_">
		<line class="st17" x1="448.3" y1="230.1" x2="448.3" y2="230.1"/>
	</g>
	<g id="POINT_127_">
		<line class="st17" x1="419.6" y1="230.2" x2="419.6" y2="230.2"/>
	</g>
	<g id="POINT_126_">
		<line class="st17" x1="697.7" y1="272.7" x2="697.7" y2="272.7"/>
	</g>
	<g id="POINT_125_">
		<line class="st17" x1="451.1" y1="383.2" x2="451.1" y2="383.2"/>
	</g>
	<g id="POINT_124_">
		<line class="st17" x1="416.1" y1="383.2" x2="416.1" y2="383.2"/>
	</g>
	<g id="POINT_123_">
		<line class="st17" x1="697.7" y1="272.7" x2="697.7" y2="272.7"/>
	</g>
	<g id="POINT_122_">
		<line class="st17" x1="451.1" y1="162.1" x2="451.1" y2="162.1"/>
	</g>
	<g id="POINT_121_">
		<line class="st17" x1="420.9" y1="162" x2="420.9" y2="162"/>
	</g>
	<g id="POINT_120_">
		<line class="st17" x1="697.7" y1="272.7" x2="697.7" y2="272.7"/>
	</g>
	<g id="POINT_119_">
		<line class="st17" x1="663.7" y1="377.5" x2="663.7" y2="377.5"/>
	</g>
	<g id="POINT_117_">
		<line class="st17" x1="697.7" y1="272.7" x2="697.7" y2="272.7"/>
	</g>
	<g id="POINT_116_">
		<line class="st17" x1="697.7" y1="162.1" x2="697.7" y2="162.1"/>
	</g>
	<g id="POINT_114_">
		<line class="st17" x1="697.7" y1="272.7" x2="697.7" y2="272.7"/>
	</g>
	<g id="POINT_113_">
		<line class="st17" x1="731.7" y1="167.8" x2="731.7" y2="167.8"/>
	</g>
	<g id="POINT_111_">
		<line class="st17" x1="697.7" y1="272.7" x2="697.7" y2="272.7"/>
	</g>
	<g id="POINT_110_">
		<line class="st17" x1="697.7" y1="162.1" x2="697.7" y2="162.1"/>
	</g>
	<g id="POINT_108_">
		<line class="st17" x1="697.7" y1="272.7" x2="697.7" y2="272.7"/>
	</g>
	<g id="POINT_77_">
		<line class="st17" x1="697.7" y1="383.2" x2="697.7" y2="383.2"/>
	</g>
	<g id="POINT_75_">
		<line class="st17" x1="697.7" y1="272.7" x2="697.7" y2="272.7"/>
	</g>
	<g id="POINT_74_">
		<line class="st17" x1="969.6" y1="136.9" x2="969.6" y2="136.9"/>
	</g>
	<g id="POINT_73_">
		<line class="st17" x1="969.6" y1="408.4" x2="969.6" y2="408.4"/>
	</g>
	<g id="POINT_38_">
		<line class="st17" x1="969.6" y1="408.4" x2="969.6" y2="408.4"/>
	</g>
	<g id="POINT_37_">
		<line class="st17" x1="425.9" y1="408.4" x2="425.9" y2="408.4"/>
	</g>
	<g id="POINT_35_">
		<line class="st17" x1="944.3" y1="187.6" x2="944.3" y2="187.6"/>
	</g>
	<g id="POINT_33_">
		<line class="st17" x1="697.7" y1="272.7" x2="697.7" y2="272.7"/>
	</g>
	<g id="POINT_32_">
		<line class="st17" x1="944.3" y1="357.7" x2="944.3" y2="357.7"/>
	</g>
	<g id="POINT_31_">
		<line class="st17" x1="978.5" y1="357.8" x2="978.5" y2="357.8"/>
	</g>
	<g id="POINT_30_">
		<line class="st17" x1="697.7" y1="272.7" x2="697.7" y2="272.7"/>
	</g>
	<g id="POINT_29_">
		<line class="st17" x1="944.3" y1="187.6" x2="944.3" y2="187.6"/>
	</g>
	<g id="POINT_27_">
		<line class="st17" x1="697.7" y1="272.7" x2="697.7" y2="272.7"/>
	</g>
	<g id="POINT_26_">
		<line class="st17" x1="944.3" y1="357.7" x2="944.3" y2="357.7"/>
	</g>
	<g id="POINT_24_">
		<line class="st17" x1="697.7" y1="272.7" x2="697.7" y2="272.7"/>
	</g>
	<g id="POINT_23_">
		<line class="st17" x1="451.1" y1="357.7" x2="451.1" y2="357.7"/>
	</g>
	<g id="POINT_21_">
		<line class="st17" x1="697.7" y1="272.7" x2="697.7" y2="272.7"/>
	</g>
	<g id="POINT_20_">
		<line class="st17" x1="451.1" y1="187.6" x2="451.1" y2="187.6"/>
	</g>
	<g id="POINT_18_">
		<line class="st17" x1="697.7" y1="272.7" x2="697.7" y2="272.7"/>
	</g>
	<g id="POINT_17_">
		<line class="st17" x1="731.7" y1="167.8" x2="731.7" y2="167.8"/>
	</g>
	<g id="POINT_16_">
		<line class="st17" x1="764.8" y1="188.3" x2="764.8" y2="188.3"/>
	</g>
	<g id="POINT_14_">
		<line class="st17" x1="663.7" y1="377.5" x2="663.7" y2="377.5"/>
	</g>
</g>
</svg>
