<?xml version="1.0" encoding="utf-8"?>
<!-- Generator: Adobe Illustrator 23.0.4, SVG Export Plug-In . SVG Version: 6.00 Build 0)  -->
<svg version="1.1" xmlns="http://www.w3.org/2000/svg" xmlns:xlink="http://www.w3.org/1999/xlink" x="0px" y="0px"
	 viewBox="0 0 1440 864" style="enable-background:new 0 0 1440 864;" xml:space="preserve">
<style type="text/css">
	.st0{fill:none;stroke:#010101;stroke-width:0.1;stroke-linecap:round;stroke-linejoin:round;stroke-miterlimit:10;}
	.st1{fill:none;stroke:#2BACE2;stroke-width:0.1;stroke-miterlimit:10;}
	.st2{fill:#2BACE2;}
	.st3{fill:none;stroke:#3A53A4;stroke-width:0.1;stroke-miterlimit:10;}
	.st4{fill:none;stroke:#0000FF;stroke-width:0.1;stroke-miterlimit:10;}
	.st5{fill:none;stroke:#FF0000;stroke-width:0.1;stroke-miterlimit:10;}
	.st6{fill:none;stroke:#010101;stroke-width:0.1;stroke-miterlimit:22.9256;}
	.st7{display:none;}
	.st8{display:inline;}
	.st9{fill:none;stroke:#000000;stroke-width:0.7087;stroke-linecap:round;stroke-linejoin:round;stroke-miterlimit:10;}
	
		.st10{fill:none;stroke:#00CC00;stroke-width:0.3685;stroke-linecap:round;stroke-linejoin:round;stroke-miterlimit:10;stroke-dasharray:1.08,0.54;}
	
		.st11{fill:none;stroke:#FF0000;stroke-width:0.3685;stroke-linecap:round;stroke-linejoin:round;stroke-miterlimit:10;stroke-dasharray:5.4,1.08,1.08,1.08;}
	
		.st12{fill:none;stroke:#CC9966;stroke-width:0.3685;stroke-linecap:round;stroke-linejoin:round;stroke-miterlimit:10;stroke-dasharray:1.08,0.54;}
	.st13{fill:#FF00FF;}
	.st14{font-family:'MyriadPro-Regular';}
	.st15{font-size:2.4022px;}
	.st16{fill:none;}
</style>
<g id="Layer_1">
	<circle class="st0" cx="170.2" cy="246.5" r="6.1"/>
	<circle class="st0" cx="167.4" cy="289" r="4.3"/>
	<circle class="st0" cx="170.2" cy="416.6" r="6.1"/>
	<circle class="st0" cx="663.4" cy="246.5" r="6.1"/>
	<circle class="st0" cx="663.5" cy="416.6" r="6.1"/>
	<circle class="st0" cx="666.3" cy="374" r="4.3"/>
	<circle class="st0" cx="450.9" cy="226.6" r="6.1"/>
	<circle class="st0" cx="382.8" cy="436.4" r="6.1"/>
	<g id="LWPOLYLINE_6_">
		<path class="st0" d="M206.7,371.8h31.2c1.6,0,2.8-1.3,2.8-2.8v-82.2c0-1.6-1.3-2.8-2.8-2.8h-31.2c-1.6,0-2.8,1.3-2.8,2.8V369
			C203.8,370.4,205.1,371.8,206.7,371.8z"/>
	</g>
	<g id="LWPOLYLINE_5_">
		<path class="st0" d="M485.3,296.9c0-1.7-1.3-3-2.8-3h-62.4c-1.6,0-2.8,1.4-2.8,3v41.9c0,1.7,1.3,3,2.8,3h62.4c1.6,0,2.8-1.4,2.8-3
			V296.9z"/>
	</g>
	<circle class="st0" cx="714.2" cy="246.5" r="6.1"/>
	<circle class="st0" cx="711.4" cy="289" r="4.3"/>
	<circle class="st0" cx="714.2" cy="416.6" r="6.1"/>
	<circle class="st0" cx="1207.5" cy="416.6" r="6.1"/>
	<circle class="st0" cx="1210.3" cy="374" r="4.3"/>
	<circle class="st0" cx="994.9" cy="226.6" r="6.1"/>
	<circle class="st0" cx="926.8" cy="436.4" r="6.1"/>
	<g id="LWPOLYLINE_10_">
		<path class="st0" d="M750.7,371.8h31.2c1.6,0,2.8-1.3,2.8-2.8v-82.2c0-1.6-1.3-2.8-2.8-2.8h-31.2c-1.6,0-2.8,1.3-2.8,2.8V369
			C747.8,370.4,749.1,371.8,750.7,371.8z"/>
	</g>
	<g id="LWPOLYLINE_9_">
		<path class="st0" d="M1029.3,296.9c0-1.7-1.3-3-2.8-3h-62.4c-1.6,0-2.8,1.4-2.8,3v41.9c0,1.7,1.3,3,2.8,3h62.4
			c1.6,0,2.8-1.4,2.8-3V296.9z"/>
	</g>
	<g>
		<g>
			<line class="st1" x1="914" y1="292.8" x2="914" y2="373.6"/>
			<g>
				<path class="st2" d="M917.5,293.4c-1.5-0.9-2.6-2.2-3.5-3.7c-0.9,1.5-2.1,2.8-3.5,3.7v0.9c1.4-0.9,2.6-2,3.5-3.4
					c0.9,1.4,2.2,2.5,3.5,3.4V293.4z"/>
				<path class="st2" d="M917.5,295.4c-1.5-0.9-2.6-2.2-3.5-3.7c-0.9,1.5-2.1,2.8-3.5,3.7v0.9c1.4-0.9,2.6-2,3.5-3.4
					c0.9,1.4,2.2,2.5,3.5,3.4V295.4z"/>
			</g>
		</g>
	</g>
	<g>
		<path class="st2" d="M809.3,418.1c-0.1-1.1-0.1-2.5-0.1-3.5l0,0c-0.3,0.9-0.6,2-1,3.1l-1.4,3.9H806l-1.3-3.8
			c-0.4-1.1-0.7-2.2-0.9-3.1l0,0c0,1-0.1,2.4-0.2,3.6l-0.2,3.5h-1l0.6-8.1h1.3l1.4,3.9c0.3,1,0.6,1.9,0.8,2.7l0,0
			c0.2-0.8,0.5-1.7,0.9-2.7l1.4-3.9h1.3l0.5,8.1h-1L809.3,418.1z"/>
		<path class="st2" d="M817.4,418.7c0,2.1-1.5,3.1-2.9,3.1c-1.6,0-2.8-1.2-2.8-3c0-1.9,1.3-3.1,2.9-3.1
			C816.3,415.7,817.4,416.8,817.4,418.7z M812.8,418.8c0,1.3,0.7,2.2,1.8,2.2c1,0,1.8-0.9,1.8-2.3c0-1-0.5-2.2-1.7-2.2
			C813.4,416.5,812.8,417.7,812.8,418.8z"/>
		<path class="st2" d="M823.6,420.1c0,0.6,0,1.1,0,1.6h-0.9l-0.1-0.9l0,0c-0.3,0.5-0.9,1.1-1.9,1.1c-0.9,0-2-0.5-2-2.5V416h1.1v3.2
			c0,1.1,0.3,1.8,1.3,1.8c0.7,0,1.2-0.5,1.4-1c0.1-0.2,0.1-0.3,0.1-0.5v-3.6h1.1L823.6,420.1L823.6,420.1L823.6,420.1z"/>
		<path class="st2" d="M825.4,417.3c0-0.6,0-1.1,0-1.6h0.9l0.1,1l0,0c0.3-0.6,1-1.1,1.9-1.1c0.8,0,2.1,0.5,2.1,2.5v3.5h-1.1v-3.3
			c0-0.9-0.3-1.7-1.3-1.7c-0.7,0-1.2,0.5-1.4,1.1c0,0.1-0.1,0.3-0.1,0.5v3.5h-1.1L825.4,417.3L825.4,417.3z"/>
		<path class="st2" d="M833.3,414.2v1.7h1.5v0.8h-1.5v3.1c0,0.7,0.2,1.1,0.8,1.1c0.3,0,0.5,0,0.6-0.1v0.8c-0.2,0.1-0.5,0.1-0.9,0.1
			c-0.5,0-0.9-0.2-1.1-0.4c-0.3-0.3-0.4-0.8-0.4-1.5v-3.2h-0.9v-0.8h0.9v-1.4L833.3,414.2z"/>
		<path class="st2" d="M838.5,413.6h1v7.2h3.5v0.9h-4.5V413.6z"/>
		<path class="st2" d="M848.4,417.8h-3.1v2.9h3.5v0.9h-4.6v-8.1h4.4v0.9h-3.3v2.6h3.1L848.4,417.8L848.4,417.8z"/>
		<path class="st2" d="M850.1,413.7c0.6-0.1,1.4-0.2,2.2-0.2c1.5,0,2.6,0.3,3.3,1s1.1,1.6,1.1,2.9s-0.4,2.4-1.2,3.1
			c-0.8,0.8-2,1.2-3.6,1.2c-0.7,0-1.4,0-1.9-0.1L850.1,413.7L850.1,413.7z M851.2,420.8c0.3,0,0.6,0.1,1.1,0.1
			c2.2,0,3.4-1.2,3.4-3.4c0-1.9-1.1-3.1-3.3-3.1c-0.5,0-0.9,0-1.2,0.1V420.8z"/>
		<path class="st2" d="M860.6,413.7c0.5-0.1,1.2-0.2,2-0.2c1,0,1.8,0.2,2.3,0.7c0.4,0.4,0.7,1,0.7,1.7s-0.2,1.3-0.6,1.7
			c-0.6,0.6-1.5,0.9-2.5,0.9c-0.3,0-0.6,0-0.8-0.1v3.2h-1L860.6,413.7L860.6,413.7L860.6,413.7z M861.7,417.6
			c0.2,0.1,0.5,0.1,0.9,0.1c1.3,0,2-0.6,2-1.7s-0.8-1.6-1.9-1.6c-0.5,0-0.8,0-1,0.1V417.6z"/>
		<path class="st2" d="M869.9,421.7l-0.1-0.7l0,0c-0.3,0.5-0.9,0.9-1.8,0.9c-1.2,0-1.8-0.8-1.8-1.7c0-1.4,1.2-2.2,3.5-2.2v-0.1
			c0-0.5-0.1-1.3-1.3-1.3c-0.5,0-1.1,0.2-1.5,0.4l-0.2-0.7c0.5-0.3,1.2-0.5,1.9-0.5c1.8,0,2.2,1.2,2.2,2.4v2.2c0,0.5,0,1,0.1,1.4
			L869.9,421.7L869.9,421.7z M869.7,418.7c-1.2,0-2.5,0.2-2.5,1.3c0,0.7,0.5,1,1,1c0.8,0,1.2-0.5,1.4-1c0-0.1,0.1-0.2,0.1-0.3V418.7
			z"/>
		<path class="st2" d="M872.5,417.3c0-0.6,0-1.1,0-1.6h0.9l0.1,1l0,0c0.3-0.6,1-1.1,1.9-1.1c0.8,0,2.1,0.5,2.1,2.5v3.5h-1.1v-3.3
			c0-0.9-0.3-1.7-1.3-1.7c-0.7,0-1.2,0.5-1.4,1.1c0,0.1-0.1,0.3-0.1,0.5v3.5h-1.1L872.5,417.3L872.5,417.3z"/>
		<path class="st2" d="M879.7,419c0,1.4,0.9,2,2,2c0.8,0,1.2-0.1,1.6-0.3l0.2,0.8c-0.4,0.2-1,0.4-1.9,0.4c-1.8,0-2.9-1.2-2.9-2.9
			c0-1.7,1-3.1,2.7-3.1c1.9,0,2.4,1.7,2.4,2.7c0,0.2,0,0.4,0,0.5L879.7,419L879.7,419L879.7,419z M882.8,418.2
			c0-0.7-0.3-1.7-1.5-1.7c-1.1,0-1.5,1-1.6,1.7H882.8z"/>
		<path class="st2" d="M885.1,413.1h1.1v8.5h-1.1V413.1z"/>
		<path class="st2" d="M897.4,418.1c-0.1-1.1-0.1-2.5-0.1-3.5l0,0c-0.3,0.9-0.6,2-1,3.1l-1.4,3.9h-0.8l-1.3-3.8
			c-0.4-1.1-0.7-2.2-0.9-3.1l0,0c0,1-0.1,2.4-0.2,3.6l-0.2,3.5h-1l0.6-8.1h1.3l1.4,3.9c0.3,1,0.6,1.9,0.8,2.7l0,0
			c0.2-0.8,0.5-1.7,0.9-2.7l1.4-3.9h1.3l0.5,8.1h-1L897.4,418.1z"/>
		<path class="st2" d="M903.4,421.7l-0.1-0.7l0,0c-0.3,0.5-0.9,0.9-1.8,0.9c-1.2,0-1.8-0.8-1.8-1.7c0-1.4,1.2-2.2,3.5-2.2v-0.1
			c0-0.5-0.1-1.3-1.3-1.3c-0.5,0-1.1,0.2-1.5,0.4l-0.2-0.7c0.5-0.3,1.2-0.5,1.9-0.5c1.8,0,2.2,1.2,2.2,2.4v2.2c0,0.5,0,1,0.1,1.4
			L903.4,421.7L903.4,421.7z M903.3,418.7c-1.2,0-2.5,0.2-2.5,1.3c0,0.7,0.5,1,1,1c0.8,0,1.2-0.5,1.4-1c0-0.1,0.1-0.2,0.1-0.3V418.7
			z"/>
		<path class="st2" d="M907.2,414.2v1.7h1.5v0.8h-1.5v3.1c0,0.7,0.2,1.1,0.8,1.1c0.3,0,0.5,0,0.6-0.1v0.8c-0.2,0.1-0.5,0.1-0.9,0.1
			c-0.5,0-0.9-0.2-1.1-0.4c-0.3-0.3-0.4-0.8-0.4-1.5v-3.2h-0.9v-0.8h0.9v-1.4L907.2,414.2z"/>
		<path class="st2" d="M909.9,417.7c0-0.7,0-1.3,0-1.8h0.9v1.1l0,0c0.3-0.8,0.9-1.3,1.6-1.3c0.1,0,0.2,0,0.3,0v1c-0.1,0-0.2,0-0.4,0
			c-0.7,0-1.3,0.6-1.4,1.4c0,0.1,0,0.3,0,0.5v3.1h-1L909.9,417.7L909.9,417.7z"/>
		<path class="st2" d="M915.1,414.2c0,0.4-0.3,0.6-0.7,0.6s-0.6-0.3-0.6-0.6c0-0.4,0.3-0.7,0.7-0.7
			C914.8,413.6,915.1,413.8,915.1,414.2z M913.9,421.7v-5.8h1.1v5.8H913.9z"/>
		<path class="st2" d="M917.2,415.8l0.8,1.2c0.2,0.3,0.4,0.6,0.6,0.9l0,0c0.2-0.3,0.4-0.6,0.6-1l0.8-1.2h1.1l-2,2.8l2,3h-1.2
			l-0.9-1.3c-0.2-0.3-0.4-0.7-0.6-1l0,0c-0.2,0.3-0.4,0.7-0.6,1l-0.8,1.3h-1.2l2.1-3l-2-2.8h1.3L917.2,415.8L917.2,415.8z"/>
		<path class="st2" d="M930.1,418.7c0,2.1-1.5,3.1-2.9,3.1c-1.6,0-2.8-1.2-2.8-3c0-1.9,1.3-3.1,2.9-3.1S930.1,416.8,930.1,418.7z
			 M925.5,418.8c0,1.3,0.7,2.2,1.8,2.2c1,0,1.8-0.9,1.8-2.3c0-1-0.5-2.2-1.7-2.2C926,416.5,925.5,417.7,925.5,418.8z"/>
		<path class="st2" d="M931.4,417.3c0-0.6,0-1.1,0-1.6h0.9l0.1,1l0,0c0.3-0.6,1-1.1,1.9-1.1c0.8,0,2.1,0.5,2.1,2.5v3.5h-1.1v-3.3
			c0-0.9-0.3-1.7-1.3-1.7c-0.7,0-1.2,0.5-1.4,1.1c0,0.1-0.1,0.3-0.1,0.5v3.5h-1.1L931.4,417.3L931.4,417.3z"/>
		<path class="st2" d="M947.6,417.5c0,2.8-1.7,4.3-3.8,4.3s-3.6-1.7-3.6-4.1c0-2.6,1.6-4.2,3.8-4.2
			C946.1,413.3,947.6,415.1,947.6,417.5z M941.3,417.7c0,1.7,0.9,3.3,2.6,3.3s2.6-1.5,2.6-3.4c0-1.6-0.8-3.3-2.6-3.3
			S941.3,415.8,941.3,417.7z"/>
		<path class="st2" d="M950.4,414.2v1.7h1.5v0.8h-1.5v3.1c0,0.7,0.2,1.1,0.8,1.1c0.3,0,0.5,0,0.6-0.1v0.8c-0.2,0.1-0.5,0.1-0.9,0.1
			c-0.5,0-0.9-0.2-1.1-0.4c-0.3-0.3-0.4-0.8-0.4-1.5v-3.2h-0.9v-0.8h0.9v-1.4L950.4,414.2z"/>
		<path class="st2" d="M953.1,413.1h1.1v3.6l0,0c0.2-0.3,0.4-0.6,0.8-0.7c0.3-0.2,0.7-0.3,1.1-0.3c0.8,0,2,0.5,2,2.5v3.5H957v-3.3
			c0-0.9-0.3-1.7-1.3-1.7c-0.7,0-1.2,0.5-1.4,1.1c-0.1,0.1-0.1,0.3-0.1,0.5v3.5h-1.1L953.1,413.1L953.1,413.1z"/>
		<path class="st2" d="M960.3,419c0,1.4,0.9,2,2,2c0.8,0,1.2-0.1,1.6-0.3l0.2,0.8c-0.4,0.2-1,0.4-1.9,0.4c-1.8,0-2.9-1.2-2.9-2.9
			c0-1.7,1-3.1,2.7-3.1c1.9,0,2.4,1.7,2.4,2.7c0,0.2,0,0.4,0,0.5L960.3,419L960.3,419L960.3,419z M963.4,418.2
			c0-0.7-0.3-1.7-1.5-1.7c-1.1,0-1.5,1-1.6,1.7H963.4z"/>
		<path class="st2" d="M965.7,417.7c0-0.7,0-1.3,0-1.8h0.9v1.1l0,0c0.3-0.8,0.9-1.3,1.6-1.3c0.1,0,0.2,0,0.3,0v1c-0.1,0-0.2,0-0.4,0
			c-0.7,0-1.3,0.6-1.4,1.4c0,0.1,0,0.3,0,0.5v3.1h-1L965.7,417.7L965.7,417.7z"/>
		<path class="st2" d="M972.1,420.3c0.5,0.3,1.2,0.5,1.9,0.5c1.1,0,1.7-0.6,1.7-1.4s-0.4-1.2-1.5-1.6c-1.3-0.5-2.1-1.2-2.1-2.3
			c0-1.3,1-2.2,2.6-2.2c0.8,0,1.4,0.2,1.8,0.4l-0.3,0.9c-0.3-0.1-0.8-0.4-1.5-0.4c-1.1,0-1.5,0.7-1.5,1.2c0,0.8,0.5,1.1,1.6,1.6
			c1.4,0.5,2.1,1.2,2.1,2.4c0,1.2-0.9,2.3-2.8,2.3c-0.8,0-1.6-0.2-2.1-0.5L972.1,420.3z"/>
		<path class="st2" d="M979.3,414.2c0,0.4-0.3,0.6-0.7,0.6s-0.6-0.3-0.6-0.6c0-0.4,0.3-0.7,0.7-0.7
			C979,413.6,979.3,413.8,979.3,414.2z M978.1,421.7v-5.8h1.1v5.8H978.1z"/>
		<path class="st2" d="M985.9,413.1v7c0,0.5,0,1.1,0,1.5H985v-1l0,0c-0.3,0.6-1,1.1-2,1.1c-1.4,0-2.5-1.2-2.5-3
			c0-1.9,1.2-3.1,2.6-3.1c0.9,0,1.5,0.4,1.8,0.9l0,0V413h1L985.9,413.1L985.9,413.1z M984.9,418.2c0-0.1,0-0.3,0-0.4
			c-0.2-0.7-0.7-1.2-1.5-1.2c-1.1,0-1.7,1-1.7,2.2s0.6,2.1,1.7,2.1c0.7,0,1.4-0.5,1.5-1.3c0-0.1,0-0.3,0-0.5V418.2z"/>
		<path class="st2" d="M988.3,419c0,1.4,0.9,2,2,2c0.8,0,1.2-0.1,1.6-0.3l0.2,0.8c-0.4,0.2-1,0.4-1.9,0.4c-1.8,0-2.9-1.2-2.9-2.9
			c0-1.7,1-3.1,2.7-3.1c1.9,0,2.4,1.7,2.4,2.7c0,0.2,0,0.4,0,0.5L988.3,419L988.3,419L988.3,419z M991.4,418.2
			c0-0.7-0.3-1.7-1.5-1.7c-1.1,0-1.5,1-1.6,1.7H991.4z"/>
	</g>
	<g>
		<path class="st2" d="M888.5,273.5c0.5-0.1,1.2-0.2,2-0.2c1,0,1.8,0.2,2.3,0.7c0.4,0.4,0.7,1,0.7,1.7s-0.2,1.3-0.6,1.7
			c-0.6,0.6-1.5,0.9-2.5,0.9c-0.3,0-0.6,0-0.8-0.1v3.2h-1L888.5,273.5L888.5,273.5L888.5,273.5z M889.5,277.4
			c0.2,0.1,0.5,0.1,0.9,0.1c1.3,0,2-0.6,2-1.7s-0.8-1.6-1.9-1.6c-0.5,0-0.8,0-1,0.1V277.4z"/>
		<path class="st2" d="M897.8,281.5l-0.1-0.7l0,0c-0.3,0.5-0.9,0.9-1.8,0.9c-1.2,0-1.8-0.8-1.8-1.7c0-1.4,1.2-2.2,3.5-2.2v-0.1
			c0-0.5-0.1-1.3-1.3-1.3c-0.5,0-1.1,0.2-1.5,0.4l-0.2-0.7c0.5-0.3,1.2-0.5,1.9-0.5c1.8,0,2.2,1.2,2.2,2.4v2.2c0,0.5,0,1,0.1,1.4
			L897.8,281.5L897.8,281.5z M897.5,278.6c-1.2,0-2.5,0.2-2.5,1.3c0,0.7,0.5,1,1,1c0.8,0,1.2-0.5,1.4-1c0-0.1,0.1-0.2,0.1-0.3V278.6
			z"/>
		<path class="st2" d="M900.2,277.3c0-0.6,0-1.1,0-1.6h0.9l0.1,1l0,0c0.3-0.6,1-1.1,1.9-1.1c0.8,0,2.1,0.5,2.1,2.5v3.5h-1.1v-3.3
			c0-0.9-0.3-1.7-1.3-1.7c-0.7,0-1.2,0.5-1.4,1.1c0,0.1-0.1,0.3-0.1,0.5v3.5h-1.1L900.2,277.3L900.2,277.3z"/>
		<path class="st2" d="M907.5,278.8c0,1.4,0.9,2,2,2c0.8,0,1.2-0.1,1.6-0.3l0.2,0.8c-0.4,0.2-1,0.4-1.9,0.4c-1.8,0-2.9-1.2-2.9-2.9
			c0-1.7,1-3.1,2.7-3.1c1.9,0,2.4,1.7,2.4,2.7c0,0.2,0,0.4,0,0.5L907.5,278.8L907.5,278.8L907.5,278.8z M910.7,278.1
			c0-0.7-0.3-1.7-1.5-1.7c-1.1,0-1.5,1-1.6,1.7H910.7z"/>
		<path class="st2" d="M913,273h1.1v8.5H913V273z"/>
		<path class="st2" d="M919.5,273.4v4.8c0,1.8,0.8,2.6,1.9,2.6c1.2,0,2-0.8,2-2.6v-4.8h1.1v4.7c0,2.5-1.3,3.5-3.1,3.5
			c-1.7,0-2.9-0.9-2.9-3.5v-4.7H919.5z"/>
		<path class="st2" d="M926,277.6c0-0.7,0-1.3,0-1.9h0.9v1l0,0c0.4-0.7,1.1-1.1,2.1-1.1c1.4,0,2.5,1.2,2.5,3c0,2.1-1.3,3.1-2.6,3.1
			c-0.8,0-1.4-0.3-1.8-0.9l0,0v3.2h-1L926,277.6L926,277.6L926,277.6z M927.2,279.1c0,0.2,0,0.3,0,0.4c0.2,0.7,0.8,1.2,1.6,1.2
			c1.1,0,1.8-0.9,1.8-2.2c0-1.2-0.6-2.2-1.7-2.2c-0.7,0-1.4,0.5-1.6,1.3c0,0.1-0.1,0.3-0.1,0.4V279.1L927.2,279.1z"/>
	</g>
	<g>
		<line class="st3" x1="1043.6" y1="415.4" x2="1043.6" y2="224.6"/>
		<path class="st2" d="M1147.8,293.3v4.8c0,1.8,0.8,2.6,1.9,2.6c1.2,0,2-0.8,2-2.6v-4.8h1.1v4.7c0,2.5-1.3,3.5-3.1,3.5
			c-1.7,0-2.9-0.9-2.9-3.5v-4.7H1147.8L1147.8,293.3z"/>
		<path class="st2" d="M1154.4,300.2c0.5,0.3,1.2,0.5,1.9,0.5c1.1,0,1.7-0.6,1.7-1.4s-0.4-1.2-1.5-1.6c-1.3-0.5-2.1-1.2-2.1-2.3
			c0-1.3,1-2.2,2.6-2.2c0.8,0,1.4,0.2,1.8,0.4l-0.3,0.9c-0.3-0.1-0.8-0.4-1.5-0.4c-1.1,0-1.5,0.7-1.5,1.2c0,0.8,0.5,1.1,1.6,1.6
			c1.4,0.5,2.1,1.2,2.1,2.4c0,1.2-0.9,2.3-2.8,2.3c-0.8,0-1.6-0.2-2.1-0.5L1154.4,300.2z"/>
		<path class="st2" d="M1160.5,293.4c0.5-0.1,1.2-0.2,1.9-0.2c1,0,1.7,0.2,2.2,0.6c0.4,0.3,0.7,0.8,0.7,1.4c0,0.8-0.5,1.5-1.4,1.8
			l0,0c0.8,0.2,1.7,0.8,1.7,2c0,0.7-0.3,1.2-0.7,1.6c-0.6,0.5-1.5,0.8-2.8,0.8c-0.7,0-1.3,0-1.6-0.1L1160.5,293.4L1160.5,293.4z
			 M1161.5,296.8h0.9c1.1,0,1.8-0.6,1.8-1.4c0-0.9-0.7-1.3-1.8-1.3c-0.5,0-0.8,0-0.9,0.1V296.8z M1161.5,300.7c0.2,0,0.5,0,0.9,0
			c1.1,0,2.1-0.4,2.1-1.6c0-1.1-0.9-1.6-2.1-1.6h-0.9V300.7z"/>
		<g>
			<path class="st2" d="M1113.3,373.2c-1.1,0.1-2.5,0.1-3.5,0.1l0,0c0.9,0.3,2,0.6,3.1,1l3.9,1.4v0.9l-3.8,1.3
				c-1.1,0.4-2.2,0.7-3.1,0.9l0,0c1,0,2.4,0.1,3.6,0.2l3.5,0.2v1l-8.1-0.6v-1.3l3.9-1.4c1-0.3,1.9-0.6,2.7-0.8l0,0
				c-0.8-0.2-1.7-0.5-2.7-0.9l-3.9-1.4v-1.3l8.1-0.5v1L1113.3,373.2z"/>
			<path class="st2" d="M1113.9,365.1c2.1,0,3.1,1.5,3.1,2.9c0,1.6-1.2,2.8-3,2.8c-1.9,0-3.1-1.3-3.1-2.9
				C1110.9,366.2,1112.1,365.1,1113.9,365.1z M1113.9,369.7c1.3,0,2.2-0.7,2.2-1.8c0-1-0.9-1.8-2.3-1.8c-1,0-2.2,0.5-2.2,1.7
				C1111.8,369.2,1112.8,369.7,1113.9,369.7z"/>
			<path class="st2" d="M1115.3,358.9c0.6,0,1.1,0,1.6,0v0.9l-0.9,0.1l0,0c0.5,0.3,1.1,0.9,1.1,1.9c0,0.9-0.5,2-2.5,2h-3.4v-1.1h3.2
				c1.1,0,1.8-0.3,1.8-1.3c0-0.7-0.5-1.2-1-1.4c-0.2-0.1-0.3-0.1-0.5-0.1h-3.6v-1.1L1115.3,358.9L1115.3,358.9L1115.3,358.9z"/>
			<path class="st2" d="M1112.6,357.2c-0.6,0-1.1,0-1.6,0v-0.9l1-0.1l0,0c-0.6-0.3-1.1-1-1.1-1.9c0-0.8,0.5-2.1,2.5-2.1h3.5v1.1
				h-3.3c-0.9,0-1.7,0.3-1.7,1.3c0,0.7,0.5,1.2,1.1,1.4c0.1,0,0.3,0.1,0.5,0.1h3.5v1.1H1112.6L1112.6,357.2z"/>
			<path class="st2" d="M1109.3,349.3h1.7v-1.5h0.8v1.5h3.1c0.7,0,1.1-0.2,1.1-0.8c0-0.3,0-0.5-0.1-0.6h0.8c0.1,0.2,0.1,0.5,0.1,0.9
				c0,0.5-0.2,0.9-0.4,1.1c-0.3,0.3-0.8,0.4-1.5,0.4h-3.2v0.9h-0.8v-0.9h-1.4L1109.3,349.3z"/>
			<path class="st2" d="M1108.8,344c-0.1-0.5-0.2-1.2-0.2-2c0-1,0.2-1.8,0.7-2.3c0.4-0.4,1-0.7,1.7-0.7s1.3,0.2,1.7,0.6
				c0.6,0.6,0.9,1.5,0.9,2.5c0,0.3,0,0.6-0.1,0.8h3.2v1L1108.8,344L1108.8,344L1108.8,344z M1112.8,342.9c0.1-0.2,0.1-0.5,0.1-0.9
				c0-1.3-0.6-2-1.7-2s-1.6,0.8-1.6,1.9c0,0.5,0,0.8,0.1,1H1112.8z"/>
			<path class="st2" d="M1108.8,336.6h8.1v1h-8.1V336.6z"/>
			<path class="st2" d="M1116.8,330.3l-1.8,1c-0.7,0.4-1.1,0.7-1.6,0.9l0,0c0.5,0.2,0.9,0.5,1.6,0.9l1.8,1v1.2l-4.1-2.5l-4,2.4V334
				l1.9-1.1c0.5-0.3,0.9-0.5,1.4-0.7l0,0c-0.5-0.2-0.9-0.4-1.4-0.7l-1.9-1.1v-1.2l3.9,2.5l4.1-2.5L1116.8,330.3L1116.8,330.3z"/>
			<path class="st2" d="M1113.1,323.7v3.1h2.9v-3.5h0.9v4.5h-8.1v-4.4h0.9v3.3h2.6v-3.1L1113.1,323.7L1113.1,323.7L1113.1,323.7z"/>
			<path class="st2" d="M1108.8,322v-1h7.2v-3.5h0.9v4.5H1108.8z"/>
			<path class="st2" d="M1108.8,313.8c-0.1-0.5-0.2-1.2-0.2-1.9c0-1,0.2-1.7,0.6-2.2c0.3-0.4,0.8-0.7,1.4-0.7c0.8,0,1.5,0.5,1.8,1.4
				l0,0c0.2-0.8,0.8-1.7,2-1.7c0.7,0,1.2,0.3,1.6,0.7c0.5,0.6,0.8,1.5,0.8,2.8c0,0.7,0,1.3-0.1,1.6L1108.8,313.8L1108.8,313.8z
				 M1112.3,312.7v-0.9c0-1.1-0.6-1.8-1.4-1.8c-0.9,0-1.3,0.7-1.3,1.8c0,0.5,0,0.8,0.1,0.9H1112.3z M1116.1,312.7c0-0.2,0-0.5,0-0.9
				c0-1.1-0.4-2.1-1.6-2.1c-1.1,0-1.6,0.9-1.6,2.1v0.9H1116.1z"/>
			<path class="st2" d="M1113.9,302c2.1,0,3.1,1.5,3.1,2.9c0,1.6-1.2,2.8-3,2.8c-1.9,0-3.1-1.3-3.1-2.9
				C1110.9,303.1,1112.1,302,1113.9,302z M1113.9,306.6c1.3,0,2.2-0.7,2.2-1.8c0-1-0.9-1.8-2.3-1.8c-1,0-2.2,0.5-2.2,1.7
				C1111.8,306.1,1112.8,306.6,1113.9,306.6z"/>
			<path class="st2" d="M1116.8,297.5l-0.7,0.1l0,0c0.5,0.3,0.9,0.9,0.9,1.8c0,1.2-0.8,1.8-1.7,1.8c-1.4,0-2.2-1.2-2.2-3.5h-0.1
				c-0.5,0-1.3,0.1-1.3,1.3c0,0.5,0.2,1.1,0.4,1.5l-0.7,0.2c-0.3-0.5-0.5-1.2-0.5-1.9c0-1.8,1.2-2.2,2.4-2.2h2.2c0.5,0,1,0,1.4-0.1
				L1116.8,297.5L1116.8,297.5L1116.8,297.5z M1113.9,297.6c0,1.2,0.2,2.5,1.3,2.5c0.7,0,1-0.5,1-1c0-0.8-0.5-1.2-1-1.4
				c-0.1,0-0.2-0.1-0.3-0.1H1113.9z"/>
			<path class="st2" d="M1112.8,294.9c-0.7,0-1.3,0-1.8,0V294h1.1l0,0c-0.8-0.3-1.3-0.9-1.3-1.6c0-0.1,0-0.2,0-0.3h1
				c0,0.1,0,0.2,0,0.4c0,0.7,0.6,1.3,1.4,1.4c0.1,0,0.3,0,0.5,0h3.1v1H1112.8L1112.8,294.9z"/>
			<path class="st2" d="M1108.3,286.1h7c0.5,0,1.1,0,1.5,0v0.9h-1l0,0c0.6,0.3,1.1,1,1.1,2c0,1.4-1.2,2.5-3,2.5
				c-1.9,0-3.1-1.2-3.1-2.6c0-0.9,0.4-1.5,0.9-1.8l0,0h-3.4V286.1z M1113.4,287.1c-0.1,0-0.3,0-0.4,0c-0.7,0.2-1.2,0.7-1.2,1.5
				c0,1.1,1,1.7,2.2,1.7s2.1-0.6,2.1-1.7c0-0.7-0.5-1.4-1.3-1.5c-0.1,0-0.3,0-0.5,0H1113.4z"/>
			<path class="st2" d="M1108.8,280.7h3.4v-3.9h-3.4v-1.1h8.1v1.1h-3.8v3.9h3.8v1h-8.1V280.7z"/>
			<path class="st2" d="M1114.1,273.4c1.4,0,2-0.9,2-2c0-0.8-0.1-1.2-0.3-1.6l0.8-0.2c0.2,0.4,0.4,1,0.4,1.9c0,1.8-1.2,2.9-2.9,2.9
				c-1.7,0-3.1-1-3.1-2.7c0-1.9,1.7-2.4,2.7-2.4c0.2,0,0.4,0,0.5,0L1114.1,273.4L1114.1,273.4L1114.1,273.4z M1113.4,270.3
				c-0.7,0-1.7,0.3-1.7,1.5c0,1.1,1,1.5,1.7,1.6V270.3z"/>
			<path class="st2" d="M1112.8,267.9c-0.7,0-1.3,0-1.8,0V267h1.1l0,0c-0.8-0.3-1.3-0.9-1.3-1.6c0-0.1,0-0.2,0-0.3h1
				c0,0.1,0,0.2,0,0.4c0,0.7,0.6,1.3,1.4,1.4c0.1,0,0.3,0,0.5,0h3.1v1H1112.8L1112.8,267.9z"/>
			<path class="st2" d="M1114.1,263.5c1.4,0,2-0.9,2-2c0-0.8-0.1-1.2-0.3-1.6l0.8-0.2c0.2,0.4,0.4,1,0.4,1.9c0,1.8-1.2,2.9-2.9,2.9
				c-1.7,0-3.1-1-3.1-2.7c0-1.9,1.7-2.4,2.7-2.4c0.2,0,0.4,0,0.5,0L1114.1,263.5L1114.1,263.5L1114.1,263.5z M1113.4,260.4
				c-0.7,0-1.7,0.3-1.7,1.5c0,1.1,1,1.5,1.7,1.6V260.4z"/>
		</g>
		<path class="st0" d="M1043.6,216.9c2.1,0,3.8,1.7,3.8,3.8s-1.7,3.8-3.8,3.8s-3.8-1.7-3.8-3.8S1041.4,216.9,1043.6,216.9
			L1043.6,216.9z"/>
		<path class="st0" d="M1043.6,415.4c2.1,0,3.8,1.7,3.8,3.8s-1.7,3.8-3.8,3.8s-3.8-1.7-3.8-3.8
			C1039.7,417.1,1041.4,415.4,1043.6,415.4L1043.6,415.4z"/>
		<path class="st0" d="M1179.6,216.9c2.1,0,3.8,1.7,3.8,3.8s-1.7,3.8-3.8,3.8s-3.8-1.7-3.8-3.8S1177.4,216.9,1179.6,216.9
			L1179.6,216.9z"/>
		<path class="st0" d="M1179.6,415.1c2.1,0,3.8,1.7,3.8,3.8s-1.7,3.8-3.8,3.8s-3.8-1.7-3.8-3.8
			C1175.7,416.8,1177.4,415.1,1179.6,415.1L1179.6,415.1z"/>
		<line class="st3" x1="1179.6" y1="224.5" x2="1179.6" y2="415.1"/>
		<line class="st3" x1="1047.4" y1="419.2" x2="1175.8" y2="419.2"/>
		<line class="st3" x1="1047.4" y1="220.7" x2="1175.8" y2="220.7"/>
	</g>
	<g id="LWPOLYLINE_11_">
		<path class="st0" d="M596.1,376h31.2c1.6,0,2.8-1.3,2.8-2.8V291c0-1.6-1.3-2.8-2.8-2.8h-31.2c-1.6,0-2.8,1.3-2.8,2.8v82.2
			C593.2,374.6,594.5,376,596.1,376z"/>
	</g>
	<ellipse class="st4" cx="525.9" cy="381.3" rx="9" ry="12.6"/>
	<g>
		<path class="st5" d="M536.4,315.3l5.1,6.1l0,0l1.1-3.9l0.8,0.2l-1.5,5.2l-0.6-0.2l-5-6.1l0,0l-1.3,4.3l-0.8-0.2l1.6-5.7
			L536.4,315.3z"/>
		<path class="st5" d="M533.8,322l5.6,1.6l-0.3,1l-5.6-1.6L533.8,322z M540.7,325.2c-0.3-0.1-0.6-0.4-0.4-0.8
			c0.1-0.4,0.5-0.5,0.8-0.4c0.4,0.1,0.6,0.4,0.5,0.8C541.4,325.1,541,325.3,540.7,325.2z"/>
		<path class="st5" d="M536.8,325.8c0.7,0.2,1.3,0.3,1.8,0.5l-0.3,0.9l-1-0.2l0,0c0.6,0.6,0.8,1.4,0.5,2.3c-0.4,1.3-1.8,2-3.5,1.5
			c-2-0.6-2.6-2.1-2.3-3.4c0.2-0.7,0.7-1.3,1.4-1.5l0,0l-3-0.9l0.3-1L536.8,325.8z M535,326.4c-0.1,0-0.3-0.1-0.4-0.1
			c-0.8,0-1.4,0.5-1.6,1.2c-0.3,1.1,0.4,1.9,1.7,2.3c1.1,0.3,2.2,0,2.6-1.1c0.2-0.7-0.1-1.5-0.8-1.9c-0.1-0.1-0.3-0.1-0.4-0.2
			L535,326.4z"/>
		<path class="st5" d="M537.1,336.7l0.7-2.4l0.9,0.2l-1.7,5.7l-0.9-0.2l0.7-2.4l-6.9-2l0.3-1L537.1,336.7z"/>
		<path class="st5" d="M529,338.8l5.6,1.6l-0.3,1l-5.6-1.6L529,338.8z M535.8,342c-0.3-0.1-0.6-0.4-0.4-0.8c0.1-0.4,0.5-0.5,0.8-0.4
			c0.4,0.1,0.6,0.4,0.4,0.8C536.5,342,536.1,342.1,535.8,342z"/>
		<path class="st5" d="M530.6,342.8c-1.4-0.4-2.2,0.3-2.5,1.4c-0.2,0.7-0.2,1.2-0.2,1.6h-0.8c-0.1-0.4-0.1-1.1,0.2-2
			c0.5-1.7,1.9-2.4,3.6-1.9c1.7,0.5,2.7,1.9,2.3,3.5c-0.5,1.8-2.3,1.8-3.3,1.5c-0.2-0.1-0.4-0.1-0.5-0.2L530.6,342.8z M530.5,346
			c0.6,0.2,1.7,0.2,2.1-0.9c0.3-1-0.5-1.7-1.2-2L530.5,346z"/>
	</g>
	<ellipse class="st4" cx="547.1" cy="281.7" rx="9" ry="12.6"/>
	<ellipse class="st4" cx="824.3" cy="384.1" rx="9" ry="12.6"/>
	<g>
		<path class="st5" d="M834.8,318.1l5.1,6.1l0,0l1.1-3.9l0.8,0.2l-1.5,5.2l-0.6-0.2l-5-6.1l0,0l-1.3,4.3l-0.8-0.2l1.6-5.7
			L834.8,318.1z"/>
		<path class="st5" d="M832.2,324.8l5.6,1.6l-0.3,1l-5.6-1.6L832.2,324.8z M839.1,328c-0.3-0.1-0.6-0.4-0.4-0.8
			c0.1-0.4,0.5-0.5,0.8-0.4c0.4,0.1,0.6,0.4,0.5,0.8C839.8,327.9,839.4,328.1,839.1,328z"/>
		<path class="st5" d="M835.2,328.6c0.7,0.2,1.3,0.3,1.8,0.5l-0.3,0.9l-1-0.2l0,0c0.6,0.6,0.8,1.4,0.5,2.3c-0.4,1.3-1.8,2-3.5,1.5
			c-2-0.6-2.6-2.1-2.3-3.4c0.2-0.7,0.7-1.3,1.4-1.5l0,0l-3-0.9l0.3-1L835.2,328.6z M833.4,329.2c-0.1,0-0.3-0.1-0.4-0.1
			c-0.8,0-1.4,0.5-1.6,1.2c-0.3,1.1,0.4,1.9,1.7,2.3c1.1,0.3,2.2,0,2.6-1.1c0.2-0.7-0.1-1.5-0.8-1.9c-0.1-0.1-0.3-0.1-0.4-0.2
			L833.4,329.2z"/>
		<path class="st5" d="M835.5,339.5l0.7-2.4l0.9,0.2l-1.7,5.7l-0.9-0.2l0.7-2.4l-6.9-2l0.3-1L835.5,339.5z"/>
		<path class="st5" d="M827.4,341.6l5.6,1.6l-0.3,1l-5.6-1.6L827.4,341.6z M834.2,344.8c-0.3-0.1-0.6-0.4-0.4-0.8
			c0.1-0.4,0.5-0.5,0.8-0.4c0.4,0.1,0.6,0.4,0.4,0.8C834.9,344.8,834.5,344.9,834.2,344.8z"/>
		<path class="st5" d="M829,345.6c-1.4-0.4-2.2,0.3-2.5,1.4c-0.2,0.7-0.2,1.2-0.2,1.6h-0.8c-0.1-0.4-0.1-1.1,0.2-2
			c0.5-1.7,1.9-2.4,3.6-1.9c1.7,0.5,2.7,1.9,2.3,3.5c-0.5,1.8-2.3,1.8-3.3,1.5c-0.2-0.1-0.4-0.1-0.5-0.2L829,345.6z M828.9,348.8
			c0.6,0.2,1.7,0.2,2.1-0.9c0.3-1-0.5-1.7-1.2-2L828.9,348.8z"/>
	</g>
	<ellipse class="st4" cx="845.5" cy="284.5" rx="9" ry="12.6"/>
	<rect x="151.2" y="207.6" class="st6" width="1075.2" height="243.7"/>
	<path class="st0" d="M261.8,215.9c2.1,0,3.8,1.7,3.8,3.8s-1.7,3.8-3.8,3.8s-3.8-1.7-3.8-3.8S259.6,215.9,261.8,215.9L261.8,215.9z"
		/>
	<path class="st0" d="M261.8,414.4c2.1,0,3.8,1.7,3.8,3.8s-1.7,3.8-3.8,3.8s-3.8-1.7-3.8-3.8C257.9,416.1,259.6,414.4,261.8,414.4
		L261.8,414.4z"/>
	<path class="st0" d="M397.8,215.9c2.1,0,3.8,1.7,3.8,3.8s-1.7,3.8-3.8,3.8s-3.8-1.7-3.8-3.8S395.6,215.9,397.8,215.9L397.8,215.9z"
		/>
	<path class="st0" d="M397.8,414.1c2.1,0,3.8,1.7,3.8,3.8s-1.7,3.8-3.8,3.8s-3.8-1.7-3.8-3.8C393.9,415.8,395.6,414.1,397.8,414.1
		L397.8,414.1z"/>
</g>
<g id="Panels" class="st7">
	<g id="CAD_1_" class="st8">
		<line class="st9" x1="145" y1="467.3" x2="145" y2="195.8"/>
		<line class="st9" x1="151.2" y1="204.3" x2="151.2" y2="254.4"/>
		<line class="st9" x1="151.2" y1="258.9" x2="151.2" y2="266.6"/>
		<line class="st9" x1="151.2" y1="271.1" x2="151.2" y2="323.3"/>
		<line class="st9" x1="151.2" y1="327.8" x2="151.2" y2="335.5"/>
		<line class="st9" x1="151.2" y1="340" x2="151.2" y2="392.1"/>
		<line class="st9" x1="151.2" y1="396.7" x2="151.2" y2="404.3"/>
		<line class="st9" x1="151.2" y1="408.8" x2="151.2" y2="458.4"/>
		<line class="st9" x1="630" y1="202" x2="650.8" y2="222.8"/>
		<line class="st9" x1="661.7" y1="233.6" x2="682.4" y2="254.4"/>
		<line class="st9" x1="167.4" y1="288.6" x2="167.4" y2="285.5"/>
		<line class="st9" x1="167.4" y1="289.5" x2="167.4" y2="292.6"/>
		<line class="st9" x1="151.2" y1="254.4" x2="171.9" y2="233.6"/>
		<line class="st9" x1="182.7" y1="223.6" x2="204.3" y2="202"/>
		<line class="st9" x1="682.4" y1="258.9" x2="653.8" y2="230.3"/>
		<line class="st9" x1="651.3" y1="227.8" x2="645.3" y2="221.8"/>
		<line class="st9" x1="640" y1="216.4" x2="625.5" y2="202"/>
		<line class="st9" x1="179.8" y1="433" x2="179.8" y2="368"/>
		<line class="st9" x1="179.8" y1="364.1" x2="179.8" y2="299.1"/>
		<line class="st9" x1="179.8" y1="295.2" x2="179.8" y2="230.3"/>
		<line class="st9" x1="184.4" y1="430.8" x2="184.4" y2="232.3"/>
		<line class="st9" x1="183.3" y1="226.8" x2="182.3" y2="227.8"/>
		<line class="st9" x1="179.8" y1="230.3" x2="151.2" y2="258.9"/>
		<line class="st9" x1="208.8" y1="202" x2="194.9" y2="215.9"/>
		<line class="st9" x1="187.8" y1="223" x2="184.1" y2="226.8"/>
		<line class="st9" x1="562" y1="202" x2="587.3" y2="227.3"/>
		<line class="st9" x1="656.3" y1="297.2" x2="682.4" y2="323.3"/>
		<line class="st9" x1="583.3" y1="227.8" x2="557.5" y2="202"/>
		<line class="st9" x1="682.4" y1="327.8" x2="653.8" y2="299.1"/>
		<line class="st9" x1="247.1" y1="227.3" x2="272.3" y2="202"/>
		<line class="st9" x1="151.2" y1="323.3" x2="177.3" y2="297.2"/>
		<line class="st9" x1="276.9" y1="202" x2="251.1" y2="227.8"/>
		<line class="st9" x1="179.8" y1="299.1" x2="151.2" y2="327.8"/>
		<line class="st9" x1="494" y1="202" x2="519.2" y2="227.3"/>
		<line class="st9" x1="656.3" y1="366.1" x2="663" y2="372.7"/>
		<line class="st9" x1="667.6" y1="377.4" x2="682.4" y2="392.1"/>
		<line class="st9" x1="515.3" y1="227.8" x2="489.5" y2="202"/>
		<line class="st9" x1="682.4" y1="396.7" x2="653.8" y2="368"/>
		<line class="st9" x1="315.1" y1="227.3" x2="340.4" y2="202"/>
		<line class="st9" x1="151.2" y1="392.1" x2="177.3" y2="366.1"/>
		<line class="st9" x1="344.9" y1="202" x2="319.1" y2="227.8"/>
		<line class="st9" x1="179.8" y1="368" x2="151.2" y2="396.7"/>
		<line class="st9" x1="145" y1="195.8" x2="688.7" y2="195.8"/>
		<line class="st9" x1="679.2" y1="202" x2="630" y2="202"/>
		<line class="st9" x1="625.5" y1="202" x2="617" y2="202"/>
		<line class="st9" x1="612.5" y1="202" x2="562" y2="202"/>
		<line class="st9" x1="557.5" y1="202" x2="549" y2="202"/>
		<line class="st9" x1="544.5" y1="202" x2="494" y2="202"/>
		<line class="st9" x1="489.5" y1="202" x2="480.9" y2="202"/>
		<line class="st9" x1="476.4" y1="202" x2="426" y2="202"/>
		<line class="st9" x1="421.4" y1="202" x2="412.9" y2="202"/>
		<line class="st9" x1="408.4" y1="202" x2="357.9" y2="202"/>
		<line class="st9" x1="353.4" y1="202" x2="344.9" y2="202"/>
		<line class="st9" x1="340.4" y1="202" x2="289.9" y2="202"/>
		<line class="st9" x1="285.4" y1="202" x2="276.9" y2="202"/>
		<line class="st9" x1="272.3" y1="202" x2="221.9" y2="202"/>
		<line class="st9" x1="217.3" y1="202" x2="208.8" y2="202"/>
		<line class="st9" x1="204.3" y1="202" x2="154.4" y2="202"/>
		<line class="st9" x1="183.3" y1="226.8" x2="184.1" y2="226.8"/>
		<line class="st9" x1="651.3" y1="227.8" x2="646.4" y2="227.8"/>
		<line class="st9" x1="623.8" y1="227.8" x2="591.2" y2="227.8"/>
		<line class="st9" x1="583.3" y1="227.8" x2="523.2" y2="227.8"/>
		<line class="st9" x1="515.3" y1="227.8" x2="462.1" y2="227.8"/>
		<line class="st9" x1="439.5" y1="227.8" x2="427.6" y2="227.8"/>
		<line class="st9" x1="406" y1="227.8" x2="387.1" y2="227.8"/>
		<line class="st9" x1="379.2" y1="227.8" x2="319.1" y2="227.8"/>
		<line class="st9" x1="311.2" y1="227.8" x2="251.1" y2="227.8"/>
		<line class="st9" x1="243.1" y1="227.8" x2="209.8" y2="227.8"/>
		<line class="st9" x1="187.3" y1="227.8" x2="182.3" y2="227.8"/>
		<line class="st9" x1="184.4" y1="232.3" x2="188.7" y2="232.3"/>
		<line class="st9" x1="208.4" y1="232.3" x2="411" y2="232.3"/>
		<line class="st9" x1="422.7" y1="232.3" x2="441" y2="232.3"/>
		<line class="st9" x1="460.6" y1="232.3" x2="625.3" y2="232.3"/>
		<line class="st9" x1="644.9" y1="232.3" x2="649.3" y2="232.3"/>
		<line class="st9" x1="673.7" y1="449.6" x2="682.4" y2="458.3"/>
		<line class="st9" x1="426" y1="202" x2="442.7" y2="218.8"/>
		<line class="st9" x1="440.8" y1="221.4" x2="421.4" y2="202"/>
		<line class="st9" x1="679.6" y1="461.1" x2="671" y2="452.4"/>
		<line class="st9" x1="151.2" y1="458.4" x2="159.9" y2="449.7"/>
		<line class="st9" x1="162.7" y1="452.4" x2="154" y2="461.1"/>
		<line class="st9" x1="383.2" y1="227.3" x2="408.4" y2="202"/>
		<line class="st9" x1="412.9" y1="202" x2="387.1" y2="227.8"/>
		<line class="st9" x1="591.6" y1="435.3" x2="617.4" y2="461.1"/>
		<line class="st9" x1="357.9" y1="202" x2="383.2" y2="227.3"/>
		<line class="st9" x1="612.9" y1="461.1" x2="587.3" y2="435.4"/>
		<line class="st9" x1="379.2" y1="227.8" x2="353.4" y2="202"/>
		<line class="st9" x1="216.9" y1="461.1" x2="242.7" y2="435.3"/>
		<line class="st9" x1="459.3" y1="219.1" x2="476.4" y2="202"/>
		<line class="st9" x1="247.1" y1="435.4" x2="221.4" y2="461.1"/>
		<line class="st9" x1="480.9" y1="202" x2="461.1" y2="221.9"/>
		<line class="st9" x1="523.6" y1="435.3" x2="549.4" y2="461.1"/>
		<line class="st9" x1="289.9" y1="202" x2="315.1" y2="227.3"/>
		<line class="st9" x1="544.9" y1="461.1" x2="519.2" y2="435.4"/>
		<line class="st9" x1="311.2" y1="227.8" x2="285.4" y2="202"/>
		<line class="st9" x1="285" y1="461.1" x2="310.7" y2="435.3"/>
		<line class="st9" x1="519.2" y1="227.3" x2="544.5" y2="202"/>
		<line class="st9" x1="315.1" y1="435.4" x2="289.5" y2="461.1"/>
		<line class="st9" x1="549" y1="202" x2="523.2" y2="227.8"/>
		<line class="st9" x1="455.6" y1="435.3" x2="481.4" y2="461.1"/>
		<line class="st9" x1="221.9" y1="202" x2="247.1" y2="227.3"/>
		<line class="st9" x1="476.9" y1="461.1" x2="451.2" y2="435.4"/>
		<line class="st9" x1="243.1" y1="227.8" x2="217.3" y2="202"/>
		<line class="st9" x1="353" y1="461.1" x2="372.6" y2="441.5"/>
		<line class="st9" x1="587.3" y1="227.3" x2="612.5" y2="202"/>
		<line class="st9" x1="374.5" y1="444.1" x2="357.5" y2="461.1"/>
		<line class="st9" x1="617" y1="202" x2="591.2" y2="227.8"/>
		<line class="st9" x1="649.3" y1="430.8" x2="644.9" y2="430.8"/>
		<line class="st9" x1="625.3" y1="430.8" x2="422.7" y2="430.8"/>
		<line class="st9" x1="411" y1="430.8" x2="392.6" y2="430.8"/>
		<line class="st9" x1="373" y1="430.8" x2="208.4" y2="430.8"/>
		<line class="st9" x1="188.7" y1="430.8" x2="184.4" y2="430.8"/>
		<line class="st9" x1="183.5" y1="435.3" x2="187.3" y2="435.3"/>
		<line class="st9" x1="209.8" y1="435.3" x2="242.7" y2="435.3"/>
		<line class="st9" x1="251.5" y1="435.3" x2="310.7" y2="435.3"/>
		<line class="st9" x1="319.5" y1="435.3" x2="371.5" y2="435.3"/>
		<line class="st9" x1="394.1" y1="435.3" x2="406" y2="435.3"/>
		<line class="st9" x1="427.6" y1="435.3" x2="446.8" y2="435.3"/>
		<line class="st9" x1="455.6" y1="435.3" x2="514.8" y2="435.3"/>
		<line class="st9" x1="523.6" y1="435.3" x2="582.9" y2="435.3"/>
		<line class="st9" x1="591.6" y1="435.3" x2="623.8" y2="435.3"/>
		<line class="st9" x1="646.4" y1="435.3" x2="650.9" y2="435.3"/>
		<line class="st9" x1="393.2" y1="441" x2="413.3" y2="461.1"/>
		<line class="st9" x1="408.8" y1="461.1" x2="391.5" y2="443.7"/>
		<line class="st9" x1="154.4" y1="202" x2="162.9" y2="210.5"/>
		<line class="st9" x1="160.1" y1="213.2" x2="151.2" y2="204.3"/>
		<line class="st9" x1="670.7" y1="210.5" x2="679.2" y2="202"/>
		<line class="st9" x1="421" y1="461.1" x2="446.8" y2="435.3"/>
		<line class="st9" x1="451.2" y1="435.4" x2="425.5" y2="461.1"/>
		<line class="st9" x1="682.4" y1="204.4" x2="673.5" y2="213.2"/>
		<line class="st9" x1="154" y1="461.1" x2="204.7" y2="461.1"/>
		<line class="st9" x1="209.2" y1="461.1" x2="216.9" y2="461.1"/>
		<line class="st9" x1="221.4" y1="461.1" x2="272.8" y2="461.1"/>
		<line class="st9" x1="277.3" y1="461.1" x2="285" y2="461.1"/>
		<line class="st9" x1="289.5" y1="461.1" x2="340.8" y2="461.1"/>
		<line class="st9" x1="345.3" y1="461.1" x2="353" y2="461.1"/>
		<line class="st9" x1="357.5" y1="461.1" x2="408.8" y2="461.1"/>
		<line class="st9" x1="413.3" y1="461.1" x2="421" y2="461.1"/>
		<line class="st9" x1="425.5" y1="461.1" x2="476.9" y2="461.1"/>
		<line class="st9" x1="481.4" y1="461.1" x2="489" y2="461.1"/>
		<line class="st9" x1="493.6" y1="461.1" x2="544.9" y2="461.1"/>
		<line class="st9" x1="549.4" y1="461.1" x2="557.1" y2="461.1"/>
		<line class="st9" x1="561.6" y1="461.1" x2="612.9" y2="461.1"/>
		<line class="st9" x1="617.4" y1="461.1" x2="625.1" y2="461.1"/>
		<line class="st9" x1="629.6" y1="461.1" x2="679.6" y2="461.1"/>
		<line class="st9" x1="688.7" y1="467.3" x2="145" y2="467.3"/>
		<line class="st9" x1="151.2" y1="266.6" x2="179.8" y2="295.2"/>
		<line class="st9" x1="319.5" y1="435.3" x2="345.3" y2="461.1"/>
		<line class="st9" x1="653.8" y1="295.2" x2="682.4" y2="266.6"/>
		<line class="st9" x1="489" y1="461.1" x2="514.8" y2="435.3"/>
		<line class="st9" x1="177.3" y1="297.2" x2="170.6" y2="290.5"/>
		<line class="st9" x1="165.9" y1="285.8" x2="151.2" y2="271.1"/>
		<line class="st9" x1="340.8" y1="461.1" x2="315.1" y2="435.4"/>
		<line class="st9" x1="682.4" y1="271.1" x2="656.3" y2="297.2"/>
		<line class="st9" x1="519.2" y1="435.4" x2="493.6" y2="461.1"/>
		<line class="st9" x1="251.5" y1="435.3" x2="277.3" y2="461.1"/>
		<line class="st9" x1="151.2" y1="335.5" x2="179.8" y2="364.1"/>
		<line class="st9" x1="272.8" y1="461.1" x2="247.1" y2="435.4"/>
		<line class="st9" x1="177.3" y1="366.1" x2="151.2" y2="340"/>
		<line class="st9" x1="653.8" y1="364.1" x2="682.4" y2="335.5"/>
		<line class="st9" x1="557.1" y1="461.1" x2="582.9" y2="435.3"/>
		<line class="st9" x1="682.4" y1="340" x2="656.3" y2="366.1"/>
		<line class="st9" x1="587.3" y1="435.4" x2="561.6" y2="461.1"/>
		<line class="st9" x1="183.5" y1="435.3" x2="187.6" y2="439.5"/>
		<line class="st9" x1="195.5" y1="447.4" x2="209.2" y2="461.1"/>
		<line class="st9" x1="151.2" y1="404.3" x2="179.8" y2="433"/>
		<line class="st9" x1="204.7" y1="461.1" x2="182.5" y2="438.9"/>
		<line class="st9" x1="171.8" y1="429.5" x2="151.2" y2="408.8"/>
		<line class="st9" x1="649.3" y1="232.3" x2="649.3" y2="430.8"/>
		<line class="st9" x1="653.8" y1="433" x2="653.8" y2="368"/>
		<line class="st9" x1="653.8" y1="364.1" x2="653.8" y2="299.1"/>
		<line class="st9" x1="653.8" y1="295.2" x2="653.8" y2="230.3"/>
		<line class="st9" x1="625.1" y1="461.1" x2="639.2" y2="447"/>
		<line class="st9" x1="645.6" y1="440.6" x2="650.9" y2="435.3"/>
		<line class="st9" x1="653.8" y1="433" x2="682.4" y2="404.3"/>
		<line class="st9" x1="650.9" y1="439.9" x2="629.6" y2="461.1"/>
		<line class="st9" x1="682.4" y1="408.8" x2="661.8" y2="429.5"/>
		<line class="st9" x1="666.3" y1="373.7" x2="666.3" y2="370.5"/>
		<line class="st9" x1="666.3" y1="374.5" x2="666.3" y2="377.6"/>
		<line class="st9" x1="682.4" y1="458.3" x2="682.4" y2="408.8"/>
		<line class="st9" x1="682.4" y1="404.3" x2="682.4" y2="396.7"/>
		<line class="st9" x1="682.4" y1="392.1" x2="682.4" y2="340"/>
		<line class="st9" x1="682.4" y1="335.5" x2="682.4" y2="327.8"/>
		<line class="st9" x1="682.4" y1="323.3" x2="682.4" y2="271.1"/>
		<line class="st9" x1="682.4" y1="266.6" x2="682.4" y2="258.9"/>
		<line class="st9" x1="682.4" y1="254.4" x2="682.4" y2="204.4"/>
		<line class="st9" x1="688.7" y1="195.8" x2="688.7" y2="467.3"/>
		<path class="st9" d="M182.7,223.6c1.5-6.9-2.9-13.7-9.8-15.1c-3.4-0.7-7,0-9.9,2"/>
		<path class="st9" d="M160.1,213.2c-4.3,5.6-3.3,13.6,2.3,17.9c2.7,2.1,6.2,3,9.5,2.5"/>
		<path class="st9" d="M209.8,227.8c0.6-6.2-3.9-11.8-10.1-12.4c-1.6-0.2-3.2,0-4.8,0.5"/>
		<path class="st9" d="M187.8,223c-0.5,1.5-0.7,3.2-0.5,4.8"/>
		<path class="st9" d="M188.7,232.3c3.1,5.4,10.1,7.3,15.5,4.2c1.7-1,3.2-2.4,4.2-4.2"/>
		<path class="st9" d="M167.4,285.5c2,0,3.5,1.6,3.5,3.5s-1.6,3.5-3.5,3.5c-2,0-3.5-1.6-3.5-3.5S165.4,285.5,167.4,285.5
			L167.4,285.5z"/>
		<path class="st9" d="M167.4,288.6c0.2,0,0.4,0.2,0.4,0.4c0,0.2-0.2,0.4-0.4,0.4s-0.4-0.2-0.4-0.4
			C167,288.8,167.1,288.6,167.4,288.6L167.4,288.6z"/>
		<path class="st9" d="M411,232.3c3.7,1.9,8,1.9,11.7,0"/>
		<path class="st9" d="M427.6,227.8c3.8-6,2-13.8-4-17.6s-13.8-2-17.6,4c-2.6,4.2-2.6,9.4,0,13.6"/>
		<path class="st9" d="M670.7,210.5c-5.8-4-13.7-2.6-17.8,3.2c-1.8,2.6-2.6,5.9-2.2,9"/>
		<path class="st9" d="M661.7,233.6c7,1,13.4-3.9,14.4-10.9c0.5-3.4-0.4-6.8-2.5-9.5"/>
		<path class="st9" d="M646.4,227.8c0.2-2.1-0.2-4.1-1.1-6"/>
		<path class="st9" d="M462.1,227.8c0.2-2-0.1-4.1-1-5.9"/>
		<path class="st9" d="M640,216.4c-5.7-2.7-12.4-0.3-15.1,5.3c-0.9,1.9-1.3,4-1.1,6"/>
		<path class="st9" d="M459.3,219.1c-4.2-4.7-11.3-5.1-16-0.9c-0.2,0.2-0.4,0.4-0.6,0.6"/>
		<path class="st9" d="M625.3,232.3c3.1,5.4,10.1,7.3,15.5,4.2c1.7-1,3.2-2.4,4.2-4.2"/>
		<path class="st9" d="M441,232.3c3.1,5.4,10.1,7.3,15.5,4.2c1.7-1,3.2-2.4,4.2-4.2"/>
		<path class="st9" d="M440.8,221.4c-1,2-1.5,4.2-1.3,6.4"/>
		<path class="st9" d="M450.8,219.6c3.9,0,7.1,3.2,7.1,7.1c0,3.9-3.2,7.1-7.1,7.1s-7.1-3.2-7.1-7.1
			C443.7,222.8,446.9,219.6,450.8,219.6L450.8,219.6z"/>
		<path class="st9" d="M171.8,429.5c-7-0.9-13.4,4-14.3,11c-0.4,3.2,0.4,6.5,2.4,9.2"/>
		<path class="st9" d="M162.7,452.4c5.7,4.2,13.7,2.9,17.8-2.8c2.3-3.1,3-7,2.1-10.7"/>
		<path class="st9" d="M187.3,435.3c-0.1,1.4,0,2.8,0.4,4.2"/>
		<path class="st9" d="M195.5,447.4c6,1.7,12.3-1.9,14-7.9c0.4-1.4,0.5-2.8,0.4-4.2"/>
		<path class="st9" d="M371.5,435.3c-0.2,2.1,0.2,4.2,1.1,6.2"/>
		<path class="st9" d="M374.5,444.1c4.2,4.6,11.4,4.9,16,0.6c0.3-0.3,0.7-0.7,1-1"/>
		<path class="st9" d="M208.4,430.8c-3.1-5.4-10.1-7.3-15.5-4.2c-1.7,1-3.2,2.4-4.2,4.2"/>
		<path class="st9" d="M392.6,430.8c-3.1-5.4-10.1-7.3-15.5-4.2c-1.7,1-3.2,2.4-4.2,4.2"/>
		<path class="st9" d="M393.2,441c0.8-1.8,1.1-3.7,0.9-5.7"/>
		<path class="st9" d="M382.8,429.4c3.9,0,7.1,3.2,7.1,7.1s-3.2,7.1-7.1,7.1s-7.1-3.2-7.1-7.1S378.9,429.4,382.8,429.4L382.8,429.4z
			"/>
		<path class="st9" d="M422.7,430.8c-3.7-1.9-8-1.9-11.7,0"/>
		<path class="st9" d="M406,435.3c-3.8,6-2,13.8,4,17.6c6,3.8,13.8,2,17.6-4c2.6-4.2,2.6-9.4,0-13.6"/>
		<path class="st9" d="M650.9,439.9c-1.2,6.9,3.4,13.6,10.3,14.8c3.4,0.6,7-0.2,9.8-2.3"/>
		<path class="st9" d="M673.7,449.6c4.2-5.7,2.9-13.7-2.8-17.8c-2.6-1.9-5.9-2.8-9.1-2.4"/>
		<path class="st9" d="M623.8,435.3c-0.6,6.2,3.9,11.8,10.1,12.4c1.8,0.2,3.6-0.1,5.3-0.7"/>
		<path class="st9" d="M645.6,440.6c0.7-1.7,0.9-3.5,0.7-5.3"/>
		<path class="st9" d="M644.9,430.8c-3.1-5.4-10.1-7.3-15.5-4.2c-1.7,1-3.2,2.4-4.2,4.2"/>
		<path class="st9" d="M666.3,370.5c2,0,3.5,1.6,3.5,3.5c0,2-1.6,3.5-3.5,3.5s-3.5-1.6-3.5-3.5C662.7,372.1,664.3,370.5,666.3,370.5
			L666.3,370.5z"/>
		<path class="st9" d="M666.3,373.7c0.2,0,0.4,0.2,0.4,0.4c0,0.2-0.2,0.4-0.4,0.4s-0.4-0.2-0.4-0.4S666,373.7,666.3,373.7
			L666.3,373.7z"/>
		<path class="st9" d="M663.4,235.2c6.3,0,11.3,5.1,11.3,11.3s-5.1,11.3-11.3,11.3s-11.3-5.1-11.3-11.3S657.2,235.2,663.4,235.2
			L663.4,235.2z"/>
		<path class="st9" d="M663.4,405.3c6.3,0,11.3,5.1,11.3,11.3c0,6.3-5.1,11.3-11.3,11.3s-11.3-5-11.3-11.3S657.2,405.3,663.4,405.3
			L663.4,405.3z"/>
		<path class="st9" d="M170.2,405.3c6.3,0,11.3,5.1,11.3,11.3c0,6.3-5.1,11.3-11.3,11.3c-6.3,0-11.3-5.1-11.3-11.3
			C158.9,410.3,163.9,405.3,170.2,405.3L170.2,405.3z"/>
		<path class="st9" d="M170.2,235.2c6.3,0,11.3,5.1,11.3,11.3s-5,11.4-11.3,11.4s-11.3-5.1-11.3-11.3S163.9,235.2,170.2,235.2
			L170.2,235.2z"/>
		<g id="ARC_24_">
			<path class="st10" d="M378.5,436.4c0,2.3,1.9,4.3,4.3,4.3s4.3-1.9,4.3-4.3s-1.9-4.3-4.3-4.3"/>
		</g>
		<g id="LINE_36_">
			<line class="st11" x1="382.8" y1="431.8" x2="382.8" y2="441.1"/>
		</g>
		<g id="LINE_35_">
			<line class="st11" x1="378.1" y1="436.4" x2="387.5" y2="436.4"/>
		</g>
		<g id="CIRCLE_24_">
			<path class="st12" d="M382.8,432.9c2,0,3.5,1.6,3.5,3.5s-1.6,3.5-3.5,3.5s-3.5-1.6-3.5-3.5S380.8,432.9,382.8,432.9L382.8,432.9z
				"/>
		</g>
		<g id="TEXT_24_">
			<text transform="matrix(0 1 -1 0 380.668 434.9611)" class="st13 st14 st15">M3</text>
		</g>
		<g id="ARC_23_">
			<path class="st10" d="M446.6,226.7c0,2.3,1.9,4.3,4.3,4.3s4.3-1.9,4.3-4.3s-1.9-4.3-4.3-4.3"/>
		</g>
		<g id="LINE_34_">
			<line class="st11" x1="450.8" y1="222" x2="450.8" y2="231.4"/>
		</g>
		<g id="LINE_33_">
			<line class="st11" x1="446.1" y1="226.7" x2="455.5" y2="226.7"/>
		</g>
		<g id="CIRCLE_23_">
			<path class="st12" d="M450.8,223.1c2,0,3.5,1.6,3.5,3.5c0,2-1.6,3.5-3.5,3.5s-3.5-1.6-3.5-3.5S448.9,223.1,450.8,223.1
				L450.8,223.1z"/>
		</g>
		<g id="TEXT_23_">
			<text transform="matrix(0 1 -1 0 448.6992 225.1973)" class="st13 st14 st15">M3</text>
		</g>
		<g id="ARC_22_">
			<path class="st10" d="M165.9,246.5c0,2.3,1.9,4.3,4.3,4.3s4.3-1.9,4.3-4.3c0-2.4-1.9-4.3-4.3-4.3"/>
		</g>
		<g id="LINE_32_">
			<line class="st11" x1="170.2" y1="241.8" x2="170.2" y2="251.2"/>
		</g>
		<g id="LINE_31_">
			<line class="st11" x1="165.5" y1="246.5" x2="174.9" y2="246.5"/>
		</g>
		<g id="CIRCLE_22_">
			<path class="st12" d="M170.2,243c2,0,3.5,1.6,3.5,3.5s-1.6,3.5-3.5,3.5s-3.5-1.6-3.5-3.5S168.2,243,170.2,243L170.2,243z"/>
		</g>
		<g id="TEXT_22_">
			<text transform="matrix(0 1 -1 0 168.0703 245.0401)" class="st13 st14 st15">M3</text>
		</g>
		<g id="ARC_21_">
			<path class="st10" d="M165.9,416.6c0,2.3,1.9,4.3,4.3,4.3s4.3-1.9,4.3-4.3s-1.9-4.3-4.3-4.3"/>
		</g>
		<g id="LINE_30_">
			<line class="st11" x1="170.2" y1="411.9" x2="170.2" y2="421.3"/>
		</g>
		<g id="LINE_29_">
			<line class="st11" x1="165.5" y1="416.6" x2="174.9" y2="416.6"/>
		</g>
		<g id="CIRCLE_21_">
			<path class="st12" d="M170.2,413.1c2,0,3.5,1.6,3.5,3.5s-1.6,3.5-3.5,3.5s-3.5-1.6-3.5-3.5S168.2,413.1,170.2,413.1L170.2,413.1z
				"/>
		</g>
		<g id="TEXT_21_">
			<text transform="matrix(0 1 -1 0 168.0703 415.1182)" class="st13 st14 st15">M3</text>
		</g>
		<g id="ARC_20_">
			<path class="st10" d="M659.2,246.5c0,2.3,1.9,4.3,4.3,4.3c2.3,0,4.3-1.9,4.3-4.3c0-2.4-1.9-4.3-4.3-4.3"/>
		</g>
		<g id="LINE_28_">
			<line class="st11" x1="663.4" y1="241.8" x2="663.4" y2="251.2"/>
		</g>
		<g id="LINE_27_">
			<line class="st11" x1="658.7" y1="246.5" x2="668.1" y2="246.5"/>
		</g>
		<g id="CIRCLE_20_">
			<path class="st12" d="M663.4,243c2,0,3.5,1.6,3.5,3.5s-1.6,3.5-3.5,3.5s-3.5-1.6-3.5-3.5S661.5,243,663.4,243L663.4,243z"/>
		</g>
		<g id="TEXT_20_">
			<text transform="matrix(0 1 -1 0 661.2969 245.0401)" class="st13 st14 st15">M3</text>
		</g>
		<g id="ARC_19_">
			<path class="st10" d="M659.2,416.6c0,2.3,1.9,4.3,4.3,4.3s4.3-1.9,4.3-4.3s-1.9-4.3-4.3-4.3"/>
		</g>
		<g id="LINE_26_">
			<line class="st11" x1="663.4" y1="411.9" x2="663.4" y2="421.3"/>
		</g>
		<g id="LINE_25_">
			<line class="st11" x1="658.7" y1="416.6" x2="668.1" y2="416.6"/>
		</g>
		<g id="CIRCLE_19_">
			<path class="st12" d="M663.4,413.1c2,0,3.5,1.6,3.5,3.5s-1.6,3.5-3.5,3.5s-3.5-1.6-3.5-3.5S661.5,413.1,663.4,413.1L663.4,413.1z
				"/>
		</g>
		<g id="TEXT_19_">
			<text transform="matrix(0 1 -1 0 661.2969 415.1182)" class="st13 st14 st15">M3</text>
		</g>
		<g id="POINT_188_">
			<line class="st16" x1="666.3" y1="374.1" x2="666.3" y2="374.1"/>
		</g>
		<g id="POINT_187_">
			<line class="st16" x1="666.2" y1="388.6" x2="666.2" y2="388.6"/>
		</g>
		<g id="POINT_186_">
			<line class="st16" x1="416.8" y1="331.6" x2="416.8" y2="331.6"/>
		</g>
		<g id="POINT_185_">
			<line class="st16" x1="666.3" y1="374.1" x2="666.3" y2="374.1"/>
		</g>
		<g id="POINT_184_">
			<line class="st16" x1="416.8" y1="331.6" x2="416.8" y2="331.6"/>
		</g>
		<g id="POINT_183_">
			<line class="st16" x1="167.4" y1="289" x2="167.4" y2="289"/>
		</g>
		<g id="POINT_182_">
			<line class="st16" x1="167.3" y1="315.2" x2="167.3" y2="315.2"/>
		</g>
		<g id="POINT_181_">
			<line class="st16" x1="416.8" y1="331.6" x2="416.8" y2="331.6"/>
		</g>
		<g id="POINT_180_">
			<line class="st16" x1="167.4" y1="289" x2="167.4" y2="289"/>
		</g>
		<g id="POINT_179_">
			<line class="st16" x1="138.7" y1="289.1" x2="138.7" y2="289.1"/>
		</g>
		<g id="POINT_178_">
			<line class="st16" x1="416.8" y1="331.6" x2="416.8" y2="331.6"/>
		</g>
		<g id="POINT_177_">
			<line class="st16" x1="170.2" y1="442.1" x2="170.2" y2="442.1"/>
		</g>
		<g id="POINT_176_">
			<line class="st16" x1="135.2" y1="442.1" x2="135.2" y2="442.1"/>
		</g>
		<g id="POINT_175_">
			<line class="st16" x1="416.8" y1="331.6" x2="416.8" y2="331.6"/>
		</g>
		<g id="POINT_174_">
			<line class="st16" x1="170.2" y1="221" x2="170.2" y2="221"/>
		</g>
		<g id="POINT_173_">
			<line class="st16" x1="140" y1="220.9" x2="140" y2="220.9"/>
		</g>
		<g id="POINT_172_">
			<line class="st16" x1="416.8" y1="331.6" x2="416.8" y2="331.6"/>
		</g>
		<g id="POINT_171_">
			<line class="st16" x1="382.8" y1="436.4" x2="382.8" y2="436.4"/>
		</g>
		<g id="POINT_170_">
			<line class="st16" x1="416.8" y1="331.6" x2="416.8" y2="331.6"/>
		</g>
		<g id="POINT_169_">
			<line class="st16" x1="416.8" y1="221" x2="416.8" y2="221"/>
		</g>
		<g id="POINT_168_">
			<line class="st16" x1="416.8" y1="331.6" x2="416.8" y2="331.6"/>
		</g>
		<g id="POINT_167_">
			<line class="st16" x1="450.8" y1="226.7" x2="450.8" y2="226.7"/>
		</g>
		<g id="POINT_166_">
			<line class="st16" x1="416.8" y1="331.6" x2="416.8" y2="331.6"/>
		</g>
		<g id="POINT_165_">
			<line class="st16" x1="416.8" y1="221" x2="416.8" y2="221"/>
		</g>
		<g id="POINT_164_">
			<line class="st16" x1="416.8" y1="331.6" x2="416.8" y2="331.6"/>
		</g>
		<g id="POINT_163_">
			<line class="st16" x1="416.8" y1="442.1" x2="416.8" y2="442.1"/>
		</g>
		<g id="POINT_162_">
			<line class="st16" x1="416.8" y1="331.6" x2="416.8" y2="331.6"/>
		</g>
		<g id="POINT_161_">
			<line class="st16" x1="688.7" y1="195.8" x2="688.7" y2="195.8"/>
		</g>
		<g id="POINT_160_">
			<line class="st16" x1="688.7" y1="467.3" x2="688.7" y2="467.3"/>
		</g>
		<g id="POINT_159_">
			<line class="st16" x1="688.7" y1="467.3" x2="688.7" y2="467.3"/>
		</g>
		<g id="POINT_158_">
			<line class="st16" x1="145" y1="467.3" x2="145" y2="467.3"/>
		</g>
		<g id="POINT_157_">
			<line class="st16" x1="663.4" y1="246.5" x2="663.4" y2="246.5"/>
		</g>
		<g id="POINT_156_">
			<line class="st16" x1="416.8" y1="331.6" x2="416.8" y2="331.6"/>
		</g>
		<g id="POINT_155_">
			<line class="st16" x1="663.4" y1="416.6" x2="663.4" y2="416.6"/>
		</g>
		<g id="POINT_154_">
			<line class="st16" x1="697.6" y1="416.7" x2="697.6" y2="416.7"/>
		</g>
		<g id="POINT_153_">
			<line class="st16" x1="416.8" y1="331.6" x2="416.8" y2="331.6"/>
		</g>
		<g id="POINT_152_">
			<line class="st16" x1="663.4" y1="246.5" x2="663.4" y2="246.5"/>
		</g>
		<g id="POINT_151_">
			<line class="st16" x1="416.8" y1="331.6" x2="416.8" y2="331.6"/>
		</g>
		<g id="POINT_150_">
			<line class="st16" x1="663.4" y1="416.6" x2="663.4" y2="416.6"/>
		</g>
		<g id="POINT_149_">
			<line class="st16" x1="416.8" y1="331.6" x2="416.8" y2="331.6"/>
		</g>
		<g id="POINT_148_">
			<line class="st16" x1="170.2" y1="416.6" x2="170.2" y2="416.6"/>
		</g>
		<g id="POINT_147_">
			<line class="st16" x1="416.8" y1="331.6" x2="416.8" y2="331.6"/>
		</g>
		<g id="POINT_146_">
			<line class="st16" x1="170.2" y1="246.5" x2="170.2" y2="246.5"/>
		</g>
		<g id="POINT_145_">
			<line class="st16" x1="416.8" y1="331.6" x2="416.8" y2="331.6"/>
		</g>
		<g id="POINT_144_">
			<line class="st16" x1="450.8" y1="226.7" x2="450.8" y2="226.7"/>
		</g>
		<g id="POINT_143_">
			<line class="st16" x1="483.9" y1="247.2" x2="483.9" y2="247.2"/>
		</g>
		<g id="POINT_142_">
			<line class="st16" x1="382.8" y1="436.4" x2="382.8" y2="436.4"/>
		</g>
	</g>
	<g id="Mount_Holes_Only_1_" class="st8">
		<circle class="st0" cx="170.2" cy="246.5" r="6.1"/>
		<circle class="st0" cx="167.4" cy="289" r="4.3"/>
		<circle class="st0" cx="170.2" cy="416.6" r="6.1"/>
		<circle class="st0" cx="663.4" cy="246.5" r="6.1"/>
		<circle class="st0" cx="663.5" cy="416.6" r="6.1"/>
		<circle class="st0" cx="666.3" cy="374" r="4.3"/>
		<circle class="st0" cx="450.9" cy="226.6" r="6.1"/>
		<circle class="st0" cx="382.8" cy="436.4" r="6.1"/>
		<g id="LWPOLYLINE_13_">
			<path class="st0" d="M206.7,371.8h31.2c1.6,0,2.8-1.3,2.8-2.8v-82.2c0-1.6-1.3-2.8-2.8-2.8h-31.2c-1.6,0-2.8,1.3-2.8,2.8V369
				C203.8,370.4,205.1,371.8,206.7,371.8z"/>
		</g>
		<g id="LWPOLYLINE_12_">
			<path class="st0" d="M485.3,296.9c0-1.7-1.3-3-2.8-3h-62.4c-1.6,0-2.8,1.4-2.8,3v41.9c0,1.7,1.3,3,2.8,3h62.4
				c1.6,0,2.8-1.4,2.8-3V296.9z"/>
		</g>
		<line class="st9" x1="689" y1="467.3" x2="689" y2="195.8"/>
		<line class="st9" x1="695.2" y1="204.3" x2="695.2" y2="254.4"/>
		<line class="st9" x1="695.2" y1="258.9" x2="695.2" y2="266.6"/>
		<line class="st9" x1="695.2" y1="271.1" x2="695.2" y2="323.3"/>
		<line class="st9" x1="695.2" y1="327.8" x2="695.2" y2="335.5"/>
		<line class="st9" x1="695.2" y1="340" x2="695.2" y2="392.1"/>
		<line class="st9" x1="695.2" y1="396.7" x2="695.2" y2="404.3"/>
		<line class="st9" x1="695.2" y1="408.8" x2="695.2" y2="458.4"/>
		<line class="st9" x1="1174" y1="202" x2="1194.8" y2="222.8"/>
		<line class="st9" x1="1205.7" y1="233.6" x2="1226.4" y2="254.4"/>
		<line class="st9" x1="711.4" y1="288.6" x2="711.4" y2="285.5"/>
		<line class="st9" x1="711.4" y1="289.5" x2="711.4" y2="292.6"/>
		<line class="st9" x1="695.2" y1="254.4" x2="715.9" y2="233.6"/>
		<line class="st9" x1="726.7" y1="223.6" x2="748.3" y2="202"/>
		<line class="st9" x1="1226.4" y1="258.9" x2="1197.8" y2="230.3"/>
		<line class="st9" x1="1195.3" y1="227.8" x2="1189.3" y2="221.8"/>
		<line class="st9" x1="1184" y1="216.4" x2="1169.5" y2="202"/>
		<line class="st9" x1="723.8" y1="433" x2="723.8" y2="368"/>
		<line class="st9" x1="723.8" y1="364.1" x2="723.8" y2="299.1"/>
		<line class="st9" x1="723.8" y1="295.2" x2="723.8" y2="230.3"/>
		<line class="st9" x1="728.4" y1="430.8" x2="728.4" y2="232.3"/>
		<line class="st9" x1="727.3" y1="226.8" x2="726.3" y2="227.8"/>
		<line class="st9" x1="723.8" y1="230.3" x2="695.2" y2="258.9"/>
		<line class="st9" x1="752.8" y1="202" x2="738.9" y2="215.9"/>
		<line class="st9" x1="731.8" y1="223" x2="728.1" y2="226.8"/>
		<line class="st9" x1="1106" y1="202" x2="1131.3" y2="227.3"/>
		<line class="st9" x1="1200.3" y1="297.2" x2="1226.4" y2="323.3"/>
		<line class="st9" x1="1127.3" y1="227.8" x2="1101.5" y2="202"/>
		<line class="st9" x1="1226.4" y1="327.8" x2="1197.8" y2="299.1"/>
		<line class="st9" x1="791.1" y1="227.3" x2="816.3" y2="202"/>
		<line class="st9" x1="695.2" y1="323.3" x2="721.3" y2="297.2"/>
		<line class="st9" x1="820.9" y1="202" x2="795.1" y2="227.8"/>
		<line class="st9" x1="723.8" y1="299.1" x2="695.2" y2="327.8"/>
		<line class="st9" x1="1038" y1="202" x2="1063.2" y2="227.3"/>
		<line class="st9" x1="1200.3" y1="366.1" x2="1207" y2="372.7"/>
		<line class="st9" x1="1211.6" y1="377.4" x2="1226.4" y2="392.1"/>
		<line class="st9" x1="1059.3" y1="227.8" x2="1033.5" y2="202"/>
		<line class="st9" x1="1226.4" y1="396.7" x2="1197.8" y2="368"/>
		<line class="st9" x1="859.1" y1="227.3" x2="884.4" y2="202"/>
		<line class="st9" x1="695.2" y1="392.1" x2="721.3" y2="366.1"/>
		<line class="st9" x1="888.9" y1="202" x2="863.1" y2="227.8"/>
		<line class="st9" x1="723.8" y1="368" x2="695.2" y2="396.7"/>
		<line class="st9" x1="689" y1="195.8" x2="1232.7" y2="195.8"/>
		<line class="st9" x1="1223.2" y1="202" x2="1174" y2="202"/>
		<line class="st9" x1="1169.5" y1="202" x2="1161" y2="202"/>
		<line class="st9" x1="1156.5" y1="202" x2="1106" y2="202"/>
		<line class="st9" x1="1101.5" y1="202" x2="1093" y2="202"/>
		<line class="st9" x1="1088.5" y1="202" x2="1038" y2="202"/>
		<line class="st9" x1="1033.5" y1="202" x2="1024.9" y2="202"/>
		<line class="st9" x1="1020.4" y1="202" x2="970" y2="202"/>
		<line class="st9" x1="965.4" y1="202" x2="956.9" y2="202"/>
		<line class="st9" x1="952.4" y1="202" x2="901.9" y2="202"/>
		<line class="st9" x1="897.4" y1="202" x2="888.9" y2="202"/>
		<line class="st9" x1="884.4" y1="202" x2="833.9" y2="202"/>
		<line class="st9" x1="829.4" y1="202" x2="820.9" y2="202"/>
		<line class="st9" x1="816.3" y1="202" x2="765.9" y2="202"/>
		<line class="st9" x1="761.3" y1="202" x2="752.8" y2="202"/>
		<line class="st9" x1="748.3" y1="202" x2="698.4" y2="202"/>
		<line class="st9" x1="727.3" y1="226.8" x2="728.1" y2="226.8"/>
		<line class="st9" x1="1195.3" y1="227.8" x2="1190.4" y2="227.8"/>
		<line class="st9" x1="1167.8" y1="227.8" x2="1135.2" y2="227.8"/>
		<line class="st9" x1="1127.3" y1="227.8" x2="1067.2" y2="227.8"/>
		<line class="st9" x1="1059.3" y1="227.8" x2="1006.1" y2="227.8"/>
		<line class="st9" x1="983.5" y1="227.8" x2="971.6" y2="227.8"/>
		<line class="st9" x1="950" y1="227.8" x2="931.1" y2="227.8"/>
		<line class="st9" x1="923.2" y1="227.8" x2="863.1" y2="227.8"/>
		<line class="st9" x1="855.2" y1="227.8" x2="795.1" y2="227.8"/>
		<line class="st9" x1="787.1" y1="227.8" x2="753.8" y2="227.8"/>
		<line class="st9" x1="731.3" y1="227.8" x2="726.3" y2="227.8"/>
		<line class="st9" x1="728.4" y1="232.3" x2="732.7" y2="232.3"/>
		<line class="st9" x1="752.4" y1="232.3" x2="955" y2="232.3"/>
		<line class="st9" x1="966.7" y1="232.3" x2="985" y2="232.3"/>
		<line class="st9" x1="1004.6" y1="232.3" x2="1169.3" y2="232.3"/>
		<line class="st9" x1="1188.9" y1="232.3" x2="1193.3" y2="232.3"/>
		<line class="st9" x1="1217.7" y1="449.6" x2="1226.4" y2="458.3"/>
		<line class="st9" x1="970" y1="202" x2="986.7" y2="218.8"/>
		<line class="st9" x1="984.8" y1="221.4" x2="965.4" y2="202"/>
		<line class="st9" x1="1223.6" y1="461.1" x2="1215" y2="452.4"/>
		<line class="st9" x1="695.2" y1="458.4" x2="703.9" y2="449.7"/>
		<line class="st9" x1="706.7" y1="452.4" x2="698" y2="461.1"/>
		<line class="st9" x1="927.2" y1="227.3" x2="952.4" y2="202"/>
		<line class="st9" x1="956.9" y1="202" x2="931.1" y2="227.8"/>
		<line class="st9" x1="1135.6" y1="435.3" x2="1161.4" y2="461.1"/>
		<line class="st9" x1="901.9" y1="202" x2="927.2" y2="227.3"/>
		<line class="st9" x1="1156.9" y1="461.1" x2="1131.3" y2="435.4"/>
		<line class="st9" x1="923.2" y1="227.8" x2="897.4" y2="202"/>
		<line class="st9" x1="760.9" y1="461.1" x2="786.7" y2="435.3"/>
		<line class="st9" x1="1003.3" y1="219.1" x2="1020.4" y2="202"/>
		<line class="st9" x1="791.1" y1="435.4" x2="765.4" y2="461.1"/>
		<line class="st9" x1="1024.9" y1="202" x2="1005.1" y2="221.9"/>
		<line class="st9" x1="1067.6" y1="435.3" x2="1093.4" y2="461.1"/>
		<line class="st9" x1="833.9" y1="202" x2="859.1" y2="227.3"/>
		<line class="st9" x1="1088.9" y1="461.1" x2="1063.2" y2="435.4"/>
		<line class="st9" x1="855.2" y1="227.8" x2="829.4" y2="202"/>
		<line class="st9" x1="829" y1="461.1" x2="854.7" y2="435.3"/>
		<line class="st9" x1="1063.2" y1="227.3" x2="1088.5" y2="202"/>
		<line class="st9" x1="859.1" y1="435.4" x2="833.5" y2="461.1"/>
		<line class="st9" x1="1093" y1="202" x2="1067.2" y2="227.8"/>
		<line class="st9" x1="999.6" y1="435.3" x2="1025.4" y2="461.1"/>
		<line class="st9" x1="765.9" y1="202" x2="791.1" y2="227.3"/>
		<line class="st9" x1="1020.9" y1="461.1" x2="995.2" y2="435.4"/>
		<line class="st9" x1="787.1" y1="227.8" x2="761.3" y2="202"/>
		<line class="st9" x1="897" y1="461.1" x2="916.6" y2="441.5"/>
		<line class="st9" x1="1131.3" y1="227.3" x2="1156.5" y2="202"/>
		<line class="st9" x1="918.5" y1="444.1" x2="901.5" y2="461.1"/>
		<line class="st9" x1="1161" y1="202" x2="1135.2" y2="227.8"/>
		<line class="st9" x1="1193.3" y1="430.8" x2="1188.9" y2="430.8"/>
		<line class="st9" x1="1169.3" y1="430.8" x2="966.7" y2="430.8"/>
		<line class="st9" x1="955" y1="430.8" x2="936.6" y2="430.8"/>
		<line class="st9" x1="917" y1="430.8" x2="752.4" y2="430.8"/>
		<line class="st9" x1="732.7" y1="430.8" x2="728.4" y2="430.8"/>
		<line class="st9" x1="727.5" y1="435.3" x2="731.3" y2="435.3"/>
		<line class="st9" x1="753.8" y1="435.3" x2="786.7" y2="435.3"/>
		<line class="st9" x1="795.5" y1="435.3" x2="854.7" y2="435.3"/>
		<line class="st9" x1="863.5" y1="435.3" x2="915.5" y2="435.3"/>
		<line class="st9" x1="938.1" y1="435.3" x2="950" y2="435.3"/>
		<line class="st9" x1="971.6" y1="435.3" x2="990.8" y2="435.3"/>
		<line class="st9" x1="999.6" y1="435.3" x2="1058.8" y2="435.3"/>
		<line class="st9" x1="1067.6" y1="435.3" x2="1126.9" y2="435.3"/>
		<line class="st9" x1="1135.6" y1="435.3" x2="1167.8" y2="435.3"/>
		<line class="st9" x1="1190.4" y1="435.3" x2="1194.9" y2="435.3"/>
		<line class="st9" x1="937.2" y1="441" x2="957.3" y2="461.1"/>
		<line class="st9" x1="952.8" y1="461.1" x2="935.5" y2="443.7"/>
		<line class="st9" x1="698.4" y1="202" x2="706.9" y2="210.5"/>
		<line class="st9" x1="704.1" y1="213.2" x2="695.2" y2="204.3"/>
		<line class="st9" x1="1214.7" y1="210.5" x2="1223.2" y2="202"/>
		<line class="st9" x1="965" y1="461.1" x2="990.8" y2="435.3"/>
		<line class="st9" x1="995.2" y1="435.4" x2="969.5" y2="461.1"/>
		<line class="st9" x1="1226.4" y1="204.4" x2="1217.5" y2="213.2"/>
		<line class="st9" x1="698" y1="461.1" x2="748.7" y2="461.1"/>
		<line class="st9" x1="753.2" y1="461.1" x2="760.9" y2="461.1"/>
		<line class="st9" x1="765.4" y1="461.1" x2="816.8" y2="461.1"/>
		<line class="st9" x1="821.3" y1="461.1" x2="829" y2="461.1"/>
		<line class="st9" x1="833.5" y1="461.1" x2="884.8" y2="461.1"/>
		<line class="st9" x1="889.3" y1="461.1" x2="897" y2="461.1"/>
		<line class="st9" x1="901.5" y1="461.1" x2="952.8" y2="461.1"/>
		<line class="st9" x1="957.3" y1="461.1" x2="965" y2="461.1"/>
		<line class="st9" x1="969.5" y1="461.1" x2="1020.9" y2="461.1"/>
		<line class="st9" x1="1025.4" y1="461.1" x2="1033" y2="461.1"/>
		<line class="st9" x1="1037.6" y1="461.1" x2="1088.9" y2="461.1"/>
		<line class="st9" x1="1093.4" y1="461.1" x2="1101.1" y2="461.1"/>
		<line class="st9" x1="1105.6" y1="461.1" x2="1156.9" y2="461.1"/>
		<line class="st9" x1="1161.4" y1="461.1" x2="1169.1" y2="461.1"/>
		<line class="st9" x1="1173.6" y1="461.1" x2="1223.6" y2="461.1"/>
		<line class="st9" x1="1232.7" y1="467.3" x2="689" y2="467.3"/>
		<line class="st9" x1="695.2" y1="266.6" x2="723.8" y2="295.2"/>
		<line class="st9" x1="863.5" y1="435.3" x2="889.3" y2="461.1"/>
		<line class="st9" x1="1197.8" y1="295.2" x2="1226.4" y2="266.6"/>
		<line class="st9" x1="1033" y1="461.1" x2="1058.8" y2="435.3"/>
		<line class="st9" x1="721.3" y1="297.2" x2="714.6" y2="290.5"/>
		<line class="st9" x1="709.9" y1="285.8" x2="695.2" y2="271.1"/>
		<line class="st9" x1="884.8" y1="461.1" x2="859.1" y2="435.4"/>
		<line class="st9" x1="1226.4" y1="271.1" x2="1200.3" y2="297.2"/>
		<line class="st9" x1="1063.2" y1="435.4" x2="1037.6" y2="461.1"/>
		<line class="st9" x1="795.5" y1="435.3" x2="821.3" y2="461.1"/>
		<line class="st9" x1="695.2" y1="335.5" x2="723.8" y2="364.1"/>
		<line class="st9" x1="816.8" y1="461.1" x2="791.1" y2="435.4"/>
		<line class="st9" x1="721.3" y1="366.1" x2="695.2" y2="340"/>
		<line class="st9" x1="1197.8" y1="364.1" x2="1226.4" y2="335.5"/>
		<line class="st9" x1="1101.1" y1="461.1" x2="1126.9" y2="435.3"/>
		<line class="st9" x1="1226.4" y1="340" x2="1200.3" y2="366.1"/>
		<line class="st9" x1="1131.3" y1="435.4" x2="1105.6" y2="461.1"/>
		<line class="st9" x1="727.5" y1="435.3" x2="731.6" y2="439.5"/>
		<line class="st9" x1="739.5" y1="447.4" x2="753.2" y2="461.1"/>
		<line class="st9" x1="695.2" y1="404.3" x2="723.8" y2="433"/>
		<line class="st9" x1="748.7" y1="461.1" x2="726.5" y2="438.9"/>
		<line class="st9" x1="715.8" y1="429.5" x2="695.2" y2="408.8"/>
		<line class="st9" x1="1193.3" y1="232.3" x2="1193.3" y2="430.8"/>
		<line class="st9" x1="1197.8" y1="433" x2="1197.8" y2="368"/>
		<line class="st9" x1="1197.8" y1="364.1" x2="1197.8" y2="299.1"/>
		<line class="st9" x1="1197.8" y1="295.2" x2="1197.8" y2="230.3"/>
		<line class="st9" x1="1169.1" y1="461.1" x2="1183.2" y2="447"/>
		<line class="st9" x1="1189.6" y1="440.6" x2="1194.9" y2="435.3"/>
		<line class="st9" x1="1197.8" y1="433" x2="1226.4" y2="404.3"/>
		<line class="st9" x1="1194.9" y1="439.9" x2="1173.6" y2="461.1"/>
		<line class="st9" x1="1226.4" y1="408.8" x2="1205.8" y2="429.5"/>
		<line class="st9" x1="1210.3" y1="373.7" x2="1210.3" y2="370.5"/>
		<line class="st9" x1="1210.3" y1="374.5" x2="1210.3" y2="377.6"/>
		<line class="st9" x1="1226.4" y1="458.3" x2="1226.4" y2="408.8"/>
		<line class="st9" x1="1226.4" y1="404.3" x2="1226.4" y2="396.7"/>
		<line class="st9" x1="1226.4" y1="392.1" x2="1226.4" y2="340"/>
		<line class="st9" x1="1226.4" y1="335.5" x2="1226.4" y2="327.8"/>
		<line class="st9" x1="1226.4" y1="323.3" x2="1226.4" y2="271.1"/>
		<line class="st9" x1="1226.4" y1="266.6" x2="1226.4" y2="258.9"/>
		<line class="st9" x1="1226.4" y1="254.4" x2="1226.4" y2="204.4"/>
		<line class="st9" x1="1232.7" y1="195.8" x2="1232.7" y2="467.3"/>
		<path class="st9" d="M726.7,223.6c1.5-6.9-2.9-13.7-9.8-15.1c-3.4-0.7-7,0-9.9,2"/>
		<path class="st9" d="M704.1,213.2c-4.3,5.6-3.3,13.6,2.3,17.9c2.7,2.1,6.2,3,9.5,2.5"/>
		<path class="st9" d="M753.8,227.8c0.6-6.2-3.9-11.8-10.1-12.4c-1.6-0.2-3.2,0-4.8,0.5"/>
		<path class="st9" d="M731.8,223c-0.5,1.5-0.7,3.2-0.5,4.8"/>
		<path class="st9" d="M732.7,232.3c3.1,5.4,10.1,7.3,15.5,4.2c1.7-1,3.2-2.4,4.2-4.2"/>
		<path class="st9" d="M711.4,285.5c2,0,3.5,1.6,3.5,3.5s-1.6,3.5-3.5,3.5c-2,0-3.5-1.6-3.5-3.5S709.4,285.5,711.4,285.5
			L711.4,285.5z"/>
		<path class="st9" d="M711.4,288.6c0.2,0,0.4,0.2,0.4,0.4c0,0.2-0.2,0.4-0.4,0.4s-0.4-0.2-0.4-0.4
			C711,288.8,711.1,288.6,711.4,288.6L711.4,288.6z"/>
		<path class="st9" d="M955,232.3c3.7,1.9,8,1.9,11.7,0"/>
		<path class="st9" d="M971.6,227.8c3.8-6,2-13.8-4-17.6s-13.8-2-17.6,4c-2.6,4.2-2.6,9.4,0,13.6"/>
		<path class="st9" d="M1214.7,210.5c-5.8-4-13.7-2.6-17.8,3.2c-1.8,2.6-2.6,5.9-2.2,9"/>
		<path class="st9" d="M1205.7,233.6c7,1,13.4-3.9,14.4-10.9c0.5-3.4-0.4-6.8-2.5-9.5"/>
		<path class="st9" d="M1190.4,227.8c0.2-2.1-0.2-4.1-1.1-6"/>
		<path class="st9" d="M1006.1,227.8c0.2-2-0.1-4.1-1-5.9"/>
		<path class="st9" d="M1184,216.4c-5.7-2.7-12.4-0.3-15.1,5.3c-0.9,1.9-1.3,4-1.1,6"/>
		<path class="st9" d="M1003.3,219.1c-4.2-4.7-11.3-5.1-16-0.9c-0.2,0.2-0.4,0.4-0.6,0.6"/>
		<path class="st9" d="M1169.3,232.3c3.1,5.4,10.1,7.3,15.5,4.2c1.7-1,3.2-2.4,4.2-4.2"/>
		<path class="st9" d="M985,232.3c3.1,5.4,10.1,7.3,15.5,4.2c1.7-1,3.2-2.4,4.2-4.2"/>
		<path class="st9" d="M984.8,221.4c-1,2-1.5,4.2-1.3,6.4"/>
		<path class="st9" d="M994.8,219.6c3.9,0,7.1,3.2,7.1,7.1c0,3.9-3.2,7.1-7.1,7.1s-7.1-3.2-7.1-7.1S990.9,219.6,994.8,219.6
			L994.8,219.6z"/>
		<path class="st9" d="M715.8,429.5c-7-0.9-13.4,4-14.3,11c-0.4,3.2,0.4,6.5,2.4,9.2"/>
		<path class="st9" d="M706.7,452.4c5.7,4.2,13.7,2.9,17.8-2.8c2.3-3.1,3-7,2.1-10.7"/>
		<path class="st9" d="M731.3,435.3c-0.1,1.4,0,2.8,0.4,4.2"/>
		<path class="st9" d="M739.5,447.4c6,1.7,12.3-1.9,14-7.9c0.4-1.4,0.5-2.8,0.4-4.2"/>
		<path class="st9" d="M915.5,435.3c-0.2,2.1,0.2,4.2,1.1,6.2"/>
		<path class="st9" d="M918.5,444.1c4.2,4.6,11.4,4.9,16,0.6c0.3-0.3,0.7-0.7,1-1"/>
		<path class="st9" d="M752.4,430.8c-3.1-5.4-10.1-7.3-15.5-4.2c-1.7,1-3.2,2.4-4.2,4.2"/>
		<path class="st9" d="M936.6,430.8c-3.1-5.4-10.1-7.3-15.5-4.2c-1.7,1-3.2,2.4-4.2,4.2"/>
		<path class="st9" d="M937.2,441c0.8-1.8,1.1-3.7,0.9-5.7"/>
		<path class="st9" d="M926.8,429.4c3.9,0,7.1,3.2,7.1,7.1s-3.2,7.1-7.1,7.1s-7.1-3.2-7.1-7.1S922.9,429.4,926.8,429.4L926.8,429.4z
			"/>
		<path class="st9" d="M966.7,430.8c-3.7-1.9-8-1.9-11.7,0"/>
		<path class="st9" d="M950,435.3c-3.8,6-2,13.8,4,17.6c6,3.8,13.8,2,17.6-4c2.6-4.2,2.6-9.4,0-13.6"/>
		<path class="st9" d="M1194.9,439.9c-1.2,6.9,3.4,13.6,10.3,14.8c3.4,0.6,7-0.2,9.8-2.3"/>
		<path class="st9" d="M1217.7,449.6c4.2-5.7,2.9-13.7-2.8-17.8c-2.6-1.9-5.9-2.8-9.1-2.4"/>
		<path class="st9" d="M1167.8,435.3c-0.6,6.2,3.9,11.8,10.1,12.4c1.8,0.2,3.6-0.1,5.3-0.7"/>
		<path class="st9" d="M1189.6,440.6c0.7-1.7,0.9-3.5,0.7-5.3"/>
		<path class="st9" d="M1188.9,430.8c-3.1-5.4-10.1-7.3-15.5-4.2c-1.7,1-3.2,2.4-4.2,4.2"/>
		<path class="st9" d="M1210.3,370.5c2,0,3.5,1.6,3.5,3.5c0,2-1.6,3.5-3.5,3.5s-3.5-1.6-3.5-3.5
			C1206.7,372.1,1208.3,370.5,1210.3,370.5L1210.3,370.5z"/>
		<path class="st9" d="M1210.3,373.7c0.2,0,0.4,0.2,0.4,0.4c0,0.2-0.2,0.4-0.4,0.4c-0.2,0-0.4-0.2-0.4-0.4S1210,373.7,1210.3,373.7
			L1210.3,373.7z"/>
		<path class="st9" d="M1207.4,235.2c6.3,0,11.3,5.1,11.3,11.3s-5.1,11.3-11.3,11.3c-6.2,0-11.3-5.1-11.3-11.3
			S1201.2,235.2,1207.4,235.2L1207.4,235.2z"/>
		<path class="st9" d="M1207.4,405.3c6.3,0,11.3,5.1,11.3,11.3c0,6.3-5.1,11.3-11.3,11.3c-6.2,0-11.3-5-11.3-11.3
			S1201.2,405.3,1207.4,405.3L1207.4,405.3z"/>
		<path class="st9" d="M714.2,405.3c6.3,0,11.3,5.1,11.3,11.3c0,6.3-5.1,11.3-11.3,11.3c-6.3,0-11.3-5.1-11.3-11.3
			C702.9,410.3,707.9,405.3,714.2,405.3L714.2,405.3z"/>
		<path class="st9" d="M714.2,235.2c6.3,0,11.3,5.1,11.3,11.3s-5,11.4-11.3,11.4s-11.3-5.1-11.3-11.3S707.9,235.2,714.2,235.2
			L714.2,235.2z"/>
		<g id="ARC_18_">
			<path class="st10" d="M922.5,436.4c0,2.3,1.9,4.3,4.3,4.3c2.4,0,4.3-1.9,4.3-4.3s-1.9-4.3-4.3-4.3"/>
		</g>
		<g id="LINE_24_">
			<line class="st11" x1="926.8" y1="431.8" x2="926.8" y2="441.1"/>
		</g>
		<g id="LINE_23_">
			<line class="st11" x1="922.1" y1="436.4" x2="931.5" y2="436.4"/>
		</g>
		<g id="CIRCLE_18_">
			<path class="st12" d="M926.8,432.9c2,0,3.5,1.6,3.5,3.5s-1.6,3.5-3.5,3.5s-3.5-1.6-3.5-3.5S924.8,432.9,926.8,432.9L926.8,432.9z
				"/>
		</g>
		<g id="TEXT_18_">
			<text transform="matrix(0 1 -1 0 924.668 434.9611)" class="st13 st14 st15">M3</text>
		</g>
		<g id="ARC_17_">
			<path class="st10" d="M990.6,226.7c0,2.3,1.9,4.3,4.3,4.3s4.3-1.9,4.3-4.3s-1.9-4.3-4.3-4.3"/>
		</g>
		<g id="LINE_22_">
			<line class="st11" x1="994.8" y1="222" x2="994.8" y2="231.4"/>
		</g>
		<g id="LINE_21_">
			<line class="st11" x1="990.1" y1="226.7" x2="999.5" y2="226.7"/>
		</g>
		<g id="CIRCLE_17_">
			<path class="st12" d="M994.8,223.1c2,0,3.5,1.6,3.5,3.5c0,2-1.6,3.5-3.5,3.5s-3.5-1.6-3.5-3.5S992.9,223.1,994.8,223.1
				L994.8,223.1z"/>
		</g>
		<g id="TEXT_17_">
			<text transform="matrix(0 1 -1 0 992.6992 225.1973)" class="st13 st14 st15">M3</text>
		</g>
		<g id="ARC_16_">
			<path class="st10" d="M709.9,246.5c0,2.3,1.9,4.3,4.3,4.3c2.4,0,4.3-1.9,4.3-4.3c0-2.4-1.9-4.3-4.3-4.3"/>
		</g>
		<g id="LINE_20_">
			<line class="st11" x1="714.2" y1="241.8" x2="714.2" y2="251.2"/>
		</g>
		<g id="LINE_19_">
			<line class="st11" x1="709.5" y1="246.5" x2="718.9" y2="246.5"/>
		</g>
		<g id="CIRCLE_16_">
			<path class="st12" d="M714.2,243c2,0,3.5,1.6,3.5,3.5s-1.6,3.5-3.5,3.5s-3.5-1.6-3.5-3.5S712.2,243,714.2,243L714.2,243z"/>
		</g>
		<g id="TEXT_16_">
			<text transform="matrix(0 1 -1 0 712.0703 245.0401)" class="st13 st14 st15">M3</text>
		</g>
		<g id="ARC_15_">
			<path class="st10" d="M709.9,416.6c0,2.3,1.9,4.3,4.3,4.3c2.4,0,4.3-1.9,4.3-4.3s-1.9-4.3-4.3-4.3"/>
		</g>
		<g id="LINE_18_">
			<line class="st11" x1="714.2" y1="411.9" x2="714.2" y2="421.3"/>
		</g>
		<g id="LINE_17_">
			<line class="st11" x1="709.5" y1="416.6" x2="718.9" y2="416.6"/>
		</g>
		<g id="CIRCLE_15_">
			<path class="st12" d="M714.2,413.1c2,0,3.5,1.6,3.5,3.5s-1.6,3.5-3.5,3.5s-3.5-1.6-3.5-3.5S712.2,413.1,714.2,413.1L714.2,413.1z
				"/>
		</g>
		<g id="TEXT_15_">
			<text transform="matrix(0 1 -1 0 712.0703 415.1182)" class="st13 st14 st15">M3</text>
		</g>
		<g id="ARC_14_">
			<path class="st10" d="M1203.2,246.5c0,2.3,1.9,4.3,4.3,4.3c2.3,0,4.3-1.9,4.3-4.3c0-2.4-1.9-4.3-4.3-4.3"/>
		</g>
		<g id="LINE_16_">
			<line class="st11" x1="1207.4" y1="241.8" x2="1207.4" y2="251.2"/>
		</g>
		<g id="LINE_15_">
			<line class="st11" x1="1202.7" y1="246.5" x2="1212.1" y2="246.5"/>
		</g>
		<g id="CIRCLE_14_">
			<path class="st12" d="M1207.4,243c2,0,3.5,1.6,3.5,3.5s-1.6,3.5-3.5,3.5s-3.5-1.6-3.5-3.5S1205.5,243,1207.4,243L1207.4,243z"/>
		</g>
		<g id="TEXT_14_">
			<text transform="matrix(0 1 -1 0 1205.2969 245.0401)" class="st13 st14 st15">M3</text>
		</g>
		<g id="ARC_13_">
			<path class="st10" d="M1203.2,416.6c0,2.3,1.9,4.3,4.3,4.3s4.3-1.9,4.3-4.3s-1.9-4.3-4.3-4.3"/>
		</g>
		<g id="LINE_14_">
			<line class="st11" x1="1207.4" y1="411.9" x2="1207.4" y2="421.3"/>
		</g>
		<g id="LINE_13_">
			<line class="st11" x1="1202.7" y1="416.6" x2="1212.1" y2="416.6"/>
		</g>
		<g id="CIRCLE_13_">
			<path class="st12" d="M1207.4,413.1c2,0,3.5,1.6,3.5,3.5s-1.6,3.5-3.5,3.5s-3.5-1.6-3.5-3.5S1205.5,413.1,1207.4,413.1
				L1207.4,413.1z"/>
		</g>
		<g id="TEXT_13_">
			<text transform="matrix(0 1 -1 0 1205.2969 415.1182)" class="st13 st14 st15">M3</text>
		</g>
		<g id="POINT_141_">
			<line class="st16" x1="1210.3" y1="374.1" x2="1210.3" y2="374.1"/>
		</g>
		<g id="POINT_140_">
			<line class="st16" x1="1210.2" y1="388.6" x2="1210.2" y2="388.6"/>
		</g>
		<g id="POINT_139_">
			<line class="st16" x1="960.8" y1="331.6" x2="960.8" y2="331.6"/>
		</g>
		<g id="POINT_138_">
			<line class="st16" x1="1210.3" y1="374.1" x2="1210.3" y2="374.1"/>
		</g>
		<g id="POINT_133_">
			<line class="st16" x1="960.8" y1="331.6" x2="960.8" y2="331.6"/>
		</g>
		<g id="POINT_118_">
			<line class="st16" x1="711.4" y1="289" x2="711.4" y2="289"/>
		</g>
		<g id="POINT_115_">
			<line class="st16" x1="711.3" y1="315.2" x2="711.3" y2="315.2"/>
		</g>
		<g id="POINT_112_">
			<line class="st16" x1="960.8" y1="331.6" x2="960.8" y2="331.6"/>
		</g>
		<g id="POINT_109_">
			<line class="st16" x1="711.4" y1="289" x2="711.4" y2="289"/>
		</g>
		<g id="POINT_107_">
			<line class="st16" x1="682.7" y1="289.1" x2="682.7" y2="289.1"/>
		</g>
		<g id="POINT_106_">
			<line class="st16" x1="960.8" y1="331.6" x2="960.8" y2="331.6"/>
		</g>
		<g id="POINT_105_">
			<line class="st16" x1="714.2" y1="442.1" x2="714.2" y2="442.1"/>
		</g>
		<g id="POINT_104_">
			<line class="st16" x1="679.2" y1="442.1" x2="679.2" y2="442.1"/>
		</g>
		<g id="POINT_103_">
			<line class="st16" x1="960.8" y1="331.6" x2="960.8" y2="331.6"/>
		</g>
		<g id="POINT_102_">
			<line class="st16" x1="714.2" y1="221" x2="714.2" y2="221"/>
		</g>
		<g id="POINT_101_">
			<line class="st16" x1="684" y1="220.9" x2="684" y2="220.9"/>
		</g>
		<g id="POINT_100_">
			<line class="st16" x1="960.8" y1="331.6" x2="960.8" y2="331.6"/>
		</g>
		<g id="POINT_99_">
			<line class="st16" x1="926.8" y1="436.4" x2="926.8" y2="436.4"/>
		</g>
		<g id="POINT_98_">
			<line class="st16" x1="960.8" y1="331.6" x2="960.8" y2="331.6"/>
		</g>
		<g id="POINT_97_">
			<line class="st16" x1="960.8" y1="221" x2="960.8" y2="221"/>
		</g>
		<g id="POINT_96_">
			<line class="st16" x1="960.8" y1="331.6" x2="960.8" y2="331.6"/>
		</g>
		<g id="POINT_95_">
			<line class="st16" x1="994.8" y1="226.7" x2="994.8" y2="226.7"/>
		</g>
		<g id="POINT_94_">
			<line class="st16" x1="960.8" y1="331.6" x2="960.8" y2="331.6"/>
		</g>
		<g id="POINT_93_">
			<line class="st16" x1="960.8" y1="221" x2="960.8" y2="221"/>
		</g>
		<g id="POINT_92_">
			<line class="st16" x1="960.8" y1="331.6" x2="960.8" y2="331.6"/>
		</g>
		<g id="POINT_91_">
			<line class="st16" x1="960.8" y1="442.1" x2="960.8" y2="442.1"/>
		</g>
		<g id="POINT_90_">
			<line class="st16" x1="960.8" y1="331.6" x2="960.8" y2="331.6"/>
		</g>
		<g id="POINT_89_">
			<line class="st16" x1="1232.7" y1="195.8" x2="1232.7" y2="195.8"/>
		</g>
		<g id="POINT_88_">
			<line class="st16" x1="1232.7" y1="467.3" x2="1232.7" y2="467.3"/>
		</g>
		<g id="POINT_87_">
			<line class="st16" x1="1232.7" y1="467.3" x2="1232.7" y2="467.3"/>
		</g>
		<g id="POINT_86_">
			<line class="st16" x1="689" y1="467.3" x2="689" y2="467.3"/>
		</g>
		<g id="POINT_85_">
			<line class="st16" x1="1207.4" y1="246.5" x2="1207.4" y2="246.5"/>
		</g>
		<g id="POINT_84_">
			<line class="st16" x1="960.8" y1="331.6" x2="960.8" y2="331.6"/>
		</g>
		<g id="POINT_83_">
			<line class="st16" x1="1207.4" y1="416.6" x2="1207.4" y2="416.6"/>
		</g>
		<g id="POINT_82_">
			<line class="st16" x1="1241.6" y1="416.7" x2="1241.6" y2="416.7"/>
		</g>
		<g id="POINT_81_">
			<line class="st16" x1="960.8" y1="331.6" x2="960.8" y2="331.6"/>
		</g>
		<g id="POINT_80_">
			<line class="st16" x1="1207.4" y1="246.5" x2="1207.4" y2="246.5"/>
		</g>
		<g id="POINT_79_">
			<line class="st16" x1="960.8" y1="331.6" x2="960.8" y2="331.6"/>
		</g>
		<g id="POINT_78_">
			<line class="st16" x1="1207.4" y1="416.6" x2="1207.4" y2="416.6"/>
		</g>
		<g id="POINT_76_">
			<line class="st16" x1="960.8" y1="331.6" x2="960.8" y2="331.6"/>
		</g>
		<g id="POINT_72_">
			<line class="st16" x1="714.2" y1="416.6" x2="714.2" y2="416.6"/>
		</g>
		<g id="POINT_71_">
			<line class="st16" x1="960.8" y1="331.6" x2="960.8" y2="331.6"/>
		</g>
		<g id="POINT_70_">
			<line class="st16" x1="714.2" y1="246.5" x2="714.2" y2="246.5"/>
		</g>
		<g id="POINT_69_">
			<line class="st16" x1="960.8" y1="331.6" x2="960.8" y2="331.6"/>
		</g>
		<g id="POINT_68_">
			<line class="st16" x1="994.8" y1="226.7" x2="994.8" y2="226.7"/>
		</g>
		<g id="POINT_67_">
			<line class="st16" x1="1027.9" y1="247.2" x2="1027.9" y2="247.2"/>
		</g>
		<g id="POINT_66_">
			<line class="st16" x1="926.8" y1="436.4" x2="926.8" y2="436.4"/>
		</g>
		<circle class="st0" cx="714.2" cy="246.5" r="6.1"/>
		<circle class="st0" cx="711.4" cy="289" r="4.3"/>
		<circle class="st0" cx="714.2" cy="416.6" r="6.1"/>
		<circle class="st0" cx="1207.4" cy="246.5" r="6.1"/>
		<circle class="st0" cx="1207.5" cy="416.6" r="6.1"/>
		<circle class="st0" cx="1210.3" cy="374" r="4.3"/>
		<circle class="st0" cx="994.9" cy="226.6" r="6.1"/>
		<circle class="st0" cx="926.8" cy="436.4" r="6.1"/>
		<g id="LWPOLYLINE_8_">
			<path class="st0" d="M750.7,371.8h31.2c1.6,0,2.8-1.3,2.8-2.8v-82.2c0-1.6-1.3-2.8-2.8-2.8h-31.2c-1.6,0-2.8,1.3-2.8,2.8V369
				C747.8,370.4,749.1,371.8,750.7,371.8z"/>
		</g>
		<g id="LWPOLYLINE_7_">
			<path class="st0" d="M1029.3,296.9c0-1.7-1.3-3-2.8-3h-62.4c-1.6,0-2.8,1.4-2.8,3v41.9c0,1.7,1.3,3,2.8,3h62.4
				c1.6,0,2.8-1.4,2.8-3V296.9z"/>
		</g>
	</g>
</g>
</svg>
