<?xml version="1.0" encoding="utf-8"?>
<!-- Generator: Adobe Illustrator 23.0.4, SVG Export Plug-In . SVG Version: 6.00 Build 0)  -->
<svg version="1.1" id="Layer_1" xmlns="http://www.w3.org/2000/svg" xmlns:xlink="http://www.w3.org/1999/xlink" x="0px" y="0px"
	 viewBox="0 0 1440 864" style="enable-background:new 0 0 1440 864;" xml:space="preserve">
<style type="text/css">
	.st0{fill:none;stroke:#000000;stroke-width:0.1;stroke-miterlimit:22.9256;}
	.st1{fill:none;stroke:#010101;stroke-width:0.1;stroke-miterlimit:22.9256;}
</style>
<g>
	<g>
		<path class="st0" d="M1268.8,493.4c0,5.5-4.5,10-10,10h-1140c-5.5,0-10-4.5-10-10V169.6c0-5.5,4.5-10,10-10h1140
			c5.5,0,10,4.5,10,10V493.4z"/>
	</g>
	<path class="st1" d="M132.1,178.1c2.7,0,4.8,2.2,4.8,4.8c0,2.7-2.2,4.8-4.8,4.8c-2.7,0-4.8-2.2-4.8-4.8S129.4,178.1,132.1,178.1z"
		/>
	<path class="st1" d="M132.1,475.5c2.7,0,4.8,2.2,4.8,4.8c0,2.7-2.2,4.8-4.8,4.8c-2.7,0-4.8-2.2-4.8-4.8S129.4,475.5,132.1,475.5z"
		/>
	<path class="st1" d="M1250.5,182.9c0,2.7-2.2,4.8-4.8,4.8c-2.7,0-4.8-2.2-4.8-4.8c0-2.7,2.2-4.8,4.8-4.8
		C1248.3,178.1,1250.5,180.2,1250.5,182.9z"/>
	<path class="st1" d="M1245.6,485c-2.7,0-4.8-2.2-4.8-4.8c0-2.7,2.2-4.8,4.8-4.8c2.7,0,4.8,2.2,4.8,4.8S1248.3,485,1245.6,485z"/>
</g>
</svg>
