<?xml version="1.0" encoding="utf-8"?>
<!-- Generator: Adobe Illustrator 23.0.1, SVG Export Plug-In . SVG Version: 6.00 Build 0)  -->
<svg version="1.1" id="Layer_1" xmlns="http://www.w3.org/2000/svg" xmlns:xlink="http://www.w3.org/1999/xlink" x="0px" y="0px"
	 viewBox="0 0 1404 792" style="enable-background:new 0 0 1404 792;" xml:space="preserve">
<style type="text/css">
	.st0{fill:none;stroke:#000000;stroke-width:0.1;stroke-miterlimit:22.9256;}
	.st1{fill:none;stroke:#000000;stroke-width:0.1;stroke-linecap:round;stroke-linejoin:round;stroke-miterlimit:10;}
	.st2{enable-background:new    ;}
	.st3{display:none;}
	.st4{display:inline;}
	.st5{fill:none;stroke:#010101;stroke-width:0.1;stroke-miterlimit:10;}
	.st6{fill:none;stroke:#010101;stroke-width:0.1;stroke-miterlimit:22.9256;}
	.st7{fill:none;stroke:#910000;stroke-miterlimit:22.9256;}
	.st8{fill:none;stroke:#000000;stroke-miterlimit:10;}
	.st9{stroke:#000000;stroke-width:0.5;stroke-miterlimit:10;}
	.st10{fill:none;stroke:#910000;stroke-miterlimit:10;}
</style>
<polygon class="st0" points="46.5,68.7 46.5,720.7 46.5,729.2 159.9,729.2 159.9,720.7 273.3,720.7 273.3,729.2 386.7,729.2 
	386.7,720.7 529.4,720.7 529.4,729.2 642.8,729.2 642.8,720.7 727.8,720.7 727.8,729.2 869.5,729.2 869.5,706.5 878,706.5 
	878,649.8 869.5,649.8 869.5,550.6 878,550.6 878,465.6 869.5,465.6 869.5,323.9 878,323.9 878,238.8 869.5,238.8 869.5,139.6 
	878,139.6 878,82.9 869.5,82.9 869.5,60.2 727.8,60.2 727.8,68.7 642.8,68.7 642.8,60.2 529.4,60.2 529.4,68.7 386.7,68.7 
	386.7,60.2 273.3,60.2 273.3,68.7 159.9,68.7 159.9,60.2 46.5,60.2 "/>
<path class="st0" d="M193.8,606.5V183c0-23.5,19.2-42.6,42.6-42.6h423.5c23.5,0,42.6,19.2,42.6,42.6v423.5
	c0,23.5-19.2,42.6-42.6,42.6H236.4C212.9,649.1,193.8,629.9,193.8,606.5z"/>
<ellipse transform="matrix(0.3827 -0.9239 0.9239 0.3827 377.3317 789.0172)" class="st0" cx="779.1" cy="112.1" rx="11.9" ry="11.9"/>
<rect x="759.8" y="159.1" class="st1" width="38.5" height="26.1"/>
<rect x="759.8" y="238.6" class="st1" width="38.5" height="26.1"/>
<g class="st2">
	<path d="M835.8,124.4h-1.5v-3h1.5v-4.5h-4.5v7.5h-4.5v-9h1.5v6h1.5v-6h1.5v-1.5h4.5v1.5h1.5v7.5h-1.5V124.4z"/>
	<path d="M835.8,109.4h-1.5v1.5h-1.5v1.5h-6v-3h4.5v-1.5h1.5v-1.5h-1.5v-1.5h-4.5v-3h6v1.5h1.5v1.5h1.5v1.5h1.5v1.5h-1.5V109.4z"/>
</g>
<g class="st2">
	<path d="M736.9,205h-1.5v-1.5h-1.5V199h1.5v-1.5h1.5V196h7.5v3h-3v4.5h3v3h-7.5V205z M739.9,203.5V199h-3v1.5h-1.5v1.5h1.5v1.5
		H739.9z"/>
	<path d="M733.9,185.5h1.5V184h4.5v3h1.5v-1.5h1.5V184h1.5v4.5h-1.5v1.5h-1.5v1.5h3v3h-10.5V185.5z M739.9,191.5v-3h-1.5V187h-3v4.5
		H739.9z"/>
	<path d="M742.9,181h-1.5v1.5h-4.5V181h-1.5v-1.5h-1.5v-6h1.5V172h1.5v3h-1.5v3h1.5v1.5h4.5V178h1.5v-3h-1.5v-3h1.5v1.5h1.5v6h-1.5
		V181z"/>
	<path d="M736.9,169h-1.5v-1.5h-1.5V163h1.5v-1.5h1.5V160h7.5v3h-3v4.5h3v3h-7.5V169z M739.9,167.5V163h-3v1.5h-1.5v1.5h1.5v1.5
		H739.9z"/>
	<path d="M733.9,151h1.5v-1.5h1.5V148h4.5v1.5h1.5v1.5h1.5v7.5h-10.5V151z M742.9,155.5v-3h-1.5V151h-4.5v1.5h-1.5v3H742.9z"/>
	<path d="M733.9,136h1.5v7.5h3v-6h1.5v6h3V136h1.5v10.5h-10.5V136z"/>
</g>
<g class="st2">
	<path d="M733.9,272.6h1.5v-1.5h4.5v1.5h1.5v6h3v3h-10.5V272.6z M739.9,278.6v-4.5h-4.5v4.5H739.9z"/>
	<path d="M742.9,265.1h-7.5v3h-1.5v-9h1.5v3h7.5v-3h1.5v9h-1.5V265.1z"/>
	<path d="M741.4,256.1h-1.5v-1.5h-1.5v1.5h-1.5v1.5h-3v-3h1.5v-1.5h1.5v-1.5h-1.5v-1.5h-1.5v-3h3v1.5h1.5v1.5h1.5v-1.5h1.5v-1.5h3v3
		h-1.5v1.5h-1.5v1.5h1.5v1.5h1.5v3h-3V256.1z"/>
	<path d="M733.9,235.1h1.5v7.5h3v-6h1.5v6h3v-7.5h1.5v10.5h-10.5V235.1z"/>
	<path d="M733.9,230.6h9v-7.5h1.5v10.5h-10.5V230.6z"/>
</g>
<ellipse class="st0" cx="779.6" cy="342.6" rx="22.3" ry="22.3"/>
<g class="st2">
	<path d="M835.8,389.6h-1.5v-3h1.5v-4.5h-3v6h-1.5v1.5h-3v-1.5h-1.5v-6h1.5v-1.5h1.5v3h-1.5v3h3v-6h1.5v-1.5h3v1.5h1.5v7.5h-1.5
		V389.6z"/>
	<path d="M826.8,374.6h4.5v-4.5h-4.5v-3h10.5v3h-4.5v4.5h4.5v3h-10.5V374.6z"/>
	<path d="M835.8,365.6h-9v-3h9v-4.5h-9v-3h9v1.5h1.5v7.5h-1.5V365.6z"/>
	<path d="M828.3,352.1h-1.5v-9h1.5v3h9v3h-9V352.1z"/>
	<path d="M826.8,334.1h1.5v-1.5h1.5v-1.5h4.5v1.5h1.5v1.5h1.5v7.5h-10.5V334.1z M835.8,338.6v-3h-1.5v-1.5h-4.5v1.5h-1.5v3H835.8z"
		/>
	<path d="M835.8,329.6h-7.5v-1.5h-1.5v-7.5h1.5v-1.5h7.5v1.5h1.5v7.5h-1.5V329.6z M835.8,326.6v-4.5h-7.5v4.5H835.8z"/>
	<path d="M826.8,314.6h4.5v-1.5h-1.5v-1.5h1.5v-1.5h-4.5v-3h10.5v3h-1.5v1.5h-1.5v1.5h1.5v1.5h1.5v3h-10.5V314.6z"/>
	<path d="M826.8,302.6h1.5v-1.5h1.5v-1.5h1.5v-1.5h-4.5v-3h10.5v3h-1.5v1.5h-1.5v1.5h-1.5v1.5h4.5v3h-10.5V302.6z"/>
</g>
<g class="st2">
	<path d="M835.8,500.7h-1.5v1.5h-1.5v1.5h-6v-3h4.5v-1.5h1.5v-1.5h-1.5v-1.5h-4.5v-3h6v1.5h1.5v1.5h1.5v1.5h1.5v1.5h-1.5V500.7z"/>
	<path d="M835.8,491.7h-7.5v-1.5h-1.5v-7.5h1.5v-1.5h7.5v1.5h1.5v7.5h-1.5V491.7z M835.8,488.7v-4.5h-7.5v4.5H835.8z"/>
	<path d="M826.8,476.7h9v-7.5h1.5v10.5h-10.5V476.7z"/>
	<path d="M835.8,467.7h-9v-3h9v-4.5h-9v-3h9v1.5h1.5v7.5h-1.5V467.7z"/>
	<path d="M826.8,452.7h1.5v-1.5h1.5v-1.5h-1.5v-1.5h-1.5v-3h10.5v3h-4.5v1.5h1.5v1.5h-1.5v1.5h4.5v3h-10.5V452.7z"/>
	<path d="M826.8,433.2h1.5v7.5h3v-6h1.5v6h3v-7.5h1.5v10.5h-10.5V433.2z"/>
</g>
<g id="Text">
</g>
<g id="on__x2F__off_icons">
	<g class="st3">
		<path class="st4" d="M857.3,780.7c-0.1,0.6-0.2,1.1-0.2,1.7c0,0.1,0,0.3-0.1,0.3v0.1c0,0.1,0,0.3,0,0.4c0,0.1,0,0.2-0.1,0.3
			c-0.1,0,0,0.2-0.1,0.3c0,0.2,0.1,0.4-0.1,0.5c0,0,0,0.1,0,0.2c0,0.1,0.1,0.3-0.1,0.4l0,0c-0.1,0.3-0.1,0.5-0.2,0.8
			c0,0,0,0.1-0.1,0.1c0,0.1-0.1,0.2-0.1,0.3s0,0.2-0.1,0.2l0,0c0.1,0.3-0.2,0.4-0.2,0.7l-0.1,0.1h-0.1c0,0.1-0.1,0.2-0.2,0.4
			c-0.1,0.1-0.1,0.2-0.2,0.3c-0.1,0.1,0,0.3-0.2,0.3c0,0.2-0.2,0.3-0.2,0.5c0,0.1-0.2,0.2-0.2,0.4c0,0.1-0.1,0.2-0.1,0.2
			c-0.1,0.1-0.2,0.2-0.3,0.3c0,0.2-0.1,0.3-0.2,0.4c-0.2,0.1-0.1,0.3-0.3,0.4c-0.2,0.1-0.3,0.4-0.4,0.6c-0.1,0.1-0.2,0.2-0.3,0.3
			s-0.2,0.2-0.2,0.3l-0.1,0.1c-0.1,0.2-0.3,0.4-0.4,0.5c-0.1,0.1-0.2,0.2-0.3,0.3s-0.3,0.3-0.4,0.4c-0.1,0.1-0.2,0.1-0.3,0.2
			c-0.1,0.1-0.3,0.2-0.4,0.3c-0.2,0.1-0.3,0.2-0.5,0.4c-0.1,0.2-0.3,0.2-0.5,0.3c-0.1,0.1-0.2,0.2-0.3,0.3c-0.2,0-0.3,0.2-0.4,0.3
			c0,0-0.1,0-0.1,0.1c-0.2,0.1-0.3,0.2-0.4,0.3l0,0c-0.2,0-0.4,0.2-0.5,0.3c0,0-0.2,0-0.2,0.1c-0.1,0-0.1,0.1-0.2,0.1
			c-0.1,0-0.1,0.1-0.2,0.1h-0.1c-0.1,0-0.2,0-0.2,0.1h-0.1c-0.1,0-0.2,0-0.2,0.1l0,0c-0.2,0-0.3,0.2-0.5,0.2c-0.1,0-0.1,0.1-0.2,0.1
			c-0.1,0-0.2,0-0.3,0.1c-0.1,0-0.2,0-0.2,0.1l0,0c-0.2,0.1-0.5,0.1-0.7,0.2c-0.1,0-0.2,0.1-0.3,0.1h-0.1c-0.2,0-0.4,0-0.5,0.2h-0.1
			c-0.2,0-0.3,0-0.4,0.1c-0.1,0.1-0.3,0-0.4,0.1c-0.1,0-0.2,0.1-0.3,0.1c0,0-0.1,0-0.2,0c-0.1,0-0.3,0-0.4,0c-0.1,0-0.2,0-0.3,0.1
			h-0.1c-0.2,0-0.4,0-0.6,0c-0.4,0-0.7,0.1-1.1,0.1c-0.7,0-1.4,0.1-2.1,0c-0.6-0.1-1.1-0.1-1.7-0.1h-0.1c-0.2-0.2-0.5-0.1-0.7-0.1
			c-0.1,0-0.2,0-0.3-0.1c0,0-0.1,0-0.2,0c-0.2,0-0.4,0.1-0.6-0.1c0,0-0.1,0-0.2,0c-0.1,0-0.3,0-0.3-0.1c0,0,0,0-0.1,0
			c-0.2,0-0.3,0-0.5-0.1s-0.4-0.1-0.6-0.2c-0.1-0.1-0.3,0-0.3-0.2l0,0c-0.2,0-0.4-0.1-0.6-0.2c-0.1,0-0.2,0-0.3-0.1h-0.1
			c-0.1,0-0.2,0-0.2-0.1h-0.1c-0.1,0-0.2,0-0.2-0.1l0,0c-0.2-0.1-0.3-0.1-0.5-0.2c-0.1,0-0.1-0.1-0.2-0.1c-0.2-0.1-0.3-0.2-0.5-0.3
			c0,0,0,0-0.1,0c-0.2,0-0.3-0.1-0.5-0.3h-0.1c-0.2,0-0.3-0.2-0.4-0.3l0,0c-0.3,0-0.4-0.3-0.7-0.5c-0.1-0.1-0.3-0.2-0.4-0.2
			c-0.1-0.1-0.2-0.1-0.2-0.2c-0.2-0.3-0.5-0.5-0.8-0.7c-0.1-0.1-0.3-0.3-0.4-0.5c-0.1-0.1-0.2-0.2-0.4-0.4c-0.1-0.1-0.2-0.3-0.3-0.4
			c-0.1-0.1-0.2-0.2-0.3-0.3s-0.1-0.2-0.2-0.3c-0.2-0.1-0.2-0.5-0.5-0.6c-0.1-0.1-0.1-0.2-0.2-0.4c-0.1-0.1-0.1-0.2-0.2-0.3
			c-0.2-0.1-0.1-0.3-0.3-0.4c-0.2-0.1-0.1-0.3-0.3-0.5c-0.1-0.1-0.1-0.3-0.2-0.4l-0.1-0.1l0,0c0.1-0.2-0.2-0.3-0.2-0.5v-0.1
			c-0.1,0-0.1-0.1-0.1-0.2c0-0.1,0-0.1-0.1-0.1l-0.1-0.1c0-0.1,0-0.2-0.1-0.2l0,0c0-0.2-0.1-0.3-0.2-0.5c0-0.1,0.1-0.3-0.1-0.3v-0.1
			c0-0.1,0-0.3-0.1-0.4l0,0c-0.1-0.2-0.1-0.5-0.2-0.7c0-0.1,0-0.2-0.1-0.3v-0.1c0-0.2,0-0.3-0.1-0.5c-0.1-0.1,0-0.3-0.1-0.4
			c0-0.1-0.1-0.2-0.1-0.3v-0.1c0-0.2,0-0.3,0-0.5c0-0.1-0.1-0.2-0.1-0.2c0-0.1,0-0.1,0-0.2c0-0.3,0-0.6,0-0.9c0-0.2,0.1-0.4-0.1-0.5
			c0,0,0-0.1,0-0.2c0-0.8,0-1.5,0-2.3c0-0.1,0-0.1,0-0.2c0-0.1,0.1-0.2,0.1-0.2c0-0.4,0-0.7,0-1.1c0-0.1,0.1-0.2,0.1-0.2v-0.1
			c0-0.2,0-0.3,0-0.5c0-0.1,0-0.2,0.1-0.3c0,0,0-0.1,0-0.2c0-0.2-0.1-0.5,0.2-0.7c0,0,0-0.1,0-0.2c0-0.1,0-0.3,0.1-0.3l0,0
			c0-0.3,0.1-0.5,0.2-0.7c0-0.1,0-0.3,0.1-0.3c0,0,0-0.1,0-0.2c0-0.1,0-0.2,0.1-0.2c0,0,0,0,0-0.1s0-0.2,0.1-0.3s0.1-0.3,0.2-0.5
			c0-0.1,0.2-0.5,0.3-0.6c0,0,0-0.1,0-0.2c0-0.1,0.1-0.1,0.1-0.1h0.1c0-0.2,0.1-0.4,0.3-0.5v-0.1c0-0.1,0-0.2,0.1-0.2v-0.1
			c0-0.2,0.1-0.3,0.3-0.4c0,0,0,0,0-0.1c0-0.2,0.2-0.3,0.3-0.4c0,0,0,0,0-0.1c0-0.2,0.2-0.3,0.3-0.4c0.1-0.1,0.3-0.3,0.4-0.5
			c0-0.1,0.2-0.3,0.3-0.3c0.1-0.1,0.1-0.1,0.2-0.2c0.2-0.1,0.2-0.3,0.4-0.4c0.1-0.1,0.2-0.1,0.3-0.2c0.1-0.1,0.2-0.2,0.2-0.3
			c0.1-0.1,0.2-0.2,0.2-0.3s0.1-0.1,0.1-0.1c0.1-0.1,0.2-0.1,0.4-0.2c0.1,0,0.1-0.1,0.2-0.2c0.1,0,0.2,0,0.2-0.1l0,0
			c0.1,0,0.3-0.1,0.4-0.1c0.6-0.1,1.2-0.3,1.8-0.2c0.2,0.1,0.4,0.2,0.6,0.2c0.1,0.2,0.4,0.1,0.5,0.3c0,0,0.2,0,0.2,0.1
			c0.1,0,0.1,0.1,0.2,0.1c0.1,0.1,0.3,0.2,0.4,0.3c0.1,0.1,0.3,0.3,0.4,0.4c0,0.1,0.1,0.1,0.1,0.2l0.1,0.1l0,0
			c0.1,0.2,0.1,0.3,0.2,0.5c0,0.1,0.1,0.1,0.1,0.2l0.1,0.1c0,0.2,0,0.4,0.2,0.6c0.1,0.1,0,0.3,0,0.4c0,0.2,0,0.4,0,0.5
			c-0.1,0.2-0.1,0.5-0.2,0.7c-0.1,0.1-0.1,0.4-0.2,0.4c-0.2,0.1-0.1,0.2-0.2,0.3c-0.1,0.1-0.2,0.2-0.3,0.3s-0.3,0.3-0.4,0.4
			c-0.1,0.1-0.2,0.2-0.2,0.3c-0.1,0.1-0.1,0.2-0.2,0.2c-0.1,0.1-0.2,0.2-0.3,0.3s-0.2,0.2-0.3,0.3s-0.1,0.2-0.2,0.3
			c-0.1,0.1-0.2,0.3-0.3,0.4c-0.1,0.1-0.1,0.3-0.2,0.4c-0.1,0.1-0.1,0.2-0.2,0.3c0,0.1-0.1,0.1-0.1,0.2c0,0.1-0.1,0.1-0.1,0.2l0,0
			c0,0.1,0,0.2-0.2,0.3c-0.1,0-0.1,0.2-0.2,0.4c-0.1,0.2-0.1,0.5-0.2,0.6c-0.1,0.2-0.1,0.5-0.2,0.6c-0.2,0.2-0.1,0.4-0.1,0.5
			s-0.1,0.1-0.1,0.2c0,0.1,0,0.1-0.1,0.2c0,0.2,0,0.3,0,0.5c0,0.1,0,0.3-0.1,0.4c0,0,0,0.1,0,0.2c0,0.7,0,1.5,0,2.2
			c0,0.1,0.1,0.1,0.1,0.2v0.1c0,0.2,0,0.4,0,0.5s0,0.2,0.1,0.3c0.1,0,0,0.2,0,0.3s-0.1,0.3,0.1,0.3l0,0c-0.1,0.3,0.2,0.5,0.2,0.8
			c0,0.1,0.1,0.1,0.1,0.2c0,0.1,0.1,0.1,0.1,0.2c0,0.1,0,0.2,0.1,0.2v0.1c0,0.1,0,0.2,0.1,0.2v0.1c0,0.1,0,0.2,0.1,0.2
			c0,0,0,0.2,0.1,0.2c0,0.1,0.1,0.2,0.1,0.2c0.1,0.1,0.2,0.2,0.2,0.3l0.1,0.1c0,0.2,0.2,0.3,0.3,0.4c0.1,0.1,0.1,0.2,0.2,0.3
			c0.1,0.1,0.1,0.2,0.2,0.3c0.1,0.1,0.2,0.2,0.3,0.3s0.2,0.1,0.3,0.2c0.1,0.1,0.1,0.2,0.2,0.3c0.1,0.1,0.1,0.1,0.2,0.2
			c0.1,0.1,0.3,0.2,0.5,0.4s0.4,0.2,0.6,0.5c0,0.1,0.2,0.1,0.3,0.2c0.2,0.1,0.3,0.2,0.5,0.3c0.1,0.1,0.3,0.1,0.4,0.2
			c0.1,0.2,0.4,0.1,0.5,0.3l0,0c0.2,0,0.3,0.1,0.5,0.2c0.1,0.1,0.3,0,0.3,0.2c0,0,0.1,0,0.2,0c0.1,0,0.2,0,0.3,0.1
			c0,0.1,0.2,0,0.3,0s0.1,0.1,0.2,0.1l0.1,0.1c0.1,0,0.3,0,0.4,0c0.1,0,0.1,0.1,0.2,0.1c0.1,0,0.1,0,0.2,0.1c0.3,0,0.7,0,1,0.1
			c0.4,0.1,0.8,0.1,1.2,0.1c0.2,0,0.3-0.1,0.5-0.1c0.3,0,0.6,0,0.9,0c0.1,0,0.2-0.1,0.3-0.1s0.1,0,0.2,0c0.2,0,0.4,0,0.5,0
			c0.2-0.2,0.4-0.1,0.6-0.2c0.2-0.1,0.3-0.1,0.5-0.1c0.2-0.1,0.3-0.2,0.5-0.3c0.1,0,0.1,0,0.2,0c0.1,0,0.2,0,0.3-0.1c0,0,0,0,0.1,0
			c0.2,0,0.3-0.2,0.5-0.3l0,0c0.2-0.1,0.3-0.1,0.5-0.2c0.1-0.1,0.2-0.2,0.3-0.2l0.1-0.1c0.2,0,0.3-0.2,0.4-0.3
			c0.1-0.1,0.2-0.1,0.3-0.2c0.2-0.1,0.4-0.2,0.5-0.4c0.2-0.2,0.3-0.3,0.5-0.5c0.1-0.1,0.3-0.3,0.4-0.5c0.1-0.1,0.1-0.2,0.2-0.2
			c0.1-0.1,0.1-0.2,0.2-0.3c0-0.1,0.1-0.2,0.2-0.2c0.1-0.1,0.2-0.2,0.3-0.4c0.1-0.1,0.2-0.3,0.3-0.4c0.1-0.1,0.2-0.2,0.2-0.2
			c0-0.2,0.2-0.3,0.2-0.5c0-0.1,0.1-0.1,0.1-0.1l0,0c0.1-0.2,0.1-0.4,0.2-0.5c0-0.1,0.1-0.2,0.1-0.3l0,0c0.1-0.2,0.1-0.4,0.2-0.7
			c0-0.1,0-0.2,0.1-0.3c0,0,0-0.1,0-0.2c0-0.2-0.1-0.4,0.1-0.5v-0.1c0-0.2,0-0.4,0-0.5s0.1-0.2,0.1-0.3s0-0.1,0-0.2
			c0-0.6,0-1.3,0-1.9c0-0.1-0.1-0.2-0.1-0.2c0-0.1,0-0.1-0.1-0.2c0-0.2,0-0.4,0-0.5s0-0.2-0.1-0.3c0,0,0-0.2,0-0.3s0.1-0.3-0.1-0.4
			c-0.1,0,0-0.2,0-0.3s-0.1-0.1-0.1-0.2c0-0.1-0.1-0.2-0.1-0.2c0-0.1,0-0.2-0.1-0.2l0,0c0-0.2-0.1-0.3-0.1-0.4
			c-0.1-0.2-0.1-0.4-0.2-0.6c-0.1-0.1-0.2-0.2-0.3-0.3c0-0.1,0-0.2-0.1-0.2c0-0.1-0.1-0.1-0.1-0.2c-0.1-0.1-0.1-0.2-0.2-0.3
			c-0.1-0.1-0.2-0.2-0.3-0.3c-0.1-0.2-0.3-0.3-0.4-0.5c-0.2-0.2-0.4-0.3-0.6-0.5c-0.1-0.1-0.2-0.3-0.4-0.4l-0.1-0.1
			c-0.1-0.2-0.2-0.3-0.3-0.5c0-0.1-0.1-0.1-0.1-0.2c0-0.1,0-0.3-0.2-0.3c0,0,0-0.1,0-0.2c0-0.2,0.1-0.4-0.1-0.5v-0.1
			c0-0.2,0-0.4,0-0.6c0-0.1,0-0.2,0.1-0.3c0.1,0,0-0.2,0-0.3s-0.1-0.3,0.1-0.3l0,0c0.1-0.2,0.1-0.4,0.2-0.5c0.1-0.1,0.2-0.3,0.3-0.4
			c0.1-0.1,0.1-0.2,0.2-0.3c0.1-0.1,0.1-0.1,0.2-0.2c0.1-0.1,0.2-0.1,0.3-0.2c0.1-0.1,0.2-0.2,0.3-0.3l0,0c0.2-0.1,0.4-0.1,0.7-0.2
			c0.1,0,0.2,0,0.3-0.1h0.1c0.4,0,0.8,0,1.2,0c0.1,0,0.1,0.1,0.2,0.1c0,0,0,0.1,0.1,0.1c0.2,0,0.4,0.1,0.6,0.2
			c0.2,0.1,0.4,0.1,0.5,0.3h0.1c0.2,0,0.3,0.2,0.4,0.3c0,0,0.1,0,0.1,0.1c0.1,0.1,0.2,0.3,0.4,0.4c0.1,0.1,0.2,0.2,0.3,0.3
			s0.1,0.2,0.2,0.3c0.1,0.1,0.1,0.2,0.2,0.2c0.2,0.1,0.2,0.3,0.3,0.4c0,0.1,0.1,0.2,0.2,0.2c0.2,0.1,0.3,0.3,0.3,0.4
			c0.1,0.2,0.2,0.3,0.3,0.5c0.1,0.1,0.2,0.2,0.3,0.4c0,0,0,0.1,0.1,0.1c0,0.1,0,0.2,0.1,0.2l0,0c0,0.2,0.1,0.4,0.3,0.5v0.1
			c0,0.1,0.1,0.1,0.1,0.2c0,0,0,0.1,0.1,0.1c0,0.1,0.1,0.2,0.1,0.3c0.1,0.1,0.2,0.3,0.2,0.5c0,0,0,0.1,0.1,0.1
			c0,0.1,0.1,0.1,0.1,0.2c0,0.1,0,0.3,0.1,0.3v0.1c0,0.1,0,0.2,0.1,0.2v0.1c0,0.1,0,0.3,0.2,0.4c0,0,0,0.1,0,0.2
			c0,0.1,0,0.2,0.1,0.3c0,0,0,0.1,0,0.2c0,0.1,0,0.3,0.1,0.3v0.2c0,0.1,0,0.2,0.1,0.3c0,0,0,0.1,0,0.2c0,0.1,0,0.3,0,0.4
			c0,0.1,0.1,0.1,0.1,0.2c0,0,0,0.1,0.1,0.1c0,0.2,0,0.3,0,0.5c0,0.1,0,0.2,0.1,0.3v0.1c0,0.1,0,0.2,0,0.3c0,0.5,0.1,1.1,0.2,1.6
			C857.3,779.6,857.3,780.2,857.3,780.7z"/>
		<path class="st4" d="M840,758.2c0,0.1,0,0.2,0.1,0.2c0.3-0.1,0.5,0.2,0.8,0.2c0.1,0,0.2,0.1,0.3,0.2c0.1,0.1,0.2,0.1,0.2,0.1
			c0.1,0.1,0.2,0.1,0.2,0.2c0,0.1,0.1,0.1,0.1,0.1c0.2,0.3,0.5,0.4,0.6,0.8c0.3,0,0.1,0.4,0.3,0.4c0,0,0,0.1,0,0.2
			c0,0.1-0.1,0.3,0.1,0.3c0,0,0,0.1,0,0.2c0,0.3,0,0.6,0,0.9c0,5,0,10,0,15c0,0.1,0.1,0.3-0.1,0.4v0.1c0,0.1,0.1,0.3-0.1,0.4
			c0,0,0,0,0,0.1c0,0.2-0.2,0.3-0.3,0.4c0,0,0,0,0,0.1c0,0.2-0.2,0.3-0.3,0.4c-0.1,0.1-0.1,0.2-0.2,0.3c-0.1,0.1-0.1,0.2-0.2,0.2
			c-0.1,0-0.2,0.1-0.3,0.2c-0.1,0.1-0.4,0.1-0.5,0.2c-0.2,0.2-0.5,0.1-0.7,0.2c-0.2,0.1-0.4,0.1-0.7,0.1c-0.1,0-0.3-0.1-0.4-0.1
			c-0.1,0-0.3,0-0.4,0c-0.1,0-0.3,0-0.3-0.1l0,0c-0.2-0.1-0.4-0.1-0.5-0.2c0,0-0.1,0-0.1-0.1v-0.1c-0.2,0-0.3-0.2-0.5-0.3
			c-0.1-0.2-0.3-0.3-0.4-0.4c-0.1-0.1-0.1-0.3-0.2-0.4c-0.1-0.1-0.1-0.4-0.3-0.5l0,0c-0.1-0.2-0.2-0.5-0.2-0.7c0-5.3,0-10.6,0-15.9
			c0-0.1,0-0.3,0.1-0.3v-0.2c0-0.1,0-0.2,0.1-0.2l0,0c-0.1-0.2,0.1-0.3,0.2-0.5c0-0.1,0.2-0.2,0.3-0.3s0.1-0.1,0.2-0.2
			c0.1-0.1,0.1-0.2,0.2-0.3c0.1-0.1,0.2-0.1,0.3-0.2c0.1-0.1,0.3-0.2,0.4-0.3c0.1,0,0.1,0,0.2-0.1c0.1,0,0.2-0.1,0.3-0.1
			s0.3,0,0.4,0c0.1,0,0.2,0,0.1-0.2C839.1,758.2,839.5,758.2,840,758.2z"/>
	</g>
	<g>
		<path d="M846.8,251.7c0,0.9-0.1,1.8-0.3,2.7c-0.2,0.7-0.4,1.5-0.6,2.2c-0.4,1-0.9,2-1.5,2.9s-1.3,1.7-2.2,2.5
			c-0.5,0.4-1,0.9-1.6,1.3s-1.2,0.7-1.8,1s-1.2,0.5-1.9,0.7c-1.5,0.5-3,0.6-4.6,0.6c-0.5,0-1-0.1-1.5-0.2s-1.1-0.2-1.6-0.3
			c-0.5-0.1-0.9-0.3-1.4-0.5c-0.7-0.3-1.3-0.6-1.9-1c-0.6-0.3-1.1-0.8-1.7-1.2c-0.6-0.5-1.1-1-1.6-1.6c-0.3-0.4-0.6-0.8-0.9-1.2
			c-0.3-0.4-0.5-0.8-0.7-1.2c-0.3-0.7-0.1-1.3,0.4-1.8c0.6-0.6,1.2-0.7,2-0.4c0.4,0.1,0.7,0.4,0.9,0.8c0.5,0.8,1,1.5,1.7,2.2
			c0.6,0.6,1.4,1.2,2.2,1.6c0.6,0.3,1.2,0.6,1.8,0.8c1.3,0.4,2.6,0.5,4,0.4c0.4,0,0.7-0.1,1.1-0.2c0.3,0,0.5-0.1,0.8-0.2
			c0.2-0.1,0.5-0.2,0.7-0.2c0.7-0.3,1.3-0.6,2-1c0.8-0.5,1.6-1.2,2.2-1.9c0.5-0.6,1-1.3,1.3-2c0.3-0.6,0.5-1.2,0.7-1.8
			c0.3-1.1,0.5-2.2,0.4-3.4c0-0.5-0.1-1.1-0.2-1.6c-0.1-0.7-0.4-1.4-0.7-2.1c-0.5-1.1-1.2-2-2-2.9c-0.7-0.7-1.4-1.3-2.3-1.7
			c-0.7-0.4-1.5-0.7-2.3-1c-0.5-0.1-0.9-0.2-1.4-0.3c-0.7-0.1-1.4-0.1-2,0c-0.5,0-1,0.1-1.5,0.2c-0.3,0.1-0.6,0.2-0.9,0.3
			c-0.3,0.1-0.6,0.2-1,0.4c-0.6,0.3-1.1,0.6-1.6,0.9c-0.9,0.6-1.7,1.4-2.3,2.3c-0.3,0.4-0.5,0.9-0.9,1.3c-0.4,0.5-1,0.7-1.7,0.6
			s-1.2-0.6-1.4-1.3c-0.1-0.4-0.1-0.9,0.1-1.3c0.5-0.8,1-1.6,1.7-2.4c0.5-0.6,1.1-1.1,1.7-1.6c0.8-0.7,1.7-1.2,2.7-1.6
			c0.7-0.3,1.4-0.6,2.1-0.8c0.4-0.1,0.9-0.2,1.3-0.3c1.2-0.3,2.5-0.3,3.7-0.2c0.5,0,1,0.2,1.6,0.2c0.7,0.1,1.3,0.3,2,0.5
			c0.4,0.1,0.7,0.3,1.1,0.5c0.5,0.2,1,0.5,1.4,0.8c1,0.6,1.8,1.3,2.6,2.1c0.6,0.7,1.2,1.4,1.7,2.2c0.3,0.5,0.6,1,0.9,1.6
			c0.3,0.7,0.6,1.5,0.8,2.3c0.1,0.6,0.3,1.2,0.4,1.8C846.7,250.4,846.7,251,846.8,251.7z"/>
		<path d="M821.6,249.8c2,0,4,0,6,0c0.7,0,1.2,0.3,1.6,0.9c0.5,0.8,0.3,1.9-0.5,2.4c-0.4,0.2-0.8,0.3-1.2,0.3c-3.9,0-7.8,0-11.7,0
			c-0.7,0-1.3-0.3-1.7-0.9c-0.4-0.7-0.2-1.8,0.4-2.3c0.4-0.3,0.8-0.4,1.2-0.4C817.7,249.8,819.7,249.8,821.6,249.8L821.6,249.8z"/>
	</g>
	<g>
		<path d="M846.8,172.2c0,0.9-0.1,1.8-0.3,2.7c-0.2,0.7-0.4,1.5-0.6,2.2c-0.4,1-0.9,2-1.5,2.9s-1.3,1.7-2.2,2.5
			c-0.5,0.4-1,0.9-1.6,1.3c-0.6,0.4-1.2,0.7-1.8,1s-1.2,0.5-1.9,0.7c-1.5,0.5-3,0.6-4.6,0.6c-0.5,0-1-0.1-1.5-0.2
			c-0.5-0.1-1.1-0.2-1.6-0.3s-0.9-0.3-1.4-0.5c-0.7-0.3-1.3-0.6-1.9-1c-0.6-0.3-1.1-0.8-1.7-1.2c-0.6-0.5-1.1-1-1.6-1.6
			c-0.3-0.4-0.6-0.8-0.9-1.2c-0.3-0.4-0.5-0.8-0.7-1.2c-0.3-0.7-0.1-1.3,0.4-1.8c0.6-0.6,1.2-0.7,2-0.4c0.4,0.1,0.7,0.4,0.9,0.8
			c0.5,0.8,1,1.5,1.7,2.2c0.6,0.6,1.4,1.2,2.2,1.6c0.6,0.3,1.2,0.6,1.8,0.8c1.3,0.4,2.6,0.5,4,0.4c0.4,0,0.7-0.1,1.1-0.2
			c0.3,0,0.5-0.1,0.8-0.2c0.2-0.1,0.5-0.2,0.7-0.2c0.7-0.3,1.3-0.6,2-1c0.8-0.5,1.6-1.2,2.2-1.9c0.5-0.6,1-1.3,1.3-2
			c0.3-0.6,0.5-1.2,0.7-1.8c0.3-1.1,0.5-2.2,0.4-3.4c0-0.5-0.1-1.1-0.2-1.6c-0.1-0.7-0.4-1.4-0.7-2.1c-0.5-1.1-1.2-2-2-2.9
			c-0.7-0.7-1.4-1.3-2.3-1.7c-0.7-0.4-1.5-0.7-2.3-1c-0.5-0.1-0.9-0.2-1.4-0.3c-0.7-0.1-1.4-0.1-2,0c-0.5,0-1,0.1-1.5,0.2
			c-0.3,0.1-0.6,0.2-0.9,0.3c-0.3,0.1-0.6,0.2-1,0.4c-0.6,0.3-1.1,0.6-1.6,0.9c-0.9,0.6-1.7,1.4-2.3,2.3c-0.3,0.4-0.5,0.9-0.9,1.3
			c-0.4,0.5-1,0.7-1.7,0.6c-0.7-0.1-1.2-0.6-1.4-1.3c-0.1-0.4-0.1-0.9,0.1-1.3c0.5-0.8,1-1.6,1.7-2.4c0.5-0.6,1.1-1.1,1.7-1.6
			c0.8-0.7,1.7-1.2,2.7-1.6c0.7-0.3,1.4-0.6,2.1-0.8c0.4-0.1,0.9-0.2,1.3-0.3c1.2-0.3,2.5-0.3,3.7-0.2c0.5,0,1,0.2,1.6,0.2
			c0.7,0.1,1.3,0.3,2,0.5c0.4,0.1,0.7,0.3,1.1,0.5c0.5,0.2,1,0.5,1.4,0.8c1,0.6,1.8,1.3,2.6,2.1c0.6,0.7,1.2,1.4,1.7,2.2
			c0.3,0.5,0.6,1,0.9,1.6c0.3,0.7,0.6,1.5,0.8,2.3c0.1,0.6,0.3,1.2,0.4,1.8C846.7,171,846.7,171.6,846.8,172.2z"/>
		<path d="M821.6,170.4c2,0,4,0,6,0c0.7,0,1.2,0.3,1.6,0.9c0.5,0.8,0.3,1.9-0.5,2.4c-0.4,0.2-0.8,0.3-1.2,0.3c-3.9,0-7.8,0-11.7,0
			c-0.7,0-1.3-0.3-1.7-0.9c-0.4-0.7-0.2-1.8,0.4-2.3c0.4-0.3,0.8-0.4,1.2-0.4C817.7,170.4,819.7,170.4,821.6,170.4L821.6,170.4z"/>
	</g>
</g>
<circle class="st5" cx="772.5" cy="472.5" r="9.4"/>
<rect x="789.3" y="393.1" class="st6" width="6.6" height="162.2"/>
<g>
	<circle class="st0" cx="1015.7" cy="207.4" r="17"/>
	<path class="st0" d="M998.7,133.4c0-9.4,7.6-17,17-17s17,7.6,17,17s-7.6,17-17,17S998.7,142.8,998.7,133.4z"/>
	<polygon class="st0" points="913.8,719 913.8,67.1 913.8,58.6 956.3,58.6 956.3,67.1 988.9,67.1 988.9,58.6 1031.5,58.6 
		1031.5,67.1 1064.1,67.1 1064.1,58.6 1106.6,58.6 1106.6,81.2 1115.1,81.2 1115.1,137.9 1106.6,137.9 1106.6,237.1 1115.1,237.1 
		1115.1,322.2 1106.6,322.2 1106.6,463.9 1115.1,463.9 1115.1,548.9 1106.6,548.9 1106.6,648.2 1115.1,648.2 1115.1,704.9 
		1106.6,704.9 1106.6,727.5 1064.1,727.5 1064.1,719 1031.5,719 1031.5,727.5 988.9,727.5 988.9,719 956.3,719 956.3,727.5 
		913.8,727.5 	"/>
	<rect x="958.8" y="417.7" class="st0" width="51" height="8.5"/>
	<circle class="st0" cx="1016.3" cy="355.4" r="17"/>
	<path class="st0" d="M999.3,281.3c0-9.4,7.6-17,17-17s17,7.6,17,17s-7.6,17-17,17C1006.9,298.4,999.3,290.7,999.3,281.3z"/>
	<circle class="st0" cx="1014.4" cy="619.5" r="17"/>
	<path class="st0" d="M997.4,545.4c0-9.4,7.6-17,17-17c9.4,0,17,7.6,17,17c0,9.4-7.6,17-17,17C1005.1,562.4,997.4,554.8,997.4,545.4
		z"/>
	<g>
		<g>
			<line class="st7" x1="965.6" y1="355.3" x2="982" y2="355.3"/>
			<g>
				<path d="M981.2,350.3c1.2,2.1,3.2,3.8,5.3,5.1c-2.1,1.3-4,3-5.3,5.1H980c1.3-2,2.9-3.7,4.8-5.1c-1.9-1.3-3.6-3.1-4.9-5.1H981.2z
					"/>
				<path d="M978.1,350.3c1.2,2.1,3.2,3.8,5.3,5.1c-2.1,1.3-4,3-5.3,5.1h-1.2c1.3-2,2.9-3.7,4.8-5.1c-1.9-1.3-3.6-3.1-4.9-5.1H978.1
					z"/>
			</g>
		</g>
	</g>
	<g>
		<g>
			<line class="st7" x1="965.6" y1="207.9" x2="981.4" y2="207.9"/>
			<g>
				<path d="M980.6,202.8c1.2,2.1,3.2,3.8,5.3,5.1c-2.1,1.3-4,3-5.3,5.1h-1.2c1.3-2,2.9-3.7,4.8-5.1c-1.9-1.3-3.6-3.1-4.9-5.1H980.6
					z"/>
				<path d="M977.6,202.8c1.2,2.1,3.2,3.8,5.3,5.1c-2.1,1.3-4,3-5.3,5.1h-1.2c1.3-2,2.9-3.7,4.8-5.1c-1.9-1.3-3.6-3.1-4.9-5.1H977.6
					z"/>
			</g>
		</g>
	</g>
</g>
<g id="Player_1_and_2">
	<ellipse cx="1057.4" cy="619.1" rx="3.5" ry="2.7"/>
	<path class="st8" d="M1064.5,622.3"/>
	<path class="st8" d="M1064.5,622.3"/>
	<path class="st9" d="M1076.1,615.8h-9.4c-1.3,0-2.6-0.5-3.6-1.3c-1.9-1.5-3.7-3.1-5.6-4.6c-0.8-0.6-1.8-0.6-2.1-0.2
		c-0.4,0.4-0.2,1.6,0.7,2.2c3.5,3,6.1,5.3,6.8,6.1c0.3,0.3,0.5,0.7,0.5,1.1c-0.1,0.5-0.5,0.8-0.5,0.8c-2.2,2.4-4.5,4.8-6.7,7.3
		c-0.9,0.8-1,1.9-0.6,2.3c0.4,0.4,1.4,0.3,2.1-0.4c1.7-1.7,3.4-3.3,5.1-5c1.1-1.1,2.5-1.6,4-1.6h9.2c1.5,0,3-0.5,4-1.6
		c0.9-1,1.3-2.3-0.4-3.7C1078.6,616.2,1077.4,615.8,1076.1,615.8z"/>
	<path class="st8" d="M1063,618"/>
	<path d="M1076.7,638.4"/>
	<ellipse cx="1057.4" cy="556" rx="3.5" ry="2.7"/>
	<path class="st8" d="M1064.5,559.3"/>
	<path class="st8" d="M1064.5,559.3"/>
	<path class="st9" d="M1076.1,552.8h-9.4c-1.3,0-2.6-0.5-3.6-1.3c-1.9-1.5-3.7-3.1-5.6-4.6c-0.8-0.6-1.8-0.6-2.1-0.2
		c-0.4,0.4-0.2,1.6,0.7,2.2c3.5,3,6.1,5.3,6.8,6.1c0.3,0.3,0.5,0.7,0.5,1.1c-0.1,0.5-0.5,0.8-0.5,0.8c-2.2,2.4-4.5,4.8-6.7,7.3
		c-0.9,0.8-1,1.9-0.6,2.3c0.4,0.4,1.4,0.3,2.1-0.4c1.7-1.7,3.4-3.3,5.1-5c1.1-1.1,2.5-1.6,4-1.6h9.2c1.5,0,3-0.5,4-1.6
		c0.9-1,1.3-2.3-0.4-3.7C1078.6,553.2,1077.4,552.8,1076.1,552.8z"/>
	<path class="st8" d="M1063,554.9"/>
	<path d="M1076.7,575.4"/>
	<ellipse cx="1057.4" cy="531" rx="3.5" ry="2.7"/>
	<path class="st8" d="M1064.5,534.3"/>
	<path class="st8" d="M1064.5,534.3"/>
	<path class="st9" d="M1076.1,527.7h-9.4c-1.3,0-2.6-0.5-3.6-1.3c-1.9-1.5-3.7-3.1-5.6-4.6c-0.8-0.6-1.8-0.6-2.1-0.2
		c-0.4,0.4-0.2,1.6,0.7,2.2c3.5,3,6.1,5.3,6.8,6.1c0.3,0.3,0.5,0.7,0.5,1.1c-0.1,0.5-0.5,0.8-0.5,0.8c-2.2,2.4-4.5,4.8-6.7,7.3
		c-0.9,0.8-1,1.9-0.6,2.3c0.4,0.4,1.4,0.3,2.1-0.4c1.7-1.7,3.4-3.3,5.1-5c1.1-1.1,2.5-1.6,4-1.6h9.2c1.5,0,3-0.5,4-1.6
		c0.9-1,1.3-2.3-0.4-3.7C1078.6,528.1,1077.4,527.7,1076.1,527.7z"/>
	<path class="st8" d="M1063,529.9"/>
	<path d="M1076.7,550.3"/>
</g>
<g id="Text_1_">
	<g>
		<path d="M1067.3,164.2h-1.5v-3h1.5v-4.5h-3v6h-1.5v1.5h-3v-1.5h-1.5v-6h1.5v-1.5h1.5v3h-1.5v3h3v-6h1.5v-1.5h3v1.5h1.5v7.5h-1.5
			V164.2z"/>
		<path d="M1058.3,141.7h1.5v7.5h3v-6h1.5v6h3v-7.5h1.5v10.5h-10.5V141.7z"/>
		<path d="M1058.3,137.2h9v-7.5h1.5v10.5h-10.5V137.2z"/>
		<path d="M1058.3,117.7h1.5v7.5h3v-6h1.5v6h3v-7.5h1.5v10.5h-10.5V117.7z"/>
		<path d="M1067.3,114.7h-1.5v1.5h-4.5v-1.5h-1.5v-1.5h-1.5v-6h1.5v-1.5h1.5v3h-1.5v3h1.5v1.5h4.5v-1.5h1.5v-3h-1.5v-3h1.5v1.5h1.5
			v6h-1.5V114.7z"/>
		<path d="M1059.8,102.7h-1.5v-9h1.5v3h9v3h-9V102.7z"/>
	</g>
	<g>
		<path d="M1067.3,239.4h-1.5v-3h1.5v-4.5h-3v6h-1.5v1.5h-3v-1.5h-1.5v-6h1.5v-1.5h1.5v3h-1.5v3h3v-6h1.5v-1.5h3v1.5h1.5v7.5h-1.5
			V239.4z"/>
		<path d="M1059.8,225.9h-1.5v-9h1.5v3h9v3h-9V225.9z"/>
		<path d="M1061.3,213.9h-1.5v-1.5h-1.5v-4.5h1.5v-1.5h1.5v-1.5h7.5v3h-3v4.5h3v3h-7.5V213.9z M1064.3,212.4v-4.5h-3v1.5h-1.5v1.5
			h1.5v1.5H1064.3z"/>
		<path d="M1058.3,194.4h1.5v-1.5h4.5v3h1.5v-1.5h1.5v-1.5h1.5v4.5h-1.5v1.5h-1.5v1.5h3v3h-10.5V194.4z M1064.3,200.4v-3h-1.5v-1.5
			h-3v4.5H1064.3z"/>
		<path d="M1059.8,189.9h-1.5v-9h1.5v3h9v3h-9V189.9z"/>
	</g>
	<g>
		<path d="M1067.3,304.4h-1.5v1.5h-4.5v-1.5h-1.5v-1.5h-1.5v-6h1.5v-1.5h1.5v3h-1.5v3h1.5v1.5h4.5v-1.5h1.5v-3h-1.5v-3h1.5v1.5h1.5
			v6h-1.5V304.4z"/>
		<path d="M1067.3,293.9h-7.5v-1.5h-1.5v-7.5h1.5v-1.5h7.5v1.5h1.5v7.5h-1.5V293.9z M1067.3,290.9v-4.5h-7.5v4.5H1067.3z"/>
		<path d="M1067.3,277.4h-7.5v3h-1.5v-9h1.5v3h7.5v-3h1.5v9h-1.5V277.4z"/>
		<path d="M1058.3,266.9h1.5v-1.5h1.5v-1.5h1.5v-1.5h-4.5v-3h10.5v3h-1.5v1.5h-1.5v1.5h-1.5v1.5h4.5v3h-10.5V266.9z"/>
	</g>
	<g>
		<path d="M946.1,293.9h1.5v7.5h3v-6h1.5v6h3v-7.5h1.5v10.5h-10.5V293.9z"/>
		<path d="M953.6,290.9h-1.5v-1.5h-1.5v1.5h-1.5v1.5h-3v-3h1.5v-1.5h1.5v-1.5h-1.5v-1.5h-1.5v-3h3v1.5h1.5v1.5h1.5v-1.5h1.5v-1.5h3
			v3h-1.5v1.5h-1.5v1.5h1.5v1.5h1.5v3h-3V290.9z"/>
		<path d="M955.1,275.9h-7.5v3h-1.5v-9h1.5v3h7.5v-3h1.5v9h-1.5V275.9z"/>
		<path d="M947.6,266.9h-1.5v-9h1.5v3h9v3h-9V266.9z"/>
	</g>
</g>
<g id="Exit_Lines">
	<line class="st10" x1="965.6" y1="355.3" x2="965.6" y2="207.4"/>
</g>
</svg>
