<?xml version="1.0" encoding="utf-8"?>
<!-- Generator: Adobe Illustrator 23.0.6, SVG Export Plug-In . SVG Version: 6.00 Build 0)  -->
<svg version="1.1" id="Layer_1" xmlns="http://www.w3.org/2000/svg" xmlns:xlink="http://www.w3.org/1999/xlink" x="0px" y="0px"
	 viewBox="0 0 1440 864" style="enable-background:new 0 0 1440 864;" xml:space="preserve">
<style type="text/css">
	.st0{fill:none;stroke:#000000;stroke-width:0.1;stroke-miterlimit:10;}
	.st1{fill:none;stroke:#010101;stroke-width:0.1;stroke-miterlimit:22.9256;}
	.st2{fill:none;stroke:#010101;stroke-width:0.1;stroke-linecap:round;stroke-linejoin:round;stroke-miterlimit:10;}
	.st3{fill:none;stroke:#FF0000;stroke-width:0.1;stroke-miterlimit:10;}
	.st4{fill:none;stroke:#FF0000;stroke-width:0.1;stroke-miterlimit:22.9256;}
	.st5{fill:none;stroke:#33CC00;stroke-width:0.1;stroke-linecap:round;stroke-linejoin:round;stroke-miterlimit:10;}
	.st6{fill:none;stroke:#000000;stroke-width:0.1;stroke-linecap:round;stroke-linejoin:round;stroke-miterlimit:10;}
</style>
<g id="Back_Full">
	<g id="Outline">
		<g id="Outline3">
			<path class="st0" d="M1030.8,324.9H93.2c-6.7,0-12.2-5.5-12.2-12.2V55.8c0-6.7,5.5-12.2,12.2-12.2h937.5
				c6.7,0,12.2,5.5,12.2,12.2v256.9C1042.9,319.4,1037.5,324.9,1030.8,324.9z"/>
			<path class="st1" d="M97.6,55.4c2.7,0,4.8,2.2,4.8,4.8c0,2.7-2.2,4.8-4.8,4.8c-2.7,0-4.8-2.2-4.8-4.8S94.9,55.4,97.6,55.4z"/>
			<path class="st1" d="M97.6,303.5c2.7,0,4.8,2.2,4.8,4.8c0,2.7-2.2,4.8-4.8,4.8c-2.7,0-4.8-2.2-4.8-4.8S94.9,303.5,97.6,303.5z"/>
			<path class="st1" d="M1026.4,55.4c2.7,0,4.8,2.2,4.8,4.8c0,2.7-2.2,4.8-4.8,4.8c-2.7,0-4.8-2.2-4.8-4.8S1023.7,55.4,1026.4,55.4z
				"/>
			<path class="st1" d="M1026.4,303.5c2.7,0,4.8,2.2,4.8,4.8c0,2.7-2.2,4.8-4.8,4.8c-2.7,0-4.8-2.2-4.8-4.8
				S1023.7,303.5,1026.4,303.5z"/>
		</g>
	</g>
</g>
<g id="Cutouts_1_">
	<ellipse transform="matrix(0.8 -0.5999 0.5999 0.8 47.1489 325.6864)" class="st2" cx="512.2" cy="92.1" rx="6.1" ry="6.1"/>
	<circle class="st2" cx="370.5" cy="92.1" r="6.1"/>
	<circle class="st2" cx="158.1" cy="92.1" r="6.1"/>
	<circle class="st2" cx="157.9" cy="276.4" r="6.1"/>
	<circle class="st2" cx="299.6" cy="276.4" r="6.1"/>
	<ellipse transform="matrix(0.6 -0.8 0.8 0.6 -16.221 520.3408)" class="st2" cx="512.2" cy="276.4" rx="6.1" ry="6.1"/>
	<g>
		<g>
			<line class="st3" x1="281.2" y1="153.7" x2="281.2" y2="234.6"/>
			<g>
				<path class="st3" d="M284.4,154.3c-1.4-0.9-2.4-2.2-3.2-3.7c-0.8,1.5-1.9,2.8-3.2,3.7v0.9c1.3-0.9,2.4-2,3.2-3.4
					c0.8,1.4,2,2.5,3.2,3.4V154.3z"/>
				<path class="st3" d="M284.4,156.3c-1.4-0.9-2.4-2.2-3.2-3.7c-0.8,1.5-1.9,2.8-3.2,3.7v0.9c1.3-0.9,2.4-2,3.2-3.4
					c0.8,1.4,2,2.5,3.2,3.4V156.3z"/>
			</g>
		</g>
	</g>
	<path class="st4" d="M277.2,134.3v4.8c0,1.8,0.7,2.6,1.7,2.6c1.1,0,1.8-0.8,1.8-2.6v-4.8h1v4.7c0,2.5-1.2,3.5-2.8,3.5
		s-2.6-0.9-2.6-3.5v-4.7H277.2z"/>
	<path class="st4" d="M283.1,138.6c0-0.7,0-1.3,0-1.9h0.8v1l0,0c0.4-0.7,1-1.1,1.9-1.1c1.3,0,2.3,1.2,2.3,3c0,2.1-1.2,3.1-2.4,3.1
		c-0.7,0-1.3-0.3-1.6-0.9l0,0v3.2h-0.9L283.1,138.6L283.1,138.6L283.1,138.6z M284.2,140.1c0,0.2,0,0.3,0,0.4
		c0.2,0.7,0.7,1.2,1.5,1.2c1,0,1.6-0.9,1.6-2.2c0-1.2-0.5-2.2-1.6-2.2c-0.6,0-1.3,0.5-1.5,1.3c0,0.1-0.1,0.3-0.1,0.4L284.2,140.1
		L284.2,140.1z"/>
	<g id="LWPOLYLINE_1_">
		<path class="st2" d="M207.2,230.8h28.5c1.5,0,2.6-1.3,2.6-2.8v-82.2c0-1.6-1.2-2.8-2.6-2.8h-28.5c-1.5,0-2.6,1.3-2.6,2.8V228
			C204.5,229.4,205.7,230.8,207.2,230.8z"/>
	</g>
	<g id="LWPOLYLINE_2_">
		<path class="st2" d="M349.5,209.7c1.7,0,3-1.2,3-2.6v-56.9c0-1.5-1.4-2.6-3-2.6h-41.9c-1.7,0-3,1.2-3,2.6v56.9
			c0,1.5,1.4,2.6,3,2.6L349.5,209.7L349.5,209.7z"/>
	</g>
	<g>
		<path class="st2" d="M125.6,228.2c0-2.4,1.7-4.3,3.9-4.3"/>
		<path class="st2" d="M133.4,228.2c0,2.4-1.7,4.3-3.9,4.3s-3.9-1.9-3.9-4.3"/>
		<path class="st2" d="M129.5,223.9c2.2,0,3.9,1.9,3.9,4.3"/>
	</g>
	<g>
		<path class="st2" d="M536.7,140.3c0-2.4,1.7-4.3,3.9-4.3"/>
		<path class="st2" d="M544.5,140.3c0,2.4-1.7,4.3-3.9,4.3s-3.9-1.9-3.9-4.3"/>
		<path class="st2" d="M540.6,136c2.2,0,3.9,1.9,3.9,4.3"/>
	</g>
	<path class="st5" d="M558.1,293.9"/>
	<path class="st5" d="M558.1,74.6"/>
	
		<ellipse transform="matrix(0.2298 -0.9732 0.9732 0.2298 654.0993 1011.0072)" class="st2" cx="965.8" cy="92.2" rx="6.1" ry="6.1"/>
	<circle class="st2" cx="824.1" cy="92.1" r="6.1"/>
	<circle class="st2" cx="611.7" cy="92.1" r="6.1"/>
	<circle class="st2" cx="611.5" cy="276.4" r="6.1"/>
	<circle class="st2" cx="753.2" cy="276.4" r="6.1"/>
	
		<ellipse transform="matrix(0.1602 -0.9871 0.9871 0.1602 538.2471 1185.4893)" class="st2" cx="965.8" cy="276.4" rx="6.1" ry="6.1"/>
	<g id="LWPOLYLINE_4_">
		<path class="st2" d="M659.2,229.8h28.5c1.5,0,2.6-1.3,2.6-2.8v-82.2c0-1.6-1.2-2.8-2.6-2.8h-28.5c-1.5,0-2.6,1.3-2.6,2.8V227
			C656.5,228.4,657.7,229.8,659.2,229.8z"/>
	</g>
	<g id="LWPOLYLINE_3_">
		<path class="st2" d="M801.6,209.3c1.7,0,3-1.2,3-2.6v-56.9c0-1.5-1.4-2.6-3-2.6h-41.9c-1.7,0-3,1.2-3,2.6v56.9
			c0,1.5,1.4,2.6,3,2.6L801.6,209.3L801.6,209.3z"/>
	</g>
	<g>
		<path class="st6" d="M579.2,228.2c0-2.4,1.7-4.3,3.9-4.3"/>
		<path class="st6" d="M587,228.2c0,2.4-1.7,4.3-3.9,4.3s-3.9-1.9-3.9-4.3"/>
		<path class="st6" d="M583.1,223.9c2.2,0,3.9,1.9,3.9,4.3"/>
	</g>
	<g>
		<path class="st2" d="M990.3,140.3c0-2.4,1.7-4.3,3.9-4.3"/>
		<path class="st2" d="M998.1,140.3c0,2.4-1.7,4.3-3.9,4.3s-3.9-1.9-3.9-4.3"/>
		<path class="st2" d="M994.2,136c2.2,0,3.9,1.9,3.9,4.3"/>
	</g>
	<path class="st5" d="M558.1,293.9"/>
	<path class="st5" d="M558.1,74.6"/>
	<ellipse class="st0" cx="374" cy="236" rx="8.2" ry="12.6"/>
	<ellipse class="st0" cx="393.3" cy="131.4" rx="8.2" ry="12.6"/>
	<ellipse class="st0" cx="723.6" cy="235.6" rx="8.2" ry="12.6"/>
	<ellipse class="st0" cx="742.9" cy="133" rx="8.2" ry="12.6"/>
	<g id="LWPOLYLINE_6_">
		<path class="st2" d="M432.9,230.1h28.5c1.5,0,2.6-1.3,2.6-2.8v-82.2c0-1.6-1.2-2.8-2.6-2.8h-28.5c-1.5,0-2.6,1.3-2.6,2.8v82.2
			C430.2,228.7,431.4,230.1,432.9,230.1z"/>
	</g>
	<path class="st6" d="M505.7,236.5c2.6,0,4.7,2.1,4.7,4.7s-2.1,4.7-4.7,4.7s-4.7-2.1-4.7-4.7C500.9,238.6,503,236.5,505.7,236.5
		L505.7,236.5z"/>
	<path class="st6" d="M615.8,236.5c2.6,0,4.7,2.1,4.7,4.7s-2.1,4.7-4.7,4.7c-2.6,0-4.7-2.1-4.7-4.7
		C611,238.6,613.1,236.5,615.8,236.5L615.8,236.5z"/>
	<g>
		<path class="st3" d="M559.1,216.3c-0.1-0.5-0.2-1.2-0.2-2c0-1,0.2-1.8,0.7-2.3c0.4-0.4,1-0.7,1.7-0.7s1.3,0.2,1.7,0.6
			c0.6,0.6,0.9,1.5,0.9,2.5c0,0.3,0,0.6-0.1,0.8h3.2v1L559.1,216.3L559.1,216.3L559.1,216.3z M563,215.2c0.1-0.2,0.1-0.5,0.1-0.9
			c0-1.3-0.6-2-1.7-2s-1.6,0.8-1.6,1.9c0,0.5,0,0.8,0.1,1H563z"/>
		<path class="st3" d="M559,208.8h8.1v1H559V208.8z"/>
		<path class="st3" d="M567.1,202.6l-1.8,1c-0.7,0.4-1.1,0.7-1.6,0.9l0,0c0.5,0.2,0.9,0.5,1.6,0.9l1.8,1v1.2l-4.1-2.5l-4,2.4v-1.2
			l1.9-1.1c0.5-0.3,0.9-0.5,1.4-0.7l0,0c-0.5-0.2-0.9-0.4-1.4-0.7l-1.9-1.1v-1.3l3.9,2.5l4.1-2.5L567.1,202.6L567.1,202.6z"/>
		<path class="st3" d="M563.3,196v3.1h2.9v-3.5h0.9v4.5H559v-4.4h0.9v3.3h2.6v-3.1L563.3,196L563.3,196L563.3,196z"/>
		<path class="st3" d="M559,194.3v-1h7.2v-3.5h0.9v4.5H559z"/>
		<path class="st3" d="M559.1,186.1c-0.1-0.5-0.2-1.2-0.2-1.9c0-1,0.2-1.7,0.6-2.2c0.3-0.4,0.8-0.7,1.4-0.7c0.8,0,1.5,0.5,1.8,1.4
			l0,0c0.2-0.8,0.8-1.7,2-1.7c0.7,0,1.2,0.3,1.6,0.7c0.5,0.6,0.8,1.5,0.8,2.8c0,0.7,0,1.3-0.1,1.6L559.1,186.1L559.1,186.1z
			 M562.4,185v-0.9c0-1.1-0.6-1.8-1.4-1.8c-0.9,0-1.3,0.7-1.3,1.8c0,0.5,0,0.8,0.1,0.9H562.4z M566.3,185c0-0.2,0-0.5,0-0.9
			c0-1.1-0.4-2.1-1.6-2.1c-1.1,0-1.6,0.9-1.6,2.1v0.9H566.3z"/>
		<path class="st3" d="M563,172.6c2.8,0,4.3,1.7,4.3,3.8s-1.7,3.6-4.1,3.6c-2.6,0-4.2-1.6-4.2-3.8
			C558.9,174.1,560.6,172.6,563,172.6z M563.1,178.9c1.7,0,3.3-0.9,3.3-2.6s-1.5-2.6-3.4-2.6c-1.6,0-3.3,0.8-3.3,2.6
			S561.3,178.9,563.1,178.9z"/>
		<path class="st3" d="M564.6,170.1l2.5,0.8v1.1l-8.1-2.7V168l8.1-2.8v1.1l-2.5,0.9V170.1z M563.7,167.5l-2.3,0.8
			c-0.5,0.2-1,0.3-1.5,0.4l0,0c0.5,0.1,1,0.3,1.5,0.4l2.3,0.8V167.5z"/>
		<path class="st3" d="M559.1,164.1c-0.1-0.5-0.2-1.3-0.2-2c0-1.1,0.2-1.8,0.7-2.3c0.4-0.4,0.9-0.6,1.5-0.6c1.1,0,1.8,0.7,2.1,1.5
			l0,0c0.2-0.6,0.8-1,1.6-1.2c1.1-0.3,1.9-0.5,2.2-0.6v1.1c-0.2,0.1-0.9,0.3-1.9,0.5c-1.1,0.2-1.5,0.7-1.6,1.6v1h3.5v1H559.1z
			 M562.8,163.1V162c0-1.1-0.6-1.8-1.5-1.8c-1,0-1.5,0.8-1.5,1.9c0,0.5,0,0.9,0.1,1L562.8,163.1L562.8,163.1z"/>
		<path class="st3" d="M559.1,157.7c-0.1-0.6-0.2-1.4-0.2-2.2c0-1.5,0.3-2.6,1-3.3s1.6-1.1,2.9-1.1s2.4,0.4,3.1,1.2
			c0.8,0.8,1.2,2,1.2,3.6c0,0.7,0,1.4-0.1,1.9L559.1,157.7L559.1,157.7z M566.3,156.6c0-0.3,0.1-0.6,0.1-1.1c0-2.2-1.2-3.4-3.4-3.4
			c-1.9,0-3.1,1.1-3.1,3.3c0,0.5,0,0.9,0.1,1.2H566.3z"/>
	</g>
	<g>
		<path class="st3" d="M613.7,185.5h4.8c1.8,0,2.6-0.8,2.6-1.9c0-1.2-0.8-2-2.6-2h-4.8v-1.1h4.7c2.5,0,3.5,1.3,3.5,3.1
			c0,1.7-0.9,2.9-3.5,2.9h-4.8L613.7,185.5L613.7,185.5z"/>
		<path class="st3" d="M620.5,179c0.3-0.5,0.5-1.2,0.5-1.9c0-1.1-0.6-1.7-1.4-1.7s-1.2,0.4-1.6,1.5c-0.5,1.3-1.2,2.1-2.3,2.1
			c-1.3,0-2.2-1-2.2-2.6c0-0.8,0.2-1.4,0.4-1.8l0.9,0.3c-0.1,0.3-0.4,0.8-0.4,1.5c0,1.1,0.7,1.5,1.2,1.5c0.8,0,1.1-0.5,1.6-1.6
			c0.5-1.4,1.2-2.1,2.4-2.1s2.3,0.9,2.3,2.8c0,0.8-0.2,1.6-0.5,2.1L620.5,179z"/>
		<path class="st3" d="M613.8,172.9c-0.1-0.5-0.2-1.2-0.2-1.9c0-1,0.2-1.7,0.6-2.2c0.3-0.4,0.8-0.7,1.4-0.7c0.8,0,1.5,0.5,1.8,1.4
			l0,0c0.2-0.8,0.8-1.7,2-1.7c0.7,0,1.2,0.3,1.6,0.7c0.5,0.6,0.8,1.5,0.8,2.8c0,0.7,0,1.3-0.1,1.6L613.8,172.9L613.8,172.9z
			 M617.1,171.9V171c0-1.1-0.6-1.8-1.4-1.8c-0.9,0-1.3,0.7-1.3,1.8c0,0.5,0,0.8,0.1,0.9H617.1z M621,171.9c0-0.2,0-0.5,0-0.9
			c0-1.1-0.4-2.1-1.6-2.1c-1.1,0-1.6,0.9-1.6,2.1v0.9H621z"/>
	</g>
	<path class="st6" d="M505.7,120.4c2.6,0,4.7,2.1,4.7,4.7s-2.1,4.7-4.7,4.7s-4.7-2.1-4.7-4.7C500.9,122.5,503,120.4,505.7,120.4
		L505.7,120.4z"/>
	<path class="st6" d="M615.8,120.4c2.6,0,4.7,2.1,4.7,4.7s-2.1,4.7-4.7,4.7c-2.6,0-4.7-2.1-4.7-4.7
		C611,122.5,613.1,120.4,615.8,120.4L615.8,120.4z"/>
	<g>
		<path class="st3" d="M525,243.8c-0.1-1.1-0.1-2.5-0.1-3.5l0,0c-0.3,0.9-0.6,2-1,3.1l-1.4,3.9h-0.8l-1.3-3.9
			c-0.4-1.1-0.7-2.2-0.9-3.1l0,0c0,1-0.1,2.4-0.2,3.6l-0.2,3.5h-1l0.6-8.1h1.3l1.4,3.9c0.3,1,0.6,1.9,0.8,2.7l0,0
			c0.2-0.8,0.5-1.7,0.9-2.7l1.4-3.9h1.3l0.5,8.1h-1L525,243.8z"/>
		<path class="st3" d="M533.2,244.4c0,2.1-1.5,3.1-2.9,3.1c-1.6,0-2.8-1.2-2.8-3c0-1.9,1.3-3.1,2.9-3.1
			C532,241.4,533.2,242.6,533.2,244.4z M528.5,244.4c0,1.3,0.7,2.2,1.8,2.2c1,0,1.8-0.9,1.8-2.3c0-1-0.5-2.2-1.7-2.2
			C529.1,242.2,528.5,243.3,528.5,244.4z"/>
		<path class="st3" d="M539.3,245.7c0,0.6,0,1.1,0,1.6h-0.9l-0.1-0.9l0,0c-0.3,0.5-0.9,1.1-1.9,1.1c-0.9,0-2-0.5-2-2.5v-3.4h1.1v3.2
			c0,1.1,0.3,1.8,1.3,1.8c0.7,0,1.2-0.5,1.4-1c0.1-0.2,0.1-0.3,0.1-0.5v-3.6h1.1L539.3,245.7L539.3,245.7z"/>
		<path class="st3" d="M541.1,243.1c0-0.6,0-1.1,0-1.6h0.9l0.1,1l0,0c0.3-0.6,1-1.1,1.9-1.1c0.8,0,2.1,0.5,2.1,2.5v3.5H545V244
			c0-0.9-0.3-1.7-1.3-1.7c-0.7,0-1.2,0.5-1.4,1.1c0,0.1-0.1,0.3-0.1,0.5v3.5h-1.1L541.1,243.1L541.1,243.1z"/>
		<path class="st3" d="M549,239.8v1.7h1.5v0.8H549v3.1c0,0.7,0.2,1.1,0.8,1.1c0.3,0,0.5,0,0.6-0.1v0.8c-0.2,0.1-0.5,0.1-0.9,0.1
			c-0.5,0-0.9-0.2-1.1-0.4c-0.3-0.3-0.4-0.8-0.4-1.5v-3.2h-0.9v-0.8h0.9V240L549,239.8z"/>
		<path class="st3" d="M554.3,239.2h1v7.2h3.5v0.9h-4.5V239.2z"/>
		<path class="st3" d="M564.1,243.5H561v2.9h3.5v0.9H560v-8.1h4.4v0.9H561v2.6h3.1V243.5z"/>
		<path class="st3" d="M565.8,239.3c0.6-0.1,1.4-0.2,2.2-0.2c1.5,0,2.6,0.3,3.3,1s1.1,1.6,1.1,2.9c0,1.3-0.4,2.4-1.2,3.1
			c-0.8,0.8-2,1.2-3.6,1.2c-0.7,0-1.4,0-1.9-0.1v-7.9H565.8z M566.9,246.5c0.3,0,0.6,0.1,1.1,0.1c2.2,0,3.4-1.2,3.4-3.4
			c0-1.9-1.1-3.1-3.3-3.1c-0.5,0-0.9,0-1.2,0.1V246.5z"/>
		<path class="st3" d="M576.4,239.3c0.5-0.1,1.2-0.2,2-0.2c1,0,1.8,0.2,2.3,0.7c0.4,0.4,0.7,1,0.7,1.7s-0.2,1.3-0.6,1.7
			c-0.6,0.6-1.5,0.9-2.5,0.9c-0.3,0-0.6,0-0.8-0.1v3.2h-1v-7.9L576.4,239.3L576.4,239.3z M577.4,243.2c0.2,0.1,0.5,0.1,0.9,0.1
			c1.3,0,2-0.6,2-1.7c0-1.1-0.8-1.6-1.9-1.6c-0.5,0-0.8,0-1,0.1V243.2z"/>
		<path class="st3" d="M585.6,247.3l-0.1-0.7l0,0c-0.3,0.5-0.9,0.9-1.8,0.9c-1.2,0-1.8-0.8-1.8-1.7c0-1.4,1.2-2.2,3.5-2.2v-0.1
			c0-0.5-0.1-1.3-1.3-1.3c-0.5,0-1.1,0.2-1.5,0.4l-0.2-0.7c0.5-0.3,1.2-0.5,1.9-0.5c1.8,0,2.2,1.2,2.2,2.4v2.2c0,0.5,0,1,0.1,1.4
			L585.6,247.3L585.6,247.3z M585.5,244.3c-1.2,0-2.5,0.2-2.5,1.3c0,0.7,0.5,1,1,1c0.8,0,1.2-0.5,1.4-1c0-0.1,0.1-0.2,0.1-0.3V244.3
			z"/>
		<path class="st3" d="M588.2,243.1c0-0.6,0-1.1,0-1.6h0.9l0.1,1l0,0c0.3-0.6,1-1.1,1.9-1.1c0.8,0,2.1,0.5,2.1,2.5v3.5h-1.1V244
			c0-0.9-0.3-1.7-1.3-1.7c-0.7,0-1.2,0.5-1.4,1.1c0,0.1-0.1,0.3-0.1,0.5v3.5h-1.1L588.2,243.1L588.2,243.1z"/>
		<path class="st3" d="M595.4,244.6c0,1.4,0.9,2,2,2c0.8,0,1.2-0.1,1.6-0.3l0.2,0.8c-0.4,0.2-1,0.4-1.9,0.4c-1.8,0-2.9-1.2-2.9-2.9
			c0-1.8,1-3.1,2.7-3.1c1.9,0,2.4,1.7,2.4,2.7c0,0.2,0,0.4,0,0.5L595.4,244.6L595.4,244.6z M598.5,243.8c0-0.7-0.3-1.7-1.5-1.7
			c-1.1,0-1.5,1-1.6,1.7H598.5z"/>
		<path class="st3" d="M600.9,238.8h1.1v8.5h-1.1V238.8z"/>
		<path class="st3" d="M603.5,246.2c0.3,0.2,0.9,0.4,1.4,0.4c0.8,0,1.1-0.4,1.1-0.9s-0.3-0.8-1.1-1.1c-1-0.4-1.5-0.9-1.5-1.6
			c0-0.9,0.8-1.7,2-1.7c0.6,0,1.1,0.2,1.4,0.4l-0.3,0.8c-0.2-0.1-0.6-0.3-1.2-0.3c-0.6,0-1,0.4-1,0.8c0,0.5,0.3,0.7,1.1,1
			c1,0.4,1.5,0.9,1.5,1.8c0,1-0.8,1.7-2.2,1.7c-0.6,0-1.2-0.2-1.6-0.4L603.5,246.2z"/>
		<path class="st3" d="M534.1,258.8c0,2.1-1.5,3.1-2.9,3.1c-1.6,0-2.8-1.2-2.8-3c0-1.9,1.3-3.1,2.9-3.1
			C533,255.8,534.1,257,534.1,258.8z M529.5,258.8c0,1.3,0.7,2.2,1.8,2.2c1,0,1.8-0.9,1.8-2.3c0-1-0.5-2.2-1.7-2.2
			C530.1,256.6,529.5,257.7,529.5,258.8z"/>
		<path class="st3" d="M535.5,257.5c0-0.6,0-1.1,0-1.6h0.9l0.1,1l0,0c0.3-0.6,1-1.1,1.9-1.1c0.8,0,2.1,0.5,2.1,2.5v3.5h-1.1v-3.3
			c0-0.9-0.3-1.7-1.3-1.7c-0.7,0-1.2,0.5-1.4,1.1c0,0.1-0.1,0.3-0.1,0.5v3.5h-1.1L535.5,257.5L535.5,257.5z"/>
		<path class="st3" d="M551.6,257.6c0,2.8-1.7,4.3-3.8,4.3s-3.6-1.7-3.6-4.1c0-2.6,1.6-4.2,3.8-4.2
			C550.2,253.5,551.6,255.2,551.6,257.6z M545.3,257.7c0,1.7,0.9,3.3,2.6,3.3c1.7,0,2.6-1.5,2.6-3.4c0-1.6-0.8-3.3-2.6-3.3
			C546.2,254.3,545.3,255.9,545.3,257.7z"/>
		<path class="st3" d="M554.4,254.2v1.7h1.5v0.8h-1.5v3.1c0,0.7,0.2,1.1,0.8,1.1c0.3,0,0.5,0,0.6-0.1v0.8c-0.2,0.1-0.5,0.1-0.9,0.1
			c-0.5,0-0.9-0.2-1.1-0.4c-0.3-0.3-0.4-0.8-0.4-1.5v-3.2h-0.9v-0.8h0.9v-1.4L554.4,254.2z"/>
		<path class="st3" d="M557.1,253.2h1.1v3.6l0,0c0.2-0.3,0.4-0.6,0.8-0.7c0.3-0.2,0.7-0.3,1.1-0.3c0.8,0,2,0.5,2,2.5v3.5H561v-3.3
			c0-0.9-0.3-1.7-1.3-1.7c-0.7,0-1.2,0.5-1.4,1.1c-0.1,0.1-0.1,0.3-0.1,0.5v3.5h-1.1L557.1,253.2L557.1,253.2z"/>
		<path class="st3" d="M564.4,259c0,1.4,0.9,2,2,2c0.8,0,1.2-0.1,1.6-0.3l0.2,0.8c-0.4,0.2-1,0.4-1.9,0.4c-1.8,0-2.9-1.2-2.9-2.9
			s1-3.1,2.7-3.1c1.9,0,2.4,1.7,2.4,2.7c0,0.2,0,0.4,0,0.5h-4.1V259z M567.4,258.2c0-0.7-0.3-1.7-1.5-1.7c-1.1,0-1.5,1-1.6,1.7
			H567.4z"/>
		<path class="st3" d="M569.8,257.7c0-0.7,0-1.3,0-1.8h0.9v1.1l0,0c0.3-0.8,0.9-1.3,1.6-1.3c0.1,0,0.2,0,0.3,0v1c-0.1,0-0.2,0-0.4,0
			c-0.7,0-1.3,0.6-1.4,1.4c0,0.1,0,0.3,0,0.5v3.1h-1L569.8,257.7L569.8,257.7z"/>
		<path class="st3" d="M576.1,260.4c0.5,0.3,1.2,0.5,1.9,0.5c1.1,0,1.7-0.6,1.7-1.4s-0.4-1.2-1.5-1.6c-1.3-0.5-2.1-1.2-2.1-2.3
			c0-1.3,1-2.2,2.6-2.2c0.8,0,1.4,0.2,1.8,0.4l-0.3,0.9c-0.3-0.1-0.8-0.4-1.5-0.4c-1.1,0-1.5,0.7-1.5,1.2c0,0.8,0.5,1.1,1.6,1.6
			c1.4,0.5,2.1,1.2,2.1,2.4c0,1.2-0.9,2.3-2.8,2.3c-0.8,0-1.6-0.2-2.1-0.5L576.1,260.4z"/>
		<path class="st3" d="M583.3,254.3c0,0.4-0.3,0.6-0.7,0.6s-0.6-0.3-0.6-0.6c0-0.4,0.3-0.7,0.7-0.7
			C583.1,253.6,583.3,253.9,583.3,254.3z M582.2,261.7v-5.8h1.1v5.8H582.2z"/>
		<path class="st3" d="M590,253.2v7c0,0.5,0,1.1,0,1.5h-0.9v-1l0,0c-0.3,0.6-1,1.1-2,1.1c-1.4,0-2.5-1.2-2.5-3
			c0-1.9,1.2-3.1,2.6-3.1c0.9,0,1.5,0.4,1.8,0.9l0,0v-3.5L590,253.2L590,253.2z M588.9,258.3c0-0.1,0-0.3,0-0.4
			c-0.2-0.7-0.7-1.2-1.5-1.2c-1.1,0-1.7,1-1.7,2.2s0.6,2.1,1.7,2.1c0.7,0,1.4-0.5,1.5-1.3c0-0.1,0-0.3,0-0.5V258.3z"/>
		<path class="st3" d="M592.3,259c0,1.4,0.9,2,2,2c0.8,0,1.2-0.1,1.6-0.3l0.2,0.8c-0.4,0.2-1,0.4-1.9,0.4c-1.8,0-2.9-1.2-2.9-2.9
			s1-3.1,2.7-3.1c1.9,0,2.4,1.7,2.4,2.7c0,0.2,0,0.4,0,0.5h-4.1V259z M595.4,258.2c0-0.7-0.3-1.7-1.5-1.7c-1.1,0-1.5,1-1.6,1.7
			H595.4z"/>
	</g>
	<path class="st6" d="M845.9,237.6c2.6,0,4.7,2.1,4.7,4.7s-2.1,4.7-4.7,4.7c-2.6,0-4.7-2.1-4.7-4.7
		C841.1,239.7,843.2,237.6,845.9,237.6L845.9,237.6z"/>
	<path class="st6" d="M956,237.6c2.6,0,4.7,2.1,4.7,4.7s-2.1,4.7-4.7,4.7c-2.6,0-4.7-2.1-4.7-4.7C951.2,239.7,953.3,237.6,956,237.6
		L956,237.6z"/>
	<path class="st6" d="M845.9,121.5c2.6,0,4.7,2.1,4.7,4.7c0,2.6-2.1,4.7-4.7,4.7c-2.6,0-4.7-2.1-4.7-4.7
		C841.1,123.6,843.2,121.5,845.9,121.5L845.9,121.5z"/>
	<path class="st6" d="M956,121.5c2.6,0,4.7,2.1,4.7,4.7c0,2.6-2.1,4.7-4.7,4.7c-2.6,0-4.7-2.1-4.7-4.7
		C951.2,123.6,953.3,121.5,956,121.5L956,121.5z"/>
	<g>
		<path class="st3" d="M899,176.2c0.5-0.1,1.2-0.2,2-0.2c1,0,1.8,0.2,2.3,0.7c0.4,0.4,0.7,1,0.7,1.7s-0.2,1.3-0.6,1.7
			c-0.6,0.6-1.5,0.9-2.5,0.9c-0.3,0-0.6,0-0.8-0.1v3.2h-1L899,176.2L899,176.2L899,176.2z M900.1,180.1c0.2,0.1,0.5,0.1,0.9,0.1
			c1.3,0,2-0.6,2-1.7s-0.8-1.6-1.9-1.6c-0.5,0-0.8,0-1,0.1V180.1z"/>
		<path class="st3" d="M906.4,176.8c0,0.4-0.3,0.6-0.7,0.6s-0.6-0.3-0.6-0.6c0-0.4,0.3-0.7,0.7-0.7
			C906.1,176.1,906.4,176.4,906.4,176.8z M905.2,184.2v-5.8h1.1v5.8H905.2z"/>
	</g>
	<circle class="st0" cx="191.2" cy="122.4" r="7.2"/>
	<circle class="st0" cx="965.7" cy="57.3" r="4.7"/>
	<circle class="st0" cx="158.3" cy="57.5" r="4.7"/>
</g>
</svg>
