<?xml version="1.0" encoding="utf-8"?>
<!-- Generator: Adobe Illustrator 23.0.6, SVG Export Plug-In . SVG Version: 6.00 Build 0)  -->
<svg version="1.1" id="Layer_1" xmlns="http://www.w3.org/2000/svg" xmlns:xlink="http://www.w3.org/1999/xlink" x="0px" y="0px"
	 viewBox="0 0 1440 864" style="enable-background:new 0 0 1440 864;" xml:space="preserve">
<style type="text/css">
	.st0{fill:none;stroke:#FF0000;stroke-width:0.1;stroke-miterlimit:10;}
	.st1{fill:none;stroke:#000000;stroke-width:0.1;stroke-miterlimit:10;}
	.st2{fill:none;stroke:#000000;stroke-width:0.1;stroke-linejoin:round;stroke-miterlimit:10;}
	.st3{fill:none;stroke:#000000;stroke-width:0.1;stroke-linecap:round;stroke-linejoin:round;stroke-miterlimit:10;}
	.st4{fill:none;stroke:#010101;stroke-width:0.1;stroke-linecap:round;stroke-linejoin:round;stroke-miterlimit:10;}
</style>
<g id="Pi_Mount">
	<g>
		<path class="st0" d="M292.9,259.3c0.5-0.1,1.2-0.2,2-0.2c1,0,1.8,0.2,2.3,0.7c0.4,0.4,0.7,1,0.7,1.7c0,0.7-0.2,1.3-0.6,1.7
			c-0.6,0.6-1.5,0.9-2.5,0.9c-0.3,0-0.6,0-0.8-0.1v3.2h-1L292.9,259.3L292.9,259.3L292.9,259.3z M294,263.2c0.2,0.1,0.5,0.1,0.9,0.1
			c1.3,0,2-0.6,2-1.7s-0.8-1.6-1.9-1.6c-0.5,0-0.8,0-1,0.1V263.2z"/>
		<path class="st0" d="M300.3,259.9c0,0.4-0.3,0.6-0.7,0.6s-0.6-0.3-0.6-0.6c0-0.4,0.3-0.7,0.7-0.7
			C300,259.2,300.3,259.5,300.3,259.9z M299.1,267.3v-5.8h1.1v5.8H299.1z"/>
	</g>
	<path class="st1" d="M389.8,341.8c-2.6,0-4.6-2-4.6-4.7c0-2.6,2.1-4.7,4.6-4.7c2.7,0,4.7,2.1,4.7,4.7
		C394.5,339.8,392.4,341.8,389.8,341.8z"/>
	<path class="st1" d="M225.4,341.8c-2.6,0-4.6-2-4.6-4.7c0-2.6,2.1-4.7,4.6-4.7c2.7,0,4.7,2.1,4.7,4.7
		C230.1,339.8,228,341.8,225.4,341.8z"/>
	<path class="st2" d="M225.4,202.6c-2.6,0-4.6-2.1-4.6-4.7s2.1-4.6,4.6-4.6c2.7,0,4.7,2.1,4.7,4.6
		C230.1,200.5,228,202.6,225.4,202.6z"/>
	<path class="st2" d="M389.8,202.6c-2.6,0-4.6-2.1-4.6-4.7s2.1-4.6,4.6-4.6c2.7,0,4.7,2.1,4.7,4.6
		C394.5,200.5,392.4,202.6,389.8,202.6z"/>
	<path class="st3" d="M239.8,320.7c2.6,0,4.7,2.1,4.7,4.7s-2.1,4.7-4.7,4.7c-2.6,0-4.7-2.1-4.7-4.7
		C235,322.8,237.1,320.7,239.8,320.7L239.8,320.7z"/>
	<path class="st3" d="M349.9,320.7c2.6,0,4.7,2.1,4.7,4.7s-2.1,4.7-4.7,4.7c-2.6,0-4.7-2.1-4.7-4.7
		C345.1,322.8,347.2,320.7,349.9,320.7L349.9,320.7z"/>
	<path class="st3" d="M239.8,204.6c2.6,0,4.7,2.1,4.7,4.7s-2.1,4.7-4.7,4.7c-2.6,0-4.7-2.1-4.7-4.7
		C235,206.7,237.1,204.6,239.8,204.6L239.8,204.6z"/>
	<path class="st3" d="M349.9,204.6c2.6,0,4.7,2.1,4.7,4.7s-2.1,4.7-4.7,4.7c-2.6,0-4.7-2.1-4.7-4.7
		C345.1,206.7,347.2,204.6,349.9,204.6L349.9,204.6z"/>
	<path class="st1" d="M394.3,370.4H162.6c-6.6,0-12-5.4-12-12V176.6c0-6.6,5.4-12,12-12h231.7c6.6,0,12,5.4,12,12v181.8
		C406.3,365,400.9,370.4,394.3,370.4z"/>
	<g id="LWPOLYLINE_2344_">
		<path class="st4" d="M195.5,292.4c1.7,0,3-1.2,3-2.6v-56.9c0-1.5-1.4-2.6-3-2.6h-41.9c-1.7,0-3,1.2-3,2.6v56.9
			c0,1.5,1.4,2.6,3,2.6L195.5,292.4L195.5,292.4z"/>
	</g>
	<g>
		<path class="st0" d="M285.9,241.1c0.5-0.1,1.2-0.2,2-0.2c1,0,1.8,0.2,2.3,0.7c0.4,0.4,0.7,1,0.7,1.7s-0.2,1.3-0.6,1.7
			c-0.6,0.6-1.5,0.9-2.5,0.9c-0.3,0-0.6,0-0.8-0.1v3.2h-1v-7.9H285.9z M287,245c0.2,0.1,0.5,0.1,0.9,0.1c1.3,0,2-0.6,2-1.7
			c0-1.1-0.8-1.6-1.9-1.6c-0.5,0-0.8,0-1,0.1V245z"/>
		<path class="st0" d="M291.9,249.1v-0.6l0.8-0.8c2-1.9,2.9-2.9,2.9-4.1c0-0.8-0.4-1.5-1.5-1.5c-0.7,0-1.3,0.4-1.7,0.7l-0.3-0.7
			c0.5-0.5,1.3-0.8,2.2-0.8c1.7,0,2.4,1.2,2.4,2.3c0,1.4-1,2.6-2.7,4.2l-0.6,0.6l0,0h3.5v0.9h-5V249.1z"/>
		<path class="st0" d="M298.2,248.5c0-0.4,0.3-0.8,0.7-0.8s0.7,0.3,0.7,0.8c0,0.4-0.3,0.8-0.7,0.8S298.2,248.9,298.2,248.5z"/>
		<path class="st0" d="M305.2,242.2h-3l-0.3,2c0.2,0,0.3,0,0.6,0c0.6,0,1.2,0.1,1.7,0.4c0.6,0.3,1.1,1,1.1,2c0,1.5-1.2,2.7-2.9,2.7
			c-0.9,0-1.6-0.2-1.9-0.5l0.3-0.8c0.3,0.2,1,0.4,1.7,0.4c1,0,1.8-0.6,1.8-1.7c0-1-0.7-1.7-2.2-1.7c-0.4,0-0.8,0-1.1,0.1l0.5-3.7
			h3.7L305.2,242.2L305.2,242.2z"/>
	</g>
	<g>
		<path class="st0" d="M294.9,198.8v3.4h3.9v-3.4h1.1v8.1h-1.1v-3.8h-3.9v3.8h-1v-8.1C293.9,198.8,294.9,198.8,294.9,198.8z"/>
		<path class="st0" d="M301.7,198.9c0.6-0.1,1.4-0.2,2.2-0.2c1.5,0,2.6,0.3,3.3,1s1.1,1.6,1.1,2.9c0,1.3-0.4,2.4-1.2,3.1
			c-0.8,0.8-2,1.2-3.6,1.2c-0.7,0-1.4,0-1.9-0.1v-7.9H301.7z M302.7,206.1c0.3,0,0.6,0.1,1.1,0.1c2.2,0,3.4-1.2,3.4-3.4
			c0-1.9-1.1-3.1-3.3-3.1c-0.5,0-0.9,0-1.2,0.1V206.1z"/>
		<path class="st0" d="M316.5,203.3c-0.1-1.1-0.1-2.5-0.1-3.5l0,0c-0.3,0.9-0.6,2-1,3.1l-1.4,3.9h-0.8l-1.3-3.9
			c-0.4-1.1-0.7-2.2-0.9-3.1l0,0c0,1-0.1,2.4-0.2,3.6l-0.2,3.5h-1l0.6-8.1h1.3l1.4,3.9c0.3,1,0.6,1.9,0.8,2.7l0,0
			c0.2-0.8,0.5-1.7,0.9-2.7l1.4-3.9h1.3l0.5,8.1h-1L316.5,203.3z"/>
		<path class="st0" d="M320.4,198.8v8.1h-1v-8.1H320.4z"/>
	</g>
</g>
</svg>
