<?xml version="1.0" encoding="utf-8"?>
<!-- Generator: Adobe Illustrator 27.7.0, SVG Export Plug-In . SVG Version: 6.00 Build 0)  -->
<svg version="1.1" id="Layer_1" xmlns="http://www.w3.org/2000/svg" xmlns:xlink="http://www.w3.org/1999/xlink" x="0px" y="0px"
	 viewBox="0 0 962 281.4" style="enable-background:new 0 0 962 281.4;" xml:space="preserve">
<style type="text/css">
	.st0{fill:none;stroke:#000000;stroke-width:0.1;stroke-miterlimit:10;}
	.st1{fill:none;stroke:#010101;stroke-width:0.1;stroke-miterlimit:22.9256;}
</style>
<g id="Outline">
	<g id="Outline3">
		<path class="st0" d="M949.9,281.4H12.2c-6.7,0-12.2-5.5-12.2-12.2V12.3c0-6.7,5.5-12.2,12.2-12.2h937.5c6.7,0,12.2,5.5,12.2,12.2
			v256.9C962,275.9,956.5,281.4,949.9,281.4z"/>
		<path class="st1" d="M16.6,11.9c2.7,0,4.8,2.2,4.8,4.8c0,2.7-2.2,4.8-4.8,4.8c-2.7,0-4.8-2.2-4.8-4.8S14,11.9,16.6,11.9z"/>
		<path class="st1" d="M16.6,260c2.7,0,4.8,2.2,4.8,4.8c0,2.7-2.2,4.8-4.8,4.8c-2.7,0-4.8-2.2-4.8-4.8S14,260,16.6,260z"/>
		<path class="st1" d="M945.5,11.9c2.7,0,4.8,2.2,4.8,4.8c0,2.7-2.2,4.8-4.8,4.8c-2.7,0-4.8-2.2-4.8-4.8S942.8,11.9,945.5,11.9z"/>
		<path class="st1" d="M945.5,260c2.7,0,4.8,2.2,4.8,4.8c0,2.7-2.2,4.8-4.8,4.8c-2.7,0-4.8-2.2-4.8-4.8S942.8,260,945.5,260z"/>
	</g>
</g>
</svg>
