<?xml version="1.0" encoding="utf-8"?>
<!-- Generator: Adobe Illustrator 23.0.6, SVG Export Plug-In . SVG Version: 6.00 Build 0)  -->
<svg version="1.1" id="Layer_1" xmlns="http://www.w3.org/2000/svg" xmlns:xlink="http://www.w3.org/1999/xlink" x="0px" y="0px"
	 viewBox="0 0 1440 864" style="enable-background:new 0 0 1440 864;" xml:space="preserve">
<style type="text/css">
	.st0{fill:none;stroke:#000000;stroke-width:0.1;stroke-miterlimit:10;}
	.st1{fill:none;stroke:#010101;stroke-width:0.1;stroke-miterlimit:22.9256;}
</style>
<g id="Outline">
	<g id="Outline3">
		<path class="st0" d="M1030.8,324.9H93.2c-6.7,0-12.2-5.5-12.2-12.2V55.8c0-6.7,5.5-12.2,12.2-12.2h937.5c6.7,0,12.2,5.5,12.2,12.2
			v256.9C1042.9,319.4,1037.5,324.9,1030.8,324.9z"/>
		<path class="st1" d="M97.6,55.4c2.7,0,4.8,2.2,4.8,4.8c0,2.7-2.2,4.8-4.8,4.8c-2.7,0-4.8-2.2-4.8-4.8S94.9,55.4,97.6,55.4z"/>
		<path class="st1" d="M97.6,303.5c2.7,0,4.8,2.2,4.8,4.8c0,2.7-2.2,4.8-4.8,4.8c-2.7,0-4.8-2.2-4.8-4.8S94.9,303.5,97.6,303.5z"/>
		<path class="st1" d="M1026.4,55.4c2.7,0,4.8,2.2,4.8,4.8c0,2.7-2.2,4.8-4.8,4.8c-2.7,0-4.8-2.2-4.8-4.8S1023.7,55.4,1026.4,55.4z"
			/>
		<path class="st1" d="M1026.4,303.5c2.7,0,4.8,2.2,4.8,4.8c0,2.7-2.2,4.8-4.8,4.8c-2.7,0-4.8-2.2-4.8-4.8
			S1023.7,303.5,1026.4,303.5z"/>
	</g>
</g>
</svg>
