<?xml version="1.0" encoding="utf-8"?>
<!-- Generator: Adobe Illustrator 23.0.6, SVG Export Plug-In . SVG Version: 6.00 Build 0)  -->
<svg version="1.1" id="Layer_1" xmlns="http://www.w3.org/2000/svg" xmlns:xlink="http://www.w3.org/1999/xlink" x="0px" y="0px"
	 viewBox="0 0 1440 864" style="enable-background:new 0 0 1440 864;" xml:space="preserve">
<style type="text/css">
	.st0{fill:none;stroke:#000000;stroke-width:0.1;stroke-linecap:round;stroke-linejoin:round;stroke-miterlimit:10;}
	.st1{fill:none;stroke:#FF0000;stroke-width:0.1;stroke-miterlimit:10;}
</style>
<g>
	<path class="st0" d="M505.7,236.5c2.6,0,4.7,2.1,4.7,4.7s-2.1,4.7-4.7,4.7s-4.7-2.1-4.7-4.7C500.9,238.6,503,236.5,505.7,236.5
		L505.7,236.5z"/>
	<path class="st0" d="M615.8,236.5c2.6,0,4.7,2.1,4.7,4.7s-2.1,4.7-4.7,4.7c-2.6,0-4.7-2.1-4.7-4.7
		C611,238.6,613.1,236.5,615.8,236.5L615.8,236.5z"/>
	<path class="st0" d="M491.9,80.5c2.6,0,4.7,2.1,4.7,4.7s-2.1,4.7-4.7,4.7s-4.7-2.1-4.7-4.7S489.2,80.5,491.9,80.5L491.9,80.5z"/>
	<path class="st0" d="M491.9,279c2.6,0,4.7,2.1,4.7,4.7s-2.1,4.7-4.7,4.7s-4.7-2.1-4.7-4.7C487.1,281.1,489.2,279,491.9,279
		L491.9,279z"/>
	<path class="st0" d="M627.9,80.5c2.6,0,4.7,2.1,4.7,4.7s-2.1,4.7-4.7,4.7s-4.7-2.1-4.7-4.7S625.2,80.5,627.9,80.5L627.9,80.5z"/>
	<path class="st0" d="M627.9,278.7c2.6,0,4.7,2.1,4.7,4.7s-2.1,4.7-4.7,4.7s-4.7-2.1-4.7-4.7C623.1,280.8,625.2,278.7,627.9,278.7
		L627.9,278.7z"/>
	<g>
		<path class="st1" d="M559.1,216.3c-0.1-0.5-0.2-1.2-0.2-2c0-1,0.2-1.8,0.7-2.3c0.4-0.4,1-0.7,1.7-0.7s1.3,0.2,1.7,0.6
			c0.6,0.6,0.9,1.5,0.9,2.5c0,0.3,0,0.6-0.1,0.8h3.2v1L559.1,216.3L559.1,216.3L559.1,216.3z M563,215.2c0.1-0.2,0.1-0.5,0.1-0.9
			c0-1.3-0.6-2-1.7-2s-1.6,0.8-1.6,1.9c0,0.5,0,0.8,0.1,1H563z"/>
		<path class="st1" d="M559,208.8h8.1v1H559V208.8z"/>
		<path class="st1" d="M567.1,202.6l-1.8,1c-0.7,0.4-1.1,0.7-1.6,0.9l0,0c0.5,0.2,0.9,0.5,1.6,0.9l1.8,1v1.2l-4.1-2.5l-4,2.4v-1.2
			l1.9-1.1c0.5-0.3,0.9-0.5,1.4-0.7l0,0c-0.5-0.2-0.9-0.4-1.4-0.7l-1.9-1.1v-1.3l3.9,2.5l4.1-2.5L567.1,202.6L567.1,202.6z"/>
		<path class="st1" d="M563.3,196v3.1h2.9v-3.5h0.9v4.5H559v-4.4h0.9v3.3h2.6v-3.1L563.3,196L563.3,196L563.3,196z"/>
		<path class="st1" d="M559,194.3v-1h7.2v-3.5h0.9v4.5H559z"/>
		<path class="st1" d="M559.1,186.1c-0.1-0.5-0.2-1.2-0.2-1.9c0-1,0.2-1.7,0.6-2.2c0.3-0.4,0.8-0.7,1.4-0.7c0.8,0,1.5,0.5,1.8,1.4
			l0,0c0.2-0.8,0.8-1.7,2-1.7c0.7,0,1.2,0.3,1.6,0.7c0.5,0.6,0.8,1.5,0.8,2.8c0,0.7,0,1.3-0.1,1.6L559.1,186.1L559.1,186.1z
			 M562.4,185v-0.9c0-1.1-0.6-1.8-1.4-1.8c-0.9,0-1.3,0.7-1.3,1.8c0,0.5,0,0.8,0.1,0.9H562.4z M566.3,185c0-0.2,0-0.5,0-0.9
			c0-1.1-0.4-2.1-1.6-2.1c-1.1,0-1.6,0.9-1.6,2.1v0.9H566.3z"/>
		<path class="st1" d="M563,172.6c2.8,0,4.3,1.7,4.3,3.8s-1.7,3.6-4.1,3.6c-2.6,0-4.2-1.6-4.2-3.8
			C558.9,174.1,560.6,172.6,563,172.6z M563.1,178.9c1.7,0,3.3-0.9,3.3-2.6s-1.5-2.6-3.4-2.6c-1.6,0-3.3,0.8-3.3,2.6
			S561.3,178.9,563.1,178.9z"/>
		<path class="st1" d="M564.6,170.1l2.5,0.8v1.1l-8.1-2.7V168l8.1-2.8v1.1l-2.5,0.9V170.1z M563.7,167.5l-2.3,0.8
			c-0.5,0.2-1,0.3-1.5,0.4l0,0c0.5,0.1,1,0.3,1.5,0.4l2.3,0.8V167.5z"/>
		<path class="st1" d="M559.1,164.1c-0.1-0.5-0.2-1.3-0.2-2c0-1.1,0.2-1.8,0.7-2.3c0.4-0.4,0.9-0.6,1.5-0.6c1.1,0,1.8,0.7,2.1,1.5
			l0,0c0.2-0.6,0.8-1,1.6-1.2c1.1-0.3,1.9-0.5,2.2-0.6v1.1c-0.2,0.1-0.9,0.3-1.9,0.5c-1.1,0.2-1.5,0.7-1.6,1.6v1h3.5v1H559.1z
			 M562.8,163.1V162c0-1.1-0.6-1.8-1.5-1.8c-1,0-1.5,0.8-1.5,1.9c0,0.5,0,0.9,0.1,1L562.8,163.1L562.8,163.1z"/>
		<path class="st1" d="M559.1,157.7c-0.1-0.6-0.2-1.4-0.2-2.2c0-1.5,0.3-2.6,1-3.3s1.6-1.1,2.9-1.1s2.4,0.4,3.1,1.2
			c0.8,0.8,1.2,2,1.2,3.6c0,0.7,0,1.4-0.1,1.9L559.1,157.7L559.1,157.7z M566.3,156.6c0-0.3,0.1-0.6,0.1-1.1c0-2.2-1.2-3.4-3.4-3.4
			c-1.9,0-3.1,1.1-3.1,3.3c0,0.5,0,0.9,0.1,1.2H566.3z"/>
	</g>
	<g>
		<path class="st1" d="M613.7,185.5h4.8c1.8,0,2.6-0.8,2.6-1.9c0-1.2-0.8-2-2.6-2h-4.8v-1.1h4.7c2.5,0,3.5,1.3,3.5,3.1
			c0,1.7-0.9,2.9-3.5,2.9h-4.8L613.7,185.5L613.7,185.5z"/>
		<path class="st1" d="M620.5,179c0.3-0.5,0.5-1.2,0.5-1.9c0-1.1-0.6-1.7-1.4-1.7s-1.2,0.4-1.6,1.5c-0.5,1.3-1.2,2.1-2.3,2.1
			c-1.3,0-2.2-1-2.2-2.6c0-0.8,0.2-1.4,0.4-1.8l0.9,0.3c-0.1,0.3-0.4,0.8-0.4,1.5c0,1.1,0.7,1.5,1.2,1.5c0.8,0,1.1-0.5,1.6-1.6
			c0.5-1.4,1.2-2.1,2.4-2.1s2.3,0.9,2.3,2.8c0,0.8-0.2,1.6-0.5,2.1L620.5,179z"/>
		<path class="st1" d="M613.8,172.9c-0.1-0.5-0.2-1.2-0.2-1.9c0-1,0.2-1.7,0.6-2.2c0.3-0.4,0.8-0.7,1.4-0.7c0.8,0,1.5,0.5,1.8,1.4
			l0,0c0.2-0.8,0.8-1.7,2-1.7c0.7,0,1.2,0.3,1.6,0.7c0.5,0.6,0.8,1.5,0.8,2.8c0,0.7,0,1.3-0.1,1.6L613.8,172.9L613.8,172.9z
			 M617.1,171.9V171c0-1.1-0.6-1.8-1.4-1.8c-0.9,0-1.3,0.7-1.3,1.8c0,0.5,0,0.8,0.1,0.9H617.1z M621,171.9c0-0.2,0-0.5,0-0.9
			c0-1.1-0.4-2.1-1.6-2.1c-1.1,0-1.6,0.9-1.6,2.1v0.9H621z"/>
	</g>
	<path class="st0" d="M505.7,120.4c2.6,0,4.7,2.1,4.7,4.7s-2.1,4.7-4.7,4.7s-4.7-2.1-4.7-4.7C500.9,122.5,503,120.4,505.7,120.4
		L505.7,120.4z"/>
	<path class="st0" d="M615.8,120.4c2.6,0,4.7,2.1,4.7,4.7s-2.1,4.7-4.7,4.7c-2.6,0-4.7-2.1-4.7-4.7
		C611,122.5,613.1,120.4,615.8,120.4L615.8,120.4z"/>
	<path class="st0" d="M629,297.2H490.6c-6.6,0-12-5.4-12-12V83.9c0-6.6,5.4-12,12-12H629c6.6,0,12,5.4,12,12v201.3
		C641,291.8,635.6,297.2,629,297.2z"/>
</g>
</svg>
