<?xml version="1.0" encoding="utf-8"?>
<!-- Generator: Adobe Illustrator 27.7.0, SVG Export Plug-In . SVG Version: 6.00 Build 0)  -->
<svg version="1.1" id="Layer_1" xmlns="http://www.w3.org/2000/svg" xmlns:xlink="http://www.w3.org/1999/xlink" x="0px" y="0px"
	 viewBox="0 0 962 281.4" style="enable-background:new 0 0 962 281.4;" xml:space="preserve">
<style type="text/css">
	.st0{fill:none;stroke:#000000;stroke-width:0.1;stroke-miterlimit:10;}
	.st1{fill:none;stroke:#010101;stroke-width:0.1;stroke-miterlimit:22.9256;}
	.st2{fill:none;stroke:#010101;stroke-width:9.999400e-02;stroke-linecap:round;stroke-linejoin:round;stroke-miterlimit:9.9994;}
	.st3{fill:none;stroke:#010101;stroke-width:0.1;stroke-linecap:round;stroke-linejoin:round;stroke-miterlimit:10;}
	.st4{fill:none;stroke:#FF0000;stroke-width:0.1;stroke-miterlimit:10;}
	.st5{fill:none;stroke:#FF0000;stroke-width:0.1;stroke-miterlimit:22.9256;}
	.st6{fill:none;stroke:#33CC00;stroke-width:0.1;stroke-linecap:round;stroke-linejoin:round;stroke-miterlimit:10;}
	.st7{fill:none;stroke:#010101;stroke-width:9.999632e-02;stroke-linecap:round;stroke-linejoin:round;stroke-miterlimit:9.9996;}
	.st8{fill:none;stroke:#010101;stroke-width:0.1;stroke-linecap:round;stroke-linejoin:round;stroke-miterlimit:10.0002;}
	.st9{fill:none;stroke:#000000;stroke-width:0.1;stroke-linecap:round;stroke-linejoin:round;stroke-miterlimit:10;}
</style>
<g id="Back_Full">
	<g id="Outline">
		<g id="Outline3">
			<path class="st0" d="M949.9,281.4H12.2c-6.7,0-12.2-5.5-12.2-12.2V12.3c0-6.7,5.5-12.2,12.2-12.2h937.5c6.7,0,12.2,5.5,12.2,12.2
				v256.9C962,275.9,956.5,281.4,949.9,281.4z"/>
			<path class="st1" d="M16.6,11.9c2.7,0,4.8,2.2,4.8,4.8c0,2.7-2.2,4.8-4.8,4.8c-2.7,0-4.8-2.2-4.8-4.8S14,11.9,16.6,11.9z"/>
			<path class="st1" d="M16.6,260c2.7,0,4.8,2.2,4.8,4.8c0,2.7-2.2,4.8-4.8,4.8c-2.7,0-4.8-2.2-4.8-4.8S14,260,16.6,260z"/>
			<path class="st1" d="M945.5,11.9c2.7,0,4.8,2.2,4.8,4.8c0,2.7-2.2,4.8-4.8,4.8c-2.7,0-4.8-2.2-4.8-4.8S942.8,11.9,945.5,11.9z"/>
			<path class="st1" d="M945.5,260c2.7,0,4.8,2.2,4.8,4.8c0,2.7-2.2,4.8-4.8,4.8c-2.7,0-4.8-2.2-4.8-4.8S942.8,260,945.5,260z"/>
		</g>
	</g>
</g>
<g id="Cutouts_1_">
	<ellipse transform="matrix(0.9165 -0.4001 0.4001 0.9165 16.5907 176.5702)" class="st2" cx="431.2" cy="48.5" rx="6.1" ry="6.1"/>
	<circle class="st3" cx="289.5" cy="48.5" r="6.1"/>
	<circle class="st3" cx="77.2" cy="48.5" r="6.1"/>
	<circle class="st3" cx="76.9" cy="232.8" r="6.1"/>
	<circle class="st3" cx="218.7" cy="232.8" r="6.1"/>
	
		<ellipse transform="matrix(0.7204 -0.6936 0.6936 0.7204 -40.9265 364.2222)" class="st3" cx="431.3" cy="232.9" rx="6.1" ry="6.1"/>
	<g>
		<g>
			<line class="st4" x1="200.3" y1="110.2" x2="200.3" y2="191.1"/>
			<g>
				<path class="st4" d="M203.4,110.8c-1.4-0.9-2.4-2.2-3.2-3.7c-0.8,1.5-1.9,2.8-3.2,3.7v0.9c1.3-0.9,2.4-2,3.2-3.4
					c0.8,1.4,2,2.5,3.2,3.4V110.8z"/>
				<path class="st4" d="M203.4,112.8c-1.4-0.9-2.4-2.2-3.2-3.7c-0.8,1.5-1.9,2.8-3.2,3.7v0.9c1.3-0.9,2.4-2,3.2-3.4
					c0.8,1.4,2,2.5,3.2,3.4V112.8z"/>
			</g>
		</g>
	</g>
	<path class="st5" d="M196.3,90.8v4.8c0,1.8,0.7,2.6,1.7,2.6c1.1,0,1.8-0.8,1.8-2.6v-4.8h1v4.7c0,2.5-1.2,3.5-2.8,3.5
		s-2.6-0.9-2.6-3.5v-4.7H196.3z"/>
	<path class="st5" d="M202.2,95.1c0-0.7,0-1.3,0-1.9h0.8v1l0,0c0.4-0.7,1-1.1,1.9-1.1c1.3,0,2.3,1.2,2.3,3c0,2.1-1.2,3.1-2.4,3.1
		c-0.7,0-1.3-0.3-1.6-0.9l0,0v3.2h-0.9L202.2,95.1L202.2,95.1L202.2,95.1z M203.3,96.6c0,0.2,0,0.3,0,0.4c0.2,0.7,0.7,1.2,1.5,1.2
		c1,0,1.6-0.9,1.6-2.2c0-1.2-0.5-2.2-1.6-2.2c-0.6,0-1.3,0.5-1.5,1.3c0,0.1-0.1,0.3-0.1,0.4L203.3,96.6L203.3,96.6z"/>
	<g id="LWPOLYLINE_1_">
		<path class="st3" d="M126.2,187.2h28.5c1.5,0,2.6-1.3,2.6-2.8v-82.2c0-1.6-1.2-2.8-2.6-2.8h-28.5c-1.5,0-2.6,1.3-2.6,2.8v82.2
			C123.6,185.8,124.8,187.2,126.2,187.2z"/>
	</g>
	<g id="LWPOLYLINE_2_">
		<path class="st3" d="M268.5,166.1c1.7,0,3-1.2,3-2.6v-56.9c0-1.5-1.4-2.6-3-2.6h-41.9c-1.7,0-3,1.2-3,2.6v56.9
			c0,1.5,1.4,2.6,3,2.6L268.5,166.1L268.5,166.1z"/>
	</g>
	<g>
		<path class="st3" d="M44.6,184.6c0-2.4,1.7-4.3,3.9-4.3"/>
		<path class="st3" d="M52.4,184.6c0,2.4-1.7,4.3-3.9,4.3s-3.9-1.9-3.9-4.3"/>
		<path class="st3" d="M48.5,180.3c2.2,0,3.9,1.9,3.9,4.3"/>
	</g>
	<g>
		<path class="st3" d="M455.8,96.8c0-2.4,1.7-4.3,3.9-4.3"/>
		<path class="st3" d="M463.5,96.8c0,2.4-1.7,4.3-3.9,4.3s-3.9-1.9-3.9-4.3"/>
		<path class="st3" d="M459.6,92.5c2.2,0,3.9,1.9,3.9,4.3"/>
	</g>
	<path class="st6" d="M477.1,250.3"/>
	<path class="st6" d="M477.1,31"/>
	
		<ellipse transform="matrix(0.2298 -0.9732 0.9732 0.2298 634.0562 898.6678)" class="st7" cx="884.8" cy="48.7" rx="6.1" ry="6.1"/>
	<circle class="st3" cx="743.1" cy="48.5" r="6.1"/>
	<circle class="st3" cx="530.8" cy="48.5" r="6.1"/>
	<circle class="st3" cx="530.5" cy="232.8" r="6.1"/>
	<circle class="st3" cx="672.2" cy="232.8" r="6.1"/>
	
		<ellipse transform="matrix(0.1602 -0.9871 0.9871 0.1602 513.2317 1068.9957)" class="st8" cx="884.9" cy="232.9" rx="6.1" ry="6.1"/>
	<g id="LWPOLYLINE_4_">
		<path class="st3" d="M578.2,186.2h28.5c1.5,0,2.6-1.3,2.6-2.8v-82.2c0-1.6-1.2-2.8-2.6-2.8h-28.5c-1.5,0-2.6,1.3-2.6,2.8v82.2
			C575.5,184.8,576.8,186.2,578.2,186.2z"/>
	</g>
	<g id="LWPOLYLINE_3_">
		<path class="st3" d="M720.6,165.8c1.7,0,3-1.2,3-2.6v-56.9c0-1.5-1.4-2.6-3-2.6h-41.9c-1.7,0-3,1.2-3,2.6v56.9
			c0,1.5,1.4,2.6,3,2.6L720.6,165.8L720.6,165.8z"/>
	</g>
	<g>
		<path class="st9" d="M498.2,184.6c0-2.4,1.7-4.3,3.9-4.3"/>
		<path class="st9" d="M506,184.6c0,2.4-1.7,4.3-3.9,4.3s-3.9-1.9-3.9-4.3"/>
		<path class="st9" d="M502.1,180.3c2.2,0,3.9,1.9,3.9,4.3"/>
	</g>
	<g>
		<path class="st3" d="M909.3,96.8c0-2.4,1.7-4.3,3.9-4.3"/>
		<path class="st3" d="M917.1,96.8c0,2.4-1.7,4.3-3.9,4.3s-3.9-1.9-3.9-4.3"/>
		<path class="st3" d="M913.2,92.5c2.2,0,3.9,1.9,3.9,4.3"/>
	</g>
	<path class="st6" d="M477.1,250.3"/>
	<path class="st6" d="M477.1,31"/>
	<ellipse class="st0" cx="293" cy="192.4" rx="8.2" ry="12.6"/>
	<ellipse class="st0" cx="312.3" cy="87.8" rx="8.2" ry="12.6"/>
	<ellipse class="st0" cx="642.6" cy="192.1" rx="8.2" ry="12.6"/>
	<ellipse class="st0" cx="662" cy="89.5" rx="8.2" ry="12.6"/>
	<g id="LWPOLYLINE_6_">
		<path class="st3" d="M351.9,186.6h28.5c1.5,0,2.6-1.3,2.6-2.8v-82.2c0-1.6-1.2-2.8-2.6-2.8h-28.5c-1.5,0-2.6,1.3-2.6,2.8v82.2
			C349.2,185.1,350.4,186.6,351.9,186.6z"/>
	</g>
	<path class="st9" d="M424.8,192.9c2.6,0,4.7,2.1,4.7,4.7s-2.1,4.7-4.7,4.7s-4.7-2.1-4.7-4.7C419.9,195.1,422,192.9,424.8,192.9
		L424.8,192.9z"/>
	<path class="st9" d="M534.8,192.9c2.6,0,4.7,2.1,4.7,4.7s-2.1,4.7-4.7,4.7c-2.6,0-4.7-2.1-4.7-4.7
		C530,195.1,532.1,192.9,534.8,192.9L534.8,192.9z"/>
	<g>
		<path class="st4" d="M478.1,172.8c-0.1-0.5-0.2-1.2-0.2-2c0-1,0.2-1.8,0.7-2.3c0.4-0.4,1-0.7,1.7-0.7s1.3,0.2,1.7,0.6
			c0.6,0.6,0.9,1.5,0.9,2.5c0,0.3,0,0.6-0.1,0.8h3.2v1L478.1,172.8L478.1,172.8L478.1,172.8z M482,171.6c0.1-0.2,0.1-0.5,0.1-0.9
			c0-1.3-0.6-2-1.7-2s-1.6,0.8-1.6,1.9c0,0.5,0,0.8,0.1,1H482z"/>
		<path class="st4" d="M478,165.2h8.1v1H478V165.2z"/>
		<path class="st4" d="M486.1,159.1l-1.8,1c-0.7,0.4-1.1,0.7-1.6,0.9l0,0c0.5,0.2,0.9,0.5,1.6,0.9l1.8,1v1.2l-4.1-2.5l-4,2.4v-1.2
			l1.9-1.1c0.5-0.3,0.9-0.5,1.4-0.7l0,0c-0.5-0.2-0.9-0.4-1.4-0.7l-1.9-1.1v-1.3l3.9,2.5l4.1-2.5L486.1,159.1L486.1,159.1z"/>
		<path class="st4" d="M482.3,152.4v3.1h2.9v-3.5h0.9v4.5H478v-4.4h0.9v3.3h2.6v-3.1L482.3,152.4L482.3,152.4L482.3,152.4z"/>
		<path class="st4" d="M478,150.8v-1h7.2v-3.5h0.9v4.5H478z"/>
		<path class="st4" d="M478.1,142.6c-0.1-0.5-0.2-1.2-0.2-1.9c0-1,0.2-1.7,0.6-2.2c0.3-0.4,0.8-0.7,1.4-0.7c0.8,0,1.5,0.5,1.8,1.4
			l0,0c0.2-0.8,0.8-1.7,2-1.7c0.7,0,1.2,0.3,1.6,0.7c0.5,0.6,0.8,1.5,0.8,2.8c0,0.7,0,1.3-0.1,1.6L478.1,142.6L478.1,142.6z
			 M481.5,141.4v-0.9c0-1.1-0.6-1.8-1.4-1.8c-0.9,0-1.3,0.7-1.3,1.8c0,0.5,0,0.8,0.1,0.9H481.5z M485.3,141.4c0-0.2,0-0.5,0-0.9
			c0-1.1-0.4-2.1-1.6-2.1c-1.1,0-1.6,0.9-1.6,2.1v0.9H485.3z"/>
		<path class="st4" d="M482,129.1c2.8,0,4.3,1.7,4.3,3.8s-1.7,3.6-4.1,3.6c-2.6,0-4.2-1.6-4.2-3.8C478,130.6,479.6,129.1,482,129.1z
			 M482.1,135.3c1.7,0,3.3-0.9,3.3-2.6s-1.5-2.6-3.4-2.6c-1.6,0-3.3,0.8-3.3,2.6S480.3,135.3,482.1,135.3z"/>
		<path class="st4" d="M483.6,126.6l2.5,0.8v1.1l-8.1-2.7v-1.3l8.1-2.8v1.1l-2.5,0.9V126.6z M482.8,124l-2.3,0.8
			c-0.5,0.2-1,0.3-1.5,0.4l0,0c0.5,0.1,1,0.3,1.5,0.4l2.3,0.8V124z"/>
		<path class="st4" d="M478.1,120.6c-0.1-0.5-0.2-1.3-0.2-2c0-1.1,0.2-1.8,0.7-2.3c0.4-0.4,0.9-0.6,1.5-0.6c1.1,0,1.8,0.7,2.1,1.5
			l0,0c0.2-0.6,0.8-1,1.6-1.2c1.1-0.3,1.9-0.5,2.2-0.6v1.1c-0.2,0.1-0.9,0.3-1.9,0.5c-1.1,0.2-1.5,0.7-1.6,1.6v1h3.5v1H478.1z
			 M481.8,119.6v-1.1c0-1.1-0.6-1.8-1.5-1.8c-1,0-1.5,0.8-1.5,1.9c0,0.5,0,0.9,0.1,1L481.8,119.6L481.8,119.6z"/>
		<path class="st4" d="M478.1,114.2c-0.1-0.6-0.2-1.4-0.2-2.2c0-1.5,0.3-2.6,1-3.3s1.6-1.1,2.9-1.1s2.4,0.4,3.1,1.2
			c0.8,0.8,1.2,2,1.2,3.6c0,0.7,0,1.4-0.1,1.9L478.1,114.2L478.1,114.2z M485.3,113.1c0-0.3,0.1-0.6,0.1-1.1c0-2.2-1.2-3.4-3.4-3.4
			c-1.9,0-3.1,1.1-3.1,3.3c0,0.5,0,0.9,0.1,1.2H485.3z"/>
	</g>
	<g>
		<path class="st4" d="M532.8,141.9h4.8c1.8,0,2.6-0.8,2.6-1.9c0-1.2-0.8-2-2.6-2h-4.8v-1.1h4.7c2.5,0,3.5,1.3,3.5,3.1
			c0,1.7-0.9,2.9-3.5,2.9h-4.8L532.8,141.9L532.8,141.9z"/>
		<path class="st4" d="M539.5,135.4c0.3-0.5,0.5-1.2,0.5-1.9c0-1.1-0.6-1.7-1.4-1.7s-1.2,0.4-1.6,1.5c-0.5,1.3-1.2,2.1-2.3,2.1
			c-1.3,0-2.2-1-2.2-2.6c0-0.8,0.2-1.4,0.4-1.8l0.9,0.3c-0.1,0.3-0.4,0.8-0.4,1.5c0,1.1,0.7,1.5,1.2,1.5c0.8,0,1.1-0.5,1.6-1.6
			c0.5-1.4,1.2-2.1,2.4-2.1s2.3,0.9,2.3,2.8c0,0.8-0.2,1.6-0.5,2.1L539.5,135.4z"/>
		<path class="st4" d="M532.8,129.3c-0.1-0.5-0.2-1.2-0.2-1.9c0-1,0.2-1.7,0.6-2.2c0.3-0.4,0.8-0.7,1.4-0.7c0.8,0,1.5,0.5,1.8,1.4
			l0,0c0.2-0.8,0.8-1.7,2-1.7c0.7,0,1.2,0.3,1.6,0.7c0.5,0.6,0.8,1.5,0.8,2.8c0,0.7,0,1.3-0.1,1.6L532.8,129.3L532.8,129.3z
			 M536.1,128.3v-0.9c0-1.1-0.6-1.8-1.4-1.8c-0.9,0-1.3,0.7-1.3,1.8c0,0.5,0,0.8,0.1,0.9H536.1z M540,128.3c0-0.2,0-0.5,0-0.9
			c0-1.1-0.4-2.1-1.6-2.1c-1.1,0-1.6,0.9-1.6,2.1v0.9H540z"/>
	</g>
	<path class="st9" d="M424.8,76.9c2.6,0,4.7,2.1,4.7,4.7s-2.1,4.7-4.7,4.7s-4.7-2.1-4.7-4.7C419.9,79,422,76.9,424.8,76.9
		L424.8,76.9z"/>
	<path class="st9" d="M534.8,76.9c2.6,0,4.7,2.1,4.7,4.7s-2.1,4.7-4.7,4.7c-2.6,0-4.7-2.1-4.7-4.7C530,79,532.1,76.9,534.8,76.9
		L534.8,76.9z"/>
	<g>
		<path class="st4" d="M444,200.2c-0.1-1.1-0.1-2.5-0.1-3.5l0,0c-0.3,0.9-0.6,2-1,3.1l-1.4,3.9h-0.8l-1.3-3.9
			c-0.4-1.1-0.7-2.2-0.9-3.1l0,0c0,1-0.1,2.4-0.2,3.6l-0.2,3.5h-1l0.6-8.1h1.3l1.4,3.9c0.3,1,0.6,1.9,0.8,2.7l0,0
			c0.2-0.8,0.5-1.7,0.9-2.7l1.4-3.9h1.3l0.5,8.1h-1L444,200.2z"/>
		<path class="st4" d="M452.2,200.8c0,2.1-1.5,3.1-2.9,3.1c-1.6,0-2.8-1.2-2.8-3c0-1.9,1.3-3.1,2.9-3.1
			C451,197.8,452.2,199.1,452.2,200.8z M447.5,200.8c0,1.3,0.7,2.2,1.8,2.2c1,0,1.8-0.9,1.8-2.3c0-1-0.5-2.2-1.7-2.2
			C448.1,198.6,447.5,199.8,447.5,200.8z"/>
		<path class="st4" d="M458.3,202.1c0,0.6,0,1.1,0,1.6h-0.9l-0.1-0.9l0,0c-0.3,0.5-0.9,1.1-1.9,1.1c-0.9,0-2-0.5-2-2.5v-3.4h1.1v3.2
			c0,1.1,0.3,1.8,1.3,1.8c0.7,0,1.2-0.5,1.4-1c0.1-0.2,0.1-0.3,0.1-0.5V198h1.1L458.3,202.1L458.3,202.1z"/>
		<path class="st4" d="M460.1,199.6c0-0.6,0-1.1,0-1.6h0.9l0.1,1l0,0c0.3-0.6,1-1.1,1.9-1.1c0.8,0,2.1,0.5,2.1,2.5v3.5H464v-3.4
			c0-0.9-0.3-1.7-1.3-1.7c-0.7,0-1.2,0.5-1.4,1.1c0,0.1-0.1,0.3-0.1,0.5v3.5h-1.1L460.1,199.6L460.1,199.6z"/>
		<path class="st4" d="M468,196.2v1.7h1.5v0.8H468v3.1c0,0.7,0.2,1.1,0.8,1.1c0.3,0,0.5,0,0.6-0.1v0.8c-0.2,0.1-0.5,0.1-0.9,0.1
			c-0.5,0-0.9-0.2-1.1-0.4c-0.3-0.3-0.4-0.8-0.4-1.5v-3.2h-0.9v-0.8h0.9v-1.4L468,196.2z"/>
		<path class="st4" d="M473.3,195.6h1v7.2h3.5v0.9h-4.5V195.6z"/>
		<path class="st4" d="M483.1,199.9H480v2.9h3.5v0.9H479v-8.1h4.4v0.9H480v2.6h3.1V199.9z"/>
		<path class="st4" d="M484.8,195.8c0.6-0.1,1.4-0.2,2.2-0.2c1.5,0,2.6,0.3,3.3,1s1.1,1.6,1.1,2.9c0,1.3-0.4,2.4-1.2,3.1
			c-0.8,0.8-2,1.2-3.6,1.2c-0.7,0-1.4,0-1.9-0.1v-7.9H484.8z M486,202.9c0.3,0,0.6,0.1,1.1,0.1c2.2,0,3.4-1.2,3.4-3.4
			c0-1.9-1.1-3.1-3.3-3.1c-0.5,0-0.9,0-1.2,0.1V202.9z"/>
		<path class="st4" d="M495.5,195.8c0.5-0.1,1.2-0.2,2-0.2c1,0,1.8,0.2,2.3,0.7c0.4,0.4,0.7,1,0.7,1.7s-0.2,1.3-0.6,1.7
			c-0.6,0.6-1.5,0.9-2.5,0.9c-0.3,0-0.6,0-0.8-0.1v3.2h-1v-7.9L495.5,195.8L495.5,195.8z M496.5,199.6c0.2,0.1,0.5,0.1,0.9,0.1
			c1.3,0,2-0.6,2-1.7c0-1.1-0.8-1.6-1.9-1.6c-0.5,0-0.8,0-1,0.1V199.6z"/>
		<path class="st4" d="M504.6,203.8l-0.1-0.7l0,0c-0.3,0.5-0.9,0.9-1.8,0.9c-1.2,0-1.8-0.8-1.8-1.7c0-1.4,1.2-2.2,3.5-2.2v-0.1
			c0-0.5-0.1-1.3-1.3-1.3c-0.5,0-1.1,0.2-1.5,0.4l-0.2-0.7c0.5-0.3,1.2-0.5,1.9-0.5c1.8,0,2.2,1.2,2.2,2.4v2.2c0,0.5,0,1,0.1,1.4
			L504.6,203.8L504.6,203.8z M504.5,200.8c-1.2,0-2.5,0.2-2.5,1.3c0,0.7,0.5,1,1,1c0.8,0,1.2-0.5,1.4-1c0-0.1,0.1-0.2,0.1-0.3V200.8
			z"/>
		<path class="st4" d="M507.2,199.6c0-0.6,0-1.1,0-1.6h0.9l0.1,1l0,0c0.3-0.6,1-1.1,1.9-1.1c0.8,0,2.1,0.5,2.1,2.5v3.5h-1.1v-3.4
			c0-0.9-0.3-1.7-1.3-1.7c-0.7,0-1.2,0.5-1.4,1.1c0,0.1-0.1,0.3-0.1,0.5v3.5h-1.1L507.2,199.6L507.2,199.6z"/>
		<path class="st4" d="M514.5,201.1c0,1.4,0.9,2,2,2c0.8,0,1.2-0.1,1.6-0.3l0.2,0.8c-0.4,0.2-1,0.4-1.9,0.4c-1.8,0-2.9-1.2-2.9-2.9
			c0-1.8,1-3.1,2.7-3.1c1.9,0,2.4,1.7,2.4,2.7c0,0.2,0,0.4,0,0.5L514.5,201.1L514.5,201.1z M517.5,200.2c0-0.7-0.3-1.7-1.5-1.7
			c-1.1,0-1.5,1-1.6,1.7H517.5z"/>
		<path class="st4" d="M520,195.2h1.1v8.5H520V195.2z"/>
		<path class="st4" d="M522.5,202.6c0.3,0.2,0.9,0.4,1.4,0.4c0.8,0,1.1-0.4,1.1-0.9s-0.3-0.8-1.1-1.1c-1-0.4-1.5-0.9-1.5-1.6
			c0-0.9,0.8-1.7,2-1.7c0.6,0,1.1,0.2,1.4,0.4l-0.3,0.8c-0.2-0.1-0.6-0.3-1.2-0.3c-0.6,0-1,0.4-1,0.8c0,0.5,0.3,0.7,1.1,1
			c1,0.4,1.5,0.9,1.5,1.8c0,1-0.8,1.7-2.2,1.7c-0.6,0-1.2-0.2-1.6-0.4L522.5,202.6z"/>
		<path class="st4" d="M453.1,215.2c0,2.1-1.5,3.1-2.9,3.1c-1.6,0-2.8-1.2-2.8-3c0-1.9,1.3-3.1,2.9-3.1
			C452,212.2,453.1,213.4,453.1,215.2z M448.5,215.2c0,1.3,0.7,2.2,1.8,2.2c1,0,1.8-0.9,1.8-2.3c0-1-0.5-2.2-1.7-2.2
			C449.1,213.1,448.5,214.2,448.5,215.2z"/>
		<path class="st4" d="M454.5,213.9c0-0.6,0-1.1,0-1.6h0.9l0.1,1l0,0c0.3-0.6,1-1.1,1.9-1.1c0.8,0,2.1,0.5,2.1,2.5v3.5h-1.1v-3.3
			c0-0.9-0.3-1.7-1.3-1.7c-0.7,0-1.2,0.5-1.4,1.1c0,0.1-0.1,0.3-0.1,0.5v3.5h-1.1L454.5,213.9L454.5,213.9z"/>
		<path class="st4" d="M470.6,214.1c0,2.8-1.7,4.3-3.8,4.3s-3.6-1.7-3.6-4.1c0-2.6,1.6-4.2,3.8-4.2
			C469.2,209.9,470.6,211.6,470.6,214.1z M464.3,214.2c0,1.7,0.9,3.3,2.6,3.3c1.7,0,2.6-1.5,2.6-3.4c0-1.6-0.8-3.3-2.6-3.3
			C465.2,210.8,464.3,212.3,464.3,214.2z"/>
		<path class="st4" d="M473.5,210.6v1.7h1.5v0.8h-1.5v3.1c0,0.7,0.2,1.1,0.8,1.1c0.3,0,0.5,0,0.6-0.1v0.8c-0.2,0.1-0.5,0.1-0.9,0.1
			c-0.5,0-0.9-0.2-1.1-0.4c-0.3-0.3-0.4-0.8-0.4-1.5V213h-0.9v-0.8h0.9v-1.4L473.5,210.6z"/>
		<path class="st4" d="M476.1,209.6h1.1v3.6l0,0c0.2-0.3,0.4-0.6,0.8-0.7c0.3-0.2,0.7-0.3,1.1-0.3c0.8,0,2,0.5,2,2.5v3.5H480v-3.3
			c0-0.9-0.3-1.7-1.3-1.7c-0.7,0-1.2,0.5-1.4,1.1c-0.1,0.1-0.1,0.3-0.1,0.5v3.5h-1.1L476.1,209.6L476.1,209.6z"/>
		<path class="st4" d="M483.5,215.4c0,1.4,0.9,2,2,2c0.8,0,1.2-0.1,1.6-0.3l0.2,0.8c-0.4,0.2-1,0.4-1.9,0.4c-1.8,0-2.9-1.2-2.9-2.9
			s1-3.1,2.7-3.1c1.9,0,2.4,1.7,2.4,2.7c0,0.2,0,0.4,0,0.5h-4.1V215.4z M486.5,214.7c0-0.7-0.3-1.7-1.5-1.7c-1.1,0-1.5,1-1.6,1.7
			H486.5z"/>
		<path class="st4" d="M488.8,214.2c0-0.7,0-1.3,0-1.8h0.9v1.1l0,0c0.3-0.8,0.9-1.3,1.6-1.3c0.1,0,0.2,0,0.3,0v1c-0.1,0-0.2,0-0.4,0
			c-0.7,0-1.3,0.6-1.4,1.4c0,0.1,0,0.3,0,0.5v3.1h-1L488.8,214.2L488.8,214.2z"/>
		<path class="st4" d="M495.1,216.8c0.5,0.3,1.2,0.5,1.9,0.5c1.1,0,1.7-0.6,1.7-1.4s-0.4-1.2-1.5-1.6c-1.3-0.5-2.1-1.2-2.1-2.3
			c0-1.3,1-2.2,2.6-2.2c0.8,0,1.4,0.2,1.8,0.4l-0.3,0.9c-0.3-0.1-0.8-0.4-1.5-0.4c-1.1,0-1.5,0.7-1.5,1.2c0,0.8,0.5,1.1,1.6,1.6
			c1.4,0.5,2.1,1.2,2.1,2.4c0,1.2-0.9,2.3-2.8,2.3c-0.8,0-1.6-0.2-2.1-0.5L495.1,216.8z"/>
		<path class="st4" d="M502.3,210.8c0,0.4-0.3,0.6-0.7,0.6s-0.6-0.3-0.6-0.6c0-0.4,0.3-0.7,0.7-0.7
			C502.1,210.1,502.3,210.3,502.3,210.8z M501.2,218.2v-5.8h1.1v5.8H501.2z"/>
		<path class="st4" d="M509,209.6v7c0,0.5,0,1.1,0,1.5h-0.9v-1l0,0c-0.3,0.6-1,1.1-2,1.1c-1.4,0-2.5-1.2-2.5-3
			c0-1.9,1.2-3.1,2.6-3.1c0.9,0,1.5,0.4,1.8,0.9l0,0v-3.5L509,209.6L509,209.6z M508,214.7c0-0.1,0-0.3,0-0.4
			c-0.2-0.7-0.7-1.2-1.5-1.2c-1.1,0-1.7,1-1.7,2.2s0.6,2.1,1.7,2.1c0.7,0,1.4-0.5,1.5-1.3c0-0.1,0-0.3,0-0.5V214.7z"/>
		<path class="st4" d="M511.3,215.4c0,1.4,0.9,2,2,2c0.8,0,1.2-0.1,1.6-0.3l0.2,0.8c-0.4,0.2-1,0.4-1.9,0.4c-1.8,0-2.9-1.2-2.9-2.9
			s1-3.1,2.7-3.1c1.9,0,2.4,1.7,2.4,2.7c0,0.2,0,0.4,0,0.5h-4.1V215.4z M514.5,214.7c0-0.7-0.3-1.7-1.5-1.7c-1.1,0-1.5,1-1.6,1.7
			H514.5z"/>
	</g>
	<path class="st9" d="M765,194.1c2.6,0,4.7,2.1,4.7,4.7s-2.1,4.7-4.7,4.7c-2.6,0-4.7-2.1-4.7-4.7C760.1,196.1,762.2,194.1,765,194.1
		L765,194.1z"/>
	<path class="st9" d="M875,194.1c2.6,0,4.7,2.1,4.7,4.7s-2.1,4.7-4.7,4.7c-2.6,0-4.7-2.1-4.7-4.7C870.2,196.1,872.3,194.1,875,194.1
		L875,194.1z"/>
	<path class="st9" d="M765,78c2.6,0,4.7,2.1,4.7,4.7c0,2.6-2.1,4.7-4.7,4.7c-2.6,0-4.7-2.1-4.7-4.7C760.1,80.1,762.2,78,765,78
		L765,78z"/>
	<path class="st9" d="M875,78c2.6,0,4.7,2.1,4.7,4.7c0,2.6-2.1,4.7-4.7,4.7c-2.6,0-4.7-2.1-4.7-4.7C870.2,80.1,872.3,78,875,78
		L875,78z"/>
	<g>
		<path class="st4" d="M818,132.6c0.5-0.1,1.2-0.2,2-0.2c1,0,1.8,0.2,2.3,0.7c0.4,0.4,0.7,1,0.7,1.7s-0.2,1.3-0.6,1.7
			c-0.6,0.6-1.5,0.9-2.5,0.9c-0.3,0-0.6,0-0.8-0.1v3.2h-1L818,132.6L818,132.6L818,132.6z M819.1,136.6c0.2,0.1,0.5,0.1,0.9,0.1
			c1.3,0,2-0.6,2-1.7s-0.8-1.6-1.9-1.6c-0.5,0-0.8,0-1,0.1V136.6z"/>
		<path class="st4" d="M825.5,133.2c0,0.4-0.3,0.6-0.7,0.6s-0.6-0.3-0.6-0.6c0-0.4,0.3-0.7,0.7-0.7
			C825.1,132.6,825.5,132.8,825.5,133.2z M824.2,140.6v-5.8h1.1v5.8H824.2z"/>
	</g>
	<circle class="st0" cx="110.2" cy="78.9" r="7.2"/>
	<circle class="st0" cx="884.8" cy="13.8" r="4.7"/>
	<circle class="st0" cx="77.4" cy="14" r="4.7"/>
</g>
</svg>
