<?xml version="1.0" encoding="UTF-8"?>
<svg id="Back_Mount" data-name="Back Mount" xmlns="http://www.w3.org/2000/svg" viewBox="0 0 1152.1 324.1">
  <defs>
    <style>
      .cls-1, .cls-2 {
        stroke-miterlimit: 10;
      }

      .cls-1, .cls-2, .cls-3, .cls-4, .cls-5 {
        fill: none;
      }

      .cls-1, .cls-3, .cls-4, .cls-5 {
        stroke: #000;
      }

      .cls-1, .cls-4, .cls-5 {
        stroke-width: .1px;
      }

      .cls-2 {
        font-family: Emulogic, Emulogic;
        font-size: 12px;
        stroke: red;
        stroke-width: .1px;
      }

      .cls-3 {
        stroke-width: .1px;
      }

      .cls-3, .cls-4 {
        stroke-miterlimit: 22.93;
      }

      .cls-5 {
        stroke-linecap: round;
        stroke-linejoin: round;
      }
    </style>
  </defs>
  <circle class="cls-5" cx="56.68" cy="77.48" r="6.1"/>
  <circle class="cls-5" cx="53.88" cy="119.98" r="4.3"/>
  <circle class="cls-5" cx="56.68" cy="247.58" r="6.1"/>
  <circle class="cls-5" cx="549.88" cy="77.48" r="6.1"/>
  <circle class="cls-5" cx="549.98" cy="247.58" r="6.1"/>
  <circle class="cls-5" cx="552.78" cy="204.98" r="4.3"/>
  <circle class="cls-5" cx="337.38" cy="57.58" r="6.1"/>
  <circle class="cls-5" cx="269.28" cy="267.38" r="6.1"/>
  <g id="LWPOLYLINE">
    <path class="cls-5" d="m93.18,206.98h31.2c1.6,0,2.8-1.36,2.8-2.93v-86.13c0-1.68-1.3-2.93-2.8-2.93h-31.2c-1.6,0-2.8,1.36-2.8,2.93v86.13c-.1,1.47,1.2,2.93,2.8,2.93Z"/>
  </g>
  <g id="LWPOLYLINE-2" data-name="LWPOLYLINE">
    <path class="cls-5" d="m371.78,127.88c0-1.7-1.3-3-2.8-3h-62.4c-1.6,0-2.8,1.4-2.8,3v41.9c0,1.7,1.3,3,2.8,3h62.4c1.6,0,2.8-1.4,2.8-3v-41.9Z"/>
  </g>
  <circle class="cls-5" cx="600.68" cy="77.48" r="6.1"/>
  <circle class="cls-5" cx="597.88" cy="119.98" r="4.3"/>
  <circle class="cls-5" cx="600.68" cy="247.58" r="6.1"/>
  <circle class="cls-5" cx="1093.98" cy="247.58" r="6.1"/>
  <circle class="cls-5" cx="1096.78" cy="204.98" r="4.3"/>
  <circle class="cls-5" cx="881.38" cy="57.58" r="6.1"/>
  <circle class="cls-5" cx="813.28" cy="267.38" r="6.1"/>
  <g id="LWPOLYLINE-3" data-name="LWPOLYLINE">
    <path class="cls-5" d="m637.18,206.98h31.2c1.6,0,2.8-1.36,2.8-2.93v-86.13c0-1.68-1.3-2.93-2.8-2.93h-31.2c-1.6,0-2.8,1.36-2.8,2.93v86.13c-.1,1.47,1.2,2.93,2.8,2.93Z"/>
  </g>
  <g id="LWPOLYLINE-4" data-name="LWPOLYLINE">
    <path class="cls-5" d="m915.78,127.88c0-1.7-1.3-3-2.8-3h-62.4c-1.6,0-2.8,1.4-2.8,3v41.9c0,1.7,1.3,3,2.8,3h62.4c1.6,0,2.8-1.4,2.8-3v-41.9Z"/>
  </g>
  <path class="cls-4" d="m17.24,36.87c2.7,0,4.8,2.2,4.8,4.8s-2.2,4.8-4.8,4.8-4.8-2.2-4.8-4.8,2.1-4.8,4.8-4.8Z"/>
  <path class="cls-4" d="m17.24,276.67c2.7,0,4.8,2.2,4.8,4.8s-2.2,4.8-4.8,4.8-4.8-2.2-4.8-4.8,2.1-4.8,4.8-4.8Z"/>
  <path class="cls-4" d="m1138.32,41.67c0,2.7-2.2,4.8-4.8,4.8s-4.8-2.2-4.8-4.8,2.2-4.8,4.8-4.8c2.6,0,4.8,2.1,4.8,4.8Z"/>
  <path class="cls-4" d="m1133.42,286.17c-2.7,0-4.8-2.2-4.8-4.8s2.2-4.8,4.8-4.8,4.8,2.2,4.8,4.8-2.1,4.8-4.8,4.8Z"/>
  <g id="LWPOLYLINE-5" data-name="LWPOLYLINE">
    <path class="cls-5" d="m482.58,206.98h31.2c1.6,0,2.8-1.36,2.8-2.93v-86.13c0-1.68-1.3-2.93-2.8-2.93h-31.2c-1.6,0-2.8,1.36-2.8,2.93v86.13c-.1,1.47,1.2,2.93,2.8,2.93Z"/>
  </g>
  <ellipse class="cls-1" cx="412.38" cy="212.28" rx="9" ry="12.6"/>
  <ellipse class="cls-1" cx="433.58" cy="112.68" rx="9" ry="12.6"/>
  <ellipse class="cls-1" cx="710.78" cy="215.08" rx="9" ry="12.6"/>
  <ellipse class="cls-1" cx="731.98" cy="115.48" rx="9" ry="12.6"/>
  <path class="cls-5" d="m161.38,214.58c2.6,0,4.7,2.1,4.7,4.7s-2.1,4.7-4.7,4.7-4.7-2.1-4.7-4.7c-.1-2.6,2-4.7,4.7-4.7h0Z"/>
  <path class="cls-5" d="m271.48,214.58c2.6,0,4.7,2.1,4.7,4.7s-2.1,4.7-4.7,4.7-4.7-2.1-4.7-4.7c-.1-2.6,2-4.7,4.7-4.7h0Z"/>
  <path class="cls-5" d="m161.38,98.48c2.6,0,4.7,2.1,4.7,4.7s-2.1,4.7-4.7,4.7-4.7-2.1-4.7-4.7c-.1-2.6,2-4.7,4.7-4.7h0Z"/>
  <path class="cls-5" d="m271.48,98.48c2.6,0,4.7,2.1,4.7,4.7s-2.1,4.7-4.7,4.7-4.7-2.1-4.7-4.7c-.1-2.6,2-4.7,4.7-4.7h0Z"/>
  <rect class="cls-3" x=".05" y=".05" width="1152" height="324"/>
  <text class="cls-2" transform="translate(354.17 20.56)"><tspan x="0" y="0">PIXELCADE LED P3 Reference mount</tspan></text>
  <circle class="cls-5" cx="1093.82" cy="77.55" r="6.1"/>
  <ellipse class="cls-1" cx="1002.62" cy="216.35" rx="9" ry="12.6"/>
  <ellipse class="cls-1" cx="1023.82" cy="116.75" rx="9" ry="12.6"/>
</svg>