<?xml version="1.0" encoding="utf-8"?>
<!-- Generator: Adobe Illustrator 23.0.6, SVG Export Plug-In . SVG Version: 6.00 Build 0)  -->
<svg version="1.1" id="Layer_1" xmlns="http://www.w3.org/2000/svg" xmlns:xlink="http://www.w3.org/1999/xlink" x="0px" y="0px"
	 viewBox="0 0 1440 864" style="enable-background:new 0 0 1440 864;" xml:space="preserve">
<style type="text/css">
	.st0{fill:none;stroke:#010101;stroke-width:0.1;stroke-linecap:round;stroke-linejoin:round;stroke-miterlimit:10;}
	.st1{fill:none;stroke:#000000;stroke-width:0.1;stroke-linecap:round;stroke-linejoin:round;stroke-miterlimit:10;}
	.st2{fill:none;stroke:#FF0000;stroke-width:0.1;stroke-miterlimit:10;}
	.st3{fill:none;stroke:#000000;stroke-width:0.1;stroke-miterlimit:22.9256;}
	.st4{fill:none;stroke:#010101;stroke-width:0.1;stroke-miterlimit:22.9256;}
	.st5{fill:none;stroke:#000000;stroke-width:0.1;stroke-miterlimit:10;}
</style>
<g id="Cutouts">
	<circle class="st0" cx="170.2" cy="246.5" r="6.1"/>
	<circle class="st0" cx="167.4" cy="289" r="4.3"/>
	<circle class="st0" cx="170.2" cy="416.6" r="6.1"/>
	<circle class="st1" cx="663.4" cy="246.5" r="6.1"/>
	<circle class="st1" cx="663.5" cy="416.6" r="6.1"/>
	<circle class="st1" cx="666.3" cy="374" r="4.3"/>
	<circle class="st0" cx="450.9" cy="226.6" r="6.1"/>
	<circle class="st0" cx="382.8" cy="436.4" r="6.1"/>
	<g id="LWPOLYLINE_14_">
		<path class="st0" d="M206.7,376h31.2c1.6,0,2.8-1.4,2.8-2.9V287c0-1.7-1.3-2.9-2.8-2.9h-31.2c-1.6,0-2.8,1.4-2.8,2.9v86.1
			C203.8,374.5,205.1,376,206.7,376z"/>
	</g>
	<g id="LWPOLYLINE_13_">
		<path class="st0" d="M485.3,296.9c0-1.7-1.3-3-2.8-3h-62.4c-1.6,0-2.8,1.4-2.8,3v41.9c0,1.7,1.3,3,2.8,3h62.4c1.6,0,2.8-1.4,2.8-3
			V296.9z"/>
	</g>
	<circle class="st1" cx="714.2" cy="246.5" r="6.1"/>
	<circle class="st1" cx="711.4" cy="289" r="4.3"/>
	<circle class="st1" cx="714.2" cy="416.6" r="6.1"/>
	<circle class="st0" cx="1207.5" cy="416.6" r="6.1"/>
	<circle class="st0" cx="1210.3" cy="374" r="4.3"/>
	<circle class="st1" cx="994.9" cy="226.6" r="6.1"/>
	<circle class="st0" cx="926.8" cy="436.4" r="6.1"/>
	<g id="LWPOLYLINE_12_">
		<path class="st0" d="M750.7,376h31.2c1.6,0,2.8-1.4,2.8-2.9V287c0-1.7-1.3-2.9-2.8-2.9h-31.2c-1.6,0-2.8,1.4-2.8,2.9v86.1
			C747.8,374.5,749.1,376,750.7,376z"/>
	</g>
	<g id="LWPOLYLINE_8_">
		<path class="st1" d="M1029.3,296.9c0-1.7-1.3-3-2.8-3h-62.4c-1.6,0-2.8,1.4-2.8,3v41.9c0,1.7,1.3,3,2.8,3h62.4
			c1.6,0,2.8-1.4,2.8-3V296.9z"/>
	</g>
	<g>
		<g>
			<line class="st2" x1="914" y1="292.8" x2="914" y2="373.6"/>
			<g>
				<path class="st2" d="M917.5,293.4c-1.5-0.9-2.6-2.2-3.5-3.7c-0.9,1.5-2.1,2.8-3.5,3.7v0.9c1.4-0.9,2.6-2,3.5-3.4
					c0.9,1.4,2.2,2.5,3.5,3.4V293.4z"/>
				<path class="st2" d="M917.5,295.4c-1.5-0.9-2.6-2.2-3.5-3.7c-0.9,1.5-2.1,2.8-3.5,3.7v0.9c1.4-0.9,2.6-2,3.5-3.4
					c0.9,1.4,2.2,2.5,3.5,3.4V295.4z"/>
			</g>
		</g>
	</g>
	<path class="st2" d="M908.5,273.4v4.8c0,1.8,0.8,2.6,1.9,2.6c1.2,0,2-0.8,2-2.6v-4.8h1.1v4.7c0,2.5-1.3,3.5-3.1,3.5
		c-1.7,0-2.9-0.9-2.9-3.5v-4.7H908.5z"/>
	<path class="st2" d="M915,277.6c0-0.7,0-1.3,0-1.9h0.9v1l0,0c0.4-0.7,1.1-1.1,2.1-1.1c1.4,0,2.5,1.2,2.5,3c0,2.1-1.3,3.1-2.6,3.1
		c-0.8,0-1.4-0.3-1.8-0.9l0,0v3.2h-1L915,277.6L915,277.6L915,277.6z M916.2,279.1c0,0.2,0,0.3,0,0.4c0.2,0.7,0.8,1.2,1.6,1.2
		c1.1,0,1.8-0.9,1.8-2.2c0-1.2-0.6-2.2-1.7-2.2c-0.7,0-1.4,0.5-1.6,1.3c0,0.1-0.1,0.3-0.1,0.4V279.1L916.2,279.1z"/>
	<g>
		<path class="st3" d="M1268.8,493.4c0,5.5-4.5,10-10,10h-1140c-5.5,0-10-4.5-10-10V169.6c0-5.5,4.5-10,10-10h1140
			c5.5,0,10,4.5,10,10V493.4z"/>
	</g>
	<path class="st4" d="M132.1,178.1c2.7,0,4.8,2.2,4.8,4.8c0,2.7-2.2,4.8-4.8,4.8c-2.7,0-4.8-2.2-4.8-4.8S129.4,178.1,132.1,178.1z"
		/>
	<path class="st4" d="M132.1,475.5c2.7,0,4.8,2.2,4.8,4.8c0,2.7-2.2,4.8-4.8,4.8c-2.7,0-4.8-2.2-4.8-4.8S129.4,475.5,132.1,475.5z"
		/>
	<path class="st4" d="M1250.5,182.9c0,2.7-2.2,4.8-4.8,4.8c-2.7,0-4.8-2.2-4.8-4.8c0-2.7,2.2-4.8,4.8-4.8
		C1248.3,178.1,1250.5,180.2,1250.5,182.9z"/>
	<path class="st4" d="M1245.6,485c-2.7,0-4.8-2.2-4.8-4.8c0-2.7,2.2-4.8,4.8-4.8c2.7,0,4.8,2.2,4.8,4.8S1248.3,485,1245.6,485z"/>
	<g id="LWPOLYLINE_7_">
		<path class="st0" d="M596.1,376h31.2c1.6,0,2.8-1.4,2.8-2.9V287c0-1.7-1.3-2.9-2.8-2.9h-31.2c-1.6,0-2.8,1.4-2.8,2.9v86.1
			C593.2,374.5,594.5,376,596.1,376z"/>
	</g>
	<ellipse class="st5" cx="525.9" cy="381.3" rx="9" ry="12.6"/>
	<ellipse class="st5" cx="547.1" cy="281.7" rx="9" ry="12.6"/>
	<ellipse class="st5" cx="824.3" cy="384.1" rx="9" ry="12.6"/>
	<ellipse class="st5" cx="845.5" cy="284.5" rx="9" ry="12.6"/>
	<g>
		<path class="st2" d="M292.5,410.1c-0.1-1.1-0.1-2.5-0.1-3.5l0,0c-0.3,0.9-0.6,2-1,3.1l-1.4,3.9h-0.8l-1.3-3.9
			c-0.4-1.1-0.7-2.2-0.9-3.1l0,0c0,1-0.1,2.4-0.2,3.6l-0.2,3.5h-1l0.6-8.1h1.3l1.4,3.9c0.3,1,0.6,1.9,0.8,2.7l0,0
			c0.2-0.8,0.5-1.7,0.9-2.7l1.4-3.9h1.3l0.5,8.1h-1L292.5,410.1z"/>
		<path class="st2" d="M300.7,410.6c0,2.1-1.5,3.1-2.9,3.1c-1.6,0-2.8-1.2-2.8-3c0-1.9,1.3-3.1,2.9-3.1
			C299.5,407.6,300.7,408.9,300.7,410.6z M296,410.6c0,1.3,0.7,2.2,1.8,2.2c1,0,1.8-0.9,1.8-2.3c0-1-0.5-2.2-1.7-2.2
			C296.6,408.5,296,409.6,296,410.6z"/>
		<path class="st2" d="M306.8,412c0,0.6,0,1.1,0,1.6h-0.9l-0.1-0.9l0,0c-0.3,0.5-0.9,1.1-1.9,1.1c-0.9,0-2-0.5-2-2.5v-3.4h1.1v3.2
			c0,1.1,0.3,1.8,1.3,1.8c0.7,0,1.2-0.5,1.4-1c0.1-0.2,0.1-0.3,0.1-0.5v-3.6h1.1L306.8,412L306.8,412z"/>
		<path class="st2" d="M308.6,409.4c0-0.6,0-1.1,0-1.6h0.9l0.1,1l0,0c0.3-0.6,1-1.1,1.9-1.1c0.8,0,2.1,0.5,2.1,2.5v3.5h-1.1v-3.4
			c0-0.9-0.3-1.7-1.3-1.7c-0.7,0-1.2,0.5-1.4,1.1c0,0.1-0.1,0.3-0.1,0.5v3.5h-1.1V409.4L308.6,409.4z"/>
		<path class="st2" d="M316.5,406.1v1.7h1.5v0.8h-1.5v3.1c0,0.7,0.2,1.1,0.8,1.1c0.3,0,0.5,0,0.6-0.1v0.8c-0.2,0.1-0.5,0.1-0.9,0.1
			c-0.5,0-0.9-0.2-1.1-0.4c-0.3-0.3-0.4-0.8-0.4-1.5v-3.2h-0.9v-0.8h0.9v-1.4L316.5,406.1z"/>
		<path class="st2" d="M321.8,405.5h1v7.2h3.5v0.9h-4.5V405.5z"/>
		<path class="st2" d="M331.6,409.8h-3.1v2.9h3.5v0.9h-4.5v-8.1h4.4v0.9h-3.4v2.6h3.1V409.8z"/>
		<path class="st2" d="M333.3,405.6c0.6-0.1,1.4-0.2,2.2-0.2c1.5,0,2.6,0.3,3.3,1c0.7,0.7,1.1,1.6,1.1,2.9s-0.4,2.4-1.2,3.1
			c-0.8,0.8-2,1.2-3.6,1.2c-0.7,0-1.4,0-1.9-0.1v-7.9H333.3z M334.4,412.8c0.3,0,0.6,0.1,1.1,0.1c2.2,0,3.4-1.2,3.4-3.4
			c0-1.9-1.1-3.1-3.3-3.1c-0.5,0-0.9,0-1.2,0.1V412.8z"/>
		<path class="st2" d="M343.9,405.6c0.5-0.1,1.2-0.2,2-0.2c1,0,1.8,0.2,2.3,0.7c0.4,0.4,0.7,1,0.7,1.7s-0.2,1.3-0.6,1.7
			c-0.6,0.6-1.5,0.9-2.5,0.9c-0.3,0-0.6,0-0.8-0.1v3.2h-1v-7.9L343.9,405.6L343.9,405.6z M344.9,409.5c0.2,0.1,0.5,0.1,0.9,0.1
			c1.3,0,2-0.6,2-1.7s-0.8-1.6-1.9-1.6c-0.5,0-0.8,0-1,0.1V409.5z"/>
		<path class="st2" d="M353.1,413.6l-0.1-0.7l0,0c-0.3,0.5-0.9,0.9-1.8,0.9c-1.2,0-1.8-0.8-1.8-1.7c0-1.4,1.2-2.2,3.5-2.2v-0.1
			c0-0.5-0.1-1.3-1.3-1.3c-0.5,0-1.1,0.2-1.5,0.4l-0.2-0.7c0.5-0.3,1.2-0.5,1.9-0.5c1.8,0,2.2,1.2,2.2,2.4v2.2c0,0.5,0,1,0.1,1.4
			L353.1,413.6L353.1,413.6z M353,410.6c-1.2,0-2.5,0.2-2.5,1.3c0,0.7,0.5,1,1,1c0.8,0,1.2-0.5,1.4-1c0-0.1,0.1-0.2,0.1-0.3V410.6z"
			/>
		<path class="st2" d="M355.7,409.4c0-0.6,0-1.1,0-1.6h0.9l0.1,1l0,0c0.3-0.6,1-1.1,1.9-1.1c0.8,0,2.1,0.5,2.1,2.5v3.5h-1.1v-3.4
			c0-0.9-0.3-1.7-1.3-1.7c-0.7,0-1.2,0.5-1.4,1.1c0,0.1-0.1,0.3-0.1,0.5v3.5h-1.1V409.4L355.7,409.4z"/>
		<path class="st2" d="M362.9,410.9c0,1.4,0.9,2,2,2c0.8,0,1.2-0.1,1.6-0.3l0.2,0.8c-0.4,0.2-1,0.4-1.9,0.4c-1.8,0-2.9-1.2-2.9-2.9
			c0-1.8,1-3.1,2.7-3.1c1.9,0,2.4,1.7,2.4,2.7c0,0.2,0,0.4,0,0.5h-4.1L362.9,410.9L362.9,410.9z M366,410.1c0-0.7-0.3-1.7-1.5-1.7
			c-1.1,0-1.5,1-1.6,1.7H366z"/>
		<path class="st2" d="M368.4,405.1h1.1v8.5h-1.1V405.1z"/>
		<path class="st2" d="M371,412.5c0.3,0.2,0.9,0.4,1.4,0.4c0.8,0,1.1-0.4,1.1-0.9s-0.3-0.8-1.1-1.1c-1-0.4-1.5-0.9-1.5-1.6
			c0-0.9,0.8-1.7,2-1.7c0.6,0,1.1,0.2,1.4,0.4l-0.3,0.8c-0.2-0.1-0.6-0.3-1.2-0.3s-1,0.4-1,0.8c0,0.5,0.3,0.7,1.1,1
			c1,0.4,1.5,0.9,1.5,1.8c0,1-0.8,1.7-2.2,1.7c-0.6,0-1.2-0.2-1.6-0.4L371,412.5z"/>
		<path class="st2" d="M301.6,425c0,2.1-1.5,3.1-2.9,3.1c-1.6,0-2.8-1.2-2.8-3c0-1.9,1.3-3.1,2.9-3.1
			C300.5,422.1,301.6,423.2,301.6,425z M297,425c0,1.3,0.7,2.2,1.8,2.2c1,0,1.8-0.9,1.8-2.3c0-1-0.5-2.2-1.7-2.2
			C297.6,422.9,297,424,297,425z"/>
		<path class="st2" d="M303,423.8c0-0.6,0-1.1,0-1.6h0.9l0.1,1l0,0c0.3-0.6,1-1.1,1.9-1.1c0.8,0,2.1,0.5,2.1,2.5v3.5h-1.1v-3.3
			c0-0.9-0.3-1.7-1.3-1.7c-0.7,0-1.2,0.5-1.4,1.1c0,0.1-0.1,0.3-0.1,0.5v3.5H303V423.8L303,423.8z"/>
		<path class="st2" d="M319.1,423.9c0,2.8-1.7,4.3-3.8,4.3s-3.6-1.7-3.6-4.1c0-2.6,1.6-4.2,3.8-4.2
			C317.7,419.8,319.1,421.5,319.1,423.9z M312.8,424c0,1.7,0.9,3.3,2.6,3.3s2.6-1.5,2.6-3.4c0-1.6-0.8-3.3-2.6-3.3
			C313.7,420.6,312.8,422.1,312.8,424z"/>
		<path class="st2" d="M321.9,420.5v1.7h1.5v0.8h-1.5v3.1c0,0.7,0.2,1.1,0.8,1.1c0.3,0,0.5,0,0.6-0.1v0.8c-0.2,0.1-0.5,0.1-0.9,0.1
			c-0.5,0-0.9-0.2-1.1-0.4c-0.3-0.3-0.4-0.8-0.4-1.5v-3.2H320V422h0.9v-1.4L321.9,420.5z"/>
		<path class="st2" d="M324.6,419.5h1.1v3.6l0,0c0.2-0.3,0.4-0.6,0.8-0.7c0.3-0.2,0.7-0.3,1.1-0.3c0.8,0,2,0.5,2,2.5v3.5h-1.1v-3.3
			c0-0.9-0.3-1.7-1.3-1.7c-0.7,0-1.2,0.5-1.4,1.1c-0.1,0.1-0.1,0.3-0.1,0.5v3.5h-1.1V419.5L324.6,419.5z"/>
		<path class="st2" d="M331.9,425.2c0,1.4,0.9,2,2,2c0.8,0,1.2-0.1,1.6-0.3l0.2,0.8c-0.4,0.2-1,0.4-1.9,0.4c-1.8,0-2.9-1.2-2.9-2.9
			s1-3.1,2.7-3.1c1.9,0,2.4,1.7,2.4,2.7c0,0.2,0,0.4,0,0.5h-4.1L331.9,425.2L331.9,425.2z M334.9,424.5c0-0.7-0.3-1.7-1.5-1.7
			c-1.1,0-1.5,1-1.6,1.7H334.9z"/>
		<path class="st2" d="M337.3,424c0-0.7,0-1.3,0-1.8h0.9v1.1l0,0c0.3-0.8,0.9-1.3,1.6-1.3c0.1,0,0.2,0,0.3,0v1c-0.1,0-0.2,0-0.4,0
			c-0.7,0-1.3,0.6-1.4,1.4c0,0.1,0,0.3,0,0.5v3.1h-1V424L337.3,424z"/>
		<path class="st2" d="M343.6,426.6c0.5,0.3,1.2,0.5,1.9,0.5c1.1,0,1.7-0.6,1.7-1.4s-0.4-1.2-1.5-1.6c-1.3-0.5-2.1-1.2-2.1-2.3
			c0-1.3,1-2.2,2.6-2.2c0.8,0,1.4,0.2,1.8,0.4l-0.3,0.9c-0.3-0.1-0.8-0.4-1.5-0.4c-1.1,0-1.5,0.7-1.5,1.2c0,0.8,0.5,1.1,1.6,1.6
			c1.4,0.5,2.1,1.2,2.1,2.4c0,1.2-0.9,2.3-2.8,2.3c-0.8,0-1.6-0.2-2.1-0.5L343.6,426.6z"/>
		<path class="st2" d="M350.8,420.6c0,0.4-0.3,0.6-0.7,0.6s-0.6-0.3-0.6-0.6c0-0.4,0.3-0.7,0.7-0.7S350.8,420.1,350.8,420.6z
			 M349.7,428v-5.8h1.1v5.8H349.7z"/>
		<path class="st2" d="M357.5,419.5v7c0,0.5,0,1.1,0,1.5h-0.9v-1l0,0c-0.3,0.6-1,1.1-2,1.1c-1.4,0-2.5-1.2-2.5-3
			c0-1.9,1.2-3.1,2.6-3.1c0.9,0,1.5,0.4,1.8,0.9l0,0v-3.5h1V419.5z M356.4,424.5c0-0.1,0-0.3,0-0.4c-0.2-0.7-0.7-1.2-1.5-1.2
			c-1.1,0-1.7,1-1.7,2.2s0.6,2.1,1.7,2.1c0.7,0,1.4-0.5,1.5-1.3c0-0.1,0-0.3,0-0.5V424.5z"/>
		<path class="st2" d="M359.8,425.2c0,1.4,0.9,2,2,2c0.8,0,1.2-0.1,1.6-0.3l0.2,0.8c-0.4,0.2-1,0.4-1.9,0.4c-1.8,0-2.9-1.2-2.9-2.9
			s1-3.1,2.7-3.1c1.9,0,2.4,1.7,2.4,2.7c0,0.2,0,0.4,0,0.5h-4.1L359.8,425.2L359.8,425.2z M362.9,424.5c0-0.7-0.3-1.7-1.5-1.7
			c-1.1,0-1.5,1-1.6,1.7H362.9z"/>
	</g>
	<path class="st1" d="M1050.9,384.2c2.6,0,4.7,2.1,4.7,4.7s-2.1,4.7-4.7,4.7s-4.7-2.1-4.7-4.7
		C1046.1,386.3,1048.2,384.2,1050.9,384.2L1050.9,384.2z"/>
	<path class="st1" d="M1161,384.2c2.6,0,4.7,2.1,4.7,4.7s-2.1,4.7-4.7,4.7s-4.7-2.1-4.7-4.7C1156.2,386.3,1158.3,384.2,1161,384.2
		L1161,384.2z"/>
	<path class="st1" d="M1050.9,268.1c2.6,0,4.7,2.1,4.7,4.7s-2.1,4.7-4.7,4.7s-4.7-2.1-4.7-4.7
		C1046.1,270.2,1048.2,268.1,1050.9,268.1L1050.9,268.1z"/>
	<path class="st1" d="M1161,268.1c2.6,0,4.7,2.1,4.7,4.7s-2.1,4.7-4.7,4.7s-4.7-2.1-4.7-4.7C1156.2,270.2,1158.3,268.1,1161,268.1
		L1161,268.1z"/>
	<g>
		<path class="st2" d="M1104,322.8c0.5-0.1,1.2-0.2,2-0.2c1,0,1.8,0.2,2.3,0.7c0.4,0.4,0.7,1,0.7,1.7s-0.2,1.3-0.6,1.7
			c-0.6,0.6-1.5,0.9-2.5,0.9c-0.3,0-0.6,0-0.8-0.1v3.2h-1L1104,322.8L1104,322.8L1104,322.8z M1105.1,326.7c0.2,0.1,0.5,0.1,0.9,0.1
			c1.3,0,2-0.6,2-1.7s-0.8-1.6-1.9-1.6c-0.5,0-0.8,0-1,0.1V326.7z"/>
		<path class="st2" d="M1111.4,323.4c0,0.4-0.3,0.6-0.7,0.6c-0.4,0-0.6-0.3-0.6-0.6c0-0.4,0.3-0.7,0.7-0.7
			C1111.1,322.7,1111.4,323,1111.4,323.4z M1110.2,330.8V325h1.1v5.8H1110.2z"/>
	</g>
	<path class="st1" d="M274.9,383.6c2.6,0,4.7,2.1,4.7,4.7s-2.1,4.7-4.7,4.7s-4.7-2.1-4.7-4.7C270.1,385.7,272.2,383.6,274.9,383.6
		L274.9,383.6z"/>
	<path class="st1" d="M385,383.6c2.6,0,4.7,2.1,4.7,4.7s-2.1,4.7-4.7,4.7s-4.7-2.1-4.7-4.7C380.2,385.7,382.3,383.6,385,383.6
		L385,383.6z"/>
	<path class="st1" d="M274.9,267.5c2.6,0,4.7,2.1,4.7,4.7s-2.1,4.7-4.7,4.7s-4.7-2.1-4.7-4.7C270.1,269.6,272.2,267.5,274.9,267.5
		L274.9,267.5z"/>
	<path class="st1" d="M385,267.5c2.6,0,4.7,2.1,4.7,4.7s-2.1,4.7-4.7,4.7s-4.7-2.1-4.7-4.7C380.2,269.6,382.3,267.5,385,267.5
		L385,267.5z"/>
	<circle class="st5" cx="1179.7" cy="183" r="4.7"/>
	<circle class="st5" cx="198.7" cy="183" r="4.7"/>
</g>
</svg>
