<?xml version="1.0" encoding="utf-8"?>
<!-- Generator: Adobe Illustrator 23.0.6, SVG Export Plug-In . SVG Version: 6.00 Build 0)  -->
<svg version="1.1" id="Layer_1" xmlns="http://www.w3.org/2000/svg" xmlns:xlink="http://www.w3.org/1999/xlink" x="0px" y="0px"
	 viewBox="0 0 1440 864" style="enable-background:new 0 0 1440 864;" xml:space="preserve">
<style type="text/css">
	.st0{fill:none;stroke:#000000;stroke-width:0.1;stroke-linecap:round;stroke-linejoin:round;stroke-miterlimit:10;}
	.st1{fill:none;stroke:#FF0000;stroke-width:0.1;stroke-miterlimit:10;}
</style>
<g id="Pixel_Board">
	<path class="st0" d="M274.9,383.6c2.6,0,4.7,2.1,4.7,4.7s-2.1,4.7-4.7,4.7s-4.7-2.1-4.7-4.7C270.1,385.7,272.2,383.6,274.9,383.6
		L274.9,383.6z"/>
	<path class="st0" d="M385,383.6c2.6,0,4.7,2.1,4.7,4.7s-2.1,4.7-4.7,4.7s-4.7-2.1-4.7-4.7C380.2,385.7,382.3,383.6,385,383.6
		L385,383.6z"/>
	<path class="st0" d="M261.1,227.6c2.6,0,4.7,2.1,4.7,4.7c0,2.6-2.1,4.7-4.7,4.7s-4.7-2.1-4.7-4.7
		C256.4,229.7,258.4,227.6,261.1,227.6L261.1,227.6z"/>
	<path class="st0" d="M261.1,426.1c2.6,0,4.7,2.1,4.7,4.7s-2.1,4.7-4.7,4.7s-4.7-2.1-4.7-4.7C256.3,428.2,258.4,426.1,261.1,426.1
		L261.1,426.1z"/>
	<path class="st0" d="M397.1,227.6c2.6,0,4.7,2.1,4.7,4.7c0,2.6-2.1,4.7-4.7,4.7s-4.7-2.1-4.7-4.7
		C392.4,229.7,394.4,227.6,397.1,227.6L397.1,227.6z"/>
	<path class="st0" d="M397.1,425.8c2.6,0,4.7,2.1,4.7,4.7s-2.1,4.7-4.7,4.7s-4.7-2.1-4.7-4.7C392.3,427.9,394.4,425.8,397.1,425.8
		L397.1,425.8z"/>
	<g>
		<path class="st1" d="M328.3,363.4c-0.1-0.5-0.2-1.2-0.2-2c0-1,0.2-1.8,0.7-2.3c0.4-0.4,1-0.7,1.7-0.7s1.3,0.2,1.7,0.6
			c0.6,0.6,0.9,1.5,0.9,2.5c0,0.3,0,0.6-0.1,0.8h3.2v1h-7.9L328.3,363.4L328.3,363.4z M332.2,362.3c0.1-0.2,0.1-0.5,0.1-0.9
			c0-1.3-0.6-2-1.7-2s-1.6,0.8-1.6,1.9c0,0.5,0,0.8,0.1,1H332.2z"/>
		<path class="st1" d="M328.2,355.9h8.1v1h-8.1V355.9z"/>
		<path class="st1" d="M336.3,349.7l-1.8,1c-0.7,0.4-1.1,0.7-1.6,0.9l0,0c0.5,0.2,0.9,0.5,1.6,0.9l1.8,1v1.2l-4.1-2.5l-4,2.4v-1.2
			l1.9-1.1c0.5-0.3,0.9-0.5,1.4-0.7l0,0c-0.5-0.2-0.9-0.4-1.4-0.7l-1.9-1.1v-1.3l3.9,2.5l4.1-2.5L336.3,349.7L336.3,349.7z"/>
		<path class="st1" d="M332.5,343.1v3.1h2.9v-3.5h0.9v4.5h-8.1v-4.4h0.9v3.3h2.6V343L332.5,343.1L332.5,343.1L332.5,343.1z"/>
		<path class="st1" d="M328.2,341.4v-1h7.2v-3.5h0.9v4.5H328.2z"/>
		<path class="st1" d="M328.3,333.2c-0.1-0.5-0.2-1.2-0.2-1.9c0-1,0.2-1.7,0.6-2.2c0.3-0.4,0.8-0.7,1.4-0.7c0.8,0,1.5,0.5,1.8,1.4
			l0,0c0.2-0.8,0.8-1.7,2-1.7c0.7,0,1.2,0.3,1.6,0.7c0.5,0.6,0.8,1.5,0.8,2.8c0,0.7,0,1.3-0.1,1.6L328.3,333.2L328.3,333.2z
			 M331.6,332.1v-0.9c0-1.1-0.6-1.8-1.4-1.8c-0.9,0-1.3,0.7-1.3,1.8c0,0.5,0,0.8,0.1,0.9H331.6z M335.5,332.1c0-0.2,0-0.5,0-0.9
			c0-1.1-0.4-2.1-1.6-2.1c-1.1,0-1.6,0.9-1.6,2.1v0.9H335.5z"/>
		<path class="st1" d="M332.2,319.7c2.8,0,4.3,1.7,4.3,3.8s-1.7,3.6-4.1,3.6c-2.6,0-4.2-1.6-4.2-3.8
			C328.1,321.2,329.8,319.7,332.2,319.7z M332.3,326c1.7,0,3.3-0.9,3.3-2.6s-1.5-2.6-3.4-2.6c-1.6,0-3.3,0.8-3.3,2.6
			S330.5,326,332.3,326z"/>
		<path class="st1" d="M333.8,317.2l2.5,0.8v1.1l-8.1-2.7v-1.3l8.1-2.8v1.1l-2.5,0.9V317.2z M332.9,314.6l-2.3,0.8
			c-0.5,0.2-1,0.3-1.5,0.4l0,0c0.5,0.1,1,0.3,1.5,0.4l2.3,0.8V314.6z"/>
		<path class="st1" d="M328.3,311.2c-0.1-0.5-0.2-1.3-0.2-2c0-1.1,0.2-1.8,0.7-2.3c0.4-0.4,0.9-0.6,1.5-0.6c1.1,0,1.8,0.7,2.1,1.5
			l0,0c0.2-0.6,0.8-1,1.6-1.2c1.1-0.3,1.9-0.5,2.2-0.6v1.1c-0.2,0.1-0.9,0.3-1.9,0.5c-1.1,0.2-1.5,0.7-1.6,1.6v1h3.5v1H328.3z
			 M332,310.2v-1.1c0-1.1-0.6-1.8-1.5-1.8c-1,0-1.5,0.8-1.5,1.9c0,0.5,0,0.9,0.1,1H332L332,310.2z"/>
		<path class="st1" d="M328.3,304.8c-0.1-0.6-0.2-1.4-0.2-2.2c0-1.5,0.3-2.6,1-3.3c0.7-0.7,1.6-1.1,2.9-1.1s2.4,0.4,3.1,1.2
			c0.8,0.8,1.2,2,1.2,3.6c0,0.7,0,1.4-0.1,1.9L328.3,304.8L328.3,304.8z M335.5,303.7c0-0.3,0.1-0.6,0.1-1.1c0-2.2-1.2-3.4-3.4-3.4
			c-1.9,0-3.1,1.1-3.1,3.3c0,0.5,0,0.9,0.1,1.2H335.5z"/>
	</g>
	<g>
		<path class="st1" d="M382.9,332.6h4.8c1.8,0,2.6-0.8,2.6-1.9c0-1.2-0.8-2-2.6-2h-4.8v-1.1h4.7c2.5,0,3.5,1.3,3.5,3.1
			c0,1.7-0.9,2.9-3.5,2.9h-4.8L382.9,332.6L382.9,332.6z"/>
		<path class="st1" d="M389.7,326.1c0.3-0.5,0.5-1.2,0.5-1.9c0-1.1-0.6-1.7-1.4-1.7s-1.2,0.4-1.6,1.5c-0.5,1.3-1.2,2.1-2.3,2.1
			c-1.3,0-2.2-1-2.2-2.6c0-0.8,0.2-1.4,0.4-1.8l0.9,0.3c-0.1,0.3-0.4,0.8-0.4,1.5c0,1.1,0.7,1.5,1.2,1.5c0.8,0,1.1-0.5,1.6-1.6
			c0.5-1.4,1.2-2.1,2.4-2.1s2.3,0.9,2.3,2.8c0,0.8-0.2,1.6-0.5,2.1L389.7,326.1z"/>
		<path class="st1" d="M383,320c-0.1-0.5-0.2-1.2-0.2-1.9c0-1,0.2-1.7,0.6-2.2c0.3-0.4,0.8-0.7,1.4-0.7c0.8,0,1.5,0.5,1.8,1.4l0,0
			c0.2-0.8,0.8-1.7,2-1.7c0.7,0,1.2,0.3,1.6,0.7c0.5,0.6,0.8,1.5,0.8,2.8c0,0.7,0,1.3-0.1,1.6L383,320L383,320z M386.3,319v-0.9
			c0-1.1-0.6-1.8-1.4-1.8c-0.9,0-1.3,0.7-1.3,1.8c0,0.5,0,0.8,0.1,0.9H386.3z M390.2,319c0-0.2,0-0.5,0-0.9c0-1.1-0.4-2.1-1.6-2.1
			c-1.1,0-1.6,0.9-1.6,2.1v0.9H390.2z"/>
	</g>
	<path class="st0" d="M274.9,267.5c2.6,0,4.7,2.1,4.7,4.7s-2.1,4.7-4.7,4.7s-4.7-2.1-4.7-4.7C270.1,269.6,272.2,267.5,274.9,267.5
		L274.9,267.5z"/>
	<path class="st0" d="M385,267.5c2.6,0,4.7,2.1,4.7,4.7s-2.1,4.7-4.7,4.7s-4.7-2.1-4.7-4.7C380.2,269.6,382.3,267.5,385,267.5
		L385,267.5z"/>
	<path class="st0" d="M398.2,444.3H259.8c-6.6,0-12-5.4-12-12V231c0-6.6,5.4-12,12-12h138.4c6.6,0,12,5.4,12,12v201.3
		C410.2,438.9,404.8,444.3,398.2,444.3z"/>
</g>
</svg>
