<?xml version="1.0" encoding="utf-8"?>
<!-- Generator: Adobe Illustrator 27.7.0, SVG Export Plug-In . SVG Version: 6.00 Build 0)  -->
<svg version="1.1" id="Layer_1" xmlns="http://www.w3.org/2000/svg" xmlns:xlink="http://www.w3.org/1999/xlink" x="0px" y="0px"
	 viewBox="0 0 162.5 225.4" style="enable-background:new 0 0 162.5 225.4;" xml:space="preserve">
<style type="text/css">
	.st0{fill:none;stroke:#000000;stroke-width:0.1;stroke-linecap:round;stroke-linejoin:round;stroke-miterlimit:10;}
	.st1{fill:none;stroke:#FF0000;stroke-width:0.1;stroke-miterlimit:10;}
</style>
<g id="Pixel_Board">
	<path class="st0" d="M27.2,164.7c2.6,0,4.7,2.1,4.7,4.7s-2.1,4.7-4.7,4.7s-4.7-2.1-4.7-4.7C22.4,166.8,24.5,164.7,27.2,164.7
		L27.2,164.7z"/>
	<path class="st0" d="M137.3,164.7c2.6,0,4.7,2.1,4.7,4.7s-2.1,4.7-4.7,4.7s-4.7-2.1-4.7-4.7C132.5,166.8,134.6,164.7,137.3,164.7
		L137.3,164.7z"/>
	<path class="st0" d="M13.4,8.7c2.6,0,4.7,2.1,4.7,4.7c0,2.6-2.1,4.7-4.7,4.7s-4.7-2.1-4.7-4.7C8.7,10.7,10.7,8.7,13.4,8.7L13.4,8.7
		z"/>
	<path class="st0" d="M13.4,207.2c2.6,0,4.7,2.1,4.7,4.7s-2.1,4.7-4.7,4.7s-4.7-2.1-4.7-4.7C8.6,209.3,10.7,207.2,13.4,207.2
		L13.4,207.2z"/>
	<path class="st0" d="M149.4,8.7c2.6,0,4.7,2.1,4.7,4.7c0,2.6-2.1,4.7-4.7,4.7s-4.7-2.1-4.7-4.7C144.7,10.7,146.7,8.7,149.4,8.7
		L149.4,8.7z"/>
	<path class="st0" d="M149.4,206.8c2.6,0,4.7,2.1,4.7,4.7s-2.1,4.7-4.7,4.7s-4.7-2.1-4.7-4.7C144.6,208.9,146.7,206.8,149.4,206.8
		L149.4,206.8z"/>
	<g>
		<path class="st1" d="M80.6,144.4c-0.1-0.5-0.2-1.2-0.2-2c0-1,0.2-1.8,0.7-2.3c0.4-0.4,1-0.7,1.7-0.7s1.3,0.2,1.7,0.6
			c0.6,0.6,0.9,1.5,0.9,2.5c0,0.3,0,0.6-0.1,0.8h3.2v1h-7.9L80.6,144.4L80.6,144.4z M84.5,143.3c0.1-0.2,0.1-0.5,0.1-0.9
			c0-1.3-0.6-2-1.7-2s-1.6,0.8-1.6,1.9c0,0.5,0,0.8,0.1,1H84.5z"/>
		<path class="st1" d="M80.5,136.9h8.1v1h-8.1V136.9z"/>
		<path class="st1" d="M88.6,130.8l-1.8,1c-0.7,0.4-1.1,0.7-1.6,0.9l0,0c0.5,0.2,0.9,0.5,1.6,0.9l1.8,1v1.2l-4.1-2.5l-4,2.4v-1.2
			l1.9-1.1c0.5-0.3,0.9-0.5,1.4-0.7l0,0c-0.5-0.2-0.9-0.4-1.4-0.7l-1.9-1.1v-1.3l3.9,2.5l4.1-2.5L88.6,130.8L88.6,130.8z"/>
		<path class="st1" d="M84.8,124.2v3.1h2.9v-3.5h0.9v4.5h-8.1v-4.4h0.9v3.3h2.6v-3.1L84.8,124.2L84.8,124.2L84.8,124.2z"/>
		<path class="st1" d="M80.5,122.4v-1h7.2v-3.5h0.9v4.5H80.5z"/>
		<path class="st1" d="M80.6,114.3c-0.1-0.5-0.2-1.2-0.2-1.9c0-1,0.2-1.7,0.6-2.2c0.3-0.4,0.8-0.7,1.4-0.7c0.8,0,1.5,0.5,1.8,1.4
			l0,0c0.2-0.8,0.8-1.7,2-1.7c0.7,0,1.2,0.3,1.6,0.7c0.5,0.6,0.8,1.5,0.8,2.8c0,0.7,0,1.3-0.1,1.6L80.6,114.3L80.6,114.3z
			 M83.9,113.2v-0.9c0-1.1-0.6-1.8-1.4-1.8c-0.9,0-1.3,0.7-1.3,1.8c0,0.5,0,0.8,0.1,0.9H83.9z M87.8,113.2c0-0.2,0-0.5,0-0.9
			c0-1.1-0.4-2.1-1.6-2.1c-1.1,0-1.6,0.9-1.6,2.1v0.9H87.8z"/>
		<path class="st1" d="M84.5,100.8c2.8,0,4.3,1.7,4.3,3.8s-1.7,3.6-4.1,3.6c-2.6,0-4.2-1.6-4.2-3.8
			C80.4,102.3,82.1,100.8,84.5,100.8z M84.6,107.1c1.7,0,3.3-0.9,3.3-2.6s-1.5-2.6-3.4-2.6c-1.6,0-3.3,0.8-3.3,2.6
			S82.8,107.1,84.6,107.1z"/>
		<path class="st1" d="M86.1,98.3l2.5,0.8v1.1l-8.1-2.7v-1.3l8.1-2.8v1.1l-2.5,0.9V98.3z M85.2,95.7l-2.3,0.8
			c-0.5,0.2-1,0.3-1.5,0.4l0,0c0.5,0.1,1,0.3,1.5,0.4l2.3,0.8V95.7z"/>
		<path class="st1" d="M80.6,92.3c-0.1-0.5-0.2-1.3-0.2-2c0-1.1,0.2-1.8,0.7-2.3c0.4-0.4,0.9-0.6,1.5-0.6c1.1,0,1.8,0.7,2.1,1.5l0,0
			c0.2-0.6,0.8-1,1.6-1.2c1.1-0.3,1.9-0.5,2.2-0.6v1.1c-0.2,0.1-0.9,0.3-1.9,0.5c-1.1,0.2-1.5,0.7-1.6,1.6v1h3.5v1H80.6z M84.3,91.3
			v-1.1c0-1.1-0.6-1.8-1.5-1.8c-1,0-1.5,0.8-1.5,1.9c0,0.5,0,0.9,0.1,1H84.3L84.3,91.3z"/>
		<path class="st1" d="M80.6,85.8c-0.1-0.6-0.2-1.4-0.2-2.2c0-1.5,0.3-2.6,1-3.3c0.7-0.7,1.6-1.1,2.9-1.1s2.4,0.4,3.1,1.2
			c0.8,0.8,1.2,2,1.2,3.6c0,0.7,0,1.4-0.1,1.9L80.6,85.8L80.6,85.8z M87.8,84.8c0-0.3,0.1-0.6,0.1-1.1c0-2.2-1.2-3.4-3.4-3.4
			c-1.9,0-3.1,1.1-3.1,3.3c0,0.5,0,0.9,0.1,1.2H87.8z"/>
	</g>
	<g>
		<path class="st1" d="M135.2,113.7h4.8c1.8,0,2.6-0.8,2.6-1.9c0-1.2-0.8-2-2.6-2h-4.8v-1.1h4.7c2.5,0,3.5,1.3,3.5,3.1
			c0,1.7-0.9,2.9-3.5,2.9h-4.8L135.2,113.7L135.2,113.7z"/>
		<path class="st1" d="M142,107.2c0.3-0.5,0.5-1.2,0.5-1.9c0-1.1-0.6-1.7-1.4-1.7s-1.2,0.4-1.6,1.5c-0.5,1.3-1.2,2.1-2.3,2.1
			c-1.3,0-2.2-1-2.2-2.6c0-0.8,0.2-1.4,0.4-1.8l0.9,0.3c-0.1,0.3-0.4,0.8-0.4,1.5c0,1.1,0.7,1.5,1.2,1.5c0.8,0,1.1-0.5,1.6-1.6
			c0.5-1.4,1.2-2.1,2.4-2.1s2.3,0.9,2.3,2.8c0,0.8-0.2,1.6-0.5,2.1L142,107.2z"/>
		<path class="st1" d="M135.3,101.1c-0.1-0.5-0.2-1.2-0.2-1.9c0-1,0.2-1.7,0.6-2.2c0.3-0.4,0.8-0.7,1.4-0.7c0.8,0,1.5,0.5,1.8,1.4
			l0,0c0.2-0.8,0.8-1.7,2-1.7c0.7,0,1.2,0.3,1.6,0.7c0.5,0.6,0.8,1.5,0.8,2.8c0,0.7,0,1.3-0.1,1.6L135.3,101.1L135.3,101.1z
			 M138.6,100.1v-0.9c0-1.1-0.6-1.8-1.4-1.8c-0.9,0-1.3,0.7-1.3,1.8c0,0.5,0,0.8,0.1,0.9H138.6z M142.5,100.1c0-0.2,0-0.5,0-0.9
			c0-1.1-0.4-2.1-1.6-2.1c-1.1,0-1.6,0.9-1.6,2.1v0.9H142.5z"/>
	</g>
	<path class="st0" d="M27.2,48.5c2.6,0,4.7,2.1,4.7,4.7S29.8,58,27.2,58s-4.7-2.1-4.7-4.7C22.4,50.7,24.5,48.5,27.2,48.5L27.2,48.5z
		"/>
	<path class="st0" d="M137.3,48.5c2.6,0,4.7,2.1,4.7,4.7s-2.1,4.7-4.7,4.7s-4.7-2.1-4.7-4.7C132.5,50.7,134.6,48.5,137.3,48.5
		L137.3,48.5z"/>
	<path class="st0" d="M150.5,225.3H12.1c-6.6,0-12-5.4-12-12V12.1c0-6.6,5.4-12,12-12h138.4c6.6,0,12,5.4,12,12v201.3
		C162.5,219.9,157.1,225.3,150.5,225.3z"/>
</g>
</svg>
