<?xml version="1.0" encoding="utf-8"?>
<!-- Generator: Adobe Illustrator 23.0.6, SVG Export Plug-In . SVG Version: 6.00 Build 0)  -->
<svg version="1.1" id="Layer_1" xmlns="http://www.w3.org/2000/svg" xmlns:xlink="http://www.w3.org/1999/xlink" x="0px" y="0px"
	 viewBox="0 0 1440 864" style="enable-background:new 0 0 1440 864;" xml:space="preserve">
<style type="text/css">
	.st0{fill:none;stroke:#FF0000;stroke-width:0.1;stroke-miterlimit:10;}
	.st1{fill:none;stroke:#000000;stroke-width:0.1;stroke-miterlimit:10;}
	.st2{fill:none;stroke:#000000;stroke-width:0.1;stroke-linejoin:round;stroke-miterlimit:10;}
	.st3{fill:none;stroke:#000000;stroke-width:0.1;stroke-linecap:round;stroke-linejoin:round;stroke-miterlimit:10;}
</style>
<g id="Pi_Board">
	<g>
		<path class="st0" d="M456.5,285.7c0.5-0.1,1.2-0.2,2-0.2c1,0,1.8,0.2,2.3,0.7c0.4,0.4,0.7,1,0.7,1.7s-0.2,1.3-0.6,1.7
			c-0.6,0.6-1.5,0.9-2.5,0.9c-0.3,0-0.6,0-0.8-0.1v3.2h-1L456.5,285.7L456.5,285.7L456.5,285.7z M457.6,289.6
			c0.2,0.1,0.5,0.1,0.9,0.1c1.3,0,2-0.6,2-1.7s-0.8-1.6-1.9-1.6c-0.5,0-0.8,0-1,0.1V289.6z"/>
		<path class="st0" d="M463.9,286.3c0,0.4-0.3,0.6-0.7,0.6c-0.4,0-0.6-0.3-0.6-0.6c0-0.4,0.3-0.7,0.7-0.7
			C463.6,285.6,463.9,285.9,463.9,286.3z M462.7,293.7v-5.8h1.1v5.8H462.7z"/>
	</g>
	<path class="st1" d="M553.3,368.2c-2.6,0-4.6-2-4.6-4.7c0-2.6,2.1-4.7,4.6-4.7c2.7,0,4.7,2.1,4.7,4.7
		C558,366.2,556,368.2,553.3,368.2z"/>
	<path class="st1" d="M388.9,368.2c-2.6,0-4.6-2-4.6-4.7c0-2.6,2.1-4.7,4.6-4.7c2.7,0,4.7,2.1,4.7,4.7
		C393.6,366.2,391.6,368.2,388.9,368.2z"/>
	<path class="st2" d="M388.9,229c-2.6,0-4.6-2.1-4.6-4.7s2.1-4.6,4.6-4.6c2.7,0,4.7,2.1,4.7,4.6C393.6,226.9,391.6,229,388.9,229z"
		/>
	<path class="st2" d="M553.3,229c-2.6,0-4.6-2.1-4.6-4.7s2.1-4.6,4.6-4.6c2.7,0,4.7,2.1,4.7,4.6C558,226.9,556,229,553.3,229z"/>
	<path class="st3" d="M403.4,347.1c2.6,0,4.7,2.1,4.7,4.7s-2.1,4.7-4.7,4.7s-4.7-2.1-4.7-4.7C398.6,349.2,400.7,347.1,403.4,347.1
		L403.4,347.1z"/>
	<path class="st3" d="M513.5,347.1c2.6,0,4.7,2.1,4.7,4.7s-2.1,4.7-4.7,4.7s-4.7-2.1-4.7-4.7C508.7,349.2,510.8,347.1,513.5,347.1
		L513.5,347.1z"/>
	<path class="st3" d="M403.4,231c2.6,0,4.7,2.1,4.7,4.7s-2.1,4.7-4.7,4.7s-4.7-2.1-4.7-4.7C398.6,233.1,400.7,231,403.4,231
		L403.4,231z"/>
	<path class="st3" d="M513.5,231c2.6,0,4.7,2.1,4.7,4.7s-2.1,4.7-4.7,4.7s-4.7-2.1-4.7-4.7C508.7,233.1,510.8,231,513.5,231
		L513.5,231z"/>
	<path class="st1" d="M557.8,396.8H326.2c-6.6,0-12-5.4-12-12V203c0-6.6,5.4-12,12-12h231.7c6.6,0,12,5.4,12,12v181.8
		C569.8,391.4,564.4,396.8,557.8,396.8z"/>
	<g>
		<path class="st0" d="M458.5,225.2v3.4h3.9v-3.4h1.1v8.1h-1.1v-3.8h-3.9v3.8h-1v-8.1H458.5z"/>
		<path class="st0" d="M465.2,225.3c0.6-0.1,1.4-0.2,2.2-0.2c1.5,0,2.6,0.3,3.3,1c0.7,0.7,1.1,1.6,1.1,2.9s-0.4,2.4-1.2,3.1
			c-0.8,0.8-2,1.2-3.6,1.2c-0.7,0-1.4,0-1.9-0.1L465.2,225.3L465.2,225.3z M466.3,232.5c0.3,0,0.6,0.1,1.1,0.1
			c2.2,0,3.4-1.2,3.4-3.4c0-1.9-1.1-3.1-3.3-3.1c-0.5,0-0.9,0-1.2,0.1V232.5z"/>
		<path class="st0" d="M480,229.7c-0.1-1.1-0.1-2.5-0.1-3.5l0,0c-0.3,0.9-0.6,2-1,3.1l-1.4,3.9h-0.8l-1.3-3.9
			c-0.4-1.1-0.7-2.2-0.9-3.1l0,0c0,1-0.1,2.4-0.2,3.6l-0.2,3.5h-1l0.6-8.1h1.3l1.4,3.9c0.3,1,0.6,1.9,0.8,2.7l0,0
			c0.2-0.8,0.5-1.7,0.9-2.7l1.4-3.9h1.3l0.5,8.1h-1L480,229.7z"/>
		<path class="st0" d="M483.9,225.2v8.1h-1v-8.1H483.9z"/>
	</g>
	<g id="LWPOLYLINE_15_">
		<path class="st3" d="M381.8,259.8c0-1.7-1.3-3-2.8-3h-62.4c-1.6,0-2.8,1.4-2.8,3v41.9c0,1.7,1.3,3,2.8,3H379c1.6,0,2.8-1.4,2.8-3
			V259.8z"/>
	</g>
	<g>
		<path class="st0" d="M455.1,268.6c0.5-0.1,1.2-0.2,2-0.2c1,0,1.8,0.2,2.3,0.7c0.4,0.4,0.7,1,0.7,1.7s-0.2,1.3-0.6,1.7
			c-0.6,0.6-1.5,0.9-2.5,0.9c-0.3,0-0.6,0-0.8-0.1v3.2h-1L455.1,268.6L455.1,268.6z M456.2,272.5c0.2,0.1,0.5,0.1,0.9,0.1
			c1.3,0,2-0.6,2-1.7s-0.8-1.6-1.9-1.6c-0.5,0-0.8,0-1,0.1V272.5z"/>
		<path class="st0" d="M461.4,275.3c0.3,0.2,1,0.5,1.7,0.5c1.4,0,1.8-0.9,1.8-1.5c0-1.1-1-1.6-2-1.6h-0.6v-0.8h0.6
			c0.8,0,1.7-0.4,1.7-1.3c0-0.6-0.4-1.2-1.4-1.2c-0.6,0-1.2,0.3-1.6,0.5l-0.3-0.8c0.4-0.3,1.2-0.6,2-0.6c1.5,0,2.2,0.9,2.2,1.9
			c0,0.8-0.5,1.5-1.4,1.8l0,0c1,0.2,1.7,0.9,1.7,2c0,1.2-1,2.3-2.8,2.3c-0.9,0-1.6-0.3-2-0.5L461.4,275.3z"/>
	</g>
</g>
</svg>
