<?xml version="1.0" encoding="utf-8"?>
<!-- Generator: Adobe Illustrator 23.0.1, SVG Export Plug-In . SVG Version: 6.00 Build 0)  -->
<svg version="1.1" id="Layer_1" xmlns="http://www.w3.org/2000/svg" xmlns:xlink="http://www.w3.org/1999/xlink" x="0px" y="0px"
	 viewBox="0 0 1404 792" style="enable-background:new 0 0 1404 792;" xml:space="preserve">
<style type="text/css">
	.st0{fill:none;stroke:#000000;stroke-width:0.1;stroke-miterlimit:22.9256;}
	.st1{fill:none;stroke:#1A1A18;stroke-width:0.1;stroke-miterlimit:22.9256;}
	.st2{fill:none;stroke:#231F20;stroke-width:0.1;stroke-miterlimit:22.9256;}
</style>
<g>
	<path class="st0" d="M68.4,697.5v-2.8h-8.5v-85h8.5v-85h-8.5v-85h8.5V321.5h-8.5v-85h8.5v-85h-8.5v-85h8.5v-2.8
		c0-6.2,5.1-11.3,11.3-11.3H709c6.2,0,11.3,5.1,11.3,11.3v2.8h8.5v85h-8.5v85h8.5v85h-8.5v118.1h8.5v85h-8.5v85h8.5v85h-8.5v2.9
		c0,6.2-5.1,11.3-11.3,11.3H79.7C73.5,708.9,68.4,703.8,68.4,697.5z"/>
	<path class="st0" d="M609,654H179.6c-23.4,0-42.5-19.1-42.5-42.5V483.7c0-23.4,19.1-42.5,42.5-42.5H609c23.4,0,42.5,19.1,42.5,42.5
		v127.7C651.6,634.8,632.4,654,609,654z"/>
	<rect x="361.2" y="682.3" class="st0" width="8.5" height="3.9"/>
	<path class="st0" d="M394.3,452.1c1.8,0,3.2,1.5,3.2,3.2c0,1.8-1.5,3.2-3.2,3.2s-3.2-1.5-3.2-3.2
		C391.1,453.5,392.6,452.1,394.3,452.1z"/>
	<path class="st0" d="M394.3,636.6c1.8,0,3.2,1.5,3.2,3.2c0,1.8-1.5,3.2-3.2,3.2s-3.2-1.5-3.2-3.2
		C391.1,638,392.6,636.6,394.3,636.6z"/>
	<path class="st0" d="M148.1,547.5c0-1.8,1.5-3.2,3.2-3.2c1.8,0,3.2,1.5,3.2,3.2c0,1.8-1.5,3.2-3.2,3.2S148.1,549.3,148.1,547.5z"/>
	<path class="st0" d="M634.2,547.5c0-1.8,1.5-3.2,3.2-3.2c1.8,0,3.2,1.5,3.2,3.2c0,1.8-1.5,3.2-3.2,3.2
		C635.6,550.7,634.2,549.3,634.2,547.5z"/>
	<rect x="465.5" y="686.4" class="st0" width="84.6" height="8.1"/>
	<rect x="649.8" y="686.4" class="st0" width="56.2" height="8.1"/>
	<rect x="82.7" y="686.4" class="st0" width="56.3" height="8.1"/>
	<rect x="238.7" y="686.4" class="st0" width="84.6" height="8.1"/>
	<rect x="465.5" y="372.2" class="st0" width="84.6" height="8.1"/>
	<rect x="649.8" y="372.2" class="st0" width="56.2" height="8.1"/>
	<rect x="82.7" y="372.2" class="st0" width="56.3" height="8.1"/>
	<rect x="238.7" y="372.2" class="st0" width="84.6" height="8.1"/>
	<rect x="465.5" y="66.5" class="st0" width="84.6" height="8.1"/>
	<rect x="649.8" y="66.5" class="st0" width="56.2" height="8.1"/>
	<rect x="82.7" y="66.5" class="st0" width="56.3" height="8.1"/>
	<rect x="238.7" y="66.5" class="st0" width="84.6" height="8.1"/>
	<rect x="361.4" y="380.7" class="st0" width="8.1" height="31.9"/>
</g>
<g id="This_side_up">
	<g>
		<path d="M410.8,393.2h-2.5v-0.9h6v0.9h-2.5v7.2h-1.1v-7.2H410.8z"/>
		<path d="M415.1,391.9h1.1v3.6l0,0c0.2-0.3,0.4-0.6,0.8-0.7c0.3-0.2,0.7-0.3,1.1-0.3c0.8,0,2,0.5,2,2.5v3.5H419v-3.3
			c0-0.9-0.3-1.7-1.3-1.7c-0.7,0-1.2,0.5-1.4,1.1c-0.1,0.1-0.1,0.3-0.1,0.5v3.5h-1.1V391.9z"/>
		<path d="M422.9,392.9c0,0.4-0.3,0.6-0.7,0.6c-0.4,0-0.6-0.3-0.6-0.6c0-0.4,0.3-0.7,0.7-0.7C422.6,392.3,422.9,392.6,422.9,392.9z
			 M421.7,400.4v-5.8h1.1v5.8H421.7z"/>
		<path d="M424.4,399.3c0.3,0.2,0.9,0.4,1.4,0.4c0.8,0,1.1-0.4,1.1-0.9s-0.3-0.8-1.1-1.1c-1-0.4-1.5-0.9-1.5-1.6
			c0-0.9,0.8-1.7,2-1.7c0.6,0,1.1,0.2,1.4,0.4l-0.3,0.8c-0.2-0.1-0.6-0.3-1.2-0.3s-1,0.4-1,0.8c0,0.5,0.3,0.7,1.1,1
			c1,0.4,1.5,0.9,1.5,1.8c0,1-0.8,1.7-2.2,1.7c-0.6,0-1.2-0.2-1.6-0.4L424.4,399.3z"/>
		<path d="M431.7,399.1c0.5,0.3,1.2,0.5,1.9,0.5c1.1,0,1.7-0.6,1.7-1.4s-0.4-1.2-1.5-1.6c-1.3-0.5-2.1-1.2-2.1-2.3
			c0-1.3,1-2.2,2.6-2.2c0.8,0,1.4,0.2,1.8,0.4l-0.3,0.9c-0.3-0.1-0.8-0.4-1.5-0.4c-1.1,0-1.5,0.7-1.5,1.2c0,0.8,0.5,1.1,1.6,1.6
			c1.4,0.5,2.1,1.2,2.1,2.4c0,1.2-0.9,2.3-2.8,2.3c-0.8,0-1.6-0.2-2.1-0.5L431.7,399.1z"/>
		<path d="M438.9,392.9c0,0.4-0.3,0.6-0.7,0.6c-0.4,0-0.6-0.3-0.6-0.6c0-0.4,0.3-0.7,0.7-0.7C438.7,392.3,438.9,392.6,438.9,392.9z
			 M437.7,400.4v-5.8h1.1v5.8H437.7z"/>
		<path d="M445.6,391.9v7c0,0.5,0,1.1,0,1.5h-0.9v-1l0,0c-0.3,0.6-1,1.1-2,1.1c-1.4,0-2.5-1.2-2.5-3c0-1.9,1.2-3.1,2.6-3.1
			c0.9,0,1.5,0.4,1.8,0.9l0,0v-3.5h1V391.9z M444.5,396.9c0-0.1,0-0.3,0-0.4c-0.2-0.7-0.7-1.2-1.5-1.2c-1.1,0-1.7,1-1.7,2.2
			s0.6,2.1,1.7,2.1c0.7,0,1.4-0.5,1.5-1.3c0-0.1,0-0.3,0-0.5V396.9z"/>
		<path d="M447.9,397.7c0,1.4,0.9,2,2,2c0.8,0,1.2-0.1,1.6-0.3l0.2,0.8c-0.4,0.2-1,0.4-1.9,0.4c-1.8,0-2.9-1.2-2.9-2.9
			s1-3.1,2.7-3.1c1.9,0,2.4,1.7,2.4,2.7c0,0.2,0,0.4,0,0.5h-4.1L447.9,397.7L447.9,397.7z M451,396.9c0-0.7-0.3-1.7-1.5-1.7
			c-1.1,0-1.5,1-1.6,1.7H451z"/>
		<path d="M457,392.3v4.8c0,1.8,0.8,2.6,1.9,2.6c1.2,0,2-0.8,2-2.6v-4.8h1.1v4.7c0,2.5-1.3,3.5-3.1,3.5c-1.7,0-2.9-0.9-2.9-3.5v-4.8
			L457,392.3L457,392.3z"/>
		<path d="M463.6,396.5c0-0.7,0-1.3,0-1.9h0.9v1l0,0c0.4-0.7,1.1-1.1,2.1-1.1c1.4,0,2.5,1.2,2.5,3c0,2.1-1.3,3.1-2.6,3.1
			c-0.8,0-1.4-0.3-1.8-0.9l0,0v3.2h-1v-6.4L463.6,396.5L463.6,396.5z M464.7,398c0,0.2,0,0.3,0,0.4c0.2,0.7,0.8,1.2,1.6,1.2
			c1.1,0,1.8-0.9,1.8-2.2c0-1.2-0.6-2.2-1.7-2.2c-0.7,0-1.4,0.5-1.6,1.3c0,0.1-0.1,0.3-0.1,0.4L464.7,398L464.7,398z"/>
	</g>
</g>
<path class="st1" d="M1239.8,265.2h-401c-15.6,0-28.3-12.8-28.3-28.3v-99.5c0-15.6,12.8-28.3,28.3-28.3h401
	c15.6,0,28.3,12.8,28.3,28.3v99.5C1268.1,252.4,1255.4,265.2,1239.8,265.2z"/>
<path class="st1" d="M1310.6,322H767.9c-7.8,0-14.2-6.4-14.2-14.2V66.6c0-7.8,6.4-14.2,14.2-14.2h542.7c7.8,0,14.2,6.4,14.2,14.2
	v241.2C1324.8,315.5,1318.4,322,1310.6,322z"/>
<path class="st1" d="M1039.3,91.6c1.8,0,3.2,1.4,3.2,3.2c0,1.8-1.4,3.2-3.2,3.2c-1.8,0-3.2-1.4-3.2-3.2
	C1036,93.1,1037.5,91.6,1039.3,91.6z"/>
<circle class="st1" cx="1039.3" cy="279.3" r="3.7"/>
<path class="st1" d="M792.5,187.1c0-2,1.6-3.7,3.7-3.7c2,0,3.7,1.6,3.7,3.7s-1.6,3.7-3.7,3.7C794.2,190.8,792.5,189.1,792.5,187.1z"
	/>
<path class="st1" d="M1278.6,187.1c0-2,1.6-3.7,3.7-3.7c2,0,3.7,1.6,3.7,3.7s-1.6,3.7-3.7,3.7S1278.6,189.1,1278.6,187.1z"/>
<circle class="st1" cx="1039.3" cy="279.3" r="3.2"/>
<path class="st1" d="M793,187.1c0-1.8,1.4-3.2,3.2-3.2s3.2,1.4,3.2,3.2s-1.4,3.2-3.2,3.2S793,188.8,793,187.1z"/>
<path class="st1" d="M1279.1,187.1c0-1.8,1.4-3.2,3.2-3.2c1.8,0,3.2,1.4,3.2,3.2s-1.4,3.2-3.2,3.2S1279.1,188.8,1279.1,187.1z"/>
<g id="LED_Strip">
	<path class="st2" d="M760.5,341.4h542.7c3.1,0,5.7,2.6,5.7,5.7v25c0,3.1-2.6,5.7-5.7,5.7H760.5c-3.1,0-5.7-2.6-5.7-5.7v-25
		C754.8,344,757.4,341.4,760.5,341.4z"/>
	<path class="st2" d="M1295.4,353.3c2.7,0,5,2.8,5,6.3s-2.2,6.3-5,6.3c-2.8,0-5-2.8-5-6.3S1292.6,353.3,1295.4,353.3z"/>
	<path class="st2" d="M1200.1,357.5c0.8,0,1.4,0.6,1.4,1.4s-0.6,1.4-1.4,1.4c-0.8,0-1.4-0.6-1.4-1.4
		C1198.6,358.2,1199.3,357.5,1200.1,357.5z"/>
	<path class="st2" d="M1232,357.5c0.8,0,1.4,0.6,1.4,1.4s-0.6,1.4-1.4,1.4c-0.8,0-1.4-0.6-1.4-1.4
		C1230.6,358.2,1231.3,357.5,1232,357.5z"/>
	<path class="st2" d="M1195,357.5c0.8,0,1.4,0.6,1.4,1.4s-0.6,1.4-1.4,1.4c-0.8,0-1.4-0.6-1.4-1.4
		C1193.5,358.2,1194.2,357.5,1195,357.5z"/>
	<path class="st2" d="M1188.5,357.5c0.8,0,1.4,0.6,1.4,1.4s-0.6,1.4-1.4,1.4c-0.8,0-1.4-0.6-1.4-1.4
		C1187,358.2,1187.7,357.5,1188.5,357.5z"/>
	<path class="st0" d="M1275,354.8c2.7,0,4.8,2.2,4.8,4.8c0,2.7-2.2,4.8-4.8,4.8c-2.7,0-4.8-2.2-4.8-4.8S1272.3,354.8,1275,354.8z"/>
	<path class="st0" d="M788.6,353.9c2.7,0,4.8,2.2,4.8,4.8c0,2.7-2.2,4.8-4.8,4.8c-2.7,0-4.8-2.2-4.8-4.8S785.9,353.9,788.6,353.9z"
		/>
	<path class="st2" d="M1128.1,357.5c0.8,0,1.4,0.6,1.4,1.4s-0.6,1.4-1.4,1.4c-0.8,0-1.4-0.6-1.4-1.4
		C1126.6,358.2,1127.3,357.5,1128.1,357.5z"/>
	<path class="st2" d="M1160,357.5c0.8,0,1.4,0.6,1.4,1.4s-0.6,1.4-1.4,1.4c-0.8,0-1.4-0.6-1.4-1.4
		C1158.6,358.2,1159.3,357.5,1160,357.5z"/>
	<path class="st2" d="M1123,357.5c0.8,0,1.4,0.6,1.4,1.4s-0.6,1.4-1.4,1.4c-0.8,0-1.4-0.6-1.4-1.4
		C1121.5,358.2,1122.2,357.5,1123,357.5z"/>
	<path class="st2" d="M1116.5,357.5c0.8,0,1.4,0.6,1.4,1.4s-0.6,1.4-1.4,1.4c-0.8,0-1.4-0.6-1.4-1.4
		C1115,358.2,1115.7,357.5,1116.5,357.5z"/>
	<path class="st2" d="M1056.1,357.5c0.8,0,1.4,0.6,1.4,1.4s-0.6,1.4-1.4,1.4c-0.8,0-1.4-0.6-1.4-1.4
		C1054.6,358.2,1055.3,357.5,1056.1,357.5z"/>
	<path class="st2" d="M1088,357.5c0.8,0,1.4,0.6,1.4,1.4s-0.6,1.4-1.4,1.4c-0.8,0-1.4-0.6-1.4-1.4
		C1086.6,358.2,1087.3,357.5,1088,357.5z"/>
	<path class="st2" d="M1051,357.5c0.8,0,1.4,0.6,1.4,1.4s-0.6,1.4-1.4,1.4c-0.8,0-1.4-0.6-1.4-1.4
		C1049.5,358.2,1050.2,357.5,1051,357.5z"/>
	<path class="st2" d="M1044.5,357.5c0.8,0,1.4,0.6,1.4,1.4s-0.6,1.4-1.4,1.4c-0.8,0-1.4-0.6-1.4-1.4
		C1043,358.2,1043.7,357.5,1044.5,357.5z"/>
	<path class="st2" d="M984.1,357.5c0.8,0,1.4,0.6,1.4,1.4s-0.6,1.4-1.4,1.4s-1.4-0.6-1.4-1.4C982.6,358.2,983.3,357.5,984.1,357.5z"
		/>
	<path class="st2" d="M1016,357.5c0.8,0,1.4,0.6,1.4,1.4s-0.6,1.4-1.4,1.4s-1.4-0.6-1.4-1.4C1014.6,358.2,1015.3,357.5,1016,357.5z"
		/>
	<path class="st2" d="M979,357.5c0.8,0,1.4,0.6,1.4,1.4s-0.6,1.4-1.4,1.4s-1.4-0.6-1.4-1.4C977.5,358.2,978.2,357.5,979,357.5z"/>
	<path class="st2" d="M972.5,357.5c0.8,0,1.4,0.6,1.4,1.4s-0.6,1.4-1.4,1.4s-1.4-0.6-1.4-1.4C971,358.2,971.7,357.5,972.5,357.5z"/>
	<path class="st2" d="M912.1,357.5c0.8,0,1.4,0.6,1.4,1.4s-0.6,1.4-1.4,1.4s-1.4-0.6-1.4-1.4C910.6,358.2,911.3,357.5,912.1,357.5z"
		/>
	<path class="st2" d="M944,357.5c0.8,0,1.4,0.6,1.4,1.4s-0.6,1.4-1.4,1.4s-1.4-0.6-1.4-1.4C942.6,358.2,943.3,357.5,944,357.5z"/>
	<path class="st2" d="M907,357.5c0.8,0,1.4,0.6,1.4,1.4s-0.6,1.4-1.4,1.4s-1.4-0.6-1.4-1.4C905.5,358.2,906.2,357.5,907,357.5z"/>
	<path class="st2" d="M900.5,357.5c0.8,0,1.4,0.6,1.4,1.4s-0.6,1.4-1.4,1.4s-1.4-0.6-1.4-1.4C899,358.2,899.7,357.5,900.5,357.5z"/>
	<path class="st2" d="M840.1,357.5c0.8,0,1.4,0.6,1.4,1.4s-0.6,1.4-1.4,1.4s-1.4-0.6-1.4-1.4C838.6,358.2,839.3,357.5,840.1,357.5z"
		/>
	<path class="st2" d="M872,357.5c0.8,0,1.4,0.6,1.4,1.4s-0.6,1.4-1.4,1.4s-1.4-0.6-1.4-1.4C870.6,358.2,871.3,357.5,872,357.5z"/>
	<path class="st2" d="M835,357.5c0.8,0,1.4,0.6,1.4,1.4s-0.6,1.4-1.4,1.4s-1.4-0.6-1.4-1.4C833.5,358.2,834.2,357.5,835,357.5z"/>
	<path class="st2" d="M828.5,357.5c0.8,0,1.4,0.6,1.4,1.4s-0.6,1.4-1.4,1.4s-1.4-0.6-1.4-1.4C827,358.2,827.7,357.5,828.5,357.5z"/>
</g>
</svg>
