<?xml version="1.0" encoding="utf-8"?>
<!-- Generator: Adobe Illustrator 23.0.1, SVG Export Plug-In . SVG Version: 6.00 Build 0)  -->
<svg version="1.1" id="Layer_1" xmlns="http://www.w3.org/2000/svg" xmlns:xlink="http://www.w3.org/1999/xlink" x="0px" y="0px"
	 viewBox="0 0 1404 792" style="enable-background:new 0 0 1404 792;" xml:space="preserve">
<style type="text/css">
	.st0{fill:none;stroke:#000000;stroke-width:0.1;stroke-miterlimit:22.9256;}
	.st1{fill:none;stroke:#000000;stroke-width:0.1;stroke-miterlimit:10;}
</style>
<polygon class="st0" points="688.1,735.7 36.1,735.7 27.6,735.7 27.6,664.8 36.1,664.8 36.1,608.1 27.6,608.1 27.6,551.4 
	36.1,551.4 36.1,494.7 27.6,494.7 27.6,438 36.1,438 36.1,381.3 27.6,381.3 27.6,324.6 27.6,268 27.6,211.3 27.6,154.6 36.1,154.6 
	36.1,97.9 27.6,97.9 27.6,41.2 36.1,41.2 36.1,49.7 121.1,49.7 121.1,41.2 206.2,41.2 206.2,49.7 291.2,49.7 291.2,41.2 432.9,41.2 
	432.9,49.7 518,49.7 518,41.2 603,41.2 603,49.7 688.1,49.7 688.1,41.2 696.6,41.2 696.6,97.9 688.1,97.9 688.1,154.6 696.6,154.6 
	696.6,211.3 696.6,268 696.6,324.6 696.6,381.3 688.1,381.3 688.1,438 696.6,438 696.6,494.7 688.1,494.7 688.1,551.4 696.6,551.4 
	696.6,608.1 688.1,608.1 688.1,664.8 696.6,664.8 696.6,735.7 "/>
<rect x="603" y="186.5" class="st0" width="85" height="18"/>
<rect x="36.1" y="186.5" class="st0" width="85" height="18"/>
<rect x="206.2" y="186.5" class="st0" width="85" height="18"/>
<rect x="433" y="186.5" class="st0" width="85" height="18"/>
<ellipse class="st0" cx="65.8" cy="165.2" rx="9.9" ry="9.9"/>
<path class="st0" d="M126,328.3h489.8c3.1,0,5.7,2.6,5.7,5.7v274.4c0,3.1-2.6,5.7-5.7,5.7H126c-3.1,0-5.7-2.6-5.7-5.7V334
	C120.3,330.9,122.8,328.3,126,328.3z"/>
<path class="st0" d="M625.9,279.3l-43-43c-1.9-1.9-4.9-1.9-6.8,0c-1.9,1.9-1.9,4.9,0,6.8l43,43c1.9,1.9,4.9,1.9,6.8,0
	C627.8,284.3,627.8,281.2,625.9,279.3z"/>
<path class="st0" d="M634.3,266l-38-38c-1.9-1.9-4.9-1.9-6.8,0c-1.9,1.9-1.9,4.9,0,6.8l38,38c1.9,1.9,4.9,1.9,6.8,0
	C636.1,271,636.1,267.9,634.3,266z"/>
<path class="st0" d="M634.2,244.4l-16.1-16.2c-1.9-1.9-4.9-1.9-6.8,0c-1.9,1.9-1.9,4.9,0,6.8l16.1,16.1c1.9,1.9,4.9,1.9,6.8,0
	C636.1,249.3,636.1,246.2,634.2,244.4z"/>
<path class="st0" d="M612.4,287.5l-38-38c-1.9-1.9-4.9-1.9-6.8,0c-1.9,1.9-1.9,4.9,0,6.8l38,38c1.9,1.9,4.9,1.9,6.8,0
	S614.3,289.3,612.4,287.5z"/>
<path class="st0" d="M590.6,287.3l-16.1-16.1c-1.9-1.9-4.9-1.9-6.8,0c-1.9,1.9-1.9,4.9,0,6.8l16.1,16.1c1.9,1.9,4.9,1.9,6.8,0
	C592.5,292.3,592.5,289.2,590.6,287.3z"/>
<path class="st0" d="M98.2,279.3l43-43c1.9-1.9,4.9-1.9,6.8,0c1.9,1.9,1.9,4.9,0,6.8l-43,43c-1.9,1.9-4.9,1.9-6.8,0
	C96.4,284.3,96.4,281.2,98.2,279.3z"/>
<path class="st0" d="M89.9,266l38-38c1.9-1.9,4.9-1.9,6.8,0c1.9,1.9,1.9,4.9,0,6.8l-38,38c-1.9,1.9-4.9,1.9-6.8,0
	C88,271,88,267.9,89.9,266z"/>
<path class="st0" d="M89.9,244.4l16.1-16.1c1.9-1.9,4.9-1.9,6.8,0c1.9,1.9,1.9,4.9,0,6.8l-16.1,16.1c-1.9,1.9-4.9,1.9-6.8,0
	C88.1,249.3,88.1,246.2,89.9,244.4z"/>
<path class="st0" d="M111.8,287.5l38-38c1.9-1.9,4.9-1.9,6.8,0c1.9,1.9,1.9,4.9,0,6.8l-38,38c-1.9,1.9-4.9,1.9-6.8,0
	S109.9,289.3,111.8,287.5z"/>
<path class="st0" d="M133.5,287.3l16.1-16.1c1.9-1.9,4.9-1.9,6.8,0c1.9,1.9,1.9,4.9,0,6.8l-16.1,16.1c-1.9,1.9-4.9,1.9-6.8,0
	C131.7,292.3,131.7,289.2,133.5,287.3z"/>
<ellipse transform="matrix(2.497574e-02 -0.9997 0.9997 2.497574e-02 476.8651 819.1469)" class="st0" cx="658.4" cy="165.1" rx="9.9" ry="9.9"/>
<rect x="386.8" y="627.6" class="st0" width="8.5" height="56.7"/>
<circle class="st1" cx="167.1" cy="238.5" r="3.2"/>
<circle class="st1" cx="167.1" cy="283.9" r="3.2"/>
<circle class="st1" cx="79.2" cy="283.9" r="3.2"/>
<circle class="st1" cx="79.2" cy="238.5" r="3.2"/>
<circle class="st1" cx="644.9" cy="238.5" r="3.2"/>
<circle class="st1" cx="644.9" cy="283.9" r="3.2"/>
<circle class="st1" cx="557.1" cy="283.9" r="3.2"/>
<circle class="st1" cx="557.1" cy="238.5" r="3.2"/>
<g id="Layer_3">
	<path class="st0" d="M600.1,108.5c2.7,0,4.8,2.2,4.8,4.8c0,2.7-2.2,4.8-4.8,4.8c-2.7,0-4.8-2.2-4.8-4.8S597.4,108.5,600.1,108.5z"
		/>
	<path class="st0" d="M113.7,107.6c2.7,0,4.8,2.2,4.8,4.8c0,2.7-2.2,4.8-4.8,4.8c-2.7,0-4.8-2.2-4.8-4.8S111,107.6,113.7,107.6z"/>
</g>
<polygon class="st0" points="1367.2,735.7 715.2,735.7 706.7,735.7 706.7,664.8 715.2,664.8 715.2,608.1 706.7,608.1 706.7,551.4 
	715.2,551.4 715.2,494.7 706.7,494.7 706.7,438 715.2,438 715.2,381.3 706.7,381.3 706.7,324.6 706.7,267.9 706.7,211.3 
	706.7,154.6 715.2,154.6 715.2,97.9 706.7,97.9 706.7,41.2 715.2,41.2 715.2,49.7 800.3,49.7 800.3,41.2 885.3,41.2 885.3,49.7 
	970.3,49.7 970.3,41.2 1112.1,41.2 1112.1,49.7 1197.1,49.7 1197.1,41.2 1282.2,41.2 1282.2,49.7 1367.2,49.7 1367.2,41.2 
	1375.7,41.2 1375.7,97.9 1367.2,97.9 1367.2,154.6 1375.7,154.6 1375.7,211.3 1375.7,267.9 1375.7,324.6 1375.7,381.3 1367.2,381.3 
	1367.2,438 1375.7,438 1375.7,494.7 1367.2,494.7 1367.2,551.4 1375.7,551.4 1375.7,608.1 1367.2,608.1 1367.2,664.8 1375.7,664.8 
	1375.7,735.7 "/>
<rect x="1282.2" y="186.5" class="st0" width="85" height="18"/>
<rect x="715.2" y="186.5" class="st0" width="85" height="18"/>
<rect x="885.3" y="186.5" class="st0" width="85" height="18"/>
<rect x="1112.1" y="186.5" class="st0" width="85" height="18"/>
<path class="st0" d="M744.9,155.3c-5.5,0-9.9,4.4-9.9,9.9s4.4,9.9,9.9,9.9s9.9-4.4,9.9-9.9C754.9,159.7,750.4,155.3,744.9,155.3z"/>
<path class="st0" d="M805.1,328.3h489.8c3.1,0,5.7,2.6,5.7,5.7v274.4c0,3.1-2.6,5.7-5.7,5.7H805.1c-3.1,0-5.7-2.6-5.7-5.7V334
	C799.4,330.9,802,328.3,805.1,328.3z"/>
<path class="st0" d="M1305.1,279.3l-43-43c-1.9-1.9-4.9-1.9-6.8,0s-1.9,4.9,0,6.8l43,43c1.9,1.9,4.9,1.9,6.8,0
	C1306.9,284.3,1306.9,281.2,1305.1,279.3z"/>
<path class="st0" d="M1313.4,266l-38-38c-1.9-1.9-4.9-1.9-6.8,0c-1.9,1.9-1.9,4.9,0,6.8l38,38c1.9,1.9,4.9,1.9,6.8,0
	C1315.3,271,1315.3,267.9,1313.4,266z"/>
<path class="st0" d="M1313.4,244.3l-16.1-16.1c-1.9-1.9-4.9-1.9-6.8,0c-1.9,1.9-1.9,4.9,0,6.8l16.1,16.1c1.9,1.9,4.9,1.9,6.8,0
	C1315.2,249.3,1315.2,246.2,1313.4,244.3z"/>
<path class="st0" d="M1291.5,287.5l-38-38c-1.9-1.9-4.9-1.9-6.8,0c-1.9,1.9-1.9,4.9,0,6.8l38,38c1.9,1.9,4.9,1.9,6.8,0
	C1293.4,292.4,1293.4,289.3,1291.5,287.5z"/>
<path class="st0" d="M1269.7,287.3l-16.1-16.1c-1.9-1.9-4.9-1.9-6.8,0s-1.9,4.9,0,6.8l16.1,16.1c1.9,1.9,4.9,1.9,6.8,0
	C1271.6,292.3,1271.6,289.2,1269.7,287.3z"/>
<path class="st0" d="M777.4,279.3l43-43c1.9-1.9,4.9-1.9,6.8,0s1.9,4.9,0,6.8l-43,43c-1.9,1.9-4.9,1.9-6.8,0
	C775.5,284.3,775.5,281.2,777.4,279.3z"/>
<path class="st0" d="M769,266l38-38c1.9-1.9,4.9-1.9,6.8,0c1.9,1.9,1.9,4.9,0,6.8l-38,38c-1.9,1.9-4.9,1.9-6.8,0
	C767.1,271,767.1,267.9,769,266z"/>
<path class="st0" d="M769.1,244.3l16.1-16.1c1.9-1.9,4.9-1.9,6.8,0c1.9,1.9,1.9,4.9,0,6.8l-16.1,16.1c-1.9,1.9-4.9,1.9-6.8,0
	C767.2,249.3,767.2,246.2,769.1,244.3z"/>
<path class="st0" d="M790.9,287.5l38-38c1.9-1.9,4.9-1.9,6.8,0s1.9,4.9,0,6.8l-38,38c-1.9,1.9-4.9,1.9-6.8,0S789,289.3,790.9,287.5z
	"/>
<path class="st0" d="M812.7,287.3l16.1-16.1c1.9-1.9,4.9-1.9,6.8,0c1.9,1.9,1.9,4.9,0,6.8l-16.1,16.1c-1.9,1.9-4.9,1.9-6.8,0
	C810.8,292.3,810.8,289.2,812.7,287.3z"/>
<path class="st0" d="M1337.5,155.3c5.5,0,9.9,4.4,9.9,9.9s-4.4,9.9-9.9,9.9s-9.9-4.4-9.9-9.9S1332,155.3,1337.5,155.3z"/>
<circle class="st1" cx="846.2" cy="238.5" r="3.2"/>
<circle class="st1" cx="846.2" cy="283.9" r="3.2"/>
<circle class="st1" cx="758.3" cy="283.9" r="3.2"/>
<circle class="st1" cx="758.3" cy="238.5" r="3.2"/>
<circle class="st1" cx="1324" cy="238.5" r="3.2"/>
<circle class="st1" cx="1324" cy="283.9" r="3.2"/>
<circle class="st1" cx="1236.2" cy="283.9" r="3.2"/>
<circle class="st1" cx="1236.2" cy="238.5" r="3.2"/>
<path class="st1" d="M1394.7,675.6"/>
<g id="Layer_3_1_">
	<path class="st0" d="M1279.2,108.5c2.7,0,4.8,2.2,4.8,4.8c0,2.7-2.2,4.8-4.8,4.8c-2.7,0-4.8-2.2-4.8-4.8S1276.5,108.5,1279.2,108.5
		z"/>
	<path class="st0" d="M792.8,107.6c2.7,0,4.8,2.2,4.8,4.8c0,2.7-2.2,4.8-4.8,4.8c-2.7,0-4.8-2.2-4.8-4.8S790.1,107.6,792.8,107.6z"
		/>
</g>
</svg>
