<?xml version="1.0" encoding="utf-8"?>
<!-- Generator: Adobe Illustrator 23.0.1, SVG Export Plug-In . SVG Version: 6.00 Build 0)  -->
<svg version="1.1" id="Layer_1" xmlns="http://www.w3.org/2000/svg" xmlns:xlink="http://www.w3.org/1999/xlink" x="0px" y="0px"
	 viewBox="0 0 1404 792" style="enable-background:new 0 0 1404 792;" xml:space="preserve">
<style type="text/css">
	.st0{fill:none;stroke:#000000;stroke-width:0.1;stroke-miterlimit:22.9256;}
	.st1{fill:none;stroke:#231F20;stroke-width:0.1;stroke-miterlimit:22.9256;}
</style>
<path class="st0" d="M202.4,87.9h278.5c3.1,0,5.7,2.6,5.7,5.7v265.9c0,3.1-2.6,5.7-5.7,5.7H202.4c-3.1,0-5.7-2.6-5.7-5.7v-266
	C196.7,90.4,199.2,87.9,202.4,87.9z"/>
<path class="st0" d="M53.3,43.7h14.2c9.1,12,28.6,25.2,51.3,25.2s42.2-13.3,51.3-25.2h375.3c9.1,12,28.6,25.2,51.3,25.2
	s42.2-13.3,51.3-25.2h11.3V400H390.8v-21.4h-8.5V400h-329V43.7z"/>
<path class="st0" d="M172.6,112L172.6,112c3.1,0,5.7,2.6,5.7,5.7v8.5c0,3.1-2.6,5.7-5.7,5.7l0,0c-3.1,0-5.7-2.6-5.7-5.7v-8.5
	C167,114.6,169.5,112,172.6,112z"/>
<path class="st0" d="M533.2,112L533.2,112c3.1,0,5.7,2.6,5.7,5.7v8.5c0,3.1-2.6,5.7-5.7,5.7l0,0c-3.1,0-5.7-2.6-5.7-5.7v-8.5
	C527.6,114.6,530.1,112,533.2,112z"/>
<path class="st0" d="M173,298.5L173,298.5c3.1,0,5.7,2.6,5.7,5.7v8.5c0,3.1-2.6,5.7-5.7,5.7l0,0c-3.1,0-5.7-2.6-5.7-5.7v-8.5
	C167.3,301.1,169.9,298.5,173,298.5z"/>
<path class="st0" d="M533.6,298.5L533.6,298.5c3.1,0,5.7,2.6,5.7,5.7v8.5c0,3.1-2.6,5.7-5.7,5.7l0,0c-3.1,0-5.7-2.6-5.7-5.7v-8.5
	C527.9,301.1,530.5,298.5,533.6,298.5z"/>
<path class="st0" d="M659.1,400l0.1,356.3l0,0H645c-9.1-12-28.6-25.2-51.3-25.2c-22.6,0-42.2,13.3-51.3,25.2H167.2
	c-9.1-12-28.6-25.2-51.3-25.2s-42.2,13.3-51.3,25.2H53.3V400"/>
<path class="st0" d="M321.6,400v21.4h8.5V400"/>
<path class="st0" d="M591,720.7H128.1c-3.1,0-5.7-2.6-5.7-5.7V440.6c0-3.1,2.6-5.7,5.7-5.7H591c3.1,0,5.7,2.6,5.7,5.7V715
	C596.7,718.1,594.1,720.7,591,720.7z"/>
<polygon class="st1" points="1343.5,268.5 1343.5,231.6 1352,231.6 1352,189.1 1343.5,189.1 1343.5,180.6 1343.5,172.1 
	1258.5,172.1 1258.5,180.6 1258.5,189.1 1173.5,189.1 1173.5,180.6 1173.5,172.1 1088.4,172.1 1088.4,180.6 1088.4,189.1 
	946.7,189.1 946.7,180.6 946.7,172.1 861.7,172.1 861.7,180.6 861.7,189.1 776.6,189.1 776.6,180.6 776.6,172.1 691.6,172.1 
	691.6,180.6 691.6,189.1 683.1,189.1 683.1,231.6 691.6,231.6 691.6,268.5 683.1,268.5 683.1,311 691.6,311 1343.5,311 1352,311 
	1352,268.5 "/>
<polyline class="st1" points="1344.1,172.1 1352.6,172.1 1352.6,129.6 1344.1,129.6 1344.1,92.7 1352.6,92.7 1352.6,50.2 
	1344.1,50.2 1344.1,41.7 1344.1,33.2 1259.1,33.2 1259.1,41.7 1259.1,50.2 1174.1,50.2 1174.1,41.7 1174.1,33.2 1089,33.2 
	1089,41.7 1089,50.2 947.3,50.2 947.3,41.7 947.3,33.2 862.3,33.2 862.3,41.7 862.3,50.2 777.2,50.2 777.2,41.7 777.2,33.2 
	692.2,33.2 692.2,41.7 692.2,50.2 683.7,50.2 683.7,92.7 692.2,92.7 692.2,129.6 683.7,129.6 683.7,172.1 692.2,172.1 "/>
<polyline class="st1" points="691.6,311 691.6,319.5 683.1,319.5 683.1,362 691.6,362 691.6,398.9 683.1,398.9 683.1,441.4 
	691.6,441.4 691.6,449.9 691.6,458.4 776.6,458.4 776.6,449.9 776.6,441.4 861.7,441.4 861.7,449.9 861.7,458.4 946.7,458.4 
	946.7,449.9 946.7,441.4 1088.4,441.4 1088.4,449.9 1088.4,458.4 1173.5,458.4 1173.5,449.9 1173.5,441.4 1258.5,441.4 
	1258.5,449.9 1258.5,458.4 1343.5,458.4 1343.5,449.9 1343.5,441.4 1352,441.4 1352,398.9 1343.5,398.9 1343.5,362 1352,362 
	1352,319.5 1343.5,319.5 1343.5,311 "/>
<path class="st1" d="M861.7,458.4v8.5h-99.2v-8.5"/>
<path class="st1" d="M1088.5,458.4v8.5H946.7v-8.5"/>
<path class="st1" d="M1272.7,458.4v8.5h-99.2v-8.5"/>
<path class="st1" d="M705.8,458.4v8.5h-22.7v42.5h8.5v21.3h-8.5v42.5h8.5v21.3h-8.5V637h8.5h35.1c53.8-17.3,163.9-29.1,290.9-29.1
	s237.1,11.9,290.9,29.1h35.1h8.5v-42.5h-8.5v-21.3h8.5v-42.5h-8.5v-21.3h8.5v-42.5h-22.7v-8.5"/>
<circle class="st1" cx="1231.9" cy="539" r="46.5"/>
<ellipse class="st1" cx="803.3" cy="539" rx="46.5" ry="46.5"/>
<rect x="1042.5" y="530.9" class="st1" width="8.1" height="42"/>
<line class="st1" x1="776.6" y1="172.1" x2="861.7" y2="172.1"/>
<line class="st1" x1="946.7" y1="172.1" x2="1088.4" y2="172.1"/>
<line class="st1" x1="1173.5" y1="172.1" x2="1258.5" y2="172.1"/>
</svg>
