<?xml version="1.0" encoding="utf-8"?>
<!-- Generator: Adobe Illustrator 23.0.1, SVG Export Plug-In . SVG Version: 6.00 Build 0)  -->
<svg version="1.1" id="Layer_1" xmlns="http://www.w3.org/2000/svg" xmlns:xlink="http://www.w3.org/1999/xlink" x="0px" y="0px"
	 viewBox="0 0 1404 792" style="enable-background:new 0 0 1404 792;" xml:space="preserve">
<style type="text/css">
	.st0{fill:none;stroke:#000000;stroke-width:0.1;stroke-miterlimit:22.9256;}
	.st1{fill:none;stroke:#ED1C24;stroke-width:0.1;stroke-miterlimit:10;}
	.st2{fill:none;stroke:#00AEEF;stroke-width:0.1;stroke-miterlimit:10;}
	.st3{fill:#00AEEF;}
	.st4{fill:none;stroke:#000000;stroke-width:0.1;stroke-linecap:round;stroke-linejoin:round;stroke-miterlimit:10;}
</style>
<path class="st0" d="M106.9,85h394c15.6,0,28.3,12.8,28.3,28.3v395.4c0,15.6-12.8,28.3-28.3,28.3h-394c-15.6,0-28.3-12.8-28.3-28.3
	V113.3C78.6,97.8,91.3,85,106.9,85z"/>
<path class="st0" d="M36.1,28.3h535.7c7.8,0,14.2,6.4,14.2,14.2v537.1c0,7.8-6.4,14.2-14.2,14.2H36.1c-7.8,0-14.2-6.4-14.2-14.2
	V42.5C21.9,34.7,28.3,28.3,36.1,28.3z"/>
<circle class="st0" cx="75.8" cy="82.2" r="3.2"/>
<circle class="st0" cx="532.1" cy="82.2" r="3.2"/>
<circle class="st0" cx="75.8" cy="539.9" r="3.2"/>
<circle class="st0" cx="532.1" cy="539.9" r="3.2"/>
<path class="st0" d="M230.2,295.3h24.9c7.8,0,14.2,6.4,14.2,14.2v123.2c0,7.8-6.4,14.2-14.2,14.2h-24.9c-7.8,0-14.2-6.4-14.2-14.2
	V309.5C216.1,301.7,222.5,295.3,230.2,295.3z"/>
<path class="st0" d="M314.8,295.3h24.9c7.8,0,14.2,6.4,14.2,14.2v123.2c0,7.8-6.4,14.2-14.2,14.2h-24.9c-7.8,0-14.2-6.4-14.2-14.2
	V309.5C300.6,301.7,307,295.3,314.8,295.3z"/>
<polyline class="st0" points="139.6,324.5 139.6,278.8 193.2,274.1 192.3,265.5 305.6,255.7 306.5,264.2 385.3,257.3 385.3,257.3 
	385.3,257.3 399.2,247.5 420.9,200.2 413.2,196.6 437.2,145.2 442.1,147.5 444.9,148.8 445.3,148.6 445.3,366 453.8,366 
	453.8,408.5 445.3,408.5 445.3,472.3 445.3,480.8 413.1,480.8 413.1,472.3 413.1,463.8 356.4,463.8 356.4,472.3 339.7,472.3 
	200.2,472.3 200.2,463.8 143.5,463.8 143.5,472.3 143.5,480.8 139.6,480.8 139.6,472.3 139.6,375.5 "/>
<polygon class="st0" points="774.2,688.8 748.7,688.8 748.7,697.3 706.2,697.3 706.2,688.8 680.7,688.8 680.7,697.3 595.6,697.3 
	595.6,688.8 595.6,36.8 595.6,28.3 680.7,28.3 680.7,36.8 706.2,36.8 706.2,28.3 748.7,28.3 748.7,36.8 774.2,36.8 774.2,28.3 
	816.8,28.3 816.8,36.8 816.8,688.8 816.8,697.3 774.2,697.3 "/>
<path class="st0" d="M651.9,164.4v-102c0-3.1,2.6-5.7,5.7-5.7c3.1,0,5.7,2.6,5.7,5.7v102c0,3.1-2.6,5.7-5.7,5.7
	C654.4,170.1,651.9,167.5,651.9,164.4z"/>
<path class="st0" d="M651.9,289.1v-102c0-3.1,2.6-5.7,5.7-5.7c3.1,0,5.7,2.6,5.7,5.7v102c0,3.1-2.6,5.7-5.7,5.7
	C654.4,294.8,651.9,292.2,651.9,289.1z"/>
<path class="st0" d="M651.9,413.8v-102c0-3.1,2.6-5.7,5.7-5.7c3.1,0,5.7,2.6,5.7,5.7v102c0,3.1-2.6,5.7-5.7,5.7
	C654.4,419.5,651.9,417,651.9,413.8z"/>
<path class="st0" d="M1004.9,1212.2v-102c0-3.1,2.6-5.7,5.7-5.7c3.1,0,5.7,2.6,5.7,5.7v102c0,3.1-2.6,5.7-5.7,5.7
	C1007.4,1217.8,1004.9,1215.3,1004.9,1212.2z"/>
<path class="st0" d="M1004.9,1336.9v-102c0-3.1,2.6-5.7,5.7-5.7c3.1,0,5.7,2.6,5.7,5.7v102c0,3.1-2.6,5.7-5.7,5.7
	C1007.4,1342.6,1004.9,1340,1004.9,1336.9z"/>
<path class="st0" d="M629.2,102V62.3c0-3.1,2.6-5.7,5.7-5.7s5.7,2.6,5.7,5.7V102c0,3.1-2.6,5.7-5.7,5.7S629.2,105.1,629.2,102z"/>
<path class="st0" d="M629.2,226.8v-102c0-3.1,2.6-5.7,5.7-5.7s5.7,2.6,5.7,5.7v102c0,3.1-2.6,5.7-5.7,5.7S629.2,229.9,629.2,226.8z"
	/>
<path class="st0" d="M629.2,351.5v-102c0-3.1,2.6-5.7,5.7-5.7s5.7,2.6,5.7,5.7v102c0,3.1-2.6,5.7-5.7,5.7S629.2,354.6,629.2,351.5z"
	/>
<path class="st0" d="M629.2,476.2v-102c0-3.1,2.6-5.7,5.7-5.7s5.7,2.6,5.7,5.7v102c0,3.1-2.6,5.7-5.7,5.7S629.2,479.3,629.2,476.2z"
	/>
<path class="st0" d="M982.2,1274.5v-102c0-3.1,2.6-5.7,5.7-5.7s5.7,2.6,5.7,5.7v102c0,3.1-2.6,5.7-5.7,5.7
	S982.2,1277.6,982.2,1274.5z"/>
<path class="st0" d="M982.2,1336.9v-39.7c0-3.1,2.6-5.7,5.7-5.7s5.7,2.6,5.7,5.7v39.7c0,3.1-2.6,5.7-5.7,5.7
	S982.2,1340,982.2,1336.9z"/>
<path class="st0" d="M606.5,164.4v-102c0-3.1,2.6-5.7,5.7-5.7s5.7,2.6,5.7,5.7v102c0,3.1-2.6,5.7-5.7,5.7S606.5,167.5,606.5,164.4z"
	/>
<path class="st0" d="M606.5,289.1v-102c0-3.1,2.6-5.7,5.7-5.7s5.7,2.6,5.7,5.7v102c0,3.1-2.6,5.7-5.7,5.7S606.5,292.2,606.5,289.1z"
	/>
<path class="st0" d="M606.5,413.8v-102c0-3.1,2.6-5.7,5.7-5.7s5.7,2.6,5.7,5.7v102c0,3.1-2.6,5.7-5.7,5.7S606.5,417,606.5,413.8z"/>
<path class="st0" d="M959.5,1212.2v-102c0-3.1,2.6-5.7,5.7-5.7s5.7,2.6,5.7,5.7v102c0,3.1-2.6,5.7-5.7,5.7
	S959.5,1215.3,959.5,1212.2z"/>
<path class="st0" d="M959.5,1336.9v-102c0-3.1,2.6-5.7,5.7-5.7s5.7,2.6,5.7,5.7v102c0,3.1-2.6,5.7-5.7,5.7S959.5,1340,959.5,1336.9z
	"/>
<line class="st0" x1="139.6" y1="324.4" x2="130.8" y2="324.4"/>
<line class="st0" x1="130.8" y1="375.5" x2="139.6" y2="375.5"/>
<line class="st0" x1="130.8" y1="324.4" x2="130.8" y2="375.5"/>
<g id="Labels_-_Score">
	<line class="st1" x1="992.5" y1="447.4" x2="1176.1" y2="447.4"/>
	<line class="st1" x1="1181.9" y1="315.2" x2="1181.9" y2="441.6"/>
	<line class="st1" x1="987.3" y1="311.4" x2="1178.1" y2="311.4"/>
	<line class="st1" x1="983.5" y1="441.6" x2="983.5" y2="315.2"/>
	<g>
		<g>
			<line class="st2" x1="1212.1" y1="174.3" x2="1212.1" y2="255.1"/>
			<g>
				<path class="st3" d="M1215.6,174.9c-1.5-0.9-2.6-2.2-3.5-3.7c-0.9,1.5-2.1,2.8-3.5,3.7v0.9c1.4-0.9,2.6-2,3.5-3.4
					c0.9,1.4,2.2,2.5,3.5,3.4V174.9z"/>
				<path class="st3" d="M1215.6,176.9c-1.5-0.9-2.6-2.2-3.5-3.7c-0.9,1.5-2.1,2.8-3.5,3.7v0.9c1.4-0.9,2.6-2,3.5-3.4
					c0.9,1.4,2.2,2.5,3.5,3.4V176.9z"/>
			</g>
		</g>
	</g>
	<g>
		<g>
			<line class="st2" x1="1192.7" y1="459.6" x2="1210.6" y2="486.2"/>
			<g>
				<path class="st3" d="M1196,458.1c-1.7,0.1-3.4-0.4-5-1.1c0.1,1.7-0.2,3.5-0.9,5l0.5,0.7c0.7-1.5,1-3.1,1-4.8
					c1.5,0.6,3.2,0.9,4.8,0.8L1196,458.1z"/>
				<path class="st3" d="M1197.1,459.9c-1.7,0.1-3.4-0.4-5-1.1c0.1,1.7-0.2,3.5-0.9,5l0.5,0.7c0.7-1.5,1-3.1,1-4.8
					c1.5,0.6,3.2,0.9,4.8,0.8L1197.1,459.9z"/>
			</g>
		</g>
	</g>
	<g>
		<g>
			<line class="st2" x1="1071.6" y1="472.4" x2="1011.3" y2="501.4"/>
			<g>
				<path class="st3" d="M1072.6,475.9c0.1-1.7,0.9-3.3,1.8-4.8c-1.7-0.2-3.4-0.7-4.9-1.6l-0.8,0.4c1.4,0.9,3,1.5,4.6,1.7
					c-0.8,1.4-1.3,3-1.5,4.7L1072.6,475.9z"/>
				<path class="st3" d="M1070.8,476.7c0.1-1.7,0.9-3.3,1.8-4.8c-1.7-0.2-3.4-0.7-4.9-1.6l-0.8,0.4c1.4,0.9,3,1.5,4.6,1.7
					c-0.8,1.4-1.3,3-1.5,4.7L1070.8,476.7z"/>
			</g>
		</g>
	</g>
</g>
<g id="Labels_-_Engrave">
	<g>
		<path class="st3" d="M980.4,496.9c0.5-0.1,1.2-0.2,2-0.2c1,0,1.8,0.2,2.3,0.7c0.4,0.4,0.7,1,0.7,1.7s-0.2,1.3-0.6,1.7
			c-0.6,0.6-1.5,0.9-2.5,0.9c-0.3,0-0.6,0-0.8-0.1v3.2h-1L980.4,496.9L980.4,496.9L980.4,496.9z M981.5,500.7
			c0.2,0.1,0.5,0.1,0.9,0.1c1.3,0,2-0.6,2-1.7c0-1.1-0.8-1.6-1.9-1.6c-0.5,0-0.8,0-1,0.1V500.7z"/>
		<path class="st3" d="M987.9,496.7v8.1h-1v-8.1H987.9z"/>
		<path class="st3" d="M994.1,504.9l-1-1.8c-0.4-0.7-0.7-1.1-0.9-1.6l0,0c-0.2,0.5-0.5,0.9-0.9,1.6l-1,1.8h-1.2l2.5-4.1l-2.4-4h1.2
			l1.1,1.9c0.3,0.5,0.5,0.9,0.7,1.4l0,0c0.2-0.5,0.4-0.9,0.7-1.4l1.1-1.9h1.2l-2.5,3.9l2.5,4.1L994.1,504.9L994.1,504.9z"/>
		<path class="st3" d="M1000.7,501.1h-3.1v2.9h3.5v0.9h-4.5v-8.1h4.4v0.9h-3.3v2.6h3.1v0.8L1000.7,501.1L1000.7,501.1z"/>
		<path class="st3" d="M1002.4,496.7h1v7.2h3.5v0.9h-4.5V496.7z"/>
		<path class="st3" d="M985.2,511.1v4.8c0,1.8,0.8,2.6,1.9,2.6c1.2,0,2-0.8,2-2.6v-4.8h1.1v4.7c0,2.5-1.3,3.5-3.1,3.5
			c-1.7,0-2.9-0.9-2.9-3.5v-4.7H985.2z"/>
		<path class="st3" d="M991.8,518c0.5,0.3,1.2,0.5,1.9,0.5c1.1,0,1.7-0.6,1.7-1.4c0-0.8-0.4-1.2-1.5-1.6c-1.3-0.5-2.1-1.2-2.1-2.3
			c0-1.3,1-2.2,2.6-2.2c0.8,0,1.4,0.2,1.8,0.4l-0.3,0.9c-0.3-0.1-0.8-0.4-1.5-0.4c-1.1,0-1.5,0.7-1.5,1.2c0,0.8,0.5,1.1,1.6,1.6
			c1.4,0.5,2.1,1.2,2.1,2.4s-0.9,2.3-2.8,2.3c-0.8,0-1.6-0.2-2.1-0.5L991.8,518z"/>
		<path class="st3" d="M997.9,511.2c0.5-0.1,1.2-0.2,1.9-0.2c1,0,1.7,0.2,2.2,0.6c0.4,0.3,0.7,0.8,0.7,1.4c0,0.8-0.5,1.5-1.4,1.8
			l0,0c0.8,0.2,1.7,0.8,1.7,2c0,0.7-0.3,1.2-0.7,1.6c-0.6,0.5-1.5,0.8-2.8,0.8c-0.7,0-1.3,0-1.6-0.1V511.2L997.9,511.2z
			 M998.9,514.6h0.9c1.1,0,1.8-0.6,1.8-1.4c0-0.9-0.7-1.3-1.8-1.3c-0.5,0-0.8,0-0.9,0.1V514.6z M998.9,518.5c0.2,0,0.5,0,0.9,0
			c1.1,0,2.1-0.4,2.1-1.6c0-1.1-0.9-1.6-2.1-1.6h-0.9V518.5z"/>
	</g>
	<g>
		<path class="st3" d="M1029.5,381.1c-0.1-1.1-0.1-2.5-0.1-3.5l0,0c-0.3,0.9-0.6,2-1,3.1l-1.4,3.9h-0.9l-1.3-3.8
			c-0.4-1.1-0.7-2.2-0.9-3.1l0,0c0,1-0.1,2.4-0.2,3.6l-0.2,3.5h-1l0.6-8.1h1.3l1.4,3.9c0.3,1,0.6,1.9,0.8,2.7l0,0
			c0.2-0.8,0.5-1.7,0.9-2.7l1.4-3.9h1.3l0.5,8.1h-1L1029.5,381.1z"/>
		<path class="st3" d="M1037.6,381.7c0,2.1-1.5,3.1-2.9,3.1c-1.6,0-2.8-1.2-2.8-3c0-1.9,1.3-3.1,2.9-3.1
			C1036.5,378.7,1037.6,379.9,1037.6,381.7z M1033,381.7c0,1.3,0.7,2.2,1.8,2.2c1,0,1.8-0.9,1.8-2.3c0-1-0.5-2.2-1.7-2.2
			C1033.5,379.6,1033,380.6,1033,381.7z"/>
		<path class="st3" d="M1043.8,383.1c0,0.6,0,1.1,0,1.6h-0.9l-0.1-0.9l0,0c-0.3,0.5-0.9,1.1-1.9,1.1c-0.9,0-2-0.5-2-2.5v-3.4h1.1
			v3.2c0,1.1,0.3,1.8,1.3,1.8c0.7,0,1.2-0.5,1.4-1c0.1-0.2,0.1-0.3,0.1-0.5v-3.6h1.1v4.2L1043.8,383.1L1043.8,383.1z"/>
		<path class="st3" d="M1045.5,380.4c0-0.6,0-1.1,0-1.6h0.9l0.1,1l0,0c0.3-0.6,1-1.1,1.9-1.1c0.8,0,2.1,0.5,2.1,2.5v3.5h-1.1v-3.3
			c0-0.9-0.3-1.7-1.3-1.7c-0.7,0-1.2,0.5-1.4,1.1c0,0.1-0.1,0.3-0.1,0.5v3.5h-1.1V380.4z"/>
		<path class="st3" d="M1053.4,377.1v1.7h1.5v0.8h-1.5v3.1c0,0.7,0.2,1.1,0.8,1.1c0.3,0,0.5,0,0.6-0.1v0.8c-0.2,0.1-0.5,0.1-0.9,0.1
			c-0.5,0-0.9-0.2-1.1-0.4c-0.3-0.3-0.4-0.8-0.4-1.5v-3.2h-0.9v-0.8h0.9v-1.4L1053.4,377.1z"/>
		<path class="st3" d="M1058.7,376.6c0.5-0.1,1.2-0.2,2-0.2c1,0,1.8,0.2,2.3,0.7c0.4,0.4,0.7,1,0.7,1.7s-0.2,1.3-0.6,1.7
			c-0.6,0.6-1.5,0.9-2.5,0.9c-0.3,0-0.6,0-0.8-0.1v3.2h-1L1058.7,376.6L1058.7,376.6L1058.7,376.6z M1059.8,380.6
			c0.2,0.1,0.5,0.1,0.9,0.1c1.3,0,2-0.6,2-1.7c0-1.1-0.8-1.6-1.9-1.6c-0.5,0-0.8,0-1,0.1V380.6z"/>
		<path class="st3" d="M1066.1,376.6v8.1h-1v-8.1H1066.1z"/>
		<path class="st3" d="M1072.4,384.6l-1-1.8c-0.4-0.7-0.7-1.1-0.9-1.6l0,0c-0.2,0.5-0.5,0.9-0.9,1.6l-1,1.8h-1.2l2.5-4.1l-2.4-4h1.2
			l1.1,1.9c0.3,0.5,0.5,0.9,0.7,1.4l0,0c0.2-0.5,0.4-0.9,0.7-1.4l1.1-1.9h1.2l-2.5,3.9l2.5,4.1L1072.4,384.6L1072.4,384.6z"/>
		<path class="st3" d="M1079,380.9h-3.1v2.9h3.5v0.9h-4.5v-8.1h4.4v0.9h-3.3v2.6h3.1L1079,380.9L1079,380.9L1079,380.9z"/>
		<path class="st3" d="M1080.7,376.6h1v7.2h3.5v0.9h-4.5V376.6z"/>
		<path class="st3" d="M1088.9,376.6c0.5-0.1,1.2-0.2,1.9-0.2c1,0,1.7,0.2,2.2,0.6c0.4,0.3,0.7,0.8,0.7,1.4c0,0.8-0.5,1.5-1.4,1.8
			l0,0c0.8,0.2,1.7,0.8,1.7,2c0,0.7-0.3,1.2-0.7,1.6c-0.6,0.5-1.5,0.8-2.8,0.8c-0.7,0-1.3,0-1.6-0.1L1088.9,376.6L1088.9,376.6z
			 M1090,380.1h0.9c1.1,0,1.8-0.6,1.8-1.4c0-0.9-0.7-1.3-1.8-1.3c-0.5,0-0.8,0-0.9,0.1V380.1z M1090,383.9c0.2,0,0.5,0,0.9,0
			c1.1,0,2.1-0.4,2.1-1.6c0-1.1-0.9-1.6-2.1-1.6h-0.9V383.9z"/>
		<path class="st3" d="M1100.7,381.7c0,2.1-1.5,3.1-2.9,3.1c-1.6,0-2.8-1.2-2.8-3c0-1.9,1.3-3.1,2.9-3.1
			C1099.6,378.7,1100.7,379.9,1100.7,381.7z M1096.1,381.7c0,1.3,0.7,2.2,1.8,2.2c1,0,1.8-0.9,1.8-2.3c0-1-0.5-2.2-1.7-2.2
			C1096.6,379.6,1096.1,380.6,1096.1,381.7z"/>
		<path class="st3" d="M1105.2,384.6l-0.1-0.7l0,0c-0.3,0.5-0.9,0.9-1.8,0.9c-1.2,0-1.8-0.8-1.8-1.7c0-1.4,1.2-2.2,3.5-2.2v-0.1
			c0-0.5-0.1-1.3-1.3-1.3c-0.5,0-1.1,0.2-1.5,0.4l-0.2-0.7c0.5-0.3,1.2-0.5,1.9-0.5c1.8,0,2.2,1.2,2.2,2.4v2.2c0,0.5,0,1,0.1,1.4h-1
			V384.6L1105.2,384.6z M1105.1,381.7c-1.2,0-2.5,0.2-2.5,1.3c0,0.7,0.5,1,1,1c0.8,0,1.2-0.5,1.4-1c0-0.1,0.1-0.2,0.1-0.3V381.7z"/>
		<path class="st3" d="M1107.8,380.6c0-0.7,0-1.3,0-1.8h0.9v1.1l0,0c0.3-0.8,0.9-1.3,1.6-1.3c0.1,0,0.2,0,0.3,0v1
			c-0.1,0-0.2,0-0.4,0c-0.7,0-1.3,0.6-1.4,1.4c0,0.1,0,0.3,0,0.5v3.1h-1V380.6z"/>
		<path class="st3" d="M1116.6,376.1v7c0,0.5,0,1.1,0,1.5h-0.9v-1l0,0c-0.3,0.6-1,1.1-2,1.1c-1.4,0-2.5-1.2-2.5-3
			c0-1.9,1.2-3.1,2.6-3.1c0.9,0,1.5,0.4,1.8,0.9l0,0v-3.4H1116.6z M1115.6,381.2c0-0.1,0-0.3,0-0.4c-0.2-0.7-0.7-1.2-1.5-1.2
			c-1.1,0-1.7,1-1.7,2.2s0.6,2.1,1.7,2.1c0.7,0,1.4-0.5,1.5-1.3c0-0.1,0-0.3,0-0.5V381.2z"/>
		<path class="st3" d="M1122,376.6v3.4h3.9v-3.4h1.1v8.1h-1.1v-3.8h-3.9v3.8h-1v-8.1H1122z"/>
		<path class="st3" d="M1129.3,381.9c0,1.4,0.9,2,2,2c0.8,0,1.2-0.1,1.6-0.3l0.2,0.8c-0.4,0.2-1,0.4-1.9,0.4c-1.8,0-2.9-1.2-2.9-2.9
			s1-3.1,2.7-3.1c1.9,0,2.4,1.7,2.4,2.7c0,0.2,0,0.4,0,0.5h-4.1L1129.3,381.9L1129.3,381.9z M1132.4,381.2c0-0.7-0.3-1.7-1.5-1.7
			c-1.1,0-1.5,1-1.6,1.7H1132.4z"/>
		<path class="st3" d="M1134.8,380.6c0-0.7,0-1.3,0-1.8h0.9v1.1l0,0c0.3-0.8,0.9-1.3,1.6-1.3c0.1,0,0.2,0,0.3,0v1
			c-0.1,0-0.2,0-0.4,0c-0.7,0-1.3,0.6-1.4,1.4c0,0.1,0,0.3,0,0.5v3.1h-1V380.6z"/>
		<path class="st3" d="M1139.2,381.9c0,1.4,0.9,2,2,2c0.8,0,1.2-0.1,1.6-0.3l0.2,0.8c-0.4,0.2-1,0.4-1.9,0.4c-1.8,0-2.9-1.2-2.9-2.9
			s1-3.1,2.7-3.1c1.9,0,2.4,1.7,2.4,2.7c0,0.2,0,0.4,0,0.5h-4.1V381.9L1139.2,381.9z M1142.3,381.2c0-0.7-0.3-1.7-1.5-1.7
			c-1.1,0-1.5,1-1.6,1.7H1142.3z"/>
	</g>
	<g>
		<path class="st3" d="M986.2,201.7c-0.1-1.1-0.1-2.5-0.1-3.5l0,0c-0.3,0.9-0.6,2-1,3.1l-1.4,3.9h-0.8l-1.3-3.8
			c-0.4-1.1-0.7-2.2-0.9-3.1l0,0c0,1-0.1,2.4-0.2,3.6l-0.2,3.5h-1l0.6-8.1h1.3l1.4,3.9c0.3,1,0.6,1.9,0.8,2.7l0,0
			c0.2-0.8,0.5-1.7,0.9-2.7l1.4-3.9h1.3l0.5,8.1h-1L986.2,201.7z"/>
		<path class="st3" d="M994.3,202.3c0,2.1-1.5,3.1-2.9,3.1c-1.6,0-2.8-1.2-2.8-3c0-1.9,1.3-3.1,2.9-3.1
			C993.2,199.3,994.3,200.4,994.3,202.3z M989.7,202.4c0,1.3,0.7,2.2,1.8,2.2c1,0,1.8-0.9,1.8-2.3c0-1-0.5-2.2-1.7-2.2
			C990.3,200.1,989.7,201.3,989.7,202.4z"/>
		<path class="st3" d="M1000.5,203.7c0,0.6,0,1.1,0,1.6h-0.9l-0.1-0.9l0,0c-0.3,0.5-0.9,1.1-1.9,1.1c-0.9,0-2-0.5-2-2.5v-3.4h1.1
			v3.2c0,1.1,0.3,1.8,1.3,1.8c0.7,0,1.2-0.5,1.4-1c0.1-0.2,0.1-0.3,0.1-0.5v-3.6h1.1v4.2L1000.5,203.7L1000.5,203.7z"/>
		<path class="st3" d="M1002.3,200.9c0-0.6,0-1.1,0-1.6h0.9l0.1,1l0,0c0.3-0.6,1-1.1,1.9-1.1c0.8,0,2.1,0.5,2.1,2.5v3.5h-1.1v-3.3
			c0-0.9-0.3-1.7-1.3-1.7c-0.7,0-1.2,0.5-1.4,1.1c0,0.1-0.1,0.3-0.1,0.5v3.5h-1.1V200.9z"/>
		<path class="st3" d="M1010.2,197.8v1.7h1.5v0.8h-1.5v3.1c0,0.7,0.2,1.1,0.8,1.1c0.3,0,0.5,0,0.6-0.1v0.8c-0.2,0.1-0.5,0.1-0.9,0.1
			c-0.5,0-0.9-0.2-1.1-0.4c-0.3-0.3-0.4-0.8-0.4-1.5v-3.2h-0.9v-0.8h0.9V198L1010.2,197.8z"/>
		<path class="st3" d="M1015.4,197.2h1v7.2h3.5v0.9h-4.5V197.2z"/>
		<path class="st3" d="M1025.3,201.4h-3.1v2.9h3.5v0.9h-4.6v-8.1h4.4v0.9h-3.3v2.6h3.1V201.4z"/>
		<path class="st3" d="M1027,197.3c0.6-0.1,1.4-0.2,2.2-0.2c1.5,0,2.6,0.3,3.3,1c0.7,0.7,1.1,1.6,1.1,2.9s-0.4,2.4-1.2,3.1
			c-0.8,0.8-2,1.2-3.6,1.2c-0.7,0-1.4,0-1.9-0.1v-7.9H1027z M1028.1,204.4c0.3,0,0.6,0.1,1.1,0.1c2.2,0,3.4-1.2,3.4-3.4
			c0-1.9-1.1-3.1-3.3-3.1c-0.5,0-0.9,0-1.2,0.1V204.4z"/>
		<path class="st3" d="M1037.5,197.3c0.5-0.1,1.2-0.2,2-0.2c1,0,1.8,0.2,2.3,0.7c0.4,0.4,0.7,1,0.7,1.7s-0.2,1.3-0.6,1.7
			c-0.6,0.6-1.5,0.9-2.5,0.9c-0.3,0-0.6,0-0.8-0.1v3.2h-1L1037.5,197.3L1037.5,197.3L1037.5,197.3z M1038.6,201.2
			c0.2,0.1,0.5,0.1,0.9,0.1c1.3,0,2-0.6,2-1.7s-0.8-1.6-1.9-1.6c-0.5,0-0.8,0-1,0.1V201.2z"/>
		<path class="st3" d="M1046.8,205.3l-0.1-0.7l0,0c-0.3,0.5-0.9,0.9-1.8,0.9c-1.2,0-1.8-0.8-1.8-1.7c0-1.4,1.2-2.2,3.5-2.2v-0.1
			c0-0.5-0.1-1.3-1.3-1.3c-0.5,0-1.1,0.2-1.5,0.4l-0.2-0.7c0.5-0.3,1.2-0.5,1.9-0.5c1.8,0,2.2,1.2,2.2,2.4v2.2c0,0.5,0,1,0.1,1.4
			L1046.8,205.3L1046.8,205.3z M1046.6,202.3c-1.2,0-2.5,0.2-2.5,1.3c0,0.7,0.5,1,1,1c0.8,0,1.2-0.5,1.4-1c0-0.1,0.1-0.2,0.1-0.3
			V202.3z"/>
		<path class="st3" d="M1049.4,200.9c0-0.6,0-1.1,0-1.6h0.9l0.1,1l0,0c0.3-0.6,1-1.1,1.9-1.1c0.8,0,2.1,0.5,2.1,2.5v3.5h-1.1v-3.3
			c0-0.9-0.3-1.7-1.3-1.7c-0.7,0-1.2,0.5-1.4,1.1c0,0.1-0.1,0.3-0.1,0.5v3.5h-1.1V200.9z"/>
		<path class="st3" d="M1056.6,202.6c0,1.4,0.9,2,2,2c0.8,0,1.2-0.1,1.6-0.3l0.2,0.8c-0.4,0.2-1,0.4-1.9,0.4c-1.8,0-2.9-1.2-2.9-2.9
			s1-3.1,2.7-3.1c1.9,0,2.4,1.7,2.4,2.7c0,0.2,0,0.4,0,0.5h-4.1V202.6L1056.6,202.6z M1059.7,201.8c0-0.7-0.3-1.7-1.5-1.7
			c-1.1,0-1.5,1-1.6,1.7H1059.7z"/>
		<path class="st3" d="M1062,196.7h1.1v8.5h-1.1V196.7z"/>
		<path class="st3" d="M1074.3,201.7c-0.1-1.1-0.1-2.5-0.1-3.5l0,0c-0.3,0.9-0.6,2-1,3.1l-1.4,3.9h-0.8l-1.3-3.8
			c-0.4-1.1-0.7-2.2-0.9-3.1l0,0c0,1-0.1,2.4-0.2,3.6l-0.2,3.5h-1l0.6-8.1h1.3l1.4,3.9c0.3,1,0.6,1.9,0.8,2.7l0,0
			c0.2-0.8,0.5-1.7,0.9-2.7l1.4-3.9h1.3l0.5,8.1h-1L1074.3,201.7z"/>
		<path class="st3" d="M1080.3,205.3l-0.1-0.7l0,0c-0.3,0.5-0.9,0.9-1.8,0.9c-1.2,0-1.8-0.8-1.8-1.7c0-1.4,1.2-2.2,3.5-2.2v-0.1
			c0-0.5-0.1-1.3-1.3-1.3c-0.5,0-1.1,0.2-1.5,0.4l-0.2-0.7c0.5-0.3,1.2-0.5,1.9-0.5c1.8,0,2.2,1.2,2.2,2.4v2.2c0,0.5,0,1,0.1,1.4
			L1080.3,205.3L1080.3,205.3z M1080.2,202.3c-1.2,0-2.5,0.2-2.5,1.3c0,0.7,0.5,1,1,1c0.8,0,1.2-0.5,1.4-1c0-0.1,0.1-0.2,0.1-0.3
			V202.3z"/>
		<path class="st3" d="M1084.1,197.8v1.7h1.5v0.8h-1.5v3.1c0,0.7,0.2,1.1,0.8,1.1c0.3,0,0.5,0,0.6-0.1v0.8c-0.2,0.1-0.5,0.1-0.9,0.1
			c-0.5,0-0.9-0.2-1.1-0.4c-0.3-0.3-0.4-0.8-0.4-1.5v-3.2h-0.9v-0.8h0.9V198L1084.1,197.8z"/>
		<path class="st3" d="M1086.8,201.3c0-0.7,0-1.3,0-1.8h0.9v1.1l0,0c0.3-0.8,0.9-1.3,1.6-1.3c0.1,0,0.2,0,0.3,0v1
			c-0.1,0-0.2,0-0.4,0c-0.7,0-1.3,0.6-1.4,1.4c0,0.1,0,0.3,0,0.5v3.1h-1V201.3z"/>
		<path class="st3" d="M1092,197.8c0,0.4-0.3,0.6-0.7,0.6s-0.6-0.3-0.6-0.6c0-0.4,0.3-0.7,0.7-0.7
			C1091.7,197.2,1092,197.4,1092,197.8z M1090.8,205.3v-5.8h1.1v5.8H1090.8z"/>
		<path class="st3" d="M1094.1,199.4l0.8,1.2c0.2,0.3,0.4,0.6,0.6,0.9l0,0c0.2-0.3,0.4-0.6,0.6-1l0.8-1.2h1.1l-2,2.8l2,3h-1.2
			l-0.9-1.3c-0.2-0.3-0.4-0.7-0.6-1l0,0c-0.2,0.3-0.4,0.7-0.6,1l-0.8,1.3h-1.2l2.1-3l-2-2.8h1.3V199.4L1094.1,199.4z"/>
		<path class="st3" d="M1107,202.3c0,2.1-1.5,3.1-2.9,3.1c-1.6,0-2.8-1.2-2.8-3c0-1.9,1.3-3.1,2.9-3.1S1107,200.4,1107,202.3z
			 M1102.4,202.4c0,1.3,0.7,2.2,1.8,2.2c1,0,1.8-0.9,1.8-2.3c0-1-0.5-2.2-1.7-2.2C1102.9,200.1,1102.4,201.3,1102.4,202.4z"/>
		<path class="st3" d="M1108.3,200.9c0-0.6,0-1.1,0-1.6h0.9l0.1,1l0,0c0.3-0.6,1-1.1,1.9-1.1c0.8,0,2.1,0.5,2.1,2.5v3.5h-1.1v-3.3
			c0-0.9-0.3-1.7-1.3-1.7c-0.7,0-1.2,0.5-1.4,1.1c0,0.1-0.1,0.3-0.1,0.5v3.5h-1.1V200.9z"/>
		<path class="st3" d="M1124.5,201.1c0,2.8-1.7,4.3-3.8,4.3s-3.6-1.7-3.6-4.1c0-2.6,1.6-4.2,3.8-4.2
			C1123,196.9,1124.5,198.7,1124.5,201.1z M1118.2,201.3c0,1.7,0.9,3.3,2.6,3.3c1.7,0,2.6-1.5,2.6-3.4c0-1.6-0.8-3.3-2.6-3.3
			C1119,197.9,1118.2,199.4,1118.2,201.3z"/>
		<path class="st3" d="M1127.3,197.8v1.7h1.5v0.8h-1.5v3.1c0,0.7,0.2,1.1,0.8,1.1c0.3,0,0.5,0,0.6-0.1v0.8c-0.2,0.1-0.5,0.1-0.9,0.1
			c-0.5,0-0.9-0.2-1.1-0.4c-0.3-0.3-0.4-0.8-0.4-1.5v-3.2h-0.9v-0.8h0.9V198L1127.3,197.8z"/>
		<path class="st3" d="M1130,196.7h1.1v3.6l0,0c0.2-0.3,0.4-0.6,0.8-0.7c0.3-0.2,0.7-0.3,1.1-0.3c0.8,0,2,0.5,2,2.5v3.5h-1.1V202
			c0-0.9-0.3-1.7-1.3-1.7c-0.7,0-1.2,0.5-1.4,1.1c-0.1,0.1-0.1,0.3-0.1,0.5v3.5h-1.1V196.7z"/>
		<path class="st3" d="M1137.2,202.6c0,1.4,0.9,2,2,2c0.8,0,1.2-0.1,1.6-0.3l0.2,0.8c-0.4,0.2-1,0.4-1.9,0.4c-1.8,0-2.9-1.2-2.9-2.9
			s1-3.1,2.7-3.1c1.9,0,2.4,1.7,2.4,2.7c0,0.2,0,0.4,0,0.5h-4.1V202.6L1137.2,202.6z M1140.3,201.8c0-0.7-0.3-1.7-1.5-1.7
			c-1.1,0-1.5,1-1.6,1.7H1140.3z"/>
		<path class="st3" d="M1142.6,201.3c0-0.7,0-1.3,0-1.8h0.9v1.1l0,0c0.3-0.8,0.9-1.3,1.6-1.3c0.1,0,0.2,0,0.3,0v1
			c-0.1,0-0.2,0-0.4,0c-0.7,0-1.3,0.6-1.4,1.4c0,0.1,0,0.3,0,0.5v3.1h-1V201.3z"/>
		<path class="st3" d="M1149,203.9c0.5,0.3,1.2,0.5,1.9,0.5c1.1,0,1.7-0.6,1.7-1.4s-0.4-1.2-1.5-1.6c-1.3-0.5-2.1-1.2-2.1-2.3
			c0-1.3,1-2.2,2.6-2.2c0.8,0,1.4,0.2,1.8,0.4l-0.3,0.9c-0.3-0.1-0.8-0.4-1.5-0.4c-1.1,0-1.5,0.7-1.5,1.2c0,0.8,0.5,1.1,1.6,1.6
			c1.4,0.5,2.1,1.2,2.1,2.4c0,1.2-0.9,2.3-2.8,2.3c-0.8,0-1.6-0.2-2.1-0.5L1149,203.9z"/>
		<path class="st3" d="M1156.2,197.8c0,0.4-0.3,0.6-0.7,0.6s-0.6-0.3-0.6-0.6c0-0.4,0.3-0.7,0.7-0.7
			C1155.9,197.2,1156.2,197.4,1156.2,197.8z M1155,205.3v-5.8h1.1v5.8H1155z"/>
		<path class="st3" d="M1162.8,196.7v7c0,0.5,0,1.1,0,1.5h-0.9v-1l0,0c-0.3,0.6-1,1.1-2,1.1c-1.4,0-2.5-1.2-2.5-3
			c0-1.9,1.2-3.1,2.6-3.1c0.9,0,1.5,0.4,1.8,0.9l0,0v-3.5h1V196.7z M1161.8,201.8c0-0.1,0-0.3,0-0.4c-0.2-0.7-0.7-1.2-1.5-1.2
			c-1.1,0-1.7,1-1.7,2.2s0.6,2.1,1.7,2.1c0.7,0,1.4-0.5,1.5-1.3c0-0.1,0-0.3,0-0.5V201.8z"/>
		<path class="st3" d="M1165.2,202.6c0,1.4,0.9,2,2,2c0.8,0,1.2-0.1,1.6-0.3l0.2,0.8c-0.4,0.2-1,0.4-1.9,0.4c-1.8,0-2.9-1.2-2.9-2.9
			s1-3.1,2.7-3.1c1.9,0,2.4,1.7,2.4,2.7c0,0.2,0,0.4,0,0.5h-4.1V202.6L1165.2,202.6z M1168.3,201.8c0-0.7-0.3-1.7-1.5-1.7
			c-1.1,0-1.5,1-1.6,1.7H1168.3z"/>
	</g>
	<g>
		<path class="st3" d="M1189.3,156.3c0.5-0.1,1.2-0.2,2-0.2c1,0,1.8,0.2,2.3,0.7c0.4,0.4,0.7,1,0.7,1.7s-0.2,1.3-0.6,1.7
			c-0.6,0.6-1.5,0.9-2.5,0.9c-0.3,0-0.6,0-0.8-0.1v3.2h-1v-7.9L1189.3,156.3L1189.3,156.3z M1190.4,160.2c0.2,0.1,0.5,0.1,0.9,0.1
			c1.3,0,2-0.6,2-1.7s-0.8-1.6-1.9-1.6c-0.5,0-0.8,0-1,0.1V160.2z"/>
		<path class="st3" d="M1198.6,164.3l-0.1-0.7l0,0c-0.3,0.5-0.9,0.9-1.8,0.9c-1.2,0-1.8-0.8-1.8-1.7c0-1.4,1.2-2.2,3.5-2.2v-0.1
			c0-0.5-0.1-1.3-1.3-1.3c-0.5,0-1.1,0.2-1.5,0.4l-0.2-0.7c0.5-0.3,1.2-0.5,1.9-0.5c1.8,0,2.2,1.2,2.2,2.4v2.2c0,0.5,0,1,0.1,1.4
			L1198.6,164.3L1198.6,164.3z M1198.4,161.4c-1.2,0-2.5,0.2-2.5,1.3c0,0.7,0.5,1,1,1c0.8,0,1.2-0.5,1.4-1c0-0.1,0.1-0.2,0.1-0.3
			V161.4z"/>
		<path class="st3" d="M1201.1,160.1c0-0.6,0-1.1,0-1.6h0.9l0.1,1l0,0c0.3-0.6,1-1.1,1.9-1.1c0.8,0,2.1,0.5,2.1,2.5v3.5h-1.1v-3.3
			c0-0.9-0.3-1.7-1.3-1.7c-0.7,0-1.2,0.5-1.4,1.1c0,0.1-0.1,0.3-0.1,0.5v3.5h-1.1V160.1z"/>
		<path class="st3" d="M1208.4,161.6c0,1.4,0.9,2,2,2c0.8,0,1.2-0.1,1.6-0.3l0.2,0.8c-0.4,0.2-1,0.4-1.9,0.4c-1.8,0-2.9-1.2-2.9-2.9
			s1-3.1,2.7-3.1c1.9,0,2.4,1.7,2.4,2.7c0,0.2,0,0.4,0,0.5h-4.1V161.6z M1211.5,160.9c0-0.7-0.3-1.7-1.5-1.7c-1.1,0-1.5,1-1.6,1.7
			H1211.5z"/>
		<path class="st3" d="M1213.8,155.8h1.1v8.5h-1.1V155.8z"/>
		<path class="st3" d="M1220.3,156.2v4.8c0,1.8,0.8,2.6,1.9,2.6c1.2,0,2-0.8,2-2.6v-4.8h1.1v4.7c0,2.5-1.3,3.5-3.1,3.5
			c-1.7,0-2.9-0.9-2.9-3.5v-4.7H1220.3z"/>
		<path class="st3" d="M1226.9,160.4c0-0.7,0-1.3,0-1.9h0.9v1l0,0c0.4-0.7,1.1-1.1,2.1-1.1c1.4,0,2.5,1.2,2.5,3
			c0,2.1-1.3,3.1-2.6,3.1c-0.8,0-1.4-0.3-1.8-0.9l0,0v3.2h-1v-6.4L1226.9,160.4L1226.9,160.4z M1228,161.9c0,0.2,0,0.3,0,0.4
			c0.2,0.7,0.8,1.2,1.6,1.2c1.1,0,1.8-0.9,1.8-2.2c0-1.2-0.6-2.2-1.7-2.2c-0.7,0-1.4,0.5-1.6,1.3c0,0.1-0.1,0.3-0.1,0.4V161.9z"/>
	</g>
	<g>
		<path class="st3" d="M1189.4,491.9c0.5-0.1,1.2-0.2,2-0.2c1,0,1.8,0.2,2.3,0.7c0.4,0.4,0.7,1,0.7,1.7s-0.2,1.3-0.6,1.7
			c-0.6,0.6-1.5,0.9-2.5,0.9c-0.3,0-0.6,0-0.8-0.1v3.2h-1v-7.9L1189.4,491.9L1189.4,491.9z M1190.4,495.7c0.2,0.1,0.5,0.1,0.9,0.1
			c1.3,0,2-0.6,2-1.7c0-1.1-0.8-1.6-1.9-1.6c-0.5,0-0.8,0-1,0.1V495.7z"/>
		<path class="st3" d="M1196.7,492.4c0,0.4-0.3,0.6-0.7,0.6s-0.6-0.3-0.6-0.6c0-0.4,0.3-0.7,0.7-0.7
			C1196.5,491.7,1196.7,491.9,1196.7,492.4z M1195.5,499.7v-5.8h1.1v5.8H1195.5z"/>
		<path class="st3" d="M1198.8,493.9l0.8,1.2c0.2,0.3,0.4,0.6,0.6,0.9l0,0c0.2-0.3,0.4-0.6,0.6-1l0.8-1.2h1.1l-2,2.8l2,3h-1.2
			l-0.9-1.3c-0.2-0.3-0.4-0.7-0.6-1l0,0c-0.2,0.3-0.4,0.7-0.6,1l-0.8,1.3h-1.2l2.1-3l-2-2.8L1198.8,493.9L1198.8,493.9z"/>
		<path class="st3" d="M1204.3,497.1c0,1.4,0.9,2,2,2c0.8,0,1.2-0.1,1.6-0.3l0.2,0.8c-0.4,0.2-1,0.4-1.9,0.4c-1.8,0-2.9-1.2-2.9-2.9
			s1-3.1,2.7-3.1c1.9,0,2.4,1.7,2.4,2.7c0,0.2,0,0.4,0,0.5h-4.1V497.1z M1207.4,496.4c0-0.7-0.3-1.7-1.5-1.7c-1.1,0-1.5,1-1.6,1.7
			H1207.4z"/>
		<path class="st3" d="M1209.7,491.2h1.1v8.5h-1.1V491.2z"/>
		<path class="st3" d="M1215.1,491.9c0.5-0.1,1.2-0.2,1.9-0.2c1,0,1.7,0.2,2.2,0.6c0.4,0.3,0.7,0.8,0.7,1.4c0,0.8-0.5,1.5-1.4,1.8
			l0,0c0.8,0.2,1.7,0.8,1.7,2c0,0.7-0.3,1.2-0.7,1.6c-0.6,0.5-1.5,0.8-2.8,0.8c-0.7,0-1.3,0-1.6-0.1V491.9L1215.1,491.9z
			 M1216.2,495.1h0.9c1.1,0,1.8-0.6,1.8-1.4c0-0.9-0.7-1.3-1.8-1.3c-0.5,0-0.8,0-0.9,0.1V495.1z M1216.2,499.1c0.2,0,0.5,0,0.9,0
			c1.1,0,2.1-0.4,2.1-1.6c0-1.1-0.9-1.6-2.1-1.6h-0.9V499.1z"/>
		<path class="st3" d="M1226.9,496.9c0,2.1-1.5,3.1-2.9,3.1c-1.6,0-2.8-1.2-2.8-3c0-1.9,1.3-3.1,2.9-3.1
			C1225.8,493.9,1226.9,495.1,1226.9,496.9z M1222.3,496.9c0,1.3,0.7,2.2,1.8,2.2c1,0,1.8-0.9,1.8-2.3c0-1-0.5-2.2-1.7-2.2
			C1222.8,494.6,1222.3,495.9,1222.3,496.9z"/>
		<path class="st3" d="M1231.5,499.7l-0.1-0.7l0,0c-0.3,0.5-0.9,0.9-1.8,0.9c-1.2,0-1.8-0.8-1.8-1.7c0-1.4,1.2-2.2,3.5-2.2v-0.1
			c0-0.5-0.1-1.3-1.3-1.3c-0.5,0-1.1,0.2-1.5,0.4l-0.2-0.7c0.5-0.3,1.2-0.5,1.9-0.5c1.8,0,2.2,1.2,2.2,2.4v2.2c0,0.5,0,1,0.1,1.4h-1
			V499.7L1231.5,499.7z M1231.3,496.9c-1.2,0-2.5,0.2-2.5,1.3c0,0.7,0.5,1,1,1c0.8,0,1.2-0.5,1.4-1c0-0.1,0.1-0.2,0.1-0.3V496.9z"/>
		<path class="st3" d="M1234,495.9c0-0.7,0-1.3,0-1.8h0.9v1.1l0,0c0.3-0.8,0.9-1.3,1.6-1.3c0.1,0,0.2,0,0.3,0v1c-0.1,0-0.2,0-0.4,0
			c-0.7,0-1.3,0.6-1.4,1.4c0,0.1,0,0.3,0,0.5v3.1h-1L1234,495.9L1234,495.9z"/>
		<path class="st3" d="M1242.8,491.2v7c0,0.5,0,1.1,0,1.5h-0.9v-1l0,0c-0.3,0.6-1,1.1-2,1.1c-1.4,0-2.5-1.2-2.5-3
			c0-1.9,1.2-3.1,2.6-3.1c0.9,0,1.5,0.4,1.8,0.9l0,0v-3.5L1242.8,491.2L1242.8,491.2z M1241.8,496.4c0-0.1,0-0.3,0-0.4
			c-0.2-0.7-0.7-1.2-1.5-1.2c-1.1,0-1.7,1-1.7,2.2s0.6,2.1,1.7,2.1c0.7,0,1.4-0.5,1.5-1.3c0-0.1,0-0.3,0-0.5V496.4z"/>
		<path class="st3" d="M1167.9,510.6c-0.1-1.1-0.1-2.5-0.1-3.5l0,0c-0.3,0.9-0.6,2-1,3.1l-1.4,3.9h-0.8l-1.3-3.8
			c-0.4-1.1-0.7-2.2-0.9-3.1l0,0c0,1-0.1,2.4-0.2,3.6l-0.2,3.5h-1l0.6-8.1h1.3l1.4,3.9c0.3,1,0.6,1.9,0.8,2.7l0,0
			c0.2-0.8,0.5-1.7,0.9-2.7l1.4-3.9h1.3l0.5,8.1h-1L1167.9,510.6z"/>
		<path class="st3" d="M1176,511.2c0,2.1-1.5,3.1-2.9,3.1c-1.6,0-2.8-1.2-2.8-3c0-1.9,1.3-3.1,2.9-3.1
			C1174.9,508.2,1176,509.4,1176,511.2z M1171.4,511.4c0,1.3,0.7,2.2,1.8,2.2c1,0,1.8-0.9,1.8-2.3c0-1-0.5-2.2-1.7-2.2
			C1172,509.1,1171.4,510.2,1171.4,511.4z"/>
		<path class="st3" d="M1182.2,512.7c0,0.6,0,1.1,0,1.6h-0.9l-0.1-0.9l0,0c-0.3,0.5-0.9,1.1-1.9,1.1c-0.9,0-2-0.5-2-2.5v-3.4h1.1
			v3.2c0,1.1,0.3,1.8,1.3,1.8c0.7,0,1.2-0.5,1.4-1c0.1-0.2,0.1-0.3,0.1-0.5v-3.6h1.1L1182.2,512.7L1182.2,512.7z"/>
		<path class="st3" d="M1184,509.9c0-0.6,0-1.1,0-1.6h0.9l0.1,1l0,0c0.3-0.6,1-1.1,1.9-1.1c0.8,0,2.1,0.5,2.1,2.5v3.5h-1.1V511
			c0-0.9-0.3-1.7-1.3-1.7c-0.7,0-1.2,0.5-1.4,1.1c0,0.1-0.1,0.3-0.1,0.5v3.5h-1.1V509.9L1184,509.9z"/>
		<path class="st3" d="M1191.9,506.7v1.7h1.5v0.8h-1.5v3.1c0,0.7,0.2,1.1,0.8,1.1c0.3,0,0.5,0,0.6-0.1v0.8c-0.2,0.1-0.5,0.1-0.9,0.1
			c-0.5,0-0.9-0.2-1.1-0.4c-0.3-0.3-0.4-0.8-0.4-1.5v-3.2h-0.9v-0.8h0.9v-1.4L1191.9,506.7z"/>
		<path class="st3" d="M1197,513c0.5,0.3,1.2,0.5,1.9,0.5c1.1,0,1.7-0.6,1.7-1.4c0-0.8-0.4-1.2-1.5-1.6c-1.3-0.5-2.1-1.2-2.1-2.3
			c0-1.3,1-2.2,2.6-2.2c0.8,0,1.4,0.2,1.8,0.4l-0.3,0.9c-0.3-0.1-0.8-0.4-1.5-0.4c-1.1,0-1.5,0.7-1.5,1.2c0,0.8,0.5,1.1,1.6,1.6
			c1.4,0.5,2.1,1.2,2.1,2.4c0,1.2-0.9,2.3-2.8,2.3c-0.8,0-1.6-0.2-2.1-0.5L1197,513z"/>
		<path class="st3" d="M1207.2,514c-0.3,0.1-0.9,0.3-1.7,0.3c-1.8,0-2.9-1.2-2.9-3c0-1.8,1.2-3.1,3.1-3.1c0.6,0,1.2,0.2,1.5,0.3
			l-0.2,0.8c-0.3-0.1-0.6-0.3-1.2-0.3c-1.3,0-2.1,1-2.1,2.2c0,1.3,0.9,2.2,2,2.2c0.6,0,1-0.2,1.3-0.3L1207.2,514z"/>
		<path class="st3" d="M1208.5,510.2c0-0.7,0-1.3,0-1.8h0.9v1.1l0,0c0.3-0.8,0.9-1.3,1.6-1.3c0.1,0,0.2,0,0.3,0v1
			c-0.1,0-0.2,0-0.4,0c-0.7,0-1.3,0.6-1.4,1.4c0,0.1,0,0.3,0,0.5v3.1h-1L1208.5,510.2L1208.5,510.2z"/>
		<path class="st3" d="M1212.9,511.4c0,1.4,0.9,2,2,2c0.8,0,1.2-0.1,1.6-0.3l0.2,0.8c-0.4,0.2-1,0.4-1.9,0.4c-1.8,0-2.9-1.2-2.9-2.9
			c0-1.7,1-3.1,2.7-3.1c1.9,0,2.4,1.7,2.4,2.7c0,0.2,0,0.4,0,0.5h-4.1V511.4z M1216,510.7c0-0.7-0.3-1.7-1.5-1.7
			c-1.1,0-1.5,1-1.6,1.7H1216z"/>
		<path class="st3" d="M1218.7,508.4l0.8,3c0.2,0.6,0.3,1.2,0.4,1.8l0,0c0.1-0.6,0.3-1.2,0.5-1.8l0.9-3h0.9l0.9,2.9
			c0.2,0.7,0.4,1.3,0.5,1.9l0,0c0.1-0.6,0.3-1.2,0.4-1.9l0.8-2.9h1l-1.9,5.8h-1l-0.9-2.8c-0.2-0.6-0.4-1.2-0.5-1.9l0,0
			c-0.1,0.7-0.3,1.3-0.5,1.9l-0.9,2.8h-1l-1.8-5.8H1218.7z"/>
		<path class="st3" d="M1230.9,506.7v1.7h1.5v0.8h-1.5v3.1c0,0.7,0.2,1.1,0.8,1.1c0.3,0,0.5,0,0.6-0.1v0.8c-0.2,0.1-0.5,0.1-0.9,0.1
			c-0.5,0-0.9-0.2-1.1-0.4c-0.3-0.3-0.4-0.8-0.4-1.5v-3.2h-0.9v-0.8h0.9v-1.4L1230.9,506.7z"/>
		<path class="st3" d="M1238.8,511.2c0,2.1-1.5,3.1-2.9,3.1c-1.6,0-2.8-1.2-2.8-3c0-1.9,1.3-3.1,2.9-3.1
			C1237.7,508.2,1238.8,509.4,1238.8,511.2z M1234.2,511.4c0,1.3,0.7,2.2,1.8,2.2c1,0,1.8-0.9,1.8-2.3c0-1-0.5-2.2-1.7-2.2
			C1234.8,509.1,1234.2,510.2,1234.2,511.4z"/>
		<path class="st3" d="M1242.7,506.2c0.5-0.1,1.2-0.2,2-0.2c1,0,1.8,0.2,2.3,0.7c0.4,0.4,0.7,1,0.7,1.7s-0.2,1.3-0.6,1.7
			c-0.6,0.6-1.5,0.9-2.5,0.9c-0.3,0-0.6,0-0.8-0.1v3.2h-1L1242.7,506.2L1242.7,506.2L1242.7,506.2z M1243.8,510.1
			c0.2,0.1,0.5,0.1,0.9,0.1c1.3,0,2-0.6,2-1.7c0-1.1-0.8-1.6-1.9-1.6c-0.5,0-0.8,0-1,0.1V510.1z"/>
		<path class="st3" d="M1252,514.2l-0.1-0.7l0,0c-0.3,0.5-0.9,0.9-1.8,0.9c-1.2,0-1.8-0.8-1.8-1.7c0-1.4,1.2-2.2,3.5-2.2v-0.1
			c0-0.5-0.1-1.3-1.3-1.3c-0.5,0-1.1,0.2-1.5,0.4l-0.2-0.7c0.5-0.3,1.2-0.5,1.9-0.5c1.8,0,2.2,1.2,2.2,2.4v2.2c0,0.5,0,1,0.1,1.4h-1
			V514.2L1252,514.2z M1251.8,511.2c-1.2,0-2.5,0.2-2.5,1.3c0,0.7,0.5,1,1,1c0.8,0,1.2-0.5,1.4-1c0-0.1,0.1-0.2,0.1-0.3V511.2z"/>
		<path class="st3" d="M1254.6,509.9c0-0.6,0-1.1,0-1.6h0.9l0.1,1l0,0c0.3-0.6,1-1.1,1.9-1.1c0.8,0,2.1,0.5,2.1,2.5v3.5h-1.1V511
			c0-0.9-0.3-1.7-1.3-1.7c-0.7,0-1.2,0.5-1.4,1.1c0,0.1-0.1,0.3-0.1,0.5v3.5h-1.1V509.9L1254.6,509.9z"/>
		<path class="st3" d="M1261.2,505.6h1.1v8.5h-1.1V505.6z"/>
		<path class="st3" d="M1264.6,511.4c0,1.4,0.9,2,2,2c0.8,0,1.2-0.1,1.6-0.3l0.2,0.8c-0.4,0.2-1,0.4-1.9,0.4c-1.8,0-2.9-1.2-2.9-2.9
			c0-1.7,1-3.1,2.7-3.1c1.9,0,2.4,1.7,2.4,2.7c0,0.2,0,0.4,0,0.5h-4.1V511.4z M1267.7,510.7c0-0.7-0.3-1.7-1.5-1.7
			c-1.1,0-1.5,1-1.6,1.7H1267.7z"/>
		<path class="st3" d="M1270.1,505.6h1.1v8.5h-1.1V505.6z"/>
	</g>
</g>
<path class="st0" d="M868.6,28.8h423.5c23.5,0,42.6,19.2,42.6,42.6v423.5c0,23.5-19.2,42.6-42.6,42.6H868.6
	c-23.5,0-42.6-19.2-42.6-42.6V71.4C826,48,845.1,28.8,868.6,28.8z"/>
<path class="st0" d="M852.2,51c1.8,0,3.2,1.5,3.2,3.2c0,1.8-1.5,3.2-3.2,3.2c-1.8,0-3.2-1.5-3.2-3.2S850.5,51,852.2,51z"/>
<path class="st0" d="M1308.5,51c1.8,0,3.2,1.5,3.2,3.2c0,1.8-1.5,3.2-3.2,3.2c-1.8,0-3.2-1.5-3.2-3.2S1306.8,51,1308.5,51z"/>
<path class="st0" d="M852.2,508.7c1.8,0,3.2,1.5,3.2,3.2c0,1.8-1.5,3.2-3.2,3.2c-1.8,0-3.2-1.5-3.2-3.2
	C849,510.2,850.5,508.7,852.2,508.7z"/>
<path class="st0" d="M1308.5,508.7c1.8,0,3.2,1.5,3.2,3.2c0,1.8-1.5,3.2-3.2,3.2c-1.8,0-3.2-1.5-3.2-3.2
	C1305.3,510.2,1306.8,508.7,1308.5,508.7z"/>
<circle class="st4" cx="978.8" cy="118.9" r="5.8"/>
<circle class="st4" cx="1244.5" cy="181.7" r="5.8"/>
<circle class="st4" cx="917.6" cy="149.3" r="4.3"/>
<circle class="st4" cx="1245.2" cy="419.2" r="4.3"/>
<g id="CIRCLE_19_">
	<path class="st4" d="M1185.8,311.4c0,2.1-1.7,3.8-3.8,3.8s-3.8-1.7-3.8-3.8c0-2.1,1.7-3.8,3.8-3.8S1185.8,309.2,1185.8,311.4
		L1185.8,311.4z"/>
</g>
<g id="CIRCLE_20_">
	<path class="st4" d="M987.3,311.4c0,2.1-1.7,3.8-3.8,3.8c-2.1,0-3.8-1.7-3.8-3.8c0-2.1,1.7-3.8,3.8-3.8
		C985.6,307.5,987.3,309.2,987.3,311.4L987.3,311.4z"/>
</g>
<circle class="st4" cx="1181.9" cy="447.4" r="5.8"/>
<circle class="st4" cx="916.2" cy="181.7" r="5.8"/>
<circle class="st4" cx="1181.9" cy="118.9" r="5.8"/>
<circle class="st4" cx="1244.5" cy="384.6" r="5.8"/>
<circle class="st4" cx="916.2" cy="384.6" r="5.8"/>
<g id="LWPOLYLINE_1_">
	<path class="st4" d="M938.8,327.9H970c1.6,0,2.8-1.3,2.8-2.8v-82.2c0-1.6-1.3-2.8-2.8-2.8h-31.2c-1.6,0-2.8,1.3-2.8,2.8v82.2
		C935.9,326.5,937.2,327.9,938.8,327.9z"/>
</g>
<g id="LWPOLYLINE_2_">
	<path class="st4" d="M1169.1,235.3c0-1.6-1.3-2.8-2.8-2.8h-62.4c-1.6,0-2.8,1.3-2.8,2.8V275c0,1.6,1.3,2.8,2.8,2.8h62.4
		c1.6,0,2.8-1.3,2.8-2.8V235.3z"/>
</g>
<path class="st0" d="M883.6,80.8c2.7,0,4.8,2.2,4.8,4.8c0,2.7-2.2,4.8-4.8,4.8c-2.7,0-4.8-2.2-4.8-4.8S880.9,80.8,883.6,80.8z"/>
<path class="st0" d="M1277.1,80.8c2.7,0,4.8,2.2,4.8,4.8c0,2.7-2.2,4.8-4.8,4.8c-2.7,0-4.8-2.2-4.8-4.8S1274.5,80.8,1277.1,80.8z"/>
<path class="st0" d="M883.6,475.4c2.7,0,4.8,2.2,4.8,4.8c0,2.7-2.2,4.8-4.8,4.8c-2.7,0-4.8-2.2-4.8-4.8
	C878.8,477.6,881,475.4,883.6,475.4z"/>
<path class="st0" d="M1277.1,475.4c2.7,0,4.8,2.2,4.8,4.8c0,2.7-2.2,4.8-4.8,4.8c-2.7,0-4.8-2.2-4.8-4.8
	C1272.3,477.6,1274.5,475.4,1277.1,475.4z"/>
</svg>
