<?xml version="1.0" encoding="utf-8"?>
<!-- Generator: Adobe Illustrator 23.0.1, SVG Export Plug-In . SVG Version: 6.00 Build 0)  -->
<svg version="1.1" id="Layer_1" xmlns="http://www.w3.org/2000/svg" xmlns:xlink="http://www.w3.org/1999/xlink" x="0px" y="0px"
	 viewBox="0 0 1404 792" style="enable-background:new 0 0 1404 792;" xml:space="preserve">
<style type="text/css">
	.st0{display:none;}
	.st1{display:inline;}
	.st2{fill:none;stroke:#FF0000;stroke-width:0.1;stroke-miterlimit:10;}
	.st3{fill:none;stroke:#000000;stroke-width:0.1;stroke-miterlimit:10;}
	.st4{fill:#FFFFFF;}
	.st5{fill:#0000FF;}
	.st6{fill:#FFFF00;}
	.st7{fill:#FF0000;}
	.st8{fill:#F15A24;stroke:#000000;stroke-width:0.1;stroke-miterlimit:10;}
	.st9{fill:#00FF00;}
</style>
<g id="Pacman" class="st0">
	<g id="Dots" class="st1">
		<g id="pacman_dots_1_">
			<path class="st2" d="M1346.9,633.2c-5.8,0.5-10.7-4.7-10.5-10.3c0.2-6.9,4.6-10,10.2-10.4c5.3-0.4,10.9,5.2,10.6,10.4
				C1356.8,628.9,1352.9,633.4,1346.9,633.2z"/>
			<path class="st2" d="M1307.1,633.2c-5.8,0.3-10.1-4.5-10.3-10.1c-0.2-5.8,5-11,10.6-10.6c5.8,0.4,10.1,4.2,10.2,10.9
				C1317.7,628.2,1312.9,633.7,1307.1,633.2z"/>
			<path class="st2" d="M1267.9,633.2c-5.5,0.5-10.7-4.9-10.4-10.3c0.3-7,4.5-10.3,10.2-10.4c6-0.1,10.5,3.7,10.6,10.4
				C1278.3,628.3,1274.4,633.4,1267.9,633.2z"/>
		</g>
	</g>
	<g id="Pacman_Whole" class="st1">
		<g>
			<g id="Pacman_1_">
				<path class="st3" d="M1278,581.2c-11.4,7.1-22.9,14.2-34.3,21.3c-8.8,5.5-17.6,11.1-26.3,16.6c-3.1,2-6.2,4-9.4,5.9
					c-1.6,1-1.3,1.5,0.1,2.3c6.8,4.3,13.6,8.6,20.4,12.9c6.4,4.1,12.9,8.1,19.3,12.2c9.8,6.1,19.6,12.3,29.5,18.4
					c0.2,0.1,0.3,0.2,0.6,0.5c-5.4,8.7-12.3,16-20.5,22.1c-15.3,11.3-32.6,16.8-51.5,16.5c-19.9-0.4-37.7-7.1-52.8-20.1
					c-15.4-13.2-24.9-30-28.1-49.9c-6.8-42.4,18-76.1,46.8-89.4C1214.9,530.5,1259.3,550.5,1278,581.2z"/>
			</g>
		</g>
	</g>
</g>
<g id="Frogger">
	<g id="Frogger_Whole_1_">
		<g>
			<path d="M403.9,410c-4,0-8,0-12,0c0-0.5,0-1,0-1.6c0-11,0-22,0-33c0-0.5,0-0.9,0-1.4c-4.1,0-8,0-12.1,0c0,4,0,7.9,0,11.9
				c-4,0-7.9,0-12,0c0,4,0,8,0,11.9c-16.1,0-32,0-48,0c0-4,0-7.9,0-11.9c-4,0-8,0-12,0c0-4.1,0-8,0-11.9c-4,0-8,0-12,0
				c0,3.9,0,7.7,0,11.5c0,8.2,0,16.3,0,24.5c-4,0-8,0-12,0c0-4,0-8,0-12.1c-4.1,0-8,0-11.9,0c0-4,0-8,0-12c4,0,7.9,0,12,0
				c0-8,0-16,0-24c8.1,0,16,0,23.9,0c0-4,0-7.9,0-12c-8,0-15.9,0-24,0c0-8.1,0-16,0-24c-4,0-7.9,0-11.9,0c0-4,0-8,0-12
				c4,0,7.9,0,12,0c0-4,0-8,0-11.9c4.1,0,8,0,12,0c0,12,0,23.9,0,35.8c4,0,8,0,12,0c0-8,0-15.9,0-23.9c4,0,7.9,0,12,0
				c0-4,0-8,0-11.9c16.1,0,32,0,48,0c0,4,0,7.9,0,12c4.1,0,8,0,12,0c0,8,0,15.9,0,23.9c4,0,8,0,12,0c0-12,0-23.9,0-35.8
				c4,0,8,0,12,0c0,4,0,7.9,0,11.9c4.1,0,8,0,12,0c0,4,0,8,0,12c-4,0-8,0-12.1,0c0,8,0,15.9,0,24c-8,0-16,0-23.9,0c0,4.1,0,8,0,12
				c8,0,15.9,0,24,0c0,8.1,0,16,0,24c4.1,0,8,0,12,0c0,4,0,8,0,12c-4,0-7.9,0-12,0C403.9,402,403.9,406,403.9,410z"/>
			<path class="st4" d="M403.9,410c0-4,0-7.9,0-12c4.1,0,8,0,12,0c0,4,0,8,0,12C411.9,410,407.9,410,403.9,410z"/>
		</g>
	</g>
	<g id="Frogger_Green">
		<g>
			<path d="M490.1,338.9c0,3.8,0,7.6,0,11.7c-8,0-15.7,0-23.9,0c0-7.7,0-15.4,0-23.6c-4.2,0-7.9,0-11.9,0c0-4.1,0-7.7,0-11.8
				c3.6,0,7.4,0,11.8,0c0-4.4,0-8.3,0-12.2c4,0,8,0,12,0c0,11.9,0,23.8,0,35.9C482.5,338.9,486.3,338.9,490.1,338.9z"/>
			<path d="M598,327c-3.8,0-7.6,0-11.8,0c0,8,0,15.7,0,23.7c-8.2,0-15.8,0-24.1,0c0-3.9,0-7.8,0-11.7l-0.1,0.1c3.8,0,7.6,0,12.1,0
				c0-12.3,0-24.2,0-36.1c4,0,8,0,12,0c0,3.9,0,7.8,0,12c4.4,0,8.2,0,12,0C598,319,598,323,598,327z"/>
			<path d="M490.2,374.7c-3.9,0-7.8,0-12.2,0c0,12.6,0,24.4,0,36.3c-4,0-8,0-12,0c0-3.8,0-7.6,0-11.9c-4.1,0-7.8,0-11.7,0
				c0-4.1,0-7.7,0-11.9c3.7,0,7.4,0,11.6,0c0-8.2,0-16,0-23.9c8.1,0,15.7,0,24.2,0c0,3.8,0,7.7,0,11.6
				C490.1,374.9,490.2,374.7,490.2,374.7z"/>
			<path d="M574,411c0-11.8,0-23.6,0-36.1c-4.2,0-8.1,0-12.1,0l0.1,0.1c0-3.8,0-7.6,0-11.7c7.9,0,15.5,0,23.7,0c0,7.6,0,15.3,0,23.7
				c4.4,0,8.3,0,12.2,0c0,4,0,8,0,12c-3.9,0-7.8,0-12,0c0,4.4,0,8.2,0,12C582,411,578,411,574,411z"/>
			<path d="M513.9,315.1c0-4,0-8,0.1-12.1c4,0,8,0,12,0c0,3.8,0,7.6,0,12.1C521.8,315.1,517.9,315.1,513.9,315.1z"/>
			<path d="M489.9,339.1c0-3.8,0-7.6,0-11.9c4,0,7.7,0,11.9,0c0-4.2,0-7.9,0-12.3c4.4,0,8.3,0,12.2,0c0,7.8,0,15.6,0,24.1
				C505.8,339.1,497.9,339.1,489.9,339.1z"/>
			<path d="M562.1,338.9c-7.8,0-15.6,0-23.7,0c0-7.9,0-15.6,0-23.6c3.7,0,7.4,0,11.5,0c0,3.7,0,7.3,0,11.5c4.1,0,7.8,0,12.1,0
				c0,4.4,0,8.4,0,12.3C561.9,339.1,562.1,338.9,562.1,338.9z"/>
			<path d="M502.1,375.1c0-7.8,0-15.6,0-23.7c3.9,0,7.6,0,11.8,0c0,7.9,0,15.8,0,23.7l0.1-0.1c-4,0-8.1,0-12.1,0L502.1,375.1z"/>
			<path d="M502.1,386.9c-3.8,0-7.5,0-11.8,0c0-4.1,0-8.2,0-12.2l-0.1,0.2c4,0.1,8,0.1,12,0.2l-0.1-0.1c0,4,0,8.1,0,12.1V386.9z"/>
			<path d="M513.9,375.1c3.8,0,7.6,0,11.7,0c0,3.9,0,7.6,0,11.9c-3.9,0-7.8,0-11.7,0l0.1,0.1c0-4,0-8.1,0-12.1L513.9,375.1z"/>
			<path d="M561.9,374.9c0,3.8,0,7.6,0,12c-4.1,0-8.1,0-12,0l0.1,0.1c0-3.8,0-7.6,0-12c4.1,0,8.1,0,12,0
				C562.1,375.1,561.9,374.9,561.9,374.9z"/>
			<path d="M513.9,386.9c0,3.8,0,7.6,0,11.7c-3.9,0-7.6,0-11.9,0c0-3.9,0-7.8,0-11.7l-0.1,0.1c4,0,8.1,0,12.1,0L513.9,386.9z"/>
			<path d="M549.9,386.9c0,3.8,0,7.6,0,11.7c-3.9,0-7.6,0-11.6,0c0-3.6,0-7.3,0-11.6c3.9,0,7.8,0,11.8,0
				C550.1,387.1,549.9,386.9,549.9,386.9z"/>
		</g>
	</g>
	<g id="Frogger_Yellow">
		<g>
			<path d="M656,305c8,0,16,0,24,0c0,3.9,0,7.8,0,12.3c-4.4,0-8.1,0-11.7,0c0,8.1,0,15.7,0,23.8c8,0,15.7,0,23.4,0
				c0,12.2,0,23.9,0,36.2c-4,0-7.8,0-11.8,0c0,4.1,0,7.7,0,11.8c-4.1,0-7.8,0-11.8,0c0,4.3,0,8.1,0,11.9c-8,0-16,0-24,0
				c0-4-0.1-8-0.1-12.1c3.9,0,7.8,0,11.7,0c0-4.3,0-8,0-11.9c-4.1,0-7.9,0-11.7,0c0-7.9,0-15.8,0-23.7c-4.3,0-8,0-11.9,0
				c0,8.1,0,15.9,0,23.7c-4,0-8-0.1-12.1-0.1c0-12,0-24,0-36c7.9,0,15.8,0,24.1,0c0-8.5,0-16.3,0-24.1l-0.1,0.1c3.9,0,7.8,0,12.1,0
				C656,312.6,656,308.8,656,305z"/>
			<path d="M644.1,316.9c-3.8,0-7.6,0-12.1,0c0-4.1,0-8,0-11.9c4,0,8,0,12,0c0,4,0,8-0.1,12.1L644.1,316.9z"/>
			<path d="M644.1,376.9c0,4,0,8.1,0,12.1c-3.8,0-7.6,0-12.1,0c0-4.3,0-8.2,0-12.1C636,376.9,640,376.9,644.1,376.9z"/>
		</g>
	</g>
	<g id="Frogger_Purple">
		<g>
			<circle class="st3" cx="725" cy="354" r="8.5"/>
			<circle class="st3" cx="785" cy="354" r="8.5"/>
			<path class="st3" d="M791,360"/>
			<path class="st3" d="M791,348"/>
		</g>
	</g>
</g>
<g id="Galaga">
	<g id="Galaga_Whole">
		<g>
			<path d="M64.9,163.6c0-20,0-40,0-60c4,0,8,0,12.1,0c0,8.1,0,16,0,23.9c8,0,16,0,24,0c0-4,0-7.9,0-12c4,0,8,0,12,0c0-4,0-8,0-12
				c4,0,8,0,12,0c0-4,0-8,0-11.9c4,0,8,0,12,0c0,4,0,7.9,0,12c4,0,8,0,12,0c0,4,0,8,0,12c4,0,8,0,12,0c0,4,0,8,0,11.9c8,0,16,0,24,0
				c0-8,0-15.9,0-23.9c4,0,8,0,11.9,0c0,20,0,39.9,0,60c-4,0-7.9,0-11.9,0c0,4,0,8,0,12c-4,0-8,0-12,0c0,4,0,8,0,12c-4,0-8,0-12,0
				c0,4,0,8,0,11.9c-4.1,0-8,0-12,0c0-12,0-23.9,0-35.8c-4.1,0-8,0-12,0c0,0.5,0,1,0,1.5c0,19,0,37.9,0,56.9c0,0.5,0,1,0,1.6
				c-4,0-8,0-12,0c0-0.2,0-0.4,0-0.6c0-19.5,0-39,0-58.4c0-0.3-0.1-0.6-0.1-0.9c-4,0-7.9,0-11.9,0c0,12,0,23.9,0,35.9c-4,0-8,0-12,0
				c0-4,0-7.9,0-12c-4,0-8,0-12,0c0-4,0-8,0-12c-4,0-8,0-12,0c0-4,0-8,0-12C72.8,163.6,68.8,163.6,64.9,163.6z"/>
		</g>
	</g>
	<g id="Galaga_Blue_1_">
		<g>
			<path class="st5" d="M211.9,103.7c4,0,7.9,0,12,0c0,16,0,31.9,0,47.9c4,0,7.9,0,12,0c0,4,0,8,0,12c4.1,0,8,0,12,0c0,4,0,7.9,0,12
				c4,0,8,0,12,0c0,8.1,0,16.1,0,24.1c-4,0-8,0-12,0c0-4,0-8,0-12.1c-4,0-8,0-12,0c0-4.1,0-8,0-12c-4,0-7.9,0-12,0c0-4,0-8,0-11.9
				c-4.1,0-8.1,0-12,0C211.9,143.7,211.9,123.7,211.9,103.7z"/>
			<path class="st5" d="M295.9,199.7c0-7.5,0-15,0-22.4c0-0.5,0-0.9,0-1.6c4,0,7.9,0,12,0c0-4.1,0-8,0-12c4,0,7.9,0,12,0
				c0-4,0-8,0-12c4.1,0,8,0,12,0c0-16,0-31.9,0-47.9c4,0,8,0,12,0c0,19.9,0,39.8,0,59.9c-3.9,0-7.9,0-11.9,0c0,4.1,0,8,0,12
				c-4,0-7.9,0-12,0c0,4,0,8,0,12c-4.1,0-8,0-12.1,0c0,4.1,0,8.1,0,12.1C303.9,199.7,299.9,199.7,295.9,199.7z"/>
		</g>
	</g>
	<g id="Galaga_Yellow_1_">
		<g>
			<path class="st6" d="M331.9,127.7c0,7.8,0,15.7,0,23.5c0,0.1,0,0.2-0.1,0.4c-3.9,0-7.8,0-11.9,0c0,4,0,8,0,12c-4,0-8,0-12,0
				c0,4,0,8,0,12c-4,0-8,0-12,0c0-3.9,0-7.8,0-11.9c-4,0-8,0-12,0c0,19.9,0,39.8,0,59.9c-4,0-7.9,0-12,0c0-19.9,0-39.8,0-59.8
				c-4,0-7.9,0-12,0c0,3.9,0,7.8,0,11.8c-4,0-8,0-12,0c0-3.9,0-7.8,0-11.9c-4,0-8,0-12,0c0-4,0-8,0-12c-4.1,0-8.1,0-12.1,0
				c0-8,0-15.9,0-24c4,0,8,0,12,0c0,4,0,7.9,0,11.9c8.1,0,16,0,24,0c0-4,0-8,0-11.9c4,0,8,0,12,0c0,8,0,15.9,0,23.9
				c4.1,0,8.1,0,12,0c0-8,0-16,0-23.9c4,0,8,0,12,0c0,4,0,7.9,0,11.9c8.1,0,16,0,24,0c0-4,0-8,0-11.9
				C323.9,127.7,327.9,127.7,331.9,127.7z"/>
		</g>
	</g>
	<g id="Galaga_Red_1_">
		<g>
			<path class="st7" d="M271.8,151.7c0-7.5,0-15,0-22.4c0-0.5,0-0.9,0-1.5c-4,0-7.9,0-12,0c0,3.9,0,7.8,0,11.8c-8.1,0-16,0-23.9,0
				c0-3.9,0-7.9,0-11.9c3.9,0,7.8,0,11.8,0c0-4,0-7.9,0-12c4,0,8,0,12,0c0-4.1,0-8,0-12c4,0,8,0,12,0c0-4.1,0-8,0-11.9
				c4,0,7.9,0,12,0c0,3.9,0,7.9,0,11.9c4.1,0,8,0,12,0c0,4,0,7.9,0,12c4,0,8,0,12,0c0,4.1,0,8,0,12.1c4.1,0,8.1,0,12.1,0
				c0,4,0,8,0,12c-8,0-16,0-24.1,0c0-4.1,0-8,0-11.9c-4,0-8,0-11.9,0c0,8,0,16,0,23.9C279.8,151.7,275.8,151.7,271.8,151.7z"/>
		</g>
	</g>
</g>
<g id="Chef">
	<g id="Burger_Whole">
		<g>
			<path d="M691.9,217.8c-10,0-20,0-30,0c0-3.3,0-6.7,0-10.1c3.4,0,6.6,0,9.9,0c0-6.7,0-13.2,0-20c-6.7,0-13.2,0-20,0
				c0-10.1,0-20,0-30c-3.4,0-6.6,0-10,0c0-3.4,0-6.6,0-10c-3.4,0-6.6,0-10,0c0-3.4,0-6.7,0-10.1c-3.4,0-6.7,0-10,0c0-10,0-20,0-30
				c6.6,0,13.3,0,20,0c0,6.8,0,13.4,0,20.1c3.4,0,6.7,0,10,0c0,3.4,0,6.6,0,9.8c3.4,0,6.6,0,9.9,0c0-20,0-39.9,0-60
				c-3.3,0-6.6,0-9.8,0c0-6.7,0-13.3,0-19.8c33.4,0,66.6,0,99.9,0c0,6.6,0,13.2,0,19.9c-3.3,0-6.6,0-9.9,0c0,20,0,39.9,0,59.9
				c6.6,0,13.2,0,20,0c0,3.4,0,6.7,0,10.1c3.4,0,6.6,0,10,0c0,3.4,0,6.7,0,10.1c3.4,0,6.7,0,10,0c0,10,0,20,0,30
				c-6.6,0-13.2,0-20.1,0c0-6.8,0-13.4,0-20.1c-0.9,0-1.5,0-2.2,0c-2.5,0-5.1-0.1-7.7-0.1c0-3.2,0-6.5,0-9.7c-3.5,0-6.7,0-10,0
				c0,3.3,0,6.5,0,9.8c1.5,0,2.8,0,4.2,0c1.9,0,3.9-0.1,5.8-0.1c0,0.5-0.1,1-0.1,1.4c0,5.8,0,11.6,0,17.4c0,0.4,0,0.9,0,1.4
				c-3.4,0-6.6,0-10,0c0,6.7,0,13.3,0,19.9c-6.7,0-13.3,0-20,0c0-3.3,0-6.6,0-10c-3.4,0-6.7,0-10,0c0-3.3,0-6.6,0-9.8
				c-6.7,0-13.3,0-19.9,0C691.9,197.9,691.9,207.8,691.9,217.8z"/>
		</g>
	</g>
	<g id="Burger_White">
		<g>
			<path class="st8" d="M631.7,136.4c3.3,0,6.6,0,10.1,0c0-3.4,0-6.6,0-10c3.4,0,6.6,0,10,0c0,3.2,0,6.5,0,9.9c6.7,0,13.3,0,20,0
				c0,3.4,0,6.6,0,10c3.4,0,6.7,0,10,0c0,3.4,0,6.6,0,9.9c3.4,0,6.6,0,10,0c0-3.3,0-6.5,0-9.8c6.7,0,13.3,0,20,0c0,3.3,0,6.5,0,9.8
				c3.4,0,6.6,0,10,0c0-3.3,0-6.5,0-9.9c3.4,0,6.6,0,10,0c0-3.4,0-6.6,0-9.9c10,0,20,0,30,0c0,3.2,0,6.4,0,9.8c3.4,0,6.6,0,10,0
				c0,3.4,0,6.7,0,10.1c3,0,5.9,0,8.7,0c0.5,0,0.9,0.1,1.4,0.2c0,6.6,0,13.1,0,19.7c-0.4,0-0.7,0.1-1.1,0.1c-6,0-12,0-18,0
				c-0.3,0-0.7-0.1-1.1-0.1c0-3.3,0-6.6,0-9.8c-3.4,0-6.6,0-10,0c0,6.7,0,13.2,0,19.8c-33.4,0-66.6,0-100,0c0-10,0-19.9,0-29.9
				c-3.4,0-6.6,0-10,0c0-3.4,0-6.7,0-10c-1.1,0-2,0-2.9,0c-2.4,0-4.8-0.1-7.2-0.1C631.7,143,631.7,139.7,631.7,136.4z M751.7,156.5
				c-3.4,0-6.6,0-9.9,0c0,3.3,0,6.6,0,9.9c3.3,0,6.6,0,9.9,0C751.7,163,751.7,159.8,751.7,156.5z M681.9,166.5c0,3.2,0,6.5,0,9.8
				c3.3,0,6.5,0,9.8,0c0-3.3,0-6.5,0-9.8C688.4,166.5,685.2,166.5,681.9,166.5z M721.7,176.3c0-3.3,0-6.6,0-9.8c-3.3,0-6.6,0-9.8,0
				c0,3.3,0,6.6,0,9.8C715.2,176.3,718.4,176.3,721.7,176.3z"/>
			<path class="st8" d="M751.7,57.8c0,0.3,0.1,0.6,0.1,0.9c0,6.1,0,12.2,0,18.2c0,0.3-0.1,0.5-0.1,0.9c-3.3,0-6.5,0-9.8,0
				c0,13.4,0,26.6,0,39.9c-3.4,0-6.6,0-10,0c0-3.3,0-6.5,0-9.8c-20,0-40,0-60,0c0,3.3,0,6.5,0,9.8c-3.4,0-6.6,0-10,0
				c0-13.3,0-26.5,0-39.9c-3.4,0-6.7,0-10,0c0-6.8,0-13.5,0-20.1C685.1,57.8,718.4,57.8,751.7,57.8z M681.9,67.9c0,10,0,20,0,29.9
				c3.3,0,6.6,0,10,0c0-3.3,0-6.5,0-9.8c6.7,0,13.3,0,20,0c0,3.3,0,6.6,0,9.8c3.4,0,6.7,0,9.9,0c0-10,0-19.9,0-29.8
				c-3.3,0-6.6,0-9.9,0c0,3.3,0,6.5,0,9.8c-6.7,0-13.3,0-20,0c0-0.5,0-0.9,0-1.4c0-2.5,0-5,0-7.6c0-0.3-0.4-1-0.6-1
				C688.1,67.9,685,67.9,681.9,67.9z"/>
			<path class="st8" d="M915.9,116.5c0,3.4,0,6.6,0,9.9c-3.3,0-6.5,0-9.8,0c0-3.3,0-6.5,0-9.9C909.3,116.5,912.6,116.5,915.9,116.5z
				"/>
			<path class="st8" d="M945.9,116.5c0,3.3,0,6.5,0,9.8c-3.3,0-6.5,0-9.9,0c0-3.3,0-6.5,0-9.8C939.3,116.5,942.5,116.5,945.9,116.5z
				"/>
		</g>
	</g>
	<g id="Burger_Yellow">
		<g>
			<path class="st6" d="M846,106.4c6.6,0,13.3,0,20,0c0,10,0,19.9,0,30c-6.7,0-13.3,0-20,0C846,126.4,846,116.4,846,106.4z"/>
			<path class="st6" d="M896.2,206.5c0-0.4-0.1-0.7-0.1-1.1c0-6,0-12.1,0-18.1c0-0.3,0.1-0.6,0.1-1c6.6,0,13.2,0,20,0
				c0,6.7,0,13.4,0,20.1C909.4,206.5,902.8,206.5,896.2,206.5z"/>
			<path class="st6" d="M956,136.3c0,3.4,0,6.6,0,9.9c-20,0-39.9,0-60,0c0-3.2,0-6.5,0-9.9c-3.4,0-6.6,0-9.9,0c0-6.7,0-13.3,0-20
				c3.2,0,6.5,0,9.9,0c0-3.4,0-6.6,0-9.9c20.1,0,40,0,60,0c0,3.3,0,6.5,0,9.9c3.4,0,6.6,0,9.9,0c0,6.7,0,13.3,0,20
				C962.7,136.3,959.5,136.3,956,136.3z M906.1,126.2c3.4,0,6.7,0,9.9,0c0-3.3,0-6.5,0-9.8c-3.3,0-6.6,0-9.9,0
				C906.1,119.8,906.1,122.9,906.1,126.2z M946,116.5c-3.3,0-6.6,0-9.9,0c0,3.3,0,6.5,0,9.8c3.3,0,6.6,0,9.9,0
				C946,122.9,946,119.7,946,116.5z"/>
			<path class="st6" d="M1006,186.3c-6.7,0-13.2,0-19.8,0c0-3.3,0-6.5,0-9.9c6.6,0,13.2,0,19.8,0C1006,179.8,1006,183,1006,186.3z"
				/>
			<path class="st6" d="M956,186.4c0,3.3,0,6.6,0,9.9c-6.6,0-13.2,0-19.8,0c0-3.3,0-6.6,0-9.9C942.7,186.4,949.3,186.4,956,186.4z"
				/>
		</g>
	</g>
	<g id="Burger_Red">
		<g>
			<path class="st7" d="M946,96.4c-3.3,0-6.6,0-10,0c0-3.3,0-6.6,0-9.9c-6.7,0-13.2,0-20,0c0,3.3,0,6.5,0,9.9c-3.5,0-6.8,0-10.1,0
				c0-10,0-20,0-30c3.4,0,6.7,0,10.1,0c0,3.3,0,6.6,0,10c6.7,0,13.2,0,19.9,0c0-3.4,0-6.7,0-10c3.4,0,6.7,0,10.1,0
				C946,76.4,946,86.4,946,96.4z"/>
			<path class="st7" d="M905.9,146.3c3.3,0,6.5,0,9.9,0c0,3.4,0,6.7,0,10.1c-3.3,0-6.6,0-9.9,0C905.9,153,905.9,149.7,905.9,146.3z"
				/>
			<path class="st7" d="M946,156.4c-3.3,0-6.6,0-10,0c0-3.3,0-6.6,0-10.1c3.3,0,6.7,0,10,0C946,149.7,946,153,946,156.4z"/>
			<path class="st7" d="M905.9,166.5c3.3,0,6.6,0,10,0c0,3.3,0,6.5,0,9.8c-3.4,0-6.7,0-10,0C905.9,173,905.9,169.8,905.9,166.5z"/>
			<path class="st7" d="M946,176.3c-3.3,0-6.6,0-10,0c0-3.3,0-6.5,0-9.8c3.3,0,6.7,0,10,0C946,169.8,946,173,946,176.3z"/>
		</g>
	</g>
	<g id="Burger_Green">
		<g>
			<path class="st9" d="M964,207c-0.5,0-0.9-0.1-1.4-0.1c-5.7,0-11.3,0-17,0c-0.5,0-0.9,0-1.5,0c0-3.4,0-6.6,0-9.9
				c3.3,0,6.5,0,10.1,0c0-3.5,0-6.8,0-10.1c3.3,0,6.6,0,9.8,0C964,193.6,964,200.3,964,207z"/>
			<path class="st9" d="M884.1,216.8c0-3.3,0-6.5,0-9.8c9.9,0,19.9,0,29.9,0c0,3.3,0,6.5,0,9.8C904,216.8,894.1,216.8,884.1,216.8z"
				/>
		</g>
	</g>
	<g id="Burger_Ligth_Brown_Face">
		<g id="_x39_ADpRN.tif">
			<g>
				<path d="M664,103c0,3.1,0,6.3,0,9.9c3.4,0,6.5,0,9.8,0c0,6.8,0,13.1,0,19.9c-3,0-6.1,0-9.7,0c0,3.6,0,6.6,0,10
					c-20.1,0-39.7,0-59.8,0c0-2.9,0-6,0-9.6c-3.6,0-6.6,0-10,0c0-6.9,0-13.3,0-20c3.1,0,6.1,0,9.7,0c0-3.6,0-6.8,0-10.1
					C624,103,644,103,664,103z M614.4,113.1c0,3.2,0,6.3,0,9.6c3.2,0,6.3,0,9.2,0c0-3.4,0-6.4,0-9.6
					C620.4,113.1,617.6,113.1,614.4,113.1z M644.4,113.2c0,3.6,0,6.6,0,9.5c3.3,0,6.3,0,9.3,0c0-3.3,0-6.4,0-9.5
					C650.4,113.2,647.5,113.2,644.4,113.2z"/>
				<path d="M574,103c0,9.8,0,19.6,0,30c-6.9,0-13.4,0-20,0c0-10,0-20,0-30C560.7,103,567.3,103,574,103z"/>
				<path d="M714,183c-6.4,0-12.9,0-19.6,0c0-3.3,0-6.3,0-10c6.5,0,13.1,0,19.6,0C714,176.3,714,179.7,714,183z"/>
			</g>
		</g>
	</g>
	<g id="Burger_Dark_Brown">
		<g>
			<path d="M604,170c6.4,0,12.9,0,20,0c0,6.9,0,13.4,0,20c-6.7,0-13.3,0-20,0C604,183.3,604,176.7,604,170z"/>
			<path d="M664,180c-6.4,0-12.9,0-19.7,0c0-3.3,0-6.3,0-10c6.5,0,13.1,0,19.7,0C664,173.3,664,176.7,664,180z"/>
			<path d="M624,100c0,3.1,0,6.2,0,9.7c-3.3,0-6.3,0-10,0c0-3.2,0-6.4,0-9.7C617.3,100,620.7,100,624,100z"/>
			<path d="M654,100c0,3.1,0,6.2,0,9.7c-3.3,0-6.3,0-10,0c0-3.2,0-6.4,0-9.7C647.3,100,650.7,100,654,100z"/>
		</g>
	</g>
</g>
<g id="Robotron">
	<g id="Whole">
		<g id="E80xf9.tif">
			<g>
				<path d="M44.3,607.9c0-13.3,0-26.7,0-40c9.9,0,19.8,0,29.6,0c0-3.7,0-6.7,0-10.1c-3.3,0-6.2,0-9.4,0c0-6.7,0-13.1,0-20
					c3.3,0,6.4,0,9.7,0c0-3.6,0-6.8,0-9.9c10,0,20,0,30,0c0,3.3,0,6.5,0,10.3c3.7,0,6.8,0,9.8,0c0,6.8,0,13,0,19.8
					c-3.3,0-6.3,0-9.4,0c0,3.6,0,6.6,0,9.9c10.1,0,19.9,0,29.7,0c0,13.3,0,26.7,0,40c-3.3,0-6.5,0-10.1,0c0-7,0-13.3,0-19.7
					c-3.4,0-6.5,0-10.1,0c0,3.4,0,6.4,0,9.8c-3.5,0-6.4,0-9.5,0c0,6.8,0,13.1,0,20.1c3.4,0,6.4,0,9.8,0c0,10.1,0,19.7,0,29.9
					c3.4,0,6.5,0,9.9,0c0,3.7,0,6.8,0,9.9c-10,0-20,0-30,0c0-13.2,0-26.5,0-39.6c-3.7,0-6.8,0-10.2,0c0,6.7,0,12.9,0,19.3
					c-10.1,0-19.8,0-29.4,0c0-3.4,0-6.4,0-9.8c3.3,0,6.3,0,9.7,0c0-6.7,0-13.1,0-20c3.6,0,6.7,0,9.6,0c0-3.5,0-6.4,0-9.9
					c-3.3,0-6.4,0-9.9,0c0-3.6,0-6.7,0-9.7c-3.5,0-6.4,0-9.9,0c0,6.6,0,13,0,19.8C50.6,607.9,47.5,607.9,44.3,607.9z"/>
			</g>
		</g>
	</g>
	<g id="Red">
		<g id="_x38_Qk6Oj.tif_1_">
			<g>
				<path d="M215.6,579.9c3.1,0,6.3,0,9.9,0c0-3.4,0-6.5,0-9.8c6.9,0,13.3,0,19.9,0c0,3.2,0,6.1,0,9.6c-3.1,0-6.1,0-9.7,0
					c0,3.6,0,6.6,0,10c-3.5,0-6.4,0-9.9,0c0,3.4,0,6.5,0,10c-3.6,0-6.6,0-9.9,0c0,6.8,0,13,0,19.8c3,0,6,0,9.7,0
					c0,10.4,0,20.3,0,30.3c-6.7,0-13.3,0-20,0c0-9.9,0-19.8,0-29.6c-3.7,0-6.8,0-10.2,0c0,3.3,0,6.2,0,9.3c-6.7,0-13.1,0-19.5,0
					c0-6.7,0-13.1,0-20c3.4,0,6.5,0,9.4,0c0-3.5,0-6.4,0-9.8c-3.3,0-6.4,0-10,0c0-3.6,0-6.6,0-10c-3.5,0-6.4,0-9.9,0
					c0-3.4,0-6.5,0-9.8c-3.7,0-6.8,0-9.9,0c0-3.3,0-6.7,0-10c6.4,0,12.9,0,19.8,0c0,3.3,0,6.3,0,10.1c3.7,0,7,0,10.2,0l-0.1-0.1
					c0,3.3,0,6.5,0,10.3c3.7,0,6.8,0,10.3,0c0,3.6,0,6.6,0,9.6c3.5,0,6.4,0,9.8,0c0-3.3,0-6.4,0-9.9c3.6,0,6.6,0,10,0
					C215.5,586.3,215.5,583.1,215.6,579.9L215.6,579.9z"/>
				<path d="M185.7,579.9c0-6.5,0-12.9,0-19.7c9.9,0,19.6,0,29.9,0c0,6.6,0,13.1,0,19.7l0.1-0.1c-10,0-20.1,0-30.1,0L185.7,579.9z"
					/>
				<path d="M185.9,539.6c0-3.2,0-6.1,0-9.4c9.8,0,19.5,0,29.5,0c0,3.1,0,6.1,0,9.4C205.6,539.6,196,539.6,185.9,539.6z"/>
			</g>
		</g>
	</g>
	<g id="Yellow">
		<g id="KLzVrA.tif_1_">
			<g>
				<path d="M165.5,577.9c0,9.8,0,19.5,0,30c-3.5,0-6.8,0-10,0c0-10,0-20,0-30C158.9,577.9,162.2,577.9,165.5,577.9z"/>
				<path d="M245.5,607.9c-3.1,0-6.3,0-10,0c0-10.2,0-20.1,0-30c3.3,0,6.7,0,10,0C245.5,587.9,245.5,597.9,245.5,607.9z"/>
				<path d="M205.5,657.9c0-3.1,0-6.2,0-9.7c10,0,19.6,0,30,0c0,3.2,0,6.4,0,9.7C225.5,657.9,215.5,657.9,205.5,657.9z"/>
				<path d="M195.3,628.2c0,3.3,0,6.2,0,9.4c-9.8,0-19.4,0-29.4,0c0-3,0-6,0-9.4C175.5,628.2,185.2,628.2,195.3,628.2z"/>
			</g>
		</g>
	</g>
	<g id="White">
		<g id="bOHJ0V.tif_1_">
			<g>
				<path d="M195.5,599.8c0-3.1,0-6.2,0-9.8c-3.3,0-6.4,0-9.9,0c0-3.7,0-7,0-10.2l-0.1,0.1c10-0.1,20.1-0.1,30.1-0.2
					c0,3.2,0,6.5,0,10.2c-3.7,0-6.7,0-10.1,0c0,3.6,0,6.7,0,9.9C202.1,599.8,198.8,599.8,195.5,599.8z"/>
				<path d="M225.5,579.8c-3.4,0-6.7,0-10.1,0.1c0-3.1,0-6.3,0-10.1c3.6,0,6.8,0,10.1,0C225.5,573.1,225.5,576.5,225.5,579.8z"/>
				<path d="M185.6,579.8c-3.1,0-6.3,0-9.7,0c0-3.2,0-6.2,0-9.6c3,0,6,0,9.6,0c0,3.3,0,6.5,0,9.8
					C185.4,579.9,185.6,579.8,185.6,579.8z"/>
			</g>
		</g>
	</g>
	<g id="Purple">
		<g id="c0cuVj_1_">
			<g>
				<path d="M225.5,560.2c-16.7,0-33.2,0-49.7,0c0-3.3,0-6.6,0-9.9c16.5,0,33.1,0,49.7,0C225.5,553.5,225.5,556.8,225.5,560.2z"/>
			</g>
		</g>
	</g>
	<g id="Green">
		<g id="yJu3CD_2_">
			<g>
				<path d="M225.5,550.5c-16.7,0-33.2,0-49.7,0c0-3.3,0-6.6,0-9.9c16.5,0,33.1,0,49.7,0C225.5,543.8,225.5,547.2,225.5,550.5z"/>
			</g>
		</g>
	</g>
</g>
<g id="Qbert">
	<g id="Whole_1_">
	</g>
	<g id="Whole_2_">
		<path d="M768.2,318.8c11.2,0,22.4,0,33.6,0c0,1.9,0,3.8,0,5.8c3.8,0,7.4,0,11.1,0c0,1.8,0,3.5,0,5.4c2,0,3.8,0,5.7,0
			c0,2,0,3.7,0,5.7c3.7,0,7.3,0,11.1,0c0,3.8,0,7.4,0,11.1c2,0,3.7,0,5.7,0c0,3.8,0,7.6,0,11.4c1.9,0,3.6,0,5.2,0
			c0,15,0,29.8,0,44.7c-1.8,0-3.5,0-5.3,0c0,3.7,0,7.3,0,11.1c-2,0-3.8,0-5.7,0c0,2,0,3.7,0,5.7c-1.9,0-3.7,0-5.7,0c0,2,0,3.7,0,5.7
			c-3.7,0-7.3,0-11.1,0c0,1.9,0,3.6,0,5.4c-2,0-3.7,0-5.6,0c0,3.8,0,7.5,0,11.4c1.9,0,3.7,0,5.7,0c0,1.8,0,3.5,0,5.3
			c5.6,0,11.1,0,16.8,0c0,2,0,3.8,0,5.7c3.7,0,7.3,0,11,0c0,1.9,0,3.7,0,5.7c2,0,3.9,0,5.7,0c0,7.4,0,14.8,0,22.2
			c-1.9,0-3.8,0-5.8,0c0,2,0,3.8,0,5.7c-3.7,0-7.3,0-11.1,0c0,2,0,3.8,0,5.7c-5.7,0-11.1,0-16.8,0c0,1.8,0,3.5,0,5.2
			c-18.8,0-37.4,0-56.1,0c0-1.8,0-3.4,0-5.3c-5.6,0-11.1,0-16.8,0c0-2,0-3.8,0-5.7c-3.7,0-7.3,0-11.1,0c0-1.9,0-3.7,0-5.7
			c-2,0-3.7,0-5.6,0c0-7.4,0-14.7,0-22.2c1.9,0,3.7,0,5.7,0c0-2,0-3.7,0-5.7c3.7,0,7.3,0,11.1,0c0-2,0-3.8,0-5.7
			c5.7,0,11.1,0,16.8,0c0-1.8,0-3.5,0-5.4c2,0,3.8,0,5.6,0c0-3.9,0-7.5,0-11.4c-3.7,0-7.3,0-11.1,0c0-1.9,0-3.6,0-5.4
			c-2,0-3.7,0-5.6,0c0-1.9,0-3.7,0-5.3c-0.5-0.3-1-0.5-1.3-0.7s-0.6-0.6-0.8-0.9c-0.3,0.4-0.6,0.8-1,1.4c-0.7,0-1.6,0-2.7,0
			c0,1.9,0,3.7,0,5.7c-1.8,0-3.5,0-5.4,0c0,1.9,0,3.6,0,5.4c-2,0-3.7,0-5.7,0c0,1.9,0,3.7,0,5.7c-2,0-3.7,0-5.7,0c0,1.9,0,3.7,0,5.6
			c-7.5,0-14.8,0-22.2,0c0-1.9,0-3.7,0-5.6c-1.9,0-3.7,0-5.5,0c0-7.6,0-15,0-22.5c1.9,0,3.7,0,5.6,0c0-1.8,0-3.5,0-5.4
			c1.9,0,3.6,0,5.4,0c0-2,0-3.7,0-5.7c1.9,0,3.7,0,5.7,0c0-2,0-3.8,0-5.7c2,0,3.7,0,5.7,0c0-1.8,0-3.5,0-5.3c1.8,0,3.5,0,5.3,0
			c0-1.9,0-3.7,0-5.7c2,0,3.8,0,5.7,0c0-13.2,0-26.1,0-39.3c1.9,0,3.7,0,5.7,0c0-1.9,0-3.6,0-5.4c1.8,0,3.5,0,5.3,0
			c0-1.9,0-3.7,0-5.7c2,0,3.8,0,5.7,0c0-2,0-3.7,0-5.7c3.7,0,7.3,0,11.1,0c0-1.8,0-3.5,0-5.3c3.8,0,7.6,0,11.4,0
			C768.2,322.5,768.2,320.6,768.2,318.8z M796,442c0-2,0-3.7,0-5.5c-7.5,0-14.9,0-22.3,0c0,1.9,0,3.7,0,5.5
			C781.2,442,788.6,442,796,442z"/>
		<rect x="739.9" y="416.8" width="5.9" height="3.1"/>
	</g>
	<g id="Orange">
		<path d="M946.8,475.9c-3.8,0-7.7,0-11.5,0c0-3.7,0-7.5,0-11.2c-3.8,0-7.3,0-11.1,0c0,1.8,0,3.6,0,5.4c-7.6,0-15,0-22.6,0
			c0-1.8,0-3.6,0-5.5c-1.8,0-3.5,0-5.1,0c0-1.9,0-3.7,0-5.5c7.4,0,14.6,0,22,0c0-1.9,0-3.8,0-5.7c2,0,3.8,0,5.7,0
			c0-7.5,0-14.8,0-22.3c-3.7,0-7.3,0-11,0c0-1.9,0-3.6,0-5.5c-1.9,0-3.8,0-5.8,0c0-2,0-3.8,0-5.7c-0.5,0-0.9-0.1-1.3-0.1
			c0-0.4-0.1-0.7-0.1-1.1c-0.4,0-0.7,0-1.1,0.1c-0.1,0.4-0.1,0.8-0.2,1.2c-1,0-2,0-3,0c0,1.9,0,3.8,0,5.8c-1.8,0-3.5,0-5.3,0
			c0,1.9,0,3.6,0,5.5c-1.9,0-3.8,0-5.8,0c0,1.9,0,3.7,0,5.5c-2,0-3.8,0-5.7,0c0,1.9,0,3.8,0,5.6c-7.4,0-14.7,0-22.1,0
			c0-1.9,0-3.8,0-5.8c-2,0-3.8,0-5.7,0c0-7.5,0-14.8,0-22.3c1.9,0,3.8,0,5.8,0c0-1.9,0-3.7,0-5.5c1.8,0,3.5,0,5.3,0
			c0-1.9,0-3.8,0-5.7c2,0,3.8,0,5.7,0c0-1.9,0-3.6,0-5.5c2,0,3.8,0,5.8,0c0-1.9,0-3.6,0-5.5c1.8,0,3.5,0,5.3,0c0-2,0-3.8,0-5.8
			c2,0,3.8,0,5.7,0c0-3.7,0-7.3,0-10.9c2,0,3.8,0,5.8,0c0,1.8,0,3.6,0,5.3c3.7,0,7.3,0,11,0c0-1.8,0-3.6,0-5.4c1.9,0,3.8,0,5.6,0
			c0-7.6,0-15,0-22.6c-1.9,0-3.7,0-5.7,0c0-1.9,0-3.6,0-5.5c-3.8,0-7.4,0-11,0l0,0c0-1.8,0-3.6,0-5.6c1.8,0,3.5,0,5.3,0
			c0-2,0-3.8,0-5.7c1.9,0,3.8,0,5.7,0c0-1.9,0-3.6,0-5.5c3.7,0,7.3,0,11.1,0c0-1.9,0-3.7,0-5.5c3.9,0,7.6,0,11.5,0
			c0-1.9,0-3.8,0-5.6c11.3,0,22.4,0,33.6,0c0,1.9,0,3.7,0,5.7c3.7,0,7.3,0,11.1,0c0,1.9,0,3.7,0,5.5c2,0,3.8,0,5.7,0
			c0,1.9,0,3.6,0,5.5c3.7,0,7.3,0,11,0c0,3.8,0,7.5,0,11.3c2,0,3.8,0,5.8,0c0,3.8,0,7.5,0,11.3c1.8,0,3.5,0,5.1,0
			c0,14.9,0,29.8,0,44.7c-1.8,0-3.4,0-5.2,0c0,3.8,0,7.5,0,11.3c-2,0-3.8,0-5.8,0c0,1.9,0,3.6,0,5.5c-1.9,0-3.8,0-5.7,0
			c0,2,0,3.8,0,5.7c-3.7,0-7.3,0-11.1,0c0,1.9,0,3.7,0,5.5c-2,0-3.8,0-5.6,0c0,9.4,0,18.7,0,28.1c1.9,0,3.8,0,5.6,0
			c0,1.9,0,3.6,0,5.5c-3.7,0-7.3,0-11,0c0,1.9,0,3.7,0,5.5c-5.6,0-11.1,0-16.7,0C946.8,472.2,946.8,474,946.8,475.9z M935.3,380.6
			c0-1.8,0-3.6,0-5.5c2,0,3.9,0,5.7,0c0-7.6,0-15,0-22.5c-1.9,0-3.8,0-5.7,0c0-1.9,0-3.7,0-5.4c-3.7,0-7.3,0-11,0c0,1.8,0,3.6,0,5.5
			c-2,0-3.8,0-5.7,0c0,7.6,0,15,0,22.5c1.9,0,3.8,0,5.7,0c0,1.9,0,3.7,0,5.5C928,380.6,931.5,380.6,935.3,380.6z M957.8,436.6
			c-7.6,0-15,0-22.4,0c0,7.5,0,15,0,22.5c1.9,0,3.7,0,5.7,0c0,1.9,0,3.6,0,5.4c2,0,3.8,0,5.8,0c0-1.8,0-3.6,0-5.4c3.7,0,7.3,0,11,0
			C957.8,451.6,957.8,444.1,957.8,436.6z M879.6,431c1.9,0,3.6,0,5.3,0c0-3.8,0-7.5,0-11.3c-1.7,0-3.4,0-5.3,0c0-1.9,0-3.7,0-5.5
			c-3.9,0-7.6,0-11.5,0c0,1.8,0,3.6,0,5.5c-1.8,0-3.5,0-5.2,0c0,3.8,0,7.5,0,11.3c1.7,0,3.4,0,5.3,0c0,1.9,0,3.7,0,5.5
			c3.9,0,7.6,0,11.4,0C879.6,434.7,879.6,433,879.6,431z"/>
		<path d="M896.4,347c0,1.8,0,3.6,0,5.5c-1.9,0-3.7,0-5.7,0c0-1.8,0-3.5,0-5.4C892.6,347.1,894.5,347.1,896.4,347
			C896.4,347.1,896.4,347,896.4,347z"/>
	</g>
	<g id="Black">
		<path d="M918.2,498.1c0-1.8,0-3.7,0-5.7c-5.6,0-11.1,0-16.8,0c0-2,0-3.7,0-5.7c-3.8,0-7.6,0-11.4,0c0-1.8,0-3.5,0-5.3
			c-1.8,0-3.5,0-5.3,0c0-3.9,0-7.6,0-11.4c1.7,0,3.3,0,5.2,0c0,1.8,0,3.6,0,5.6c3.9,0,7.6,0,11.4,0c0,2,0,3.7,0,5.7
			c5.6,0,11.1,0,16.8,0c0,1.9,0,3.6,0,5.4c18.6,0,37.1,0,55.7,0c0-1.7,0-3.4,0-5.2c5.7,0,11.2,0,16.8,0c0-1.9,0-3.7,0-5.7
			c3.8,0,7.5,0,11.4,0c0-2,0-3.8,0-5.7c1.8,0,3.5,0,5.3,0c0,3.7,0,7.4,0,11.3c-1.7,0-3.4,0-5.2,0c0,1.8,0,3.5,0,5.3
			c-3.8,0-7.6,0-11.4,0c0,2,0,3.8,0,5.7c-5.6,0-11.1,0-16.8,0c0,2,0,3.9,0,5.8C955.4,498.1,936.8,498.1,918.2,498.1z"/>
		<path d="M862.1,419.5c1.8,0,3.7,0,5.7,0c0-1.8,0-3.5,0-5.3c3.7,0,7.3,0,11,0c0,1.7,0,3.4,0,5.3c2,0,3.8,0,5.7,0
			c0,3.9,0,7.5,0,11.4c-1.8,0-3.6,0-5.6,0c0,1.9,0,3.6,0,5.4c-3.7,0-7.3,0-11,0c0-1.6,0-3.3,0-5.3c-2.1,0-3.9,0-5.8,0
			C862.1,427.1,862.1,423.3,862.1,419.5z"/>
		<path d="M890.1,358.1c3.8,0,7.4,0,11.2,0c0,1.8,0,3.6,0,5.6c1.8,0,3.5,0,5.3,0c0,5.7,0,11.2,0,16.8c-3.6,0-7.2,0-10.9,0
			c0-1.8,0-3.6,0-5.5c-1.9,0-3.7,0-5.7,0C890.1,369.2,890.1,363.7,890.1,358.1z"/>
		<path d="M934.9,380.4c-3.8,0-7.5,0-11.2,0c0-1.8,0-3.6,0-5.6c-1.8,0-3.5,0-5.3,0c0-5.7,0-11.2,0-16.8c3.6,0,7.2,0,10.9,0
			c0,1.8,0,3.6,0,5.5c1.9,0,3.7,0,5.7,0C934.9,369.3,934.9,374.8,934.9,380.4z"/>
	</g>
	<g id="White_1_">
		<path d="M906.9,374.5c0-5.5,0-11.1,0-16.8c-5.7,0-11.2,0-16.8,0c0-1.8,0-3.6,0-5.4c1.8,0,3.7,0,5.7,0c0-1.9,0-3.7,0-5.6
			c3.7,0,7.3,0,11,0c0,1.8,0,3.6,0,5.6c2,0,3.8,0,5.8,0c0,7.5,0,14.9,0,22.2C910.7,374.5,908.8,374.5,906.9,374.5z"/>
		<path d="M934.8,374.5c0-5.5,0-11.1,0-16.8c-5.6,0-11.1,0-16.7,0c0-1.9,0-3.6,0-5.4c1.8,0,3.6,0,5.6,0c0-1.9,0-3.7,0-5.6
			c3.8,0,7.4,0,11.1,0c0,1.8,0,3.6,0,5.5c1.9,0,3.7,0,5.8,0c0,7.5,0,14.9,0,22.2C938.6,374.5,936.7,374.5,934.8,374.5z"/>
	</g>
	<g id="Green_1_">
		<path d="M895.6,464.5c1.8,0,3.7,0,5.7,0c0,1.8,0,3.5,0,5.3c7.4,0,14.7,0,22.1,0c0-1.7,0-3.4,0-5.2c3.9,0,7.6,0,11.4,0
			c0,3.6,0,7.2,0,10.9c3.7,0,7.3,0,11,0c0,3.8,0,7.4,0,11.1c-9.2,0-18.4,0-27.7,0c0-1.7,0-3.4,0-5.3c-5.7,0-11.2,0-16.8,0
			c0-1.9,0-3.7,0-5.7c-2,0-3.9,0-5.8,0C895.6,471.9,895.6,468.2,895.6,464.5z"/>
		<path d="M934.9,358c0,1.8,0,3.7,0,5.6c-1.9,0-3.7,0-5.7,0c0-1.9,0-3.7,0-5.6C931.1,358,933,358,934.9,358z"/>
		<path d="M906.7,358c0,1.8,0,3.7,0,5.6c-1.8,0-3.5,0-5.4,0c0-1.9,0-3.7,0-5.6C903.1,358,904.9,358,906.7,358z"/>
	</g>
	<g id="Blue">
		<path d="M996.5,464.6c-5.5,0-11.1,0-16.8,0c0,1.8,0,3.5,0,5.3c-5.6,0-11.1,0-16.7,0c0-1.7,0-3.4,0-5.2c3.6,0,7.2,0,10.9,0
			c0-1.9,0-3.7,0-5.7c-1.7,0-3.4,0-5.3,0c0-5.7,0-11.3,0-16.9c1.8,0,3.6,0,5.4,0c0,1.9,0,3.8,0,5.8c5.7,0,11.2,0,16.8,0
			c0,1.8,0,3.5,0,5.3c2,0,3.9,0,5.7,0C996.5,457,996.5,460.8,996.5,464.6z"/>
		<path d="M957.2,442.1c0,1.8,0,3.7,0,5.6c-3.7,0-7.3,0-11.1,0c0-1.9,0-3.7,0-5.6C949.8,442.1,953.5,442.1,957.2,442.1z"/>
	</g>
	<g id="Yellow_1_">
		<path d="M1007.3,470c-1.7,0-3.5,0-5.3,0c0,1.9,0,3.7,0,5.6c-3.8,0-7.6,0-11.4,0c0,1.9,0,3.6,0,5.4c-5.6,0-11.1,0-16.8,0
			c0,1.9,0,3.7,0,5.7c-9.4,0-18.6,0-27.9,0c0-5.5,0-11,0-16.6c11.1,0,22.2,0,33.5,0c0-2,0-3.8,0-5.7c5.6,0,11.1,0,16.8,0
			c0-3.8,0-7.5,0-11.1c1.9,0,3.8,0,5.7,0c0,1.9,0,3.7,0,5.7c1.9,0,3.7,0,5.4,0C1007.3,462.6,1007.3,466.3,1007.3,470z"/>
		<path class="st4" d="M1093.6,363.8c-1.7,0-3.4,0-5.4,0"/>
	</g>
	<g id="Turquoise">
		<path d="M940.7,458.9c-1.9,0-3.6,0-5.5,0c0-7.4,0-14.8,0-22.2c7.3,0,14.7,0,22.1,0c0,7.3,0,14.7,0,22.2c-3.6,0-7.2,0-10.9,0
			c0,1.9,0,3.8,0,5.7c-1.9,0-3.8,0-5.8,0C940.7,462.7,940.7,460.9,940.7,458.9z"/>
		<path d="M884.8,458.8c1.8,0,3.6,0,5.4,0c0-1.8,0-3.6,0-5.4c3.8,0,7.5,0,11.3,0c0-1.9,0-3.7,0-5.5c5.6,0,11.1,0,16.8,0
			c0-1.9,0-3.8,0-5.7c1.9,0,3.7,0,5.5,0c0,3.7,0,7.4,0,11.2c-1.8,0-3.5,0-5.4,0c0,1.9,0,3.7,0,5.5c-7.5,0-14.8,0-22.3,0
			c0,5.6,0,11.1,0,16.8c-2,0-3.8,0-5.8,0c0-1.7,0-3.5,0-5.4c-1.9,0-3.6,0-5.5,0C884.8,466.4,884.8,462.7,884.8,458.8z"/>
	</g>
</g>
<g id="Dig_Dug">
	<g id="Whole_3_">
		<g>
			<path d="M336,368c10,0,20,0,30,0c0,6.6,0,13.2,0,20.2c7.1,0,13.5,0,20.2,0c0,3.5,0,6.4,0,9.8c6.7,0,13.1,0,19.5,0
				c0,10.2,0,19.9,0,30c-3.5,0-6.6,0-9.7,0c0-6.6,0-13.1,0-19.8c-3.6,0-6.6,0-9.6,0c0,6.7,0,13.1,0,19.6c3.5,0,6.6,0,9.7,0
				c0,3.3,0,6.5,0,10.3c-3.8,0-6.9,0-9.8,0c0,3.5,0,6.4,0,9.9c3.3,0,6.4,0,10,0c0,3.6,0,6.7,0,9.6c3.5,0,6.4,0,9.9,0
				c0-6.7,0-13.1,0-19.3c3.6,0,6.7,0,10.1,0c0,3.3,0,6.3,0,9.7c3.4,0,6.5,0,10.1,0c0,3.6,0,6.7,0,10.1c3.5,0,6.4,0,9.4,0
				c0,3.4,0,6.5,0,10.1c-3.4,0-6.4,0-9.8,0c0,3.5,0,6.4,0,9.9c-3.4,0-6.5,0-10.1,0c0,3.6,0,6.7,0,9.6c-3.5,0-6.4,0-9.9,0
				c0-6.6,0-13,0-19.4c-3.6,0-6.7,0-10.1,0c0,3.3,0,6.3,0,9.7c-3.4,0-6.5,0-10.1,0c0,3.6,0,6.7,0,10.1c-3.5,0-6.4,0-9.5,0
				c0,3.4,0,6.5,0,10c6.7,0,13.1,0,19.4,0c0,3.5,0,6.4,0,9.5c-13.3,0-26.4,0-39.9,0c0-6.7,0-13.1,0-19.4c-10.1,0-19.7,0-29.5,0
				c0,3.3,0,6.4,0,9.9c6.7,0,13.1,0,19.4,0c0,3.5,0,6.4,0,9.5c-13.3,0-26.3,0-39.4,0c0-10,0-19.8,0-29.8c3.3,0,6.2,0,9.3,0
				c0-3.4,0-6.5,0-9.9c-6.8,0-13.2,0-19.7,0c0-3.3,0-6.7,0-10c3.3,0,6.5,0,10.3,0c0-3.7,0-6.8,0-10.2c3.5,0,6.4,0,9.4,0
				c0-3.4,0-6.4,0-9.8c-6.8,0-13.2,0-19.7,0c0-13.3,0-26.7,0-40c3.2,0,6.5,0,10.2,0c0-3.7,0-6.8,0-10.1c3.5,0,6.4,0,9.8,0
				c0-3.4,0-6.4,0-10c6.9,0,13.3,0,19.9,0C336,374.3,336,371.1,336,368z M375.6,408.3c-3.3,0-6.3,0-9.3,0c0,6.6,0,13,0,19.6
				c3.2,0,6.2,0,9.3,0"/>
			<path class="st4" d="M296,438c6.5,0,12.9,0,19.7,0c0,3.4,0,6.4,0,9.8c-3,0-6,0-9.4,0c0,3.4,0,6.4,0,10.2c-3.8,0-7,0-10.3,0"/>
		</g>
	</g>
	<g id="White_2_">
		<g>
			<path d="M533,365c0,6.5,0,12.9,0,19.9c6.7,0,13.1,0,19.8,0c0,3.5,0,6.4,0,9.9c6.7,0,13.1,0,19.8,0c0,3.6,0,6.6,0,10.2
				c-26.4,0-52.8,0-79.4,0c0,6.7,0,13,0,19.8c3,0,6,0,9.6,0c0,3.8,0,7,0,10.3l0.1-0.1c-13.4,0-26.7,0.1-40.1,0.1c0-13.3,0-26.7,0-40
				c3.2,0,6.5,0,10.2,0c0-3.7,0-6.8,0-10.1c3.5,0,6.4,0,9.8,0c0-3.4,0-6.4,0-10c6.9,0,13.3,0,19.9,0c0-3.6,0-6.8,0-9.9
				C513,365,523,365,533,365z"/>
			<path d="M473.2,504.6c0-10,0-19.6,0-29.5c3.2,0,6.1,0,9.6,0c0-3.4,0-6.5,0-9.8c6.9,0,13.3,0,20,0c0,3.1,0,6,0,9.3
				c10.1,0,19.8,0,30,0c0-3,0-6.1,0-9.4c10.1,0,19.7,0,29.7,0c0,3,0,6,0,9.6c-3,0-6,0-9.4,0c0,3.5,0,6.4,0,9.9c-3.4,0-6.5,0-9.8,0
				c0,3.6,0,6.6,0,10.1c6.3,0,12.6,0,19.3,0c0,3.4,0,6.5,0,9.8c-12.9,0-26,0-39.4,0c0-6.3,0-12.6,0-19.3c-10.1,0-19.8,0-29.9,0
				c0,2.9,0,6,0,9.5c6.4,0,12.8,0,19.4,0c0,3.5,0,6.4,0,9.7C499.7,504.6,486.7,504.6,473.2,504.6z"/>
			<path d="M502.9,435.1c16.5,0,32.9,0,49.9,0c0,3.2,0,6.3,0,9.9c3.6,0,6.7,0,9.9,0c0,3.5,0,6.4,0,9.7c-19.7,0-39.4,0-59.7,0
				c0-6.5,0-13.1,0-19.7C503.1,434.9,502.9,435.1,502.9,435.1z"/>
			<path d="M473.1,454.7c0-3.3,0-6.1,0-9.3c3.1,0,6.2,0,9.6,0c0,2.9,0,6,0,9.3C479.6,454.7,476.5,454.7,473.1,454.7z"/>
		</g>
	</g>
	<g id="Blue_1_">
		<g>
			<path d="M483,435.2c6.6,0,13.3-0.1,19.9-0.1l-0.2-0.1c0,6.5,0,13,0,20c10.1,0,19.9,0,30.3,0c0,7.1,0,13.7,0,20.3c-10,0-20,0-30,0
				c0-3.3,0-6.5,0-10.1c-3.7,0-6.6,0-10.1,0c0-3.4,0-6.5,0-9.9c-3.7,0-6.8,0-9.9,0C483,448.5,483,441.8,483,435.2z"/>
			<path class="st4" d="M483,455.2c3.1,0,6.3,0,9.9,0c0,3.4,0,6.5,0,9.9c3.5,0,6.4,0,10.1,0c0,3.6,0,6.9,0,10.1c-6.7,0-13.3,0-20,0
				C483,468.5,483,461.8,483,455.2z"/>
			<path d="M563,425.1c0,3.1,0,6.3,0,9.8c-20.2,0-40.2,0-60.2,0l0.2,0.1c0-3.1,0-6.3,0-9.7c-3.2,0-6.2,0-9.5,0c0-6.7,0-13.1,0-19.8
				c13,0,26,0,39.4,0c0,6.3,0,12.6,0,19.3c3.4,0,6.5,0,10.1,0c0-6.3,0-12.7,0-19.3c3.5,0,6.4,0,9.9,0c0,6.3,0,12.7,0,19.8
				c3.8,0,7,0,10.3,0L563,425.1z"/>
			<path d="M563.1,425.3c0-6.4,0-12.9,0-19.7c3.2,0,6.2,0,9.6,0c0,6.3,0,12.6,0,19.6c-3.3,0-6.5,0-9.8,0
				C563,425.1,563.1,425.3,563.1,425.3z"/>
		</g>
	</g>
	<g id="Black_2_">
		<g id="F76tR2.tif">
			<g>
				<path d="M111,614c3.1,0,6.2,0,10,0c0,6.9,0,13.4,0,20c-3.3,0-6.7,0-10,0C111,627.3,111,620.7,111,614z"/>
				<path d="M131,634c0-6.4,0-12.9,0-19.7c3.3,0,6.3,0,10,0c0,6.5,0,13.1,0,19.7C137.7,634,134.3,634,131,634z"/>
			</g>
		</g>
	</g>
	<g id="Red_2_">
		<g>
			<path d="M572.1,484.5c0-6.5,0-12.9,0-19.9c-13.4,0-26.5,0-39.8,0c0-3.5,0-6.4,0-9.9c13,0,26.1,0,39.7,0c0-6.9,0-13.3,0-19.9
				c3.5,0,6.4,0,9.9,0c0,3,0,6.1,0,9.7c3.6,0,6.6,0,10.1,0c0,3.5,0,6.4,0,10.1c3.6,0,6.9,0,10.1,0c0,3.3,0,6.7,0,10
				c-3.3,0-6.5,0-10.1,0c0,3.7,0,6.6,0,10.1c-3.4,0-6.5,0-9.9,0c0,3.7,0,6.8,0,9.9C578.8,484.5,575.4,484.5,572.1,484.5z"/>
			<path d="M462.3,464.1c0-3.3,0-6.2,0-9.4c9.8,0,19.4,0,29.4,0c0,3,0,6,0,9.4C482.2,464.1,472.4,464.1,462.3,464.1z"/>
		</g>
	</g>
</g>
<g id="Dig_Dug_Baloon">
	<g id="Whole_4_">
		<g>
			<path d="M282,670c0-21,0-42,0-63c2.9,0,5.8,0,9.1,0c0-6.3,0-11.9,0-17.8c3.1-0.2,5.8-0.3,9.1-0.5c0-6.1,0-11.8,0-17.9
				c3.2,0,5.8,0,8.6,0c0.2-3.1,0.3-5.8,0.5-9c3.1,0,5.8,0,8.9,0c0-3.1,0-5.7,0-8.9c6.1,0,11.8,0,18.1,0c0-3.3,0-6,0-8.7
				c27.1,0,53.7,0,80.6,0c0.2,2.9,0.3,5.7,0.5,8.9c6.1,0,11.8,0,17.9,0c0,3.2,0,5.8,0,8.6c3.1,0.2,5.8,0.3,9,0.5c0,3.1,0,5.8,0,8.9
				c3.1,0,5.7,0,8.6,0c0.2,3.1,0.3,5.8,0.5,9.1c3,0,5.8,0,8.8,0c0,9.1,0,17.7,0,26.6c3.1,0.2,5.8,0.3,8.5,0.5c0,21.1,0,41.8,0,62.9
				c-3,0-5.6,0-8.7,0c0,6.1,0,11.8,0,18.1c-3.3,0-6,0-8.7,0c0,6.1,0,11.7,0,17.6c3,0.2,5.7,0.3,8.4,0.4c0,3.1,0,5.8,0,8.5
				c-9,0-17.6,0-26.4,0c-0.2-3-0.3-5.7-0.4-8.4c-3.1,0-5.8,0-8.9,0c0,3,0,5.6,0,8.7c-12.1,0-23.8,0-35.9,0c0,3.3,0,6.1,0,8.9
				c-12,0-24,0-36,0c0-2.9,0-5.8,0-9.3c-6.4,0-12.2,0-18.2,0c0-3.1,0-5.7,0-8.9c-6.1,0-11.8,0-18,0c0-3.2,0-6,0-8.6
				c-9.1,0-17.7,0-26.8,0c0,6,0,11.7,0,17.7c-3.3,0-6.1,0-8.9,0c0-9,0-18,0-27c5.9,0,11.8,0,17.6,0c0-3.4,0-6.1,0-9.2
				c-3,0-5.6,0-8.4,0c-0.1-3.1-0.3-5.8-0.4-8.8C287.6,670,284.8,670,282,670z"/>
		</g>
	</g>
	<g id="Red_3_">
		<g>
			<path d="M663,715c-18,0-36,0-54,0c0-2.9,0-5.8,0-8.7c-3.3,0-6,0-9,0c0,3.1,0,5.9,0,8.7c-9,0-18,0-27,0c0-2.9,0-5.8,0-9.1
				c-6.3,0-11.9,0-17.8,0c-0.2-3.1-0.3-5.8-0.5-9.1c-3,0-5.8,0-9,0c0-3.3,0-6,0-9c-3.1,0-5.7,0-8.9,0c0-3.1,0-5.8,0-9
				c-3.3,0-6,0-9,0c0-3.1,0-5.7,0-8.9c-3.1,0-5.8,0-8.4,0c0-18.2,0-36,0-54c9,0,17.6,0,26.4,0c0.2-3.1,0.3-5.8,0.4-9.1
				c3.1,0,5.8,0,8.9,0c0-3.1,0-5.7,0-8.5c3.1,0,5.8,0,9,0c0,6,0,11.8,0,17.8c3.1,0,5.8,0,8.6,0c0.2,3.1,0.3,5.8,0.5,9
				c6,0,11.8,0,17.8,0c0,3.1,0,5.7,0,8.6c9.1,0,17.8,0,27,0c0-3,0-5.7,0-9c3.3,0,6,0,9,0c0-3.1,0-5.7,0-8.9c3.1,0,5.8,0,9,0
				c0-3.3,0-6,0-8.6c3.1,0,5.7,0,8.9,0c0,3,0,5.7,0,9c3.3,0,6,0,9,0c0,3.1,0,5.7,0,8.5c9.1,0,17.8,0,27,0c0-3,0-5.8,0-8.8
				c3.1,0,5.7,0,8.6,0c0.2-3.1,0.3-5.8,0.5-8.9c6.1,0,11.9,0,17.7,0c0,21,0,42,0,63c-2.9,0-5.8,0-9.2,0c0,6.4,0,12.1,0,18.2
				c-3.1,0-5.7,0-8.8,0c0,6,0,11.8,0,18c-9.2,0-17.9,0-26.9,0C663,709.4,663,712.2,663,715z"/>
			<path d="M590.9,561.8c0,3.5,0,6.1,0,9.1c-5.9,0-11.6,0-17.7,0c0,3.1,0,5.8,0,8.8c-3.2,0.2-6,0.3-9.1,0.5c0,2.8,0,5.5,0,8.6
				c-6.1,0-11.8,0-17.9,0c-0.2,3.2-0.3,6-0.5,9c-2.8,0-5.4,0-8.6,0c0,3.1,0,5.8,0,8.8c-3.2,0-6,0-8.9,0c0-5.8,0-11.4,0-17.5
				c2.7,0,5.4,0,8.7,0c0-6.3,0-12,0-18.1c3.1,0,5.7,0,8.9,0c0-3.1,0-5.8,0-8.9c3.2-0.2,6-0.3,9-0.5c0-2.8,0-5.5,0-8.6
				c6.1,0,11.8,0,17.9,0c0.2-3.2,0.3-6,0.5-8.9c26.8,0,53.4,0,80.6,0c0,2.7,0,5.4,0,8.7c6.3,0,12,0,18,0c0,3.1,0,5.7,0,8.9
				C645.1,561.8,618.3,561.8,590.9,561.8z"/>
		</g>
	</g>
	<g id="Yellow_2_">
		<g>
			<path d="M690.2,607.3c0,2.8,0,5.6,0,9c-3.1,0-5.8,0-8.9,0c0,3.1,0,5.7,0,8.7c-9.1,0-17.8,0-27.1,0c0-2.6,0-5.4,0-8.4
				c-3.1,0-5.7,0-8.9,0c0-3.1,0-5.8,0-8.8c-3.2,0-6,0-9.1,0c0,2.7,0,5.3,0,8.4c-3.1,0-5.8,0-9.1,0c0,3.2,0,6,0,9.1
				c-3.1,0-5.7,0-8.9,0c0,3.1,0,5.8,0,8.9c-9.2,0-18,0-27.1,0c0-2.7,0-5.3,0-8.4c-6.1,0-11.8,0-18.1,0c0-3.3,0-6,0-9.1
				c-3.1,0-5.7,0-8.9,0c0-6.1,0-11.8,0-17.9c-3.3,0-6,0-9,0c0,2.6,0,5.2,0,8.4c-3.1,0-5.8,0-9,0c0,3.2,0,6,0,9c-9.3,0-18,0-26.9,0
				c0-2.8,0-5.4,0-8.6c5.7,0,11.5,0,17.6,0c0-3.1,0-5.7,0-8.9c3.1,0,5.8,0,9,0c0-3.2,0-6,0-9.2c6.2,0,12,0,18.1,0c0-3.1,0-5.7,0-8.9
				c3.1,0,5.8,0,8.8,0c0.2-3.2,0.3-6,0.5-9.1c5.8,0,11.4,0,17.8,0c0-3.3,0-6.2,0-9.1c30,0,60,0,90,0c0,2.9,0,5.8,0,9.2
				c3.3,0,6,0,9.2,0c0,3.2,0,5.9,0,8.8c3.3,0,6,0,8.8,0c0,9,0,18,0,27c-3,0-6,0.1-9.1,0.1c0-5.9,0-11.9,0-18.3c-3.3,0-6,0-9.1,0
				c0-3.1,0-5.7,0-8.6c-3.1-0.1-5.8-0.3-9-0.4c0-3.1,0-5.8,0-8.4c-21.2,0-41.9,0-63,0c0,3,0,5.6,0,8.7c-9.1,0-17.8,0-26.4,0
				c0,12.3,0,24,0,35.6c12,0,23.6,0,35.4,0c0.2-3,0.3-5.7,0.5-8.9c3.1,0,5.8,0,8.9,0c0-3.1,0-5.7,0-8.5c9.1,0,17.8,0,27,0
				c0,3,0,5.7,0,8.7C666.6,607.3,678.4,607.3,690.2,607.3z"/>
			<path d="M699.1,715.3c-8.8,0-17.5,0-26.6,0c0-3,0-5.7,0-9c8.9,0,17.8,0,26.6,0C699.1,709.3,699.1,712.3,699.1,715.3z"/>
			<path d="M591.4,724c0-2.9,0-5.5,0-8.5c2.8,0,5.4,0,8.5,0c0-3,0-5.8,0-8.8c3.2,0,5.9,0,9.1,0c0.1,2.7,0.3,5.4,0.4,8.5
				c5.8,0,11.4,0,17.4,0c0,3.1,0,5.8,0,8.8C615.2,724,603.5,724,591.4,724z"/>
		</g>
	</g>
	<g id="White_3_">
		<g>
			<path d="M654.1,598.6c5.9,0,11.8,0,18.2,0c0-6.4,0-12.1,0-18c3.1,0,5.7,0,8.8,0c0,2.7,0,5.4,0,8.8c3.4,0,6.3,0,9.2,0
				c0,6,0,12,0,18c-11.7,0-23.5,0-36.1,0c0-3.1,0-6,0-8.9C654.3,598.4,654.1,598.6,654.1,598.6z"/>
			<path d="M519.4,715.3c0-8.8,0-17.6,0-26.7c9,0,17.7,0,26.7,0c0,2.7,0,5.3,0,8.4c-5.6,0-11.3,0-17.7,0c0,6.4,0,12.3,0,18.3
				C525.4,715.3,522.4,715.3,519.4,715.3z"/>
			<path d="M627.5,598.4c0-2.8,0-5.6,0-8.9c-3.1,0-5.8,0-8.9,0c0-3.1,0-5.7,0-8.8c-3.1,0-5.8,0-8.8,0c0-3.2,0-5.9,0-9
				c14.7,0,29.4,0,44.4,0c0,2.7,0,5.3,0,8.4c-2.6,0-5.3,0-8.4,0c0,3.2,0,5.9,0,9c2.7,0.1,5.4,0.3,8.4,0.4c0,3.2,0,6.1,0,9.1l0.1-0.2
				c-9-0.1-18-0.1-27-0.2L627.5,598.4z"/>
			<path d="M618.1,607.1c0,2.8,0,5.6,0,8.8c-11.6,0-23.3,0-35.4,0c0-11.6,0-23.3,0-35.3c5.7,0,11.4,0,17.5,0c0,8.7,0,17.3,0,26.6
				c6.2,0,12.1,0,18.1,0C618.3,607.2,618.1,607.1,618.1,607.1z"/>
			<path d="M627.3,598.2c0,2.8,0,5.6,0,8.9c-3.1,0-6.2,0-9.2,0l0.2,0.1c0-2.8,0-5.6,0-8.8c3.4,0,6.3,0,9.2,0L627.3,598.2z"/>
		</g>
	</g>
	<g id="Black_1_">
		<g>
			<path d="M672,598.6c-5.8,0-11.5,0-17.8,0c0-3,0-5.7,0-8.8c-3.2-0.2-5.9-0.3-8.9-0.5c0-2.8,0-5.4,0-8.5c2.6,0,5.3,0,8.5,0
				c0-3.2,0-5.9,0-9.3c6.4,0,12.3,0,18.2,0C672,580.6,672,589.6,672,598.6z"/>
			<path d="M600,607.6c0-8.8,0-17.6,0-26.7c6.1,0,11.8,0,17.9,0c0,2.8,0,5.4,0,8.5c3.1,0,5.8,0,8.8,0c0,3.3,0,6,0,9.1
				c-2.8,0-5.4,0-8.7,0c0,3.3,0,6.2,0,9.1C612,607.6,606,607.6,600,607.6z"/>
		</g>
	</g>
</g>
<g id="Berzerk">
	<g id="acHZ0T.tif">
		<g>
			<path d="M876,712c-10.7,0-21.3,0-32,0c0-21.2,0-42.5,0-63.6c-11.1,0-21.4,0-31.7,0c0,16,0,31.6,0,47.7c5.3,0,10.4,0,15.7,0
				c0,5.7,0,10.8,0,15.9c-10.7,0-21.3,0-32,0c0-42.6,0-85.1,0-127.6c-5.7,0-10.8,0-16.2,0c0,16,0,31.6,0,47.3c-5.4,0-10.5,0-15.5,0
				c0-21.4,0-42.4,0-63.8c5.3,0,10.2,0,15.7,0c0-5.4,0-10.5,0-16.1c5.6,0,10.7,0,16.1,0c0-5.5,0-10.4,0-15.5c21.4,0,42.5,0,63.5,0
				c0,5.4,0,10.4,0,15.8c-5.3,0-10.2,0-15.3,0c0,5.4,0,10.5,0,15.9c16.1,0,31.9,0,47.7,0c0,21.3,0,42.7,0,64c-5.3,0-10.5,0-16.3,0
				c0-16.4,0-32.1,0-47.7c-5.5,0-10.4,0-15.5,0c0,37.3,0,74.3,0,111.8c5.3,0,10.4,0,15.7,0C876,701.7,876,706.9,876,712z"/>
		</g>
	</g>
</g>
</svg>
