<?xml version="1.0" encoding="utf-8"?>
<!-- Generator: Adobe Illustrator 28.0.0, SVG Export Plug-In . SVG Version: 6.00 Build 0)  -->
<svg version="1.1" id="Layer_1" xmlns="http://www.w3.org/2000/svg" xmlns:xlink="http://www.w3.org/1999/xlink" x="0px" y="0px"
	 viewBox="0 0 1558.3 433.8" style="enable-background:new 0 0 1558.3 433.8;" xml:space="preserve">
<style type="text/css">
	.st0{fill:none;stroke:#000000;stroke-width:0.1;stroke-linecap:round;stroke-linejoin:round;stroke-miterlimit:10;}
	.st1{fill:none;stroke:#000000;stroke-width:0.1;stroke-miterlimit:10;}
	.st2{fill:none;stroke:#000000;stroke-width:0.1;stroke-miterlimit:22.9256;}
	.st3{fill:none;stroke:#FF0000;stroke-width:0.1;stroke-miterlimit:10;}
	.st4{fill:none;stroke:#FF0000;stroke-width:0.1;stroke-linecap:round;stroke-linejoin:round;stroke-miterlimit:10;}
	.st5{fill:none;stroke:#000000;stroke-width:0.1;stroke-miterlimit:11.3386;}
	.st6{fill:none;stroke:#FF0000;stroke-width:0.1;stroke-miterlimit:11.3386;}
	.st7{font-family:'ArialMT';}
	.st8{font-size:14px;}
	.st9{font-family:'Emulogic';}
	.st10{font-size:12px;}
	.st11{fill:none;stroke:#FF0000;stroke-width:0.1;stroke-miterlimit:22.9256;}
</style>
<g id="P4_Full_Mount">
	<g id="LWPOLYLINE_10_">
		<path class="st0" d="M895.9,263.5h31.2c1.6,0,2.8-1.4,2.8-2.9v-86.1c0-1.7-1.3-2.9-2.8-2.9h-31.2c-1.6,0-2.8,1.4-2.8,2.9v86.1
			C893,262,894.3,263.5,895.9,263.5z"/>
	</g>
	<g id="LWPOLYLINE_9_">
		<path class="st0" d="M1240.5,172.1c0-1.7-1.3-3-2.8-3h-62.4c-1.6,0-2.8,1.4-2.8,3v41.9c0,1.7,1.3,3,2.8,3h62.4
			c1.6,0,2.8-1.4,2.8-3V172.1z"/>
	</g>
	<circle class="st0" cx="756.9" cy="18" r="6.1"/>
	<circle class="st0" cx="1141.3" cy="58.5" r="5.4"/>
	<circle class="st0" cx="801.2" cy="58.5" r="5.4"/>
	<circle class="st0" cx="801.2" cy="376" r="5.4"/>
	<circle class="st0" cx="1141.3" cy="376" r="5.4"/>
	<circle class="st0" cx="1430.4" cy="61.9" r="4.3"/>
	<circle class="st0" cx="852.2" cy="372.5" r="4.3"/>
	<circle class="st0" cx="756.9" cy="58.5" r="5.4"/>
	<circle class="st0" cx="416.8" cy="58.5" r="5.4"/>
	<circle class="st0" cx="416.8" cy="376" r="5.4"/>
	<circle class="st0" cx="756.9" cy="376" r="5.4"/>
	<circle class="st0" cx="705.9" cy="61.9" r="4.3"/>
	<circle class="st0" cx="127.6" cy="372.5" r="4.3"/>
	<g id="LWPOLYLINE_8_">
		<path class="st0" d="M171.3,263.5h31.2c1.6,0,2.8-1.4,2.8-2.9v-86.1c0-1.7-1.3-2.9-2.8-2.9h-31.2c-1.6,0-2.8,1.4-2.8,2.9v86.1
			C168.4,262,169.7,263.5,171.3,263.5z"/>
	</g>
	<g id="LWPOLYLINE_7_">
		<path class="st0" d="M515.9,172.1c0-1.7-1.3-3-2.8-3h-62.4c-1.6,0-2.8,1.4-2.8,3v41.9c0,1.7,1.3,3,2.8,3h62.4c1.6,0,2.8-1.4,2.8-3
			V172.1z"/>
	</g>
	<g id="LWPOLYLINE_6_">
		<path class="st0" d="M630.4,263.2h31.2c1.6,0,2.8-1.4,2.8-2.9v-86.1c0-1.7-1.3-2.9-2.8-2.9h-31.2c-1.6,0-2.8,1.4-2.8,2.9v86.1
			C627.5,261.8,628.8,263.2,630.4,263.2z"/>
	</g>
	<path class="st0" d="M270.3,269.5c2.6,0,4.7,2.1,4.7,4.7s-2.1,4.7-4.7,4.7c-2.6,0-4.7-2.1-4.7-4.7
		C265.5,271.7,267.6,269.5,270.3,269.5L270.3,269.5z"/>
	<path class="st0" d="M380.4,269.5c2.6,0,4.7,2.1,4.7,4.7s-2.1,4.7-4.7,4.7c-2.6,0-4.7-2.1-4.7-4.7
		C375.6,271.7,377.8,269.5,380.4,269.5L380.4,269.5z"/>
	<path class="st0" d="M270.3,153.5c2.6,0,4.7,2.1,4.7,4.7s-2.1,4.7-4.7,4.7c-2.6,0-4.7-2.1-4.7-4.7
		C265.5,155.6,267.6,153.5,270.3,153.5L270.3,153.5z"/>
	<path class="st0" d="M380.4,153.5c2.6,0,4.7,2.1,4.7,4.7s-2.1,4.7-4.7,4.7c-2.6,0-4.7-2.1-4.7-4.7
		C375.6,155.6,377.8,153.5,380.4,153.5L380.4,153.5z"/>
	<ellipse class="st1" cx="542.3" cy="250" rx="9" ry="12.6"/>
	<ellipse class="st1" cx="563.5" cy="150.4" rx="9" ry="12.6"/>
	<ellipse class="st1" cx="840.8" cy="269.2" rx="9" ry="12.6"/>
	<ellipse class="st1" cx="861.9" cy="169.6" rx="9" ry="12.6"/>
	<rect x="0.1" y="0.1" class="st1" width="1558.2" height="433.7"/>
	<path class="st2" d="M1531.2,94.5c2.6,0,4.7,2.1,4.7,4.7s-2.1,4.7-4.7,4.7s-4.7-2.1-4.7-4.7S1528.5,94.5,1531.2,94.5z"/>
	<path class="st2" d="M1405.8,409.7c3.4,0,6.1,2.8,6.1,6.1c0,3.4-2.8,6.1-6.1,6.1c-3.4,0-6.1-2.8-6.1-6.1S1402.4,409.7,1405.8,409.7
		z"/>
	<path class="st0" d="M1262.2,268.7c2.6,0,4.7,2.1,4.7,4.7c0,2.6-2.1,4.7-4.7,4.7s-4.7-2.1-4.7-4.7
		C1257.3,270.8,1259.4,268.7,1262.2,268.7L1262.2,268.7z"/>
	<path class="st0" d="M1372.2,268.7c2.6,0,4.7,2.1,4.7,4.7c0,2.6-2.1,4.7-4.7,4.7s-4.7-2.1-4.7-4.7
		C1367.4,270.8,1369.5,268.7,1372.2,268.7L1372.2,268.7z"/>
	<path class="st0" d="M1262.2,152.6c2.6,0,4.7,2.1,4.7,4.7s-2.1,4.7-4.7,4.7s-4.7-2.1-4.7-4.7
		C1257.3,154.7,1259.4,152.6,1262.2,152.6L1262.2,152.6z"/>
	<path class="st0" d="M1372.2,152.6c2.6,0,4.7,2.1,4.7,4.7s-2.1,4.7-4.7,4.7s-4.7-2.1-4.7-4.7
		C1367.4,154.7,1369.5,152.6,1372.2,152.6L1372.2,152.6z"/>
	<line class="st3" x1="105.4" y1="36.4" x2="1441.8" y2="36.4"/>
	<line class="st3" x1="105.4" y1="398" x2="1441.8" y2="398"/>
	<circle class="st0" cx="756.9" cy="415.8" r="6.1"/>
	<circle class="st0" cx="1117.8" cy="18" r="6.1"/>
	<circle class="st0" cx="1117.8" cy="415.8" r="6.1"/>
	<path class="st2" d="M27,330.2c2.6,0,4.7,2.1,4.7,4.7c0,2.6-2.1,4.7-4.7,4.7s-4.7-2.1-4.7-4.7S24.3,330.2,27,330.2z"/>
	<circle class="st0" cx="430.1" cy="18" r="6.1"/>
	<circle class="st0" cx="430.1" cy="415.8" r="6.1"/>
	<g>
		<path class="st3" d="M378.8,218.6h4.8c1.8,0,2.6-0.8,2.6-1.9c0-1.2-0.8-2-2.6-2h-4.8v-1.1h4.7c2.5,0,3.5,1.3,3.5,3.1
			c0,1.7-0.9,2.9-3.5,2.9h-4.8L378.8,218.6L378.8,218.6z"/>
		<path class="st3" d="M385.5,212.1c0.3-0.5,0.5-1.2,0.5-1.9c0-1.1-0.6-1.7-1.4-1.7s-1.2,0.4-1.6,1.5c-0.5,1.3-1.2,2.1-2.3,2.1
			c-1.3,0-2.2-1-2.2-2.6c0-0.8,0.2-1.4,0.4-1.8l0.9,0.3c-0.1,0.3-0.4,0.8-0.4,1.5c0,1.1,0.7,1.5,1.2,1.5c0.8,0,1.1-0.5,1.6-1.6
			c0.5-1.4,1.2-2.1,2.4-2.1s2.3,0.9,2.3,2.8c0,0.8-0.2,1.6-0.5,2.1L385.5,212.1z"/>
		<path class="st3" d="M378.8,206c-0.1-0.5-0.2-1.2-0.2-1.9c0-1,0.2-1.7,0.6-2.2c0.3-0.4,0.8-0.7,1.4-0.7c0.8,0,1.5,0.5,1.8,1.4l0,0
			c0.2-0.8,0.8-1.7,2-1.7c0.7,0,1.2,0.3,1.6,0.7c0.5,0.6,0.8,1.5,0.8,2.8c0,0.7,0,1.3-0.1,1.6L378.8,206L378.8,206z M382.1,205v-0.9
			c0-1.1-0.6-1.8-1.4-1.8c-0.9,0-1.3,0.7-1.3,1.8c0,0.5,0,0.8,0.1,0.9H382.1z M386,205c0-0.2,0-0.5,0-0.9c0-1.1-0.4-2.1-1.6-2.1
			c-1.1,0-1.6,0.9-1.6,2.1v0.9H386z"/>
	</g>
	<path class="st4" d="M394,330.2H255.6c-6.6,0-12-5.4-12-12V117c0-6.6,5.4-12,12-12H394c6.6,0,12,5.4,12,12v201.3
		C406,324.8,400.6,330.2,394,330.2z"/>
	<g>
		<path class="st3" d="M1315.7,207.3c0.5-0.1,1.2-0.2,2-0.2c1,0,1.8,0.2,2.3,0.7c0.4,0.4,0.7,1,0.7,1.7s-0.2,1.3-0.6,1.7
			c-0.6,0.6-1.5,0.9-2.5,0.9c-0.3,0-0.6,0-0.8-0.1v3.2h-1L1315.7,207.3L1315.7,207.3L1315.7,207.3z M1316.8,211.2
			c0.2,0.1,0.5,0.1,0.9,0.1c1.3,0,2-0.6,2-1.7s-0.8-1.6-1.9-1.6c-0.5,0-0.8,0-1,0.1V211.2z"/>
		<path class="st3" d="M1323,207.9c0,0.4-0.3,0.6-0.7,0.6c-0.4,0-0.6-0.3-0.6-0.6c0-0.4,0.3-0.7,0.7-0.7
			C1322.8,207.2,1323,207.5,1323,207.9z M1321.8,215.3v-5.8h1.1v5.8H1321.8z"/>
	</g>
	<path class="st3" d="M1417,318.3h-231.7c-6.6,0-12-5.4-12-12V124.6c0-6.6,5.4-12,12-12H1417c6.6,0,12,5.4,12,12v181.8
		C1429,313,1423.7,318.3,1417,318.3z"/>
	<g>
		<path class="st3" d="M1317.7,146.8v3.4h3.9v-3.4h1.1v8.1h-1.1v-3.8h-3.9v3.8h-1v-8.1H1317.7z"/>
		<path class="st3" d="M1324.4,146.9c0.6-0.1,1.4-0.2,2.2-0.2c1.5,0,2.6,0.3,3.3,1c0.7,0.7,1.1,1.6,1.1,2.9s-0.4,2.4-1.2,3.1
			c-0.8,0.8-2,1.2-3.6,1.2c-0.7,0-1.4,0-1.9-0.1L1324.4,146.9L1324.4,146.9z M1325.4,154.1c0.3,0,0.6,0.1,1.1,0.1
			c2.2,0,3.4-1.2,3.4-3.4c0-1.9-1.1-3.1-3.3-3.1c-0.5,0-0.9,0-1.2,0.1V154.1z"/>
		<path class="st3" d="M1339.2,151.4c-0.1-1.1-0.1-2.5-0.1-3.5l0,0c-0.3,0.9-0.6,2-1,3.1l-1.4,3.9h-0.8l-1.3-3.9
			c-0.4-1.1-0.7-2.2-0.9-3.1l0,0c0,1-0.1,2.4-0.2,3.6l-0.2,3.5h-1l0.6-8.1h1.3l1.4,3.9c0.3,1,0.6,1.9,0.8,2.7l0,0
			c0.2-0.8,0.5-1.7,0.9-2.7l1.4-3.9h1.3l0.5,8.1h-1L1339.2,151.4z"/>
		<path class="st3" d="M1343.2,146.8v8.1h-1v-8.1H1343.2z"/>
	</g>
	<g>
		<path class="st3" d="M1313.9,192.9c0.5-0.1,1.2-0.2,2-0.2c1,0,1.8,0.2,2.3,0.7c0.4,0.4,0.7,1,0.7,1.7s-0.2,1.3-0.6,1.7
			c-0.6,0.6-1.5,0.9-2.5,0.9c-0.3,0-0.6,0-0.8-0.1v3.2h-1L1313.9,192.9L1313.9,192.9z M1314.9,196.8c0.2,0.1,0.5,0.1,0.9,0.1
			c1.3,0,2-0.6,2-1.7s-0.8-1.6-1.9-1.6c-0.5,0-0.8,0-1,0.1V196.8z"/>
		<path class="st3" d="M1323.2,200.9v-2.1h-3.6v-0.7l3.5-5h1.1v4.8h1.1v0.8h-1.1v2.1h-1V200.9z M1323.2,198v-2.6c0-0.4,0-0.8,0-1.2
			l0,0c-0.2,0.5-0.4,0.8-0.6,1.2l-1.9,2.7l0,0h2.5V198z"/>
	</g>
	<g id="LWPOLYLINE_1_">
		<path class="st4" d="M1240.5,172.1c0-1.7-1.3-3-2.8-3h-62.4c-1.6,0-2.8,1.4-2.8,3v41.9c0,1.7,1.3,3,2.8,3h62.4
			c1.6,0,2.8-1.4,2.8-3V172.1z"/>
	</g>
	<g>
		<path class="st3" d="M236.9,19h-3.1v2.9h3.5v0.9h-4.5v-8.1h4.4v0.9h-3.4v2.6h3.1V19z"/>
		<path class="st3" d="M239.1,17l0.8,1.2c0.2,0.3,0.4,0.6,0.6,0.9l0,0c0.2-0.3,0.4-0.6,0.6-1l0.8-1.2h1.1l-2,2.8l2,3h-1.2l-0.9-1.3
			c-0.2-0.3-0.4-0.7-0.6-1l0,0c-0.2,0.3-0.4,0.7-0.6,1l-0.8,1.3h-1.1l2.1-3l-2-2.8h1.2V17z"/>
		<path class="st3" d="M245.6,15.4v1.7h1.5v0.8h-1.5V21c0,0.7,0.2,1.1,0.8,1.1c0.3,0,0.5,0,0.6-0.1v0.8c-0.2,0.1-0.5,0.1-0.9,0.1
			c-0.5,0-0.9-0.2-1.1-0.4c-0.3-0.3-0.4-0.8-0.4-1.5v-3.2h-0.9V17h0.9v-1.4L245.6,15.4z"/>
		<path class="st3" d="M248.3,18.8c0-0.7,0-1.3,0-1.8h0.9v1.1l0,0c0.3-0.8,0.9-1.3,1.6-1.3c0.1,0,0.2,0,0.3,0v1c-0.1,0-0.2,0-0.4,0
			c-0.7,0-1.3,0.6-1.4,1.4c0,0.1,0,0.3,0,0.5v3.1h-1L248.3,18.8L248.3,18.8z"/>
		<path class="st3" d="M255.4,22.8l-0.1-0.7l0,0c-0.3,0.5-0.9,0.9-1.8,0.9c-1.2,0-1.8-0.8-1.8-1.7c0-1.4,1.2-2.2,3.5-2.2v-0.1
			c0-0.5-0.1-1.3-1.3-1.3c-0.5,0-1.1,0.2-1.5,0.4l-0.2-0.7c0.5-0.3,1.2-0.5,1.9-0.5c1.8,0,2.2,1.2,2.2,2.4v2.2c0,0.5,0,1,0.1,1.4
			L255.4,22.8L255.4,22.8z M255.3,19.9c-1.2,0-2.5,0.2-2.5,1.3c0,0.7,0.5,1,1,1c0.8,0,1.2-0.5,1.4-1c0-0.1,0.1-0.2,0.1-0.3V19.9z"/>
		<path class="st3" d="M261.6,14.7V18h3.9v-3.4h1.1v8.1h-1.1V19h-3.9v3.8h-1v-8.1H261.6z"/>
		<path class="st3" d="M273.6,19.9c0,2.1-1.5,3.1-2.9,3.1c-1.6,0-2.8-1.2-2.8-3c0-1.9,1.3-3.1,2.9-3.1
			C272.4,16.9,273.6,18,273.6,19.9z M269,19.9c0,1.3,0.7,2.2,1.8,2.2c1,0,1.8-0.9,1.8-2.3c0-1-0.5-2.2-1.7-2.2
			C269.5,17.7,269,18.8,269,19.9z"/>
		<path class="st3" d="M274.9,14.3h1.1v8.5h-1.1V14.3z"/>
		<path class="st3" d="M278.3,20c0,1.4,0.9,2,2,2c0.8,0,1.2-0.1,1.6-0.3l0.2,0.8c-0.4,0.2-1,0.4-1.9,0.4c-1.8,0-2.9-1.2-2.9-2.9
			c0-1.8,1-3.1,2.7-3.1c1.9,0,2.4,1.7,2.4,2.7c0,0.2,0,0.4,0,0.5h-4.1V20z M281.4,19.4c0-0.7-0.3-1.7-1.5-1.7c-1.1,0-1.5,1-1.6,1.7
			H281.4z"/>
		<path class="st3" d="M283.6,21.7c0.3,0.2,0.9,0.4,1.4,0.4c0.8,0,1.1-0.4,1.1-0.9s-0.3-0.8-1.1-1.1c-1-0.4-1.5-0.9-1.5-1.6
			c0-0.9,0.8-1.7,2-1.7c0.6,0,1.1,0.2,1.4,0.4l-0.3,0.8c-0.2-0.1-0.6-0.3-1.2-0.3c-0.6,0-1,0.4-1,0.8c0,0.5,0.3,0.7,1.1,1
			c1,0.4,1.5,0.9,1.5,1.8c0,1-0.8,1.7-2.2,1.7c-0.6,0-1.2-0.2-1.6-0.4L283.6,21.7z"/>
		<path class="st3" d="M291.2,22.8v-5h-0.8V17h0.8v-0.3c0-0.8,0.2-1.6,0.7-2c0.4-0.4,0.9-0.5,1.4-0.5c0.4,0,0.7,0.1,0.9,0.2
			l-0.1,0.8c-0.2-0.1-0.4-0.1-0.7-0.1c-0.9,0-1.1,0.8-1.1,1.7v0.3h1.4v0.8h-1.4v5h-1.1V22.8z"/>
		<path class="st3" d="M299.6,19.9c0,2.1-1.5,3.1-2.9,3.1c-1.6,0-2.8-1.2-2.8-3c0-1.9,1.3-3.1,2.9-3.1
			C298.5,16.9,299.6,18,299.6,19.9z M295,19.9c0,1.3,0.7,2.2,1.8,2.2c1,0,1.8-0.9,1.8-2.3c0-1-0.5-2.2-1.7-2.2
			C295.6,17.7,295,18.8,295,19.9z"/>
		<path class="st3" d="M301,18.8c0-0.7,0-1.3,0-1.8h0.9v1.1l0,0c0.3-0.8,0.9-1.3,1.6-1.3c0.1,0,0.2,0,0.3,0v1c-0.1,0-0.2,0-0.4,0
			c-0.7,0-1.3,0.6-1.4,1.4c0,0.1,0,0.3,0,0.5v3.1h-1L301,18.8L301,18.8z"/>
		<path class="st3" d="M314.3,19.3c-0.1-1.1-0.1-2.5-0.1-3.5l0,0c-0.3,0.9-0.6,2-1,3.1l-1.4,3.9H311l-1.3-3.9
			c-0.4-1.1-0.7-2.2-0.9-3.1l0,0c0,1-0.1,2.4-0.2,3.6l-0.2,3.5h-1l0.6-8.1h1.3l1.4,3.9c0.3,1,0.6,1.9,0.8,2.7l0,0
			c0.2-0.8,0.5-1.7,0.9-2.7l1.4-3.9h1.3l0.5,8.1h-1L314.3,19.3z"/>
		<path class="st3" d="M322.4,19.9c0,2.1-1.5,3.1-2.9,3.1c-1.6,0-2.8-1.2-2.8-3c0-1.9,1.3-3.1,2.9-3.1
			C321.3,16.9,322.4,18,322.4,19.9z M317.8,19.9c0,1.3,0.7,2.2,1.8,2.2c1,0,1.8-0.9,1.8-2.3c0-1-0.5-2.2-1.7-2.2
			C318.4,17.7,317.8,18.8,317.8,19.9z"/>
		<path class="st3" d="M328.6,21.2c0,0.6,0,1.1,0,1.6h-0.9l-0.1-0.9l0,0c-0.3,0.5-0.9,1.1-1.9,1.1c-0.9,0-2-0.5-2-2.5v-3.4h1.1v3.2
			c0,1.1,0.3,1.8,1.3,1.8c0.7,0,1.2-0.5,1.4-1c0.1-0.2,0.1-0.3,0.1-0.5V17h1.1L328.6,21.2L328.6,21.2z"/>
		<path class="st3" d="M330.4,18.5c0-0.6,0-1.1,0-1.6h0.9l0.1,1l0,0c0.3-0.6,1-1.1,1.9-1.1c0.8,0,2.1,0.5,2.1,2.5v3.5h-1.1v-3.3
			c0-0.9-0.3-1.7-1.3-1.7c-0.7,0-1.2,0.5-1.4,1.1c0,0.1-0.1,0.3-0.1,0.5v3.5h-1.1L330.4,18.5L330.4,18.5z"/>
		<path class="st3" d="M338.3,15.4v1.7h1.5v0.8h-1.5V21c0,0.7,0.2,1.1,0.8,1.1c0.3,0,0.5,0,0.6-0.1v0.8c-0.2,0.1-0.5,0.1-0.9,0.1
			c-0.5,0-0.9-0.2-1.1-0.4c-0.3-0.3-0.4-0.8-0.4-1.5v-3.2h-0.9V17h0.9v-1.4L338.3,15.4z"/>
		<path class="st3" d="M342.1,15.4c0,0.4-0.3,0.6-0.7,0.6s-0.6-0.3-0.6-0.6c0-0.4,0.3-0.7,0.7-0.7C341.9,14.7,342.1,15,342.1,15.4z
			 M341,22.8V17h1.1v5.8H341z"/>
		<path class="st3" d="M343.8,18.5c0-0.6,0-1.1,0-1.6h0.9l0.1,1l0,0c0.3-0.6,1-1.1,1.9-1.1c0.8,0,2.1,0.5,2.1,2.5v3.5h-1.1v-3.3
			c0-0.9-0.3-1.7-1.3-1.7c-0.7,0-1.2,0.5-1.4,1.1c0,0.1-0.1,0.3-0.1,0.5v3.5h-1.1V18.5z"/>
		<path class="st3" d="M355.4,17c0,0.4,0,0.9,0,1.6V22c0,1.3-0.3,2.1-0.8,2.7c-0.6,0.5-1.4,0.7-2.1,0.7c-0.7,0-1.5-0.2-1.9-0.5
			l0.3-0.8c0.4,0.2,1,0.5,1.7,0.5c1.1,0,1.9-0.6,1.9-2V22l0,0c-0.3,0.5-0.9,1-1.8,1c-1.4,0-2.5-1.2-2.5-2.8c0-2,1.3-3.1,2.6-3.1
			c1,0,1.6,0.5,1.8,1l0,0v-0.9h0.8V17z M354.3,19.3c0-0.2,0-0.3-0.1-0.5c-0.2-0.6-0.7-1.1-1.5-1.1c-1,0-1.7,0.9-1.7,2.2
			c0,1.1,0.6,2.1,1.7,2.1c0.6,0,1.2-0.4,1.5-1.1c0.1-0.2,0.1-0.4,0.1-0.6V19.3z"/>
	</g>
	<g>
		<path class="st3" d="M1209.7,415h-3.1v2.9h3.5v0.9h-4.5v-8.1h4.4v0.9h-3.3v2.6h3.1L1209.7,415L1209.7,415z"/>
		<path class="st3" d="M1211.8,413l0.8,1.2c0.2,0.3,0.4,0.6,0.6,0.9l0,0c0.2-0.3,0.4-0.6,0.6-1l0.8-1.2h1.1l-2,2.8l2,3h-1.2
			l-0.9-1.3c-0.2-0.3-0.4-0.7-0.6-1l0,0c-0.2,0.3-0.4,0.7-0.6,1l-0.8,1.3h-1.2l2.1-3l-2-2.8L1211.8,413L1211.8,413z"/>
		<path class="st3" d="M1218.3,411.3v1.7h1.5v0.8h-1.5v3.1c0,0.7,0.2,1.1,0.8,1.1c0.3,0,0.5,0,0.6-0.1v0.8c-0.2,0.1-0.5,0.1-0.9,0.1
			c-0.5,0-0.9-0.2-1.1-0.4c-0.3-0.3-0.4-0.8-0.4-1.5v-3.2h-0.9v-0.8h0.9v-1.4L1218.3,411.3z"/>
		<path class="st3" d="M1221,414.8c0-0.7,0-1.3,0-1.8h0.9v1.1l0,0c0.3-0.8,0.9-1.3,1.6-1.3c0.1,0,0.2,0,0.3,0v1c-0.1,0-0.2,0-0.4,0
			c-0.7,0-1.3,0.6-1.4,1.4c0,0.1,0,0.3,0,0.5v3.1h-1V414.8z"/>
		<path class="st3" d="M1228.2,418.8l-0.1-0.7l0,0c-0.3,0.5-0.9,0.9-1.8,0.9c-1.2,0-1.8-0.8-1.8-1.7c0-1.4,1.2-2.2,3.5-2.2V415
			c0-0.5-0.1-1.3-1.3-1.3c-0.5,0-1.1,0.2-1.5,0.4l-0.2-0.7c0.5-0.3,1.2-0.5,1.9-0.5c1.8,0,2.2,1.2,2.2,2.4v2.2c0,0.5,0,1,0.1,1.4h-1
			V418.8z M1227.9,416c-1.2,0-2.5,0.2-2.5,1.3c0,0.7,0.5,1,1,1c0.8,0,1.2-0.5,1.4-1c0-0.1,0.1-0.2,0.1-0.3V416z"/>
		<path class="st3" d="M1234.3,410.8v3.4h3.9v-3.4h1.1v8.1h-1.1V415h-3.9v3.8h-1v-8.1H1234.3z"/>
		<path class="st3" d="M1246.2,416c0,2.1-1.5,3.1-2.9,3.1c-1.6,0-2.8-1.2-2.8-3c0-1.9,1.3-3.1,2.9-3.1
			C1245.2,413,1246.2,414.2,1246.2,416z M1241.7,416c0,1.3,0.7,2.2,1.8,2.2c1,0,1.8-0.9,1.8-2.3c0-1-0.5-2.2-1.7-2.2
			C1242.2,413.8,1241.7,414.8,1241.7,416z"/>
		<path class="st3" d="M1247.7,410.3h1.1v8.5h-1.1V410.3z"/>
		<path class="st3" d="M1251,416.2c0,1.4,0.9,2,2,2c0.8,0,1.2-0.1,1.6-0.3l0.2,0.8c-0.4,0.2-1,0.4-1.9,0.4c-1.8,0-2.9-1.2-2.9-2.9
			c0-1.8,1-3.1,2.7-3.1c1.9,0,2.4,1.7,2.4,2.7c0,0.2,0,0.4,0,0.5h-4.1V416.2z M1254.2,415.3c0-0.7-0.3-1.7-1.5-1.7
			c-1.1,0-1.5,1-1.6,1.7H1254.2z"/>
		<path class="st3" d="M1256.3,417.8c0.3,0.2,0.9,0.4,1.4,0.4c0.8,0,1.1-0.4,1.1-0.9s-0.3-0.8-1.1-1.1c-1-0.4-1.5-0.9-1.5-1.6
			c0-0.9,0.8-1.7,2-1.7c0.6,0,1.1,0.2,1.4,0.4l-0.3,0.8c-0.2-0.1-0.6-0.3-1.2-0.3s-1,0.4-1,0.8c0,0.5,0.3,0.7,1.1,1
			c1,0.4,1.5,0.9,1.5,1.8c0,1-0.8,1.7-2.2,1.7c-0.6,0-1.2-0.2-1.6-0.4L1256.3,417.8z"/>
		<path class="st3" d="M1263.8,418.8v-5h-0.8V413h0.8v-0.3c0-0.8,0.2-1.6,0.7-2c0.4-0.4,0.9-0.5,1.4-0.5c0.4,0,0.7,0.1,0.9,0.2
			l-0.1,0.8c-0.2-0.1-0.4-0.1-0.7-0.1c-0.9,0-1.1,0.8-1.1,1.7v0.3h1.4v0.8h-1.4v5h-1.1V418.8z"/>
		<path class="st3" d="M1272.3,416c0,2.1-1.5,3.1-2.9,3.1c-1.6,0-2.8-1.2-2.8-3c0-1.9,1.3-3.1,2.9-3.1
			C1271.2,413,1272.3,414.2,1272.3,416z M1267.8,416c0,1.3,0.7,2.2,1.8,2.2c1,0,1.8-0.9,1.8-2.3c0-1-0.5-2.2-1.7-2.2
			C1268.3,413.8,1267.8,414.8,1267.8,416z"/>
		<path class="st3" d="M1273.8,414.8c0-0.7,0-1.3,0-1.8h0.9v1.1l0,0c0.3-0.8,0.9-1.3,1.6-1.3c0.1,0,0.2,0,0.3,0v1
			c-0.1,0-0.2,0-0.4,0c-0.7,0-1.3,0.6-1.4,1.4c0,0.1,0,0.3,0,0.5v3.1h-1V414.8z"/>
		<path class="st3" d="M1287,415.3c-0.1-1.1-0.1-2.5-0.1-3.5l0,0c-0.3,0.9-0.6,2-1,3.1l-1.4,3.9h-0.8l-1.3-3.9
			c-0.4-1.1-0.7-2.2-0.9-3.1l0,0c0,1-0.1,2.4-0.2,3.6l-0.2,3.5h-1l0.6-8.1h1.3l1.4,3.9c0.3,1,0.6,1.9,0.8,2.7l0,0
			c0.2-0.8,0.5-1.7,0.9-2.7l1.4-3.9h1.3l0.5,8.1h-1L1287,415.3z"/>
		<path class="st3" d="M1295.2,416c0,2.1-1.5,3.1-2.9,3.1c-1.6,0-2.8-1.2-2.8-3c0-1.9,1.3-3.1,2.9-3.1
			C1294,413,1295.2,414.2,1295.2,416z M1290.5,416c0,1.3,0.7,2.2,1.8,2.2c1,0,1.8-0.9,1.8-2.3c0-1-0.5-2.2-1.7-2.2
			C1291,413.8,1290.5,414.8,1290.5,416z"/>
		<path class="st3" d="M1301.3,417.2c0,0.6,0,1.1,0,1.6h-0.9l-0.1-0.9l0,0c-0.3,0.5-0.9,1.1-1.9,1.1c-0.9,0-2-0.5-2-2.5v-3.4h1.1
			v3.2c0,1.1,0.3,1.8,1.3,1.8c0.7,0,1.2-0.5,1.4-1c0.1-0.2,0.1-0.3,0.1-0.5V413h1.1L1301.3,417.2L1301.3,417.2z"/>
		<path class="st3" d="M1303,414.7c0-0.6,0-1.1,0-1.6h0.9l0.1,1l0,0c0.3-0.6,1-1.1,1.9-1.1c0.8,0,2.1,0.5,2.1,2.5v3.5h-1.1v-3.3
			c0-0.9-0.3-1.7-1.3-1.7c-0.7,0-1.2,0.5-1.4,1.1c0,0.1-0.1,0.3-0.1,0.5v3.5h-1.1V414.7z"/>
		<path class="st3" d="M1310.9,411.3v1.7h1.5v0.8h-1.5v3.1c0,0.7,0.2,1.1,0.8,1.1c0.3,0,0.5,0,0.6-0.1v0.8c-0.2,0.1-0.5,0.1-0.9,0.1
			c-0.5,0-0.9-0.2-1.1-0.4c-0.3-0.3-0.4-0.8-0.4-1.5v-3.2h-0.9v-0.8h0.9v-1.4L1310.9,411.3z"/>
		<path class="st3" d="M1314.8,411.5c0,0.4-0.3,0.6-0.7,0.6c-0.4,0-0.6-0.3-0.6-0.6c0-0.4,0.3-0.7,0.7-0.7
			C1314.7,410.8,1314.8,411,1314.8,411.5z M1313.7,418.8V413h1.1v5.8H1313.7z"/>
		<path class="st3" d="M1316.4,414.7c0-0.6,0-1.1,0-1.6h0.9l0.1,1l0,0c0.3-0.6,1-1.1,1.9-1.1c0.8,0,2.1,0.5,2.1,2.5v3.5h-1.1v-3.3
			c0-0.9-0.3-1.7-1.3-1.7c-0.7,0-1.2,0.5-1.4,1.1c0,0.1-0.1,0.3-0.1,0.5v3.5h-1.1V414.7z"/>
		<path class="st3" d="M1328.2,413c0,0.4,0,0.9,0,1.6v3.4c0,1.3-0.3,2.1-0.8,2.7c-0.6,0.5-1.4,0.7-2.1,0.7s-1.5-0.2-1.9-0.5l0.3-0.8
			c0.4,0.2,1,0.5,1.7,0.5c1.1,0,1.9-0.6,1.9-2v-0.6l0,0c-0.3,0.5-0.9,1-1.8,1c-1.4,0-2.5-1.2-2.5-2.8c0-2,1.3-3.1,2.6-3.1
			c1,0,1.6,0.5,1.8,1l0,0v-0.9h0.8V413z M1327,415.3c0-0.2,0-0.3-0.1-0.5c-0.2-0.6-0.7-1.1-1.5-1.1c-1,0-1.7,0.9-1.7,2.2
			c0,1.1,0.6,2.1,1.7,2.1c0.6,0,1.2-0.4,1.5-1.1c0.1-0.2,0.1-0.4,0.1-0.6V415.3z"/>
	</g>
	<ellipse class="st1" cx="1092.4" cy="227" rx="9" ry="12.6"/>
	<ellipse class="st1" cx="1108.7" cy="124.4" rx="9" ry="12.6"/>
	<path class="st5" d="M1026.8,136.6c2.6,0,4.7,2.1,4.7,4.7s-2.1,4.7-4.7,4.7s-4.7-2.1-4.7-4.7C1021.9,138.7,1024,136.6,1026.8,136.6
		z"/>
	<path class="st5" d="M1026.8,298.2c2.6,0,4.7,2.1,4.7,4.7s-2.1,4.7-4.7,4.7s-4.7-2.1-4.7-4.7C1021.9,300.2,1024,298.2,1026.8,298.2
		z"/>
	<rect x="987.2" y="154.1" class="st6" width="79.4" height="136.1"/>
	<text transform="matrix(1 0 0 1 912.4119 278.0582)" class="st3 st7 st8">12V SATA</text>
	<text transform="matrix(1 0 0 1 903.9119 294.8582)" class="st3 st7 st8">Power Cable</text>
	<circle class="st0" cx="27" cy="27" r="6.1"/>
	<circle class="st0" cx="27" cy="406.8" r="6.1"/>
	<circle class="st0" cx="142.1" cy="18" r="6.1"/>
	<circle class="st0" cx="142.1" cy="415.8" r="6.1"/>
	<path class="st2" d="M27,94.5c2.6,0,4.7,2.1,4.7,4.7s-2.1,4.7-4.7,4.7s-4.7-2.1-4.7-4.7S24.3,94.5,27,94.5z"/>
	<circle class="st0" cx="1405.8" cy="18" r="6.1"/>
	<circle class="st0" cx="1531.2" cy="27" r="6.1"/>
	<circle class="st0" cx="1531.2" cy="406.8" r="6.1"/>
	<path class="st2" d="M1531.2,330.2c2.6,0,4.7,2.1,4.7,4.7c0,2.6-2.1,4.7-4.7,4.7s-4.7-2.1-4.7-4.7
		C1526.5,332.2,1528.5,330.2,1531.2,330.2z"/>
	<circle class="st0" cx="1481.5" cy="58.4" r="5.4"/>
	<circle class="st0" cx="1481.5" cy="376" r="5.4"/>
	<circle class="st0" cx="76.6" cy="376" r="5.4"/>
	<circle class="st0" cx="76.6" cy="58.5" r="5.4"/>
	<text transform="matrix(1 0 0 1 438.8598 262.5645)" class="st3 st7 st8">5V Only!</text>
	<text transform="matrix(1 0 0 1 633.4464 94.4141)" class="st3 st9 st10">pixelcade full mount p4</text>
	<text transform="matrix(4.489659e-11 -1 1 4.489659e-11 327.5695 271.6506)" class="st11 st7 st10">PIXELCADE MAIN BOARD</text>
	<text transform="matrix(4.489659e-11 -1 1 4.489659e-11 1031.4916 244.6643)" class="st11 st7 st10">MINI PSU</text>
	<text transform="matrix(1 0 0 1 1075.6006 188.231)" class="st3 st7 st8">Do Not Use</text>
</g>
</svg>
