<?xml version="1.0" encoding="utf-8"?>
<!-- Generator: Adobe Illustrator 28.0.0, SVG Export Plug-In . SVG Version: 6.00 Build 0)  -->
<svg version="1.1" id="Layer_1" xmlns="http://www.w3.org/2000/svg" xmlns:xlink="http://www.w3.org/1999/xlink" x="0px" y="0px"
	 viewBox="0 0 1449.2 361.8" style="enable-background:new 0 0 1449.2 361.8;" xml:space="preserve">
<style type="text/css">
	.st0{fill:none;stroke:#000000;stroke-width:0.1;stroke-linecap:round;stroke-linejoin:round;stroke-miterlimit:10;}
	.st1{fill:none;stroke:#000000;stroke-width:0.1;stroke-miterlimit:10;}
	.st2{fill:none;stroke:#FF0000;stroke-width:0.1;stroke-miterlimit:10;}
	.st3{fill:none;stroke:#FF0000;stroke-width:0.1;stroke-linecap:round;stroke-linejoin:round;stroke-miterlimit:10;}
	.st4{fill:none;stroke:#000000;stroke-width:0.1;stroke-miterlimit:11.3386;}
	.st5{fill:none;stroke:#FF0000;stroke-width:0.1;stroke-miterlimit:11.3386;}
	.st6{font-family:'ArialMT';}
	.st7{font-size:14px;}
	.st8{font-family:'Emulogic';}
	.st9{font-size:12px;}
	.st10{fill:none;stroke:#FF0000;stroke-width:0.1;stroke-miterlimit:22.9256;}
</style>
<g id="P4_Half_Mount">
	<g id="LWPOLYLINE_00000119838756443648749060000013369826036787366812_">
		<path class="st0" d="M841.4,227.2h31.2c1.6,0,2.8-1.4,2.8-2.9v-86.1c0-1.7-1.3-2.9-2.8-2.9h-31.2c-1.6,0-2.8,1.4-2.8,2.9v86.1
			C838.5,225.7,839.8,227.2,841.4,227.2z"/>
	</g>
	<g id="LWPOLYLINE_00000057120248534339204490000001315775223925497755_">
		<path class="st0" d="M1186,135.7c0-1.7-1.3-3-2.8-3h-62.4c-1.6,0-2.8,1.4-2.8,3v41.9c0,1.7,1.3,3,2.8,3h62.4c1.6,0,2.8-1.4,2.8-3
			V135.7z"/>
	</g>
	<circle class="st0" cx="1086.8" cy="22.2" r="5.4"/>
	<circle class="st0" cx="746.8" cy="22.2" r="5.4"/>
	<circle class="st0" cx="746.8" cy="339.6" r="5.4"/>
	<circle class="st0" cx="1086.8" cy="339.6" r="5.4"/>
	<circle class="st0" cx="1375.9" cy="25.5" r="4.3"/>
	<circle class="st0" cx="797.8" cy="336.2" r="4.3"/>
	<circle class="st0" cx="702.4" cy="22.2" r="5.4"/>
	<circle class="st0" cx="362.3" cy="22.2" r="5.4"/>
	<circle class="st0" cx="362.3" cy="339.6" r="5.4"/>
	<circle class="st0" cx="702.4" cy="339.6" r="5.4"/>
	<circle class="st0" cx="651.4" cy="25.5" r="4.3"/>
	<circle class="st0" cx="73.1" cy="336.2" r="4.3"/>
	<g id="LWPOLYLINE_00000005263190517729434290000004111623077354881189_">
		<path class="st0" d="M116.8,227.2h31.2c1.6,0,2.8-1.4,2.8-2.9v-86.1c0-1.7-1.3-2.9-2.8-2.9h-31.2c-1.6,0-2.8,1.4-2.8,2.9v86.1
			C113.9,225.7,115.2,227.2,116.8,227.2z"/>
	</g>
	<g id="LWPOLYLINE_00000179607511177470611410000007364372344565883811_">
		<path class="st0" d="M461.4,135.7c0-1.7-1.3-3-2.8-3h-62.4c-1.6,0-2.8,1.4-2.8,3v41.9c0,1.7,1.3,3,2.8,3h62.4c1.6,0,2.8-1.4,2.8-3
			V135.7z"/>
	</g>
	<g id="LWPOLYLINE_00000053520277521488705510000009669773990144497027_">
		<path class="st0" d="M575.9,226.9h31.2c1.6,0,2.8-1.4,2.8-2.9v-86.1c0-1.7-1.3-2.9-2.8-2.9h-31.2c-1.6,0-2.8,1.4-2.8,2.9v86.1
			C573,225.4,574.3,226.9,575.9,226.9z"/>
	</g>
	<path class="st0" d="M215.8,233.2c2.6,0,4.7,2.1,4.7,4.7s-2.1,4.7-4.7,4.7c-2.6,0-4.7-2.1-4.7-4.7
		C211.1,235.4,213.1,233.2,215.8,233.2L215.8,233.2z"/>
	<path class="st0" d="M325.9,233.2c2.6,0,4.7,2.1,4.7,4.7s-2.1,4.7-4.7,4.7c-2.6,0-4.7-2.1-4.7-4.7
		C321.1,235.4,323.2,233.2,325.9,233.2L325.9,233.2z"/>
	<path class="st0" d="M215.8,117.2c2.6,0,4.7,2.1,4.7,4.7s-2.1,4.7-4.7,4.7c-2.6,0-4.7-2.1-4.7-4.7
		C211.1,119.2,213.1,117.2,215.8,117.2L215.8,117.2z"/>
	<path class="st0" d="M325.9,117.2c2.6,0,4.7,2.1,4.7,4.7s-2.1,4.7-4.7,4.7c-2.6,0-4.7-2.1-4.7-4.7
		C321.1,119.2,323.2,117.2,325.9,117.2L325.9,117.2z"/>
	<ellipse class="st1" cx="487.8" cy="213.7" rx="9" ry="12.6"/>
	<ellipse class="st1" cx="509" cy="114.1" rx="9" ry="12.6"/>
	<ellipse class="st1" cx="786.2" cy="232.9" rx="9" ry="12.6"/>
	<ellipse class="st1" cx="807.4" cy="133.2" rx="9" ry="12.6"/>
	<rect x="0.1" y="0.1" class="st1" width="1449.1" height="361.7"/>
	<path class="st0" d="M1207.7,232.4c2.6,0,4.7,2.1,4.7,4.7c0,2.6-2.1,4.7-4.7,4.7s-4.7-2.1-4.7-4.7
		C1202.8,234.4,1204.9,232.4,1207.7,232.4L1207.7,232.4z"/>
	<path class="st0" d="M1317.8,232.4c2.6,0,4.7,2.1,4.7,4.7c0,2.6-2.1,4.7-4.7,4.7s-4.7-2.1-4.7-4.7
		C1312.9,234.4,1315,232.4,1317.8,232.4L1317.8,232.4z"/>
	<path class="st0" d="M1207.7,116.2c2.6,0,4.7,2.1,4.7,4.7s-2.1,4.7-4.7,4.7s-4.7-2.1-4.7-4.7
		C1202.8,118.3,1204.9,116.2,1207.7,116.2L1207.7,116.2z"/>
	<path class="st0" d="M1317.8,116.2c2.6,0,4.7,2.1,4.7,4.7s-2.1,4.7-4.7,4.7s-4.7-2.1-4.7-4.7C1312.9,118.3,1315,116.2,1317.8,116.2
		L1317.8,116.2z"/>
	<g>
		<path class="st2" d="M324.2,182.2h4.8c1.8,0,2.6-0.8,2.6-1.9c0-1.2-0.8-2-2.6-2h-4.8v-1.1h4.7c2.5,0,3.5,1.3,3.5,3.1
			c0,1.7-0.9,2.9-3.5,2.9h-4.8L324.2,182.2L324.2,182.2z"/>
		<path class="st2" d="M331,175.7c0.3-0.5,0.5-1.2,0.5-1.9c0-1.1-0.6-1.7-1.4-1.7s-1.2,0.4-1.6,1.5c-0.5,1.3-1.2,2.1-2.3,2.1
			c-1.3,0-2.2-1-2.2-2.6c0-0.8,0.2-1.4,0.4-1.8l0.9,0.3c-0.1,0.3-0.4,0.8-0.4,1.5c0,1.1,0.7,1.5,1.2,1.5c0.8,0,1.1-0.5,1.6-1.6
			c0.5-1.4,1.2-2.1,2.4-2.1s2.3,0.9,2.3,2.8c0,0.8-0.2,1.6-0.5,2.1L331,175.7z"/>
		<path class="st2" d="M324.3,169.7c-0.1-0.5-0.2-1.2-0.2-1.9c0-1,0.2-1.7,0.6-2.2c0.3-0.4,0.8-0.7,1.4-0.7c0.8,0,1.5,0.5,1.8,1.4
			l0,0c0.2-0.8,0.8-1.7,2-1.7c0.7,0,1.2,0.3,1.6,0.7c0.5,0.6,0.8,1.5,0.8,2.8c0,0.7,0,1.3-0.1,1.6L324.3,169.7L324.3,169.7z
			 M327.6,168.7v-0.9c0-1.1-0.6-1.8-1.4-1.8c-0.9,0-1.3,0.7-1.3,1.8c0,0.5,0,0.8,0.1,0.9H327.6z M331.5,168.7c0-0.2,0-0.5,0-0.9
			c0-1.1-0.4-2.1-1.6-2.1c-1.1,0-1.6,0.9-1.6,2.1v0.9H331.5z"/>
	</g>
	<path class="st3" d="M339.5,293.9H201.1c-6.6,0-12-5.4-12-12V80.7c0-6.6,5.4-12,12-12h138.4c6.6,0,12,5.4,12,12v201.3
		C351.5,288.5,346.1,293.9,339.5,293.9z"/>
	<g>
		<path class="st2" d="M1261.2,170.9c0.5-0.1,1.2-0.2,2-0.2c1,0,1.8,0.2,2.3,0.7c0.4,0.4,0.7,1,0.7,1.7s-0.2,1.3-0.6,1.7
			c-0.6,0.6-1.5,0.9-2.5,0.9c-0.3,0-0.6,0-0.8-0.1v3.2h-1L1261.2,170.9L1261.2,170.9L1261.2,170.9z M1262.2,174.8
			c0.2,0.1,0.5,0.1,0.9,0.1c1.3,0,2-0.6,2-1.7s-0.8-1.6-1.9-1.6c-0.5,0-0.8,0-1,0.1V174.8z"/>
		<path class="st2" d="M1268.5,171.6c0,0.4-0.3,0.6-0.7,0.6c-0.4,0-0.6-0.3-0.6-0.6c0-0.4,0.3-0.7,0.7-0.7
			C1268.2,170.8,1268.5,171.2,1268.5,171.6z M1267.3,178.9v-5.8h1.1v5.8H1267.3z"/>
	</g>
	<path class="st2" d="M1362.5,282h-231.7c-6.6,0-12-5.4-12-12V88.2c0-6.6,5.4-12,12-12h231.7c6.6,0,12,5.4,12,12V270
		C1374.5,276.6,1369.2,282,1362.5,282z"/>
	<g>
		<path class="st2" d="M1263.2,110.4v3.4h3.9v-3.4h1.1v8.1h-1.1v-3.8h-3.9v3.8h-1v-8.1H1263.2z"/>
		<path class="st2" d="M1269.9,110.6c0.6-0.1,1.4-0.2,2.2-0.2c1.5,0,2.6,0.3,3.3,1c0.7,0.7,1.1,1.6,1.1,2.9s-0.4,2.4-1.2,3.1
			c-0.8,0.8-2,1.2-3.6,1.2c-0.7,0-1.4,0-1.9-0.1L1269.9,110.6L1269.9,110.6z M1270.9,117.7c0.3,0,0.6,0.1,1.1,0.1
			c2.2,0,3.4-1.2,3.4-3.4c0-1.9-1.1-3.1-3.3-3.1c-0.5,0-0.9,0-1.2,0.1V117.7z"/>
		<path class="st2" d="M1284.8,115.1c-0.1-1.1-0.1-2.5-0.1-3.5l0,0c-0.3,0.9-0.6,2-1,3.1l-1.4,3.9h-0.8l-1.3-3.9
			c-0.4-1.1-0.7-2.2-0.9-3.1l0,0c0,1-0.1,2.4-0.2,3.6l-0.2,3.5h-1l0.6-8.1h1.3l1.4,3.9c0.3,1,0.6,1.9,0.8,2.7l0,0
			c0.2-0.8,0.5-1.7,0.9-2.7l1.4-3.9h1.3l0.5,8.1h-1L1284.8,115.1z"/>
		<path class="st2" d="M1288.7,110.4v8.1h-1v-8.1H1288.7z"/>
	</g>
	<g>
		<path class="st2" d="M1259.4,156.6c0.5-0.1,1.2-0.2,2-0.2c1,0,1.8,0.2,2.3,0.7c0.4,0.4,0.7,1,0.7,1.7s-0.2,1.3-0.6,1.7
			c-0.6,0.6-1.5,0.9-2.5,0.9c-0.3,0-0.6,0-0.8-0.1v3.2h-1L1259.4,156.6L1259.4,156.6z M1260.4,160.4c0.2,0.1,0.5,0.1,0.9,0.1
			c1.3,0,2-0.6,2-1.7s-0.8-1.6-1.9-1.6c-0.5,0-0.8,0-1,0.1V160.4z"/>
		<path class="st2" d="M1268.8,164.6v-2.1h-3.6v-0.7l3.5-5h1.1v4.8h1.1v0.8h-1.1v2.1h-1V164.6z M1268.8,161.7v-2.6
			c0-0.4,0-0.8,0-1.2l0,0c-0.2,0.5-0.4,0.8-0.6,1.2l-1.9,2.7l0,0h2.5V161.7z"/>
	</g>
	<g id="LWPOLYLINE_00000147178114484254161570000004691683865911552154_">
		<path class="st3" d="M1186,135.7c0-1.7-1.3-3-2.8-3h-62.4c-1.6,0-2.8,1.4-2.8,3v41.9c0,1.7,1.3,3,2.8,3h62.4c1.6,0,2.8-1.4,2.8-3
			V135.7z"/>
	</g>
	<ellipse class="st1" cx="1037.9" cy="190.6" rx="9" ry="12.6"/>
	<ellipse class="st1" cx="1054.2" cy="88.1" rx="9" ry="12.6"/>
	<path class="st4" d="M972.2,100.2c2.6,0,4.7,2.1,4.7,4.7s-2.1,4.7-4.7,4.7s-4.7-2.1-4.7-4.7C967.4,102.3,969.5,100.2,972.2,100.2z"
		/>
	<path class="st4" d="M972.2,261.9c2.6,0,4.7,2.1,4.7,4.7s-2.1,4.7-4.7,4.7s-4.7-2.1-4.7-4.7C967.4,263.9,969.5,261.9,972.2,261.9z"
		/>
	<rect x="932.7" y="117.7" class="st5" width="79.4" height="136.1"/>
	<text transform="matrix(1 0 0 1 857.9119 241.7582)" class="st2 st6 st7">12V SATA</text>
	<text transform="matrix(1 0 0 1 849.4119 258.5582)" class="st2 st6 st7">Power Cable</text>
	<circle class="st0" cx="1427" cy="22" r="5.4"/>
	<circle class="st0" cx="1427" cy="339.6" r="5.4"/>
	<circle class="st0" cx="22.1" cy="339.6" r="5.4"/>
	<circle class="st0" cx="22.1" cy="22.2" r="5.4"/>
	<text transform="matrix(1 0 0 1 384.3598 226.2645)" class="st2 st6 st7">5V Only!</text>
	<text transform="matrix(1 0 0 1 578.9464 58.1141)" class="st2 st8 st9">pixelcade half mount p4</text>
	<text transform="matrix(4.489659e-11 -1 1 4.489659e-11 273.0695 235.3506)" class="st10 st6 st9">PIXELCADE MAIN BOARD</text>
	<text transform="matrix(4.489659e-11 -1 1 4.489659e-11 976.9916 208.3642)" class="st10 st6 st9">MINI PSU</text>
	<circle class="st0" cx="57.6" cy="57.7" r="6.1"/>
	<circle class="st0" cx="57.6" cy="304.1" r="6.1"/>
	<circle class="st0" cx="1391.5" cy="57.7" r="6.1"/>
	<circle class="st0" cx="1391.5" cy="304.1" r="6.1"/>
	<text transform="matrix(1 0 0 1 1021.1006 151.931)" class="st2 st6 st7">Do Not Use</text>
</g>
</svg>
