<?xml version="1.0" encoding="utf-8"?>
<!-- Generator: Adobe Illustrator 24.0.1, SVG Export Plug-In . SVG Version: 6.00 Build 0)  -->
<svg version="1.1" id="Holes_Right" xmlns="http://www.w3.org/2000/svg" xmlns:xlink="http://www.w3.org/1999/xlink" x="0px"
	 y="0px" viewBox="0 0 1728 792" style="enable-background:new 0 0 1728 792;" xml:space="preserve">
<style type="text/css">
	.st0{fill:none;stroke:#010101;stroke-width:0.1;stroke-linecap:round;stroke-linejoin:round;stroke-miterlimit:10;}
	.st1{fill:none;stroke:#FF0000;stroke-width:0.1;stroke-miterlimit:10;}
	.st2{fill:none;stroke:#000000;stroke-width:0.1;stroke-linecap:round;stroke-linejoin:round;stroke-miterlimit:10;}
</style>
<g id="LWPOLYLINE_6_">
	<path class="st0" d="M889.6,272.5h31.2c1.6,0,2.8-1.4,2.8-2.9v-86.1c0-1.7-1.3-2.9-2.8-2.9h-31.2c-1.6,0-2.8,1.4-2.8,2.9v86.1
		C886.7,271,888,272.5,889.6,272.5z"/>
</g>
<g id="LWPOLYLINE_5_">
	<path class="st0" d="M1234.2,181.1c0-1.7-1.3-3-2.8-3H1169c-1.6,0-2.8,1.4-2.8,3V223c0,1.7,1.3,3,2.8,3h62.4c1.6,0,2.8-1.4,2.8-3
		V181.1z"/>
</g>
<circle class="st0" cx="1475.2" cy="67.5" r="6.1"/>
<circle class="st0" cx="1135.1" cy="67.5" r="6.1"/>
<circle class="st0" cx="794.9" cy="67.5" r="6.1"/>
<circle class="st0" cx="794.9" cy="385" r="6.1"/>
<circle class="st0" cx="1135.1" cy="385" r="6.1"/>
<circle class="st0" cx="1475.2" cy="385" r="6.1"/>
<circle class="st0" cx="1424.2" cy="70.9" r="4.3"/>
<circle class="st0" cx="845.9" cy="381.6" r="4.3"/>
<g>
	<path class="st1" d="M1308.9,216.3c0.5-0.1,1.2-0.2,2-0.2c1,0,1.8,0.2,2.3,0.7c0.4,0.4,0.7,1,0.7,1.7s-0.2,1.3-0.6,1.7
		c-0.6,0.6-1.5,0.9-2.5,0.9c-0.3,0-0.6,0-0.8-0.1v3.2h-1L1308.9,216.3L1308.9,216.3L1308.9,216.3z M1310,220.2
		c0.2,0.1,0.5,0.1,0.9,0.1c1.3,0,2-0.6,2-1.7s-0.8-1.6-1.9-1.6c-0.5,0-0.8,0-1,0.1V220.2z"/>
	<path class="st1" d="M1316.3,216.9c0,0.4-0.3,0.6-0.7,0.6s-0.6-0.3-0.6-0.6c0-0.4,0.3-0.7,0.7-0.7
		C1316,216.2,1316.3,216.5,1316.3,216.9z M1315.1,224.3v-5.8h1.1v5.8H1315.1z"/>
</g>
<path class="st2" d="M1255.8,277.7c2.6,0,4.7,2.1,4.7,4.7c0,2.6-2.1,4.7-4.7,4.7c-2.6,0-4.7-2.1-4.7-4.7
	C1251,279.8,1253.1,277.7,1255.8,277.7L1255.8,277.7z"/>
<path class="st2" d="M1365.9,277.7c2.6,0,4.7,2.1,4.7,4.7c0,2.6-2.1,4.7-4.7,4.7c-2.6,0-4.7-2.1-4.7-4.7
	C1361.1,279.8,1363.2,277.7,1365.9,277.7L1365.9,277.7z"/>
<path class="st2" d="M1255.8,161.6c2.6,0,4.7,2.1,4.7,4.7c0,2.6-2.1,4.7-4.7,4.7c-2.6,0-4.7-2.1-4.7-4.7
	C1251,163.7,1253.1,161.6,1255.8,161.6L1255.8,161.6z"/>
<path class="st2" d="M1365.9,161.6c2.6,0,4.7,2.1,4.7,4.7c0,2.6-2.1,4.7-4.7,4.7c-2.6,0-4.7-2.1-4.7-4.7
	C1361.1,163.7,1363.2,161.6,1365.9,161.6L1365.9,161.6z"/>
<g>
	<path class="st1" d="M1310.9,155.8v3.4h3.9v-3.4h1.1v8.1h-1.1v-3.8h-3.9v3.8h-1v-8.1H1310.9z"/>
	<path class="st1" d="M1317.7,156c0.6-0.1,1.4-0.2,2.2-0.2c1.5,0,2.6,0.3,3.3,1c0.7,0.7,1.1,1.6,1.1,2.9c0,1.3-0.4,2.4-1.2,3.1
		c-0.8,0.8-2,1.2-3.6,1.2c-0.7,0-1.4,0-1.9-0.1V156z M1318.7,163.1c0.3,0,0.6,0.1,1.1,0.1c2.2,0,3.4-1.2,3.4-3.4
		c0-1.9-1.1-3.1-3.3-3.1c-0.5,0-0.9,0-1.2,0.1V163.1z"/>
	<path class="st1" d="M1332.5,160.4c-0.1-1.1-0.1-2.5-0.1-3.5h0c-0.3,0.9-0.6,2-1,3.1l-1.4,3.9h-0.8l-1.3-3.9
		c-0.4-1.1-0.7-2.2-0.9-3.1h0c0,1-0.1,2.4-0.2,3.6l-0.2,3.5h-1l0.6-8.1h1.3l1.4,3.9c0.3,1,0.6,1.9,0.8,2.7h0
		c0.2-0.8,0.5-1.7,0.9-2.7l1.4-3.9h1.3l0.5,8.1h-1L1332.5,160.4z"/>
	<path class="st1" d="M1336.4,155.8v8.1h-1v-8.1H1336.4z"/>
</g>
<g>
	<path class="st1" d="M1307.2,202c0.5-0.1,1.2-0.2,2-0.2c1,0,1.8,0.2,2.3,0.7c0.4,0.4,0.7,1,0.7,1.7c0,0.7-0.2,1.3-0.6,1.7
		c-0.6,0.6-1.5,0.9-2.5,0.9c-0.3,0-0.6,0-0.8-0.1v3.2h-1V202z M1308.2,205.8c0.2,0.1,0.5,0.1,0.9,0.1c1.3,0,2-0.6,2-1.7
		c0-1.1-0.8-1.6-1.9-1.6c-0.5,0-0.8,0-1,0.1V205.8z"/>
	<path class="st1" d="M1316.4,209.9v-2.1h-3.6v-0.7l3.5-5h1.1v4.8h1.1v0.8h-1.1v2.1H1316.4z M1316.4,207v-2.6c0-0.4,0-0.8,0-1.2h0
		c-0.2,0.5-0.4,0.8-0.6,1.2l-1.9,2.7v0H1316.4z"/>
</g>
<circle class="st0" cx="750.7" cy="67.5" r="6.1"/>
<circle class="st0" cx="410.5" cy="67.5" r="6.1"/>
<circle class="st0" cx="70.4" cy="67.5" r="6.1"/>
<circle class="st0" cx="70.4" cy="385" r="6.1"/>
<circle class="st0" cx="410.5" cy="385" r="6.1"/>
<circle class="st0" cx="750.7" cy="385" r="6.1"/>
<circle class="st0" cx="699.7" cy="70.9" r="4.3"/>
<circle class="st0" cx="121.4" cy="381.6" r="4.3"/>
<g id="LWPOLYLINE_4_">
	<path class="st0" d="M165.1,272.5h31.2c1.6,0,2.8-1.4,2.8-2.9v-86.1c0-1.7-1.3-2.9-2.8-2.9h-31.2c-1.6,0-2.8,1.4-2.8,2.9v86.1
		C162.2,271,163.5,272.5,165.1,272.5z"/>
</g>
<g id="LWPOLYLINE_3_">
	<path class="st0" d="M509.7,181.1c0-1.7-1.3-3-2.8-3h-62.4c-1.6,0-2.8,1.4-2.8,3V223c0,1.7,1.3,3,2.8,3h62.4c1.6,0,2.8-1.4,2.8-3
		V181.1z"/>
</g>
<g id="LWPOLYLINE_2_">
	<path class="st0" d="M624.2,272.3h31.2c1.6,0,2.8-1.4,2.8-2.9v-86.1c0-1.7-1.3-2.9-2.8-2.9h-31.2c-1.6,0-2.8,1.4-2.8,2.9v86.1
		C621.3,270.8,622.6,272.3,624.2,272.3z"/>
</g>
<path class="st2" d="M264,278.6c2.6,0,4.7,2.1,4.7,4.7c0,2.6-2.1,4.7-4.7,4.7s-4.7-2.1-4.7-4.7C259.2,280.7,261.3,278.6,264,278.6
	L264,278.6z"/>
<path class="st2" d="M374.1,278.6c2.6,0,4.7,2.1,4.7,4.7c0,2.6-2.1,4.7-4.7,4.7c-2.6,0-4.7-2.1-4.7-4.7
	C369.3,280.7,371.4,278.6,374.1,278.6L374.1,278.6z"/>
<g>
	<path class="st1" d="M317.4,258.4c-0.1-0.5-0.2-1.2-0.2-2c0-1,0.2-1.8,0.7-2.3c0.4-0.4,1-0.7,1.7-0.7s1.3,0.2,1.7,0.6
		c0.6,0.6,0.9,1.5,0.9,2.5c0,0.3,0,0.6-0.1,0.8h3.2v1h-7.9L317.4,258.4L317.4,258.4z M321.3,257.3c0.1-0.2,0.1-0.5,0.1-0.9
		c0-1.3-0.6-2-1.7-2s-1.6,0.8-1.6,1.9c0,0.5,0,0.8,0.1,1H321.3z"/>
	<path class="st1" d="M317.3,250.9h8.1v1h-8.1V250.9z"/>
	<path class="st1" d="M325.4,244.7l-1.8,1c-0.7,0.4-1.1,0.7-1.6,0.9l0,0c0.5,0.2,0.9,0.5,1.6,0.9l1.8,1v1.2l-4.1-2.5l-4,2.4v-1.2
		l1.9-1.1c0.5-0.3,0.9-0.5,1.4-0.7l0,0c-0.5-0.2-0.9-0.4-1.4-0.7l-1.9-1.1v-1.3l3.9,2.5l4.1-2.5L325.4,244.7L325.4,244.7z"/>
	<path class="st1" d="M321.6,238.1v3.1h2.9v-3.5h0.9v4.5h-8.1v-4.4h0.9v3.3h2.6V238L321.6,238.1L321.6,238.1L321.6,238.1z"/>
	<path class="st1" d="M317.3,236.4v-1h7.2v-3.5h0.9v4.5H317.3z"/>
	<path class="st1" d="M317.4,228.2c-0.1-0.5-0.2-1.2-0.2-1.9c0-1,0.2-1.7,0.6-2.2c0.3-0.4,0.8-0.7,1.4-0.7c0.8,0,1.5,0.5,1.8,1.4
		l0,0c0.2-0.8,0.8-1.7,2-1.7c0.7,0,1.2,0.3,1.6,0.7c0.5,0.6,0.8,1.5,0.8,2.8c0,0.7,0,1.3-0.1,1.6L317.4,228.2L317.4,228.2z
		 M320.7,227.1v-0.9c0-1.1-0.6-1.8-1.4-1.8c-0.9,0-1.3,0.7-1.3,1.8c0,0.5,0,0.8,0.1,0.9H320.7z M324.6,227.1c0-0.2,0-0.5,0-0.9
		c0-1.1-0.4-2.1-1.6-2.1c-1.1,0-1.6,0.9-1.6,2.1v0.9H324.6z"/>
	<path class="st1" d="M321.3,214.7c2.8,0,4.3,1.7,4.3,3.8s-1.7,3.6-4.1,3.6c-2.6,0-4.2-1.6-4.2-3.8
		C317.2,216.2,318.9,214.7,321.3,214.7z M321.4,221c1.7,0,3.3-0.9,3.3-2.6s-1.5-2.6-3.4-2.6c-1.6,0-3.3,0.8-3.3,2.6
		S319.6,221,321.4,221z"/>
	<path class="st1" d="M322.9,212.2l2.5,0.8v1.1l-8.1-2.7v-1.3l8.1-2.8v1.1l-2.5,0.9V212.2z M322,209.6l-2.3,0.8
		c-0.5,0.2-1,0.3-1.5,0.4l0,0c0.5,0.1,1,0.3,1.5,0.4l2.3,0.8V209.6z"/>
	<path class="st1" d="M317.4,206.2c-0.1-0.5-0.2-1.3-0.2-2c0-1.1,0.2-1.8,0.7-2.3c0.4-0.4,0.9-0.6,1.5-0.6c1.1,0,1.8,0.7,2.1,1.5
		l0,0c0.2-0.6,0.8-1,1.6-1.2c1.1-0.3,1.9-0.5,2.2-0.6v1.1c-0.2,0.1-0.9,0.3-1.9,0.5c-1.1,0.2-1.5,0.7-1.6,1.6v1h3.5v1H317.4z
		 M321.1,205.2v-1.1c0-1.1-0.6-1.8-1.5-1.8c-1,0-1.5,0.8-1.5,1.9c0,0.5,0,0.9,0.1,1L321.1,205.2L321.1,205.2z"/>
	<path class="st1" d="M317.4,199.8c-0.1-0.6-0.2-1.4-0.2-2.2c0-1.5,0.3-2.6,1-3.3s1.6-1.1,2.9-1.1s2.4,0.4,3.1,1.2
		c0.8,0.8,1.2,2,1.2,3.6c0,0.7,0,1.4-0.1,1.9L317.4,199.8L317.4,199.8z M324.6,198.7c0-0.3,0.1-0.6,0.1-1.1c0-2.2-1.2-3.4-3.4-3.4
		c-1.9,0-3.1,1.1-3.1,3.3c0,0.5,0,0.9,0.1,1.2H324.6z"/>
</g>
<g>
	<path class="st1" d="M372,227.6h4.8c1.8,0,2.6-0.8,2.6-1.9c0-1.2-0.8-2-2.6-2H372v-1.1h4.7c2.5,0,3.5,1.3,3.5,3.1
		c0,1.7-0.9,2.9-3.5,2.9h-4.8L372,227.6L372,227.6z"/>
	<path class="st1" d="M378.8,221.1c0.3-0.5,0.5-1.2,0.5-1.9c0-1.1-0.6-1.7-1.4-1.7s-1.2,0.4-1.6,1.5c-0.5,1.3-1.2,2.1-2.3,2.1
		c-1.3,0-2.2-1-2.2-2.6c0-0.8,0.2-1.4,0.4-1.8l0.9,0.3c-0.1,0.3-0.4,0.8-0.4,1.5c0,1.1,0.7,1.5,1.2,1.5c0.8,0,1.1-0.5,1.6-1.6
		c0.5-1.4,1.2-2.1,2.4-2.1s2.3,0.9,2.3,2.8c0,0.8-0.2,1.6-0.5,2.1L378.8,221.1z"/>
	<path class="st1" d="M372.1,215c-0.1-0.5-0.2-1.2-0.2-1.9c0-1,0.2-1.7,0.6-2.2c0.3-0.4,0.8-0.7,1.4-0.7c0.8,0,1.5,0.5,1.8,1.4l0,0
		c0.2-0.8,0.8-1.7,2-1.7c0.7,0,1.2,0.3,1.6,0.7c0.5,0.6,0.8,1.5,0.8,2.8c0,0.7,0,1.3-0.1,1.6L372.1,215L372.1,215z M375.4,214v-0.9
		c0-1.1-0.6-1.8-1.4-1.8c-0.9,0-1.3,0.7-1.3,1.8c0,0.5,0,0.8,0.1,0.9H375.4z M379.3,214c0-0.2,0-0.5,0-0.9c0-1.1-0.4-2.1-1.6-2.1
		c-1.1,0-1.6,0.9-1.6,2.1v0.9H379.3z"/>
</g>
<path class="st2" d="M264,162.5c2.6,0,4.7,2.1,4.7,4.7c0,2.6-2.1,4.7-4.7,4.7s-4.7-2.1-4.7-4.7C259.2,164.6,261.3,162.5,264,162.5
	L264,162.5z"/>
<path class="st2" d="M374.1,162.5c2.6,0,4.7,2.1,4.7,4.7c0,2.6-2.1,4.7-4.7,4.7c-2.6,0-4.7-2.1-4.7-4.7
	C369.3,164.6,371.4,162.5,374.1,162.5L374.1,162.5z"/>
<rect x="48.3" y="45.4" class="st1" width="1449.1" height="361.7"/>
</svg>
