<?xml version="1.0" encoding="utf-8"?>
<!-- Generator: Adobe Illustrator 24.0.1, SVG Export Plug-In . SVG Version: 6.00 Build 0)  -->
<svg version="1.1" id="Pi_Board_P4" xmlns="http://www.w3.org/2000/svg" xmlns:xlink="http://www.w3.org/1999/xlink" x="0px"
	 y="0px" viewBox="0 0 1728 792" style="enable-background:new 0 0 1728 792;" xml:space="preserve">
<style type="text/css">
	.st0{fill:none;stroke:#FF0000;stroke-width:0.1;stroke-miterlimit:10;}
	.st1{fill:none;stroke:#000000;stroke-width:0.1;stroke-miterlimit:10;}
	.st2{fill:none;stroke:#000000;stroke-width:0.1;stroke-linejoin:round;stroke-miterlimit:10;}
	.st3{fill:none;stroke:#000000;stroke-width:0.1;stroke-linecap:round;stroke-linejoin:round;stroke-miterlimit:10;}
</style>
<g>
	<path class="st0" d="M173.9,145.3c0.5-0.1,1.2-0.2,2-0.2c1,0,1.8,0.2,2.3,0.7c0.4,0.4,0.7,1,0.7,1.7s-0.2,1.3-0.6,1.7
		c-0.6,0.6-1.5,0.9-2.5,0.9c-0.3,0-0.6,0-0.8-0.1v3.2h-1L173.9,145.3L173.9,145.3L173.9,145.3z M175,149.2c0.2,0.1,0.5,0.1,0.9,0.1
		c1.3,0,2-0.6,2-1.7s-0.8-1.6-1.9-1.6c-0.5,0-0.8,0-1,0.1V149.2z"/>
	<path class="st0" d="M181.3,145.9c0,0.4-0.3,0.6-0.7,0.6s-0.6-0.3-0.6-0.6c0-0.4,0.3-0.7,0.7-0.7
		C181,145.2,181.3,145.5,181.3,145.9z M180.1,153.3v-5.8h1.1v5.8H180.1z"/>
</g>
<path class="st1" d="M270.7,227.7c-2.6,0-4.6-2-4.6-4.7c0-2.6,2.1-4.7,4.6-4.7c2.7,0,4.7,2.1,4.7,4.7
	C275.5,225.8,273.4,227.7,270.7,227.7z"/>
<path class="st1" d="M106.3,227.7c-2.6,0-4.6-2-4.6-4.7c0-2.6,2.1-4.7,4.6-4.7c2.7,0,4.7,2.1,4.7,4.7
	C111.1,225.8,109,227.7,106.3,227.7z"/>
<path class="st2" d="M106.3,88.6c-2.6,0-4.6-2.1-4.6-4.7c0-2.6,2.1-4.6,4.6-4.6c2.7,0,4.7,2.1,4.7,4.6
	C111.1,86.5,109,88.6,106.3,88.6z"/>
<path class="st2" d="M270.7,88.6c-2.6,0-4.6-2.1-4.6-4.7c0-2.6,2.1-4.6,4.6-4.6c2.7,0,4.7,2.1,4.7,4.6
	C275.5,86.5,273.4,88.6,270.7,88.6z"/>
<path class="st3" d="M120.8,206.7c2.6,0,4.7,2.1,4.7,4.7s-2.1,4.7-4.7,4.7s-4.7-2.1-4.7-4.7C116,208.8,118.1,206.7,120.8,206.7
	L120.8,206.7z"/>
<path class="st3" d="M230.9,206.7c2.6,0,4.7,2.1,4.7,4.7s-2.1,4.7-4.7,4.7c-2.6,0-4.7-2.1-4.7-4.7
	C226.1,208.8,228.2,206.7,230.9,206.7L230.9,206.7z"/>
<path class="st3" d="M120.8,90.6c2.6,0,4.7,2.1,4.7,4.7s-2.1,4.7-4.7,4.7s-4.7-2.1-4.7-4.7C116,92.7,118.1,90.6,120.8,90.6
	L120.8,90.6z"/>
<path class="st3" d="M230.9,90.6c2.6,0,4.7,2.1,4.7,4.7s-2.1,4.7-4.7,4.7c-2.6,0-4.7-2.1-4.7-4.7C226.1,92.7,228.2,90.6,230.9,90.6
	L230.9,90.6z"/>
<path class="st1" d="M275.3,256.4H43.6c-6.6,0-12-5.4-12-12V62.6c0-6.6,5.4-12,12-12h231.7c6.6,0,12,5.4,12,12v181.8
	C287.3,251,281.9,256.4,275.3,256.4z"/>
<g>
	<path class="st0" d="M175.9,84.8v3.4h3.9v-3.4h1.1v8.1h-1.1v-3.8h-3.9v3.8h-1v-8.1H175.9z"/>
	<path class="st0" d="M182.7,84.9c0.6-0.1,1.4-0.2,2.2-0.2c1.5,0,2.6,0.3,3.3,1c0.7,0.7,1.1,1.6,1.1,2.9c0,1.3-0.4,2.4-1.2,3.1
		c-0.8,0.8-2,1.2-3.6,1.2c-0.7,0-1.4,0-1.9-0.1V84.9z M183.7,92c0.3,0,0.6,0.1,1.1,0.1c2.2,0,3.4-1.2,3.4-3.4c0-1.9-1.1-3.1-3.3-3.1
		c-0.5,0-0.9,0-1.2,0.1V92z"/>
	<path class="st0" d="M197.5,89.3c-0.1-1.1-0.1-2.5-0.1-3.5h0c-0.3,0.9-0.6,2-1,3.1l-1.4,3.9h-0.8l-1.3-3.9
		c-0.4-1.1-0.7-2.2-0.9-3.1h0c0,1-0.1,2.4-0.2,3.6l-0.2,3.5h-1l0.6-8.1h1.3l1.4,3.9c0.3,1,0.6,1.9,0.8,2.7h0
		c0.2-0.8,0.5-1.7,0.9-2.7l1.4-3.9h1.3l0.5,8.1h-1L197.5,89.3z"/>
	<path class="st0" d="M201.4,84.8v8.1h-1v-8.1H201.4z"/>
</g>
<g id="LWPOLYLINE_15_">
	<path class="st3" d="M99.2,110.4c0-1.7-1.3-3-2.8-3H34c-1.6,0-2.8,1.4-2.8,3v41.9c0,1.7,1.3,3,2.8,3h62.4c1.6,0,2.8-1.4,2.8-3
		V110.4z"/>
</g>
<g>
	<path class="st0" d="M172.2,130.9c0.5-0.1,1.2-0.2,2-0.2c1,0,1.8,0.2,2.3,0.7c0.4,0.4,0.7,1,0.7,1.7c0,0.7-0.2,1.3-0.6,1.7
		c-0.6,0.6-1.5,0.9-2.5,0.9c-0.3,0-0.6,0-0.8-0.1v3.2h-1V130.9z M173.2,134.8c0.2,0.1,0.5,0.1,0.9,0.1c1.3,0,2-0.6,2-1.7
		c0-1.1-0.8-1.6-1.9-1.6c-0.5,0-0.8,0-1,0.1V134.8z"/>
	<path class="st0" d="M181.4,138.9v-2.1h-3.6v-0.7l3.5-5h1.1v4.8h1.1v0.8h-1.1v2.1H181.4z M181.4,135.9v-2.6c0-0.4,0-0.8,0-1.2h0
		c-0.2,0.5-0.4,0.8-0.6,1.2l-1.9,2.7v0H181.4z"/>
</g>
</svg>
