<?xml version="1.0" encoding="utf-8"?>
<!-- Generator: Adobe Illustrator 24.0.1, SVG Export Plug-In . SVG Version: 6.00 Build 0)  -->
<svg version="1.1" id="Pixel_Board" xmlns="http://www.w3.org/2000/svg" xmlns:xlink="http://www.w3.org/1999/xlink" x="0px"
	 y="0px" viewBox="0 0 1728 792" style="enable-background:new 0 0 1728 792;" xml:space="preserve">
<style type="text/css">
	.st0{fill:none;stroke:#000000;stroke-width:0.1;stroke-linecap:round;stroke-linejoin:round;stroke-miterlimit:10;}
	.st1{fill:none;stroke:#FF0000;stroke-width:0.1;stroke-miterlimit:10;}
</style>
<path class="st0" d="M74.8,197.7c2.6,0,4.7,2.1,4.7,4.7s-2.1,4.7-4.7,4.7s-4.7-2.1-4.7-4.7C70,199.8,72.1,197.7,74.8,197.7
	L74.8,197.7z"/>
<path class="st0" d="M184.9,197.7c2.6,0,4.7,2.1,4.7,4.7s-2.1,4.7-4.7,4.7c-2.6,0-4.7-2.1-4.7-4.7
	C180.1,199.8,182.2,197.7,184.9,197.7L184.9,197.7z"/>
<path class="st0" d="M61,41.7c2.6,0,4.7,2.1,4.7,4.7s-2.1,4.7-4.7,4.7s-4.7-2.1-4.7-4.7S58.3,41.7,61,41.7L61,41.7z"/>
<path class="st0" d="M61,240.2c2.6,0,4.7,2.1,4.7,4.7s-2.1,4.7-4.7,4.7s-4.7-2.1-4.7-4.7C56.2,242.3,58.3,240.2,61,240.2L61,240.2z"
	/>
<path class="st0" d="M197,41.7c2.6,0,4.7,2.1,4.7,4.7s-2.1,4.7-4.7,4.7s-4.7-2.1-4.7-4.7S194.3,41.7,197,41.7L197,41.7z"/>
<path class="st0" d="M197,239.9c2.6,0,4.7,2.1,4.7,4.7s-2.1,4.7-4.7,4.7s-4.7-2.1-4.7-4.7C192.2,242,194.3,239.9,197,239.9
	L197,239.9z"/>
<g>
	<path class="st1" d="M128.2,177.5c-0.1-0.5-0.2-1.2-0.2-2c0-1,0.2-1.8,0.7-2.3c0.4-0.4,1-0.7,1.7-0.7s1.3,0.2,1.7,0.6
		c0.6,0.6,0.9,1.5,0.9,2.5c0,0.3,0,0.6-0.1,0.8h3.2v1L128.2,177.5L128.2,177.5L128.2,177.5z M132.1,176.4c0.1-0.2,0.1-0.5,0.1-0.9
		c0-1.3-0.6-2-1.7-2s-1.6,0.8-1.6,1.9c0,0.5,0,0.8,0.1,1H132.1z"/>
	<path class="st1" d="M128.1,170h8.1v1h-8.1V170z"/>
	<path class="st1" d="M136.2,163.8l-1.8,1c-0.7,0.4-1.1,0.7-1.6,0.9l0,0c0.5,0.2,0.9,0.5,1.6,0.9l1.8,1v1.2l-4.1-2.5l-4,2.4v-1.2
		l1.9-1.1c0.5-0.3,0.9-0.5,1.4-0.7l0,0c-0.5-0.2-0.9-0.4-1.4-0.7l-1.9-1.1v-1.3l3.9,2.5l4.1-2.5L136.2,163.8L136.2,163.8z"/>
	<path class="st1" d="M132.4,157.2v3.1h2.9v-3.5h0.9v4.5h-8.1v-4.4h0.9v3.3h2.6v-3.1L132.4,157.2L132.4,157.2L132.4,157.2z"/>
	<path class="st1" d="M128.1,155.5v-1h7.2V151h0.9v4.5H128.1z"/>
	<path class="st1" d="M128.2,147.3c-0.1-0.5-0.2-1.2-0.2-1.9c0-1,0.2-1.7,0.6-2.2c0.3-0.4,0.8-0.7,1.4-0.7c0.8,0,1.5,0.5,1.8,1.4
		l0,0c0.2-0.8,0.8-1.7,2-1.7c0.7,0,1.2,0.3,1.6,0.7c0.5,0.6,0.8,1.5,0.8,2.8c0,0.7,0,1.3-0.1,1.6L128.2,147.3L128.2,147.3z
		 M131.5,146.2v-0.9c0-1.1-0.6-1.8-1.4-1.8c-0.9,0-1.3,0.7-1.3,1.8c0,0.5,0,0.8,0.1,0.9H131.5z M135.4,146.2c0-0.2,0-0.5,0-0.9
		c0-1.1-0.4-2.1-1.6-2.1c-1.1,0-1.6,0.9-1.6,2.1v0.9H135.4z"/>
	<path class="st1" d="M132.1,133.8c2.8,0,4.3,1.7,4.3,3.8s-1.7,3.6-4.1,3.6c-2.6,0-4.2-1.6-4.2-3.8
		C128,135.3,129.7,133.8,132.1,133.8z M132.2,140.1c1.7,0,3.3-0.9,3.3-2.6s-1.5-2.6-3.4-2.6c-1.6,0-3.3,0.8-3.3,2.6
		S130.4,140.1,132.2,140.1z"/>
	<path class="st1" d="M133.7,131.3l2.5,0.8v1.1l-8.1-2.7v-1.3l8.1-2.8v1.1l-2.5,0.9V131.3z M132.8,128.7l-2.3,0.8
		c-0.5,0.2-1,0.3-1.5,0.4l0,0c0.5,0.1,1,0.3,1.5,0.4l2.3,0.8V128.7z"/>
	<path class="st1" d="M128.2,125.3c-0.1-0.5-0.2-1.3-0.2-2c0-1.1,0.2-1.8,0.7-2.3c0.4-0.4,0.9-0.6,1.5-0.6c1.1,0,1.8,0.7,2.1,1.5
		l0,0c0.2-0.6,0.8-1,1.6-1.2c1.1-0.3,1.9-0.5,2.2-0.6v1.1c-0.2,0.1-0.9,0.3-1.9,0.5c-1.1,0.2-1.5,0.7-1.6,1.6v1h3.5v1H128.2z
		 M131.9,124.3v-1.1c0-1.1-0.6-1.8-1.5-1.8c-1,0-1.5,0.8-1.5,1.9c0,0.5,0,0.9,0.1,1L131.9,124.3L131.9,124.3z"/>
	<path class="st1" d="M128.2,118.9c-0.1-0.6-0.2-1.4-0.2-2.2c0-1.5,0.3-2.6,1-3.3s1.6-1.1,2.9-1.1s2.4,0.4,3.1,1.2
		c0.8,0.8,1.2,2,1.2,3.6c0,0.7,0,1.4-0.1,1.9L128.2,118.9L128.2,118.9z M135.4,117.8c0-0.3,0.1-0.6,0.1-1.1c0-2.2-1.2-3.4-3.4-3.4
		c-1.9,0-3.1,1.1-3.1,3.3c0,0.5,0,0.9,0.1,1.2H135.4z"/>
</g>
<g>
	<path class="st1" d="M182.8,146.7h4.8c1.8,0,2.6-0.8,2.6-1.9c0-1.2-0.8-2-2.6-2h-4.8v-1.1h4.7c2.5,0,3.5,1.3,3.5,3.1
		c0,1.7-0.9,2.9-3.5,2.9h-4.8L182.8,146.7L182.8,146.7z"/>
	<path class="st1" d="M189.6,140.2c0.3-0.5,0.5-1.2,0.5-1.9c0-1.1-0.6-1.7-1.4-1.7s-1.2,0.4-1.6,1.5c-0.5,1.3-1.2,2.1-2.3,2.1
		c-1.3,0-2.2-1-2.2-2.6c0-0.8,0.2-1.4,0.4-1.8l0.9,0.3c-0.1,0.3-0.4,0.8-0.4,1.5c0,1.1,0.7,1.5,1.2,1.5c0.8,0,1.1-0.5,1.6-1.6
		c0.5-1.4,1.2-2.1,2.4-2.1s2.3,0.9,2.3,2.8c0,0.8-0.2,1.6-0.5,2.1L189.6,140.2z"/>
	<path class="st1" d="M182.9,134.1c-0.1-0.5-0.2-1.2-0.2-1.9c0-1,0.2-1.7,0.6-2.2c0.3-0.4,0.8-0.7,1.4-0.7c0.8,0,1.5,0.5,1.8,1.4
		l0,0c0.2-0.8,0.8-1.7,2-1.7c0.7,0,1.2,0.3,1.6,0.7c0.5,0.6,0.8,1.5,0.8,2.8c0,0.7,0,1.3-0.1,1.6L182.9,134.1L182.9,134.1z
		 M186.2,133.1v-0.9c0-1.1-0.6-1.8-1.4-1.8c-0.9,0-1.3,0.7-1.3,1.8c0,0.5,0,0.8,0.1,0.9H186.2z M190.1,133.1c0-0.2,0-0.5,0-0.9
		c0-1.1-0.4-2.1-1.6-2.1c-1.1,0-1.6,0.9-1.6,2.1v0.9H190.1z"/>
</g>
<path class="st0" d="M74.8,81.6c2.6,0,4.7,2.1,4.7,4.7S77.4,91,74.8,91s-4.7-2.1-4.7-4.7C70,83.7,72.1,81.6,74.8,81.6L74.8,81.6z"/>
<path class="st0" d="M184.9,81.6c2.6,0,4.7,2.1,4.7,4.7s-2.1,4.7-4.7,4.7c-2.6,0-4.7-2.1-4.7-4.7C180.1,83.7,182.2,81.6,184.9,81.6
	L184.9,81.6z"/>
<path class="st0" d="M198.1,258.4H59.7c-6.6,0-12-5.4-12-12V45.1c0-6.6,5.4-12,12-12h138.4c6.6,0,12,5.4,12,12v201.3
	C210.1,253,204.7,258.4,198.1,258.4z"/>
</svg>
