<?xml version="1.0" encoding="utf-8"?>
<!-- Generator: Adobe Illustrator 25.0.0, SVG Export Plug-In . SVG Version: 6.00 Build 0)  -->
<svg version="1.1" id="Layer_1" xmlns="http://www.w3.org/2000/svg" xmlns:xlink="http://www.w3.org/1999/xlink" x="0px" y="0px"
	 viewBox="0 0 1404 792" style="enable-background:new 0 0 1404 792;" xml:space="preserve">
<style type="text/css">
	.st0{fill:none;stroke:#000000;stroke-width:0.1;stroke-linecap:round;stroke-linejoin:round;stroke-miterlimit:10;}
	.st1{fill:none;stroke:#000000;stroke-width:0.1;stroke-miterlimit:10;}
	.st2{fill:none;stroke:#000000;stroke-width:0.1;stroke-linejoin:round;stroke-miterlimit:10;}
	.st3{fill:none;stroke:#FF0000;stroke-width:0.1;stroke-miterlimit:10;}
</style>
<g id="Half_Mount_P6">
	<circle class="st0" cx="654.7" cy="54.3" r="6.1"/>
	<circle class="st0" cx="654.7" cy="510.7" r="6.1"/>
	<circle class="st0" cx="132.5" cy="531.9" r="6.1"/>
	<circle class="st0" cx="132.5" cy="33" r="6.1"/>
	<g id="LWPOLYLINE_8_">
		<path class="st0" d="M359.2,142.2c0-1.7-1.3-3-2.8-3H294c-1.6,0-2.8,1.4-2.8,3v41.9c0,1.7,1.3,3,2.8,3h62.4c1.6,0,2.8-1.4,2.8-3
			V142.2z"/>
	</g>
	<g id="LWPOLYLINE_7_">
		<path class="st0" d="M590.6,190.3h31.2c1.6,0,2.8-1.4,2.8-3V99.8c0-1.7-1.3-3-2.8-3h-31.2c-1.6,0-2.8,1.4-2.8,3v87.5
			C587.7,188.8,589,190.3,590.6,190.3z"/>
	</g>
	<g id="LWPOLYLINE_6_">
		<path class="st0" d="M732.7,190.7h31.2c1.6,0,2.8-1.4,2.8-3v-87.5c0-1.7-1.3-3-2.8-3h-31.2c-1.6,0-2.8,1.4-2.8,3v87.5
			C729.8,189.2,731.1,190.7,732.7,190.7z"/>
	</g>
	<circle class="st0" cx="697.5" cy="54.3" r="6.1"/>
	<circle class="st0" cx="1219.8" cy="33" r="6.1"/>
	<circle class="st0" cx="1219.8" cy="531.9" r="6.1"/>
	<circle class="st0" cx="697.5" cy="510.7" r="6.1"/>
	<ellipse class="st1" cx="451.4" cy="212.4" rx="9" ry="12.6"/>
	<ellipse class="st1" cx="472.6" cy="112.8" rx="9" ry="12.6"/>
	<ellipse class="st1" cx="943.4" cy="212.4" rx="9" ry="12.6"/>
	<ellipse class="st1" cx="964.6" cy="112.8" rx="9" ry="12.6"/>
	<g id="LWPOLYLINE_4_">
		<path class="st0" d="M497.5,341.4c-2.3,0-4.3,1.9-4.3,4.3s1.9,4.3,4.3,4.3s4.3-1.9,4.3-4.3S499.9,341.4,497.5,341.4"/>
	</g>
	<g id="LWPOLYLINE_3_">
		<path class="st0" d="M497.5,477.5c-2.3,0-4.3,1.9-4.3,4.3c0,2.3,1.9,4.3,4.3,4.3c2.3,0,4.3-1.9,4.3-4.3S499.9,477.5,497.5,477.5"
			/>
	</g>
	<g id="LWPOLYLINE_2_">
		<path class="st0" d="M299.1,477.5c-2.3,0-4.3,1.9-4.3,4.3c0,2.3,1.9,4.3,4.3,4.3s4.3-1.9,4.3-4.3
			C303.4,479.4,301.5,477.5,299.1,477.5"/>
	</g>
	<g id="LWPOLYLINE_1_">
		<path class="st0" d="M299.1,341.4c-2.3,0-4.3,1.9-4.3,4.3s1.9,4.3,4.3,4.3c2.3,0,4.3-1.9,4.3-4.3S301.5,341.4,299.1,341.4"/>
	</g>
	<path class="st1" d="M1101.2,423.4c-2.4,0-4.3-1.8-4.3-4.3c0-2.4,1.9-4.3,4.3-4.3c2.5,0,4.4,1.9,4.4,4.3
		C1105.5,421.6,1103.6,423.4,1101.2,423.4z"/>
	<path class="st1" d="M936.8,423.4c-2.4,0-4.3-1.8-4.3-4.3c0-2.4,1.9-4.3,4.3-4.3c2.5,0,4.4,1.9,4.4,4.3
		C941.1,421.6,939.2,423.4,936.8,423.4z"/>
	<path class="st1" d="M1101.2,488.6c-2.4,0-4.3-1.8-4.3-4.3c0-2.4,1.9-4.3,4.3-4.3c2.5,0,4.4,1.9,4.4,4.3
		C1105.5,486.8,1103.6,488.6,1101.2,488.6z"/>
	<path class="st1" d="M936.8,488.6c-2.4,0-4.3-1.8-4.3-4.3c0-2.4,1.9-4.3,4.3-4.3c2.5,0,4.4,1.9,4.4,4.3
		C941.1,486.8,939.2,488.6,936.8,488.6z"/>
	<path class="st2" d="M936.8,349.4c-2.4,0-4.3-1.9-4.3-4.4c0-2.4,1.9-4.3,4.3-4.3c2.5,0,4.4,1.9,4.4,4.3
		C941.1,347.5,939.2,349.4,936.8,349.4z"/>
	<path class="st2" d="M1101.2,349.4c-2.4,0-4.3-1.9-4.3-4.4c0-2.4,1.9-4.3,4.3-4.3c2.5,0,4.4,1.9,4.4,4.3
		C1105.5,347.5,1103.6,349.4,1101.2,349.4z"/>
	<g id="CIRCLE_3_">
		<path class="st0" d="M789.9,27.3c0-2.6,2.1-4.7,4.7-4.7s4.7,2.1,4.7,4.7s-2.1,4.7-4.7,4.7S789.9,29.9,789.9,27.3L789.9,27.3z"/>
	</g>
	<g id="CIRCLE_1_">
		<path class="st0" d="M552.6,537.6c0-2.6,2.3-4.7,5-4.7s5,2.1,5,4.7s-2.3,4.7-5,4.7S552.6,540.2,552.6,537.6L552.6,537.6z"/>
	</g>
	<line class="st0" x1="1375" y1="554.2" x2="13" y2="554.2"/>
	<line class="st0" x1="13" y1="10.8" x2="1375" y2="10.8"/>
	<circle class="st0" cx="654.7" cy="282.5" r="6.1"/>
	<circle class="st0" cx="697.5" cy="282.5" r="6.1"/>
	<line class="st1" x1="13" y1="10.8" x2="13" y2="554.2"/>
	<line class="st1" x1="1375" y1="10.8" x2="1375" y2="554.2"/>
	<g>
		<path class="st3" d="M1014.8,409.8c0.6-0.1,1.4-0.2,2.3-0.2c1.2,0,2.1,0.3,2.6,0.8c0.5,0.4,0.8,1.1,0.8,2s-0.3,1.5-0.7,2
			c-0.6,0.7-1.7,1-2.9,1c-0.4,0-0.7,0-1-0.1v3.8h-1.2L1014.8,409.8L1014.8,409.8z M1016,414.3c0.3,0.1,0.6,0.1,1,0.1
			c1.5,0,2.4-0.7,2.4-2c0-1.2-0.9-1.8-2.2-1.8c-0.5,0-0.9,0-1.1,0.1L1016,414.3L1016,414.3z"/>
		<path class="st3" d="M1023.3,410.4c0,0.4-0.3,0.8-0.8,0.8c-0.4,0-0.7-0.3-0.7-0.8c0-0.4,0.3-0.8,0.8-0.8
			C1023.1,409.7,1023.3,410,1023.3,410.4z M1022,419.1v-6.8h1.2v6.8H1022z"/>
	</g>
	<g>
		<path class="st3" d="M369.7,402.6c0.6-0.1,1.4-0.2,2.3-0.2c1.2,0,2.1,0.3,2.6,0.8c0.5,0.4,0.8,1.1,0.8,2s-0.3,1.5-0.7,2
			c-0.6,0.7-1.7,1-2.9,1c-0.4,0-0.7,0-1-0.1v3.8h-1.2L369.7,402.6L369.7,402.6z M370.9,407.1c0.3,0.1,0.6,0.1,1,0.1
			c1.5,0,2.4-0.7,2.4-2c0-1.2-0.9-1.8-2.2-1.8c-0.5,0-0.9,0-1.1,0.1v3.6H370.9z"/>
		<path class="st3" d="M378.2,403.2c0,0.4-0.3,0.8-0.8,0.8c-0.4,0-0.7-0.3-0.7-0.8c0-0.4,0.3-0.8,0.8-0.8
			C378,402.4,378.2,402.8,378.2,403.2z M376.9,411.9v-6.8h1.2v6.8H376.9z"/>
		<path class="st3" d="M380.7,405.1l1,1.5c0.3,0.4,0.5,0.7,0.7,1.1l0,0c0.2-0.4,0.4-0.8,0.7-1.1l1-1.4h1.3l-2.3,3.3l2.4,3.5h-1.4
			l-1-1.5c-0.3-0.4-0.5-0.8-0.7-1.2l0,0c-0.2,0.4-0.5,0.8-0.7,1.2l-1,1.5h-1.4l2.4-3.5l-2.3-3.3h1.3V405.1z"/>
		<path class="st3" d="M387.1,408.7c0,1.7,1.1,2.4,2.3,2.4c0.9,0,1.4-0.2,1.9-0.4l0.2,0.9c-0.4,0.2-1.2,0.4-2.3,0.4
			c-2.1,0-3.3-1.4-3.3-3.4s1.2-3.7,3.2-3.7c2.2,0,2.8,1.9,2.8,3.2c0,0.3,0,0.4,0,0.6H387.1z M390.7,407.9c0-0.8-0.3-2-1.7-2
			c-1.2,0-1.8,1.1-1.9,2H390.7z"/>
		<path class="st3" d="M393.4,402h1.2v9.9h-1.2V402z"/>
		<path class="st3" d="M401.6,411.7c-0.3,0.2-1,0.4-1.9,0.4c-2,0-3.4-1.4-3.4-3.5s1.4-3.6,3.6-3.6c0.7,0,1.4,0.2,1.7,0.4l-0.3,1
			c-0.3-0.2-0.8-0.3-1.4-0.3c-1.6,0-2.4,1.1-2.4,2.6c0,1.6,1,2.5,2.4,2.5c0.7,0,1.2-0.2,1.5-0.3L401.6,411.7z"/>
		<path class="st3" d="M406.8,411.9l-0.1-0.9l0,0c-0.4,0.5-1.1,1-2.1,1c-1.4,0-2.1-1-2.1-1.9c0-1.6,1.5-2.5,4.1-2.5v-0.1
			c0-0.6-0.2-1.6-1.5-1.6c-0.6,0-1.3,0.2-1.8,0.5l-0.3-0.8c0.6-0.4,1.4-0.6,2.2-0.6c2.1,0,2.6,1.4,2.6,2.8v2.5c0,0.6,0,1.2,0.1,1.6
			H406.8z M406.6,408.4c-1.3,0-2.9,0.2-2.9,1.5c0,0.8,0.5,1.2,1.2,1.2c0.9,0,1.4-0.6,1.6-1.1c0-0.1,0.1-0.3,0.1-0.4L406.6,408.4
			L406.6,408.4z"/>
		<path class="st3" d="M415.6,402v8.2c0,0.6,0,1.3,0.1,1.8h-1.1l-0.1-1.2l0,0c-0.4,0.8-1.2,1.3-2.3,1.3c-1.6,0-2.9-1.4-2.9-3.4
			c0-2.3,1.4-3.6,3-3.6c1,0,1.7,0.5,2,1l0,0v-4L415.6,402L415.6,402z M414.4,407.9c0-0.2,0-0.4-0.1-0.5c-0.2-0.8-0.9-1.4-1.8-1.4
			c-1.3,0-2,1.1-2,2.6c0,1.4,0.7,2.5,2,2.5c0.8,0,1.6-0.5,1.8-1.5c0-0.2,0.1-0.3,0.1-0.5V407.9z"/>
		<path class="st3" d="M418.3,408.7c0,1.7,1.1,2.4,2.3,2.4c0.9,0,1.4-0.2,1.9-0.4l0.2,0.9c-0.4,0.2-1.2,0.4-2.3,0.4
			c-2.1,0-3.3-1.4-3.3-3.4s1.2-3.7,3.2-3.7c2.2,0,2.8,1.9,2.8,3.2c0,0.3,0,0.4,0,0.6H418.3z M422,407.9c0-0.8-0.3-2-1.7-2
			c-1.2,0-1.8,1.1-1.9,2H422z"/>
		<path class="st3" d="M380,419.4c0.5-0.1,1.4-0.2,2.2-0.2c1.2,0,2,0.2,2.6,0.7c0.5,0.4,0.8,0.9,0.8,1.7c0,0.9-0.6,1.7-1.6,2.1l0,0
			c0.9,0.2,1.9,1,1.9,2.4c0,0.8-0.3,1.4-0.8,1.9c-0.7,0.6-1.7,0.9-3.3,0.9c-0.8,0-1.5-0.1-1.9-0.1v-9.4H380z M381.2,423.3h1.1
			c1.3,0,2-0.7,2-1.6c0-1.1-0.8-1.5-2.1-1.5c-0.6,0-0.9,0-1.1,0.1L381.2,423.3L381.2,423.3z M381.2,427.8c0.2,0,0.6,0.1,1,0.1
			c1.3,0,2.4-0.5,2.4-1.8s-1.1-1.8-2.4-1.8h-1V427.8z"/>
		<path class="st3" d="M393.7,425.3c0,2.5-1.7,3.6-3.4,3.6c-1.8,0-3.2-1.3-3.2-3.5c0-2.3,1.5-3.6,3.4-3.6
			C392.4,421.8,393.7,423.2,393.7,425.3z M388.4,425.3c0,1.5,0.9,2.6,2.1,2.6s2.1-1.1,2.1-2.6c0-1.1-0.6-2.6-2-2.6
			C389,422.7,388.4,424,388.4,425.3z"/>
		<path class="st3" d="M399,428.7l-0.1-0.9l0,0c-0.4,0.5-1.1,1-2.1,1c-1.4,0-2.1-1-2.1-1.9c0-1.6,1.5-2.5,4.1-2.5v-0.1
			c0-0.6-0.2-1.6-1.5-1.6c-0.6,0-1.3,0.2-1.8,0.5l-0.3-0.8c0.6-0.4,1.4-0.6,2.2-0.6c2.1,0,2.6,1.4,2.6,2.8v2.5c0,0.6,0,1.2,0.1,1.6
			H399z M398.9,425.2c-1.3,0-2.9,0.2-2.9,1.5c0,0.8,0.5,1.2,1.2,1.2c0.9,0,1.4-0.6,1.6-1.1c0-0.1,0.1-0.3,0.1-0.4L398.9,425.2
			L398.9,425.2z"/>
		<path class="st3" d="M402,424c0-0.8,0-1.5-0.1-2.1h1.1v1.3h0.1c0.3-0.9,1.1-1.5,1.9-1.5c0.1,0,0.2,0,0.4,0v1.2c-0.1,0-0.3,0-0.4,0
			c-0.9,0-1.5,0.7-1.7,1.6c0,0.2-0.1,0.4-0.1,0.6v3.6H402L402,424L402,424z"/>
		<path class="st3" d="M412.3,418.8v8.2c0,0.6,0,1.3,0.1,1.8h-1.1l-0.1-1.2l0,0c-0.4,0.8-1.2,1.3-2.3,1.3c-1.6,0-2.9-1.4-2.9-3.4
			c0-2.3,1.4-3.6,3-3.6c1,0,1.7,0.5,2,1l0,0v-4L412.3,418.8L412.3,418.8z M411.1,424.7c0-0.2,0-0.4-0.1-0.5
			c-0.2-0.8-0.9-1.4-1.8-1.4c-1.3,0-2,1.1-2,2.6c0,1.4,0.7,2.5,2,2.5c0.8,0,1.6-0.5,1.8-1.5c0-0.2,0.1-0.3,0.1-0.5V424.7z"/>
	</g>
	<g>
		<path class="st3" d="M604.7,225.6v1.8h1.8v5.2h-1.8v1.8h-7v3.5h-3.5v-12.2L604.7,225.6L604.7,225.6z M597.7,232.6h5.2v-5.2h-5.2
			V232.6z"/>
		<path class="st3" d="M608.2,236.1v-7h1.8v-1.8h1.8v-1.8h7v1.8h-5.2v1.8h-1.8v1.8h7v1.8h1.8v3.5h-1.8v1.8H610v-1.8L608.2,236.1
			L608.2,236.1z M611.7,236.1h5.2v-3.5h-5.2V236.1z"/>
		<path class="st3" d="M639.7,225.6v5.2h5.2v-5.2h3.5v12.2h-3.5v-5.2h-5.2v5.2h-3.5v-12.2H639.7z"/>
		<path class="st3" d="M651.9,229.1v-1.8h1.8v-1.8h5.2v1.8h1.8v1.8h1.8v8.8H659v-3.5h-5.2v3.5h-3.5v-8.8H651.9z M653.7,232.6h5.2
			v-3.5h-1.8v-1.8h-1.8v1.8h-1.8v3.5H653.7z"/>
		<path class="st3" d="M667.7,225.6v10.5h8.8v1.8h-12.3v-12.2L667.7,225.6L667.7,225.6z"/>
		<path class="st3" d="M690.4,225.6v1.8h-8.8v3.5h7v1.8h-7v5.2h-3.5v-12.2L690.4,225.6L690.4,225.6z"/>
		<path class="st3" d="M709.7,225.6v1.8h1.8v1.8h1.8v-1.8h1.8v-1.8h3.5v12.2h-3.5v-5.2h-1.8v1.8h-1.8v-1.8h-1.8v5.2h-3.5v-12.2
			H709.7z"/>
		<path class="st3" d="M720.2,236.1v-8.8h1.8v-1.8h8.8v1.8h1.8v8.8h-1.8v1.8H722v-1.8H720.2z M723.7,236.1h5.2v-8.8h-5.2V236.1z"/>
		<path class="st3" d="M734.2,236.1v-10.5h3.5v10.5h5.2v-10.5h3.5v10.5h-1.8v1.8h-8.8v-1.8H734.2z"/>
		<path class="st3" d="M751.7,225.6v1.8h1.8v1.8h1.8v1.8h1.8v-5.2h3.5V238h-3.5v-1.8h-1.8v-1.8h-1.8v-1.8h-1.8v5.2h-3.5v-12.2H751.7
			z"/>
		<path class="st3" d="M763.9,227.3v-1.8h10.5v1.8h-3.5v10.5h-3.5v-10.5H763.9z"/>
	</g>
</g>
</svg>
