<?xml version="1.0" encoding="utf-8"?>
<!-- Generator: Adobe Illustrator 27.7.0, SVG Export Plug-In . SVG Version: 6.00 Build 0)  -->
<svg version="1.1" id="Back_Mount_P6" xmlns="http://www.w3.org/2000/svg" xmlns:xlink="http://www.w3.org/1999/xlink" x="0px"
	 y="0px" viewBox="0 0 2239.3 543.5" style="enable-background:new 0 0 2239.3 543.5;" xml:space="preserve">
<style type="text/css">
	.st0{fill:none;stroke:#000000;stroke-width:0.1;stroke-linecap:round;stroke-linejoin:round;stroke-miterlimit:10;}
	.st1{fill:none;stroke:#000000;stroke-width:0.1;stroke-miterlimit:10;}
	.st2{fill:none;stroke:#000000;stroke-width:0.1;stroke-linejoin:round;stroke-miterlimit:10;}
	.st3{fill:none;stroke:#FF0000;stroke-width:0.1;stroke-miterlimit:10;}
	.st4{font-family:'Emulogic';}
	.st5{font-size:12px;}
</style>
<circle class="st0" cx="1098.3" cy="43.6" r="6.1"/>
<circle class="st0" cx="1098.3" cy="499.9" r="6.1"/>
<circle class="st0" cx="576" cy="521.2" r="6.1"/>
<circle class="st0" cx="53.7" cy="499.9" r="6.1"/>
<circle class="st0" cx="576" cy="22.3" r="6.1"/>
<circle class="st0" cx="53.7" cy="43.7" r="6.1"/>
<g id="LWPOLYLINE_27_">
	<path class="st0" d="M88.7,180h31.2c1.6,0,2.8-1.4,2.8-3V89.5c0-1.7-1.3-3-2.8-3H88.7c-1.6,0-2.8,1.4-2.8,3V177
		C85.8,178.5,87.1,180,88.7,180z"/>
</g>
<g id="LWPOLYLINE_26_">
	<path class="st0" d="M802.8,131.5c0-1.7-1.3-3-2.8-3h-62.4c-1.6,0-2.8,1.4-2.8,3v41.9c0,1.7,1.3,3,2.8,3H800c1.6,0,2.8-1.4,2.8-3
		V131.5z"/>
</g>
<g id="LWPOLYLINE_25_">
	<path class="st0" d="M1034.2,179.6h31.2c1.6,0,2.8-1.4,2.8-3V89.1c0-1.7-1.3-3-2.8-3h-31.2c-1.6,0-2.8,1.4-2.8,3v87.5
		C1031.3,178.1,1032.6,179.6,1034.2,179.6z"/>
</g>
<g id="LWPOLYLINE_24_">
	<path class="st0" d="M1176.3,180h31.2c1.6,0,2.8-1.4,2.8-3V89.5c0-1.7-1.3-3-2.8-3h-31.2c-1.6,0-2.8,1.4-2.8,3V177
		C1173.4,178.5,1174.7,180,1176.3,180z"/>
</g>
<g id="LWPOLYLINE_23_">
	<path class="st0" d="M1890.4,131.5c0-1.7-1.3-3-2.8-3h-62.4c-1.6,0-2.8,1.4-2.8,3v41.9c0,1.7,1.3,3,2.8,3h62.4c1.6,0,2.8-1.4,2.8-3
		V131.5z"/>
</g>
<circle class="st0" cx="1141" cy="43.6" r="6.1"/>
<circle class="st0" cx="1663.3" cy="22.3" r="6.1"/>
<circle class="st0" cx="2185.6" cy="43.6" r="6.1"/>
<circle class="st0" cx="2185.6" cy="499.9" r="6.1"/>
<circle class="st0" cx="1663.3" cy="521.2" r="6.1"/>
<circle class="st0" cx="1141" cy="499.9" r="6.1"/>
<ellipse class="st1" cx="894.9" cy="201.7" rx="9" ry="12.6"/>
<ellipse class="st1" cx="916.1" cy="102.1" rx="9" ry="12.6"/>
<ellipse class="st1" cx="1387" cy="201.7" rx="9" ry="12.6"/>
<ellipse class="st1" cx="1408.2" cy="102.1" rx="9" ry="12.6"/>
<g id="LWPOLYLINE_13_">
	<path class="st0" d="M512.7,319.7c-2.3,0-4.3,1.9-4.3,4.3s1.9,4.3,4.3,4.3c2.3,0,4.3-1.9,4.3-4.3S515.1,319.7,512.7,319.7"/>
</g>
<g id="LWPOLYLINE_12_">
	<path class="st0" d="M512.7,455.7c-2.3,0-4.3,1.9-4.3,4.3s1.9,4.3,4.3,4.3c2.3,0,4.3-1.9,4.3-4.3S515.1,455.7,512.7,455.7"/>
</g>
<g id="LWPOLYLINE_11_">
	<path class="st0" d="M314.3,455.7c-2.3,0-4.3,1.9-4.3,4.3s1.9,4.3,4.3,4.3s4.3-1.9,4.3-4.3S316.7,455.7,314.3,455.7"/>
</g>
<g id="LWPOLYLINE_6_">
	<path class="st0" d="M314.3,319.7c-2.3,0-4.3,1.9-4.3,4.3s1.9,4.3,4.3,4.3s4.3-1.9,4.3-4.3S316.7,319.7,314.3,319.7"/>
</g>
<path class="st1" d="M2011.1,412.7c-2.4,0-4.3-1.8-4.3-4.3c0-2.4,1.9-4.3,4.3-4.3c2.5,0,4.4,1.9,4.4,4.3
	C2015.4,410.9,2013.5,412.7,2011.1,412.7z"/>
<path class="st1" d="M1846.7,412.7c-2.4,0-4.3-1.8-4.3-4.3c0-2.4,1.9-4.3,4.3-4.3c2.5,0,4.4,1.9,4.4,4.3
	C1851,410.9,1849.1,412.7,1846.7,412.7z"/>
<path class="st1" d="M2011.1,477.9c-2.4,0-4.3-1.8-4.3-4.3c0-2.4,1.9-4.3,4.3-4.3c2.5,0,4.4,1.9,4.4,4.3
	C2015.4,476.1,2013.5,477.9,2011.1,477.9z"/>
<path class="st1" d="M1846.7,477.9c-2.4,0-4.3-1.8-4.3-4.3c0-2.4,1.9-4.3,4.3-4.3c2.5,0,4.4,1.9,4.4,4.3
	C1851,476.1,1849.1,477.9,1846.7,477.9z"/>
<path class="st2" d="M1846.7,338.7c-2.4,0-4.3-1.9-4.3-4.4c0-2.4,1.9-4.3,4.3-4.3c2.5,0,4.4,1.9,4.4,4.3
	C1851,336.8,1849.1,338.7,1846.7,338.7z"/>
<path class="st2" d="M2011.1,338.7c-2.4,0-4.3-1.9-4.3-4.4c0-2.4,1.9-4.3,4.3-4.3c2.5,0,4.4,1.9,4.4,4.3
	C2015.4,336.8,2013.5,338.7,2011.1,338.7z"/>
<g id="CIRCLE_57_">
	<path class="st0" d="M146.1,16.6c0-2.6,2.1-4.7,4.7-4.7c2.6,0,4.7,2.1,4.7,4.7s-2.1,4.7-4.7,4.7C148.2,21.3,146.1,19.2,146.1,16.6
		L146.1,16.6z"/>
</g>
<g id="CIRCLE_56_">
	<path class="st0" d="M1233.4,16.6c0-2.6,2.1-4.7,4.7-4.7s4.7,2.1,4.7,4.7s-2.1,4.7-4.7,4.7S1233.4,19.2,1233.4,16.6L1233.4,16.6z"
		/>
</g>
<g id="CIRCLE_55_">
	<path class="st0" d="M2083.4,526.9c0-2.6,2.3-4.7,5-4.7s5,2.1,5,4.7s-2.3,4.7-5,4.7S2083.4,529.5,2083.4,526.9L2083.4,526.9z"/>
</g>
<g id="CIRCLE_54_">
	<path class="st0" d="M996.2,526.9c0-2.6,2.3-4.7,5-4.7s5,2.1,5,4.7s-2.3,4.7-5,4.7S996.2,529.5,996.2,526.9L996.2,526.9z"/>
</g>
<rect x="0.1" y="0.1" class="st0" width="2239.2" height="543.4"/>
<circle class="st0" cx="2223.4" cy="72" r="4.8"/>
<circle class="st0" cx="2223.4" cy="471.4" r="4.8"/>
<circle class="st0" cx="15.9" cy="72" r="4.8"/>
<circle class="st0" cx="15.9" cy="471.4" r="4.8"/>
<circle class="st0" cx="53.7" cy="271.7" r="6.1"/>
<circle class="st0" cx="1098.3" cy="271.7" r="6.1"/>
<circle class="st0" cx="1141" cy="271.7" r="6.1"/>
<circle class="st0" cx="2185.6" cy="271.7" r="6.1"/>
<ellipse class="st1" cx="191.3" cy="210.8" rx="9" ry="12.6"/>
<ellipse class="st1" cx="212.5" cy="111.2" rx="9" ry="12.6"/>
<text transform="matrix(1 0 0 1 931.2458 67.2273)" class="st3 st4 st5">Pixelcade LED P6 Reference Mount</text>
</svg>
