<?xml version="1.0" encoding="utf-8"?>
<!-- Generator: Adobe Illustrator 28.0.0, SVG Export Plug-In . SVG Version: 6.00 Build 0)  -->
<svg version="1.1" id="Back_Mount_R2" xmlns="http://www.w3.org/2000/svg" xmlns:xlink="http://www.w3.org/1999/xlink" x="0px"
	 y="0px" viewBox="0 0 2217.6 453.7" style="enable-background:new 0 0 2217.6 453.7;" xml:space="preserve">
<style type="text/css">
	.st0{fill:none;stroke:#000000;stroke-width:0.1;stroke-linecap:round;stroke-linejoin:round;stroke-miterlimit:10;}
	.st1{fill:none;stroke:#000000;stroke-width:0.1;stroke-miterlimit:10;}
	.st2{fill:none;stroke:#000000;stroke-width:0.1;stroke-miterlimit:2;}
	.st3{fill:none;stroke:#000000;stroke-width:0.1;stroke-miterlimit:11.3386;}
	.st4{fill:none;stroke:#FF0000;stroke-width:0.1;stroke-miterlimit:11.3386;}
	.st5{font-family:'Emulogic';}
	.st6{font-size:12px;}
	.st7{font-family:'MyriadPro-Regular';}
	.st8{fill:none;stroke:#FF0000;stroke-width:0.1;stroke-miterlimit:10;}
	.st9{fill-rule:evenodd;clip-rule:evenodd;fill:none;stroke:#FF0000;stroke-width:0.1;stroke-miterlimit:10;}
	.st10{font-size:18px;}
	.st11{font-size:14px;}
</style>
<circle class="st0" cx="47.3" cy="22.4" r="4.8"/>
<circle class="st0" cx="47.3" cy="431.2" r="4.8"/>
<circle class="st0" cx="2170.4" cy="431.2" r="4.8"/>
<circle class="st0" cx="2170.4" cy="22.4" r="4.8"/>
<line class="st0" x1="171.1" y1="68" x2="171.1" y2="68"/>
<g id="LWPOLYLINE_00000150076238222879434680000000760348698234313603_">
	<path class="st0" d="M318.3,270.8h31.2c1.6,0,2.8-1.4,2.8-3v-87.5c0-1.7-1.3-3-2.8-3h-31.2c-1.6,0-2.8,1.4-2.8,3v87.5
		C315.4,269.2,316.7,270.8,318.3,270.8z"/>
</g>
<g id="LWPOLYLINE_00000059299190935764339050000000104703069086500997_">
	<path class="st0" d="M958.9,270.8h31.2c1.6,0,2.8-1.4,2.8-3v-87.5c0-1.7-1.3-3-2.8-3h-31.2c-1.6,0-2.8,1.4-2.8,3v87.5
		C956,269.2,957.3,270.8,958.9,270.8z"/>
</g>
<g id="LWPOLYLINE_00000157301391416060941600000013830033450074563740_">
	<path class="st0" d="M1224.6,271.8h31.2c1.6,0,2.8-1.4,2.8-3v-87.5c0-1.7-1.3-3-2.8-3h-31.2c-1.6,0-2.8,1.4-2.8,3v87.5
		C1221.7,270.2,1223,271.8,1224.6,271.8z"/>
</g>
<g id="LWPOLYLINE_00000140729195735583068720000017126077150049456047_">
	<path class="st0" d="M780,156.3c0-1.7-1.3-3-2.8-3h-62.4c-1.6,0-2.8,1.4-2.8,3v41.9c0,1.7,1.3,3,2.8,3h62.4c1.6,0,2.8-1.4,2.8-3
		V156.3z"/>
</g>
<g id="LWPOLYLINE_00000155122528573115173990000009149106473592175253_">
	<path class="st0" d="M1686.3,156.3c0-1.7-1.3-3-2.8-3h-62.4c-1.6,0-2.8,1.4-2.8,3v41.9c0,1.7,1.3,3,2.8,3h62.4c1.6,0,2.8-1.4,2.8-3
		V156.3z"/>
</g>
<circle class="st0" cx="655.8" cy="22.8" r="6.1"/>
<circle class="st0" cx="224.9" cy="22.8" r="6.1"/>
<circle class="st0" cx="1086.6" cy="22.8" r="6.1"/>
<circle class="st0" cx="1086.6" cy="431" r="6.1"/>
<circle class="st0" cx="1131.2" cy="431" r="6.1"/>
<circle class="st0" cx="1562.1" cy="431" r="6.1"/>
<circle class="st0" cx="1992.9" cy="431" r="6.1"/>
<circle class="st0" cx="1992.9" cy="22.8" r="6.1"/>
<circle class="st0" cx="1562.1" cy="22.8" r="6.1"/>
<circle class="st0" cx="1131.2" cy="22.8" r="6.1"/>
<circle class="st0" cx="655.8" cy="431" r="6.1"/>
<circle class="st0" cx="224.9" cy="431" r="6.1"/>
<g id="CIRCLE_00000031909659180788603030000000291492710820819375_">
	<path class="st0" d="M338.9,14.2c0-2.7,2.2-5,5-5c2.8,0,5,2.2,5,5s-2.2,5-5,5C341.1,19.3,338.9,17.1,338.9,14.2L338.9,14.2z"/>
</g>
<g id="CIRCLE_00000008135767726794659370000000757953169491304325_">
	<path class="st0" d="M962.9,439.5c0-2.5,2.1-4.7,4.7-4.7c2.5,0,4.7,2.1,4.7,4.7c0,2.5-2.1,4.7-4.7,4.7S962.9,442.1,962.9,439.5
		L962.9,439.5z"/>
</g>
<g id="CIRCLE_00000021102152614548685830000005804083894171372172_">
	<path class="st0" d="M1245.6,14.2c0-2.5,2.1-4.7,4.7-4.7c2.6,0,4.7,2.1,4.7,4.7s-2.1,4.7-4.7,4.7
		C1247.6,18.9,1245.6,16.9,1245.6,14.2L1245.6,14.2z"/>
</g>
<g id="CIRCLE_00000148655335954938156980000010300345811286706609_">
	<path class="st0" d="M1868.8,439.5c0-2.7,2.2-5,5-5c2.7,0,5,2.2,5,5c0,2.7-2.2,5-5,5S1868.8,442.3,1868.8,439.5L1868.8,439.5z"/>
</g>
<path class="st0" d="M475.4,128.3c2.6,0,4.7,2.1,4.7,4.7s-2.1,4.7-4.7,4.7s-4.7-2.1-4.7-4.7S472.7,128.3,475.4,128.3L475.4,128.3z"
	/>
<path class="st0" d="M475.4,326.9c2.6,0,4.7,2.1,4.7,4.7s-2.1,4.7-4.7,4.7s-4.7-2.1-4.7-4.7C470.6,329,472.7,326.9,475.4,326.9
	L475.4,326.9z"/>
<path class="st0" d="M611.4,128.3c2.6,0,4.7,2.1,4.7,4.7s-2.1,4.7-4.7,4.7c-2.6,0-4.7-2.1-4.7-4.7S608.7,128.3,611.4,128.3
	L611.4,128.3z"/>
<path class="st0" d="M611.4,326.6c2.6,0,4.7,2.1,4.7,4.7s-2.1,4.7-4.7,4.7c-2.6,0-4.7-2.1-4.7-4.7
	C606.6,328.7,608.7,326.6,611.4,326.6L611.4,326.6z"/>
<ellipse class="st1" cx="809.2" cy="226.9" rx="9" ry="12.6"/>
<ellipse class="st1" cx="830.4" cy="127.3" rx="9" ry="12.6"/>
<ellipse class="st1" cx="1174.1" cy="284.3" rx="9" ry="12.6"/>
<ellipse class="st1" cx="1174.1" cy="160.2" rx="9" ry="12.6"/>
<ellipse class="st1" cx="1495.3" cy="229.9" rx="9" ry="12.6"/>
<ellipse class="st1" cx="1511.5" cy="127.3" rx="9" ry="12.6"/>
<g>
	<g>
		<g>
			<path class="st2" d="M0.1,453.6h2217.6"/>
			<g>
				<line class="st2" x1="0.1" y1="453.6" x2="0.1" y2="0.1"/>
				<path class="st2" d="M2217.5,0.1H0.1"/>
			</g>
		</g>
	</g>
	<line class="st2" x1="2217.5" y1="0.1" x2="2217.5" y2="453.6"/>
</g>
<path class="st3" d="M1429.6,139.5c2.6,0,4.7,2.1,4.7,4.7c0,2.6-2.1,4.7-4.7,4.7c-2.6,0-4.7-2.1-4.7-4.7
	C1424.8,141.6,1426.9,139.5,1429.6,139.5z"/>
<path class="st3" d="M1429.6,301.1c2.6,0,4.7,2.1,4.7,4.7s-2.1,4.7-4.7,4.7c-2.6,0-4.7-2.1-4.7-4.7
	C1424.8,303.2,1426.9,301.1,1429.6,301.1z"/>
<rect x="1389.9" y="157" class="st4" width="79.4" height="136.1"/>
<text transform="matrix(1 0 0 1 926.272 58.5905)"><tspan x="0" y="0" class="st4 st5 st6">pixelcade LED generic 32</tspan><tspan x="288" y="0" class="st4 st7 st6">”</tspan></text>
<path class="st8" d="M2128.2,278.6l-0.1-92.5l18.6,0l-33.3-54.4l-33.3,54.4l18.6,0l0.1,92.7"/>
<g>
	<path class="st9" d="M2163.5,296.2v6.1h3.2v-6.1 M2158.3,296.2c0,0.7-0.1,1.6-0.4,2.1c-0.4,0.7-1.3,0.9-2,0.9
		c-0.8,0-1.6-0.2-2.1-1.2c-0.2-0.5-0.3-1.2-0.3-1.9 M2150.1,296.2c0,1.8,0.2,3.5,1.4,4.8c1.1,1.2,2.8,1.5,4.2,1.5
		c1.5,0,3.1-0.4,4.2-1.8c1-1.2,1.1-2.9,1.1-4.5 M2132.7,296.2v6.1h9.8v-3.4h-6.6v-2.7 M2127,296.2c-0.1,0.3-0.2,0.7-0.4,1
		c-0.7,1.5-1.6,1.9-2.9,1.9h-1.1v-2.8 M2119.4,296.2v6.1h4.5c1.9,0,3.6-0.5,5-2.4c0.7-1.1,1.2-2.3,1.5-3.7 M2113.5,296.2v6.1h3.2
		v-6.1 M2107.7,296.2c0.3,0.3,0.6,0.7,0.6,1.2c0,1.4-1.2,1.9-2.1,1.9c-1.4,0-2.5-0.6-2.9-2.5l-3,0.9c0.6,3.4,3,4.8,5.5,4.8
		c1.4,0,2.9-0.3,4-1.4c1.1-1,1.7-2.7,1.7-4.4c0-0.2,0-0.4,0-0.5 M2089.7,296.2c0.3,0.3,0.6,0.7,0.6,1.2c0,1.4-1.2,1.9-2.1,1.9
		c-1.4,0-2.5-0.6-2.9-2.5l-3,0.9c0.6,3.4,3,4.8,5.5,4.8c1.4,0,2.9-0.3,4-1.4c1.1-1,1.7-2.7,1.7-4.4c0-0.2,0-0.4,0-0.5 M2077.5,296.2
		v6.1h3.2v-6.1 M2071.7,296.2v6.1h3.2v-6.1 M2064.2,296.2v6.1h3.2v-6.1 M2055.9,296.2v6.1 M2055.9,302.3h3.2v-6.1"/>
	<path class="st9" d="M2163.5,289.8v6.3 M2170.9,289.8c0,0.2,0,0.3,0,0.5c0,0.6-0.1,1.1-0.4,1.6c-0.6,0.8-1.2,0.8-2,0.8h-1.8v-2.8
		 M2166.7,296.2v-0.4h2.1c1.5,0,2.7,0,3.9-1.2c1-1.1,1.5-2.8,1.5-4.4c0-0.1,0-0.2,0-0.3 M2158.3,289.8v5.5c0,0.3,0,0.5,0,0.8
		 M2161,296.2c0-0.3,0-0.5,0-0.8v-5.5 M2153.6,296.2c0-0.3,0-0.6,0-0.8v-5.5 M2150.1,289.8v5.5c0,0.3,0,0.5,0,0.8 M2132.7,289.8v6.3
		 M2135.9,296.2V295h5.2v-3.3h-5.2v-1.9 M2126.6,289.8c0.5,1,0.8,2.3,0.8,3.5c0,0.9-0.1,1.9-0.4,2.8 M2130.5,296.2
		c0.2-0.9,0.3-1.8,0.3-2.7c0-1.3-0.2-2.5-0.5-3.7 M2122.6,296.2v-6.3 M2119.4,289.8v6.3 M2113.5,289.8v6.3 M2116.7,296.2v-6.3
		 M2111.5,296.2c-0.1-1.5-0.8-2.7-1.8-3.6c-1-0.8-2.5-1.2-3.6-1.5c-0.7-0.2-1.7-0.4-1.9-1.3 M2101,289.8c0,0.1,0,0.2,0,0.3
		c0,3.8,2.4,4.7,4.8,5.4c0.5,0.1,1.3,0.3,1.8,0.7 M2083,289.8c0,0.1,0,0.2,0,0.3c0,3.8,2.4,4.7,4.8,5.4c0.5,0.1,1.3,0.3,1.8,0.7
		 M2093.5,296.2c-0.1-1.5-0.8-2.7-1.8-3.6c-1-0.8-2.5-1.2-3.6-1.5c-0.7-0.2-1.7-0.4-1.9-1.3 M2080.7,296.2v-6.3 M2077.5,289.8v6.3
		 M2071.7,289.8v1.8h-4.2v-1.8 M2074.9,296.2v-6.3 M2067.4,296.2v-1.1h4.2v1.1 M2064.2,289.8v6.3 M2055.9,289.8v6.3 M2059.1,296.2
		v-6.3 M2055.9,296.2"/>
	<path class="st9" d="M2166.7,289.8V288h1.8c0.6,0,1.3,0,1.8,0.5c0.3,0.3,0.5,0.8,0.6,1.4 M2174.1,289.8c-0.1-1.7-0.7-3-1.8-4
		c-1.1-1-2.4-1-3.7-1h-5.2v5 M2161,289.8v-5h-2.8v5 M2153.6,289.8v-5h-3.5v5 M2135.9,289.8v-1.6h6.6v-3.4h-9.8v5 M2130.2,289.8
		c-0.3-1.1-0.9-2.2-1.6-3c-1.5-1.8-3.2-2-5.2-2h-4v5 M2122.6,289.8V288h1.1c1.1,0,2,0.2,2.7,1.4c0.1,0.1,0.1,0.3,0.2,0.4
		 M2116.7,289.8v-5h-3.2v5 M2104.2,289.8c0-0.1-0.1-0.3-0.1-0.5c0-1.4,1-1.6,1.9-1.6c1.2,0,2,0.6,2.4,2.1l2.7-1.1
		c-0.8-3-2.8-4.1-5.2-4.1c-1.3,0-2.4,0.4-3.4,1.4c-0.9,1-1.4,2.3-1.5,3.8 M2086.2,289.8c0-0.1-0.1-0.3-0.1-0.5c0-1.4,1-1.6,1.9-1.6
		c1.2,0,2,0.6,2.4,2.1l2.7-1.1c-0.8-3-2.8-4.1-5.2-4.1c-1.3,0-2.4,0.4-3.4,1.4c-0.9,1-1.4,2.3-1.5,3.8 M2080.7,289.8v-5h-3.2v5
		 M2074.9,289.8v-5h-3.2v5 M2067.4,289.8v-5h-3.2v5 M2059.1,289.8 M2059.1,289.8v-1.5h3.4v-3.5h-10.1v3.5h3.5v1.5"/>
</g>
<line class="st8" x1="2098.8" y1="278.8" x2="2128.2" y2="278.6"/>
<rect x="2031.5" y="124.9" class="st8" width="160.7" height="184"/>
<rect x="2035.2" y="128.1" class="st8" width="153.6" height="178.1"/>
<text transform="matrix(1 0 0 1 646.5646 298.0901)" class="st8 st7 st10">5V Only !</text>
<text transform="matrix(1 0 0 1 1300.5532 266.4936)"><tspan x="0" y="0" class="st8 st7 st11">12V SATA</tspan><tspan x="-8.5" y="16.8" class="st8 st7 st11">Power Cable</tspan></text>
</svg>
