<?xml version="1.0" encoding="utf-8"?>
<!-- Generator: Adobe Illustrator 28.1.0, SVG Export Plug-In . SVG Version: 6.00 Build 0)  -->
<svg version="1.1" id="DMD_Back" xmlns="http://www.w3.org/2000/svg" xmlns:xlink="http://www.w3.org/1999/xlink" x="0px" y="0px"
	 viewBox="0 0 963.4 281.8" style="enable-background:new 0 0 963.4 281.8;" xml:space="preserve">
<style type="text/css">
	.st0{fill:none;stroke:#000000;stroke-width:0.1;stroke-miterlimit:15.1399;}
	.st1{fill:none;stroke:#000000;stroke-width:0.1;stroke-miterlimit:3;}
	.st2{fill:none;stroke:#FF0000;stroke-width:0.1;stroke-miterlimit:2;}
	.st3{font-family:'Emulogic';}
	.st4{font-size:12px;}
	.st5{fill:none;stroke:#000000;stroke-width:0.1;stroke-linecap:round;stroke-linejoin:round;stroke-miterlimit:10;}
	.st6{fill:none;stroke:#FF0000;stroke-width:0.1;stroke-miterlimit:10;}
	.st7{fill:none;stroke:#FF0000;stroke-width:0.1;stroke-miterlimit:22.9256;}
	.st8{fill:none;stroke:#000000;stroke-width:0.1;stroke-miterlimit:10;}
	.st9{font-family:'MyriadPro-Regular';}
	.st10{fill:none;stroke:#000000;stroke-width:0.1;stroke-miterlimit:11.3386;}
	.st11{fill:none;stroke:#FF0000;stroke-width:0.1;stroke-miterlimit:11.3386;}
</style>
<path class="st0" d="M951.2,281.8h-939c-6.7,0-12.2-5.5-12.2-12.2V12.3c0-6.7,5.5-12.2,12.2-12.2h938.9c6.7,0,12.2,5.5,12.2,12.2
	v257.3C963.3,276.2,957.9,281.8,951.2,281.8z"/>
<circle class="st1" cx="886" cy="13.8" r="4.7"/>
<circle class="st1" cx="77.5" cy="14" r="4.7"/>
<path class="st0" d="M16.7,11.9c2.7,0,4.8,2.2,4.8,4.8c0,2.7-2.2,4.8-4.8,4.8c-2.7,0-4.8-2.2-4.8-4.8S14,11.9,16.7,11.9z"/>
<path class="st0" d="M16.7,260.3c2.7,0,4.8,2.2,4.8,4.8c0,2.7-2.2,4.8-4.8,4.8c-2.7,0-4.8-2.2-4.8-4.8
	C11.9,262.5,14,260.3,16.7,260.3z"/>
<path class="st0" d="M946.8,11.9c2.7,0,4.8,2.2,4.8,4.8c0,2.7-2.2,4.8-4.8,4.8c-2.7,0-4.8-2.2-4.8-4.8S944.1,11.9,946.8,11.9z"/>
<path class="st0" d="M946.8,260.3c2.7,0,4.8,2.2,4.8,4.8c0,2.7-2.2,4.8-4.8,4.8c-2.7,0-4.8-2.2-4.8-4.8
	C942,262.5,944.1,260.3,946.8,260.3z"/>
<circle class="st1" cx="77.5" cy="268" r="4.7"/>
<circle class="st1" cx="886" cy="268" r="4.7"/>
<text transform="matrix(1 0 0 1 248.291 26.7102)" class="st2 st3 st4">Pixelcade P2.5 Reference Full Mouint</text>
<ellipse transform="matrix(0.6408 -0.7677 0.7677 0.6408 117.6906 349.1256)" class="st5" cx="431.9" cy="48.8" rx="6.1" ry="6.1"/>
<circle class="st5" cx="290.2" cy="48.8" r="6.1"/>
<circle class="st5" cx="77.8" cy="48.8" r="6.1"/>
<circle class="st5" cx="77.6" cy="233.1" r="6.1"/>
<circle class="st5" cx="219.3" cy="233.1" r="6.1"/>
<ellipse transform="matrix(0.4641 -0.8858 0.8858 0.4641 25.0572 507.4972)" class="st5" cx="431.9" cy="233" rx="6.1" ry="6.1"/>
<g>
	<g>
		<line class="st6" x1="200.9" y1="110.4" x2="200.9" y2="191.3"/>
		<g>
			<path class="st6" d="M204.1,111c-1.4-0.9-2.4-2.2-3.2-3.7c-0.8,1.5-1.9,2.8-3.2,3.7v0.9c1.3-0.9,2.4-2,3.2-3.4
				c0.8,1.4,2,2.5,3.2,3.4V111z"/>
			<path class="st6" d="M204.1,113c-1.4-0.9-2.4-2.2-3.2-3.7c-0.8,1.5-1.9,2.8-3.2,3.7v0.9c1.3-0.9,2.4-2,3.2-3.4
				c0.8,1.4,2,2.5,3.2,3.4V113z"/>
		</g>
	</g>
</g>
<path class="st7" d="M196.9,91v4.8c0,1.8,0.7,2.6,1.7,2.6c1.1,0,1.8-0.8,1.8-2.6V91h1v4.7c0,2.5-1.2,3.5-2.8,3.5s-2.6-0.9-2.6-3.5
	V91H196.9z"/>
<path class="st7" d="M202.8,95.3c0-0.7,0-1.3,0-1.9h0.8v1l0,0c0.4-0.7,1-1.1,1.9-1.1c1.3,0,2.3,1.2,2.3,3c0,2.1-1.2,3.1-2.4,3.1
	c-0.7,0-1.3-0.3-1.6-0.9l0,0v3.2h-0.9L202.8,95.3L202.8,95.3L202.8,95.3z M203.9,96.8c0,0.2,0,0.3,0,0.4c0.2,0.7,0.7,1.2,1.5,1.2
	c1,0,1.6-0.9,1.6-2.2c0-1.2-0.5-2.2-1.6-2.2c-0.6,0-1.3,0.5-1.5,1.3c0,0.1-0.1,0.3-0.1,0.4L203.9,96.8L203.9,96.8z"/>
<g id="LWPOLYLINE_00000170965644082025763580000006220981273818716553_">
	<path class="st5" d="M126.9,187.5h28.5c1.5,0,2.6-1.3,2.6-2.8v-82.2c0-1.6-1.2-2.8-2.6-2.8h-28.5c-1.5,0-2.6,1.3-2.6,2.8v82.2
		C124.2,186.1,125.4,187.5,126.9,187.5z"/>
</g>
<g id="LWPOLYLINE_00000060721635402150488240000016953245598452405130_">
	<path class="st5" d="M269.2,166.4c1.7,0,3-1.2,3-2.6v-56.9c0-1.5-1.4-2.6-3-2.6h-41.9c-1.7,0-3,1.2-3,2.6v56.9c0,1.5,1.4,2.6,3,2.6
		L269.2,166.4L269.2,166.4z"/>
</g>
<g>
	<path class="st5" d="M45.3,184.9c0-2.4,1.7-4.3,3.9-4.3"/>
	<path class="st5" d="M53.1,184.9c0,2.4-1.7,4.3-3.9,4.3s-3.9-1.9-3.9-4.3"/>
	<path class="st5" d="M49.2,180.6c2.2,0,3.9,1.9,3.9,4.3"/>
</g>
<g>
	<path class="st5" d="M456.4,97c0-2.4,1.7-4.3,3.9-4.3"/>
	<path class="st5" d="M464.2,97c0,2.4-1.7,4.3-3.9,4.3s-3.9-1.9-3.9-4.3"/>
	<path class="st5" d="M460.3,92.7c2.2,0,3.9,1.9,3.9,4.3"/>
</g>
<path class="st5" d="M477.8,250.6"/>
<path class="st5" d="M477.8,31.3"/>
<ellipse transform="matrix(0.2298 -0.9732 0.9732 0.2298 634.4977 899.5645)" class="st5" cx="885.6" cy="48.9" rx="6.1" ry="6.1"/>
<circle class="st5" cx="743.8" cy="48.8" r="6.1"/>
<circle class="st5" cx="531.4" cy="48.8" r="6.1"/>
<circle class="st5" cx="531.2" cy="233.1" r="6.1"/>
<circle class="st5" cx="672.9" cy="233.1" r="6.1"/>
<ellipse transform="matrix(0.1602 -0.9871 0.9871 0.1602 513.1753 1070.231)" class="st5" cx="885.6" cy="233.5" rx="6.1" ry="6.1"/>
<g id="LWPOLYLINE_00000170986879449339159300000008777202981806567832_">
	<path class="st5" d="M578.9,186.5h28.5c1.5,0,2.6-1.3,2.6-2.8v-82.2c0-1.6-1.2-2.8-2.6-2.8h-28.5c-1.5,0-2.6,1.3-2.6,2.8v82.2
		C576.2,185.1,577.4,186.5,578.9,186.5z"/>
</g>
<g id="LWPOLYLINE_00000134246543597108866350000011476594697191066006_">
	<path class="st5" d="M721.3,166c1.7,0,3-1.2,3-2.6v-56.9c0-1.5-1.4-2.6-3-2.6h-41.9c-1.7,0-3,1.2-3,2.6v56.9c0,1.5,1.4,2.6,3,2.6
		L721.3,166L721.3,166z"/>
</g>
<g>
	<path class="st5" d="M498.9,184.9c0-2.4,1.7-4.3,3.9-4.3"/>
	<path class="st5" d="M506.7,184.9c0,2.4-1.7,4.3-3.9,4.3s-3.9-1.9-3.9-4.3"/>
	<path class="st5" d="M502.8,180.6c2.2,0,3.9,1.9,3.9,4.3"/>
</g>
<g>
	<path class="st5" d="M910,97c0-2.4,1.7-4.3,3.9-4.3"/>
	<path class="st5" d="M917.8,97c0,2.4-1.7,4.3-3.9,4.3S910,99.4,910,97"/>
	<path class="st5" d="M913.9,92.7c2.2,0,3.9,1.9,3.9,4.3"/>
</g>
<path class="st5" d="M477.8,250.6"/>
<path class="st5" d="M477.8,31.3"/>
<ellipse class="st8" cx="293.7" cy="192.7" rx="8.2" ry="12.6"/>
<ellipse class="st8" cx="313" cy="88.1" rx="8.2" ry="12.6"/>
<ellipse class="st8" cx="643.3" cy="172.3" rx="8.2" ry="12.6"/>
<ellipse class="st8" cx="662.6" cy="89.7" rx="8.2" ry="12.6"/>
<g id="LWPOLYLINE_00000149359754962252194610000003907579636710493575_">
	<path class="st5" d="M352.6,186.8h28.5c1.5,0,2.6-1.3,2.6-2.8v-82.2c0-1.6-1.2-2.8-2.6-2.8h-28.5c-1.5,0-2.6,1.3-2.6,2.8V184
		C349.9,185.4,351.1,186.8,352.6,186.8z"/>
</g>
<path class="st5" d="M425.4,193.2c2.6,0,4.7,2.1,4.7,4.7s-2.1,4.7-4.7,4.7s-4.7-2.1-4.7-4.7C420.6,195.3,422.7,193.2,425.4,193.2
	L425.4,193.2z"/>
<path class="st5" d="M535.5,193.2c2.6,0,4.7,2.1,4.7,4.7s-2.1,4.7-4.7,4.7c-2.6,0-4.7-2.1-4.7-4.7
	C530.7,195.3,532.8,193.2,535.5,193.2L535.5,193.2z"/>
<path class="st5" d="M425.4,77.1c2.6,0,4.7,2.1,4.7,4.7s-2.1,4.7-4.7,4.7s-4.7-2.1-4.7-4.7C420.6,79.2,422.7,77.1,425.4,77.1
	L425.4,77.1z"/>
<path class="st5" d="M535.5,77.1c2.6,0,4.7,2.1,4.7,4.7s-2.1,4.7-4.7,4.7c-2.6,0-4.7-2.1-4.7-4.7C530.7,79.2,532.8,77.1,535.5,77.1
	L535.5,77.1z"/>
<text transform="matrix(1 0 0 1 100.2604 270.8767)" class="st2 st9 st4">pixelcade.org</text>
<path class="st10" d="M776.4,80.4c1.8-1.8,4.8-1.8,6.6,0c1.8,1.8,1.8,4.8,0,6.6c-1.8,1.8-4.8,1.8-6.6,0
	C774.5,85.3,774.5,82.3,776.4,80.4z"/>
<path class="st10" d="M890.6,194.7c1.8-1.8,4.8-1.8,6.6,0s1.8,4.8,0,6.6c-1.8,1.8-4.8,1.8-6.6,0
	C888.7,199.5,888.7,196.6,890.6,194.7z"/>
<rect x="797.1" y="72.8" transform="matrix(0.7071 -0.7071 0.7071 0.7071 145.5021 632.9791)" class="st11" width="79.4" height="136.1"/>
</svg>
