<?xml version="1.0" encoding="utf-8"?>
<!-- Generator: Adobe Illustrator 28.1.0, SVG Export Plug-In . SVG Version: 6.00 Build 0)  -->
<svg version="1.1" id="P3_Generic_Full_Mount" xmlns="http://www.w3.org/2000/svg" xmlns:xlink="http://www.w3.org/1999/xlink"
	 x="0px" y="0px" viewBox="0 0 1159.8 271.6" style="enable-background:new 0 0 1159.8 271.6;" xml:space="preserve">
<style type="text/css">
	.st0{fill:none;stroke:#000000;stroke-width:0.1;stroke-linecap:round;stroke-linejoin:round;stroke-miterlimit:10;}
	.st1{fill:none;stroke:#FF0000;stroke-width:0.1;stroke-miterlimit:10;}
	.st2{fill:none;stroke:#000000;stroke-width:0.1;stroke-miterlimit:22.9256;}
	.st3{fill:none;stroke:#000000;stroke-width:0.1;stroke-miterlimit:10;}
	.st4{font-family:'MyriadPro-Regular';}
	.st5{font-size:21px;}
	.st6{fill:none;stroke:#000000;stroke-width:0.1;stroke-miterlimit:11.3386;}
	.st7{fill:none;stroke:#FF0000;stroke-width:0.1;stroke-miterlimit:11.3386;}
	.st8{fill:none;stroke:#FF0000;stroke-width:0.1;stroke-miterlimit:2;}
	.st9{font-size:12px;}
	.st10{fill:none;stroke:#000000;stroke-width:0.1;stroke-linecap:round;stroke-miterlimit:288;}
</style>
<circle class="st0" cx="61.2" cy="50.8" r="5.4"/>
<circle class="st0" cx="58.4" cy="93.3" r="3.6"/>
<circle class="st0" cx="61.2" cy="220.9" r="5.4"/>
<circle class="st0" cx="554.4" cy="50.8" r="5.4"/>
<circle class="st0" cx="554.5" cy="220.9" r="5.4"/>
<circle class="st0" cx="557.3" cy="178.3" r="3.6"/>
<circle class="st0" cx="341.9" cy="30.9" r="5.4"/>
<circle class="st0" cx="273.8" cy="240.7" r="5.4"/>
<g id="LWPOLYLINE_00000016775827329439136130000005572304261417221784_">
	<path class="st0" d="M97.7,180.3h31.2c1.6,0,2.8-1.4,2.8-2.9V91.3c0-1.7-1.3-2.9-2.8-2.9H97.7c-1.6,0-2.8,1.4-2.8,2.9v86.1
		C94.8,178.8,96.1,180.3,97.7,180.3z"/>
</g>
<g id="LWPOLYLINE_00000027588360770353691500000012593968243304886435_">
	<path class="st0" d="M376.3,101.2c0-1.7-1.3-3-2.8-3h-62.4c-1.6,0-2.8,1.4-2.8,3v41.9c0,1.7,1.3,3,2.8,3h62.4c1.6,0,2.8-1.4,2.8-3
		V101.2z"/>
</g>
<circle class="st0" cx="605.2" cy="50.8" r="5.4"/>
<circle class="st0" cx="602.4" cy="93.3" r="3.6"/>
<circle class="st0" cx="605.2" cy="220.9" r="5.4"/>
<circle class="st0" cx="1098.5" cy="220.9" r="5.4"/>
<circle class="st0" cx="1101.3" cy="178.3" r="3.6"/>
<circle class="st0" cx="885.9" cy="30.9" r="5.4"/>
<circle class="st0" cx="817.8" cy="240.7" r="5.4"/>
<g id="LWPOLYLINE_00000155840878515510840290000000904822957340534924_">
	<path class="st0" d="M641.7,180.3h31.2c1.6,0,2.8-1.4,2.8-2.9V91.3c0-1.7-1.3-2.9-2.8-2.9h-31.2c-1.6,0-2.8,1.4-2.8,2.9v86.1
		C638.8,178.8,640.1,180.3,641.7,180.3z"/>
</g>
<g id="LWPOLYLINE_00000116940558167415154150000012083086369977906602_">
	<path class="st0" d="M920.3,101.2c0-1.7-1.3-3-2.8-3h-62.4c-1.6,0-2.8,1.4-2.8,3v41.9c0,1.7,1.3,3,2.8,3h62.4c1.6,0,2.8-1.4,2.8-3
		V101.2z"/>
</g>
<g>
	<g>
		<line class="st1" x1="805" y1="97.1" x2="805" y2="177.9"/>
		<g>
			<path class="st1" d="M808.5,97.7c-1.5-0.9-2.6-2.2-3.5-3.7c-0.9,1.5-2.1,2.8-3.5,3.7v0.9c1.4-0.9,2.6-2,3.5-3.4
				c0.9,1.4,2.2,2.5,3.5,3.4V97.7z"/>
			<path class="st1" d="M808.5,99.7c-1.5-0.9-2.6-2.2-3.5-3.7c-0.9,1.5-2.1,2.8-3.5,3.7v0.9c1.4-0.9,2.6-2,3.5-3.4
				c0.9,1.4,2.2,2.5,3.5,3.4V99.7z"/>
		</g>
	</g>
</g>
<path class="st1" d="M799.5,77.7v4.8c0,1.8,0.8,2.6,1.9,2.6c1.2,0,2-0.8,2-2.6v-4.8h1.1v4.7c0,2.5-1.3,3.5-3.1,3.5
	c-1.7,0-2.9-0.9-2.9-3.5v-4.7H799.5z"/>
<path class="st1" d="M806,81.9c0-0.7,0-1.3,0-1.9h0.9v1l0,0c0.4-0.7,1.1-1.1,2.1-1.1c1.4,0,2.5,1.2,2.5,3c0,2.1-1.3,3.1-2.6,3.1
	c-0.8,0-1.4-0.3-1.8-0.9l0,0v3.2h-1L806,81.9L806,81.9L806,81.9z M807.2,83.4c0,0.2,0,0.3,0,0.4c0.2,0.7,0.8,1.2,1.6,1.2
	c1.1,0,1.8-0.9,1.8-2.2c0-1.2-0.6-2.2-1.7-2.2c-0.7,0-1.4,0.5-1.6,1.3c0,0.1-0.1,0.3-0.1,0.4V83.4L807.2,83.4z"/>
<path class="st2" d="M18,11.9c3.4,0,6.1,2.8,6.1,6.1c0,3.4-2.8,6.1-6.1,6.1c-3.4,0-6.1-2.8-6.1-6.1S14.6,11.9,18,11.9z"/>
<path class="st2" d="M18,247.4c3.4,0,6.1,2.8,6.1,6.1c0,3.4-2.8,6.1-6.1,6.1c-3.4,0-6.1-2.8-6.1-6.1C11.9,250.2,14.6,247.4,18,247.4
	z"/>
<path class="st2" d="M1147.9,18c0,3.4-2.8,6.1-6.1,6.1c-3.4,0-6.1-2.8-6.1-6.1c0-3.4,2.8-6.1,6.1-6.1
	C1145.1,11.9,1147.9,14.6,1147.9,18z"/>
<path class="st2" d="M1141.7,259.7c-3.4,0-6.1-2.8-6.1-6.1c0-3.4,2.8-6.1,6.1-6.1c3.4,0,6.1,2.8,6.1,6.1
	C1147.9,256.9,1145.2,259.7,1141.7,259.7z"/>
<g id="LWPOLYLINE_00000183947771866928791540000012060623534214963633_">
	<path class="st0" d="M487.1,180.3h31.2c1.6,0,2.8-1.4,2.8-2.9V91.3c0-1.7-1.3-2.9-2.8-2.9h-31.2c-1.6,0-2.8,1.4-2.8,2.9v86.1
		C484.2,178.8,485.5,180.3,487.1,180.3z"/>
</g>
<ellipse class="st3" cx="416.9" cy="174.3" rx="9" ry="12.6"/>
<ellipse class="st3" cx="438.1" cy="74.7" rx="9" ry="12.6"/>
<ellipse class="st3" cx="715.3" cy="188.4" rx="9" ry="12.6"/>
<ellipse class="st3" cx="736.5" cy="88.8" rx="9" ry="12.6"/>
<path class="st0" d="M165.9,187.5c2.6,0,4.7,2.1,4.7,4.7s-2.1,4.7-4.7,4.7s-4.7-2.1-4.7-4.7C161.1,189.6,163.2,187.5,165.9,187.5
	L165.9,187.5z"/>
<path class="st0" d="M276,187.5c2.6,0,4.7,2.1,4.7,4.7s-2.1,4.7-4.7,4.7s-4.7-2.1-4.7-4.7C271.2,189.6,273.3,187.5,276,187.5
	L276,187.5z"/>
<path class="st0" d="M165.9,71.4c2.6,0,4.7,2.1,4.7,4.7s-2.1,4.7-4.7,4.7s-4.7-2.1-4.7-4.7C161.1,73.5,163.2,71.4,165.9,71.4
	L165.9,71.4z"/>
<path class="st0" d="M276,71.4c2.6,0,4.7,2.1,4.7,4.7s-2.1,4.7-4.7,4.7s-4.7-2.1-4.7-4.7C271.2,73.5,273.3,71.4,276,71.4L276,71.4z"
	/>
<circle class="st0" cx="1098.4" cy="50.7" r="5.4"/>
<text transform="matrix(1 0 0 1 376.3175 28.2349)" class="st1 st4 st5">Pixelcade LED Marquee - P3 Full Reference Mount</text>
<path class="st6" d="M1070.1,50.4c2.6,0,4.7,2.1,4.7,4.7c0,2.6-2.1,4.7-4.7,4.7c-2.6,0-4.7-2.1-4.7-4.7
	C1065.3,52.5,1067.4,50.4,1070.1,50.4z"/>
<path class="st6" d="M1070.1,211.9c2.6,0,4.7,2.1,4.7,4.7s-2.1,4.7-4.7,4.7c-2.6,0-4.7-2.1-4.7-4.7
	C1065.3,214,1067.4,211.9,1070.1,211.9z"/>
<rect x="1030.4" y="67.8" class="st7" width="79.4" height="136.1"/>
<text transform="matrix(1 0 0 1 44.3187 265.5541)" class="st8 st4 st9">pixelcade.org</text>
<rect x="0.1" y="0.1" class="st10" width="1159.7" height="271.5"/>
<path class="st2" d="M18,42c2.7,0,4.8,2.2,4.8,4.8c0,2.7-2.2,4.8-4.8,4.8c-2.7,0-4.8-2.2-4.8-4.8S15.3,42,18,42z"/>
<path class="st2" d="M1146.5,46.8c0,2.7-2.2,4.8-4.8,4.8c-2.7,0-4.8-2.2-4.8-4.8c0-2.7,2.2-4.8,4.8-4.8
	C1144.3,42.1,1146.5,44.2,1146.5,46.8z"/>
<path class="st2" d="M18,219.9c2.7,0,4.8,2.2,4.8,4.8c0,2.7-2.2,4.8-4.8,4.8c-2.7,0-4.8-2.2-4.8-4.8S15.4,219.9,18,219.9z"/>
<path class="st2" d="M1141.7,229.5c-2.7,0-4.8-2.2-4.8-4.8c0-2.7,2.2-4.8,4.8-4.8c2.7,0,4.8,2.2,4.8,4.8S1144.4,229.5,1141.7,229.5z
	"/>
</svg>
