<?xml version="1.0" encoding="utf-8"?>
<!-- Generator: Adobe Illustrator 28.1.0, SVG Export Plug-In . SVG Version: 6.00 Build 0)  -->
<svg version="1.1" id="P4_Half_Mount" xmlns="http://www.w3.org/2000/svg" xmlns:xlink="http://www.w3.org/1999/xlink" x="0px"
	 y="0px" viewBox="0 0 1449.2 361.8" style="enable-background:new 0 0 1449.2 361.8;" xml:space="preserve">
<style type="text/css">
	.st0{fill:none;stroke:#000000;stroke-width:0.1;stroke-linecap:round;stroke-linejoin:round;stroke-miterlimit:10;}
	.st1{fill:none;stroke:#000000;stroke-width:0.1;stroke-miterlimit:10;}
	.st2{fill:none;stroke:#FF0000;stroke-width:0.1;stroke-miterlimit:10;}
	.st3{fill:none;stroke:#FF0000;stroke-width:0.1;stroke-linecap:round;stroke-linejoin:round;stroke-miterlimit:10;}
	.st4{fill:none;stroke:#000000;stroke-width:0.1;stroke-miterlimit:11.3386;}
	.st5{fill:none;stroke:#FF0000;stroke-width:0.1;stroke-miterlimit:11.3386;}
	.st6{font-family:'MyriadPro-Regular';}
	.st7{font-size:14px;}
	.st8{font-family:'Emulogic';}
	.st9{font-size:12px;}
	.st10{fill:none;stroke:#FF0000;stroke-width:0.1;stroke-miterlimit:22.9256;}
</style>
<g id="LWPOLYLINE_00000119838756443648749060000013369826036787366812_">
	<path class="st0" d="M841.4,227.2h31.2c1.6,0,2.8-1.4,2.8-2.9v-86.1c0-1.7-1.3-2.9-2.8-2.9h-31.2c-1.6,0-2.8,1.4-2.8,2.9v86.1
		C838.5,225.7,839.8,227.2,841.4,227.2z"/>
</g>
<g id="LWPOLYLINE_00000057120248534339204490000001315775223925497755_">
	<path class="st0" d="M1186,135.8c0-1.7-1.3-3-2.8-3h-62.4c-1.6,0-2.8,1.4-2.8,3v41.9c0,1.7,1.3,3,2.8,3h62.4c1.6,0,2.8-1.4,2.8-3
		V135.8z"/>
</g>
<circle class="st0" cx="1086.9" cy="22.2" r="5.4"/>
<circle class="st0" cx="746.7" cy="22.2" r="5.4"/>
<circle class="st0" cx="746.7" cy="339.6" r="5.4"/>
<circle class="st0" cx="1086.9" cy="339.6" r="5.4"/>
<circle class="st0" cx="1376" cy="25.6" r="4.3"/>
<circle class="st0" cx="797.7" cy="336.2" r="4.3"/>
<circle class="st0" cx="702.5" cy="22.2" r="5.4"/>
<circle class="st0" cx="362.3" cy="22.2" r="5.4"/>
<circle class="st0" cx="362.3" cy="339.6" r="5.4"/>
<circle class="st0" cx="702.5" cy="339.6" r="5.4"/>
<circle class="st0" cx="651.5" cy="25.6" r="4.3"/>
<circle class="st0" cx="73.2" cy="336.2" r="4.3"/>
<g id="LWPOLYLINE_00000005263190517729434290000004111623077354881189_">
	<path class="st0" d="M116.9,227.2h31.2c1.6,0,2.8-1.4,2.8-2.9v-86.1c0-1.7-1.3-2.9-2.8-2.9h-31.2c-1.6,0-2.8,1.4-2.8,2.9v86.1
		C114,225.7,115.3,227.2,116.9,227.2z"/>
</g>
<g id="LWPOLYLINE_00000179607511177470611410000007364372344565883811_">
	<path class="st0" d="M461.5,135.8c0-1.7-1.3-3-2.8-3h-62.4c-1.6,0-2.8,1.4-2.8,3v41.9c0,1.7,1.3,3,2.8,3h62.4c1.6,0,2.8-1.4,2.8-3
		V135.8z"/>
</g>
<g id="LWPOLYLINE_00000053520277521488705510000009669773990144497027_">
	<path class="st0" d="M576,226.9h31.2c1.6,0,2.8-1.4,2.8-2.9v-86.1c0-1.7-1.3-2.9-2.8-2.9H576c-1.6,0-2.8,1.4-2.8,2.9V224
		C573.1,225.4,574.4,226.9,576,226.9z"/>
</g>
<path class="st0" d="M215.8,233.2c2.6,0,4.7,2.1,4.7,4.7s-2.1,4.7-4.7,4.7s-4.7-2.1-4.7-4.7C211,235.3,213.1,233.2,215.8,233.2
	L215.8,233.2z"/>
<path class="st0" d="M325.9,233.2c2.6,0,4.7,2.1,4.7,4.7s-2.1,4.7-4.7,4.7c-2.6,0-4.7-2.1-4.7-4.7
	C321.1,235.3,323.2,233.2,325.9,233.2L325.9,233.2z"/>
<path class="st0" d="M215.8,117.1c2.6,0,4.7,2.1,4.7,4.7s-2.1,4.7-4.7,4.7s-4.7-2.1-4.7-4.7C211,119.2,213.1,117.1,215.8,117.1
	L215.8,117.1z"/>
<path class="st0" d="M325.9,117.1c2.6,0,4.7,2.1,4.7,4.7s-2.1,4.7-4.7,4.7c-2.6,0-4.7-2.1-4.7-4.7
	C321.1,119.2,323.2,117.1,325.9,117.1L325.9,117.1z"/>
<ellipse class="st1" cx="487.8" cy="213.7" rx="9" ry="12.6"/>
<ellipse class="st1" cx="509" cy="114.1" rx="9" ry="12.6"/>
<ellipse class="st1" cx="786.2" cy="232.9" rx="9" ry="12.6"/>
<ellipse class="st1" cx="807.4" cy="133.3" rx="9" ry="12.6"/>
<rect x="0.1" y="0.1" class="st1" width="1449.1" height="361.7"/>
<path class="st0" d="M1207.6,232.4c2.6,0,4.7,2.1,4.7,4.7s-2.1,4.7-4.7,4.7s-4.7-2.1-4.7-4.7
	C1202.8,234.5,1204.9,232.4,1207.6,232.4L1207.6,232.4z"/>
<path class="st0" d="M1317.7,232.4c2.6,0,4.7,2.1,4.7,4.7s-2.1,4.7-4.7,4.7c-2.6,0-4.7-2.1-4.7-4.7
	C1312.9,234.5,1315,232.4,1317.7,232.4L1317.7,232.4z"/>
<path class="st0" d="M1207.6,116.3c2.6,0,4.7,2.1,4.7,4.7s-2.1,4.7-4.7,4.7s-4.7-2.1-4.7-4.7
	C1202.8,118.4,1204.9,116.3,1207.6,116.3L1207.6,116.3z"/>
<path class="st0" d="M1317.7,116.3c2.6,0,4.7,2.1,4.7,4.7s-2.1,4.7-4.7,4.7c-2.6,0-4.7-2.1-4.7-4.7
	C1312.9,118.4,1315,116.3,1317.7,116.3L1317.7,116.3z"/>
<g>
	<path class="st2" d="M324.3,182.2h4.8c1.8,0,2.6-0.8,2.6-1.9c0-1.2-0.8-2-2.6-2h-4.8v-1.1h4.7c2.5,0,3.5,1.3,3.5,3.1
		c0,1.7-0.9,2.9-3.5,2.9h-4.8L324.3,182.2L324.3,182.2z"/>
	<path class="st2" d="M331.1,175.7c0.3-0.5,0.5-1.2,0.5-1.9c0-1.1-0.6-1.7-1.4-1.7s-1.2,0.4-1.6,1.5c-0.5,1.3-1.2,2.1-2.3,2.1
		c-1.3,0-2.2-1-2.2-2.6c0-0.8,0.2-1.4,0.4-1.8l0.9,0.3c-0.1,0.3-0.4,0.8-0.4,1.5c0,1.1,0.7,1.5,1.2,1.5c0.8,0,1.1-0.5,1.6-1.6
		c0.5-1.4,1.2-2.1,2.4-2.1s2.3,0.9,2.3,2.8c0,0.8-0.2,1.6-0.5,2.1L331.1,175.7z"/>
	<path class="st2" d="M324.4,169.6c-0.1-0.5-0.2-1.2-0.2-1.9c0-1,0.2-1.7,0.6-2.2c0.3-0.4,0.8-0.7,1.4-0.7c0.8,0,1.5,0.5,1.8,1.4
		l0,0c0.2-0.8,0.8-1.7,2-1.7c0.7,0,1.2,0.3,1.6,0.7c0.5,0.6,0.8,1.5,0.8,2.8c0,0.7,0,1.3-0.1,1.6L324.4,169.6L324.4,169.6z
		 M327.7,168.6v-0.9c0-1.1-0.6-1.8-1.4-1.8c-0.9,0-1.3,0.7-1.3,1.8c0,0.5,0,0.8,0.1,0.9H327.7z M331.6,168.6c0-0.2,0-0.5,0-0.9
		c0-1.1-0.4-2.1-1.6-2.1c-1.1,0-1.6,0.9-1.6,2.1v0.9H331.6z"/>
</g>
<path class="st3" d="M339.6,293.9H201.2c-6.6,0-12-5.4-12-12V80.6c0-6.6,5.4-12,12-12h138.4c6.6,0,12,5.4,12,12v201.3
	C351.6,288.5,346.2,293.9,339.6,293.9z"/>
<g>
	<path class="st2" d="M1261.2,171c0.5-0.1,1.2-0.2,2-0.2c1,0,1.8,0.2,2.3,0.7c0.4,0.4,0.7,1,0.7,1.7s-0.2,1.3-0.6,1.7
		c-0.6,0.6-1.5,0.9-2.5,0.9c-0.3,0-0.6,0-0.8-0.1v3.2h-1L1261.2,171L1261.2,171L1261.2,171z M1262.3,174.9c0.2,0.1,0.5,0.1,0.9,0.1
		c1.3,0,2-0.6,2-1.7s-0.8-1.6-1.9-1.6c-0.5,0-0.8,0-1,0.1V174.9z"/>
	<path class="st2" d="M1268.6,171.6c0,0.4-0.3,0.6-0.7,0.6s-0.6-0.3-0.6-0.6c0-0.4,0.3-0.7,0.7-0.7
		C1268.3,170.9,1268.6,171.2,1268.6,171.6z M1267.4,179v-5.8h1.1v5.8H1267.4z"/>
</g>
<path class="st2" d="M1362.5,282.1h-231.7c-6.6,0-12-5.4-12-12V88.3c0-6.6,5.4-12,12-12h231.7c6.6,0,12,5.4,12,12v181.8
	C1374.5,276.7,1369.1,282.1,1362.5,282.1z"/>
<g>
	<path class="st2" d="M1263.1,110.5v3.4h3.9v-3.4h1.1v8.1h-1.1v-3.8h-3.9v3.8h-1v-8.1H1263.1z"/>
	<path class="st2" d="M1269.9,110.6c0.6-0.1,1.4-0.2,2.2-0.2c1.5,0,2.6,0.3,3.3,1c0.7,0.7,1.1,1.6,1.1,2.9c0,1.3-0.4,2.4-1.2,3.1
		c-0.8,0.8-2,1.2-3.6,1.2c-0.7,0-1.4,0-1.9-0.1V110.6z M1271,117.7c0.3,0,0.6,0.1,1.1,0.1c2.2,0,3.4-1.2,3.4-3.4
		c0-1.9-1.1-3.1-3.3-3.1c-0.5,0-0.9,0-1.2,0.1V117.7z"/>
	<path class="st2" d="M1284.7,115c-0.1-1.1-0.1-2.5-0.1-3.5h0c-0.3,0.9-0.6,2-1,3.1l-1.4,3.9h-0.8l-1.3-3.9
		c-0.4-1.1-0.7-2.2-0.9-3.1h0c0,1-0.1,2.4-0.2,3.6l-0.2,3.5h-1l0.6-8.1h1.3l1.4,3.9c0.3,1,0.6,1.9,0.8,2.7h0
		c0.2-0.8,0.5-1.7,0.9-2.7l1.4-3.9h1.3l0.5,8.1h-1L1284.7,115z"/>
	<path class="st2" d="M1288.6,110.5v8.1h-1v-8.1H1288.6z"/>
</g>
<g>
	<path class="st2" d="M1259.4,156.6c0.5-0.1,1.2-0.2,2-0.2c1,0,1.8,0.2,2.3,0.7c0.4,0.4,0.7,1,0.7,1.7c0,0.7-0.2,1.3-0.6,1.7
		c-0.6,0.6-1.5,0.9-2.5,0.9c-0.3,0-0.6,0-0.8-0.1v3.2h-1V156.6z M1260.5,160.5c0.2,0.1,0.5,0.1,0.9,0.1c1.3,0,2-0.6,2-1.7
		c0-1.1-0.8-1.6-1.9-1.6c-0.5,0-0.8,0-1,0.1V160.5z"/>
	<path class="st2" d="M1268.7,164.6v-2.1h-3.6v-0.7l3.5-5h1.1v4.8h1.1v0.8h-1.1v2.1H1268.7z M1268.7,161.6V159c0-0.4,0-0.8,0-1.2h0
		c-0.2,0.5-0.4,0.8-0.6,1.2l-1.9,2.7v0H1268.7z"/>
</g>
<g id="LWPOLYLINE_00000147178114484254161570000004691683865911552154_">
	<path class="st3" d="M1186,135.8c0-1.7-1.3-3-2.8-3h-62.4c-1.6,0-2.8,1.4-2.8,3v41.9c0,1.7,1.3,3,2.8,3h62.4c1.6,0,2.8-1.4,2.8-3
		V135.8z"/>
</g>
<ellipse class="st1" cx="1037.9" cy="190.7" rx="9" ry="12.6"/>
<ellipse class="st1" cx="1054.1" cy="88.1" rx="9" ry="12.6"/>
<path class="st4" d="M972.3,100.3c2.6,0,4.7,2.1,4.7,4.7c0,2.6-2.1,4.7-4.7,4.7c-2.6,0-4.7-2.1-4.7-4.7
	C967.5,102.4,969.6,100.3,972.3,100.3z"/>
<path class="st4" d="M972.3,261.9c2.6,0,4.7,2.1,4.7,4.7c0,2.6-2.1,4.7-4.7,4.7c-2.6,0-4.7-2.1-4.7-4.7
	C967.5,264,969.6,261.9,972.3,261.9z"/>
<rect x="932.6" y="117.7" class="st5" width="79.4" height="136.1"/>
<text transform="matrix(1 0 0 1 857.9023 241.781)"><tspan x="0" y="0" class="st2 st6 st7">12V SATA</tspan><tspan x="-8.5" y="16.8" class="st2 st6 st7">Power Cable</tspan></text>
<circle class="st0" cx="1427" cy="22" r="5.4"/>
<circle class="st0" cx="1427" cy="339.6" r="5.4"/>
<circle class="st0" cx="22.2" cy="339.6" r="5.4"/>
<circle class="st0" cx="22.2" cy="22.2" r="5.4"/>
<text transform="matrix(1 0 0 1 384.3502 226.2873)" class="st2 st6 st7">5V Only!</text>
<text transform="matrix(1 0 0 1 578.9368 58.1369)" class="st2 st8 st9">pixelcade half mount p4</text>
<text transform="matrix(0 -1 1 0 273.0599 235.3736)" class="st10 st6 st9">PIXELCADE MAIN BOARD</text>
<text transform="matrix(0 -1 1 0 976.9819 208.3872)" class="st10 st6 st9">MINI PSU</text>
<circle class="st0" cx="57.7" cy="57.7" r="6.1"/>
<circle class="st0" cx="57.7" cy="304.2" r="6.1"/>
<circle class="st0" cx="1391.5" cy="57.7" r="6.1"/>
<circle class="st0" cx="1391.5" cy="304.2" r="6.1"/>
<text transform="matrix(1 0 0 1 1021.0911 151.9538)" class="st2 st6 st7">Do Not Use</text>
</svg>
