<?xml version="1.0" encoding="utf-8"?>
<!-- Generator: Adobe Illustrator 28.1.0, SVG Export Plug-In . SVG Version: 6.00 Build 0)  -->
<svg version="1.1" id="Layer_1" xmlns="http://www.w3.org/2000/svg" xmlns:xlink="http://www.w3.org/1999/xlink" x="0px" y="0px"
	 viewBox="0 0 1886.4 453.7" style="enable-background:new 0 0 1886.4 453.7;" xml:space="preserve">
<style type="text/css">
	.st0{fill:none;stroke:#000000;stroke-width:0.1;stroke-linecap:round;stroke-linejoin:round;stroke-miterlimit:10;}
	.st1{fill:none;stroke:#000000;stroke-width:0.1;stroke-miterlimit:10;}
	.st2{fill:none;stroke:#000000;stroke-width:0.1;stroke-miterlimit:2;}
	.st3{fill:none;stroke:#000000;stroke-width:0.1;stroke-miterlimit:11.3386;}
	.st4{fill:none;stroke:#FF0000;stroke-width:0.1;stroke-miterlimit:11.3386;}
	.st5{font-family:'Emulogic';}
	.st6{font-size:12px;}
	.st7{fill:none;stroke:#FF0000;stroke-width:0.1;stroke-miterlimit:10;}
	.st8{font-family:'ArialMT';}
	.st9{font-size:18px;}
	.st10{font-size:14px;}
</style>
<g id="Back_Mount_Full_Mount_Minimal">
	<circle class="st0" cx="18" cy="18" r="4.8"/>
	<circle class="st0" cx="18" cy="435.6" r="4.8"/>
	<circle class="st0" cx="1868.4" cy="435.6" r="4.8"/>
	<circle class="st0" cx="1868.4" cy="18" r="4.8"/>
	<line class="st0" x1="5.5" y1="68.1" x2="5.5" y2="68.1"/>
	<g id="LWPOLYLINE_00000084509123047657507770000013207820652007238307_">
		<path class="st0" d="M152.6,270.7h31.2c1.6,0,2.8-1.4,2.8-3v-87.5c0-1.7-1.3-3-2.8-3h-31.2c-1.6,0-2.8,1.4-2.8,3v87.5
			C149.8,269.2,151.1,270.7,152.6,270.7z"/>
	</g>
	<g id="LWPOLYLINE_00000069375668670332013300000010335100160056612792_">
		<path class="st0" d="M793.2,270.7h31.2c1.6,0,2.8-1.4,2.8-3v-87.5c0-1.7-1.3-3-2.8-3h-31.2c-1.6,0-2.8,1.4-2.8,3v87.5
			C790.4,269.2,791.6,270.7,793.2,270.7z"/>
	</g>
	<g id="LWPOLYLINE_00000036940952364758968190000009470129545896244152_">
		<path class="st0" d="M1059,271.7h31.2c1.6,0,2.8-1.4,2.8-3v-87.5c0-1.7-1.3-3-2.8-3H1059c-1.6,0-2.8,1.4-2.8,3v87.5
			C1056.1,270.2,1057.4,271.7,1059,271.7z"/>
	</g>
	<g id="LWPOLYLINE_00000098920140775502792110000013701495343096099764_">
		<path class="st0" d="M614.4,156.4c0-1.7-1.3-3-2.8-3h-62.4c-1.6,0-2.8,1.4-2.8,3v41.9c0,1.7,1.3,3,2.8,3h62.4c1.6,0,2.8-1.4,2.8-3
			V156.4z"/>
	</g>
	<g id="LWPOLYLINE_00000072968050156558782940000011654101627661025155_">
		<path class="st0" d="M1520.7,156.4c0-1.7-1.3-3-2.8-3h-62.4c-1.6,0-2.8,1.4-2.8,3v41.9c0,1.7,1.3,3,2.8,3h62.4
			c1.6,0,2.8-1.4,2.8-3V156.4z"/>
	</g>
	<circle class="st0" cx="490.1" cy="22.8" r="5.4"/>
	<circle class="st0" cx="59.3" cy="22.8" r="5.4"/>
	<circle class="st0" cx="921" cy="22.8" r="5.4"/>
	<circle class="st0" cx="921" cy="430.9" r="5.4"/>
	<circle class="st0" cx="965.5" cy="430.9" r="5.4"/>
	<circle class="st0" cx="1396.4" cy="430.9" r="5.4"/>
	<circle class="st0" cx="1827.2" cy="430.9" r="5.4"/>
	<circle class="st0" cx="1827.2" cy="22.8" r="5.4"/>
	<circle class="st0" cx="1396.4" cy="22.8" r="5.4"/>
	<circle class="st0" cx="965.5" cy="22.8" r="5.4"/>
	<circle class="st0" cx="490.1" cy="430.9" r="5.4"/>
	<circle class="st0" cx="59.3" cy="430.9" r="5.4"/>
	<g id="CIRCLE_00000158015132478620130540000016813382840539013787_">
		<path class="st0" d="M173.3,14.3c0-2.7,2.2-5,5-5s5,2.2,5,5s-2.2,5-5,5S173.3,17,173.3,14.3L173.3,14.3z"/>
	</g>
	<g id="CIRCLE_00000034075226955311839890000015819073730555333794_">
		<path class="st0" d="M797.2,439.4c0-2.5,2.1-4.7,4.7-4.7c2.5,0,4.7,2.1,4.7,4.7c0,2.5-2.1,4.7-4.7,4.7S797.2,442.1,797.2,439.4
			L797.2,439.4z"/>
	</g>
	<g id="CIRCLE_00000121964384309059592320000013499292820857558662_">
		<path class="st0" d="M1080,14.3c0-2.5,2.1-4.7,4.7-4.7s4.7,2.1,4.7,4.7s-2.1,4.7-4.7,4.7S1080,16.9,1080,14.3L1080,14.3z"/>
	</g>
	<g id="CIRCLE_00000072973940415210823430000014610108092643297453_">
		<path class="st0" d="M1703.2,439.4c0-2.7,2.2-5,5-5c2.7,0,5,2.2,5,5c0,2.7-2.2,5-5,5S1703.2,442.2,1703.2,439.4L1703.2,439.4z"/>
	</g>
	<path class="st0" d="M309.8,128.4c2.6,0,4.7,2.1,4.7,4.7s-2.1,4.7-4.7,4.7c-2.6,0-4.7-2.1-4.7-4.7
		C305.1,130.4,307.1,128.4,309.8,128.4L309.8,128.4z"/>
	<path class="st0" d="M309.8,326.9c2.6,0,4.7,2.1,4.7,4.7c0,2.6-2.1,4.7-4.7,4.7c-2.6,0-4.7-2.1-4.7-4.7
		C305,328.9,307.1,326.9,309.8,326.9L309.8,326.9z"/>
	<path class="st0" d="M445.9,128.4c2.6,0,4.7,2.1,4.7,4.7s-2.1,4.7-4.7,4.7s-4.7-2.1-4.7-4.7C441.1,130.4,443.1,128.4,445.9,128.4
		L445.9,128.4z"/>
	<path class="st0" d="M445.9,326.6c2.6,0,4.7,2.1,4.7,4.7c0,2.6-2.1,4.7-4.7,4.7s-4.7-2.1-4.7-4.7
		C441,328.6,443.1,326.6,445.9,326.6L445.9,326.6z"/>
	<ellipse class="st1" cx="643.6" cy="226.9" rx="9" ry="12.6"/>
	<ellipse class="st1" cx="664.9" cy="127.4" rx="9" ry="12.6"/>
	<ellipse class="st1" cx="1008.5" cy="284.4" rx="9" ry="12.6"/>
	<ellipse class="st1" cx="1008.5" cy="160.2" rx="9" ry="12.6"/>
	<ellipse class="st1" cx="1329.7" cy="229.9" rx="9" ry="12.6"/>
	<ellipse class="st1" cx="1345.9" cy="127.4" rx="9" ry="12.6"/>
	<g>
		<g>
			<g>
				<path class="st2" d="M0.1,453.6h1886.3"/>
				<g>
					<line class="st2" x1="0.1" y1="453.6" x2="0.1" y2="0.1"/>
					<path class="st2" d="M1886.4,0.1H0.1"/>
				</g>
			</g>
		</g>
		<line class="st2" x1="1886.4" y1="0.1" x2="1886.4" y2="453.6"/>
	</g>
	<path class="st3" d="M1264.1,139.4c2.6,0,4.7,2.1,4.7,4.7s-2.1,4.7-4.7,4.7s-4.7-2.1-4.7-4.7
		C1259.2,141.6,1261.4,139.4,1264.1,139.4z"/>
	<path class="st3" d="M1264.1,301.1c2.6,0,4.7,2.1,4.7,4.7c0,2.6-2.1,4.7-4.7,4.7s-4.7-2.1-4.7-4.7
		C1259.2,303.1,1261.4,301.1,1264.1,301.1z"/>
	<rect x="1224.4" y="156.9" class="st4" width="79.4" height="136.1"/>
	<text transform="matrix(1 0 0 1 808.2729 58.5696)" class="st4 st5 st6">pixelcade LED marquee</text>
	<text transform="matrix(1 0 0 1 796.2729 72.9696)" class="st4 st5 st6">P5 reference full mount</text>
	<path class="st7" d="M1678.1,275.9l-0.1-92.5h18.6l-33.3-54.4l-33.3,54.4h18.6l0.1,92.7"/>
	<g>
		<path class="st7" d="M1713.4,293.4v6.1h3.2v-6.1 M1708.2,293.4c0,0.7-0.1,1.6-0.4,2.1c-0.4,0.7-1.3,0.9-2,0.9
			c-0.8,0-1.6-0.2-2.1-1.2c-0.2-0.5-0.3-1.2-0.3-1.9 M1699.9,293.4c0,1.8,0.2,3.5,1.4,4.8c1.1,1.2,2.8,1.5,4.2,1.5
			c1.5,0,3.1-0.4,4.2-1.8c1-1.2,1.1-2.9,1.1-4.5 M1682.6,293.4v6.1h9.8v-3.4h-6.6v-2.7 M1676.9,293.4c-0.1,0.3-0.2,0.7-0.4,1
			c-0.7,1.5-1.6,1.9-2.9,1.9h-1.1v-2.8 M1669.2,293.4v6.1h4.5c1.9,0,3.6-0.5,5-2.4c0.7-1.1,1.2-2.3,1.5-3.7 M1663.4,293.4v6.1h3.2
			v-6.1 M1657.6,293.4c0.3,0.3,0.6,0.7,0.6,1.2c0,1.4-1.2,1.9-2.1,1.9c-1.4,0-2.5-0.6-2.9-2.5l-3,0.9c0.6,3.4,3,4.8,5.5,4.8
			c1.4,0,2.9-0.3,4-1.4c1.1-1,1.7-2.7,1.7-4.4c0-0.2,0-0.4,0-0.5 M1639.6,293.4c0.3,0.3,0.6,0.7,0.6,1.2c0,1.4-1.2,1.9-2.1,1.9
			c-1.4,0-2.5-0.6-2.9-2.5l-3,0.9c0.6,3.4,3,4.8,5.5,4.8c1.4,0,2.9-0.3,4-1.4c1.1-1,1.7-2.7,1.7-4.4c0-0.2,0-0.4,0-0.5
			 M1627.4,293.4v6.1h3.2v-6.1 M1621.6,293.4v6.1h3.2v-6.1 M1614.1,293.4v6.1h3.2v-6.1 M1605.8,293.4v6.1 M1605.8,299.6h3.2v-6.1"/>
		<path class="st7" d="M1713.4,287.1v6.3 M1720.8,287.1c0,0.2,0,0.3,0,0.5c0,0.6-0.1,1.1-0.4,1.6c-0.6,0.8-1.2,0.8-2,0.8h-1.8v-2.9
			 M1716.6,293.4V293h2.1c1.5,0,2.7,0,3.9-1.2c1-1.1,1.5-2.8,1.5-4.4c0-0.1,0-0.2,0-0.3 M1708.2,287.1v5.5c0,0.3,0,0.5,0,0.8
			 M1710.9,293.4c0-0.3,0-0.5,0-0.8v-5.5 M1703.4,293.4c0-0.3,0-0.6,0-0.8v-5.5 M1699.9,287.1v5.5c0,0.3,0,0.5,0,0.8 M1682.6,287.1
			v6.3 M1685.8,293.4v-1.2h5.2v-3.3h-5.2v-1.8 M1676.4,287.1c0.5,1,0.8,2.3,0.8,3.5c0,0.9-0.1,1.9-0.4,2.8 M1680.4,293.4
			c0.2-0.9,0.3-1.8,0.3-2.7c0-1.3-0.2-2.5-0.5-3.7 M1672.4,293.4v-6.3 M1669.2,287.1v6.3 M1663.4,287.1v6.3 M1666.6,293.4v-6.3
			 M1661.4,293.4c-0.1-1.5-0.8-2.7-1.8-3.6c-1-0.8-2.5-1.2-3.6-1.5c-0.7-0.2-1.7-0.4-1.9-1.3 M1650.9,287.1c0,0.1,0,0.2,0,0.3
			c0,3.8,2.4,4.7,4.8,5.4c0.5,0.1,1.3,0.3,1.8,0.7 M1632.9,287.1c0,0.1,0,0.2,0,0.3c0,3.8,2.4,4.7,4.8,5.4c0.5,0.1,1.3,0.3,1.8,0.7
			 M1643.4,293.4c-0.1-1.5-0.8-2.7-1.8-3.6c-1-0.8-2.5-1.2-3.6-1.5c-0.7-0.2-1.7-0.4-1.9-1.3 M1630.6,293.4v-6.3 M1627.4,287.1v6.3
			 M1621.6,287.1v1.8h-4.2v-1.8 M1624.8,293.4v-6.3 M1617.2,293.4v-1.1h4.2v1.1 M1614.1,287.1v6.3 M1605.8,287.1v6.3 M1608.9,293.4
			v-6.3"/>
		<path class="st7" d="M1716.6,287.1v-1.8h1.8c0.6,0,1.3,0,1.8,0.5c0.3,0.3,0.5,0.8,0.6,1.4 M1723.9,287.1c-0.1-1.7-0.7-3-1.8-4
			s-2.4-1-3.7-1h-5.2v5 M1710.9,287.1v-5h-2.8v5 M1703.4,287.1v-5h-3.5v5 M1685.8,287.1v-1.6h6.6v-3.4h-9.8v5 M1680.1,287.1
			c-0.3-1.1-0.9-2.2-1.6-3c-1.5-1.8-3.2-2-5.2-2h-4v5 M1672.4,287.1v-1.8h1.1c1.1,0,2,0.2,2.7,1.4c0.1,0.1,0.1,0.3,0.2,0.4
			 M1666.6,287.1v-5h-3.2v5 M1654.1,287.1c0-0.1-0.1-0.3-0.1-0.5c0-1.4,1-1.6,1.9-1.6c1.2,0,2,0.6,2.4,2.1l2.7-1.1
			c-0.8-3-2.8-4.1-5.2-4.1c-1.3,0-2.4,0.4-3.4,1.4c-0.9,1-1.4,2.3-1.5,3.8 M1636.1,287.1c0-0.1-0.1-0.3-0.1-0.5c0-1.4,1-1.6,1.9-1.6
			c1.2,0,2,0.6,2.4,2.1l2.7-1.1c-0.8-3-2.8-4.1-5.2-4.1c-1.3,0-2.4,0.4-3.4,1.4c-0.9,1-1.4,2.3-1.5,3.8 M1630.6,287.1v-5h-3.2v5
			 M1624.8,287.1v-5h-3.2v5 M1617.2,287.1v-5h-3.2v5 M1608.9,287.1v-1.5h3.4v-3.5h-10.1v3.5h3.5v1.5"/>
	</g>
	<line class="st7" x1="1648.7" y1="276.1" x2="1678.1" y2="275.9"/>
	<rect x="1581.4" y="122.3" class="st7" width="160.7" height="184"/>
	<rect x="1585.1" y="125.4" class="st7" width="153.6" height="178.1"/>
	<text transform="matrix(1 0 0 1 480.9858 298.0693)" class="st7 st8 st9">5V Only !</text>
	<text transform="matrix(1 0 0 1 1134.9744 266.4728)" class="st7 st8 st10">12V SATA</text>
	<text transform="matrix(1 0 0 1 1126.4744 283.2728)" class="st7 st8 st10">Power Cable</text>
	<circle class="st0" cx="18" cy="75.7" r="4.8"/>
	<circle class="st0" cx="1868.4" cy="75.7" r="4.8"/>
	<circle class="st0" cx="18" cy="378.1" r="4.8"/>
	<circle class="st0" cx="1868.4" cy="378.1" r="4.8"/>
</g>
</svg>
