<?xml version="1.0" encoding="utf-8"?>
<!-- Generator: Adobe Illustrator 27.3.1, SVG Export Plug-In . SVG Version: 6.00 Build 0)  -->
<svg version="1.1" id="TAG_Back_43_37.5" xmlns="http://www.w3.org/2000/svg" xmlns:xlink="http://www.w3.org/1999/xlink" x="0px"
	 y="0px" viewBox="0 0 2304.1 543.5" style="enable-background:new 0 0 2304.1 543.5;" xml:space="preserve">
<style type="text/css">
	.st0{fill:none;stroke:#000000;stroke-width:0.1;stroke-linecap:round;stroke-linejoin:round;stroke-miterlimit:10;}
	.st1{fill:none;stroke:#000000;stroke-width:0.1;stroke-miterlimit:10;}
	.st2{fill:none;stroke:#000000;stroke-width:0.1;stroke-linejoin:round;stroke-miterlimit:10;}
	.st3{fill:none;stroke:#FF0000;stroke-width:0.1;stroke-miterlimit:10;}
	.st4{fill-rule:evenodd;clip-rule:evenodd;fill:none;stroke:#FF0000;stroke-width:0.1;stroke-miterlimit:10;}
	.st5{fill:none;stroke:#000000;stroke-width:0.1;stroke-linejoin:bevel;stroke-miterlimit:10;}
	.st6{font-family:'Emulogic';}
	.st7{font-size:24px;}
	.st8{font-family:'MyriadPro-Regular';}
	.st9{font-size:18px;}
	.st10{font-size:12px;}
</style>
<circle class="st0" cx="1123.8" cy="36.5" r="5.4"/>
<circle class="st0" cx="1123.8" cy="507" r="5.4"/>
<circle class="st0" cx="608.8" cy="515.5" r="5.4"/>
<circle class="st0" cx="93.7" cy="507" r="5.4"/>
<circle class="st0" cx="608.8" cy="28" r="5.4"/>
<circle class="st0" cx="93.7" cy="36.5" r="5.4"/>
<g id="LWPOLYLINE_00000080910167285586999180000016557857773061526452_">
	<path class="st0" d="M121.4,179.9h31.2c1.6,0,2.8-1.4,2.8-3V89.5c0-1.7-1.3-3-2.8-3h-31.2c-1.6,0-2.8,1.4-2.8,3v87.5
		C118.5,178.4,119.8,179.9,121.4,179.9z"/>
</g>
<g id="LWPOLYLINE_00000150089306612599583800000000672823769293615782_">
	<path class="st0" d="M835.5,131.4c0-1.7-1.3-3-2.8-3h-62.4c-1.6,0-2.8,1.4-2.8,3v41.9c0,1.7,1.3,3,2.8,3h62.4c1.6,0,2.8-1.4,2.8-3
		V131.4z"/>
</g>
<g id="LWPOLYLINE_00000137118515697655506410000000074854733090417825_">
	<path class="st0" d="M1066.9,179.5h31.2c1.6,0,2.8-1.4,2.8-3V89c0-1.7-1.3-3-2.8-3h-31.2c-1.6,0-2.8,1.4-2.8,3v87.5
		C1064,178,1065.3,179.5,1066.9,179.5z"/>
</g>
<g id="LWPOLYLINE_00000072241493045603849540000007781530969972677282_">
	<path class="st0" d="M1209,179.9h31.2c1.6,0,2.8-1.4,2.8-3V89.5c0-1.7-1.3-3-2.8-3H1209c-1.6,0-2.8,1.4-2.8,3v87.5
		C1206.1,178.4,1207.4,179.9,1209,179.9z"/>
</g>
<g id="LWPOLYLINE_00000073700150571286906680000013096976007930247064_">
	<path class="st0" d="M1923.1,131.4c0-1.7-1.3-3-2.8-3h-62.4c-1.6,0-2.8,1.4-2.8,3v41.9c0,1.7,1.3,3,2.8,3h62.4c1.6,0,2.8-1.4,2.8-3
		V131.4z"/>
</g>
<circle class="st0" cx="1181.8" cy="36.5" r="5.4"/>
<circle class="st0" cx="1696.9" cy="28" r="5.4"/>
<circle class="st0" cx="2212" cy="36.5" r="5.4"/>
<circle class="st0" cx="2212" cy="507" r="5.4"/>
<circle class="st0" cx="1696.9" cy="515.5" r="5.4"/>
<circle class="st0" cx="1181.8" cy="507" r="5.4"/>
<ellipse class="st1" cx="927.7" cy="218.7" rx="9" ry="12.6"/>
<ellipse class="st1" cx="948.9" cy="119.1" rx="9" ry="12.6"/>
<ellipse class="st1" cx="1419.7" cy="201.6" rx="9" ry="12.6"/>
<ellipse class="st1" cx="1440.9" cy="113.1" rx="9" ry="12.6"/>
<path class="st1" d="M2043.8,405.6c-2.4,0-4.3-1.8-4.3-4.3c0-2.4,1.9-4.3,4.3-4.3c2.5,0,4.4,1.9,4.4,4.3
	C2048.2,403.8,2046.3,405.6,2043.8,405.6z"/>
<path class="st1" d="M1879.4,405.6c-2.4,0-4.3-1.8-4.3-4.3c0-2.4,1.9-4.3,4.3-4.3c2.5,0,4.4,1.9,4.4,4.3
	C1883.8,403.8,1881.9,405.6,1879.4,405.6z"/>
<path class="st1" d="M2043.8,470.8c-2.4,0-4.3-1.8-4.3-4.3c0-2.4,1.9-4.3,4.3-4.3c2.5,0,4.4,1.9,4.4,4.3
	C2048.2,469,2046.3,470.8,2043.8,470.8z"/>
<path class="st1" d="M1879.4,470.8c-2.4,0-4.3-1.8-4.3-4.3c0-2.4,1.9-4.3,4.3-4.3c2.5,0,4.4,1.9,4.4,4.3
	C1883.8,469,1881.9,470.8,1879.4,470.8z"/>
<path class="st2" d="M1879.4,331.6c-2.4,0-4.3-1.9-4.3-4.4c0-2.4,1.9-4.3,4.3-4.3c2.5,0,4.4,1.9,4.4,4.3
	C1883.8,329.7,1881.9,331.6,1879.4,331.6z"/>
<g id="CIRCLE_00000078007915514411076320000012381122555525114806_">
	<path class="st0" d="M292.2,16.6c0-2.6,2.1-4.7,4.7-4.7s4.7,2.1,4.7,4.7s-2.1,4.7-4.7,4.7S292.2,19.2,292.2,16.6L292.2,16.6z"/>
</g>
<g id="CIRCLE_00000106869309450124489620000006173899809811679672_">
	<path class="st0" d="M1380.3,16.6c0-2.6,2.1-4.7,4.7-4.7s4.7,2.1,4.7,4.7s-2.1,4.7-4.7,4.7S1380.3,19.2,1380.3,16.6L1380.3,16.6z"
		/>
</g>
<g id="CIRCLE_00000145048164162606803420000014977545889734965892_">
	<path class="st0" d="M2003.7,526.9c0-2.6,2.3-4.7,5-4.7s5,2.1,5,4.7s-2.3,4.7-5,4.7S2003.7,529.5,2003.7,526.9L2003.7,526.9z"/>
</g>
<g id="CIRCLE_00000124849985554050755320000003077197522011141288_">
	<path class="st0" d="M915.6,526.9c0-2.6,2.3-4.7,5-4.7s5,2.1,5,4.7s-2.3,4.7-5,4.7S915.6,529.5,915.6,526.9L915.6,526.9z"/>
</g>
<circle class="st0" cx="93.7" cy="271.8" r="5.4"/>
<circle class="st0" cx="1123.8" cy="271.8" r="5.4"/>
<circle class="st0" cx="1181.8" cy="271.8" r="5.4"/>
<circle class="st0" cx="2212" cy="271.8" r="5.4"/>
<ellipse class="st1" cx="244.2" cy="220.8" rx="9" ry="12.6"/>
<ellipse class="st1" cx="265.4" cy="130.2" rx="9" ry="12.6"/>
<rect x="0.1" y="0.1" class="st0" width="2304" height="543.4"/>
<path class="st3" d="M2110.4,252.3l-0.1-92.5l18.6,0l-33.3-54.4l-33.3,54.4l18.6,0l0.1,92.7"/>
<g>
	<path class="st4" d="M2145.7,269.9v6.1h3.2v-6.1 M2140.5,269.9c0,0.7-0.1,1.6-0.4,2.1c-0.4,0.7-1.3,0.9-2,0.9
		c-0.8,0-1.6-0.2-2.1-1.2c-0.2-0.5-0.3-1.2-0.3-1.9 M2132.3,269.9c0,1.8,0.2,3.5,1.4,4.8c1.1,1.2,2.8,1.5,4.2,1.5
		c1.5,0,3.1-0.4,4.2-1.8c1-1.2,1.1-2.9,1.1-4.5 M2114.9,269.9v6.1h9.8v-3.4h-6.6v-2.7 M2109.2,269.9c-0.1,0.3-0.2,0.7-0.4,1
		c-0.7,1.5-1.6,1.9-2.9,1.9h-1.1v-2.8 M2101.6,269.9v6.1h4.5c1.9,0,3.6-0.5,5-2.4c0.7-1.1,1.2-2.3,1.5-3.7 M2095.7,269.9v6.1h3.2
		v-6.1 M2089.9,269.9c0.3,0.3,0.6,0.7,0.6,1.2c0,1.4-1.2,1.9-2.1,1.9c-1.4,0-2.5-0.6-2.9-2.5l-3,0.9c0.6,3.4,3,4.8,5.5,4.8
		c1.4,0,2.9-0.3,4-1.4c1.1-1,1.7-2.7,1.7-4.4c0-0.2,0-0.4,0-0.5 M2071.8,269.9c0.3,0.3,0.6,0.7,0.6,1.2c0,1.4-1.2,1.9-2.1,1.9
		c-1.4,0-2.5-0.6-2.9-2.5l-3,0.9c0.6,3.4,3,4.8,5.5,4.8c1.4,0,2.9-0.3,4-1.4c1.1-1,1.7-2.7,1.7-4.4c0-0.2,0-0.4,0-0.5 M2059.7,269.9
		v6.1h3.2v-6.1 M2053.8,269.9v6.1h3.2v-6.1 M2046.4,269.9v6.1h3.2v-6.1 M2038.1,269.9v6.1 M2038.1,276h3.2v-6.1"/>
	<path class="st4" d="M2145.7,263.6v6.3 M2153,263.6c0,0.2,0,0.3,0,0.5c0,0.6-0.1,1.1-0.4,1.6c-0.6,0.8-1.2,0.8-2,0.8h-1.8v-2.8
		 M2148.9,269.9v-0.4h2.1c1.5,0,2.7,0,3.9-1.2c1-1.1,1.5-2.8,1.5-4.4c0-0.1,0-0.2,0-0.3 M2140.5,263.6v5.5c0,0.3,0,0.5,0,0.8
		 M2143.2,269.9c0-0.3,0-0.5,0-0.8v-5.5 M2135.7,269.9c0-0.3,0-0.6,0-0.8v-5.5 M2132.3,263.6v5.5c0,0.3,0,0.5,0,0.8 M2114.9,263.6
		v6.3 M2118.1,269.9v-1.2h5.2v-3.3h-5.2v-1.9 M2108.8,263.6c0.5,1,0.8,2.3,0.8,3.5c0,0.9-0.1,1.9-0.4,2.8 M2112.6,269.9
		c0.2-0.9,0.3-1.8,0.3-2.7c0-1.3-0.2-2.5-0.5-3.7 M2104.8,269.9v-6.3 M2101.6,263.6v6.3 M2095.7,263.6v6.3 M2098.9,269.9v-6.3
		 M2093.7,269.9c-0.1-1.5-0.8-2.7-1.8-3.6c-1-0.8-2.5-1.2-3.6-1.5c-0.7-0.2-1.7-0.4-1.9-1.3 M2083.2,263.6c0,0.1,0,0.2,0,0.3
		c0,3.8,2.4,4.7,4.8,5.4c0.5,0.1,1.3,0.3,1.8,0.7 M2065.2,263.6c0,0.1,0,0.2,0,0.3c0,3.8,2.4,4.7,4.8,5.4c0.5,0.1,1.3,0.3,1.8,0.7
		 M2075.7,269.9c-0.1-1.5-0.8-2.7-1.8-3.6c-1-0.8-2.5-1.2-3.6-1.5c-0.7-0.2-1.7-0.4-1.9-1.3 M2062.9,269.9v-6.3 M2059.7,263.6v6.3
		 M2053.8,263.6v1.8h-4.2v-1.8 M2057,269.9v-6.3 M2049.6,269.9v-1.1h4.2v1.1 M2046.4,263.6v6.3 M2038.1,263.6v6.3 M2041.3,269.9
		v-6.3 M2038.1,269.9"/>
	<path class="st4" d="M2148.9,263.6v-1.8h1.8c0.6,0,1.3,0,1.8,0.5c0.3,0.3,0.5,0.8,0.6,1.4 M2156.3,263.6c-0.1-1.7-0.7-3-1.8-4
		c-1.1-1-2.4-1-3.7-1h-5.2v5 M2143.2,263.6v-5h-2.8v5 M2135.7,263.6v-5h-3.5v5 M2118.1,263.6v-1.6h6.6v-3.4h-9.8v5 M2112.4,263.6
		c-0.3-1.1-0.9-2.2-1.6-3c-1.5-1.8-3.2-2-5.2-2h-4v5 M2104.8,263.6v-1.8h1.1c1.1,0,2,0.2,2.7,1.4c0.1,0.1,0.1,0.3,0.2,0.4
		 M2098.9,263.6v-5h-3.2v5 M2086.4,263.6c0-0.1-0.1-0.3-0.1-0.5c0-1.4,1-1.6,1.9-1.6c1.2,0,2,0.6,2.4,2.1l2.7-1.1
		c-0.8-3-2.8-4.1-5.2-4.1c-1.3,0-2.4,0.4-3.4,1.4c-0.9,1-1.4,2.3-1.5,3.8 M2068.4,263.6c0-0.1-0.1-0.3-0.1-0.5c0-1.4,1-1.6,1.9-1.6
		c1.2,0,2,0.6,2.4,2.1l2.7-1.1c-0.8-3-2.8-4.1-5.2-4.1c-1.3,0-2.4,0.4-3.4,1.4c-0.9,1-1.4,2.3-1.5,3.8 M2062.9,263.6v-5h-3.2v5
		 M2057,263.6v-5h-3.2v5 M2049.6,263.6v-5h-3.2v5 M2041.3,263.6 M2041.3,263.6V262h3.4v-3.5h-10.1v3.5h3.5v1.5"/>
</g>
<line class="st3" x1="2081" y1="252.5" x2="2110.4" y2="252.3"/>
<rect x="2013.7" y="98.7" class="st3" width="160.7" height="184"/>
<rect x="2017.4" y="101.8" class="st3" width="153.6" height="178.1"/>
<polyline class="st5" points="2271.7,501.2 2270.2,501.3 2268.9,501.8 2267.8,502.4 2266.7,503.4 2265.9,504.6 2265.4,505.9 
	2265.2,507.2 2265.3,508.6 2265.7,509.9 2266.3,511.2 2267.2,512.3 2268.4,513 2269.5,513.6 2270.9,514 2272.3,514 2273.7,513.6 
	2274.9,513 2276,512.3 2277,511.2 2277.5,509.9 2277.9,508.6 2278.1,507.2 2277.8,505.9 2277.3,504.6 2276.5,503.4 2275.5,502.4 
	2274.3,501.8 2273,501.3 2271.7,501.2 "/>
<polyline class="st5" points="2271.7,78.3 2270.6,78.4 2269.7,78.7 2268.8,79.2 2268.1,79.9 2267.4,80.8 2267.1,81.7 2267,82.7 
	2267,83.7 2267.3,84.7 2267.7,85.6 2268.4,86.4 2269.2,87 2270.1,87.4 2271.1,87.7 2272.1,87.7 2273.2,87.4 2274,87 2274.9,86.4 
	2275.5,85.6 2276,84.7 2276.2,83.7 2276.3,82.7 2276.1,81.7 2275.8,80.8 2275.2,79.9 2274.4,79.2 2273.6,78.7 2272.6,78.4 
	2271.7,78.3 "/>
<polyline class="st5" points="2271.7,454.7 2270.6,454.7 2269.7,455.1 2268.8,455.6 2268.1,456.3 2267.4,457.1 2267.1,458.1 
	2267,459 2267,460.1 2267.3,461 2267.7,461.9 2268.4,462.7 2269.2,463.3 2270.1,463.7 2271.1,464 2272.1,464 2273.2,463.7 
	2274,463.3 2274.9,462.7 2275.5,461.9 2276,461 2276.2,460.1 2276.3,459 2276.1,458.1 2275.8,457.1 2275.2,456.3 2274.4,455.6 
	2273.6,455.1 2272.6,454.7 2271.7,454.7 "/>
<text transform="matrix(1 0 0 1 872.0163 339.2501)" class="st3 st6 st7">Pixelcade LED Marquee</text>
<text transform="matrix(1 0 0 1 1003.499 460.4542)" class="st3 st8 st9">IMPORTANT: Use Only 5V, 10A Power Supply</text>
<text transform="matrix(1 0 0 1 1926.853 403.2372)"><tspan x="0" y="0" class="st3 st8 st10">Pi Mount Holes</tspan><tspan x="0" y="14.4" class="st3 st8 st10">Optional</tspan></text>
<g id="LWPOLYLINE_00000023240854117467879140000016640735780215856018_">
	<path class="st0" d="M704.9,367.9c0-2.3-1.9-4.3-4.3-4.3c-2.4,0-4.3,1.9-4.3,4.3c0,2.3,1.9,4.3,4.3,4.3
		C703,372.2,704.9,370.2,704.9,367.9"/>
</g>
<g id="LWPOLYLINE_00000023247300429602312770000010712598958207079612_">
	<path class="st0" d="M568.8,367.9c0-2.3-1.9-4.3-4.3-4.3c-2.3,0-4.3,1.9-4.3,4.3c0,2.3,1.9,4.3,4.3,4.3S568.8,370.2,568.8,367.9"/>
</g>
<g id="LWPOLYLINE_00000014629721462650030060000007427208961568870543_">
	<path class="st0" d="M568.8,169.5c0-2.3-1.9-4.3-4.3-4.3c-2.3,0-4.3,1.9-4.3,4.3s1.9,4.3,4.3,4.3
		C566.9,173.7,568.8,171.8,568.8,169.5"/>
</g>
<g id="LWPOLYLINE_00000069395668047095425850000002431758879051859596_">
	<path class="st0" d="M704.9,169.5c0-2.3-1.9-4.3-4.3-4.3c-2.4,0-4.3,1.9-4.3,4.3s1.9,4.3,4.3,4.3
		C703,173.8,704.9,171.8,704.9,169.5"/>
</g>
<text transform="matrix(0 1 -1 0 730.1709 264.135)" class="st3 st8 st10">USB</text>
<polyline class="st5" points="2271.7,30.7 2270.2,30.7 2268.9,31.2 2267.8,31.9 2266.7,32.9 2265.9,34 2265.4,35.3 2265.2,36.7 
	2265.3,38.1 2265.7,39.4 2266.3,40.6 2267.2,41.7 2268.4,42.5 2269.5,43.1 2270.9,43.5 2272.3,43.5 2273.7,43.1 2274.9,42.5 
	2276,41.7 2277,40.6 2277.5,39.4 2277.9,38.1 2278.1,36.7 2277.8,35.3 2277.3,34 2276.5,32.9 2275.5,31.9 2274.3,31.2 2273,30.7 
	2271.7,30.7 "/>
<text transform="matrix(1 0 0 1 872.0163 382.6698)" class="st3 st6 st7">P6 Generic Full Mount</text>
<polyline class="st5" points="32.6,500.9 31.2,501 29.9,501.5 28.7,502.1 27.7,503.1 26.8,504.3 26.4,505.6 26.2,506.9 26.2,508.4 
	26.6,509.6 27.2,510.9 28.1,512 29.3,512.8 30.4,513.3 31.9,513.7 33.2,513.7 34.6,513.3 35.8,512.8 37,512 37.9,510.9 38.5,509.6 
	38.8,508.4 39,506.9 38.7,505.6 38.3,504.3 37.4,503.1 36.4,502.1 35.2,501.5 33.9,501 32.6,500.9 "/>
<polyline class="st5" points="32.6,78 31.5,78.1 30.6,78.4 29.7,78.9 29,79.6 28.4,80.5 28,81.4 27.9,82.4 27.9,83.5 28.2,84.4 
	28.7,85.3 29.3,86.1 30.2,86.7 31,87.1 32.1,87.4 33,87.4 34.1,87.1 34.9,86.7 35.8,86.1 36.5,85.3 36.9,84.4 37.2,83.5 37.3,82.4 
	37.1,81.4 36.7,80.5 36.1,79.6 35.4,78.9 34.5,78.4 33.6,78.1 32.6,78 "/>
<polyline class="st5" points="32.6,454.4 31.5,454.4 30.6,454.8 29.7,455.3 29,456 28.4,456.8 28,457.8 27.9,458.8 27.9,459.8 
	28.2,460.7 28.7,461.6 29.3,462.4 30.2,463 31,463.4 32.1,463.7 33,463.7 34.1,463.4 34.9,463 35.8,462.4 36.5,461.6 36.9,460.7 
	37.2,459.8 37.3,458.8 37.1,457.8 36.7,456.8 36.1,456 35.4,455.3 34.5,454.8 33.6,454.4 32.6,454.4 "/>
<polyline class="st5" points="32.6,30.4 31.2,30.4 29.9,31 28.7,31.6 27.7,32.6 26.8,33.7 26.4,35 26.2,36.4 26.2,37.8 26.6,39.1 
	27.2,40.3 28.1,41.4 29.3,42.2 30.4,42.8 31.9,43.2 33.2,43.2 34.6,42.8 35.8,42.2 37,41.4 37.9,40.3 38.5,39.1 38.8,37.8 39,36.4 
	38.7,35 38.3,33.7 37.4,32.6 36.4,31.6 35.2,31 33.9,30.4 32.6,30.4 "/>
<ellipse class="st1" cx="1774.3" cy="204.4" rx="9" ry="12.6"/>
<ellipse class="st1" cx="1795.5" cy="115.8" rx="9" ry="12.6"/>
<path class="st2" d="M2043.8,331.6c-2.4,0-4.3-1.9-4.3-4.4c0-2.4,1.9-4.3,4.3-4.3c2.5,0,4.4,1.9,4.4,4.3
	C2048.2,329.7,2046.3,331.6,2043.8,331.6z"/>
</svg>
