<?xml version="1.0" encoding="utf-8"?>
<!-- Generator: Adobe Illustrator 25.4.1, SVG Export Plug-In . SVG Version: 6.00 Build 0)  -->
<svg version="1.1" id="Layer_1" xmlns="http://www.w3.org/2000/svg" xmlns:xlink="http://www.w3.org/1999/xlink" x="0px" y="0px"
	 viewBox="0 0 1404 792" style="enable-background:new 0 0 1404 792;" xml:space="preserve">
<style type="text/css">
	.st0{fill:none;stroke:#000000;stroke-width:0.1;stroke-miterlimit:10;}
	.st1{fill:none;stroke:#000000;stroke-width:0.1;stroke-linejoin:round;stroke-miterlimit:10;}
	.st2{fill:none;stroke:#ED2224;stroke-width:0.1;stroke-linejoin:round;stroke-miterlimit:10;}
	.st3{fill:none;stroke:#ED2224;stroke-width:0.1;stroke-miterlimit:10;}
</style>
<path class="st0" d="M270.7,240c-2.4,0-4.3-1.8-4.3-4.3c0-2.4,1.9-4.3,4.3-4.3c2.5,0,4.4,1.9,4.4,4.3C275,238.2,273.1,240,270.7,240
	z"/>
<path class="st0" d="M106.3,240c-2.4,0-4.3-1.8-4.3-4.3c0-2.4,1.9-4.3,4.3-4.3c2.5,0,4.4,1.9,4.4,4.3
	C110.6,238.2,108.7,240,106.3,240z"/>
<path class="st1" d="M106.3,100.7c-2.4,0-4.3-1.9-4.3-4.4c0-2.4,1.9-4.3,4.3-4.3c2.5,0,4.4,1.9,4.4,4.3
	C110.6,98.8,108.7,100.7,106.3,100.7z"/>
<g>
	<path class="st0" d="M310.1,243.3c0,5.5-4.5,10-10,10h-202c-5.5,0-10-4.5-10-10V64.1c0-5.5,4.5-10,10-10h202c5.5,0,10,4.5,10,10
		V243.3z"/>
</g>
<g>
	<path class="st1" d="M290.4,81.5c-2.4,0-4.3-1.9-4.3-4.4c0-2.4,1.9-4.3,4.3-4.3c2.5,0,4.4,1.9,4.4,4.3
		C294.7,79.6,292.8,81.5,290.4,81.5z"/>
	<path class="st1" d="M290.4,217.5c-2.4,0-4.3-1.9-4.3-4.4c0-2.4,1.9-4.3,4.3-4.3c2.5,0,4.4,1.9,4.4,4.3
		C294.7,215.6,292.8,217.5,290.4,217.5z"/>
	<path class="st1" d="M134.6,217.5c-2.4,0-4.3-1.9-4.3-4.4c0-2.4,1.9-4.3,4.3-4.3c2.5,0,4.4,1.9,4.4,4.3
		C138.9,215.6,137,217.5,134.6,217.5z"/>
	<path class="st1" d="M134.6,81.5c-2.4,0-4.3-1.9-4.3-4.4c0-2.4,1.9-4.3,4.3-4.3c2.5,0,4.4,1.9,4.4,4.3
		C138.9,79.6,137,81.5,134.6,81.5z"/>
	<rect x="124.8" y="69" class="st2" width="173.2" height="150.9"/>
	<g>
		<path class="st3" d="M160.5,147.8v-8.1h1.1l2.6,4.1c0.6,0.9,1.1,1.8,1.5,2.6l0,0c-0.1-1.1-0.1-2.1-0.1-3.3v-3.4h1v8.1h-1.1
			l-2.6-4.1c-0.6-0.9-1.1-1.8-1.5-2.7l0,0c0.1,1,0.1,2,0.1,3.3v3.5H160.5z"/>
		<path class="st3" d="M168.9,145c0,1.4,0.9,2,2,2c0.8,0,1.2-0.1,1.6-0.3l0.2,0.8c-0.4,0.2-1,0.4-1.9,0.4c-1.8,0-2.9-1.2-2.9-2.9
			s1-3.1,2.7-3.1c1.9,0,2.4,1.7,2.4,2.7c0,0.2,0,0.4,0,0.5L168.9,145L168.9,145z M172,144.3c0-0.7-0.3-1.7-1.5-1.7
			c-1.1,0-1.5,1-1.6,1.7H172z"/>
		<path class="st3" d="M174.8,142l0.8,3c0.2,0.6,0.3,1.2,0.4,1.8l0,0c0.1-0.6,0.3-1.2,0.5-1.8l0.9-3h0.9l0.9,2.9
			c0.2,0.7,0.4,1.3,0.5,1.9l0,0c0.1-0.6,0.3-1.2,0.4-1.9l0.8-2.9h1l-1.9,5.8h-1l-0.9-2.8c-0.2-0.6-0.4-1.2-0.5-1.9l0,0
			c-0.1,0.7-0.3,1.3-0.5,1.9l-0.9,2.8h-1l-1.8-5.8H174.8z"/>
		<path class="st3" d="M185.8,139.8c0.5-0.1,1.2-0.2,2-0.2c1,0,1.8,0.2,2.3,0.7c0.4,0.4,0.7,1,0.7,1.7s-0.2,1.3-0.6,1.7
			c-0.6,0.6-1.5,0.9-2.5,0.9c-0.3,0-0.6,0-0.8-0.1v3.2h-1L185.8,139.8L185.8,139.8z M186.8,143.7c0.2,0.1,0.5,0.1,0.9,0.1
			c1.3,0,2-0.6,2-1.7c0-1.1-0.8-1.6-1.9-1.6c-0.5,0-0.8,0-1,0.1V143.7z"/>
		<path class="st3" d="M193.1,140.3c0,0.4-0.3,0.6-0.7,0.6c-0.4,0-0.6-0.3-0.6-0.6c0-0.4,0.3-0.7,0.7-0.7
			C192.8,139.7,193.1,139.9,193.1,140.3z M191.9,147.8V142h1.1v5.8H191.9z"/>
		<path class="st3" d="M195.2,142l0.8,1.2c0.2,0.3,0.4,0.6,0.6,0.9l0,0c0.2-0.3,0.4-0.6,0.6-1l0.8-1.2h1.1l-2,2.8l2,3h-1.2l-0.9-1.3
			c-0.2-0.3-0.4-0.7-0.6-1l0,0c-0.2,0.3-0.4,0.7-0.6,1l-0.8,1.3h-1.2l2.1-3l-2-2.8h1.3V142z"/>
		<path class="st3" d="M200.7,145c0,1.4,0.9,2,2,2c0.8,0,1.2-0.1,1.6-0.3l0.2,0.8c-0.4,0.2-1,0.4-1.9,0.4c-1.8,0-2.9-1.2-2.9-2.9
			s1-3.1,2.7-3.1c1.9,0,2.4,1.7,2.4,2.7c0,0.2,0,0.4,0,0.5L200.7,145L200.7,145z M203.8,144.3c0-0.7-0.3-1.7-1.5-1.7
			c-1.1,0-1.5,1-1.6,1.7H203.8z"/>
		<path class="st3" d="M206.1,139.2h1.1v8.5h-1.1V139.2z"/>
		<path class="st3" d="M213.1,147.5c-0.3,0.1-0.9,0.3-1.7,0.3c-1.8,0-2.9-1.2-2.9-3s1.2-3.1,3.1-3.1c0.6,0,1.2,0.2,1.5,0.3l-0.2,0.8
			c-0.3-0.1-0.6-0.3-1.2-0.3c-1.3,0-2.1,1-2.1,2.2c0,1.3,0.9,2.2,2,2.2c0.6,0,1-0.2,1.3-0.3L213.1,147.5z"/>
		<path class="st3" d="M217.5,147.8l-0.1-0.7l0,0c-0.3,0.5-0.9,0.9-1.8,0.9c-1.2,0-1.8-0.8-1.8-1.7c0-1.4,1.2-2.2,3.5-2.2V144
			c0-0.5-0.1-1.3-1.3-1.3c-0.5,0-1.1,0.2-1.5,0.4l-0.2-0.7c0.5-0.3,1.2-0.5,1.9-0.5c1.8,0,2.2,1.2,2.2,2.4v2.2c0,0.5,0,1,0.1,1.4
			L217.5,147.8L217.5,147.8z M217.4,144.8c-1.2,0-2.5,0.2-2.5,1.3c0,0.7,0.5,1,1,1c0.8,0,1.2-0.5,1.4-1c0-0.1,0.1-0.2,0.1-0.3V144.8
			z"/>
		<path class="st3" d="M225.1,139.2v7c0,0.5,0,1.1,0,1.5h-0.9v-1l0,0c-0.3,0.6-1,1.1-2,1.1c-1.4,0-2.5-1.2-2.5-3
			c0-1.9,1.2-3.1,2.6-3.1c0.9,0,1.5,0.4,1.8,0.9l0,0v-3.5h1V139.2z M224.1,144.3c0-0.1,0-0.3,0-0.4c-0.2-0.7-0.7-1.2-1.5-1.2
			c-1.1,0-1.7,1-1.7,2.2s0.6,2.1,1.7,2.1c0.7,0,1.4-0.5,1.5-1.3c0-0.1,0-0.3,0-0.5V144.3z"/>
		<path class="st3" d="M227.5,145c0,1.4,0.9,2,2,2c0.8,0,1.2-0.1,1.6-0.3l0.2,0.8c-0.4,0.2-1,0.4-1.9,0.4c-1.8,0-2.9-1.2-2.9-2.9
			s1-3.1,2.7-3.1c1.9,0,2.4,1.7,2.4,2.7c0,0.2,0,0.4,0,0.5L227.5,145L227.5,145z M230.6,144.3c0-0.7-0.3-1.7-1.5-1.7
			c-1.1,0-1.5,1-1.6,1.7H230.6z"/>
		<path class="st3" d="M235.5,139.8c0.5-0.1,1.2-0.2,1.9-0.2c1,0,1.7,0.2,2.2,0.6c0.4,0.3,0.7,0.8,0.7,1.4c0,0.8-0.5,1.5-1.4,1.8
			l0,0c0.8,0.2,1.7,0.8,1.7,2c0,0.7-0.3,1.2-0.7,1.6c-0.6,0.5-1.5,0.8-2.8,0.8c-0.7,0-1.3,0-1.6-0.1L235.5,139.8L235.5,139.8z
			 M236.5,143.1h0.9c1.1,0,1.8-0.6,1.8-1.4c0-0.9-0.7-1.3-1.8-1.3c-0.5,0-0.8,0-0.9,0.1V143.1z M236.5,147c0.2,0,0.5,0,0.9,0
			c1.1,0,2.1-0.4,2.1-1.6c0-1.1-0.9-1.6-2.1-1.6h-0.9V147z"/>
		<path class="st3" d="M247.2,144.8c0,2.1-1.5,3.1-2.9,3.1c-1.6,0-2.8-1.2-2.8-3c0-1.9,1.3-3.1,2.9-3.1
			C246.1,141.8,247.2,143,247.2,144.8z M242.6,144.9c0,1.3,0.7,2.2,1.8,2.2c1,0,1.8-0.9,1.8-2.3c0-1-0.5-2.2-1.7-2.2
			C243.2,142.6,242.6,143.8,242.6,144.9z"/>
		<path class="st3" d="M251.8,147.8l-0.1-0.7l0,0c-0.3,0.5-0.9,0.9-1.8,0.9c-1.2,0-1.8-0.8-1.8-1.7c0-1.4,1.2-2.2,3.5-2.2V144
			c0-0.5-0.1-1.3-1.3-1.3c-0.5,0-1.1,0.2-1.5,0.4l-0.2-0.7c0.5-0.3,1.2-0.5,1.9-0.5c1.8,0,2.2,1.2,2.2,2.4v2.2c0,0.5,0,1,0.1,1.4
			L251.8,147.8L251.8,147.8z M251.6,144.8c-1.2,0-2.5,0.2-2.5,1.3c0,0.7,0.5,1,1,1c0.8,0,1.2-0.5,1.4-1c0-0.1,0.1-0.2,0.1-0.3V144.8
			z"/>
		<path class="st3" d="M254.4,143.8c0-0.7,0-1.3,0-1.8h0.9v1.1l0,0c0.3-0.8,0.9-1.3,1.6-1.3c0.1,0,0.2,0,0.3,0v1c-0.1,0-0.2,0-0.4,0
			c-0.7,0-1.3,0.6-1.4,1.4c0,0.1,0,0.3,0,0.5v3.1h-1V143.8z"/>
		<path class="st3" d="M263.2,139.2v7c0,0.5,0,1.1,0,1.5h-0.9v-1l0,0c-0.3,0.6-1,1.1-2,1.1c-1.4,0-2.5-1.2-2.5-3
			c0-1.9,1.2-3.1,2.6-3.1c0.9,0,1.5,0.4,1.8,0.9l0,0v-3.5h1V139.2z M262.1,144.3c0-0.1,0-0.3,0-0.4c-0.2-0.7-0.7-1.2-1.5-1.2
			c-1.1,0-1.7,1-1.7,2.2s0.6,2.1,1.7,2.1c0.7,0,1.4-0.5,1.5-1.3c0-0.1,0-0.3,0-0.5V144.3z"/>
	</g>
	<g>
		<path class="st3" d="M278.8,74.8H274c-1.8,0-2.6,0.8-2.6,1.9c0,1.2,0.8,2,2.6,2h4.8v1.1h-4.7c-2.5,0-3.5-1.3-3.5-3.1
			c0-1.7,0.9-2.9,3.5-2.9h4.8v1H278.8z"/>
		<path class="st3" d="M272,81.4c-0.3,0.5-0.5,1.2-0.5,1.9c0,1.1,0.6,1.7,1.4,1.7s1.2-0.4,1.6-1.5c0.5-1.3,1.2-2.1,2.3-2.1
			c1.3,0,2.2,1,2.2,2.6c0,0.8-0.2,1.4-0.4,1.8l-0.9-0.3c0.1-0.3,0.4-0.8,0.4-1.5c0-1.1-0.7-1.5-1.2-1.5c-0.8,0-1.1,0.5-1.6,1.6
			c-0.5,1.4-1.2,2.1-2.4,2.1c-1.2,0-2.3-0.9-2.3-2.8c0-0.8,0.2-1.6,0.5-2.1L272,81.4z"/>
		<path class="st3" d="M278.7,87.4c0.1,0.5,0.2,1.2,0.2,1.9c0,1-0.2,1.7-0.6,2.2c-0.3,0.4-0.8,0.7-1.4,0.7c-0.8,0-1.5-0.5-1.8-1.4
			l0,0c-0.2,0.8-0.8,1.7-2,1.7c-0.7,0-1.2-0.3-1.6-0.7c-0.5-0.6-0.8-1.5-0.8-2.8c0-0.7,0-1.3,0.1-1.6L278.7,87.4L278.7,87.4z
			 M271.5,88.5c0,0.2,0,0.5,0,0.9c0,1.1,0.4,2.1,1.6,2.1c1.1,0,1.6-0.9,1.6-2.1v-0.9H271.5z M275.4,88.5v0.9c0,1.1,0.6,1.8,1.4,1.8
			c0.9,0,1.3-0.7,1.3-1.8c0-0.5,0-0.8-0.1-0.9H275.4z"/>
	</g>
</g>
<g id="Layer_2_00000142147282733449618800000016561837943410523033_">
	<path class="st1" d="M270.7,100.7c-2.4,0-4.3-1.9-4.3-4.4c0-2.4,1.9-4.3,4.3-4.3c2.5,0,4.4,1.9,4.4,4.3
		C275,98.8,273.1,100.7,270.7,100.7z"/>
</g>
</svg>
