<?xml version="1.0" encoding="UTF-8"?>
<svg id="Back_Mount" data-name="Back Mount" xmlns="http://www.w3.org/2000/svg" viewBox="0 0 2880.1 720.1">
  <defs>
    <style>
      .cls-1 {
        font-size: 14.7px;
      }

      .cls-1, .cls-2, .cls-3, .cls-4, .cls-5, .cls-6 {
        fill: none;
      }

      .cls-1, .cls-2, .cls-3, .cls-4, .cls-6 {
        stroke-miterlimit: 10;
      }

      .cls-1, .cls-3, .cls-4, .cls-6 {
        stroke: red;
      }

      .cls-1, .cls-4, .cls-6 {
        font-family: Emulogic, Emulogic;
        stroke-width: .1px;
      }

      .cls-2, .cls-3, .cls-5 {
        stroke-width: .1px;
      }

      .cls-2, .cls-5 {
        stroke: #000;
      }

      .cls-4 {
        font-size: 24px;
      }

      .cls-5 {
        stroke-linecap: round;
        stroke-linejoin: round;
      }

      .cls-6 {
        font-size: 36px;
      }
    </style>
  </defs>
  <circle class="cls-5" cx="1400.49" cy="42.57" r="6.1"/>
  <circle class="cls-5" cx="1400.49" cy="360.05" r="6.1"/>
  <circle class="cls-5" cx="1400.49" cy="677.53" r="6.1"/>
  <circle class="cls-5" cx="975.29" cy="677.53" r="6.1"/>
  <circle class="cls-5" cx="975.29" cy="360.05" r="6.1"/>
  <circle class="cls-5" cx="975.29" cy="42.57" r="6.1"/>
  <circle class="cls-5" cx="521.74" cy="42.57" r="6.1"/>
  <circle class="cls-5" cx="521.74" cy="360.05" r="6.1"/>
  <circle class="cls-5" cx="521.75" cy="677.53" r="6.1"/>
  <circle class="cls-5" cx="96.55" cy="677.53" r="6.1"/>
  <circle class="cls-5" cx="96.55" cy="360.05" r="6.1"/>
  <circle class="cls-5" cx="96.53" cy="42.57" r="6.1"/>
  <circle class="cls-5" cx="1479.51" cy="42.57" r="6.1"/>
  <circle class="cls-5" cx="1479.51" cy="360.05" r="6.1"/>
  <circle class="cls-5" cx="1479.52" cy="677.53" r="6.1"/>
  <circle class="cls-5" cx="1904.71" cy="677.53" r="6.1"/>
  <circle class="cls-5" cx="1904.71" cy="360.05" r="6.1"/>
  <circle class="cls-5" cx="1904.61" cy="42.57" r="6.1"/>
  <circle class="cls-5" cx="2358.25" cy="42.57" r="6.1"/>
  <circle class="cls-5" cx="2358.25" cy="360.05" r="6.1"/>
  <circle class="cls-5" cx="2358.26" cy="677.53" r="6.1"/>
  <circle class="cls-5" cx="2783.45" cy="677.53" r="6.1"/>
  <circle class="cls-5" cx="2783.45" cy="360.05" r="6.1"/>
  <circle class="cls-5" cx="2783.45" cy="42.57" r="6.1"/>
  <g id="CIRCLE">
    <path class="cls-5" d="m2519.04,686.03c0-2.7,2.23-5.04,5.04-5.04s5.04,2.23,5.04,5.04-2.23,5.04-5.04,5.04-5.04-2.23-5.04-5.04h0Z"/>
  </g>
  <g id="CIRCLE-2" data-name="CIRCLE">
    <path class="cls-5" d="m1733.84,34.07c0-2.7,2.23-5.04,5.04-5.04s5.04,2.23,5.04,5.04-2.23,5.04-5.04,5.04-5.04-2.23-5.04-5.04h0Z"/>
  </g>
  <g id="CIRCLE-3" data-name="CIRCLE">
    <path class="cls-5" d="m350.88,34.07c0-2.7,2.23-5.04,5.04-5.04s5.04,2.23,5.04,5.04-2.23,5.04-5.04,5.04-5.04-2.23-5.04-5.04h0Z"/>
  </g>
  <g id="CIRCLE-4" data-name="CIRCLE">
    <path class="cls-5" d="m1136.08,686.03c0-2.7,2.23-5.04,5.04-5.04s5.04,2.23,5.04,5.04-2.23,5.04-5.04,5.04-5.04-2.23-5.04-5.04h0Z"/>
  </g>
  <g id="LWPOLYLINE">
    <path class="cls-5" d="m127.05,233.48h31.2c1.6,0,2.8-1.4,2.8-3v-87.5c0-1.7-1.3-3-2.8-3h-31.2c-1.6,0-2.8,1.4-2.8,3v87.5c-.1,1.5,1.2,3,2.8,3Z"/>
  </g>
  <g id="LWPOLYLINE-2" data-name="LWPOLYLINE">
    <path class="cls-5" d="m357.01,177.37c0-1.7-1.3-3-2.8-3h-62.4c-1.6,0-2.8,1.4-2.8,3v41.9c0,1.7,1.3,3,2.8,3h62.4c1.6,0,2.8-1.4,2.8-3v-41.9Z"/>
  </g>
  <ellipse class="cls-2" cx="465.56" cy="248.05" rx="9" ry="12.6"/>
  <ellipse class="cls-2" cx="486.76" cy="148.45" rx="9" ry="12.6"/>
  <g id="LWPOLYLINE-3" data-name="LWPOLYLINE">
    <path class="cls-5" d="m647.61,233.48h31.2c1.6,0,2.8-1.4,2.8-3v-87.5c0-1.7-1.3-3-2.8-3h-31.2c-1.6,0-2.8,1.4-2.8,3v87.5c-.1,1.5,1.2,3,2.8,3Z"/>
  </g>
  <g id="LWPOLYLINE-4" data-name="LWPOLYLINE">
    <path class="cls-5" d="m818.61,233.2h31.2c1.6,0,2.8-1.4,2.8-3v-87.5c0-1.7-1.3-3-2.8-3h-31.2c-1.6,0-2.8,1.4-2.8,3v87.5c-.1,1.5,1.2,3,2.8,3Z"/>
  </g>
  <g id="LWPOLYLINE-5" data-name="LWPOLYLINE">
    <path class="cls-5" d="m1336.11,233.48h31.2c1.6,0,2.8-1.4,2.8-3v-87.5c0-1.7-1.3-3-2.8-3h-31.2c-1.6,0-2.8,1.4-2.8,3v87.5c-.1,1.5,1.2,3,2.8,3Z"/>
  </g>
  <g id="LWPOLYLINE-6" data-name="LWPOLYLINE">
    <path class="cls-5" d="m1510.13,233.48h31.2c1.6,0,2.8-1.4,2.8-3v-87.5c0-1.7-1.3-3-2.8-3h-31.2c-1.6,0-2.8,1.4-2.8,3v87.5c-.1,1.5,1.2,3,2.8,3Z"/>
  </g>
  <g id="LWPOLYLINE-7" data-name="LWPOLYLINE">
    <path class="cls-5" d="m2030.69,233.48h31.2c1.6,0,2.8-1.4,2.8-3v-87.5c0-1.7-1.3-3-2.8-3h-31.2c-1.6,0-2.8,1.4-2.8,3v87.5c-.1,1.5,1.2,3,2.8,3Z"/>
  </g>
  <g id="LWPOLYLINE-8" data-name="LWPOLYLINE">
    <path class="cls-5" d="m2201.69,233.48h31.2c1.6,0,2.8-1.4,2.8-3v-87.5c0-1.7-1.3-3-2.8-3h-31.2c-1.6,0-2.8,1.4-2.8,3v87.5c-.1,1.5,1.2,3,2.8,3Z"/>
  </g>
  <g id="LWPOLYLINE-9" data-name="LWPOLYLINE">
    <path class="cls-5" d="m1049.65,177.3c0-1.7-1.3-3-2.8-3h-62.4c-1.6,0-2.8,1.4-2.8,3v41.9c0,1.7,1.3,3,2.8,3h62.4c1.6,0,2.8-1.4,2.8-3v-41.9Z"/>
  </g>
  <g id="LWPOLYLINE-10" data-name="LWPOLYLINE">
    <path class="cls-5" d="m1740.09,177.3c0-1.7-1.3-3-2.8-3h-62.4c-1.6,0-2.8,1.4-2.8,3v41.9c0,1.7,1.3,3,2.8,3h62.4c1.6,0,2.8-1.4,2.8-3v-41.9Z"/>
  </g>
  <g id="LWPOLYLINE-11" data-name="LWPOLYLINE">
    <path class="cls-5" d="m2432.73,177.3c0-1.7-1.3-3-2.8-3h-62.4c-1.6,0-2.8,1.4-2.8,3v41.9c0,1.7,1.3,3,2.8,3h62.4c1.6,0,2.8-1.4,2.8-3v-41.9Z"/>
  </g>
  <ellipse class="cls-2" cx="1186.32" cy="248.05" rx="9" ry="12.6"/>
  <ellipse class="cls-2" cx="1207.52" cy="148.45" rx="9" ry="12.6"/>
  <ellipse class="cls-2" cx="1856.82" cy="248.05" rx="9" ry="12.6"/>
  <ellipse class="cls-2" cx="1878.02" cy="148.45" rx="9" ry="12.6"/>
  <rect class="cls-5" x=".05" y=".05" width="2880" height="720"/>
  <circle class="cls-5" cx="28.85" cy="108.05" r="4.68"/>
  <circle class="cls-5" cx="28.85" cy="612.05" r="4.68"/>
  <circle class="cls-5" cx="2851.25" cy="108.05" r="4.68"/>
  <circle class="cls-5" cx="2851.25" cy="612.05" r="4.68"/>
  <g id="LWPOLYLINE-12" data-name="LWPOLYLINE">
    <path class="cls-5" d="m531.45,625.09c0-2.35-1.9-4.25-4.25-4.25s-4.25,1.9-4.25,4.25,1.9,4.25,4.25,4.25,4.25-1.9,4.25-4.25"/>
  </g>
  <g id="LWPOLYLINE-13" data-name="LWPOLYLINE">
    <path class="cls-5" d="m395.39,625.09c0-2.35-1.9-4.25-4.25-4.25s-4.25,1.9-4.25,4.25,1.9,4.25,4.25,4.25,4.25-1.9,4.25-4.25"/>
  </g>
  <g id="LWPOLYLINE-14" data-name="LWPOLYLINE">
    <path class="cls-5" d="m395.39,426.66c0-2.35-1.9-4.25-4.25-4.25s-4.25,1.9-4.25,4.25,1.9,4.25,4.25,4.25,4.25-1.9,4.25-4.25"/>
  </g>
  <g id="LWPOLYLINE-15" data-name="LWPOLYLINE">
    <path class="cls-5" d="m531.45,426.66c0-2.35-1.9-4.25-4.25-4.25s-4.25,1.9-4.25,4.25c0,2.35,1.9,4.25,4.25,4.25s4.25-1.9,4.25-4.25"/>
  </g>
  <g>
    <path class="cls-3" d="m2672.85,306.06h-19.96v103.09h-28.79v-103.11h-20.18c11.71-19.26,22.93-37.72,34.45-56.67,11.5,18.91,22.73,37.37,34.47,56.69Z"/>
    <path class="cls-3" d="m2593.63,306.07h-19.85v103.13h-28.93v-103.1h-20.05c11.64-19.15,22.86-37.6,34.41-56.59,11.49,18.89,22.71,37.32,34.42,56.56Z"/>
    <path class="cls-3" d="m2523.01,436.53v-21.94h151.44v21.94h-151.44Z"/>
  </g>
  <text class="cls-1" transform="translate(2515.72 470.8)"><tspan x="0" y="0">This side up</tspan></text>
  <rect class="cls-3" x="2486.17" y="228.98" width="233.27" height="262.15" rx="10" ry="10"/>
  <text class="cls-6" transform="translate(1141.12 103.37)"><tspan x="0" y="0">pixelcade jumbo</tspan></text>
  <rect class="cls-3" x="385.13" y="419.72" width="148.32" height="213.12" rx="4.32" ry="4.32"/>
  <text class="cls-4" transform="translate(569.79 527.11)"><tspan x="0" y="0">usb</tspan></text>
  <text class="cls-4" transform="translate(569.79 593.97)"><tspan x="0" y="0">5V POWER</tspan></text>
  <polyline class="cls-3" points="360.65 465.08 385.13 465.08 385.13 543.56 360.65 543.56"/>
  <polyline class="cls-3" points="360.65 499.99 380.78 499.99 380.78 510.65 360.65 510.65"/>
  <line class="cls-3" x1="360.65" y1="499.99" x2="360.65" y2="465.08"/>
  <line class="cls-3" x1="360.65" y1="510.65" x2="360.65" y2="543.56"/>
  <rect class="cls-3" x="494.57" y="498.92" width="38.88" height="36.72"/>
  <polyline class="cls-3" points="346.93 539.6 320.29 539.6 320.29 469.04 346.93 469.04"/>
  <polyline class="cls-3" points="346.93 499.99 325.15 499.99 325.15 509.41 346.93 509.41"/>
  <line class="cls-3" x1="346.93" y1="499.99" x2="346.93" y2="469.04"/>
  <line class="cls-3" x1="346.93" y1="539.6" x2="346.93" y2="509.41"/>
  <polyline class="cls-3" points="170.61 222.01 197.25 222.01 197.25 151.45 170.61 151.45"/>
  <polyline class="cls-3" points="170.61 182.39 192.39 182.39 192.39 191.81 170.61 191.81"/>
  <line class="cls-3" x1="170.61" y1="182.39" x2="170.61" y2="151.45"/>
  <line class="cls-3" x1="170.61" y1="222.01" x2="170.61" y2="191.81"/>
  <line class="cls-3" x1="197.25" y1="214.34" x2="220.56" y2="214.34"/>
  <line class="cls-3" x1="220.56" y1="214.34" x2="220.56" y2="531.14"/>
  <line class="cls-3" x1="220.56" y1="531.14" x2="320.29" y2="531.14"/>
  <line class="cls-3" x1="197.25" y1="161.05" x2="270.43" y2="161.05"/>
  <line class="cls-3" x1="270.43" y1="161.05" x2="270.43" y2="477.63"/>
  <line class="cls-3" x1="270.43" y1="477.63" x2="320.29" y2="477.63"/>
  <line class="cls-3" x1="697.59" y1="158.12" x2="801.56" y2="158.12"/>
  <line class="cls-3" x1="700.53" y1="219.58" x2="801.56" y2="219.58"/>
  <line class="cls-3" x1="1388.06" y1="158.12" x2="1492.04" y2="158.12"/>
  <line class="cls-3" x1="1391.01" y1="219.58" x2="1492.04" y2="219.58"/>
  <line class="cls-3" x1="2079.8" y1="158.12" x2="2183.78" y2="158.12"/>
  <line class="cls-3" x1="2082.75" y1="219.58" x2="2183.78" y2="219.58"/>
</svg>