<?xml version="1.0" encoding="utf-8"?>
<!-- Generator: Adobe Illustrator 24.0.1, SVG Export Plug-In . SVG Version: 6.00 Build 0)  -->
<svg version="1.1" xmlns="http://www.w3.org/2000/svg" xmlns:xlink="http://www.w3.org/1999/xlink" x="0px" y="0px"
	 viewBox="0 0 1728 1440" style="enable-background:new 0 0 1728 1440;" xml:space="preserve">
<style type="text/css">
	.st0{fill:none;stroke:#FF0000;stroke-width:0.1;stroke-miterlimit:10;}
	.st1{fill:none;stroke:#010101;stroke-width:0.1;stroke-linecap:round;stroke-linejoin:round;stroke-miterlimit:10;}
	.st2{fill:none;stroke:#000000;stroke-width:0.1;stroke-linecap:round;stroke-linejoin:round;stroke-miterlimit:10;}
	.st3{fill:none;stroke:#010101;stroke-width:0.1;stroke-miterlimit:22.9256;}
	.st4{fill:none;stroke:#000000;stroke-width:0.1;stroke-miterlimit:10;}
	.st5{fill:none;stroke:#000000;stroke-width:0.1;stroke-miterlimit:22.9256;}
</style>
<g id="Engraved_Text">
	<g>
		<g>
			<line class="st0" x1="1000.3" y1="165.7" x2="1000.3" y2="246.5"/>
			<g>
				<path class="st0" d="M1003.8,166.3c-1.5-0.9-2.6-2.2-3.5-3.7c-0.9,1.5-2.1,2.8-3.5,3.7v0.9c1.4-0.9,2.6-2,3.5-3.4
					c0.9,1.4,2.2,2.5,3.5,3.4V166.3z"/>
				<path class="st0" d="M1003.8,168.3c-1.5-0.9-2.6-2.2-3.5-3.7c-0.9,1.5-2.1,2.8-3.5,3.7v0.9c1.4-0.9,2.6-2,3.5-3.4
					c0.9,1.4,2.2,2.5,3.5,3.4V168.3z"/>
			</g>
		</g>
	</g>
	<path class="st0" d="M994.8,146.3v4.8c0,1.8,0.8,2.6,1.9,2.6c1.2,0,2-0.8,2-2.6v-4.8h1.1v4.7c0,2.5-1.3,3.5-3.1,3.5
		c-1.7,0-2.9-0.9-2.9-3.5v-4.7H994.8z"/>
	<path class="st0" d="M1001.3,150.5c0-0.7,0-1.3,0-1.9h0.9v1l0,0c0.4-0.7,1.1-1.1,2.1-1.1c1.4,0,2.5,1.2,2.5,3
		c0,2.1-1.3,3.1-2.6,3.1c-0.8,0-1.4-0.3-1.8-0.9l0,0v3.2h-1L1001.3,150.5L1001.3,150.5L1001.3,150.5z M1002.5,152c0,0.2,0,0.3,0,0.4
		c0.2,0.7,0.8,1.2,1.6,1.2c1.1,0,1.8-0.9,1.8-2.2c0-1.2-0.6-2.2-1.7-2.2c-0.7,0-1.4,0.5-1.6,1.3c0,0.1-0.1,0.3-0.1,0.4V152
		L1002.5,152z"/>
	<g>
		<path class="st0" d="M378.8,273.9c-0.1-1.1-0.1-2.5-0.1-3.5l0,0c-0.3,0.9-0.6,2-1,3.1l-1.4,3.9h-0.8l-1.3-3.9
			c-0.4-1.1-0.7-2.2-0.9-3.1l0,0c0,1-0.1,2.4-0.2,3.6l-0.2,3.5h-1l0.6-8.1h1.3l1.4,3.9c0.3,1,0.6,1.9,0.8,2.7l0,0
			c0.2-0.8,0.5-1.7,0.9-2.7l1.4-3.9h1.3l0.5,8.1h-1L378.8,273.9z"/>
		<path class="st0" d="M387,274.5c0,2.1-1.5,3.1-2.9,3.1c-1.6,0-2.8-1.2-2.8-3c0-1.9,1.3-3.1,2.9-3.1
			C385.8,271.5,387,272.7,387,274.5z M382.3,274.5c0,1.3,0.7,2.2,1.8,2.2c1,0,1.8-0.9,1.8-2.3c0-1-0.5-2.2-1.7-2.2
			C382.9,272.3,382.3,273.4,382.3,274.5z"/>
		<path class="st0" d="M393.1,275.8c0,0.6,0,1.1,0,1.6h-0.9l-0.1-0.9l0,0c-0.3,0.5-0.9,1.1-1.9,1.1c-0.9,0-2-0.5-2-2.5v-3.4h1.1v3.2
			c0,1.1,0.3,1.8,1.3,1.8c0.7,0,1.2-0.5,1.4-1c0.1-0.2,0.1-0.3,0.1-0.5v-3.6h1.1L393.1,275.8L393.1,275.8z"/>
		<path class="st0" d="M394.9,273.2c0-0.6,0-1.1,0-1.6h0.9l0.1,1l0,0c0.3-0.6,1-1.1,1.9-1.1c0.8,0,2.1,0.5,2.1,2.5v3.5h-1.1v-3.4
			c0-0.9-0.3-1.7-1.3-1.7c-0.7,0-1.2,0.5-1.4,1.1c0,0.1-0.1,0.3-0.1,0.5v3.5h-1.1L394.9,273.2L394.9,273.2z"/>
		<path class="st0" d="M402.8,269.9v1.7h1.5v0.8h-1.5v3.1c0,0.7,0.2,1.1,0.8,1.1c0.3,0,0.5,0,0.6-0.1v0.8c-0.2,0.1-0.5,0.1-0.9,0.1
			c-0.5,0-0.9-0.2-1.1-0.4c-0.3-0.3-0.4-0.8-0.4-1.5v-3.2h-0.9v-0.8h0.9v-1.4L402.8,269.9z"/>
		<path class="st0" d="M408.1,269.3h1v7.2h3.5v0.9h-4.5V269.3z"/>
		<path class="st0" d="M417.9,273.6h-3.1v2.9h3.5v0.9h-4.5v-8.1h4.4v0.9h-3.4v2.6h3.1V273.6z"/>
		<path class="st0" d="M419.6,269.4c0.6-0.1,1.4-0.2,2.2-0.2c1.5,0,2.6,0.3,3.3,1c0.7,0.7,1.1,1.6,1.1,2.9c0,1.3-0.4,2.4-1.2,3.1
			c-0.8,0.8-2,1.2-3.6,1.2c-0.7,0-1.4,0-1.9-0.1v-7.9H419.6z M420.7,276.6c0.3,0,0.6,0.1,1.1,0.1c2.2,0,3.4-1.2,3.4-3.4
			c0-1.9-1.1-3.1-3.3-3.1c-0.5,0-0.9,0-1.2,0.1V276.6z"/>
		<path class="st0" d="M430.2,269.4c0.5-0.1,1.2-0.2,2-0.2c1,0,1.8,0.2,2.3,0.7c0.4,0.4,0.7,1,0.7,1.7c0,0.7-0.2,1.3-0.6,1.7
			c-0.6,0.6-1.5,0.9-2.5,0.9c-0.3,0-0.6,0-0.8-0.1v3.2h-1v-7.9H430.2z M431.2,273.3c0.2,0.1,0.5,0.1,0.9,0.1c1.3,0,2-0.6,2-1.7
			s-0.8-1.6-1.9-1.6c-0.5,0-0.8,0-1,0.1V273.3z"/>
		<path class="st0" d="M439.4,277.4l-0.1-0.7l0,0c-0.3,0.5-0.9,0.9-1.8,0.9c-1.2,0-1.8-0.8-1.8-1.7c0-1.4,1.2-2.2,3.5-2.2v-0.1
			c0-0.5-0.1-1.3-1.3-1.3c-0.5,0-1.1,0.2-1.5,0.4l-0.2-0.7c0.5-0.3,1.2-0.5,1.9-0.5c1.8,0,2.2,1.2,2.2,2.4v2.2c0,0.5,0,1,0.1,1.4
			L439.4,277.4L439.4,277.4z M439.3,274.4c-1.2,0-2.5,0.2-2.5,1.3c0,0.7,0.5,1,1,1c0.8,0,1.2-0.5,1.4-1c0-0.1,0.1-0.2,0.1-0.3V274.4
			z"/>
		<path class="st0" d="M442,273.2c0-0.6,0-1.1,0-1.6h0.9l0.1,1l0,0c0.3-0.6,1-1.1,1.9-1.1c0.8,0,2.1,0.5,2.1,2.5v3.5h-1.1v-3.4
			c0-0.9-0.3-1.7-1.3-1.7c-0.7,0-1.2,0.5-1.4,1.1c0,0.1-0.1,0.3-0.1,0.5v3.5H442L442,273.2L442,273.2z"/>
		<path class="st0" d="M449.2,274.7c0,1.4,0.9,2,2,2c0.8,0,1.2-0.1,1.6-0.3l0.2,0.8c-0.4,0.2-1,0.4-1.9,0.4c-1.8,0-2.9-1.2-2.9-2.9
			c0-1.8,1-3.1,2.7-3.1c1.9,0,2.4,1.7,2.4,2.7c0,0.2,0,0.4,0,0.5h-4.1V274.7z M452.3,273.9c0-0.7-0.3-1.7-1.5-1.7
			c-1.1,0-1.5,1-1.6,1.7H452.3z"/>
		<path class="st0" d="M454.7,268.9h1.1v8.5h-1.1V268.9z"/>
		<path class="st0" d="M457.3,276.3c0.3,0.2,0.9,0.4,1.4,0.4c0.8,0,1.1-0.4,1.1-0.9s-0.3-0.8-1.1-1.1c-1-0.4-1.5-0.9-1.5-1.6
			c0-0.9,0.8-1.7,2-1.7c0.6,0,1.1,0.2,1.4,0.4l-0.3,0.8c-0.2-0.1-0.6-0.3-1.2-0.3c-0.6,0-1,0.4-1,0.8c0,0.5,0.3,0.7,1.1,1
			c1,0.4,1.5,0.9,1.5,1.8c0,1-0.8,1.7-2.2,1.7c-0.6,0-1.2-0.2-1.6-0.4L457.3,276.3z"/>
		<path class="st0" d="M387.9,288.9c0,2.1-1.5,3.1-2.9,3.1c-1.6,0-2.8-1.2-2.8-3c0-1.9,1.3-3.1,2.9-3.1
			C386.8,285.9,387.9,287.1,387.9,288.9z M383.3,288.9c0,1.3,0.7,2.2,1.8,2.2c1,0,1.8-0.9,1.8-2.3c0-1-0.5-2.2-1.7-2.2
			C383.9,286.7,383.3,287.8,383.3,288.9z"/>
		<path class="st0" d="M389.3,287.6c0-0.6,0-1.1,0-1.6h0.9l0.1,1l0,0c0.3-0.6,1-1.1,1.9-1.1c0.8,0,2.1,0.5,2.1,2.5v3.5h-1.1v-3.3
			c0-0.9-0.3-1.7-1.3-1.7c-0.7,0-1.2,0.5-1.4,1.1c0,0.1-0.1,0.3-0.1,0.5v3.5h-1.1L389.3,287.6L389.3,287.6z"/>
		<path class="st0" d="M405.4,287.7c0,2.8-1.7,4.3-3.8,4.3s-3.6-1.7-3.6-4.1c0-2.6,1.6-4.2,3.8-4.2
			C404,283.6,405.4,285.3,405.4,287.7z M399.1,287.8c0,1.7,0.9,3.3,2.6,3.3c1.7,0,2.6-1.5,2.6-3.4c0-1.6-0.8-3.3-2.6-3.3
			C400,284.4,399.1,286,399.1,287.8z"/>
		<path class="st0" d="M408.2,284.3v1.7h1.5v0.8h-1.5v3.1c0,0.7,0.2,1.1,0.8,1.1c0.3,0,0.5,0,0.6-0.1v0.8c-0.2,0.1-0.5,0.1-0.9,0.1
			c-0.5,0-0.9-0.2-1.1-0.4c-0.3-0.3-0.4-0.8-0.4-1.5v-3.2h-0.9v-0.8h0.9v-1.4L408.2,284.3z"/>
		<path class="st0" d="M410.9,283.3h1.1v3.6l0,0c0.2-0.3,0.4-0.6,0.8-0.7c0.3-0.2,0.7-0.3,1.1-0.3c0.8,0,2,0.5,2,2.5v3.5h-1.1v-3.3
			c0-0.9-0.3-1.7-1.3-1.7c-0.7,0-1.2,0.5-1.4,1.1c-0.1,0.1-0.1,0.3-0.1,0.5v3.5h-1.1L410.9,283.3L410.9,283.3z"/>
		<path class="st0" d="M418.2,289.1c0,1.4,0.9,2,2,2c0.8,0,1.2-0.1,1.6-0.3l0.2,0.8c-0.4,0.2-1,0.4-1.9,0.4c-1.8,0-2.9-1.2-2.9-2.9
			s1-3.1,2.7-3.1c1.9,0,2.4,1.7,2.4,2.7c0,0.2,0,0.4,0,0.5h-4.1V289.1z M421.2,288.3c0-0.7-0.3-1.7-1.5-1.7c-1.1,0-1.5,1-1.6,1.7
			H421.2z"/>
		<path class="st0" d="M423.6,287.8c0-0.7,0-1.3,0-1.8h0.9v1.1l0,0c0.3-0.8,0.9-1.3,1.6-1.3c0.1,0,0.2,0,0.3,0v1c-0.1,0-0.2,0-0.4,0
			c-0.7,0-1.3,0.6-1.4,1.4c0,0.1,0,0.3,0,0.5v3.1h-1L423.6,287.8L423.6,287.8z"/>
		<path class="st0" d="M429.9,290.5c0.5,0.3,1.2,0.5,1.9,0.5c1.1,0,1.7-0.6,1.7-1.4s-0.4-1.2-1.5-1.6c-1.3-0.5-2.1-1.2-2.1-2.3
			c0-1.3,1-2.2,2.6-2.2c0.8,0,1.4,0.2,1.8,0.4l-0.3,0.9c-0.3-0.1-0.8-0.4-1.5-0.4c-1.1,0-1.5,0.7-1.5,1.2c0,0.8,0.5,1.1,1.6,1.6
			c1.4,0.5,2.1,1.2,2.1,2.4c0,1.2-0.9,2.3-2.8,2.3c-0.8,0-1.6-0.2-2.1-0.5L429.9,290.5z"/>
		<path class="st0" d="M437.1,284.4c0,0.4-0.3,0.6-0.7,0.6s-0.6-0.3-0.6-0.6c0-0.4,0.3-0.7,0.7-0.7
			C436.9,283.7,437.1,284,437.1,284.4z M436,291.8V286h1.1v5.8H436z"/>
		<path class="st0" d="M443.8,283.3v7c0,0.5,0,1.1,0,1.5h-0.9v-1l0,0c-0.3,0.6-1,1.1-2,1.1c-1.4,0-2.5-1.2-2.5-3
			c0-1.9,1.2-3.1,2.6-3.1c0.9,0,1.5,0.4,1.8,0.9l0,0v-3.5h1V283.3z M442.7,288.4c0-0.1,0-0.3,0-0.4c-0.2-0.7-0.7-1.2-1.5-1.2
			c-1.1,0-1.7,1-1.7,2.2s0.6,2.1,1.7,2.1c0.7,0,1.4-0.5,1.5-1.3c0-0.1,0-0.3,0-0.5V288.4z"/>
		<path class="st0" d="M446.1,289.1c0,1.4,0.9,2,2,2c0.8,0,1.2-0.1,1.6-0.3l0.2,0.8c-0.4,0.2-1,0.4-1.9,0.4c-1.8,0-2.9-1.2-2.9-2.9
			s1-3.1,2.7-3.1c1.9,0,2.4,1.7,2.4,2.7c0,0.2,0,0.4,0,0.5h-4.1V289.1z M449.2,288.3c0-0.7-0.3-1.7-1.5-1.7c-1.1,0-1.5,1-1.6,1.7
			H449.2z"/>
	</g>
	<g>
		<path class="st0" d="M1190.3,195.6c0.5-0.1,1.2-0.2,2-0.2c1,0,1.8,0.2,2.3,0.7c0.4,0.4,0.7,1,0.7,1.7s-0.2,1.3-0.6,1.7
			c-0.6,0.6-1.5,0.9-2.5,0.9c-0.3,0-0.6,0-0.8-0.1v3.2h-1L1190.3,195.6L1190.3,195.6L1190.3,195.6z M1191.4,199.5
			c0.2,0.1,0.5,0.1,0.9,0.1c1.3,0,2-0.6,2-1.7s-0.8-1.6-1.9-1.6c-0.5,0-0.8,0-1,0.1V199.5z"/>
		<path class="st0" d="M1197.7,196.2c0,0.4-0.3,0.6-0.7,0.6c-0.4,0-0.6-0.3-0.6-0.6c0-0.4,0.3-0.7,0.7-0.7
			C1197.4,195.5,1197.7,195.8,1197.7,196.2z M1196.5,203.6v-5.8h1.1v5.8H1196.5z"/>
	</g>
	<g>
		<path class="st0" d="M402.6,191.7c0.5-0.1,1.2-0.2,2-0.2c1,0,1.8,0.2,2.3,0.7c0.4,0.4,0.7,1,0.7,1.7c0,0.7-0.2,1.3-0.6,1.7
			c-0.6,0.6-1.5,0.9-2.5,0.9c-0.3,0-0.6,0-0.8-0.1v3.2h-1V191.7z M403.7,195.6c0.2,0.1,0.5,0.1,0.9,0.1c1.3,0,2-0.6,2-1.7
			c0-1.1-0.8-1.6-1.9-1.6c-0.5,0-0.8,0-1,0.1V195.6z"/>
		<path class="st0" d="M410,191.6v8.1h-1v-8.1H410z"/>
		<path class="st0" d="M416.3,199.7l-1-1.8c-0.4-0.7-0.7-1.1-0.9-1.6h0c-0.2,0.5-0.5,0.9-0.9,1.6l-1,1.8h-1.2l2.5-4.1l-2.4-4h1.2
			l1.1,1.9c0.3,0.5,0.5,0.9,0.7,1.4h0c0.2-0.5,0.4-0.9,0.7-1.4l1.1-1.9h1.2l-2.5,3.9l2.5,4.1H416.3z"/>
		<path class="st0" d="M422.9,195.9h-3.1v2.9h3.5v0.9h-4.5v-8.1h4.4v0.9h-3.3v2.6h3.1V195.9z"/>
		<path class="st0" d="M424.6,191.6h1v7.2h3.5v0.9h-4.5V191.6z"/>
	</g>
</g>
<g id="GRS_Back">
	<circle class="st1" cx="256.5" cy="119.4" r="6.1"/>
	<circle class="st1" cx="253.7" cy="161.9" r="4.3"/>
	<circle class="st1" cx="256.5" cy="289.5" r="6.1"/>
	<circle class="st2" cx="749.7" cy="119.4" r="6.1"/>
	<circle class="st2" cx="749.8" cy="289.5" r="6.1"/>
	<circle class="st2" cx="752.6" cy="246.9" r="4.3"/>
	<circle class="st1" cx="537.2" cy="99.5" r="6.1"/>
	<circle class="st1" cx="469.1" cy="309.3" r="6.1"/>
	<g id="LWPOLYLINE_14_">
		<path class="st1" d="M293,248.9h31.2c1.6,0,2.8-1.4,2.8-2.9v-86.1c0-1.7-1.3-2.9-2.8-2.9H293c-1.6,0-2.8,1.4-2.8,2.9v86.1
			C290.1,247.4,291.4,248.9,293,248.9z"/>
	</g>
	<g id="LWPOLYLINE_13_">
		<path class="st1" d="M571.6,169.8c0-1.7-1.3-3-2.8-3h-62.4c-1.6,0-2.8,1.4-2.8,3v41.9c0,1.7,1.3,3,2.8,3h62.4c1.6,0,2.8-1.4,2.8-3
			V169.8z"/>
	</g>
	<circle class="st2" cx="800.5" cy="119.4" r="6.1"/>
	<circle class="st2" cx="797.7" cy="161.9" r="4.3"/>
	<circle class="st2" cx="800.5" cy="289.5" r="6.1"/>
	<circle class="st1" cx="1293.8" cy="289.5" r="6.1"/>
	<circle class="st1" cx="1296.6" cy="246.9" r="4.3"/>
	<circle class="st2" cx="1081.2" cy="99.5" r="6.1"/>
	<circle class="st1" cx="1013.1" cy="309.3" r="6.1"/>
	<g id="LWPOLYLINE_12_">
		<path class="st1" d="M837,248.9h31.2c1.6,0,2.8-1.4,2.8-2.9v-86.1c0-1.7-1.3-2.9-2.8-2.9H837c-1.6,0-2.8,1.4-2.8,2.9v86.1
			C834.1,247.4,835.4,248.9,837,248.9z"/>
	</g>
	<g id="LWPOLYLINE_8_">
		<path class="st2" d="M1115.6,169.8c0-1.7-1.3-3-2.8-3h-62.4c-1.6,0-2.8,1.4-2.8,3v41.9c0,1.7,1.3,3,2.8,3h62.4
			c1.6,0,2.8-1.4,2.8-3V169.8z"/>
	</g>
	<path class="st3" d="M73.1,78.8c2.7,0,4.8,2.2,4.8,4.8c0,2.7-2.2,4.8-4.8,4.8c-2.7,0-4.8-2.2-4.8-4.8S70.4,78.8,73.1,78.8z"/>
	<path class="st3" d="M73.1,318.6c2.7,0,4.8,2.2,4.8,4.8c0,2.7-2.2,4.8-4.8,4.8c-2.7,0-4.8-2.2-4.8-4.8S70.4,318.6,73.1,318.6z"/>
	<path class="st3" d="M1482.1,83.6c0,2.7-2.2,4.8-4.8,4.8c-2.7,0-4.8-2.2-4.8-4.8c0-2.7,2.2-4.8,4.8-4.8
		C1479.9,78.8,1482.1,80.9,1482.1,83.6z"/>
	<path class="st3" d="M1477.2,328.1c-2.7,0-4.8-2.2-4.8-4.8c0-2.7,2.2-4.8,4.8-4.8c2.7,0,4.8,2.2,4.8,4.8S1479.9,328.1,1477.2,328.1
		z"/>
	<g id="LWPOLYLINE_7_">
		<path class="st1" d="M682.4,248.9h31.2c1.6,0,2.8-1.4,2.8-2.9v-86.1c0-1.7-1.3-2.9-2.8-2.9h-31.2c-1.6,0-2.8,1.4-2.8,2.9v86.1
			C679.5,247.4,680.8,248.9,682.4,248.9z"/>
	</g>
	<ellipse class="st4" cx="612.2" cy="254.2" rx="9" ry="12.6"/>
	<ellipse class="st4" cx="633.4" cy="154.6" rx="9" ry="12.6"/>
	<ellipse class="st4" cx="910.6" cy="257" rx="9" ry="12.6"/>
	<ellipse class="st4" cx="931.8" cy="157.4" rx="9" ry="12.6"/>
	<path class="st2" d="M1137.2,257.1c2.6,0,4.7,2.1,4.7,4.7c0,2.6-2.1,4.7-4.7,4.7s-4.7-2.1-4.7-4.7
		C1132.4,259.2,1134.5,257.1,1137.2,257.1L1137.2,257.1z"/>
	<path class="st2" d="M1247.3,257.1c2.6,0,4.7,2.1,4.7,4.7c0,2.6-2.1,4.7-4.7,4.7s-4.7-2.1-4.7-4.7
		C1242.5,259.2,1244.6,257.1,1247.3,257.1L1247.3,257.1z"/>
	<path class="st2" d="M1137.2,141c2.6,0,4.7,2.1,4.7,4.7c0,2.6-2.1,4.7-4.7,4.7s-4.7-2.1-4.7-4.7
		C1132.4,143.1,1134.5,141,1137.2,141L1137.2,141z"/>
	<path class="st2" d="M1247.3,141c2.6,0,4.7,2.1,4.7,4.7c0,2.6-2.1,4.7-4.7,4.7s-4.7-2.1-4.7-4.7
		C1242.5,143.1,1244.6,141,1247.3,141L1247.3,141z"/>
	<path class="st2" d="M361.2,256.5c2.6,0,4.7,2.1,4.7,4.7c0,2.6-2.1,4.7-4.7,4.7s-4.7-2.1-4.7-4.7
		C356.4,258.6,358.5,256.5,361.2,256.5L361.2,256.5z"/>
	<path class="st2" d="M471.3,256.5c2.6,0,4.7,2.1,4.7,4.7c0,2.6-2.1,4.7-4.7,4.7c-2.6,0-4.7-2.1-4.7-4.7
		C466.5,258.6,468.6,256.5,471.3,256.5L471.3,256.5z"/>
	<path class="st2" d="M361.2,140.4c2.6,0,4.7,2.1,4.7,4.7c0,2.6-2.1,4.7-4.7,4.7s-4.7-2.1-4.7-4.7
		C356.4,142.5,358.5,140.4,361.2,140.4L361.2,140.4z"/>
	<path class="st2" d="M471.3,140.4c2.6,0,4.7,2.1,4.7,4.7c0,2.6-2.1,4.7-4.7,4.7c-2.6,0-4.7-2.1-4.7-4.7
		C466.5,142.5,468.6,140.4,471.3,140.4L471.3,140.4z"/>
	<g id="Layer_7">
	</g>
	<rect x="45.1" y="52.7" class="st5" width="1461.6" height="302.4"/>
</g>
</svg>
