<?xml version="1.0" encoding="utf-8"?>
<!-- Generator: Adobe Illustrator 24.0.1, SVG Export Plug-In . SVG Version: 6.00 Build 0)  -->
<svg version="1.1" xmlns="http://www.w3.org/2000/svg" xmlns:xlink="http://www.w3.org/1999/xlink" x="0px" y="0px"
	 viewBox="0 0 1728 1440" style="enable-background:new 0 0 1728 1440;" xml:space="preserve">
<style type="text/css">
	.st0{fill:none;stroke:#FF0000;stroke-width:0.1;stroke-miterlimit:10;}
	.st1{fill:none;stroke:#000000;stroke-width:0.1;stroke-miterlimit:10;}
	.st2{fill:none;stroke:#000000;stroke-width:0.1;stroke-linejoin:round;stroke-miterlimit:10;}
	.st3{fill:none;stroke:#000000;stroke-width:0.1;stroke-linecap:round;stroke-linejoin:round;stroke-miterlimit:10;}
	.st4{fill:none;stroke:#000000;stroke-width:0.1;stroke-miterlimit:22.9256;}
	.st5{fill:none;stroke:#010101;stroke-width:0.1;stroke-miterlimit:22.9256;}
</style>
<g id="Engraved_Text">
	<g>
		<path class="st0" d="M141.1,644.1c0.5-0.1,1.2-0.2,2-0.2c1,0,1.8,0.2,2.3,0.7c0.4,0.4,0.7,1,0.7,1.7s-0.2,1.3-0.6,1.7
			c-0.6,0.6-1.5,0.9-2.5,0.9c-0.3,0-0.6,0-0.8-0.1v3.2h-1L141.1,644.1L141.1,644.1L141.1,644.1z M142.2,648c0.2,0.1,0.5,0.1,0.9,0.1
			c1.3,0,2-0.6,2-1.7s-0.8-1.6-1.9-1.6c-0.5,0-0.8,0-1,0.1V648z"/>
		<path class="st0" d="M148.6,644v8.1h-1V644H148.6z"/>
		<path class="st0" d="M154.8,652.1l-1-1.8c-0.4-0.7-0.7-1.1-0.9-1.6l0,0c-0.2,0.5-0.5,0.9-0.9,1.6l-1,1.8h-1.2l2.5-4.1l-2.4-4h1.2
			l1.1,1.9c0.3,0.5,0.5,0.9,0.7,1.4l0,0c0.2-0.5,0.4-0.9,0.7-1.4l1.1-1.9h1.3l-2.5,3.9l2.5,4.1L154.8,652.1L154.8,652.1z"/>
		<path class="st0" d="M161.4,648.3h-3.1v2.9h3.5v0.9h-4.5V644h4.4v0.9h-3.3v2.6h3.1L161.4,648.3L161.4,648.3L161.4,648.3z"/>
		<path class="st0" d="M163.1,644h1v7.2h3.5v0.9h-4.5V644z"/>
		<path class="st0" d="M171.3,644.1c0.5-0.1,1.2-0.2,1.9-0.2c1,0,1.7,0.2,2.2,0.6c0.4,0.3,0.7,0.8,0.7,1.4c0,0.8-0.5,1.5-1.4,1.8
			l0,0c0.8,0.2,1.7,0.8,1.7,2c0,0.7-0.3,1.2-0.7,1.6c-0.6,0.5-1.5,0.8-2.8,0.8c-0.7,0-1.3,0-1.6-0.1L171.3,644.1L171.3,644.1z
			 M172.4,647.4h0.9c1.1,0,1.8-0.6,1.8-1.4c0-0.9-0.7-1.3-1.8-1.3c-0.5,0-0.8,0-0.9,0.1V647.4z M172.4,651.3c0.2,0,0.5,0,0.9,0
			c1.1,0,2.1-0.4,2.1-1.6c0-1.1-0.9-1.6-2.1-1.6h-0.9V651.3z"/>
		<path class="st0" d="M184.8,648c0,2.8-1.7,4.3-3.8,4.3s-3.6-1.7-3.6-4.1c0-2.6,1.6-4.2,3.8-4.2C183.3,643.9,184.8,645.6,184.8,648
			z M178.5,648.1c0,1.7,0.9,3.3,2.6,3.3s2.6-1.5,2.6-3.4c0-1.6-0.8-3.3-2.6-3.3S178.5,646.3,178.5,648.1z"/>
		<path class="st0" d="M187.3,649.6l-0.8,2.5h-1.1l2.7-8.1h1.3l2.8,8.1h-1.1l-0.9-2.5H187.3z M189.9,648.7l-0.8-2.3
			c-0.2-0.5-0.3-1-0.4-1.5l0,0c-0.1,0.5-0.3,1-0.4,1.5l-0.8,2.3H189.9z"/>
		<path class="st0" d="M193.3,644.1c0.5-0.1,1.3-0.2,2-0.2c1.1,0,1.8,0.2,2.3,0.7c0.4,0.4,0.6,0.9,0.6,1.5c0,1.1-0.7,1.8-1.5,2.1
			l0,0c0.6,0.2,1,0.8,1.2,1.6c0.3,1.1,0.5,1.9,0.6,2.2h-1.1c-0.1-0.2-0.3-0.9-0.5-1.9c-0.2-1.1-0.7-1.5-1.6-1.6h-1v3.5h-1V644.1z
			 M194.3,647.8h1.1c1.1,0,1.8-0.6,1.8-1.5c0-1-0.8-1.5-1.9-1.5c-0.5,0-0.9,0-1,0.1L194.3,647.8L194.3,647.8z"/>
		<path class="st0" d="M199.7,644.1c0.6-0.1,1.4-0.2,2.2-0.2c1.5,0,2.6,0.3,3.3,1s1.1,1.6,1.1,2.9s-0.4,2.4-1.2,3.1
			c-0.8,0.8-2,1.2-3.6,1.2c-0.7,0-1.4,0-1.9-0.1L199.7,644.1L199.7,644.1z M200.8,651.3c0.3,0,0.6,0.1,1.1,0.1
			c2.2,0,3.4-1.2,3.4-3.4c0-1.9-1.1-3.1-3.3-3.1c-0.5,0-0.9,0-1.2,0.1V651.3z"/>
	</g>
	<g>
		<path class="st0" d="M171.9,698.7v4.8c0,1.8,0.8,2.6,1.9,2.6c1.2,0,2-0.8,2-2.6v-4.8h1.1v4.7c0,2.5-1.3,3.5-3.1,3.5
			c-1.7,0-2.9-0.9-2.9-3.5v-4.8L171.9,698.7L171.9,698.7z"/>
		<path class="st0" d="M178.4,705.5c0.5,0.3,1.2,0.5,1.9,0.5c1.1,0,1.7-0.6,1.7-1.4s-0.4-1.2-1.5-1.6c-1.3-0.5-2.1-1.2-2.1-2.3
			c0-1.3,1-2.2,2.6-2.2c0.8,0,1.4,0.2,1.8,0.4l-0.3,0.9c-0.3-0.1-0.8-0.4-1.5-0.4c-1.1,0-1.5,0.7-1.5,1.2c0,0.8,0.5,1.1,1.6,1.6
			c1.4,0.5,2.1,1.2,2.1,2.4s-0.9,2.3-2.8,2.3c-0.8,0-1.6-0.2-2.1-0.5L178.4,705.5z"/>
		<path class="st0" d="M184.5,698.8c0.5-0.1,1.2-0.2,1.9-0.2c1,0,1.7,0.2,2.2,0.6c0.4,0.3,0.7,0.8,0.7,1.4c0,0.8-0.5,1.5-1.4,1.8
			l0,0c0.8,0.2,1.7,0.8,1.7,2c0,0.7-0.3,1.2-0.7,1.6c-0.6,0.5-1.5,0.8-2.8,0.8c-0.7,0-1.3,0-1.6-0.1L184.5,698.8L184.5,698.8z
			 M185.5,702.1h0.9c1.1,0,1.8-0.6,1.8-1.4c0-0.9-0.7-1.3-1.8-1.3c-0.5,0-0.8,0-0.9,0.1V702.1z M185.5,706c0.2,0,0.5,0,0.9,0
			c1.1,0,2.1-0.4,2.1-1.6c0-1.1-0.9-1.6-2.1-1.6h-0.9V706z"/>
	</g>
	<g>
		<path class="st0" d="M436,656.2c0.5-0.1,1.2-0.2,2-0.2c1,0,1.8,0.2,2.3,0.7c0.4,0.4,0.7,1,0.7,1.7s-0.2,1.3-0.6,1.7
			c-0.6,0.6-1.5,0.9-2.5,0.9c-0.3,0-0.6,0-0.8-0.1v3.2h-1v-7.9H436L436,656.2z M437.1,660.1c0.2,0.1,0.5,0.1,0.9,0.1
			c1.3,0,2-0.6,2-1.7c0-1.1-0.8-1.6-1.9-1.6c-0.5,0-0.8,0-1,0.1V660.1z"/>
		<path class="st0" d="M443.4,656.8c0,0.4-0.3,0.6-0.7,0.6s-0.6-0.3-0.6-0.6c0-0.4,0.3-0.7,0.7-0.7
			C443.1,656.1,443.4,656.4,443.4,656.8z M442.2,664.2v-5.8h1.1v5.8H442.2z"/>
	</g>
	<g>
		<path class="st0" d="M438,595.7v3.4h3.9v-3.4h1.1v8.1h-1.1V600H438v3.8h-1v-8.1H438z"/>
		<path class="st0" d="M444.7,595.9c0.6-0.1,1.4-0.2,2.2-0.2c1.5,0,2.6,0.3,3.3,1c0.7,0.7,1.1,1.6,1.1,2.9c0,1.3-0.4,2.4-1.2,3.1
			c-0.8,0.8-2,1.2-3.6,1.2c-0.7,0-1.4,0-1.9-0.1V595.9z M445.8,603c0.3,0,0.6,0.1,1.1,0.1c2.2,0,3.4-1.2,3.4-3.4
			c0-1.9-1.1-3.1-3.3-3.1c-0.5,0-0.9,0-1.2,0.1V603z"/>
		<path class="st0" d="M459.5,600.3c-0.1-1.1-0.1-2.5-0.1-3.5h0c-0.3,0.9-0.6,2-1,3.1l-1.4,3.9h-0.8l-1.3-3.9
			c-0.4-1.1-0.7-2.2-0.9-3.1h0c0,1-0.1,2.4-0.2,3.6l-0.2,3.5h-1l0.6-8.1h1.3l1.4,3.9c0.3,1,0.6,1.9,0.8,2.7h0
			c0.2-0.8,0.5-1.7,0.9-2.7l1.4-3.9h1.3l0.5,8.1h-1L459.5,600.3z"/>
		<path class="st0" d="M463.4,595.7v8.1h-1v-8.1H463.4z"/>
	</g>
	<g>
		<path class="st0" d="M434.6,639.1c0.5-0.1,1.2-0.2,2-0.2c1,0,1.8,0.2,2.3,0.7c0.4,0.4,0.7,1,0.7,1.7c0,0.7-0.2,1.3-0.6,1.7
			c-0.6,0.6-1.5,0.9-2.5,0.9c-0.3,0-0.6,0-0.8-0.1v3.2h-1V639.1z M435.7,643c0.2,0.1,0.5,0.1,0.9,0.1c1.3,0,2-0.6,2-1.7
			c0-1.1-0.8-1.6-1.9-1.6c-0.5,0-0.8,0-1,0.1V643z"/>
		<path class="st0" d="M440.9,645.9c0.3,0.2,1,0.5,1.7,0.5c1.4,0,1.8-0.9,1.8-1.5c0-1.1-1-1.6-2-1.6h-0.6v-0.8h0.6
			c0.8,0,1.7-0.4,1.7-1.3c0-0.6-0.4-1.2-1.4-1.2c-0.6,0-1.2,0.3-1.6,0.5l-0.3-0.8c0.4-0.3,1.2-0.6,2-0.6c1.5,0,2.2,0.9,2.2,1.9
			c0,0.8-0.5,1.5-1.4,1.8v0c1,0.2,1.7,0.9,1.7,2c0,1.2-1,2.3-2.8,2.3c-0.9,0-1.6-0.3-2-0.5L440.9,645.9z"/>
	</g>
</g>
<g id="Pi_Board">
	<path class="st1" d="M532.8,738.7c-2.6,0-4.6-2-4.6-4.7c0-2.6,2.1-4.7,4.6-4.7c2.7,0,4.7,2.1,4.7,4.7
		C537.5,736.7,535.5,738.7,532.8,738.7z"/>
	<path class="st1" d="M368.4,738.7c-2.6,0-4.6-2-4.6-4.7c0-2.6,2.1-4.7,4.6-4.7c2.7,0,4.7,2.1,4.7,4.7
		C373.1,736.7,371.1,738.7,368.4,738.7z"/>
	<path class="st2" d="M368.4,599.6c-2.6,0-4.6-2.1-4.6-4.7c0-2.6,2.1-4.6,4.6-4.6c2.7,0,4.7,2.1,4.7,4.6
		C373.1,597.5,371.1,599.6,368.4,599.6z"/>
	<path class="st2" d="M532.8,599.6c-2.6,0-4.6-2.1-4.6-4.7c0-2.6,2.1-4.6,4.6-4.6c2.7,0,4.7,2.1,4.7,4.6
		C537.5,597.5,535.5,599.6,532.8,599.6z"/>
	<path class="st3" d="M382.9,717.6c2.6,0,4.7,2.1,4.7,4.7c0,2.6-2.1,4.7-4.7,4.7s-4.7-2.1-4.7-4.7
		C378.1,719.7,380.2,717.6,382.9,717.6L382.9,717.6z"/>
	<path class="st3" d="M493,717.6c2.6,0,4.7,2.1,4.7,4.7c0,2.6-2.1,4.7-4.7,4.7c-2.6,0-4.7-2.1-4.7-4.7
		C488.2,719.7,490.3,717.6,493,717.6L493,717.6z"/>
	<path class="st3" d="M382.9,601.5c2.6,0,4.7,2.1,4.7,4.7c0,2.6-2.1,4.7-4.7,4.7s-4.7-2.1-4.7-4.7
		C378.1,603.6,380.2,601.5,382.9,601.5L382.9,601.5z"/>
	<path class="st3" d="M493,601.5c2.6,0,4.7,2.1,4.7,4.7c0,2.6-2.1,4.7-4.7,4.7c-2.6,0-4.7-2.1-4.7-4.7
		C488.2,603.6,490.3,601.5,493,601.5L493,601.5z"/>
	<path class="st1" d="M537.3,767.3H305.7c-6.6,0-12-5.4-12-12V573.5c0-6.6,5.4-12,12-12h231.7c6.6,0,12,5.4,12,12v181.8
		C549.3,761.9,543.9,767.3,537.3,767.3z"/>
	<g id="LWPOLYLINE_2_">
		<path class="st3" d="M361.3,630.3c0-1.7-1.3-3-2.8-3h-62.4c-1.6,0-2.8,1.4-2.8,3v41.9c0,1.7,1.3,3,2.8,3h62.4c1.6,0,2.8-1.4,2.8-3
			V630.3z"/>
	</g>
</g>
<g id="Pixel_Board">
	<path class="st3" d="M120.9,590.7c0,2.6-2.1,4.7-4.7,4.7s-4.7-2.1-4.7-4.7c0-2.6,2.1-4.7,4.7-4.7
		C118.8,585.9,120.9,588,120.9,590.7L120.9,590.7z"/>
	<path class="st3" d="M120.9,700.8c0,2.6-2.1,4.7-4.7,4.7s-4.7-2.1-4.7-4.7c0-2.6,2.1-4.7,4.7-4.7
		C118.8,696,120.9,698.1,120.9,700.8L120.9,700.8z"/>
	<path class="st3" d="M276.9,576.9c0,2.6-2.1,4.7-4.7,4.7c-2.6,0-4.7-2.1-4.7-4.7c0-2.6,2.1-4.7,4.7-4.7
		C274.8,572.2,276.9,574.2,276.9,576.9L276.9,576.9z"/>
	<path class="st3" d="M78.4,576.9c0,2.6-2.1,4.7-4.7,4.7s-4.7-2.1-4.7-4.7c0-2.6,2.1-4.7,4.7-4.7C76.3,572.1,78.4,574.2,78.4,576.9
		L78.4,576.9z"/>
	<path class="st3" d="M276.9,712.9c0,2.6-2.1,4.7-4.7,4.7c-2.6,0-4.7-2.1-4.7-4.7s2.1-4.7,4.7-4.7
		C274.8,708.2,276.9,710.2,276.9,712.9L276.9,712.9z"/>
	<path class="st3" d="M78.7,712.9c0,2.6-2.1,4.7-4.7,4.7s-4.7-2.1-4.7-4.7s2.1-4.7,4.7-4.7C76.6,708.1,78.7,710.2,78.7,712.9
		L78.7,712.9z"/>
	<path class="st3" d="M237,590.7c0,2.6-2.1,4.7-4.7,4.7c-2.6,0-4.7-2.1-4.7-4.7c0-2.6,2.1-4.7,4.7-4.7
		C234.9,585.9,237,588,237,590.7L237,590.7z"/>
	<path class="st3" d="M237,700.8c0,2.6-2.1,4.7-4.7,4.7c-2.6,0-4.7-2.1-4.7-4.7c0-2.6,2.1-4.7,4.7-4.7
		C234.9,696,237,698.1,237,700.8L237,700.8z"/>
	<path class="st3" d="M60.2,714V575.6c0-6.6,5.4-12,12-12h201.3c6.6,0,12,5.4,12,12V714c0,6.6-5.4,12-12,12H72.2
		C65.6,726,60.2,720.6,60.2,714z"/>
</g>
<g id="GRS_3_x2F_4_x22__Piece">
	<polyline class="st4" points="1524.8,502 1524.8,556 63.2,556 63.2,502 	"/>
</g>
<g id="GRS_Front">
	<polygon class="st4" points="1524.5,502 62.9,502 63.5,56.5 1525.1,56.5 	"/>
	<path class="st5" d="M91.7,147.6c2.7,0,4.8,2.2,4.8,4.8c0,2.7-2.2,4.8-4.8,4.8c-2.7,0-4.8-2.2-4.8-4.8S89,147.6,91.7,147.6z"/>
	<path class="st5" d="M91.7,387.4c2.7,0,4.8,2.2,4.8,4.8c0,2.7-2.2,4.8-4.8,4.8c-2.7,0-4.8-2.2-4.8-4.8S89,387.4,91.7,387.4z"/>
	<path class="st5" d="M1500.8,152.4c0,2.7-2.2,4.8-4.8,4.8c-2.7,0-4.8-2.2-4.8-4.8c0-2.7,2.2-4.8,4.8-4.8
		C1498.6,147.6,1500.8,149.7,1500.8,152.4z"/>
	<path class="st5" d="M1495.9,396.9c-2.7,0-4.8-2.2-4.8-4.8c0-2.7,2.2-4.8,4.8-4.8c2.7,0,4.8,2.2,4.8,4.8S1498.6,396.9,1495.9,396.9
		z"/>
</g>
</svg>
